<?xml version="1.0" encoding="UTF-8" standalone="no"?>
<svg width="78px" height="106px" viewBox="0 0 78 106" version="1.1" xmlns="http://www.w3.org/2000/svg" xmlns:xlink="http://www.w3.org/1999/xlink">
    <!-- Generator: Sketch 39.1 (31720) - http://www.bohemiancoding.com/sketch -->
    <title>Group 32</title>
    <desc>Created with Sketch.</desc>
    <defs></defs>
    <g id="Page-1" stroke="none" stroke-width="1" fill="none" fill-rule="evenodd">
        <g id="07-Leaplines-onzeaanpak-@2x-Copy" transform="translate(-854.000000, -3904.000000)">
            <g id="Group-32" transform="translate(854.000000, 3904.000000)">
                <g id="Group-28">
                    <path d="M38.712151,67.6454296 C22.0891241,67.6454296 8.61791258,54.4312212 8.61791258,38.1291997 C8.61791258,21.8271781 22.0891241,8.61296968 38.712151,8.61296968 C55.3415777,8.61296968 68.815989,21.8271781 68.815989,38.1291997 C68.815989,54.4312212 55.3415777,67.6454296 38.712151,67.6454296 L38.712151,67.6454296 Z M38.712151,0.319178928 C17.4237971,0.319178928 0.164007421,17.2488048 0.164007421,38.1291997 C0.164007421,54.8956484 11.3697515,68.9508466 26.7768497,73.8995064 L38.7153509,94.1836772 L50.6634515,73.8963684 C66.0705497,68.9445705 77.2698941,54.8956484 77.2698941,38.1291997 C77.2698941,17.2488048 60.0101044,0.319178928 38.712151,0.319178928 L38.712151,0.319178928 Z" id="Fill-4-Copy-4" fill="#6A9BD4"></path>
                    <path d="M37.5635173,40.0532026 C40.3900135,42.8699107 43.6599449,45.5627718 44.9431315,44.2633512 C46.7840009,42.4017561 47.9161485,40.7826677 51.9954945,44.0526168 C56.0748404,47.3225659 52.95853,49.5239296 51.1783344,51.3271675 C49.1238157,53.4066294 41.4259866,51.4717637 33.7965769,43.8652253 C26.1665218,36.2567417 24.1823589,28.5393247 26.240105,26.4598627 C28.0203005,24.6559764 30.1884213,21.5105227 33.471262,25.5858014 C36.7592665,29.6584863 35.1552831,30.8087718 33.3176411,32.6677732 C32.0312271,33.9671938 34.7370211,37.2345492 37.5635173,40.0532026 L37.5635173,40.0532026 Z" id="phone-call" fill="#4A4A4A"></path>
                </g>
                <ellipse id="Oval-Copy-4" fill="#E0E0E0" cx="38" cy="103.013699" rx="3" ry="3.01369863"></ellipse>
            </g>
        </g>
    </g>
</svg>