<?xml version="1.0" encoding="UTF-8" standalone="no"?>
<svg width="78px" height="106px" viewBox="0 0 78 106" version="1.1" xmlns="http://www.w3.org/2000/svg" xmlns:xlink="http://www.w3.org/1999/xlink">
    <!-- Generator: Sketch 39.1 (31720) - http://www.bohemiancoding.com/sketch -->
    <title>Group 4</title>
    <desc>Created with Sketch.</desc>
    <defs>
        <polygon id="path-1" points="25.2920083 25.3181682 0.00219494461 25.3181682 0.00219494461 0.0366575795 25.2920083 0.0366575795"></polygon>
    </defs>
    <g id="Page-1" stroke="none" stroke-width="1" fill="none" fill-rule="evenodd">
        <g id="07-Leaplines-onzeaanpak-@2x-Copy" transform="translate(-670.000000, -3904.000000)">
            <g id="Group-4" transform="translate(670.000000, 3904.000000)">
                <g id="Group-26">
                    <path d="M38.808626,67.6454296 C22.185599,67.6454296 8.71438753,54.4312212 8.71438753,38.1291997 C8.71438753,21.8271781 22.185599,8.61296968 38.808626,8.61296968 C55.4380526,8.61296968 68.9124639,21.8271781 68.9124639,38.1291997 C68.9124639,54.4312212 55.4380526,67.6454296 38.808626,67.6454296 L38.808626,67.6454296 Z M38.808626,0.319178928 C17.5202721,0.319178928 0.260482375,17.2488048 0.260482375,38.1291997 C0.260482375,54.8956484 11.4662265,68.9508466 26.8733246,73.8995064 L38.8118258,94.1836772 L50.7599264,73.8963684 C66.1670246,68.9445705 77.3663691,54.8956484 77.3663691,38.1291997 C77.3663691,17.2488048 60.1065793,0.319178928 38.808626,0.319178928 L38.808626,0.319178928 Z" id="Fill-4-Copy-3" fill="#F5C706"></path>
                    <g id="pencil-edit-button" transform="translate(26.762152, 23.908390)">
                        <mask id="mask-2" fill="white">
                            <use xlink:href="#path-1"></use>
                        </mask>
                        <g id="Clip-2"></g>
                        <path d="M15.727144,4.25617466 L20.8721307,9.4246545 L7.84879268,22.5074598 L2.70680569,17.33898 L15.727144,4.25617466 Z M24.7762787,3.00959646 L22.4817567,0.704707513 C21.5950357,-0.186025732 20.1551886,-0.186025732 19.2655044,0.704707513 L17.06756,2.91268816 L22.2125102,8.081021 L24.7762787,5.50565607 C25.4639182,4.81476635 25.4639182,3.70048618 24.7762787,3.00959646 L24.7762787,3.00959646 Z M0.0143037224,24.6036119 C-0.0793106652,25.0269656 0.301073236,25.4062199 0.722502601,25.3032847 L6.45580767,23.9068055 L1.31367435,18.7383624 L0.0143037224,24.6036119 Z" id="Fill-1" fill="#4A4A4A" mask="url(#mask-2)"></path>
                    </g>
                </g>
                <ellipse id="Oval-Copy-3" fill="#E0E0E0" cx="39" cy="103.013699" rx="3" ry="3.01369863"></ellipse>
            </g>
        </g>
    </g>
</svg>