<?xml version="1.0" encoding="UTF-8" standalone="no"?>
<svg width="77px" height="106px" viewBox="0 0 77 106" version="1.1" xmlns="http://www.w3.org/2000/svg" xmlns:xlink="http://www.w3.org/1999/xlink">
    <!-- Generator: Sketch 39.1 (31720) - http://www.bohemiancoding.com/sketch -->
    <title>Group 38</title>
    <desc>Created with Sketch.</desc>
    <defs></defs>
    <g id="Page-1" stroke="none" stroke-width="1" fill="none" fill-rule="evenodd">
        <g id="07-Leaplines-onzeaanpak-@2x-Copy" transform="translate(-1035.000000, -3904.000000)">
            <g id="Group-38" transform="translate(1035.000000, 3904.000000)">
                <g id="Group-29">
                    <path d="M38.5280322,67.4666154 C21.9489466,67.4666154 8.51334501,54.2873375 8.51334501,38.0284087 C8.51334501,21.76948 21.9489466,8.59020212 38.5280322,8.59020212 C55.1135005,8.59020212 68.5522935,21.76948 68.5522935,38.0284087 C68.5522935,54.2873375 55.1135005,67.4666154 38.5280322,67.4666154 L38.5280322,67.4666154 Z M38.5280322,0.318335209 C17.295952,0.318335209 0.0817869416,17.2032092 0.0817869416,38.0284087 C0.0817869416,54.750537 11.2579097,68.7685816 26.6242807,73.7041601 L38.5312236,93.9347116 L50.4477405,73.7010304 C65.8141115,68.7623221 76.9838516,54.750537 76.9838516,38.0284087 C76.9838516,17.2032092 59.7696865,0.318335209 38.5280322,0.318335209 L38.5280322,0.318335209 Z" id="Fill-4-Copy-5" fill="#1F76DA"></path>
                    <g id="screwdriver-and-wrench-crossed" transform="translate(26.118900, 25.363398)" fill="#4A4A4A">
                        <path d="M0.705004917,21.6736334 C-0.234334021,22.6152496 -0.234334021,24.1403458 0.705004917,25.083974 C1.17367296,25.554782 1.79255511,25.7901861 2.401423,25.7901861 C3.02030515,25.7901861 3.63718446,25.554782 4.10785535,25.083974 L11.993095,17.1546807 L8.59825599,13.7423281 L0.705004917,21.6736334 Z" id="Fill-1" stroke="#4A4A4A"></path>
                        <polygon id="Fill-3" stroke="#4A4A4A" points="20.4271169 6.97597097 23.862013 5.19132668 25.6605767 1.6944701 23.9881929 0.0124378202 20.5052282 1.81921412 18.7306988 5.26979469 14.5447321 9.47487539 16.2411502 11.1810517"></polygon>
                        <path d="M21.1781875,16.1406325 L20.8577307,16.1084405 C20.2708942,16.1084405 19.7161034,16.2271485 19.1913554,16.4223125 L9.32529231,6.5111989 C9.52157209,5.98606681 9.63773767,5.42673072 9.63773767,4.83721462 L9.60769485,4.51529457 C9.43544933,2.00029415 7.37851737,0.0124378202 4.83489167,0.0124378202 C4.09183251,0.0124378202 3.39483902,0.19351785 2.7699483,0.4912939 L5.96249897,3.70647043 C6.13274163,3.87145446 6.25091007,4.07667849 6.32100999,4.27989053 C6.53331261,4.85331062 6.42315559,5.52129473 5.96249897,5.97801881 C5.64805075,6.29189086 5.24147121,6.44882689 4.83489167,6.44882689 C4.6386119,6.44882689 4.45234639,6.41059888 4.28010087,6.34017887 C4.06779826,6.25969885 3.86550991,6.15105084 3.70127581,5.97801881 L0.508725139,2.77089028 C0.204291197,3.40064638 0.0240342585,4.0988105 0.0240342585,4.83721462 C0.0240342585,7.40050304 2.0108663,9.46682739 4.50642347,9.63985941 L4.83489167,9.67205142 C5.42172815,9.67205142 5.97651895,9.5452954 6.49325551,9.35817937 L16.3593186,19.267281 C16.1710503,19.7863771 16.0468733,20.3437012 16.0468733,20.9332173 L16.0769161,21.2631853 C16.2491616,23.7721498 18.3080964,25.7680541 20.8577307,25.7680541 C21.5927784,25.7680541 22.2897719,25.5869741 22.9146626,25.28115 L19.7241148,22.0740215 C19.5518693,21.9090374 19.4417123,21.7038134 19.3555895,21.5006014 C19.1512983,20.9271813 19.2614554,20.2571852 19.7241148,19.8024731 C20.0365602,19.488601 20.4431397,19.331665 20.8577307,19.331665 C21.045999,19.331665 21.2342674,19.369893 21.4125215,19.440313 C21.6168127,19.5187811 21.8211039,19.6294411 21.985338,19.8024731 L25.1838972,23.0096016 C25.4823226,22.3798455 25.6605767,21.6816814 25.6605767,20.9332173 C25.6605767,18.3799889 23.6817561,16.3136645 21.1781875,16.1406325 L21.1781875,16.1406325 Z" id="Fill-4"></path>
                    </g>
                </g>
                <ellipse id="Oval-Copy-5" fill="#E0E0E0" cx="38" cy="103.013699" rx="3" ry="3.01369863"></ellipse>
            </g>
        </g>
    </g>
</svg>