<?xml version="1.0" encoding="UTF-8" standalone="no"?>
<svg width="78px" height="106px" viewBox="0 0 78 106" version="1.1" xmlns="http://www.w3.org/2000/svg" xmlns:xlink="http://www.w3.org/1999/xlink">
    <!-- Generator: Sketch 39.1 (31720) - http://www.bohemiancoding.com/sketch -->
    <title>Group 34</title>
    <desc>Created with Sketch.</desc>
    <defs></defs>
    <g id="Page-1" stroke="none" stroke-width="1" fill="none" fill-rule="evenodd">
        <g id="07-Leaplines-onzeaanpak-@2x-Copy" transform="translate(-141.000000, -3904.000000)">
            <g id="Group-4" transform="translate(58.000000, 3904.000000)">
                <g id="Group-34" transform="translate(83.000000, 0.000000)">
                    <ellipse id="Oval" fill="#E0E0E0" cx="39" cy="103.013699" rx="3" ry="3.01369863"></ellipse>
                    <g id="Group-8">
                        <path d="M38.9871047,67.6454296 C22.3640777,67.6454296 8.8928662,54.4312212 8.8928662,38.1291997 C8.8928662,21.8271781 22.3640777,8.61296968 38.9871047,8.61296968 C55.6165313,8.61296968 69.0909426,21.8271781 69.0909426,38.1291997 C69.0909426,54.4312212 55.6165313,67.6454296 38.9871047,67.6454296 L38.9871047,67.6454296 Z M38.9871047,0.319178928 C17.6987508,0.319178928 0.438961039,17.2488048 0.438961039,38.1291997 C0.438961039,54.8956484 11.6447051,68.9508466 27.0518033,73.8995064 L38.9903045,94.1836772 L50.9384051,73.8963684 C66.3455033,68.9445705 77.5448477,54.8956484 77.5448477,38.1291997 C77.5448477,17.2488048 60.285058,0.319178928 38.9871047,0.319178928 L38.9871047,0.319178928 Z" id="Fill-4" fill="#DF2374"></path>
                        <path d="M42.3564375,29.847035 C43.6915185,30.6886644 44.6279669,32.1112896 44.7982303,33.7642317 C45.3419019,34.0185304 45.9472827,34.1651369 46.5877972,34.1651369 C48.926441,34.1651369 50.8227604,32.2615159 50.8227604,29.9126459 C50.8227604,27.5619659 48.926441,25.658345 46.5877972,25.658345 C44.2707742,25.658345 42.3915712,27.5280293 42.3564375,29.847035 L42.3564375,29.847035 Z M39.581325,38.5574469 C41.9217705,38.5574469 43.8167386,36.653826 43.8167386,34.303146 C43.8167386,31.9542759 41.9217705,30.050655 39.581325,30.050655 C37.2431316,30.050655 35.3463618,31.9542759 35.3463618,34.3049559 C35.3463618,36.653826 37.2431316,38.5574469 39.581325,38.5574469 L39.581325,38.5574469 Z M41.3780989,38.8474923 L37.7850015,38.8474923 C34.7954833,38.8474923 32.3622488,41.2918375 32.3622488,44.2950065 L32.3622488,48.7103934 L32.3744104,48.7791718 L32.6771008,48.8746469 C35.5292373,49.7692175 38.0084159,50.0678602 40.049324,50.0678602 C44.0347478,50.0678602 46.3432126,48.9275881 46.4873509,48.8533799 L46.768871,48.7103934 L46.7990499,48.7103934 L46.7990499,44.2950065 C46.8008517,41.2918375 44.3671667,38.8474923 41.3780989,38.8474923 L41.3780989,38.8474923 Z M48.3841207,34.4569922 L44.8194006,34.4569922 C44.7806634,35.8886672 44.1721296,37.1805231 43.2077543,38.1085779 C45.8666554,38.9022434 47.8107206,41.3769054 47.8107206,44.3022463 L47.8107206,45.661523 C51.3312983,45.5321112 53.3600448,44.5303007 53.4938231,44.4628799 L53.7753432,44.3180834 L53.8068735,44.3180834 L53.8068735,39.9026965 C53.8068735,36.8995274 51.3736389,34.4569922 48.3841207,34.4569922 L48.3841207,34.4569922 Z M32.1509961,34.1669468 C32.9797913,34.1669468 33.7504807,33.9230553 34.4031569,33.5094804 C34.6108061,32.1502037 35.3378036,30.9606103 36.3737976,30.1511076 C36.377401,30.071922 36.3864097,29.9940939 36.3864097,29.9126459 C36.3864097,27.5637759 34.4896399,25.658345 32.1509961,25.658345 C29.8128027,25.658345 27.9160329,27.5637759 27.9160329,29.9126459 C27.9160329,32.2615159 29.8128027,34.1669468 32.1509961,34.1669468 L32.1509961,34.1669468 Z M35.9553461,38.1085779 C34.996376,37.184143 34.3891935,35.9008844 34.3450511,34.4764492 C34.2130745,34.4673995 34.0810979,34.4569922 33.94777,34.4569922 L30.3546726,34.4569922 C27.3633527,34.4569922 24.9319199,36.8995274 24.9319199,39.9026965 L24.9319199,44.3180834 L24.9422798,44.3868617 L25.2449702,44.4823369 C27.5340664,45.1999843 29.5767763,45.5307537 31.3523799,45.6348262 L31.3523799,44.3022463 C31.3523799,41.3769054 33.2964451,38.9022434 35.9553461,38.1085779 L35.9553461,38.1085779 Z" id="multiple-users-silhouette" fill="#4A4A4A"></path>
                    </g>
                </g>
            </g>
        </g>
    </g>
</svg>