<?xml version="1.0" encoding="UTF-8" standalone="no"?>
<svg width="77px" height="106px" viewBox="0 0 77 106" version="1.1" xmlns="http://www.w3.org/2000/svg" xmlns:xlink="http://www.w3.org/1999/xlink">
    <!-- Generator: Sketch 39.1 (31720) - http://www.bohemiancoding.com/sketch -->
    <title>Group 39</title>
    <desc>Created with Sketch.</desc>
    <defs></defs>
    <g id="Page-1" stroke="none" stroke-width="1" fill="none" fill-rule="evenodd">
        <g id="07-Leaplines-onzeaanpak-@2x-Copy" transform="translate(-1211.000000, -3904.000000)">
            <g id="Group-39" transform="translate(1211.000000, 3904.000000)">
                <g id="Group-31">
                    <path d="M38.4703003,67.4666154 C21.8912147,67.4666154 8.45561305,54.2873375 8.45561305,38.0284087 C8.45561305,21.76948 21.8912147,8.59020212 38.4703003,8.59020212 C55.0557686,8.59020212 68.4945615,21.76948 68.4945615,38.0284087 C68.4945615,54.2873375 55.0557686,67.4666154 38.4703003,67.4666154 L38.4703003,67.4666154 Z M38.4703003,0.318335209 C17.2382201,0.318335209 0.0240549828,17.2032092 0.0240549828,38.0284087 C0.0240549828,54.750537 11.2001778,68.7685816 26.5665487,73.7041601 L38.4734916,93.9347116 L50.3900086,73.7010304 C65.7563796,68.7623221 76.9261196,54.750537 76.9261196,38.0284087 C76.9261196,17.2032092 59.7119545,0.318335209 38.4703003,0.318335209 L38.4703003,0.318335209 Z" id="Fill-4-Copy-5" fill="#713079"></path>
                    <path d="M37.2314553,24.6921128 L37.2314553,24.6921128 C43.4006535,24.6921128 48.4017422,28.7159475 48.4017422,33.6795409 C48.4017422,38.6430763 43.4006535,42.666969 37.2314553,42.666969 C36.6389647,42.666969 36.0574116,42.6294295 35.4899378,42.5580525 C33.0905369,44.9340851 30.3197821,45.3599756 27.5506563,45.4225606 L27.5506563,44.8412488 C29.0457876,44.1157369 30.250026,42.7943948 30.250026,41.2843723 C30.250026,41.0735961 30.2334451,40.8666375 30.202785,40.664422 C27.6765548,39.016562 26.0611684,36.5000312 26.0611684,33.6795409 C26.0611684,28.7159475 31.0622571,24.6921128 37.2314553,24.6921128 L37.2314553,24.6921128 Z M49.2393974,44.8369106 C49.2393974,46.1313562 50.0846158,47.2640177 51.3804272,47.8858189 L51.3804272,48.3843011 C48.9805609,48.330508 46.7777454,47.9653516 44.6983267,45.9289093 C44.2063104,45.9901639 43.702484,46.0222662 43.1888253,46.0222662 C40.96716,46.0222662 38.9206703,45.426436 37.2868995,44.4250179 C40.653752,44.4130446 43.8322222,43.3407123 46.2425607,41.4016758 C47.4575039,40.4239729 48.4160542,39.2770822 49.0914493,37.9923541 C49.8073367,36.630407 50.1702546,35.1793833 50.1702546,33.6795409 C50.1702546,33.4377614 50.1598407,33.1973702 50.1411653,32.9583093 C51.8299731,34.3451863 52.8699152,36.2351728 52.8699152,38.3186407 C52.8699152,40.7362617 51.4699641,42.8933624 49.2805296,44.3057478 C49.253942,44.4790423 49.2393974,44.6563858 49.2393974,44.8369106 L49.2393974,44.8369106 Z" id="speech-bubbles" fill="#4A4A4A"></path>
                </g>
                <ellipse id="Oval-Copy-6" fill="#E0E0E0" cx="38" cy="103.013699" rx="3" ry="3.01369863"></ellipse>
            </g>
        </g>
    </g>
</svg>