<?xml version="1.0" encoding="UTF-8" standalone="no"?>
<svg width="78px" height="106px" viewBox="0 0 78 106" version="1.1" xmlns="http://www.w3.org/2000/svg" xmlns:xlink="http://www.w3.org/1999/xlink">
    <!-- Generator: Sketch 39.1 (31720) - http://www.bohemiancoding.com/sketch -->
    <title>Group 35</title>
    <desc>Created with Sketch.</desc>
    <defs>
        <polygon id="path-1" points="11.5008727 0.672603262 0.148238961 0.672603262 0.148238961 29.7881341 22.8535065 29.7881341 22.8535065 0.672603262 11.5008727 0.672603262"></polygon>
    </defs>
    <g id="Page-1" stroke="none" stroke-width="1" fill="none" fill-rule="evenodd">
        <g id="07-Leaplines-onzeaanpak-@2x-Copy" transform="translate(-315.000000, -3904.000000)">
            <g id="Group-4" transform="translate(58.000000, 3904.000000)">
                <g id="Group-35" transform="translate(257.000000, 0.000000)">
                    <g id="Group-14">
                        <path d="M38.9388672,67.6454296 C22.3158402,67.6454296 8.84462872,54.4312212 8.84462872,38.1291997 C8.84462872,21.8271781 22.3158402,8.61296968 38.9388672,8.61296968 C55.5682938,8.61296968 69.0427051,21.8271781 69.0427051,38.1291997 C69.0427051,54.4312212 55.5682938,67.6454296 38.9388672,67.6454296 L38.9388672,67.6454296 Z M38.9388672,0.319178928 C17.6505133,0.319178928 0.390723562,17.2488048 0.390723562,38.1291997 C0.390723562,54.8956484 11.5964676,68.9508466 27.0035658,73.8995064 L38.942067,94.1836772 L50.8901676,73.8963684 C66.2972658,68.9445705 77.4966103,54.8956484 77.4966103,38.1291997 C77.4966103,17.2488048 60.2368205,0.319178928 38.9388672,0.319178928 L38.9388672,0.319178928 Z" id="Fill-4-Copy" fill="#FF7200"></path>
                        <g id="icon-(1)" transform="translate(32.825603, 22.251794)">
                            <mask id="mask-2" fill="white">
                                <use xlink:href="#path-1"></use>
                            </mask>
                            <g id="Clip-2"></g>
                            <path d="M22.8535065,8.8158184 L3.83197714,3.28111259 L3.83197714,2.60354547 C3.83197714,1.5363152 2.97219117,0.672603262 1.90981195,0.672603262 C0.859785974,0.672603262 0,1.5363152 0,2.60354547 L0,27.8571919 C0,28.9244222 0.859785974,29.7881341 1.90981195,29.7881341 C2.97219117,29.7881341 3.83197714,28.9244222 3.83197714,27.8571919 L3.83197714,18.5027945 L22.8535065,8.8158184 Z" id="Fill-1" fill="#4A4A4A" mask="url(#mask-2)"></path>
                        </g>
                    </g>
                    <ellipse id="Oval-Copy" fill="#E0E0E0" cx="39" cy="103.013699" rx="3" ry="3.01369863"></ellipse>
                </g>
            </g>
        </g>
    </g>
</svg>