<?xml version="1.0" encoding="UTF-8" standalone="no"?>
<svg width="78px" height="106px" viewBox="0 0 78 106" version="1.1" xmlns="http://www.w3.org/2000/svg" xmlns:xlink="http://www.w3.org/1999/xlink">
    <!-- Generator: Sketch 39.1 (31720) - http://www.bohemiancoding.com/sketch -->
    <title>Group 37</title>
    <desc>Created with Sketch.</desc>
    <defs>
        <polygon id="path-1" points="3.31221429 0.516559501 0.0978979592 0.516559501 0.0978979592 25.4289825 6.52653061 25.4289825 6.52653061 0.516559501 3.31221429 0.516559501"></polygon>
    </defs>
    <g id="Page-1" stroke="none" stroke-width="1" fill="none" fill-rule="evenodd">
        <g id="07-Leaplines-onzeaanpak-@2x-Copy" transform="translate(-491.000000, -3904.000000)">
            <g id="Group-4" transform="translate(58.000000, 3904.000000)">
                <g id="Group-37" transform="translate(433.000000, 0.000000)">
                    <g id="Group-25">
                        <path d="M38.8809822,67.6454296 C22.2579552,67.6454296 8.78674375,54.4312212 8.78674375,38.1291997 C8.78674375,21.8271781 22.2579552,8.61296968 38.8809822,8.61296968 C55.5104088,8.61296968 68.9848201,21.8271781 68.9848201,38.1291997 C68.9848201,54.4312212 55.5104088,67.6454296 38.8809822,67.6454296 L38.8809822,67.6454296 Z M38.8809822,0.319178928 C17.5926283,0.319178928 0.33283859,17.2488048 0.33283859,38.1291997 C0.33283859,54.8956484 11.5385827,68.9508466 26.9456808,73.8995064 L38.884182,94.1836772 L50.8322827,73.8963684 C66.2393808,68.9445705 77.4387253,54.8956484 77.4387253,38.1291997 C77.4387253,17.2488048 60.1789356,0.319178928 38.8809822,0.319178928 L38.8809822,0.319178928 Z" id="Fill-4-Copy-2" fill="#F8991C"></path>
                        <g id="dot-matrix" transform="translate(27.230056, 25.430622)">
                            <g id="Group-5" transform="translate(0.000000, 0.049669)">
                                <mask id="mask-2" fill="white">
                                    <use xlink:href="#path-1"></use>
                                </mask>
                                <g id="Clip-2"></g>
                                <path d="M6.52653061,22.1508164 C6.52653061,23.9636423 5.06621939,25.4289825 3.26326531,25.4289825 C1.46031122,25.4289825 0,23.9636423 0,22.1508164 C0,20.3396297 1.46031122,18.8726504 3.26326531,18.8726504 C5.06621939,18.8726504 6.52653061,20.3396297 6.52653061,22.1508164 L6.52653061,22.1508164 Z" id="Fill-1" fill="#4A4A4A" mask="url(#mask-2)"></path>
                                <path d="M6.52653061,12.9768687 C6.52653061,14.7814991 5.06621939,16.2550348 3.26326531,16.2550348 C1.46031122,16.2550348 0,14.7814991 0,12.9768687 C0,11.1640429 1.46031122,9.69870264 3.26326531,9.69870264 C5.06621939,9.69870264 6.52653061,11.1640429 6.52653061,12.9768687 L6.52653061,12.9768687 Z" id="Fill-3" fill="#4A4A4A" mask="url(#mask-2)"></path>
                                <path d="M6.52653061,3.79472556 C6.52653061,5.60591231 5.06621939,7.07289162 3.26326531,7.07289162 C1.46031122,7.07289162 0,5.60591231 0,3.79472556 C0,1.98353881 1.46031122,0.516559501 3.26326531,0.516559501 C5.06621939,0.516559501 6.52653061,1.98353881 6.52653061,3.79472556 L6.52653061,3.79472556 Z" id="Fill-4" fill="#4A4A4A" mask="url(#mask-2)"></path>
                            </g>
                            <path d="M15.6669367,22.2004856 C15.6669367,24.0133114 14.200099,25.4786517 12.4036714,25.4786517 C10.5990857,25.4786517 9.14040612,24.0133114 9.14040612,22.2004856 C9.14040612,20.3892989 10.5990857,18.9223195 12.4036714,18.9223195 C14.200099,18.9223195 15.6669367,20.3892989 15.6669367,22.2004856 L15.6669367,22.2004856 Z" id="Fill-6" fill="#4A4A4A"></path>
                            <g id="Group-10" transform="translate(8.949258, 0.049669)" fill="#4A4A4A">
                                <path d="M6.71767885,12.9768687 C6.71767885,14.7814991 5.25084109,16.2550348 3.45441354,16.2550348 C1.64982783,16.2550348 0.191148237,14.7814991 0.191148237,12.9768687 C0.191148237,11.1640429 1.64982783,9.69870264 3.45441354,9.69870264 C5.25084109,9.69870264 6.71767885,11.1640429 6.71767885,12.9768687 L6.71767885,12.9768687 Z" id="Fill-7"></path>
                                <path d="M6.71767885,3.79472556 C6.71767885,5.60591231 5.25084109,7.07289162 3.45441354,7.07289162 C1.64982783,7.07289162 0.191148237,5.60591231 0.191148237,3.79472556 C0.191148237,1.98353881 1.64982783,0.516559501 3.45441354,0.516559501 C5.25084109,0.516559501 6.71767885,1.98353881 6.71767885,3.79472556 L6.71767885,3.79472556 Z" id="Fill-9"></path>
                            </g>
                            <path d="M24.7991847,22.2004856 C24.7991847,24.0133114 23.3405051,25.4786517 21.5359194,25.4786517 C19.7329653,25.4786517 18.2726541,24.0133114 18.2726541,22.2004856 C18.2726541,20.3892989 19.7329653,18.9223195 21.5359194,18.9223195 C23.3405051,18.9223195 24.7991847,20.3892989 24.7991847,22.2004856 L24.7991847,22.2004856 Z" id="Fill-11" fill="#4A4A4A"></path>
                            <g id="Group-15" transform="translate(17.947959, 0.049669)" fill="#4A4A4A">
                                <path d="M6.85122551,12.9768687 C6.85122551,14.7814991 5.39254592,16.2550348 3.5879602,16.2550348 C1.78500612,16.2550348 0.324694898,14.7814991 0.324694898,12.9768687 C0.324694898,11.1640429 1.78500612,9.69870264 3.5879602,9.69870264 C5.39254592,9.69870264 6.85122551,11.1640429 6.85122551,12.9768687 L6.85122551,12.9768687 Z" id="Fill-12"></path>
                                <path d="M6.85122551,3.79472556 C6.85122551,5.60591231 5.39254592,7.07289162 3.5879602,7.07289162 C1.78500612,7.07289162 0.324694898,5.60591231 0.324694898,3.79472556 C0.324694898,1.98353881 1.78500612,0.516559501 3.5879602,0.516559501 C5.39254592,0.516559501 6.85122551,1.98353881 6.85122551,3.79472556 L6.85122551,3.79472556 Z" id="Fill-14"></path>
                            </g>
                        </g>
                    </g>
                    <ellipse id="Oval-Copy-2" fill="#E0E0E0" cx="40" cy="103.013699" rx="3" ry="3.01369863"></ellipse>
                </g>
            </g>
        </g>
    </g>
</svg>