<?xml version="1.0" encoding="UTF-8" standalone="no"?>
<svg width="62px" height="62px" viewBox="0 0 62 62" version="1.1" xmlns="http://www.w3.org/2000/svg" xmlns:xlink="http://www.w3.org/1999/xlink">
    <!-- Generator: Sketch 40.1 (33804) - http://www.bohemiancoding.com/sketch -->
    <title>Group 28</title>
    <desc>Created with Sketch.</desc>
    <defs></defs>
    <g id="Page-1" stroke="none" stroke-width="1" fill="none" fill-rule="evenodd">
        <g id="05-Leaplines-overons-@2x" transform="translate(-932.000000, -2957.000000)">
            <g id="Group-28" transform="translate(933.000000, 2958.000000)">
                <circle id="Oval" stroke="#FFFFFF" stroke-width="2" cx="30" cy="30" r="30"></circle>
                <g id="google-maps" transform="translate(19.000000, 17.000000)" fill="#FFFFFF">
                    <path d="M19.2926379,0.0556494253 L3.65158046,0.0556494253 C1.6378908,0.0556494253 0,1.69393678 0,3.70722989 L0,19.3488161 C0,21.361977 1.6378908,22.9998678 3.65158046,22.9998678 L19.2926379,22.9998678 C21.3064598,22.9998678 22.9442184,21.361977 22.9442184,19.3488161 L22.9442184,3.70722989 C22.9442184,1.69393678 21.3064598,0.0556494253 19.2926379,0.0556494253 L19.2926379,0.0556494253 Z M14.3533218,5.14420115 C14.3533218,3.21312644 15.924592,1.64185632 17.8556667,1.64185632 C19.7867414,1.64185632 21.3580115,3.21312644 21.3580115,5.14420115 C21.3580115,6.41541379 19.4118678,9.51552299 17.8556667,11.6588851 C16.2994655,9.51552299 14.3533218,6.41541379 14.3533218,5.14420115 L14.3533218,5.14420115 Z M1.5862069,3.70722989 C1.5862069,2.56820115 2.51255172,1.64185632 3.65158046,1.64185632 L14.169454,1.64185632 C13.3015345,2.55471839 12.7671149,3.78825862 12.7671149,5.14420115 C12.7671149,5.93267816 13.1780747,7.00918391 13.7512241,8.12759195 L10.9124425,10.9665057 C10.9119138,10.9665057 10.9113851,10.9665057 10.9113851,10.9670345 C10.9108563,10.9675632 10.9108563,10.9675632 10.9103276,10.9679598 L1.74271264,20.1357069 C1.64251724,19.8930172 1.5862069,19.6270632 1.5862069,19.3488161 L1.5862069,3.70722989 Z M3.65158046,21.4136609 C3.3728046,21.4136609 3.10737931,21.3578793 2.86468966,21.2571552 L11.4721092,12.6497356 L20.0795287,21.2571552 C19.8368391,21.3578793 19.5714138,21.4136609 19.2926379,21.4136609 L3.65158046,21.4136609 Z M21.3580115,19.3488161 C21.3580115,19.6270632 21.3022299,19.8924885 21.2016379,20.1357069 L12.5940862,11.5277586 L14.5562241,9.56562069 C15.6865287,11.4467299 16.9799483,13.1464828 17.2277931,13.4682184 C17.3775575,13.6627931 17.6099368,13.7773966 17.8556667,13.7773966 C18.1019253,13.7773966 18.3337759,13.6627931 18.484069,13.4682184 C18.7468506,13.1269195 20.1848793,11.2365575 21.3585402,9.22326437 L21.3585402,19.3488161 L21.3580115,19.3488161 Z" id="Fill-1"></path>
                    <path d="M6.76411494,10.4454368 C8.88011494,10.4454368 10.6010172,8.72400575 10.6010172,6.60800575 C10.6010172,6.17021264 10.2463678,5.8149023 9.80791379,5.8149023 L6.76411494,5.8149023 C6.32566092,5.8149023 5.97101149,6.17021264 5.97101149,6.60800575 C5.97101149,7.04593103 6.32566092,7.4011092 6.76411494,7.4011092 L8.87072989,7.4011092 C8.54965517,8.2521092 7.72601724,8.85922989 6.76411494,8.85922989 C5.52277586,8.85922989 4.5128908,7.84934483 4.5128908,6.60800575 C4.5128908,5.36666667 5.52277586,4.35731034 6.76411494,4.35731034 C7.36515517,4.35731034 7.93050575,4.59114368 8.35547701,5.01611494 C8.66584483,5.32595402 9.16761494,5.32595402 9.47745402,5.01611494 C9.78676437,4.70627586 9.78676437,4.20450575 9.47692529,3.89466667 C8.75255747,3.17016667 7.78854023,2.77110345 6.76411494,2.77110345 C4.64811494,2.77110345 2.92668391,4.49253448 2.92668391,6.60800575 C2.92668391,8.72400575 4.64811494,10.4454368 6.76411494,10.4454368 L6.76411494,10.4454368 Z" id="Fill-2"></path>
                </g>
            </g>
        </g>
    </g>
</svg>
