<?xml version="1.0" encoding="UTF-8" standalone="no"?>
<svg width="62px" height="62px" viewBox="0 0 62 62" version="1.1" xmlns="http://www.w3.org/2000/svg" xmlns:xlink="http://www.w3.org/1999/xlink">
    <!-- Generator: Sketch 40.1 (33804) - http://www.bohemiancoding.com/sketch -->
    <title>Group 11</title>
    <desc>Created with Sketch.</desc>
    <defs></defs>
    <g id="Page-1" stroke="none" stroke-width="1" fill="none" fill-rule="evenodd">
        <g id="05-Leaplines-overons-@2x" transform="translate(-672.000000, -2957.000000)">
            <g id="Group-11" transform="translate(673.000000, 2958.000000)">
                <circle id="Oval" stroke="#FFFFFF" stroke-width="2" cx="30" cy="30" r="30"></circle>
                <path d="M42,30.4621143 L42,38.8287143 L37.2840556,38.8287143 L37.2840556,31.0231143 C37.2840556,29.0626 36.6026667,27.7243714 34.8958333,27.7243714 C33.5923333,27.7243714 32.81775,28.6254286 32.4764444,29.4982 C32.3523889,29.8099714 32.32,30.2433714 32.32,30.6805429 L32.32,38.8287143 L27.6031389,38.8287143 C27.6031389,38.8287143 27.6663889,25.6076571 27.6031389,24.2389429 L32.32,24.2389429 L32.32,26.3063143 C32.3105278,26.3223429 32.2973889,26.3383714 32.2891389,26.3540857 L32.32,26.3540857 L32.32,26.3063143 C32.9466944,25.3144286 34.0650278,23.8963714 36.5702778,23.8963714 C39.6738056,23.8963714 42,25.9810286 42,30.4621143 L42,30.4621143 Z M22.6687222,17.2055429 C21.0550833,17.2055429 20,18.2945429 20,19.7261143 C20,21.1268857 21.0251389,22.2476286 22.6066944,22.2476286 L22.6378611,22.2476286 C24.2826667,22.2476286 25.3053611,21.1268857 25.3053611,19.7261143 C25.2745,18.2945429 24.2826667,17.2055429 22.6687222,17.2055429 L22.6687222,17.2055429 Z M20.2805,38.8287143 L24.9952222,38.8287143 L24.9952222,24.2389429 L20.2805,24.2389429 L20.2805,38.8287143 Z" id="linkedin-logo" fill="#FFFFFF"></path>
            </g>
        </g>
    </g>
</svg>