<?xml version="1.0" encoding="UTF-8" standalone="no"?>
<svg class="svg-mobile" width="62px" height="62px" viewBox="0 0 62 62" version="1.1" xmlns="http://www.w3.org/2000/svg" xmlns:xlink="http://www.w3.org/1999/xlink">

    <g id="Page-1" stroke="none" stroke-width="1" fill="none" fill-rule="evenodd">
        <g id="05-Leaplines-overons-@2x" transform="translate(-412.000000, -2957.000000)" stroke="#FFFFFF">
            <g id="Group-32" transform="translate(413.000000, 2958.000000)">
                <g id="phone-call" transform="translate(18.000000, 18.000000)" stroke-width="0.5" fill="#FFFFFF">
                    <path d="M19.7420185,15.6174142 C19.2300132,15.0845646 18.6126649,14.7996042 17.9584433,14.7996042 C17.3093668,14.7996042 16.6866095,15.0791557 16.1537599,15.6122691 L14.4860818,17.2744723 C14.3487467,17.2005277 14.2116755,17.1319921 14.0797493,17.0634565 C13.8898417,16.9684037 13.7102902,16.8786939 13.55719,16.7836412 C11.9952507,15.7916227 10.5757256,14.4986148 9.21424802,12.8258575 C8.55461741,11.9920185 8.11141161,11.2901055 7.78957784,10.5779683 C8.22216359,10.18219 8.62335092,9.77038259 9.01372032,9.37460422 C9.16167546,9.22697889 9.30930079,9.07394459 9.45718997,8.92605541 C10.5651715,7.81807388 10.5651715,6.38258575 9.45718997,5.27434037 L8.01629288,3.83370712 C7.85296834,3.67011873 7.68390501,3.50131926 7.52572559,3.33258575 C7.20903694,3.00534301 6.87664908,2.66754617 6.53370712,2.35085752 C6.02170185,1.84426121 5.40949868,1.57526385 4.76583113,1.57526385 C4.12189974,1.57526385 3.49940633,1.84426121 2.97170185,2.35085752 L2.96114776,2.36141161 L1.16675462,4.17156992 C0.491358839,4.84689974 0.106134565,5.67011873 0.0216358839,6.62532982 C-0.104881266,8.16616095 0.348878628,9.60164908 0.697229551,10.5408311 C1.55191293,12.8469657 2.82922164,14.9840369 4.73416887,17.2744723 C7.04544855,20.0343668 9.82645119,22.2137203 13.0032322,23.7494063 C14.2168206,24.3245383 15.8370712,25.005277 17.6468997,25.1212401 C17.7579815,25.1266491 17.8739446,25.1317942 17.9795515,25.1317942 C19.1986148,25.1317942 20.2222955,24.6940633 21.0244063,23.8230871 C21.0296174,23.812533 21.0401715,23.8073879 21.0455805,23.7968338 C21.3199868,23.4644459 21.6364116,23.1634565 21.9690633,22.8416887 C22.1957784,22.6251979 22.4279683,22.3984828 22.6549472,22.1608839 C23.1775066,21.6174802 23.4516491,20.9841029 23.4516491,20.3350923 C23.4516491,19.6808707 23.1720976,19.0526385 22.639248,18.524934 L19.7420185,15.6174142 Z M21.6312665,21.1740106 C21.6258575,21.1740106 21.6258575,21.1794195 21.6312665,21.1740106 C21.4253958,21.3959103 21.214314,21.596372 20.9873351,21.817942 C20.6443931,22.1451847 20.2960422,22.4881266 19.9689974,22.8733509 C19.4358839,23.4433377 18.8079815,23.7123351 17.9846966,23.7123351 C17.9056069,23.7123351 17.8211082,23.7123351 17.7420185,23.70719 C16.1748681,23.6069261 14.7182718,22.994723 13.6259894,22.4724274 C10.6391161,21.0263852 8.01629288,18.9735488 5.83693931,16.3720976 C4.03766491,14.2031003 2.83436675,12.1978892 2.03766491,10.0448549 C1.54676781,8.73100264 1.36741425,7.70699208 1.44656992,6.74149077 C1.49934037,6.12387863 1.73667546,5.6121372 2.17473615,5.17414248 L3.97427441,3.37453826 C4.23271768,3.13186016 4.50712401,2.99993404 4.77638522,2.99993404 C5.10877309,2.99993404 5.37777045,3.20065963 5.54683377,3.36939314 L5.56253298,3.38515831 C5.88463061,3.68608179 6.19050132,3.99736148 6.51253298,4.32974934 C6.67618734,4.4987467 6.84498681,4.66754617 7.01372032,4.84175462 L8.45435356,6.28238786 C9.01372032,6.84175462 9.01372032,7.35890501 8.45435356,7.91827177 C8.30131926,8.07137203 8.15362797,8.22440633 8.00059367,8.37203166 C7.55738786,8.82579156 7.13509235,9.24808707 6.67618734,9.65963061 C6.66563325,9.6701847 6.65507916,9.67559367 6.64967018,9.68588391 C6.19591029,10.1399077 6.28040897,10.5831135 6.37519789,10.8837731 L6.39122691,10.9314644 C6.76583113,11.8389842 7.29353562,12.6939314 8.09564644,13.712467 L8.10085752,13.7176121 C9.55745383,15.5117414 11.092876,16.9104222 12.7868074,17.9815303 C13.0032322,18.1188654 13.2248021,18.2296834 13.4358839,18.3350264 C13.6259894,18.4301451 13.805343,18.5197889 13.9583773,18.6148417 C13.9795515,18.6254617 14.0006596,18.6411609 14.0217678,18.651715 C14.2011214,18.7413588 14.3699208,18.7836412 14.5440633,18.7836412 C14.982124,18.7836412 15.2565303,18.5092348 15.3461741,18.419591 L17.1509235,16.6148417 C17.3304749,16.4352243 17.6155013,16.2190633 17.9478892,16.2190633 C18.2751319,16.2190633 18.5441293,16.4246702 18.7077177,16.6042876 L21.6258575,19.5223615 C22.1695251,20.0606201 22.1695251,20.6149077 21.6312665,21.1740106 L21.6312665,21.1740106 Z" id="Fill-1"></path>
                    <path class="pink" d="M13.4940633,6.07645119 C14.8764512,6.30864116 16.1325858,6.96312665 17.1352243,7.96569921 C18.1377968,8.96827177 18.7868734,10.2241425 19.0244063,11.6067942 C19.0823879,11.9552111 19.3831135,12.1978892 19.7263193,12.1978892 C19.7683377,12.1978892 19.805409,12.1924802 19.8476913,12.1873351 C20.2380607,12.1239446 20.4967018,11.7546834 20.4333773,11.3641161 C20.1483509,9.69129288 19.3567942,8.16616095 18.1483509,6.95771768 C16.9399077,5.74920844 15.4147757,4.95765172 13.7419525,4.67269129 C13.3515831,4.60956464 12.987533,4.86800792 12.9187335,5.25323219 C12.8501979,5.63845646 13.1034301,6.01306069 13.4940633,6.07645119 L13.4940633,6.07645119 Z" id="Fill-3"></path>
                    <path class="pink" d="M24.9556728,11.1581794 C24.4862137,8.40375989 23.1877968,5.89716359 21.1932058,3.90224274 C19.1986148,1.90765172 16.6920185,0.609564644 13.9372691,0.139775726 C13.5520449,0.0712401055 13.1879947,0.335092348 13.1194591,0.720316623 C13.0560686,1.11068602 13.3145119,1.47506596 13.7051451,1.54360158 C16.164314,1.96048813 18.407058,3.12671504 20.1906332,4.90514512 C21.9742084,6.68872032 23.1352243,8.93146438 23.5521768,11.3906332 C23.6101583,11.7387203 23.9108179,11.9814644 24.2538259,11.9814644 C24.2960422,11.9814644 24.3331794,11.9763193 24.3751319,11.9709103 C24.7606201,11.9129288 25.0244723,11.5434037 24.9556728,11.1581794 L24.9556728,11.1581794 Z" id="Fill-4"></path>
                </g>
                <circle id="Oval" stroke-width="2" cx="30" cy="30" r="30"></circle>
            </g>
        </g>
    </g>
</svg>
