<?xml version="1.0" encoding="UTF-8" standalone="no"?>
<svg width="62px" height="62px" viewBox="0 0 62 62" version="1.1" xmlns="http://www.w3.org/2000/svg" xmlns:xlink="http://www.w3.org/1999/xlink">
    <!-- Generator: Sketch 40.1 (33804) - http://www.bohemiancoding.com/sketch -->
    <title>Group 26</title>
    <desc>Created with Sketch.</desc>
    <defs></defs>
    <g id="Page-1" stroke="none" stroke-width="1" fill="none" fill-rule="evenodd">
        <g id="05-Leaplines-overons-@2x" transform="translate(-802.000000, -2957.000000)">
            <g id="Group-26" transform="translate(803.000000, 2958.000000)">
                <circle id="Oval" stroke="#FFFFFF" stroke-width="2" cx="30" cy="30" r="30"></circle>
                <path d="M42.6479231,23.0104615 C41.8181538,23.3784615 40.9193846,23.6332308 39.9799231,23.7446923 C40.9406154,23.1696923 41.6730769,22.2585385 42.0251538,21.1722308 C41.1263846,21.7047692 40.1320769,22.0922308 39.067,22.2992308 C38.2248462,21.4004615 37.0146923,20.8343077 35.6806923,20.8343077 C33.1170769,20.8343077 31.0364615,22.9149231 31.0364615,25.4785385 C31.0364615,25.8447692 31.0789231,26.1968462 31.155,26.5365385 C27.291,26.3419231 23.8710769,24.4966154 21.5763846,21.6835385 C21.1747692,22.3682308 20.9465385,23.1696923 20.9465385,24.0206923 C20.9465385,25.6306923 21.7692308,27.0549231 23.013,27.8829231 C22.2522308,27.8634615 21.541,27.6493846 20.9129231,27.3026154 L20.9129231,27.3592308 C20.9129231,29.6114615 22.5158462,31.4903846 24.6371538,31.9203077 C24.2496923,32.0229231 23.8356923,32.0777692 23.4146154,32.0777692 C23.1173846,32.0777692 22.8272308,32.0512308 22.5370769,31.9963846 C23.1315385,33.8416923 24.8441538,35.181 26.877,35.2234615 C25.2864615,36.4672308 23.2819231,37.2067692 21.1057692,37.2067692 C20.7324615,37.2067692 20.3662308,37.1855385 20,37.1448462 C22.0593846,38.4646923 24.4991538,39.2307692 27.1246923,39.2307692 C35.6665385,39.2307692 40.3390769,32.1538462 40.3390769,26.0181538 L40.3249231,25.4166154 C41.2378462,24.7602308 42.0251538,23.9446154 42.6479231,23.0104615 L42.6479231,23.0104615 Z" id="twitter-logo-silhouette" fill="#FFFFFF"></path>
            </g>
        </g>
    </g>
</svg>
