<?xml version="1.0" encoding="UTF-8" standalone="no"?>
<svg width="62px" height="62px" viewBox="0 0 62 62" version="1.1" xmlns="http://www.w3.org/2000/svg" xmlns:xlink="http://www.w3.org/1999/xlink">
    <!-- Generator: Sketch 40.1 (33804) - http://www.bohemiancoding.com/sketch -->
    <title>Group 34</title>
    <desc>Created with Sketch.</desc>
    <defs></defs>
    <g id="Page-1" stroke="none" stroke-width="1" fill="none" fill-rule="evenodd">
        <g id="05-Leaplines-overons-@2x" transform="translate(-542.000000, -2957.000000)">
            <g id="Group-34" transform="translate(543.000000, 2958.000000)">
                <circle id="Oval" stroke="#FFFFFF" stroke-width="2" cx="30" cy="30" r="30"></circle>
                <g id="whatsapp-logo" transform="translate(18.000000, 16.000000)" fill="#FFFFFF">
                    <path d="M26,12.6656111 C26,19.65925 20.2857778,25.3301389 13.2368889,25.3301389 C10.9983611,25.3301389 8.89525,24.7585 7.06694444,23.75425 L0,26 L2.30352778,19.2053333 C1.14111111,17.2965 0.472694444,15.0579722 0.472694444,12.6656111 C0.472694444,5.67052778 6.18691667,0 13.2368889,0 C20.2857778,0 26,5.67052778 26,12.6656111 L26,12.6656111 Z M13.2368889,2.01716667 C7.31827778,2.01716667 2.50538889,6.79322222 2.50538889,12.6656111 C2.50538889,14.9944167 3.26408333,17.1527778 4.54927778,18.9088611 L3.20919444,22.8626667 L7.33236111,21.5525556 C9.02633333,22.6640556 11.0561389,23.3129722 13.2368889,23.3129722 C19.1529722,23.3129722 23.9673056,18.5365556 23.9673056,12.6656111 C23.9673056,6.79322222 19.1529722,2.01716667 13.2368889,2.01716667 L13.2368889,2.01716667 Z M19.682,15.5826667 C19.6029167,15.4530278 19.3941944,15.3753889 19.0825556,15.2201111 C18.7694722,15.0651944 17.2304167,14.3133611 16.9440556,14.2104444 C16.6576944,14.1071667 16.4475278,14.0551667 16.24025,14.3653611 C16.0315278,14.6759167 15.4317222,15.3753889 15.2486389,15.5826667 C15.0666389,15.7903056 14.8846389,15.8155833 14.5715556,15.6603056 C14.2581111,15.5053889 13.2495278,15.1764167 12.0549722,14.1201667 C11.1254722,13.2961111 10.4975,12.2806667 10.3140556,11.9701111 C10.1324167,11.6599167 10.296,11.492 10.4509167,11.3370833 C10.5921111,11.1973333 10.7643611,10.9745278 10.9207222,10.7939722 C11.0774444,10.6119722 11.1294444,10.4819722 11.2338056,10.2746944 C11.3381667,10.0674167 11.2861667,9.88686111 11.2070833,9.73158333 C11.1294444,9.57666667 10.5032778,8.04880556 10.2421944,7.42661111 C9.98291667,6.80622222 9.72183333,6.90913889 9.53838889,6.90913889 C9.35638889,6.90913889 9.14766667,6.8835 8.93894444,6.8835 C8.73022222,6.8835 8.3915,6.96113889 8.10513889,7.27169444 C7.81877778,7.58188889 7.01061111,8.33372222 7.01061111,9.86013889 C7.01061111,11.3876389 8.13077778,12.8645833 8.28713889,13.0704167 C8.44386111,13.2780556 10.4509167,16.5150556 13.6319444,17.758 C16.8129722,19.0005833 16.8129722,18.5860278 17.3867778,18.5336667 C17.9595,18.4831111 19.2374722,17.7832778 19.4985556,17.0581667 C19.7596389,16.3330556 19.7596389,15.7112222 19.682,15.5826667 L19.682,15.5826667 Z" id="Fill-1"></path>
                </g>
            </g>
        </g>
    </g>
</svg>