<svg xmlns="http://www.w3.org/2000/svg" width="122" height="121" viewBox="0 0 122 121" xmlns:xlink="http://www.w3.org/1999/xlink">
  <defs>
    <path id="a" d="M0.810309,94.024793 L8.829116,69.97521 C4.760196,63.13223 2.417245,55.14678 2.417245,46.60992 C2.417245,21.31074 22.93047,0.80165 48.23474,0.80165 C73.53902,0.80165 94.05224,21.31074 94.05224,46.60992 C94.05224,71.90909 73.53902,92.418182 48.23474,92.418182 C40.53733,92.418182 33.28628,90.510083 26.91805,87.156033 L0.810309,94.024793 L0.810309,94.024793 Z"/>
    <path id="c" d="M22.23474,22.80165 C47.53902,22.80165 68.05224,43.31074 68.05224,68.60992 C68.05224,75.31008 66.60204,81.66711 64.01705,87.40331 L89.8748,94.20661 L81.856,70.15702 C85.9249,63.31405 88.2679,55.3286 88.2679,46.79174 C88.2679,21.49256 67.75466,0.9835 42.45039,0.9835 C23.74844,0.9835 7.6771,12.1901 0.555,28.24826 C7.01052,24.77521 14.39052,22.80165 22.23474,22.80165 L22.23474,22.80165 Z"/>
    <path id="e" d="M12.55224,6.42149 C12.55224,9.7081 9.88791,12.3719 6.60063,12.3719 C3.31336,12.3719 0.64902,9.7081 0.64902,6.42149 C0.64902,3.13488 3.31336,0.47107 6.60063,0.47107 C9.88791,0.47107 12.55224,3.13488 12.55224,6.42149 L12.55224,6.42149 Z"/>
    <path id="g" d="M12.37483,6.42149 C12.37483,9.7081 9.71049,12.3719 6.42321,12.3719 C3.13594,12.3719 0.4716,9.7081 0.4716,6.42149 C0.4716,3.13488 3.13594,0.47107 6.42321,0.47107 C9.71049,0.47107 12.37483,3.13488 12.37483,6.42149 L12.37483,6.42149 Z"/>
    <path id="i" d="M12.19741,6.42149 C12.19741,9.7081 9.53307,12.3719 6.24579,12.3719 C2.95852,12.3719 0.29418,9.7081 0.29418,6.42149 C0.29418,3.13488 2.95852,0.47107 6.24579,0.47107 C9.53307,0.47107 12.19741,3.13488 12.19741,6.42149 L12.19741,6.42149 Z"/>
  </defs>
  <g fill="none" fill-rule="evenodd" transform="translate(3 2)">
    <g transform="translate(0 22)">
      <mask id="b" fill="white">
        <use xlink:href="#a"/>
      </mask>
      <polygon fill="#FFFFFF" points="-4.149 -4.157 99.012 -4.157 99.012 98.983 -4.149 98.983" mask="url(#b)"/>
    </g>
    <g stroke="#00ADEE" stroke-width="4" transform="translate(0 22)">
      <path d="M.810309 94.024787L8.82911558 69.9752011C4.76019616 63.1322262 2.41724451 55.1467719 2.41724451 46.6099127 2.41724451 21.3107401 22.9304707.80165 48.2347453.80165 73.5390199.80165 94.052246 21.3107401 94.052246 46.6099127 94.052246 71.9090853 73.5390199 92.4181755 48.2347453 92.4181755 40.5373258 92.4181755 33.2862773 90.5100764 26.9180514 87.1560269L.810309 94.024787.810309 94.024787.810309 94.024787.810309 94.024787zM39.3926308 84.38116L26.91805 87.1560359"/>
    </g>
    <g transform="translate(26)">
      <mask id="d" fill="white">
        <use xlink:href="#c"/>
      </mask>
      <polygon fill="#C6E3F8" points="-4.405 -3.975 94.835 -3.975 94.835 99.165 -4.405 99.165" mask="url(#d)"/>
    </g>
    <path stroke="#00ADEE" stroke-width="4" d="M48.2347423,22.801681 C73.5390169,22.801681 94.052243,43.3107711 94.052243,68.6099437 C94.052243,75.3101088 92.6020333,81.6671333 90.0170494,87.4033315 L115.874824,94.206637 L107.856017,70.1570511 C111.924937,63.3140762 114.267889,55.3286219 114.267889,46.7917627 C114.267889,21.4925901 93.7546624,0.9835 68.4503878,0.9835 C49.7484359,0.9835 33.6770969,12.1901111 26.555,28.2482924 C33.0105162,24.7752346 40.3905164,22.801681 48.2347423,22.801681 L48.2347423,22.801681 L48.2347423,22.801681 L48.2347423,22.801681 Z"/>
    <g transform="translate(20 62)">
      <mask id="f" fill="white">
        <use xlink:href="#e"/>
      </mask>
      <polygon fill="#C6E3F8" points="-4.311 -4.488 17.512 -4.488 17.512 17.331 -4.311 17.331" mask="url(#f)"/>
    </g>
    <path stroke="#00ADEE" stroke-width="4" d="M32.552246,68.421483 C32.552246,71.7080944 29.8879072,74.371896 26.600633,74.371896 C23.3133588,74.371896 20.64902,71.7080944 20.64902,68.421483 C20.64902,65.1348716 23.3133588,62.47107 26.600633,62.47107 C29.8879072,62.47107 32.552246,65.1348716 32.552246,68.421483 L32.552246,68.421483 L32.552246,68.421483 L32.552246,68.421483 Z"/>
    <g transform="translate(42 62)">
      <mask id="h" fill="white">
        <use xlink:href="#g"/>
      </mask>
      <polygon fill="#C6E3F8" points="-4.488 -4.488 17.334 -4.488 17.334 17.331 -4.488 17.331" mask="url(#h)"/>
    </g>
    <path stroke="#00ADEE" stroke-width="4" d="M54.374826,68.421483 C54.374826,71.7080944 51.7104872,74.371896 48.423213,74.371896 C45.1359388,74.371896 42.4716,71.7080944 42.4716,68.421483 C42.4716,65.1348716 45.1359388,62.47107 48.423213,62.47107 C51.7104872,62.47107 54.374826,65.1348716 54.374826,68.421483 L54.374826,68.421483 L54.374826,68.421483 L54.374826,68.421483 Z"/>
    <g transform="translate(64 62)">
      <mask id="j" fill="white">
        <use xlink:href="#i"/>
      </mask>
      <polygon fill="#C6E3F8" points="-4.665 -4.488 17.157 -4.488 17.157 17.331 -4.665 17.331" mask="url(#j)"/>
    </g>
    <path stroke="#00ADEE" stroke-width="4" d="M76.197406,68.421483 C76.197406,71.7080944 73.5330672,74.371896 70.245793,74.371896 C66.9585188,74.371896 64.29418,71.7080944 64.29418,68.421483 C64.29418,65.1348716 66.9585188,62.47107 70.245793,62.47107 C73.5330672,62.47107 76.197406,65.1348716 76.197406,68.421483 L76.197406,68.421483 L76.197406,68.421483 L76.197406,68.421483 Z"/>
  </g>
</svg>
