<svg xmlns="http://www.w3.org/2000/svg" width="53" height="54" viewBox="0 0 53 54" xmlns:xlink="http://www.w3.org/1999/xlink">
  <defs>
    <path id="a" d="M17.6720852,3.26163035 C17.6720852,4.26682005 13.8213965,5.08090904 9.07254407,5.08090904 C4.32273611,5.08090904 0.473012459,4.26682005 0.473012459,3.26163035 C0.473012459,2.25739616 4.32273611,0.303391475 9.07254407,0.303391475 C13.8213965,0.303391475 17.6720852,2.25739616 17.6720852,3.26163035 L17.6720852,3.26163035 Z"/>
    <path id="c" d="M9.07254407,2.2143985 C4.32273611,2.2143985 0.473012459,1.40030951 0.473012459,0.395119813 L0.473012459,4.21808937 C0.474923466,5.22232356 4.32464712,6.03641255 9.07254407,6.03641255 C13.8194855,6.03641255 17.6692187,5.22232356 17.6711297,4.21808937 L17.6720852,0.395119813 C17.6720852,1.40030951 13.8213965,2.2143985 9.07254407,2.2143985 L9.07254407,2.2143985 Z"/>
    <path id="e" d="M19.24579,34.7015179 L10.0280476,34.7015179 C9.7853497,34.7015179 9.54456281,34.6929184 9.30568693,34.6776304 C2.46332675,34.2142111 -1.686425,29.5179114 1.06446961,23.2354758 L8.11608506,0.303391475 L20.5385862,0.303391475 L28.377537,23.3749793 C30.9382865,29.672703 26.7503146,34.2180332 19.9671951,34.6776304 C19.7283193,34.6929184 19.4875324,34.7015179 19.24579,34.7015179 L19.24579,34.7015179 Z"/>
    <path id="g" d="M7.89249724,1.46622014 C5.85918576,-0.160046838 3.42456281,0.0444309133 1.43424899,0.703728337 C0.0535464169,1.16045902 -0.232149133,2.92718501 0.878145948,3.86740047 C2.02092815,4.83438913 2.66398201,6.20267016 3.00318576,7.18683878 C3.2573497,7.92066548 3.93193518,8.42517133 4.70875953,8.42517133 L13.4353731,8.42517133 C14.2121975,8.42517133 14.886783,7.92066548 15.1409469,7.18683878 C15.4801506,6.20267016 16.1232045,4.83438913 17.2659867,3.86740047 C18.3762818,2.92718501 18.0905862,1.16045902 16.7098837,0.703728337 C14.7195698,0.0444309133 12.2849469,-0.160046838 10.2516354,1.46622014 C9.55411785,2.02423419 8.5900148,2.02423419 7.89249724,1.46622014 L7.89249724,1.46622014 Z"/>
  </defs>
  <g fill="none" fill-rule="evenodd" transform="translate(1 1)">
    <g transform="translate(32.487 41.564)">
      <mask id="b" fill="white">
        <use xlink:href="#a"/>
      </mask>
      <polygon fill="#FFFFFF" points="-1.916 -2.085 20.061 -2.085 20.061 7.47 -1.916 7.47" mask="url(#b)"/>
    </g>
    <path stroke="#00ADEE" stroke-width="2" d="M50.1591951,44.8260332 C50.1591951,45.8312229 46.308516,46.6453119 41.5596635,46.6453119 C36.8098556,46.6453119 32.9601319,45.8312229 32.9601319,44.8260332 C32.9601319,43.821799 36.8098556,41.8677943 41.5596635,41.8677943 C46.308516,41.8677943 50.1591951,43.821799 50.1591951,44.8260332 L50.1591951,44.8260332 L50.1591951,44.8260332 L50.1591951,44.8260332 Z"/>
    <g transform="translate(32.487 44.43)">
      <mask id="d" fill="white">
        <use xlink:href="#c"/>
      </mask>
      <polygon fill="#FFFFFF" points="-1.916 -1.994 20.061 -1.994 20.061 8.425 -1.916 8.425" mask="url(#d)"/>
    </g>
    <path stroke="#00ADEE" stroke-width="2" d="M41.5596635,46.6453119 C36.8098556,46.6453119 32.9601319,45.8312229 32.9601319,44.8260332 L32.9601319,48.6490027 C32.9620429,49.6532369 36.8117666,50.4673259 41.5596635,50.4673259 C46.306605,50.4673259 50.1563286,49.6532369 50.1582396,48.6490027 L50.1591951,44.8260332 C50.1591951,45.8312229 46.308516,46.6453119 41.5596635,46.6453119 L41.5596635,46.6453119 L41.5596635,46.6453119 L41.5596635,46.6453119 Z"/>
    <g transform="translate(0 16.721)">
      <mask id="f" fill="white">
        <use xlink:href="#e"/>
      </mask>
      <polygon fill="#FFFFFF" points="-2.184 -2.085 31.526 -2.085 31.526 37.09 -2.184 37.09" mask="url(#f)"/>
    </g>
    <g stroke="#00ADEE" stroke-width="2" transform="translate(0 10.988)">
      <path d="M19.24579 40.434539L10.0280476 40.434539C9.7853497 40.434539 9.54456281 40.4259395 9.30568693 40.4106514 2.46332675 39.9472322-1.686425 35.2509325 1.06446961 28.9684969L8.11608506 6.03641255 20.5385862 6.03641255 28.377537 29.1080004C30.9382865 35.405724 26.7503146 39.9510542 19.9671951 40.4106514 19.7283193 40.4259395 19.4875324 40.434539 19.24579 40.434539L19.24579 40.434539 19.24579 40.434539 19.24579 40.434539zM8.11608506 3.16990201L20.5385862 3.16990201M8.11608506.303391475L20.5385862.303391475"/>
    </g>
    <g transform="translate(4.778)">
      <mask id="h" fill="white">
        <use xlink:href="#g"/>
      </mask>
      <polygon fill="#FFFFFF" points="-2.193 -2.174 20.337 -2.174 20.337 10.814 -2.193 10.814" mask="url(#h)"/>
    </g>
    <g stroke="#00ADEE" stroke-width="2" transform="translate(3.822)">
      <path d="M8.84800075 1.46623352C6.81468927-.160033461 4.38006585.0444442904 2.38975203.703741714 1.00904931 1.16047239.723353758 2.92719839 1.83364898 3.86741385 2.97643119 4.8343834 3.61948505 6.20266539 3.9586888 7.186834 4.21285273 7.9206607 4.88743821 8.42516656 5.66426257 8.42516656L14.3908766 8.42516656C15.167701 8.42516656 15.8422865 7.9206607 16.0964504 7.186834 16.4356541 6.20266539 17.078708 4.8343834 18.2214902 3.86741385 19.3317853 2.92719839 19.0460897 1.16047239 17.6653872.703741714 15.6750733.0444442904 13.2404504-.160033461 11.2071389 1.46623352 10.5096214 2.02424757 9.54551831 2.02424757 8.84800075 1.46623352L8.84800075 1.46623352 8.84800075 1.46623352 8.84800075 1.46623352zM16.7165722 11.2916819L16.7165722 14.1581924M16.7165722 14.1581924C18.2100242 15.6516444 20.6274481 15.6516444 22.1209 14.1581924M.473012459 41.8677943C.473012459 44.508806 2.18240824 46.6453119 4.29407101 46.6453119"/>
    </g>
  </g>
</svg>
