<svg xmlns="http://www.w3.org/2000/svg" width="118" height="111" viewBox="0 0 118 111" xmlns:xlink="http://www.w3.org/1999/xlink">
  <defs>
    <polygon id="a" points=".967 0 115.033 0 115.033 .767 .967 .767 .967 0"/>
    <polygon id="c" points=".967 0 115.033 0 115.033 .767 .967 .767 .967 0"/>
    <path id="e" d="M5.9107331,1 L0.0892669032,1 C0.948118453,0.512007374 1.9414812,0.2333333 3,0.2333333 C4.0585188,0.2333333 5.05188155,0.512007374 5.9107331,1 L5.9107331,1 L5.9107331,1 Z"/>
    <path id="g" d="M26.2,26.04887 L0.68447,26.04887 L0.68447,0.53333 C14.77563,0.53333 26.2,11.95573 26.2,26.04887 L26.2,26.04887 Z"/>
    <path id="i" d="M25.6822,0.53757 C11.59103,0.53757 0.16667,11.95997 0.16667,26.05113 C0.16667,40.14427 11.59103,51.56667 25.6822,51.56667 C39.77337,51.56667 51.1958,40.14427 51.1958,26.05113 L25.6822,26.05113 L25.6822,0.53757 L25.6822,0.53757 Z"/>
  </defs>
  <g fill="none" fill-rule="evenodd">
    <g transform="translate(1 5)">
      <mask id="b" fill="white">
        <use xlink:href="#a"/>
      </mask>
      <polygon fill="#D0E8F9" points="-3.95 -15.95 119.95 -15.95 119.95 5.683 -3.95 5.683" mask="url(#b)"/>
    </g>
    <g transform="translate(1 5)">
      <mask id="d" fill="white">
        <use xlink:href="#c"/>
      </mask>
      <polygon stroke="#00ADEE" stroke-width="4" points=".967 -11.033 115.033 -11.033 115.033 .767 .967 .767 .967 -11.033" mask="url(#d)"/>
      <path stroke="#00ADEE" stroke-width="4" d="M0.966667,83.366667 L115.03333,83.366667 M57.9999984,83.366667 L57.9999984,89.2666668"/>
    </g>
    <g transform="translate(56 96)">
      <mask id="f" fill="white">
        <use xlink:href="#e"/>
      </mask>
      <polygon fill="#D0E8F9" points="-7.817 -4.683 13.817 -4.683 13.817 16.95 -7.817 16.95" mask="url(#f)"/>
    </g>
    <path stroke="#00ADEE" stroke-width="4" d="M11.8999996,6.1333331 C11.8999996,9.39209966 9.25876636,12.0333329 5.9999998,12.0333329 C2.74123324,12.0333329 0.1,9.39209966 0.1,6.1333331 C0.1,2.87456654 2.74123324,0.2333333 5.9999998,0.2333333 C9.25876636,0.2333333 11.8999996,2.87456654 11.8999996,6.1333331 L11.8999996,6.1333331 L11.8999996,6.1333331 L11.8999996,6.1333331 Z" transform="translate(53 96)"/>
    <polygon fill="#FFFFFF" points=".983 .85 117.017 .85 117.017 93.283 .983 93.283"/>
    <polygon stroke="#00ADEE" stroke-width="4" points="5.9 5.767 112.1 5.767 112.1 88.367 5.9 88.367 5.9 5.767"/>
    <g transform="translate(80 19)">
      <mask id="h" fill="white">
        <use xlink:href="#g"/>
      </mask>
      <polygon fill="#D0E8F9" points="-4.232 -4.383 31.117 -4.383 31.117 30.966 -4.232 30.966" mask="url(#h)"/>
    </g>
    <path stroke="#00ADEE" stroke-width="4" d="M106.200002,45.0488625 L80.68447,45.0488625 L80.68447,19.53333 C94.7756362,19.53333 106.200002,30.9557296 106.200002,45.0488625 L106.200002,45.0488625 L106.200002,45.0488625 L106.200002,45.0488625 Z"/>
    <g transform="translate(49 25)">
      <mask id="j" fill="white">
        <use xlink:href="#i"/>
      </mask>
      <polygon fill="#D0E8F9" points="-4.75 -4.379 56.112 -4.379 56.112 56.483 -4.75 56.483" mask="url(#j)"/>
    </g>
    <g stroke="#00ADEE" stroke-width="4" transform="translate(11 25)">
      <path d="M63.6822025,0.53757 C49.5910363,0.53757 38.16667,11.9599696 38.16667,26.0511358 C38.16667,40.1442687 49.5910363,51.5666683 63.6822025,51.5666683 C77.7733687,51.5666683 89.1957683,40.1442687 89.1957683,26.0511358 L63.6822025,26.0511358 L63.6822025,0.53757 L63.6822025,0.53757 L63.6822025,0.53757 L63.6822025,0.53757 Z"/>
      <path d="M0.8,18.1333328 L16.5333328,18.1333328 M4.7333332,2.4 L4.7333332,10.2666664 M10.633333,2.4 L10.633333,10.2666664 M16.5333328,18.1333328 L26.3666658,35.8333322 M26.3666658,35.8333322 L49.966665,35.8333322" stroke-linecap="round" stroke-linejoin="round"/>
    </g>
  </g>
</svg>
