<svg xmlns="http://www.w3.org/2000/svg" width="67" height="64" viewBox="0 0 67 64" xmlns:xlink="http://www.w3.org/1999/xlink">
  <defs>
    <path id="a" d="M22.0844963,0.0181444992 C9.88705912,0.0181444992 0,8.37315271 0,18.6781609 C0,22.4756979 1.34658801,26.0064039 3.65243593,28.9532841 C3.35004821,32.3591133 2.47799374,37.155665 0,39.4909688 C0,39.4909688 7.57215089,38.4898194 12.7002842,35.5706897 C15.5486179,36.7020525 18.7287854,37.3381773 22.0844963,37.3381773 C34.2819335,37.3381773 44.1689926,28.9831691 44.1689926,18.6781609 C44.1689926,8.37315271 34.2819335,0.0181444992 22.0844963,0.0181444992 L22.0844963,0.0181444992 Z"/>
    <path id="c" d="M28.8140387,36.9454023 L24.0834264,34.0956486 C22.9089842,33.4915435 21.5420105,31.4027915 21.5420105,30.1412151 L21.5420105,26.683087 C21.5420105,26.683087 24.8059858,24.6498358 25.8094147,20.5321018 C26.6406978,20.0261905 27.1967741,19.1488506 27.1967741,18.1519704 L27.1967741,15.563711 C23.5647238,16.652381 20.3856889,17.0771757 20.3856889,17.0771757 C22.8636827,14.7418719 23.7357371,9.9453202 24.0381248,6.53949097 C22.7481637,4.89154351 21.7730483,3.05681445 21.1512848,1.09827586 C19.5702614,0.43226601 17.4920536,0 14.7467809,0 C2.51196989,0 3.42139812,8.53858785 3.42139812,8.53858785 L3.42139812,11.8750411 C2.80982745,12.3958949 2.29678762,13.5347291 2.29678762,14.3672414 L2.29678762,18.1519704 C2.29678762,19.1488506 2.85286391,20.0261905 3.684147,20.5321018 C4.68757591,24.6498358 7.95155121,26.683087 7.95155121,26.683087 L7.95155121,30.1412151 C7.95155121,31.4027915 6.58457752,33.4915435 5.40900279,34.0956486 L0.679522964,36.9454023 C-0.554943754,37.6893268 0.00339761482,39.4909688 1.4677696,39.4909688 L28.0246596,39.4909688 C29.4901641,39.4909688 30.0485055,37.6893268 28.8140387,36.9454023 L28.8140387,36.9454023 Z"/>
  </defs>
  <g fill="none" fill-rule="evenodd" transform="translate(1 1)">
    <g transform="translate(20.386)">
      <mask id="b" fill="white">
        <use xlink:href="#a"/>
      </mask>
      <polygon fill="#E5F6FD" points="-2.831 -2.65 47 -2.65 47 42.159 -2.831 42.159" mask="url(#b)"/>
    </g>
    <path stroke="#00ADEE" stroke-width="2" d="M22.0844963,0.0181444992 C9.88705912,0.0181444992 0,8.37315271 0,18.6781609 C0,22.4756979 1.34658801,26.0064039 3.65243593,28.9532841 C3.35004821,32.3591133 2.47799374,37.155665 0,39.4909688 C0,39.4909688 7.57215089,38.4898194 12.7002842,35.5706897 C15.5486179,36.7020525 18.7287854,37.3381773 22.0844963,37.3381773 C34.2819335,37.3381773 44.1689926,28.9831691 44.1689926,18.6781609 C44.1689926,8.37315271 34.2819335,0.0181444992 22.0844963,0.0181444992 L22.0844963,0.0181444992 L22.0844963,0.0181444992 L22.0844963,0.0181444992 Z" transform="translate(20.386)"/>
    <g transform="translate(0 22.414)">
      <mask id="d" fill="white">
        <use xlink:href="#c"/>
      </mask>
      <polygon fill="#E5F6FD" points="-2.831 -2.668 32.325 -2.668 32.325 42.159 -2.831 42.159" mask="url(#d)"/>
    </g>
    <g stroke="#00ADEE" stroke-width="2" transform="translate(0 12.808)">
      <path d="M28.8140399 46.5513136L24.0834275 43.7015599C22.9089853 43.0974548 21.5420116 41.0087028 21.5420116 39.7471264L21.5420116 36.2889984C21.5420116 36.2889984 24.8059869 34.2557471 25.8094158 30.1380131 26.6406989 29.6321018 27.1967752 28.7547619 27.1967752 27.7578818L27.1967752 25.1696223C23.564725 26.2582923 20.38569 26.683087 20.38569 26.683087 22.8636838 24.3477833 23.7357383 19.5512315 24.038126 16.1454023 22.7481649 14.4974548 21.7730494 12.6627258 21.1512859 10.7041872 19.5702625 10.0381773 17.4920548 9.60591133 14.746782 9.60591133 2.51196989 9.60591133 3.42139812 18.1444992 3.42139812 18.1444992L3.42139812 21.4809524C2.80982745 22.0018062 2.29678762 23.1406404 2.29678762 23.9731527L2.29678762 27.7578818C2.29678762 28.7547619 2.85286391 29.6321018 3.684147 30.1380131 4.68757591 34.2557471 7.95155235 36.2889984 7.95155235 36.2889984L7.95155235 39.7471264C7.95155235 41.0087028 6.58457865 43.0974548 5.40900279 43.7015599L.679522964 46.5513136C-.554943527 47.2952381.00339781415 49.0968801 1.4677696 49.0968801L28.0246607 49.0968801C29.4901652 49.0968801 30.0485066 47.2952381 28.8140399 46.5513136L28.8140399 46.5513136 28.8140399 46.5513136 28.8140399 46.5513136zM31.7110716 0L43.0364544 0M31.7110716 6.40394089L54.3618371 6.40394089M31.7110716 12.8078818L54.3618371 12.8078818"/>
    </g>
  </g>
</svg>
