<svg xmlns="http://www.w3.org/2000/svg" width="112" height="112" viewBox="0 0 112 112" xmlns:xlink="http://www.w3.org/1999/xlink">
  <defs>
    <path id="a" d="M44,22 C44,34.15 34.15,44 22,44 C9.85,44 0,34.15 0,22 C0,9.85 9.85,0 22,0 C34.15,0 44,9.85 44,22 L44,22 Z"/>
  </defs>
  <g fill="none" fill-rule="evenodd" transform="translate(2 2)">
    <g stroke="#00ADEE" stroke-width="4">
      <path d="M108 54C108 83.824 83.824 108 54 108 24.176 108 0 83.824 0 54 0 24.176 24.176 0 54 0 83.824 0 108 24.176 108 54L108 54 108 54 108 54zM20 12L2 12M20 12L20 30"/>
    </g>
    <g transform="translate(32 32)">
      <mask id="b" fill="white">
        <use xlink:href="#a"/>
      </mask>
      <polygon fill="#D0E8F9" points="-5 -5 49 -5 49 49 -5 49" mask="url(#b)"/>
    </g>
    <g stroke="#00ADEE" stroke-width="4" transform="translate(32 32)">
      <path d="M44 22C44 34.15 34.15 44 22 44 9.85 44 0 34.15 0 22 0 9.85 9.85 0 22 0 34.15 0 44 9.85 44 22L44 22 44 22 44 22zM60 60L78 60M60 60L60 42"/>
    </g>
  </g>
</svg>
