<svg xmlns="http://www.w3.org/2000/svg" width="48" height="57" viewBox="0 0 48 57" xmlns:xlink="http://www.w3.org/1999/xlink">
  <defs>
    <path id="a" d="M2.03448574,1.15856861 C2.03448574,1.67231119 1.61753525,2.08925936 1.10379267,2.08925936 C0.590050099,2.08925936 0.173099604,1.67231119 0.173099604,1.15856861 C0.173099604,0.64482604 0.590050099,0.227875545 1.10379267,0.227875545 C1.61753525,0.227875545 2.03448574,0.64482604 2.03448574,1.15856861 L2.03448574,1.15856861 Z"/>
    <path id="c" d="M2.03448574,1.15856861 C2.03448574,1.67231119 1.61753525,2.08925936 1.10379267,2.08925936 C0.590050099,2.08925936 0.173099604,1.67231119 0.173099604,1.15856861 C0.173099604,0.64482604 0.590050099,0.227875545 1.10379267,0.227875545 C1.61753525,0.227875545 2.03448574,0.64482604 2.03448574,1.15856861 L2.03448574,1.15856861 Z"/>
    <path id="e" d="M2.03448574,1.15856861 C2.03448574,1.67231119 1.61753525,2.08925936 1.10379267,2.08925936 C0.590050099,2.08925936 0.173099604,1.67231119 0.173099604,1.15856861 C0.173099604,0.64482604 0.590050099,0.227875545 1.10379267,0.227875545 C1.61753525,0.227875545 2.03448574,0.64482604 2.03448574,1.15856861 L2.03448574,1.15856861 Z"/>
    <path id="g" d="M2.03448574,1.15856861 C2.03448574,1.67231119 1.61753525,2.08925936 1.10379267,2.08925936 C0.590050099,2.08925936 0.173099604,1.67231119 0.173099604,1.15856861 C0.173099604,0.64482604 0.590050099,0.227875545 1.10379267,0.227875545 C1.61753525,0.227875545 2.03448574,0.64482604 2.03448574,1.15856861 L2.03448574,1.15856861 Z"/>
    <path id="i" d="M2.03448574,1.15856861 C2.03448574,1.67231119 1.61753525,2.08926168 1.10379267,2.08926168 C0.590050099,2.08926168 0.173099604,1.67231119 0.173099604,1.15856861 C0.173099604,0.64482604 0.590050099,0.227875545 1.10379267,0.227875545 C1.61753525,0.227875545 2.03448574,0.64482604 2.03448574,1.15856861 L2.03448574,1.15856861 Z"/>
    <path id="k" d="M2.03448574,1.15856861 C2.03448574,1.67231119 1.61753525,2.08926168 1.10379267,2.08926168 C0.590050099,2.08926168 0.173099604,1.67231119 0.173099604,1.15856861 C0.173099604,0.64482604 0.590050099,0.227875545 1.10379267,0.227875545 C1.61753525,0.227875545 2.03448574,0.64482604 2.03448574,1.15856861 L2.03448574,1.15856861 Z"/>
    <path id="m" d="M2.03448574,1.15856861 C2.03448574,1.67231119 1.61753525,2.08926168 1.10379267,2.08926168 C0.590050099,2.08926168 0.173099604,1.67231119 0.173099604,1.15856861 C0.173099604,0.64482604 0.590050099,0.227875545 1.10379267,0.227875545 C1.61753525,0.227875545 2.03448574,0.64482604 2.03448574,1.15856861 L2.03448574,1.15856861 Z"/>
    <path id="o" d="M2.03448574,1.15856861 C2.03448574,1.67231119 1.61753525,2.08926168 1.10379267,2.08926168 C0.590050099,2.08926168 0.173099604,1.67231119 0.173099604,1.15856861 C0.173099604,0.64482604 0.590050099,0.227875545 1.10379267,0.227875545 C1.61753525,0.227875545 2.03448574,0.64482604 2.03448574,1.15856861 L2.03448574,1.15856861 Z"/>
    <path id="q" d="M2.03448574,1.15856861 C2.03448574,1.67231119 1.61753525,2.08926168 1.10379267,2.08926168 C0.590050099,2.08926168 0.173099604,1.67231119 0.173099604,1.15856861 C0.173099604,0.64482604 0.590050099,0.227875545 1.10379267,0.227875545 C1.61753525,0.227875545 2.03448574,0.64482604 2.03448574,1.15856861 L2.03448574,1.15856861 Z"/>
    <path id="s" d="M2.03448574,1.15856861 C2.03448574,1.67231119 1.61753525,2.08926168 1.10379267,2.08926168 C0.590050099,2.08926168 0.173099604,1.67231119 0.173099604,1.15856861 C0.173099604,0.64482604 0.590050099,0.227875545 1.10379267,0.227875545 C1.61753525,0.227875545 2.03448574,0.64482604 2.03448574,1.15856861 L2.03448574,1.15856861 Z"/>
    <path id="u" d="M2.03448574,1.15856861 C2.03448574,1.67231119 1.61753525,2.08926168 1.10379267,2.08926168 C0.590050099,2.08926168 0.173099604,1.67231119 0.173099604,1.15856861 C0.173099604,0.64482604 0.590050099,0.227875545 1.10379267,0.227875545 C1.61753525,0.227875545 2.03448574,0.64482604 2.03448574,1.15856861 L2.03448574,1.15856861 Z"/>
    <path id="w" d="M2.03448574,1.15856861 C2.03448574,1.67231119 1.61753525,2.08926168 1.10379267,2.08926168 C0.590050099,2.08926168 0.173099604,1.67231119 0.173099604,1.15856861 C0.173099604,0.64482604 0.590050099,0.227875545 1.10379267,0.227875545 C1.61753525,0.227875545 2.03448574,0.64482604 2.03448574,1.15856861 L2.03448574,1.15856861 Z"/>
    <path id="y" d="M2.03448574,1.15856861 C2.03448574,1.67231119 1.61753525,2.08926168 1.10379267,2.08926168 C0.590050099,2.08926168 0.173099604,1.67231119 0.173099604,1.15856861 C0.173099604,0.64482604 0.590050099,0.227875545 1.10379267,0.227875545 C1.61753525,0.227875545 2.03448574,0.64482604 2.03448574,1.15856861 L2.03448574,1.15856861 Z"/>
    <path id="A" d="M2.03448574,1.15856861 C2.03448574,1.67231119 1.61753525,2.08926168 1.10379267,2.08926168 C0.590050099,2.08926168 0.173099604,1.67231119 0.173099604,1.15856861 C0.173099604,0.64482604 0.590050099,0.227875545 1.10379267,0.227875545 C1.61753525,0.227875545 2.03448574,0.64482604 2.03448574,1.15856861 L2.03448574,1.15856861 Z"/>
    <path id="C" d="M2.03448574,1.15856861 C2.03448574,1.67231119 1.61753525,2.08926168 1.10379267,2.08926168 C0.590050099,2.08926168 0.173099604,1.67231119 0.173099604,1.15856861 C0.173099604,0.64482604 0.590050099,0.227875545 1.10379267,0.227875545 C1.61753525,0.227875545 2.03448574,0.64482604 2.03448574,1.15856861 L2.03448574,1.15856861 Z"/>
    <path id="E" d="M2.03448574,1.15856861 C2.03448574,1.67231119 1.61753525,2.08926168 1.10379267,2.08926168 C0.590050099,2.08926168 0.173099604,1.67231119 0.173099604,1.15856861 C0.173099604,0.64482604 0.590050099,0.227875545 1.10379267,0.227875545 C1.61753525,0.227875545 2.03448574,0.64482604 2.03448574,1.15856861 L2.03448574,1.15856861 Z"/>
    <path id="G" d="M2.03448574,1.15856861 C2.03448574,1.67231119 1.61753525,2.08926168 1.10379267,2.08926168 C0.590050099,2.08926168 0.173099604,1.67231119 0.173099604,1.15856861 C0.173099604,0.64482604 0.590050099,0.227875545 1.10379267,0.227875545 C1.61753525,0.227875545 2.03448574,0.64482604 2.03448574,1.15856861 L2.03448574,1.15856861 Z"/>
    <path id="I" d="M2.03448574,1.15856861 C2.03448574,1.67231119 1.61753525,2.08926168 1.10379267,2.08926168 C0.590050099,2.08926168 0.173099604,1.67231119 0.173099604,1.15856861 C0.173099604,0.64482604 0.590050099,0.227875545 1.10379267,0.227875545 C1.61753525,0.227875545 2.03448574,0.64482604 2.03448574,1.15856861 L2.03448574,1.15856861 Z"/>
    <path id="K" d="M2.03448574,1.15856861 C2.03448574,1.67231119 1.61753525,2.08926168 1.10379267,2.08926168 C0.590050099,2.08926168 0.173099604,1.67231119 0.173099604,1.15856861 C0.173099604,0.64482604 0.590050099,0.227875545 1.10379267,0.227875545 C1.61753525,0.227875545 2.03448574,0.64482604 2.03448574,1.15856861 L2.03448574,1.15856861 Z"/>
    <path id="M" d="M2.03448574,1.15856861 C2.03448574,1.67231119 1.61753525,2.08926168 1.10379267,2.08926168 C0.590050099,2.08926168 0.173099604,1.67231119 0.173099604,1.15856861 C0.173099604,0.64482604 0.590050099,0.227875545 1.10379267,0.227875545 C1.61753525,0.227875545 2.03448574,0.64482604 2.03448574,1.15856861 L2.03448574,1.15856861 Z"/>
    <path id="O" d="M2.03448574,1.15856861 C2.03448574,1.67231119 1.61753525,2.08926168 1.10379267,2.08926168 C0.590050099,2.08926168 0.173099604,1.67231119 0.173099604,1.15856861 C0.173099604,0.64482604 0.590050099,0.227875545 1.10379267,0.227875545 C1.61753525,0.227875545 2.03448574,0.64482604 2.03448574,1.15856861 L2.03448574,1.15856861 Z"/>
    <path id="Q" d="M2.03448574,1.15856861 C2.03448574,1.67231119 1.61753525,2.08926168 1.10379267,2.08926168 C0.590050099,2.08926168 0.173099604,1.67231119 0.173099604,1.15856861 C0.173099604,0.64482604 0.590050099,0.227875545 1.10379267,0.227875545 C1.61753525,0.227875545 2.03448574,0.64482604 2.03448574,1.15856861 L2.03448574,1.15856861 Z"/>
  </defs>
  <g fill="none" fill-rule="evenodd" transform="translate(0 1)">
    <g transform="translate(25.129 48.396)">
      <mask id="b" fill="white">
        <use xlink:href="#a"/>
      </mask>
      <polygon fill="#00ADEE" points="-2.154 -2.099 4.361 -2.099 4.361 4.416 -2.154 4.416" mask="url(#b)"/>
    </g>
    <g transform="translate(28.851 48.396)">
      <mask id="d" fill="white">
        <use xlink:href="#c"/>
      </mask>
      <polygon fill="#00ADEE" points="-2.154 -2.099 4.361 -2.099 4.361 4.416 -2.154 4.416" mask="url(#d)"/>
    </g>
    <g transform="translate(32.574 48.396)">
      <mask id="f" fill="white">
        <use xlink:href="#e"/>
      </mask>
      <polygon fill="#00ADEE" points="-2.154 -2.099 4.361 -2.099 4.361 4.416 -2.154 4.416" mask="url(#f)"/>
    </g>
    <g transform="translate(36.297 48.396)">
      <mask id="h" fill="white">
        <use xlink:href="#g"/>
      </mask>
      <polygon fill="#00ADEE" points="-2.154 -2.099 4.361 -2.099 4.361 4.416 -2.154 4.416" mask="url(#h)"/>
    </g>
    <g transform="translate(26.99 46.535)">
      <mask id="j" fill="white">
        <use xlink:href="#i"/>
      </mask>
      <polygon fill="#00ADEE" points="-2.154 -2.099 4.361 -2.099 4.361 4.416 -2.154 4.416" mask="url(#j)"/>
    </g>
    <g transform="translate(30.713 46.535)">
      <mask id="l" fill="white">
        <use xlink:href="#k"/>
      </mask>
      <polygon fill="#00ADEE" points="-2.154 -2.099 4.361 -2.099 4.361 4.416 -2.154 4.416" mask="url(#l)"/>
    </g>
    <g transform="translate(34.436 46.535)">
      <mask id="n" fill="white">
        <use xlink:href="#m"/>
      </mask>
      <polygon fill="#00ADEE" points="-2.154 -2.099 4.361 -2.099 4.361 4.416 -2.154 4.416" mask="url(#n)"/>
    </g>
    <g transform="translate(25.129 28.851)">
      <mask id="p" fill="white">
        <use xlink:href="#o"/>
      </mask>
      <polygon fill="#00ADEE" points="-2.154 -2.099 4.361 -2.099 4.361 4.416 -2.154 4.416" mask="url(#p)"/>
    </g>
    <g transform="translate(26.99 18.614)">
      <mask id="r" fill="white">
        <use xlink:href="#q"/>
      </mask>
      <polygon fill="#00ADEE" points="-2.154 -2.099 4.361 -2.099 4.361 4.416 -2.154 4.416" mask="url(#r)"/>
    </g>
    <g transform="translate(30.713 18.614)">
      <mask id="t" fill="white">
        <use xlink:href="#s"/>
      </mask>
      <polygon fill="#00ADEE" points="-2.154 -2.099 4.361 -2.099 4.361 4.416 -2.154 4.416" mask="url(#t)"/>
    </g>
    <g transform="translate(28.851 16.752)">
      <mask id="v" fill="white">
        <use xlink:href="#u"/>
      </mask>
      <polygon fill="#00ADEE" points="-2.154 -2.099 4.361 -2.099 4.361 4.416 -2.154 4.416" mask="url(#v)"/>
    </g>
    <g transform="translate(30.713 14.891)">
      <mask id="x" fill="white">
        <use xlink:href="#w"/>
      </mask>
      <polygon fill="#00ADEE" points="-2.154 -2.099 4.361 -2.099 4.361 4.416 -2.154 4.416" mask="url(#x)"/>
    </g>
    <g transform="translate(26.99 22.337)">
      <mask id="z" fill="white">
        <use xlink:href="#y"/>
      </mask>
      <polygon fill="#00ADEE" points="-2.154 -2.099 4.361 -2.099 4.361 4.416 -2.154 4.416" mask="url(#z)"/>
    </g>
    <g transform="translate(25.129 20.475)">
      <mask id="B" fill="white">
        <use xlink:href="#A"/>
      </mask>
      <polygon fill="#00ADEE" points="-2.154 -2.099 4.361 -2.099 4.361 4.416 -2.154 4.416" mask="url(#B)"/>
    </g>
    <g transform="translate(28.851 20.475)">
      <mask id="D" fill="white">
        <use xlink:href="#C"/>
      </mask>
      <polygon fill="#00ADEE" points="-2.154 -2.099 4.361 -2.099 4.361 4.416 -2.154 4.416" mask="url(#D)"/>
    </g>
    <g transform="translate(25.129 31.644)">
      <mask id="F" fill="white">
        <use xlink:href="#E"/>
      </mask>
      <polygon fill="#00ADEE" points="-2.154 -2.099 4.361 -2.099 4.361 4.416 -2.154 4.416" mask="url(#F)"/>
    </g>
    <g transform="translate(25.129 34.436)">
      <mask id="H" fill="white">
        <use xlink:href="#G"/>
      </mask>
      <polygon fill="#00ADEE" points="-2.154 -2.099 4.361 -2.099 4.361 4.416 -2.154 4.416" mask="url(#H)"/>
    </g>
    <g transform="translate(25.129 37.228)">
      <mask id="J" fill="white">
        <use xlink:href="#I"/>
      </mask>
      <polygon fill="#00ADEE" points="-2.154 -2.099 4.361 -2.099 4.361 4.416 -2.154 4.416" mask="url(#J)"/>
    </g>
    <g transform="translate(25.129 40.02)">
      <mask id="L" fill="white">
        <use xlink:href="#K"/>
      </mask>
      <polygon fill="#00ADEE" points="-2.154 -2.099 4.361 -2.099 4.361 4.416 -2.154 4.416" mask="url(#L)"/>
    </g>
    <g transform="translate(25.129 42.812)">
      <mask id="N" fill="white">
        <use xlink:href="#M"/>
      </mask>
      <polygon fill="#00ADEE" points="-2.154 -2.099 4.361 -2.099 4.361 4.416 -2.154 4.416" mask="url(#N)"/>
    </g>
    <g transform="translate(28.851 44.673)">
      <mask id="P" fill="white">
        <use xlink:href="#O"/>
      </mask>
      <polygon fill="#00ADEE" points="-2.154 -2.099 4.361 -2.099 4.361 4.416 -2.154 4.416" mask="url(#P)"/>
    </g>
    <g transform="translate(32.574 44.673)">
      <mask id="R" fill="white">
        <use xlink:href="#Q"/>
      </mask>
      <polygon fill="#00ADEE" points="-2.154 -2.099 4.361 -2.099 4.361 4.416 -2.154 4.416" mask="url(#R)"/>
    </g>
    <g stroke="#00ADEE" stroke-width="2">
      <path d="M13.2028016 10.4654993L17.8562669 10.4654993M8.54933625 16.9803508L17.8562669 16.9803508M3.8958709 23.4952023L17.8562669 23.4952023M.173098627 30.0100538L17.8562669 30.0100538M5.75725704 36.5249052L17.8562669 36.5249052M11.3414155 43.0397567L17.8562669 43.0397567M23.4404263 3.95065248L44.8463669 3.95065248C45.8747828 3.95065248 46.7077531 3.11768218 46.7077531 2.08926634 46.7077531 1.06178119 45.8747828.227880198 44.8463669.227880198L23.4404263.227880198M28.0938917 27.2179792C34.8572382 24.3998406 39.2622085 17.7919198 39.2622085 10.465504L39.2622085 3.95065248 23.4404263 3.95065248M23.4404263 50.4853059L39.2622085 50.4853059 39.2622085 43.9704545C39.2622085 36.6440386 34.8572382 30.0361178 28.0938917 27.2179792M23.4404263 54.2080782L44.8463669 54.2080782C45.8747828 54.2080782 46.7077531 53.3751079 46.7077531 52.3466921 46.7077531 51.3192069 45.8747828 50.4853059 44.8463669 50.4853059L23.4404263 50.4853059"/>
    </g>
  </g>
</svg>
