<svg xmlns="http://www.w3.org/2000/svg" width="55" height="52" viewBox="0 0 55 52" xmlns:xlink="http://www.w3.org/1999/xlink">
  <defs>
    <path id="a" d="M7.54372229,19.8827718 L0.000993867673,21.8218408 L2.05854236,14.7134442 L16.7997816,0.821047672 C17.5512425,0.112858017 18.7700637,0.112858017 19.5215488,0.821047672 L22.2849858,3.42535802 C23.0364467,4.13354767 23.0364467,5.2821856 22.2849858,5.99037526 L7.54372229,19.8827718 L7.54372229,19.8827718 Z"/>
  </defs>
  <g fill="none" fill-rule="evenodd" transform="translate(1 1)">
    <g transform="translate(29.574 27.414)">
      <mask id="b" fill="white">
        <use xlink:href="#a"/>
      </mask>
      <polygon fill="#D0E8F9" points="-2.423 -1.995 25.273 -1.995 25.273 24.106 -2.423 24.106" mask="url(#b)"/>
    </g>
    <g stroke="#00ADEE" stroke-width="2">
      <path d="M37.1173457 47.2965649L29.5746173 49.2356339 31.6321658 42.1272373 46.3734051 28.2348408C47.124866 27.5266511 48.3436871 27.5266511 49.095148 28.2348408L51.858585 30.8391511C52.6100459 31.5473408 52.6100459 32.6959787 51.858585 33.4041684L37.1173457 47.2965649 37.1173457 47.2965649 37.1173457 47.2965649 37.1173457 47.2965649zM48.419318 36.6444787L42.9351077 31.4751511M31.6321658 42.1272373L37.1173457 47.2965649M51.4523121 24.5056466C51.4523121 11.1313707 39.9486574.29012931 25.7571967.29012931 11.5657359.29012931.0620812412 11.1313707.0620812412 24.5056466.0620812412 35.1613879 7.36531179 44.2097672 17.5114887 47.4473362"/>
      <path d="M37.2240047,24.0560649 C36.7071935,22.4322546 36.3203123,20.6869097 36.1952305,18.8922201 C36.0817841,17.2821166 35.7811997,15.6774959 35.0782202,14.2062891 C33.8196443,11.5681684 31.1163242,8.39273733 25.3916464,8.34796147 C15.5799908,8.42380629 15.3657033,17.7965822 15.3657033,17.7965822 C15.2444999,23.7207028 11.5899758,29.4611511 9.67302317,32.0736856 C9.13100168,32.8120304 9.37534769,33.745927 10.2499512,34.1004787 C11.992371,34.8050132 14.2516019,35.0142718 14.2516019,35.0142718 L20.5008479,35.0142718 C21.0574138,35.0142718 21.4268416,35.5662028 21.1795868,36.0368063 C20.9051823,36.5567546 20.5153923,37.2859615 20.0363965,37.5116684 L11.2001857,41.0827718 C10.27904,41.5168235 9.51497397,42.1528235 8.92738001,42.9067028 C11.4231999,44.9197891 14.3311113,46.4905994 17.516336,47.4893753"/>
    </g>
  </g>
</svg>
