<?xml version="1.0" encoding="UTF-8" standalone="no"?>
<svg width="59px" height="59px" viewBox="0 0 59 59" version="1.1" xmlns="http://www.w3.org/2000/svg" xmlns:xlink="http://www.w3.org/1999/xlink">
    <!-- Generator: Sketch 39.1 (31720) - http://www.bohemiancoding.com/sketch -->
    <title>Group 14</title>
    <desc>Created with Sketch.</desc>
    <defs></defs>
    <g id="Page-1" stroke="none" stroke-width="1" fill="none" fill-rule="evenodd">
        <g id="05-Leaplines-overons-@2x" transform="translate(-1071.000000, -998.000000)">
            <g id="Group-5" transform="translate(233.000000, 998.000000)">
                <g id="Group-14" transform="translate(838.000000, 0.000000)">
                    <g id="Group-2">
                        <g id="Group" transform="translate(0.605634, 0.816901)">
                            <polyline id="Stroke-573" stroke="#000000" stroke-width="1.5" stroke-linejoin="round" points="33.7024719 22.6465581 38.6162113 22.6465581 38.6162113 32.474037 48.4436903 22.6465581 57.0427343 22.6465581 57.0427343 0.534730471 20.1896883 0.534730471 20.1896883 10.3622094"></polyline>
                            <path d="M14.047514,39.0768744 L14.047514,44.4377642 L4.36499038,47.9044073 C2.04570536,48.7323724 0.534730471,50.9263571 0.534730471,53.3856837 L0.534730471,57.0415059 L37.3877765,57.0415059 L37.3877765,53.3856837 C37.3877765,50.9263571 35.8768016,48.7323724 33.5575165,47.9044073 L23.8749929,44.4377642 L23.8749929,38.7697657" id="Stroke-574" stroke="#000000" stroke-width="1.5" stroke-linejoin="round"></path>
                            <path d="M28.4167623,28.9182094 C28.4167623,35.3429238 24.0754735,40.5564014 18.7194975,40.5564014 C13.3635215,40.5564014 9.01977578,35.3429238 9.01977578,28.9182094 C9.01977578,22.4910382 13.3635215,17.2824744 18.7194975,17.2824744 C24.0754735,17.2824744 28.4167623,22.4910382 28.4167623,28.9182094 L28.4167623,28.9182094 Z" id="Stroke-575" stroke="#000000" stroke-width="1.5" stroke-linejoin="round"></path>
                            <path d="M28.3663965,27.8649494 C28.0396328,27.909173 27.7767478,27.8870612 27.4475272,27.9484829 C24.1430374,28.5848122 22.0227588,27.3883166 20.2046752,24.2066703 C19.1113682,26.2950096 15.7036899,27.9484829 12.9004015,27.9484829 C11.5220976,27.9484829 10.3329727,27.6659429 9.14630457,27.0443549" id="Stroke-576" stroke="#DF2374" stroke-width="1.5" stroke-linejoin="round"></path>
                            <polygon id="Fill-577" fill="#000000" points="48.4436903 11.5906443 45.9868205 11.5906443 45.9868205 14.047514 48.4436903 14.047514"></polygon>
                            <polygon id="Fill-578" fill="#000000" points="41.0730811 11.5906443 38.6162113 11.5906443 38.6162113 14.047514 41.0730811 14.047514"></polygon>
                            <polygon id="Fill-579" fill="#000000" points="33.7024719 11.5906443 31.2456021 11.5906443 31.2456021 14.047514 33.7024719 14.047514"></polygon>
                        </g>
                    </g>
                </g>
            </g>
        </g>
    </g>
</svg>