<?xml version="1.0" encoding="UTF-8" standalone="no"?>
<svg width="52px" height="52px" viewBox="0 0 52 52" version="1.1" xmlns="http://www.w3.org/2000/svg" xmlns:xlink="http://www.w3.org/1999/xlink">
    <!-- Generator: Sketch 39.1 (31720) - http://www.bohemiancoding.com/sketch -->
    <title>Group 19</title>
    <desc>Created with Sketch.</desc>
    <defs></defs>
    <g id="Page-1" stroke="none" stroke-width="1" fill="none" fill-rule="evenodd" stroke-linecap="round" stroke-linejoin="round">
        <g id="05-Leaplines-overons-@2x" transform="translate(-822.000000, -1002.000000)" stroke-width="1.5">
            <g id="Group-5" transform="translate(233.000000, 998.000000)">
                <g id="Group-19" transform="translate(589.000000, 4.000000)">
                    <g id="Group" transform="translate(0.845204, 0.691358)">
                        <path d="M31.6163343,6.84710351 C31.6163343,10.4138727 28.7215651,13.308642 25.1547958,13.308642 C21.5858727,13.308642 18.6932574,10.4138727 18.6932574,6.84710351 C18.6932574,3.27818044 21.5858727,0.385565052 25.1547958,0.385565052 C28.7215651,0.385565052 31.6163343,3.27818044 31.6163343,6.84710351 L31.6163343,6.84710351 Z" id="Stroke-516" stroke="#000000"></path>
                        <path d="M34.8471035,17.6163343 L15.4624881,17.6163343 C15.4624881,22.1027958 17.6163343,28.3855651 21.9240266,29.8932574 L21.9240266,39.1547958 L28.3855651,39.1547958 L28.3855651,29.8932574 C32.6932574,28.3855651 34.8471035,22.1027958 34.8471035,17.6163343 L34.8471035,17.6163343 Z" id="Stroke-517" stroke="#000000"></path>
                        <path d="M33.8121804,37.6824266 C37.6955651,38.3651958 40.230642,39.4938112 40.230642,40.771042 C40.230642,42.8516574 33.4804881,44.5402727 25.1537189,44.5402727 C16.8291035,44.5402727 10.0767958,42.8516574 10.0767958,40.771042 C10.0767958,39.4916574 12.6269497,38.3608881 16.5254112,37.6802727" id="Stroke-518" stroke="#DF2374"></path>
                        <path d="M33.7764266,33.2274112 C43.2038112,34.4464881 49.9238112,37.6040266 49.9238112,41.308642 C49.9238112,46.0643343 38.8336574,49.9240266 25.1545804,49.9240266 C11.4755035,49.9240266 0.385349668,46.0643343 0.385349668,41.308642 C0.385349668,37.6040266 7.10534967,34.4464881 16.537042,33.2274112" id="Stroke-519" stroke="#000000"></path>
                    </g>
                </g>
            </g>
        </g>
    </g>
</svg>