<?xml version="1.0" encoding="UTF-8" standalone="no"?>
<svg width="52px" height="52px" viewBox="0 0 52 52" version="1.1" xmlns="http://www.w3.org/2000/svg" xmlns:xlink="http://www.w3.org/1999/xlink">
    <!-- Generator: Sketch 39.1 (31720) - http://www.bohemiancoding.com/sketch -->
    <title>Group 16</title>
    <desc>Created with Sketch.</desc>
    <defs></defs>
    <g id="Page-1" stroke="none" stroke-width="1" fill="none" fill-rule="evenodd" stroke-linejoin="round">
        <g id="05-Leaplines-overons-@2x" transform="translate(-576.000000, -1000.000000)" stroke-width="1.5">
            <g id="Group-5" transform="translate(233.000000, 998.000000)">
                <g id="Group-16" transform="translate(344.000000, 2.000000)">
                    <g id="Group" transform="translate(0.404117, 0.481040)">
                        <path d="M19.6728061,31.5189599 C19.6728061,32.1134215 19.1924984,32.595883 18.595883,32.595883 C18.0035753,32.595883 17.5189599,32.1134215 17.5189599,31.5189599 C17.5189599,30.9266522 18.0035753,30.4420368 18.595883,30.4420368 C19.1924984,30.4420368 19.6728061,30.9266522 19.6728061,31.5189599 L19.6728061,31.5189599 Z" id="Stroke-62" stroke="#000000" stroke-linecap="round"></path>
                        <path d="M23.9804984,31.5189599 C23.9804984,34.4912676 21.5703445,36.9035753 18.595883,36.9035753 C15.6257291,36.9035753 13.2112676,34.4912676 13.2112676,31.5189599 C13.2112676,28.5444984 15.6257291,26.1343445 18.595883,26.1343445 C21.5703445,26.1343445 23.9804984,28.5444984 23.9804984,31.5189599 L23.9804984,31.5189599 Z" id="Stroke-63" stroke="#000000" stroke-linecap="round"></path>
                        <path d="M30.4420368,31.5189599 C30.4420368,38.0601907 25.1371138,43.3651138 18.595883,43.3651138 C12.0546522,43.3651138 6.74972914,38.0601907 6.74972914,31.5189599 C6.74972914,24.9755753 12.0546522,19.6728061 18.595883,19.6728061 C25.1371138,19.6728061 30.4420368,24.9755753 30.4420368,31.5189599 L30.4420368,31.5189599 Z" id="Stroke-64" stroke="#DF2374" stroke-linecap="round"></path>
                        <path d="M36.9035753,31.5189599 C36.9035753,41.6291138 28.7081907,49.8266522 18.595883,49.8266522 C8.48788299,49.8266522 0.288190683,41.6291138 0.288190683,31.5189599 C0.288190683,21.4088061 8.48788299,13.2112676 18.595883,13.2112676 C28.7081907,13.2112676 36.9035753,21.4088061 36.9035753,31.5189599 L36.9035753,31.5189599 Z" id="Stroke-65" stroke="#000000" stroke-linecap="round"></path>
                        <path d="M18.595883,31.5189599 L44.4420368,5.67280607" id="Stroke-66" stroke="#000000" stroke-linecap="round"></path>
                        <path d="M44.4420368,5.67280607 L49.8266522,5.67280607 C49.8266522,5.67280607 44.4420368,22.9035753 35.8266522,14.2881907 C27.2112676,5.67280607 44.4420368,0.288190683 44.4420368,0.288190683 L44.4420368,5.67280607 L44.4420368,5.67280607 Z" id="Stroke-67" stroke="#000000" stroke-linecap="round"></path>
                        <path d="M38,11.0574215 L38,2.64665222" id="Stroke-68" stroke="#DF2374"></path>
                        <path d="M0.288190683,49.8266522 L5.67280607,44.4420368" id="Stroke-69" stroke="#000000" stroke-linecap="round"></path>
                        <path d="M31.5189599,44.4420368 L36.9035753,49.8266522" id="Stroke-70" stroke="#000000" stroke-linecap="round"></path>
                    </g>
                </g>
            </g>
        </g>
    </g>
</svg>