<?xml version="1.0" encoding="UTF-8" standalone="no"?>
<svg width="52px" height="50px" viewBox="0 0 52 50" version="1.1" xmlns="http://www.w3.org/2000/svg" xmlns:xlink="http://www.w3.org/1999/xlink">
    <!-- Generator: Sketch 39.1 (31720) - http://www.bohemiancoding.com/sketch -->
    <title>Group 17</title>
    <desc>Created with Sketch.</desc>
    <defs></defs>
    <g id="Page-1" stroke="none" stroke-width="1" fill="none" fill-rule="evenodd">
        <g id="05-Leaplines-overons-@2x" transform="translate(-318.000000, -1007.000000)">
            <g id="Group-5" transform="translate(233.000000, 998.000000)">
                <g id="Group-17" transform="translate(85.000000, 10.000000)">
                    <g id="Group" transform="translate(0.942579, 0.096425)">
                        <path d="M17.5189599,34.7497291 L3.51895991,34.7497291 C1.73988299,34.7497291 0.288190683,33.2937291 0.288190683,31.5189599 L0.288190683,3.51895991 C0.288190683,1.74203684 1.73988299,0.288190683 3.51895991,0.288190683 L46.595883,0.288190683 C48.3706522,0.288190683 49.8266522,1.74203684 49.8266522,3.51895991 L49.8266522,31.5189599 C49.8266522,33.2937291 48.3706522,34.7497291 46.595883,34.7497291 L43.3651138,34.7497291" id="Stroke-177" stroke="#000000" stroke-width="1.5" stroke-linecap="round" stroke-linejoin="round"></path>
                        <polyline id="Stroke-178" stroke="#DF2374" stroke-width="1.5" stroke-linecap="round" stroke-linejoin="round" points="17.5189599 30.4420368 4.59588299 30.4420368 4.59588299 4.59588299 45.5189599 4.59588299 45.5189599 30.4420368 43.3651138 30.4420368"></polyline>
                        <polygon id="Stroke-179" stroke="#000000" stroke-width="1.5" stroke-linejoin="round" points="36.9035753 47.6728061 23.9804984 47.6728061 23.9804984 26.1343445 36.9035753 26.1343445"></polygon>
                        <path d="M28.2881907,29.3651138 C27.6915753,29.3651138 27.2112676,29.8497291 27.2112676,30.4420368 C27.2112676,31.0343445 27.6915753,31.5189599 28.2881907,31.5189599 C28.8804984,31.5189599 29.3651138,31.0343445 29.3651138,30.4420368 C29.3651138,29.8497291 28.8804984,29.3651138 28.2881907,29.3651138" id="Fill-180" fill="#000000"></path>
                        <path d="M32.595883,29.3651138 C31.9992676,29.3651138 31.5189599,29.8497291 31.5189599,30.4420368 C31.5189599,31.0343445 31.9992676,31.5189599 32.595883,31.5189599 C33.1881907,31.5189599 33.6728061,31.0343445 33.6728061,30.4420368 C33.6728061,29.8497291 33.1881907,29.3651138 32.595883,29.3651138" id="Fill-181" fill="#000000"></path>
                        <path d="M28.2881907,33.6728061 C27.6915753,33.6728061 27.2112676,34.1574215 27.2112676,34.7497291 C27.2112676,35.3420368 27.6915753,35.8266522 28.2881907,35.8266522 C28.8804984,35.8266522 29.3651138,35.3420368 29.3651138,34.7497291 C29.3651138,34.1574215 28.8804984,33.6728061 28.2881907,33.6728061" id="Fill-182" fill="#000000"></path>
                        <path d="M32.595883,33.6728061 C31.9992676,33.6728061 31.5189599,34.1574215 31.5189599,34.7497291 C31.5189599,35.3420368 31.9992676,35.8266522 32.595883,35.8266522 C33.1881907,35.8266522 33.6728061,35.3420368 33.6728061,34.7497291 C33.6728061,34.1574215 33.1881907,33.6728061 32.595883,33.6728061" id="Fill-183" fill="#000000"></path>
                        <path d="M28.2881907,37.9804984 C27.6915753,37.9804984 27.2112676,38.4651138 27.2112676,39.0574215 C27.2112676,39.6497291 27.6915753,40.1343445 28.2881907,40.1343445 C28.8804984,40.1343445 29.3651138,39.6497291 29.3651138,39.0574215 C29.3651138,38.4651138 28.8804984,37.9804984 28.2881907,37.9804984" id="Fill-184" fill="#000000"></path>
                        <path d="M32.595883,37.9804984 C31.9992676,37.9804984 31.5189599,38.4651138 31.5189599,39.0574215 C31.5189599,39.6497291 31.9992676,40.1343445 32.595883,40.1343445 C33.1881907,40.1343445 33.6728061,39.6497291 33.6728061,39.0574215 C33.6728061,38.4651138 33.1881907,37.9804984 32.595883,37.9804984" id="Fill-185" fill="#000000"></path>
                        <path d="M37.7491753,14.208283 C33.4457907,11.5655138 28.0353291,11.464283 23.6436368,13.9067445" id="Stroke-186" stroke="#000000" stroke-width="1.5" stroke-linecap="round" stroke-linejoin="round"></path>
                        <path d="M35.5027138,17.8754215 C32.5196368,16.0511138 28.7762522,15.977883 25.7350215,17.6664984" id="Stroke-187" stroke="#000000" stroke-width="1.5" stroke-linecap="round" stroke-linejoin="round"></path>
                        <path d="M33.2478522,21.5541907 C31.5893907,20.5397291 29.5238522,20.5117291 27.8373907,21.4486522" id="Stroke-188" stroke="#000000" stroke-width="1.5" stroke-linecap="round" stroke-linejoin="round"></path>
                    </g>
                </g>
            </g>
        </g>
    </g>
</svg>