<?xml version="1.0" encoding="UTF-8" standalone="no"?>
<svg width="41px" height="39px" viewBox="0 0 41 39" version="1.1" xmlns="http://www.w3.org/2000/svg" xmlns:xlink="http://www.w3.org/1999/xlink">
    <!-- Generator: Sketch 39.1 (31720) - http://www.bohemiancoding.com/sketch -->
    <title>Group 25</title>
    <desc>Created with Sketch.</desc>
    <defs>
        <polygon id="path-1" points="39.5685478 0.00544477612 0.0100598802 0.00544477612 0.0100598802 40.1552239 39.5685478 40.1552239 39.5685478 0.00544477612"></polygon>
    </defs>
    <g id="Page-1" stroke="none" stroke-width="1" fill="none" fill-rule="evenodd">
        <g id="06-Leaplines-Success-story-@2x" transform="translate(-134.000000, -1188.000000)">
            <g id="Group-7" transform="translate(154.000000, 1144.000000) rotate(-270.000000) translate(-154.000000, -1144.000000) translate(62.000000, 1115.000000)">
                <g id="Group-25" transform="translate(126.000000, 0.000000)">
                    <g id="Group-3" transform="translate(28.948314, 28.896962) rotate(-320.000000) translate(-28.948314, -28.896962) translate(8.948314, 8.396962)">
                        <mask id="mask-2" fill="white">
                            <use xlink:href="#path-1"></use>
                        </mask>
                        <g id="Clip-2"></g>
                        <path d="M38.4096287,13.344806 C36.6360719,8.29613731 33.0312814,4.25049851 28.2593772,1.95280299 C23.4874731,-0.344892537 18.119521,-0.618662687 13.1445749,1.18117612 C8.16979641,2.98101493 4.18239521,6.63922388 1.91892216,11.4818418 C-0.345221557,16.3244597 -0.614994012,21.7717881 1.15856287,26.8211373 C1.3079521,27.2458299 1.76835928,27.467194 2.1868503,27.3162716 C2.60534132,27.1648388 2.82414371,26.697609 2.67475449,26.2729164 C1.04522156,21.6349881 1.29353293,16.6308985 3.37291018,12.1816657 C5.45245509,7.73328358 9.11475449,4.37283582 13.6849581,2.71983582 C18.2551617,1.06615522 23.1861796,1.31797612 27.5697725,3.42833731 C31.9531976,5.53852836 35.2645749,9.25526866 36.8941078,13.893197 C38.5229701,18.5311254 38.2753293,23.5352149 36.1952814,27.983597 C34.1159042,32.4321493 30.4541078,35.792597 25.8839042,37.4462776 C20.7615808,39.299203 15.1421317,38.7382209 10.4673054,35.9076179 C10.0853653,35.6762149 9.59159281,35.8024657 9.36373653,36.1900657 C9.13571257,36.5774955 9.26079042,37.0785851 9.64273054,37.3099881 C12.7549222,39.1949015 16.2517365,40.1552239 19.7745389,40.1552239 C22.0111856,40.1552239 24.2590659,39.767794 26.4242874,38.9847672 C31.3990659,37.1849284 35.3857964,33.5267194 37.6499401,28.6841015 C39.9134132,23.8409731 40.1838563,18.3934746 38.4096287,13.344806 L38.4096287,13.344806 Z" id="Fill-1" fill="#4A4A4A" mask="url(#mask-2)"></path>
                    </g>
                    <path d="M29.9300359,36.9630537 C29.6156647,37.281403 29.6156647,37.7984866 29.9300359,38.1175164 C30.0871377,38.2769463 30.2935329,38.3567463 30.4990898,38.3567463 C30.705485,38.3567463 30.9110419,38.2769463 31.0683114,38.1175164 L40.0554731,28.9978567 C40.3696766,28.6788269 40.3696766,28.1617433 40.0554731,27.8427134 L31.0683114,18.7225433 C30.7539401,18.4035134 30.2444072,18.4035134 29.9300359,18.7225433 C29.6156647,19.0415731 29.6156647,19.5586567 29.9300359,19.8776866 L38.347976,28.4203701 L29.9300359,36.9630537 Z" id="Fill-5" fill="#9B9B9B"></path>
                </g>
            </g>
        </g>
    </g>
</svg>