<?xml version="1.0" encoding="UTF-8" standalone="no"?>
<svg width="50px" height="50px" viewBox="0 0 50 50" version="1.1" xmlns="http://www.w3.org/2000/svg" xmlns:xlink="http://www.w3.org/1999/xlink">
    <!-- Generator: Sketch 39.1 (31720) - http://www.bohemiancoding.com/sketch -->
    <title>Group 26</title>
    <desc>Created with Sketch.</desc>
    <defs>
        <polygon id="path-1" points="1.57317575e-18 0 1.57317575e-18 25.1595783 18.6958637 25.1595783 18.6958637 3.68685869e-15 0 3.68685869e-15"></polygon>
    </defs>
    <g id="Page-1" stroke="none" stroke-width="1" fill="none" fill-rule="evenodd">
        <g id="03-Leaplines-productdetail-v3-@2x-Copy" transform="translate(-232.000000, -4257.000000)">
            <g id="Group-26" transform="translate(232.000000, 4257.000000)">
                <path d="M49.7790589,25.151838 C49.7790589,38.8615095 38.6634421,49.9767139 24.951423,49.9767139 C11.2412428,49.9767139 0.125625966,38.8615095 0.125625966,25.151838 C0.125625966,11.4384891 11.2412428,0.326962196 24.951423,0.326962196 C38.6634421,0.326962196 49.7790589,11.4384891 49.7790589,25.151838" id="Fill-43" fill="#1F76DA"></path>
                <path d="M45.3239152,25.1519307 C45.3239152,36.4040542 36.2028593,45.5227475 24.9523425,45.5227475 C13.6998014,45.5227475 4.58076971,36.4040542 4.58076971,25.1519307 C4.58076971,13.8998073 13.6998014,4.77908981 24.9523425,4.77908981 C36.2028593,4.77908981 45.3239152,13.8998073 45.3239152,25.1519307" id="Fill-44" fill="#FFFFFF"></path>
                <g id="swipe-up" transform="translate(15.255474, 10.191607)">
                    <mask id="mask-2" fill="white">
                        <use xlink:href="#path-1"></use>
                    </mask>
                    <g id="Clip-2"></g>
                    <path d="M17.4825307,15.9310819 C17.1966832,14.1235244 15.9948334,13.834593 15.4302563,13.8007786 C15.2523134,13.7898091 15.0873722,13.6943037 14.9898121,13.5366041 C14.580591,12.8742054 14.0322422,12.6992967 13.5666488,12.6992967 C13.232306,12.6992967 12.9404797,12.7896695 12.7733558,12.854581 C12.752572,12.8628333 12.7310291,12.8667582 12.7099607,12.8667582 C12.6439083,12.8667582 12.5808928,12.829019 12.5456838,12.7653152 C12.1301042,12.0094238 11.5396186,11.8143875 11.0409989,11.8143875 C10.7503115,11.8143875 10.4912266,11.880406 10.3158462,11.9405875 C10.2977197,11.9465251 10.278834,11.9496449 10.2609923,11.9496449 C10.1653302,11.9496449 10.081531,11.8667193 10.081531,11.7581309 L10.081531,7.87179674 C10.081531,6.98336527 9.45688036,6.53914953 8.82890812,6.53914953 C8.20055628,6.53914953 7.57590564,6.98336527 7.57590564,7.87179674 L7.57590564,14.70813 C7.57590564,15.1098766 7.26566819,15.3583516 6.95381738,15.3583516 C6.76439127,15.3583516 6.57164356,15.2667711 6.44599217,15.0619729 L5.83804444,14.0732054 C5.57184191,13.6073526 5.18444843,13.4140271 4.80113577,13.4140271 C3.93476755,13.4140271 3.08586145,14.4010838 3.6878303,15.454662 L8.43192945,25.06991 C8.46305759,25.1328086 8.52417503,25.1595783 8.59127136,25.1595783 L15.2541166,25.1595783 C15.3490194,25.1595783 15.4279786,25.0938618 15.4335779,24.9932239 L15.6004171,22.1203134 C15.6022203,22.0869016 15.6126596,22.0578173 15.6300268,22.0299406 C17.2838041,19.3736029 17.7571795,17.6666833 17.4825307,15.9310819 L17.4825307,15.9310819 Z" id="Fill-1" fill="#000000" mask="url(#mask-2)"></path>
                    <path d="M14.0671665,7.27823435 L14.0671665,11.8300871 C14.0671665,12.0966769 14.2713974,12.3132497 14.5227002,12.3132497 C14.7744775,12.3132497 14.9783289,12.0966769 14.9783289,11.8300871 L14.9783289,7.30097851 L15.9024929,8.26730373 C16.0801511,8.45599982 16.3748245,8.45599982 16.5527673,8.26730373 C16.7307102,8.07860765 16.7340318,7.77276904 16.5560889,7.58407296 L14.8578971,5.78205053 C14.6803339,5.59335444 14.3925884,5.59335444 14.2146455,5.78205053 L12.4708054,7.63167469 C12.2928626,7.82037077 12.2928626,8.12620938 12.4708054,8.31490546 C12.5598243,8.40920319 12.6765548,8.45640237 12.7930007,8.45640237 C12.9097312,8.45640237 13.0135549,8.40920319 13.1024789,8.31490546 L14.0671665,7.27823435 Z" id="Fill-3" fill="#000000" mask="url(#mask-2)" transform="translate(14.512623, 8.976889) rotate(-270.000000) translate(-14.512623, -8.976889) "></path>
                    <path d="M4.82411362,9.95065475 L4.82411362,3.53601832 L3.65275976,3.53601832 L1.66901532,5.56523614 L2.43417389,6.38269356 L3.48272452,5.29595605 L3.48272452,9.95065475 L4.82411362,9.95065475 Z M8.79493941,10.0660605 C10.9566603,10.0660605 11.9186827,8.40229424 11.9186827,6.74814511 C11.9186827,5.09399598 10.9566603,3.43984686 8.79493941,3.43984686 C6.63321849,3.43984686 5.67119609,5.09399598 5.67119609,6.74814511 C5.67119609,8.40229424 6.63321849,10.0660605 8.79493941,10.0660605 L8.79493941,10.0660605 Z M8.79493941,8.8543001 C7.71973791,8.8543001 7.31229312,7.93105408 7.31229312,6.74814511 C7.31229312,5.56523614 7.71973791,4.65160726 8.79493941,4.65160726 C9.88145883,4.65160726 10.2775857,5.56523614 10.2775857,6.74814511 C10.2775857,7.93105408 9.87014092,8.8543001 8.79493941,8.8543001 L8.79493941,8.8543001 Z" id="10" fill="#000000" mask="url(#mask-2)"></path>
                </g>
            </g>
        </g>
    </g>
</svg>