<?xml version="1.0" encoding="UTF-8" standalone="no"?>
<svg width="50px" height="51px" viewBox="0 0 50 51" version="1.1" xmlns="http://www.w3.org/2000/svg" xmlns:xlink="http://www.w3.org/1999/xlink">
    <!-- Generator: Sketch 39.1 (31720) - http://www.bohemiancoding.com/sketch -->
    <title>Group 32</title>
    <desc>Created with Sketch.</desc>
    <defs>
        <polygon id="path-1" points="10.9766772 0.0509040542 0.00340130935 0.0509040542 0.00340130935 11.1739244 21.9499531 11.1739244 21.9499531 0.0509040542 10.9766772 0.0509040542"></polygon>
    </defs>
    <g id="Page-1" stroke="none" stroke-width="1" fill="none" fill-rule="evenodd">
        <g id="03-Leaplines-productdetail-v3-@2x-Copy" transform="translate(-997.000000, -4257.000000)">
            <g id="Group-32" transform="translate(997.000000, 4257.000000)">
                <path d="M49.8292637,25.2381286 C49.8292637,38.9496388 38.7154856,50.0611657 25.0034666,50.0611657 C11.2914476,50.0611657 0.177669536,38.9496388 0.177669536,25.2381286 C0.177669536,11.5266184 11.2914476,0.413252729 25.0034666,0.413252729 C38.7154856,0.413252729 49.8292637,11.5266184 49.8292637,25.2381286" id="Fill-53" fill="#D0021B"></path>
                <path d="M45.3461132,25.2382199 C45.3461132,36.474874 36.2375969,45.5790096 25.0045686,45.5790096 C13.7654761,45.5790096 4.65898121,36.474874 4.65898121,25.2382199 C4.65898121,14.0015658 13.7654761,4.89540878 25.0045686,4.89540878 C36.2375969,4.89540878 45.3461132,14.0015658 45.3461132,25.2382199" id="Fill-54" fill="#FFFFFF"></path>
                <g id="graduate-cap" transform="translate(13.467153, 16.925711)">
                    <g id="Group-3" transform="translate(0.000000, 0.057003)">
                        <mask id="mask-2" fill="white">
                            <use xlink:href="#path-1"></use>
                        </mask>
                        <g id="Clip-2"></g>
                        <polygon id="Fill-1" fill="#000000" mask="url(#mask-2)" points="21.9499531 5.85544833 21.9499531 5.36938016 10.9703564 0.0509040542 0 5.36470588 0 5.86012261 10.9703564 11.1739244"></polygon>
                    </g>
                    <path d="M3.80079314,8.72722363 L3.80079314,11.9058484 L10.4145258,15.1093836 L11.5259036,15.1093836 L18.121496,11.9147409 C18.1279018,11.900718 18.1339108,11.8866952 18.1396363,11.8726724 L18.1396363,8.72722363 L10.9703564,12.199986 L3.80079314,8.72722363 Z" id="Fill-4" fill="#000000"></path>
                    <polygon id="Fill-5" fill="#000000" points="20.7936213 13.5896724 20.7936213 7.40611237 19.9253237 7.84657779 19.9253237 13.5896724 19.3595726 15.3229184 20.2147751 16.4738744 20.5041699 16.4738744 21.3593724 15.3229184"></polygon>
                </g>
            </g>
        </g>
    </g>
</svg>