<?xml version="1.0" encoding="UTF-8" standalone="no"?>
<svg width="50px" height="51px" viewBox="0 0 50 51" version="1.1" xmlns="http://www.w3.org/2000/svg" xmlns:xlink="http://www.w3.org/1999/xlink">
    <!-- Generator: Sketch 39.1 (31720) - http://www.bohemiancoding.com/sketch -->
    <title>Group 23</title>
    <desc>Created with Sketch.</desc>
    <defs></defs>
    <g id="Page-1" stroke="none" stroke-width="1" fill="none" fill-rule="evenodd">
        <g id="03-Leaplines-productdetail-v3-@2x-Copy" transform="translate(-743.000000, -4257.000000)">
            <g id="Group-23" transform="translate(743.000000, 4257.000000)">
                <path d="M49.6639286,25.7878612 C49.6639286,39.4993714 38.5483117,50.6145758 24.8399703,50.6145758 C11.1261125,50.6145758 0.0123344351,39.4993714 0.0123344351,25.7878612 C0.0123344351,12.076351 11.1261125,0.96114659 24.8399703,0.96114659 C38.5483117,0.96114659 49.6639286,12.076351 49.6639286,25.7878612" id="Fill-55" fill="#DF2374"></path>
                <path d="M44.9959586,25.7877792 C44.9959586,36.9227379 35.9715007,45.9448583 24.8401343,45.9448583 C13.7047623,45.9448583 4.68030444,36.9227379 4.68030444,25.7877792 C4.68030444,14.6548232 13.7047623,5.63270283 24.8401343,5.63270283 C35.9715007,5.63270283 44.9959586,14.6548232 44.9959586,25.7877792" id="Fill-56" fill="#FFFFFF"></path>
                <rect id="Rectangle-20" fill="#000000" x="18.080292" y="22.2436305" width="12.0973236" height="1.64739884"></rect>
                <rect id="Rectangle-20" fill="#000000" x="18.080292" y="25.5384282" width="12.0973236" height="1.64739884"></rect>
                <path d="M32.3813566,18.1384816 L32.3813566,18.1098422 L15.782586,18.1098422 L15.782586,18.1384816 C15.2457477,18.1772588 14.8446364,18.6225634 14.7810219,19.1641774 L14.7810219,30.5515051 C14.7810219,30.770229 14.8361383,30.9544842 14.9271896,31.1207448 C15.1367289,31.5057292 15.4458177,31.7008826 15.8736373,31.7008826 L21.8650546,31.7008826 L21.8650546,33.2780769 L20.7267922,33.2780769 C20.444169,33.2780769 20.2261315,33.507699 20.2261315,33.8006825 C20.2261315,34.0946799 20.444169,34.3245554 20.7267922,34.3245554 L27.4371504,34.3245554 C27.7188024,34.3245554 27.946552,34.0946799 27.946552,33.8006825 C27.946552,33.507699 27.7188024,33.2780769 27.4371504,33.2780769 L26.2991308,33.2780769 L26.2991308,31.7008826 L32.2893341,31.7008826 C32.7181249,31.7008826 33.0301273,31.5057292 33.2369959,31.1207448 C33.330718,30.946374 33.3914188,30.7593308 33.3914188,30.5515051 L33.3914188,19.1641774 C33.3280471,18.6225634 32.9002275,18.1772588 32.3813566,18.1384816 L32.3813566,18.1384816 Z M31.2815999,20.3574856 L31.2815999,29.4532392 C31.2815999,29.5196421 31.2541631,29.5482815 31.1895774,29.5482815 L16.973394,29.5482815 C16.9097795,29.5482815 16.8823427,29.5196421 16.8823427,29.4532392 L16.8823427,20.2624433 L31.2815999,20.2624433 L31.2815999,20.3574856 Z" id="computer-screen" fill="#000000"></path>
            </g>
        </g>
    </g>
</svg>