<?xml version="1.0" encoding="UTF-8" standalone="no"?>
<svg width="51px" height="50px" viewBox="0 0 51 50" version="1.1" xmlns="http://www.w3.org/2000/svg" xmlns:xlink="http://www.w3.org/1999/xlink">
    <!-- Generator: Sketch 39.1 (31720) - http://www.bohemiancoding.com/sketch -->
    <title>Group 28</title>
    <desc>Created with Sketch.</desc>
    <defs></defs>
    <g id="Page-1" stroke="none" stroke-width="1" fill="none" fill-rule="evenodd">
        <g id="03-Leaplines-productdetail-v3-@2x-Copy" transform="translate(-232.000000, -4399.000000)">
            <g id="Group-28" transform="translate(232.000000, 4399.000000)">
                <path d="M50.5995165,25.0161685 C50.5995165,38.7258399 39.4838997,49.8410443 25.7718806,49.8410443 C12.0617004,49.8410443 0.946083563,38.7258399 0.946083563,25.0161685 C0.946083563,11.3028196 12.0617004,0.189453909 25.7718806,0.189453909 C39.4838997,0.189453909 50.5995165,11.3028196 50.5995165,25.0161685" id="Fill-47" fill="#F6C706"></path>
                <path d="M45.9032909,25.0163299 C45.9032909,36.1332484 36.8902118,45.1439929 25.7728808,45.1439929 C14.6535495,45.1439929 5.6404704,36.1332484 5.6404704,25.0163299 C5.6404704,13.8974113 14.6535495,4.88466663 25.7728808,4.88466663 C36.8902118,4.88466663 45.9032909,13.8974113 45.9032909,25.0163299" id="Fill-48" fill="#FFFFFF"></path>
                <polygon id="Page-1" fill="#221F20" points="24.2893394 15.8112001 20.0340633 26.7714869 23.8387347 26.7714869 21.6033433 34.5955117 32.5687119 23.6371814 27.1673324 23.6371814 31.0092276 15.8112001"></polygon>
            </g>
        </g>
    </g>
</svg>