<?xml version="1.0" encoding="UTF-8" standalone="no"?>
<svg width="50px" height="51px" viewBox="0 0 50 51" version="1.1" xmlns="http://www.w3.org/2000/svg" xmlns:xlink="http://www.w3.org/1999/xlink">
    <!-- Generator: Sketch 39.1 (31720) - http://www.bohemiancoding.com/sketch -->
    <title>Group 25</title>
    <desc>Created with Sketch.</desc>
    <defs>
        <polygon id="path-1" points="9.89487803 0.0210220221 0.00159214105 0.0210220221 0.00159214105 14.2482886 19.7881639 14.2482886 19.7881639 0.0210220221 9.89487803 0.0210220221"></polygon>
    </defs>
    <g id="Page-1" stroke="none" stroke-width="1" fill="none" fill-rule="evenodd">
        <g id="03-Leaplines-productdetail-v3-@2x-Copy" transform="translate(-492.000000, -4256.000000)">
            <g id="Group-25" transform="translate(492.000000, 4256.000000)">
                <path d="M49.7592742,25.3113781 C49.7592742,39.0228883 38.6454961,50.1399314 24.9353159,50.1399314 C11.2196192,50.1399314 0.105841177,39.0228883 0.105841177,25.3113781 C0.105841177,11.5998679 11.2196192,0.486502274 24.9353159,0.486502274 C38.6454961,0.486502274 49.7592742,11.5998679 49.7592742,25.3113781" id="Fill-57" fill="#713079"></path>
                <path d="M45.0551084,25.3111376 C45.0551084,36.4241474 36.0488183,45.4341015 24.9353961,45.4341015 C13.8199747,45.4341015 4.81368454,36.4241474 4.81368454,25.3111376 C4.81368454,14.2001269 13.8199747,5.19417094 24.9353961,5.19417094 C36.0488183,5.19417094 45.0551084,14.2001269 45.0551084,25.3111376" id="Fill-58" fill="#FFFFFF"></path>
                <g id="eye-close-up" transform="translate(14.776156, 17.908370)">
                    <g id="Group-3">
                        <mask id="mask-2" fill="white">
                            <use xlink:href="#path-1"></use>
                        </mask>
                        <g id="Clip-2"></g>
                        <path d="M9.89406869,0.0210220221 C5.52947934,0.0210220221 1.76783382,2.85201686 0.0398035263,6.93723808 C-0.0132678421,7.06109283 -0.0132678421,7.20582361 0.0398035263,7.33195574 C1.76783382,11.4172938 5.52947934,14.2482886 9.89406869,14.2482886 C14.2586846,14.2482886 18.0204362,11.4172938 19.7483604,7.33195574 C19.8014318,7.20821779 19.8014318,7.06337021 19.7483604,6.93723808 C18.0204362,2.85201686 14.2586846,0.0210220221 9.89406869,0.0210220221 L9.89406869,0.0210220221 Z M9.89406869,12.0433413 C7.42946087,12.0433413 5.43400395,9.84531366 5.43400395,7.1358086 C5.43400395,4.42399695 7.43155719,2.22839273 9.89406869,2.22839273 C12.3586765,2.22839273 14.3542396,4.42627434 14.3542396,7.1358086 C14.3542396,9.84531366 12.3566067,12.0433413 9.89406869,12.0433413 L9.89406869,12.0433413 Z" id="Fill-1" fill="#000000" mask="url(#mask-2)"></path>
                    </g>
                    <path d="M12.7493614,7.13353121 C12.7493614,8.86857796 11.4709783,10.275068 9.89406869,10.275068 C8.31718565,10.275068 7.03890867,8.86857796 7.03890867,7.13353121 C7.03890867,5.39845526 8.31718565,3.99184841 9.89406869,3.99184841 C11.4709783,3.99184841 12.7493614,5.39845526 12.7493614,7.13353121 L12.7493614,7.13353121 Z" id="Fill-4" fill="#000000"></path>
                </g>
            </g>
        </g>
    </g>
</svg>