<?xml version="1.0" encoding="UTF-8" standalone="no"?>
<svg width="50px" height="51px" viewBox="0 0 50 51" version="1.1" xmlns="http://www.w3.org/2000/svg" xmlns:xlink="http://www.w3.org/1999/xlink">
    <!-- Generator: Sketch 39.1 (31720) - http://www.bohemiancoding.com/sketch -->
    <title>Group 31</title>
    <desc>Created with Sketch.</desc>
    <defs>
        <polygon id="path-1" points="0.0164963504 17.5722543 21.9951338 17.5722543 21.9951338 0.010982659 0.0164963504 0.010982659"></polygon>
    </defs>
    <g id="Page-1" stroke="none" stroke-width="1" fill="none" fill-rule="evenodd">
        <g id="03-Leaplines-productdetail-v3-@2x-Copy" transform="translate(-743.000000, -4399.000000)">
            <g id="Group-31" transform="translate(743.000000, 4399.000000)">
                <path d="M49.7271993,25.4031551 C49.7271993,39.1165041 38.6115824,50.2317085 24.9014022,50.2317085 C11.191222,50.2317085 0.0756050887,39.1165041 0.0756050887,25.4031551 C0.0756050887,11.6934837 11.191222,0.581956798 24.9014022,0.581956798 C38.6115824,0.581956798 49.7271993,11.6934837 49.7271993,25.4031551" id="Fill-51" fill="#FF7200"></path>
                <path d="M45.6216335,25.402825 C45.6216335,36.8500339 36.3441087,46.1272144 24.9026517,46.1272144 C13.4570769,46.1272144 4.17749326,36.8500339 4.17749326,25.402825 C4.17749326,13.9597338 13.4570769,4.68461212 24.9026517,4.68461212 C36.3441087,4.68461212 45.6216335,13.9597338 45.6216335,25.402825" id="Fill-52" fill="#FFFFFF"></path>
                <g id="photo-camera" transform="translate(13.744526, 15.729180)">
                    <mask id="mask-2" fill="white">
                        <use xlink:href="#path-1"></use>
                    </mask>
                    <g id="Clip-2"></g>
                    <path d="M10.9975669,6.58959538 C9.17499513,6.58959538 7.69829684,8.06539017 7.69829684,9.88439306 C7.69829684,11.7044942 9.17499513,13.1791908 10.9975669,13.1791908 C12.8190389,13.1791908 14.296837,11.7044942 14.296837,9.88439306 C14.296837,8.06539017 12.8190389,6.58959538 10.9975669,6.58959538 L10.9975669,6.58959538 Z M19.7956204,3.29479769 L17.1556545,3.29479769 C16.7927348,3.29479769 16.4017713,3.01391618 16.2879465,2.66960983 L15.6049976,0.625187861 C15.490073,0.280881503 15.1002092,0 14.7372895,0 L7.25784428,0 C6.89492457,0 6.50396107,0.280881503 6.39013625,0.625187861 L5.70718735,2.66960983 C5.59226277,3.01391618 5.20239903,3.29479769 4.83947932,3.29479769 L2.19951338,3.29479769 C0.9903309,3.29479769 0,4.28378613 0,5.49132948 L0,15.3757225 C0,16.5832659 0.9903309,17.5722543 2.19951338,17.5722543 L19.7956204,17.5722543 C21.0048029,17.5722543 21.9951338,16.5832659 21.9951338,15.3757225 L21.9951338,5.49132948 C21.9951338,4.28378613 21.0048029,3.29479769 19.7956204,3.29479769 L19.7956204,3.29479769 Z M10.9975669,15.3757225 C7.96031387,15.3757225 5.49878345,12.9175289 5.49878345,9.88439306 C5.49878345,6.85235549 7.96031387,4.39306358 10.9975669,4.39306358 C14.0337202,4.39306358 16.4963504,6.85235549 16.4963504,9.88439306 C16.4963504,12.9175289 14.0337202,15.3757225 10.9975669,15.3757225 L10.9975669,15.3757225 Z M19.0255158,7.02725434 C18.6012847,7.02725434 18.2554112,6.68294798 18.2554112,6.25819364 C18.2554112,5.83453757 18.6012847,5.49023121 19.0255158,5.49023121 C19.4508467,5.49023121 19.7956204,5.83453757 19.7956204,6.25819364 C19.7956204,6.68294798 19.4508467,7.02725434 19.0255158,7.02725434 L19.0255158,7.02725434 Z" id="Fill-1" fill="#000000" mask="url(#mask-2)"></path>
                </g>
            </g>
        </g>
    </g>
</svg>