<?xml version="1.0" encoding="UTF-8" standalone="no"?>
<svg width="51px" height="51px" viewBox="0 0 51 51" version="1.1" xmlns="http://www.w3.org/2000/svg" xmlns:xlink="http://www.w3.org/1999/xlink">
    <!-- Generator: Sketch 39.1 (31720) - http://www.bohemiancoding.com/sketch -->
    <title>Group 29</title>
    <desc>Created with Sketch.</desc>
    <defs>
        <polygon id="path-1" points="0.00301456149 0.0206885838 0.00301456149 10.2242377 14.3780515 10.2242377 14.3780515 0.0206885838 0.00301456149 0.0206885838"></polygon>
    </defs>
    <g id="Page-1" stroke="none" stroke-width="1" fill="none" fill-rule="evenodd">
        <g id="03-Leaplines-productdetail-v3-@2x-Copy" transform="translate(-492.000000, -4399.000000)">
            <g id="Group-29" transform="translate(492.000000, 4399.000000)">
                <path d="M50.070001,25.7878612 C50.070001,39.4993714 38.9543841,50.6145758 25.2460427,50.6145758 C11.5303461,50.6145758 0.416568036,39.4993714 0.416568036,25.7878612 C0.416568036,12.076351 11.5303461,0.96114659 25.2460427,0.96114659 C38.9543841,0.96114659 50.070001,12.076351 50.070001,25.7878612" id="Fill-49" fill="#F9991C"></path>
                <path d="M45.9522403,25.7877519 C45.9522403,37.2260719 36.677805,46.4939912 25.2472899,46.4939912 C13.8106028,46.4939912 4.53616758,37.2260719 4.53616758,25.7877519 C4.53616758,14.3514892 13.8106028,5.08356988 25.2472899,5.08356988 C36.677805,5.08356988 45.9522403,14.3514892 45.9522403,25.7877519" id="Fill-50" fill="#FFFFFF"></path>
                <g id="video-camera-(1)" transform="translate(14.929440, 20.047099)">
                    <g id="Group-3" transform="translate(0.000000, 0.906069)">
                        <mask id="mask-2" fill="white">
                            <use xlink:href="#path-1"></use>
                        </mask>
                        <g id="Clip-2"></g>
                        <path d="M14.3780515,9.5438803 C14.3780515,9.9196474 13.9961044,10.2242377 13.5250973,10.2242377 L2.4366038,10.2242377 C1.96541793,10.2242377 1.58364964,9.9196474 1.58364964,9.5438803 L1.58364964,0.700844653 C1.58364964,0.325077553 1.96541793,0.0206885838 2.4366038,0.0206885838 L13.5250973,0.0206885838 C13.9961044,0.0206885838 14.3780515,0.325278902 14.3780515,0.700844653 L14.3780515,9.5438803 Z" id="Fill-1" fill="#000000" mask="url(#mask-2)"></path>
                    </g>
                    <path d="M19.7698962,11.4303671 C19.7698962,11.4303671 19.6900103,12.030638 19.1307087,12.030638 C18.5715577,12.030638 14.9770449,8.67123483 14.9770449,8.22922399 L14.9770449,3.82763969 C14.9770449,3.38562885 18.4918728,0.0262256744 19.1307087,0.0262256744 C19.7698962,0.0262256744 19.7698962,0.626546965 19.7698962,0.626546965 L19.7698962,11.4303671 Z" id="Fill-6" fill="#000000"></path>
                </g>
            </g>
        </g>
    </g>
</svg>