<?xml version="1.0" encoding="UTF-8" standalone="no"?>
<svg width="51px" height="59px" viewBox="0 0 51 59" version="1.1" xmlns="http://www.w3.org/2000/svg" xmlns:xlink="http://www.w3.org/1999/xlink">
    <!-- Generator: Sketch 39.1 (31720) - http://www.bohemiancoding.com/sketch -->
    <title>lightbulb</title>
    <desc>Created with Sketch.</desc>
    <defs>
        <polygon id="path-1" points="0.0166304348 0.0924244898 0.0166304348 19.8213061 12.4371399 19.8213061 12.4371399 0.0924244898 0.0166304348 0.0924244898"></polygon>
    </defs>
    <g id="Page-1" stroke="none" stroke-width="1" fill="none" fill-rule="evenodd">
        <g id="01-Leaplines-home-v3-@2x" transform="translate(-209.000000, -4468.000000)">
            <g id="Group-17" transform="translate(61.000000, 4259.000000)">
                <g id="lightbulb" transform="translate(148.000000, 209.000000)">
                    <path d="M34.7670326,11.3884735 C29.8774076,8.15555918 23.8086848,7.6981551 18.1147011,10.132 C14.5452554,11.6585306 11.7202989,14.4198857 10.160087,17.9078694 C8.53390761,21.5418449 8.06936413,25.3820408 8.81745652,29.0151837 C9.51704348,32.4140735 11.2222174,35.4801796 13.7483804,37.8837714 C16.0999239,40.1205551 17.4478207,43.3209959 17.4478207,46.6657633 L17.4478207,50.104898 C17.4478207,51.0546776 17.8721739,51.9392327 18.6138913,52.5323592 L21.144212,54.5565388 C21.2492609,54.6409143 21.309962,54.7669224 21.309962,54.9023673 C21.309962,56.614302 22.7010978,58.0084408 24.4118152,58.0084408 L26.4495978,58.0084408 C28.1603152,58.0084408 29.5514511,56.614302 29.5514511,54.9023673 C29.5514511,54.7669224 29.6121522,54.6409143 29.7172011,54.5565388 L32.2475217,52.5323592 C32.9881304,51.9392327 33.4135924,51.0546776 33.4135924,50.104898 L33.4135924,46.6646531 C33.4135924,43.3448653 34.7853261,40.1216653 37.1781685,37.8210449 C40.5411196,34.5878531 42.3923641,30.238351 42.3923641,25.5718857 C42.3923641,19.8485061 39.5416304,14.5467265 34.7670326,11.3884735 L34.7670326,11.3884735 Z M26.8903043,54.9023673 C26.8903043,55.1452245 26.692125,55.3436735 26.4495978,55.3436735 L24.4118152,55.3436735 C24.169288,55.3436735 23.9711087,55.1452245 23.9711087,54.9023673 C23.9711087,53.9525878 23.5456467,53.0677551 22.805038,52.4749061 L20.2747174,50.4507265 C20.1699457,50.3660735 20.1092446,50.2403429 20.1092446,50.104898 L20.1092446,47.9558204 L30.7521685,47.9558204 L30.7521685,50.104898 C30.7521685,50.2403429 30.6914674,50.3660735 30.5866957,50.4507265 L28.056375,52.4749061 C27.3146576,53.0677551 26.8903043,53.9525878 26.8903043,54.9023673 L26.8903043,54.9023673 Z M30.8192446,45.2921633 L20.043,45.2921633 C19.7173207,41.7261878 18.1332717,38.3794776 15.5813315,35.9517388 C11.0046359,31.5977959 9.8568587,25.1014367 12.5875761,18.9975347 C13.8739402,16.1221061 16.2082989,13.8442449 19.1596467,12.5822204 C21.2340163,11.6954449 23.362712,11.2563592 25.4415163,11.2563592 C28.2315489,11.2563592 30.9339946,12.0476571 33.2999511,13.6122122 C37.3275652,16.2750367 39.7323261,20.7461061 39.7323261,25.5718857 C39.7323261,29.5053388 38.1710054,33.1731755 35.3352391,35.8998367 C32.7541957,38.3803102 31.1518533,41.7447837 30.8192446,45.2921633 L30.8192446,45.2921633 Z" id="Fill-1" fill="#FFFFFF"></path>
                    <path d="M25.4307065,6.61931429 C26.164663,6.61931429 26.7614185,6.02285714 26.7614185,5.28790204 L26.7614185,1.43910204 C26.7614185,0.702759184 26.164663,0.106579592 25.4307065,0.106579592 C24.6956413,0.106579592 24.0999946,0.702759184 24.0999946,1.43910204 L24.0999946,5.28790204 C24.0999946,6.02285714 24.6956413,6.61931429 25.4307065,6.61931429 L25.4307065,6.61931429 Z" id="Fill-2" fill="#FFFFFF"></path>
                    <path d="M41.5317391,7.56465306 L38.8140489,10.287151 C38.2943478,10.8075592 38.2943478,11.6510367 38.8140489,12.1703347 C39.074038,12.4304 39.4138533,12.5605714 39.7550543,12.5605714 C40.0948696,12.5605714 40.4360707,12.4304 40.6957826,12.1703347 L43.4134728,9.44894694 C43.9320652,8.92853878 43.9320652,8.08506122 43.4134728,7.56465306 C42.8937717,7.0453551 42.0503315,7.0453551 41.5317391,7.56465306 L41.5317391,7.56465306 Z" id="Fill-3" fill="#FFFFFF"></path>
                    <path d="M49.5307011,24.2393633 L45.6871304,24.2393633 C44.9531739,24.2393633 44.3575272,24.8369306 44.3575272,25.5718857 C44.3575272,26.307951 44.9531739,26.9044082 45.6871304,26.9044082 L49.5307011,26.9044082 C50.2660435,26.9044082 50.861413,26.307951 50.861413,25.5718857 C50.861413,24.8369306 50.2660435,24.2393633 49.5307011,24.2393633 L49.5307011,24.2393633 Z" id="Fill-4" fill="#FFFFFF"></path>
                    <path d="M40.6946739,38.9734367 C40.1749728,38.4530286 39.3326413,38.4530286 38.8140489,38.9734367 C38.2943478,39.4927347 38.2943478,40.3362122 38.8140489,40.8566204 L41.5317391,43.5780082 C41.7903424,43.838351 42.1315435,43.9682449 42.4724674,43.9682449 C42.8125598,43.9682449 43.1534837,43.838351 43.4134728,43.5780082 C43.9320652,43.0587102 43.9320652,42.2141224 43.4134728,41.6948245 L40.6946739,38.9734367 Z" id="Fill-5" fill="#FFFFFF"></path>
                    <g id="Group-9" transform="translate(0.000000, 24.146939)">
                        <mask id="mask-2" fill="white">
                            <use xlink:href="#path-1"></use>
                        </mask>
                        <g id="Clip-7"></g>
                        <path d="M10.1656304,14.826498 L7.44794022,17.5478857 C6.92934783,18.0671837 6.92934783,18.9117714 7.44794022,19.4310694 C7.70792935,19.6914122 8.04885326,19.8213061 8.38894565,19.8213061 C8.72986957,19.8213061 9.06996196,19.6914122 9.32967391,19.4310694 L12.0473641,16.7096816 C12.5670652,16.1892735 12.5670652,15.3457959 12.0473641,14.826498 C11.5287717,14.3060898 10.6853315,14.3060898 10.1656304,14.826498 L10.1656304,14.826498 Z" id="Fill-6" fill="#FFFFFF" mask="url(#mask-2)"></path>
                        <path d="M5.17428261,0.0924244898 L1.33071196,0.0924244898 C0.595369565,0.0924244898 0,0.689991837 0,1.42494694 C0,2.16101224 0.595369565,2.75746939 1.33071196,2.75746939 L5.17428261,2.75746939 C5.90823913,2.75746939 6.50388587,2.16101224 6.50388587,1.42494694 C6.50388587,0.689991837 5.90823913,0.0924244898 5.17428261,0.0924244898 L5.17428261,0.0924244898 Z" id="Fill-8" fill="#FFFFFF" mask="url(#mask-2)"></path>
                    </g>
                    <path d="M10.1656304,12.1703347 C10.4253424,12.4304 10.7665435,12.5605714 11.1063587,12.5605714 C11.4475598,12.5605714 11.787375,12.4304 12.0473641,12.1703347 C12.5670652,11.6510367 12.5670652,10.8075592 12.0473641,10.287151 L9.32967391,7.56465306 C8.80997283,7.0453551 7.9676413,7.0453551 7.44794022,7.56465306 C6.92934783,8.08506122 6.92934783,8.92853878 7.44794022,9.44894694 L10.1656304,12.1703347 Z" id="Fill-10" fill="#FFFFFF"></path>
                    <path d="M25.2954457,16.6283592 C24.0708913,16.703298 23.1384783,17.7582694 23.2133152,18.9844898 L24.0999946,33.5167837 C24.1401848,34.1815184 24.669587,34.7255184 25.3494946,34.7679837 C26.0834511,34.8123918 26.715962,34.252849 26.7614185,33.5167837 L27.6480978,18.9844898 C27.6525326,18.8987265 27.6536413,18.8001959 27.6480978,18.7133224 C27.5732609,17.487102 26.52,16.553698 25.2954457,16.6283592 L25.2954457,16.6283592 Z" id="Fill-11" fill="#FFFFFF"></path>
                    <path d="M26.9823261,39.0048 C26.9823261,39.8635429 26.2882826,40.5596408 25.4307065,40.5596408 C24.5731304,40.5596408 23.8779783,39.8635429 23.8779783,39.0048 C23.8779783,38.1474449 24.5731304,37.4513469 25.4307065,37.4513469 C26.2882826,37.4513469 26.9823261,38.1474449 26.9823261,39.0048 L26.9823261,39.0048 Z" id="Fill-12" fill="#FFFFFF"></path>
                </g>
            </g>
        </g>
    </g>
</svg>