<?xml version="1.0" encoding="UTF-8" standalone="no"?>
<svg width="58px" height="58px" viewBox="0 0 58 58" version="1.1" xmlns="http://www.w3.org/2000/svg" xmlns:xlink="http://www.w3.org/1999/xlink">
    <!-- Generator: Sketch 39.1 (31720) - http://www.bohemiancoding.com/sketch -->
    <title>Group 19</title>
    <desc>Created with Sketch.</desc>
    <defs></defs>
    <g id="Page-1" stroke="none" stroke-width="1" fill="none" fill-rule="evenodd" stroke-linecap="round" stroke-linejoin="round">
        <g id="01-Leaplines-home-v3-@2x" transform="translate(-715.000000, -4460.000000)" stroke="#FFFFFF" stroke-width="2">
            <g id="Group-17" transform="translate(61.000000, 4259.000000)">
                <g id="Group-19" transform="translate(655.000000, 201.000000)">
                    <g id="Group" transform="translate(0.141823, 0.772694)">
                        <path d="M35.335903,7.6526451 C35.335903,11.6390342 32.1005727,14.8743646 28.1141836,14.8743646 C24.1253872,14.8743646 20.8924641,11.6390342 20.8924641,7.6526451 C20.8924641,3.66384872 24.1253872,0.430925647 28.1141836,0.430925647 C32.1005727,0.430925647 35.335903,3.66384872 35.335903,7.6526451 L35.335903,7.6526451 Z" id="Stroke-516"></path>
                        <path d="M38.9467628,19.6888442 L17.2816044,19.6888442 C17.2816044,24.7031247 19.6888442,31.7250433 24.5033238,33.4101112 L24.5033238,43.7612424 L31.7250433,43.7612424 L31.7250433,33.4101112 C36.5395229,31.7250433 38.9467628,24.7031247 38.9467628,19.6888442 L38.9467628,19.6888442 Z" id="Stroke-517"></path>
                        <path d="M37.790084,42.1156532 C42.1303374,42.8787483 44.9636587,44.1401419 44.9636587,45.5676351 C44.9636587,47.8930288 37.4193691,49.7803048 28.1129799,49.7803048 C18.808998,49.7803048 11.2623012,47.8930288 11.2623012,45.5676351 C11.2623012,44.1377347 14.1124732,42.8739338 18.4695772,42.113246" id="Stroke-518"></path>
                        <path d="M37.7501238,37.1365184 C48.2866125,38.4990161 55.7972008,42.0280297 55.7972008,46.1684822 C55.7972008,51.4836677 43.4023229,55.7974415 28.1139428,55.7974415 C12.8255628,55.7974415 0.430684923,51.4836677 0.430684923,46.1684822 C0.430684923,42.0280297 7.94127316,38.4990161 18.4825763,37.1365184" id="Stroke-519"></path>
                    </g>
                </g>
            </g>
        </g>
    </g>
</svg>