<?xml version="1.0" encoding="UTF-8" standalone="no"?>
<svg width="63px" height="63px" viewBox="0 0 63 63" version="1.1" xmlns="http://www.w3.org/2000/svg" xmlns:xlink="http://www.w3.org/1999/xlink">
    <!-- Generator: Sketch 39.1 (31720) - http://www.bohemiancoding.com/sketch -->
    <title>Group 16</title>
    <desc>Created with Sketch.</desc>
    <defs></defs>
    <g id="Page-1" stroke="none" stroke-width="1" fill="none" fill-rule="evenodd" stroke-linejoin="round">
        <g id="01-Leaplines-home-v3-@2x" transform="translate(-470.000000, -4457.000000)" stroke="#FFFFFF" stroke-width="2">
            <g id="Group-17" transform="translate(61.000000, 4259.000000)">
                <g id="Group-16" transform="translate(410.000000, 199.000000)">
                    <g id="Group" transform="translate(0.483356, 0.575362)">
                        <path d="M23.530219,37.6991481 C23.530219,38.4101708 22.9557334,38.9872326 22.2421346,38.9872326 C21.5336881,38.9872326 20.9540501,38.4101708 20.9540501,37.6991481 C20.9540501,36.9907017 21.5336881,36.4110637 22.2421346,36.4110637 C22.9557334,36.4110637 23.530219,36.9907017 23.530219,37.6991481 L23.530219,37.6991481 Z" id="Stroke-62" stroke-linecap="round"></path>
                        <path d="M28.6825569,37.6991481 C28.6825569,41.2542613 25.7998238,44.1395705 22.2421346,44.1395705 C18.6895976,44.1395705 15.8017122,41.2542613 15.8017122,37.6991481 C15.8017122,34.1414588 18.6895976,31.2587258 22.2421346,31.2587258 C25.7998238,31.2587258 28.6825569,34.1414588 28.6825569,37.6991481 L28.6825569,37.6991481 Z" id="Stroke-63" stroke-linecap="round"></path>
                        <path d="M36.4110637,37.6991481 C36.4110637,45.5229732 30.0659596,51.8680772 22.2421346,51.8680772 C14.4183095,51.8680772 8.07320545,45.5229732 8.07320545,37.6991481 C8.07320545,29.8727469 14.4183095,23.530219 22.2421346,23.530219 C30.0659596,23.530219 36.4110637,29.8727469 36.4110637,37.6991481 L36.4110637,37.6991481 Z" id="Stroke-64" stroke-linecap="round"></path>
                        <path d="M44.1395705,37.6991481 C44.1395705,49.7916851 34.3372477,59.596584 22.2421346,59.596584 C10.1521738,59.596584 0.34469866,49.7916851 0.34469866,37.6991481 C0.34469866,25.6066112 10.1521738,15.8017122 22.2421346,15.8017122 C34.3372477,15.8017122 44.1395705,25.6066112 44.1395705,37.6991481 L44.1395705,37.6991481 Z" id="Stroke-65" stroke-linecap="round"></path>
                        <path d="M22.2421346,37.6991481 L53.1561617,6.78512098" id="Stroke-66" stroke-linecap="round"></path>
                        <path d="M53.1561617,6.78512098 L59.596584,6.78512098 C59.596584,6.78512098 53.1561617,27.3944724 42.851486,17.0897967 C32.5468103,6.78512098 53.1561617,0.34469866 53.1561617,0.34469866 L53.1561617,6.78512098 L53.1561617,6.78512098 Z" id="Stroke-67" stroke-linecap="round"></path>
                        <path d="M44.6760563,13.2255433 L44.6760563,3.16560364" id="Stroke-68"></path>
                        <path d="M0.34469866,59.596584 L6.78512098,53.1561617" id="Stroke-69" stroke-linecap="round"></path>
                        <path d="M37.6991481,53.1561617 L44.1395705,59.596584" id="Stroke-70" stroke-linecap="round"></path>
                    </g>
                </g>
            </g>
        </g>
    </g>
</svg>