<?xml version="1.0" encoding="UTF-8" standalone="no"?>
<svg width="43px" height="49px" viewBox="0 0 43 49" version="1.1" xmlns="http://www.w3.org/2000/svg" xmlns:xlink="http://www.w3.org/1999/xlink">
    <!-- Generator: Sketch 39.1 (31720) - http://www.bohemiancoding.com/sketch -->
    <title>idea</title>
    <desc>Created with Sketch.</desc>
    <defs>
        <polygon id="path-1" points="0.0124038462 0.167451923 0.0124038462 48.995399 42.9483173 48.995399 42.9483173 0.167451923 0.0124038462 0.167451923"></polygon>
    </defs>
    <g id="Page-1" stroke="none" stroke-width="1" fill="none" fill-rule="evenodd">
        <g id="01-Leaplines-home-v3-@2x" transform="translate(-960.000000, -4460.000000)">
            <g id="Group-17" transform="translate(61.000000, 4259.000000)">
                <g id="idea" transform="translate(899.000000, 201.000000)">
                    <g id="Group-3">
                        <mask id="mask-2" fill="white">
                            <use xlink:href="#path-1"></use>
                        </mask>
                        <g id="Clip-2"></g>
                        <path d="M42.9483173,0.181923077 L38.3702644,3.60910577 L33.76575,14.3429808 L30.0640288,14.3429808 L28.6105048,11.1928173 L29.5600192,11.1928173 C31.2971779,11.1928173 32.7103894,9.79490385 32.7103894,8.05795192 L32.7103894,4.89228365 L34.2850577,4.89228365 L34.2850577,0.167451923 L29.5600192,0.167451923 L29.5600192,4.89228365 L31.1346875,4.89228365 L31.1346875,8.05795192 C31.1346875,8.92601442 30.4289087,9.61794231 29.5600192,9.61794231 L27.8828125,9.61794231 L25.8704952,5.26295192 L28.2818029,4.06143269 L20.3855144,0.679317308 L18.5290721,7.17603846 C18.4790433,3.31037981 15.3230913,0.181923077 11.4460625,0.181923077 C7.53761058,0.181923077 4.35829808,3.36123558 4.35829808,7.2696875 C4.35829808,9.63096635 5.55423558,11.8469135 7.50846154,13.1567596 L7.50846154,14.3429808 L5.60116346,14.3429808 L5.47836538,14.9890144 C5.0955,16.9746635 5.06014904,19.0146827 5.37251923,21.0495337 L0,30.6263365 L5.93296635,31.9820769 L5.93296635,41.9076346 L13.8089952,41.9076346 L13.8089952,48.995399 L32.7103894,48.995399 L32.7103894,38.0208894 C38.2226587,34.1205 41.3711683,27.8507692 41.3664135,21.1609615 L41.3678606,18.2878173 C41.3678606,17.2049615 41.2686298,16.0921298 41.0666538,14.99625 L40.9504712,14.3429808 L39.4039183,14.3429808 L42.9483173,5.85254808 L42.9483173,0.181923077 Z M31.1346875,3.33208654 L32.7103894,3.33208654 L32.7103894,1.75741827 L31.1346875,1.75741827 L31.1346875,3.33208654 Z M28.328524,14.3429808 L25.3414712,14.3429808 L23.9096538,11.1928173 L26.875,11.1928173 L28.328524,14.3429808 Z M21.4080048,2.83303846 L24.5387356,4.17430769 L23.7998798,4.53691346 L26.1481346,9.61794231 L23.1941587,9.61794231 L21.2746635,5.40518269 L20.5697115,5.76117308 L21.4080048,2.83303846 Z M23.6117548,14.3429808 L20.1093221,14.3429808 L20.1093221,12.7836106 C20.1093221,11.9147212 20.8159279,11.1936442 21.6841971,11.1936442 L22.1799375,11.1936442 L22.1799375,11.1928173 L23.6117548,14.3429808 Z M20.5188558,7.55228846 L21.4741587,9.65432692 C19.8356106,9.76410096 18.5338269,11.1175673 18.5338269,12.7827837 L18.5338269,14.3429808 L15.3836635,14.3429808 L15.3836635,13.1567596 C16.9599856,12.1003654 18.0291971,10.4523077 18.390149,8.61591827 L20.5188558,7.55228846 Z M5.93379327,7.27051442 C5.93379327,4.23095192 8.40732692,1.75741827 11.4460625,1.75741827 C14.485625,1.75741827 16.9591587,4.23095192 16.9591587,7.27051442 C16.9591587,9.22639423 15.9021442,11.0547212 14.2021971,12.0397933 L13.8089952,12.2667837 L13.8089952,14.3429808 L12.2335,14.3429808 L12.2335,9.48728846 C13.1484904,9.16106731 13.8089952,8.29445192 13.8089952,7.2696875 C13.8089952,5.96707692 12.7486731,4.90675481 11.4460625,4.90675481 C10.1434519,4.90675481 9.08333654,5.96707692 9.08333654,7.2696875 C9.08333654,8.29445192 9.74466827,9.16106731 10.6588317,9.48728846 L10.6588317,14.3429808 L9.08333654,14.3429808 L9.08333654,12.2667837 L8.69075481,12.0389663 C6.98998077,11.0538942 5.93379327,9.22639423 5.93379327,7.27051442 L5.93379327,7.27051442 Z M11.4460625,8.05795192 C11.0117212,8.05795192 10.6588317,7.70423558 10.6588317,7.27051442 C10.6588317,6.83534615 11.0117212,6.48225 11.4460625,6.48225 C11.8814375,6.48225 12.2335,6.83534615 12.2335,7.27051442 C12.2335,7.7050625 11.8814375,8.05795192 11.4460625,8.05795192 L11.4460625,8.05795192 Z M39.6245,15.918476 C39.7392356,16.7059135 39.7965,17.5045144 39.7965,18.2814087 L39.7981538,21.1595144 C39.8029087,27.4687308 36.6899567,33.3766827 31.4811683,36.9622212 L31.1346875,37.1989279 L31.1346875,47.4199038 L15.3836635,47.4199038 L15.3836635,40.3321394 L7.50846154,40.3321394 L7.50846154,30.7255673 L2.40407212,29.5610529 L7.014375,21.341024 L6.96992788,21.0600769 C6.67678365,19.3367692 6.66065865,17.4931442 6.9149375,15.918476 L39.6245,15.918476 Z M37.6977692,14.3429808 L35.4793413,14.3429808 L39.4047452,5.19018269 L41.1507933,6.06010577 L37.6977692,14.3429808 Z M41.3728221,4.41990385 L40.5014519,3.98452885 L41.3728221,3.33208654 L41.3728221,4.41990385 Z" id="Fill-1" fill="#FFFFFF" mask="url(#mask-2)"></path>
                    </g>
                </g>
            </g>
        </g>
    </g>
</svg>