<?xml version="1.0" encoding="UTF-8" standalone="no"?>
<svg width="50px" height="49px" viewBox="0 0 50 49" version="1.1" xmlns="http://www.w3.org/2000/svg" xmlns:xlink="http://www.w3.org/1999/xlink">
    <!-- Generator: Sketch 39.1 (31720) - http://www.bohemiancoding.com/sketch -->
    <title>wedding-planning</title>
    <desc>Created with Sketch.</desc>
    <defs>
        <polygon id="path-1" points="24.953959 0.113610591 0.0107179803 0.113610591 0.0107179803 48.2307327 49.8972 48.2307327 49.8972 0.113610591"></polygon>
    </defs>
    <g id="Page-1" stroke="none" stroke-width="1" fill="none" fill-rule="evenodd">
        <g id="01-Leaplines-home-v3-@2x" transform="translate(-1202.000000, -4464.000000)">
            <g id="Group-17" transform="translate(61.000000, 4259.000000)">
                <g id="wedding-planning" transform="translate(1141.000000, 205.000000)">
                    <g id="Group-3" transform="translate(0.000000, 0.178633)">
                        <mask id="mask-2" fill="white">
                            <use xlink:href="#path-1"></use>
                        </mask>
                        <g id="Clip-2"></g>
                        <path d="M48.825402,0.113610591 L11.9266112,0.113610591 C11.3340855,0.113610591 10.8548132,0.593776108 10.8548132,1.18540862 L10.8548132,22.4929321 L1.07179803,22.4929321 C0.480165517,22.4929321 0,22.9730976 0,23.5647301 L0,41.7315281 C0,45.3154421 2.91529064,48.2307327 6.49920462,48.2307327 L43.3979954,48.2307327 C46.9811948,48.2307327 49.8972,45.3154421 49.8972,41.7315281 L49.8972,1.18540862 C49.8972,0.593776108 49.4172131,0.113610591 48.825402,0.113610591 L48.825402,0.113610591 Z M2.14359606,41.7315281 L2.14359606,24.6365281 L10.8548132,24.6365281 L10.8548132,41.7315281 C10.8548132,44.1334275 8.90092537,46.0871366 6.49849009,46.0871366 C4.09748387,46.0871366 2.14359606,44.1334275 2.14359606,41.7315281 L2.14359606,41.7315281 Z M47.7536039,41.7315281 C47.7536039,44.1334275 45.7998948,46.0871366 43.3972808,46.0871366 L11.3187231,46.0871366 C12.3619398,44.9337033 12.9984092,43.4056766 12.9984092,41.7315281 L12.9984092,2.25720665 L47.7536039,2.25720665 L47.7536039,41.7315281 Z" id="Fill-1" fill="#FFFFFF" mask="url(#mask-2)"></path>
                    </g>
                    <path d="M28.8701304,12.6716895 L42.6075443,12.6716895 C43.1998914,12.6716895 43.6793424,12.1922385 43.6793424,11.5998914 C43.6793424,11.0080803 43.1998914,10.5280934 42.6075443,10.5280934 L28.8701304,10.5280934 C28.2784978,10.5280934 27.7983323,11.0080803 27.7983323,11.5998914 C27.7983323,12.1922385 28.2784978,12.6716895 28.8701304,12.6716895 L28.8701304,12.6716895 Z" id="Fill-4" fill="#FFFFFF"></path>
                    <path d="M28.8701304,24.4461054 L42.6075443,24.4461054 C43.1998914,24.4461054 43.6793424,23.9666544 43.6793424,23.3743073 C43.6793424,22.7824962 43.1998914,22.3025093 42.6075443,22.3025093 L28.8701304,22.3025093 C28.2784978,22.3025093 27.7983323,22.7824962 27.7983323,23.3743073 C27.7983323,23.9666544 28.2784978,24.4461054 28.8701304,24.4461054 L28.8701304,24.4461054 Z" id="Fill-5" fill="#FFFFFF"></path>
                    <path d="M28.8701304,36.2212358 L42.6075443,36.2212358 C43.1998914,36.2212358 43.6793424,35.7410703 43.6793424,35.1494377 C43.6793424,34.5576266 43.1998914,34.0776397 42.6075443,34.0776397 L28.8701304,34.0776397 C28.2784978,34.0776397 27.7983323,34.5576266 27.7983323,35.1494377 C27.7983323,35.7410703 28.2784978,36.2212358 28.8701304,36.2212358 L28.8701304,36.2212358 Z" id="Fill-6" fill="#FFFFFF"></path>
                    <path d="M18.9797568,13.8781768 C19.1828625,14.0923578 19.4647454,14.2138282 19.7591326,14.2138282 L19.7682429,14.2138282 C20.0662027,14.2116846 20.3502292,14.0846765 20.5511913,13.8647793 L26.4383993,7.41666373 C26.8374654,6.97990603 26.806026,6.30163651 26.3692683,5.90239175 C25.9325106,5.50332562 25.2542411,5.53405049 24.8551749,5.97152272 L19.7459137,11.567023 L18.1557227,9.88269236 C17.7487967,9.45200819 17.0705272,9.43325172 16.6400217,9.83928454 C16.2095161,10.2462105 16.1907597,10.92448 16.5967925,11.3549856 L18.9797568,13.8781768 Z" id="Fill-7" fill="#FFFFFF"></path>
                    <path d="M24.8551749,18.2573649 L19.7459137,23.8530438 L18.1550082,22.1692491 C17.7487967,21.7387435 17.0705272,21.7190939 16.6400217,22.1260199 C16.2095161,22.5320527 16.1907597,23.2103222 16.5967925,23.6408278 L18.9797568,26.164019 C19.1828625,26.3781999 19.4647454,26.4996704 19.7591326,26.4996704 L19.7682429,26.4996704 C20.0662027,26.4975268 20.3502292,26.3712333 20.5511913,26.1508001 L26.4383993,19.7032204 C26.8367509,19.2657482 26.806026,18.5881932 26.3692683,18.1891271 C25.9325106,17.7898823 25.2542411,17.8206072 24.8551749,18.2573649 L24.8551749,18.2573649 Z" id="Fill-8" fill="#FFFFFF"></path>
                    <path d="M24.8551749,30.5433857 L19.7459137,36.138886 L18.1550082,34.4550913 C17.7487967,34.0245857 17.0705272,34.0051147 16.6400217,34.4118621 C16.2095161,34.8178949 16.1907597,35.4961644 16.5967925,35.92667 L18.9797568,38.4498611 C19.1828625,38.6642208 19.4647454,38.7862271 19.7591326,38.7862271 L19.7682429,38.7862271 C20.0662027,38.7835476 20.3502292,38.6572541 20.5511913,38.4366423 L26.4383993,31.9890626 C26.8367509,31.5515904 26.806026,30.8740354 26.3692683,30.4749693 C25.9325106,30.0757245 25.2542411,30.1064494 24.8551749,30.5433857 L24.8551749,30.5433857 Z" id="Fill-9" fill="#FFFFFF"></path>
                </g>
            </g>
        </g>
    </g>
</svg>