<?xml version="1.0" encoding="UTF-8" standalone="no"?>
<svg width="187px" height="226px" viewBox="0 0 187 226" version="1.1" xmlns="http://www.w3.org/2000/svg" xmlns:xlink="http://www.w3.org/1999/xlink">
    <!-- Generator: Sketch 39.1 (31720) - http://www.bohemiancoding.com/sketch -->
    <title>Group 7</title>
    <desc>Created with Sketch.</desc>
    <defs></defs>
    <g id="Page-1" stroke="none" stroke-width="1" fill="none" fill-rule="evenodd" stroke-linejoin="round">
        <g id="Vacature-overzicht" transform="translate(-215.000000, -1152.000000)" stroke="#FFFFFF" stroke-width="5">
            <g id="Group-4" transform="translate(131.000000, 1113.000000)">
                <g id="Group-7" transform="translate(87.000000, 40.500000)">
                    <g id="Group" transform="translate(46.925926, 51.277778)" stroke-linecap="round">
                        <path d="M72.269196,28.3506098 C72.269196,43.9872439 59.4137814,56.6778455 43.5740741,56.6778455 C27.7248017,56.6778455 14.8789521,43.9872439 14.8789521,28.3506098 C14.8789521,12.7045332 27.7248017,0.0233739837 43.5740741,0.0233739837 C59.4137814,0.0233739837 72.269196,12.7045332 72.269196,28.3506098 L72.269196,28.3506098 Z" id="Stroke-516"></path>
                        <path d="M86.616757,75.5626694 L0.531391147,75.5626694 C0.531391147,95.2312134 10.0964318,122.774729 29.2265131,129.384417 L29.2265131,169.986789 L57.921635,169.986789 L57.921635,129.384417 C77.0517164,122.774729 86.616757,95.2312134 86.616757,75.5626694 L86.616757,75.5626694 Z" id="Stroke-517"></path>
                    </g>
                    <g id="Group" transform="translate(0.000000, 0.117284)">
                        <path d="M15.8689236,91.3689986 C7.18815104,91.3689986 0.157118056,85.5913992 0.157118056,78.4581619 C0.157118056,71.3249246 7.18815104,65.5473251 15.8689236,65.5473251" id="Stroke-394" stroke-linecap="round"></path>
                        <path d="M47.2925347,110.735254 L31.5807292,110.735254 C22.8999566,110.735254 15.8689236,104.957654 15.8689236,97.824417 L15.8689236,59.0919067 C15.8689236,51.9586694 22.8999566,46.18107 31.5807292,46.18107 L47.2925347,46.18107 L47.2925347,110.735254 L47.2925347,110.735254 Z" id="Stroke-395" stroke-linecap="round"></path>
                        <path d="M165.131076,91.3689986 C173.811849,91.3689986 180.842882,85.5913992 180.842882,78.4581619 C180.842882,71.3249246 173.811849,65.5473251 165.131076,65.5473251" id="Stroke-396" stroke-linecap="round"></path>
                        <path d="M133.707465,110.735254 L149.419271,110.735254 C158.100043,110.735254 165.131076,104.957654 165.131076,97.824417 L165.131076,59.0919067 C165.131076,51.9586694 158.100043,46.18107 149.419271,46.18107 L133.707465,46.18107 L133.707465,110.735254 L133.707465,110.735254 Z" id="Stroke-397" stroke-linecap="round"></path>
                        <path d="M35.5086806,46.18107 C35.5086806,21.2244225 60.1290799,0.993141289 90.5,0.993141289 C120.863064,0.993141289 145.491319,21.2244225 145.491319,46.18107" id="Stroke-398"></path>
                    </g>
                </g>
            </g>
        </g>
    </g>
</svg>