<?xml version="1.0" encoding="UTF-8" standalone="no"?>
<svg width="22px" height="22px" viewBox="0 0 22 22" version="1.1" xmlns="http://www.w3.org/2000/svg" xmlns:xlink="http://www.w3.org/1999/xlink">
    <!-- Generator: Sketch 39.1 (31720) - http://www.bohemiancoding.com/sketch -->
    <title>Group 8</title>
    <desc>Created with Sketch.</desc>
    <defs>
        <radialGradient cx="47.8452689%" cy="0%" fx="47.8452689%" fy="0%" r="118.613519%" id="radialGradient-1">
            <stop stop-color="#6A9BD4" offset="0%"></stop>
            <stop stop-color="#713079" offset="26.3532366%"></stop>
            <stop stop-color="#FF7200" offset="45.3146057%"></stop>
            <stop stop-color="#FC0670" offset="76.7897003%"></stop>
            <stop stop-color="#6A9BD4" offset="100%"></stop>
        </radialGradient>
        <polygon id="path-2" points="5.30908143 0.00203039514 0.0101519757 0.00203039514 0.0101519757 7.78335056 10.6080109 7.78335056 10.6080109 0.00203039514 5.30908143 0.00203039514"></polygon>
    </defs>
    <g id="Page-1" stroke="none" stroke-width="1" fill="none" fill-rule="evenodd">
        <g id="Vacature" transform="translate(-916.000000, -957.000000)">
            <g id="Group-8" transform="translate(917.000000, 958.000000)">
                <g id="Group-4" stroke-width="1.5" stroke="url(#radialGradient-1)">
                    <g id="Group-10">
                        <circle id="Oval-18" cx="10" cy="10" r="10"></circle>
                    </g>
                </g>
                <g id="check-mark-black-outline" transform="translate(5.000000, 6.000000)">
                    <mask id="mask-3" fill="white">
                        <use xlink:href="#path-2"></use>
                    </mask>
                    <g id="Clip-2"></g>
                    <path d="M10.5644843,1.16273961 L3.98735765,7.73969706 C3.92932219,7.79790172 3.83541641,7.79790172 3.77788855,7.73969706 L0.0436534954,4.00478521 C-0.0145511651,3.94725735 -0.0145511651,3.85335157 0.0436534954,3.79582371 L0.951070922,2.88840628 C1.00859878,2.83020162 1.10250456,2.83020162 1.16054002,2.88840628 L3.8829615,5.61082776 L9.44810537,0.0456838906 C9.50563323,-0.01252077 9.59936981,-0.01252077 9.65757447,0.0456838906 L10.5644843,0.953101317 C10.6225198,1.01062918 10.6225198,1.10453495 10.5644843,1.16273961 L10.5644843,1.16273961 Z" id="Fill-1" fill="#000000" mask="url(#mask-3)"></path>
                </g>
            </g>
        </g>
    </g>
</svg>