<?xml version="1.0" encoding="UTF-8" standalone="no"?>
<svg width="190px" height="190px" viewBox="0 0 190 190" version="1.1" xmlns="http://www.w3.org/2000/svg" xmlns:xlink="http://www.w3.org/1999/xlink">
    <!-- Generator: Sketch 39.1 (31720) - http://www.bohemiancoding.com/sketch -->
    <title>talent-search</title>
    <desc>Created with Sketch.</desc>
    <defs></defs>
    <g id="Page-1" stroke="none" stroke-width="1" fill="none" fill-rule="evenodd">
        <g id="Vacature-overzicht" transform="translate(-1028.000000, -1166.000000)" fill="#FFFFFF">
            <g id="Group-4" transform="translate(131.000000, 1113.000000)">
                <g id="talent-search" transform="translate(897.000000, 53.000000)">
                    <path d="M137.836292,142.929083 L183.885958,188.97875 C184.566792,189.659583 185.457417,189.999208 186.351208,189.999208 C187.241833,189.999208 188.132458,189.659583 188.815667,188.97875 C190.176542,187.618667 190.176542,185.413083 188.815667,184.053 L142.766,138.000167 C156.765833,122.791458 164.434708,103.181875 164.434708,82.3855833 C164.434708,60.4231667 155.883917,39.7780833 140.353792,24.2471667 C124.826833,8.71704167 104.18175,0.16625 82.2217083,0.16625 C60.2592917,0.16625 39.6142083,8.72020833 24.0840833,24.2471667 C8.55395833,39.7780833 0,60.4231667 0,82.3855833 C0,104.348 8.55395833,124.993083 24.0840833,140.520042 C39.6110417,156.050958 60.256125,164.600958 82.2217083,164.600958 C103.015625,164.600958 122.627583,156.928917 137.836292,142.929083 L137.836292,142.929083 Z M6.970625,82.3855833 C6.970625,40.8943333 40.7272917,7.136875 82.2217083,7.136875 C123.710583,7.136875 157.464083,40.8943333 157.464083,82.3855833 C157.464083,111.695458 140.616625,137.14675 116.096333,149.559292 L116.096333,112.144333 C116.096333,99.2267083 105.588542,88.7189167 92.6717083,88.7189167 L71.7661667,88.7189167 C58.8493333,88.7189167 48.34075,99.2267083 48.34075,112.144333 L48.34075,149.559292 C23.8180833,137.143583 6.970625,111.695458 6.970625,82.3855833 L6.970625,82.3855833 Z M55.311375,112.144333 C55.311375,103.071042 62.6905,95.6895417 71.763,95.6895417 L92.6717083,95.6895417 C101.745,95.6895417 109.1265,103.071042 109.1265,112.144333 L109.1265,152.652333 C100.767292,155.864917 91.6971667,157.631125 82.2217083,157.631125 C72.7407083,157.631125 63.6705833,155.864917 55.311375,152.652333 L55.311375,112.144333 Z" id="Fill-1"></path>
                    <path d="M82.1354167,85.3820417 C95.4172083,85.3820417 106.222667,74.577375 106.222667,61.2947917 C106.222667,48.0098333 95.4140417,37.202 82.1354167,37.202 C68.8504583,37.202 58.0481667,48.0098333 58.0481667,61.2947917 C58.045,74.577375 68.8504583,85.3820417 82.1354167,85.3820417 L82.1354167,85.3820417 Z M82.1354167,44.1718333 C91.5736667,44.1718333 99.2520417,51.853375 99.2520417,61.2947917 C99.2520417,70.7330417 91.5736667,78.4114167 82.1354167,78.4114167 C72.6971667,78.4114167 65.0187917,70.7330417 65.0187917,61.2947917 C65.015625,51.853375 72.6971667,44.1718333 82.1354167,44.1718333 L82.1354167,44.1718333 Z" id="Fill-3"></path>
                </g>
            </g>
        </g>
    </g>
</svg>