<?xml version="1.0" encoding="UTF-8" standalone="no"?>
<svg width="181px" height="216px" viewBox="0 0 181 216" version="1.1" xmlns="http://www.w3.org/2000/svg" xmlns:xlink="http://www.w3.org/1999/xlink">
    <!-- Generator: Sketch 39.1 (31720) - http://www.bohemiancoding.com/sketch -->
    <title>Group</title>
    <desc>Created with Sketch.</desc>
    <defs></defs>
    <g id="Page-1" stroke="none" stroke-width="1" fill="none" fill-rule="evenodd" stroke-linecap="round" stroke-linejoin="round">
        <g id="Vacature-overzicht" transform="translate(-560.000000, -1159.000000)" stroke="#FFFFFF" stroke-width="5">
            <g id="Group-4" transform="translate(131.000000, 1113.000000)">
                <g id="Group" transform="translate(432.000000, 48.000000)">
                    <path d="M136.06103,110.231876 L145.773236,110.231876 C161.856649,110.231876 174.909854,122.489787 174.909854,137.593284 C174.909854,152.69678 161.856649,164.954691 145.773236,164.954691 L136.06103,164.954691" id="Stroke-254"></path>
                    <path d="M136.06103,192.316098 C136.06103,202.375975 127.358894,210.557036 116.636618,210.557036 L29.2267637,210.557036 C18.5044882,210.557036 9.80235162,202.375975 9.80235162,192.316098 L9.80235162,91.9909382 L136.06103,91.9909382 L136.06103,192.316098 L136.06103,192.316098 Z" id="Stroke-255"></path>
                    <path d="M134.904306,1.36995736 C144.937015,15.7255757 130.087052,23.58742 126.619795,31.3033369 C122.968005,39.4570362 126.522673,47.2823987 135.215097,50.7208156 C163.390207,61.8660288 171.771841,9.74254797 134.904306,1.36995736 L134.904306,1.36995736 Z" id="Stroke-256"></path>
                    <path d="M106.924412,91.9909382 L132.263558,49.2432996" id="Stroke-257"></path>
                    <path d="M142.282669,52.3734446 L126.344939,91.9927623" id="Stroke-258"></path>
                    <polygon id="Stroke-259" points="48.6511758 91.9909382 19.5145577 91.9909382 4.9462486 64.6295309 0.0901455767 37.2681237 24.3706607 50.9488273"></polygon>
                    <path d="M4.9462486,64.6295309 L24.3706607,50.9488273" id="Stroke-260"></path>
                    <polygon id="Stroke-261" points="97.212206 0.786247335 58.3633819 0.786247335 58.3633819 91.9909382 97.212206 91.9909382"></polygon>
                    <path d="M97.212206,18.1181102 L77.787794,18.1181102" id="Stroke-262"></path>
                    <path d="M97.212206,36.2362205 L87.5,36.2362205" id="Stroke-263"></path>
                    <path d="M97.212206,54.3543307 L77.787794,54.3543307" id="Stroke-264"></path>
                    <path d="M97.212206,71.0787402 L87.5,71.0787402" id="Stroke-265"></path>
                </g>
            </g>
        </g>
    </g>
</svg>