<svg height="30" viewBox="0 0 130 30" width="130" xmlns="http://www.w3.org/2000/svg"><g fill="#fff" fill-rule="evenodd"><path d="M6.232 18.465c.348.032.857.095 1.652.095 2.099 0 4.165-.825 5.403-2.352 1.241-1.494 1.908-3.433 1.908-5.817 0-3.213-1.876-4.863-4.99-4.863a8.05 8.05 0 0 0-1.526.126zM3.942 1.71c1.938-.35 4.037-.51 6.2-.51 3.242 0 5.848.639 7.789 2.1 1.97 1.526 3.178 3.72 3.178 7.09 0 4.26-1.845 7.724-4.452 9.728-2.51 1.939-5.625 2.828-10.522 2.828-2.86 0-5.213-.285-6.135-.477zm28.77 10.015c0-.541-.509-1.019-1.398-1.019a3.016 3.016 0 0 0-3.053 2.481c3.306.03 4.45-.446 4.45-1.431zM35.858 21.9c-2.098 1.017-4.545 1.24-6.136 1.24-4.578 0-7.09-2.415-7.09-6.772 0-4.77 3.436-9.568 9.348-9.568 3.242 0 5.787 1.78 5.787 4.99 0 3.91-3.563 5.5-10.015 5.31.065.348.255.76.572 1.047.603.51 1.557.795 2.797.795 1.59 0 3.083-.318 4.45-.953zM52.58 9.627h1.337c2.258 0 3.688-.857 3.688-2.35 0-1.306-1.114-1.878-2.608-1.878-.73 0-1.303.063-1.62.13zm-1.779 9.03c.445.063.922.063 1.59.063 2.193 0 4.132-.86 4.132-2.798s-1.654-2.352-3.656-2.352h-1.112zM48.701 1.743c1.622-.317 3.816-.54 6.074-.54 2.255 0 3.909.223 5.467.985 1.62.7 2.892 2.163 2.892 4.165 0 2.702-1.907 4.293-4.162 4.99v.065c2.097.67 3.305 2.386 3.305 4.642 0 2.352-1.303 4.006-3.084 5.149-1.876 1.209-4.736 1.749-8.583 1.749-2.671 0-4.736-.223-5.817-.445zM63.867 22.79l1.716-8.996c.447-2.48.637-5.343.795-6.646h4.674c-.064 1.05-.129 2.065-.222 3.116h.093c1.146-2.036 2.895-3.466 5.057-3.466.316 0 .603 0 .92.031l-1.08 5.248h-.7c-3.21 0-4.29 2.51-4.832 5.37l-.986 5.343zM94.035 7.149l-1.939 10.298c-.414 2.1-.667 3.88-.92 5.343h-4.77l.253-2.387h-.063c-1.684 2.036-3.53 2.735-5.341 2.735-2.702 0-3.941-1.621-3.941-4.323 0-.89.095-1.877.317-2.99l1.623-8.676h5.435l-1.558 8.233c-.126.635-.223 1.431-.223 1.971 0 .73.318 1.4 1.176 1.4 1.399 0 2.64-1.717 3.212-4.675l1.302-6.93zM94.608 22.79l2.956-15.642h5.437l-2.958 15.642zM112.504 7.149l-2.764 14.908c-.508 2.703-1.21 4.452-2.29 5.627-1.05 1.209-2.796 1.749-4.546 1.749-.698 0-1.588-.063-2.384-.255l.604-4.099c.352.063.605.063.955.063.922 0 1.748-.413 2.224-3.02l2.798-14.973zm.478 15.64l1.94-10.331c.412-2.067.667-3.88.89-5.31h4.768l-.22 2.383h.062c1.493-1.97 3.337-2.733 5.31-2.733 2.86 0 4.036 1.78 4.036 4.26 0 .699-.129 1.94-.255 2.67l-1.718 9.062h-5.435l1.59-8.49c.094-.54.159-1.112.159-1.654 0-.89-.255-1.524-1.177-1.524-1.302 0-2.637 1.716-3.274 4.99l-1.24 6.678zM100.645 5.438c-1.431 0-2.511-.953-2.511-2.511 0-1.78 1.43-2.926 3.02-2.926 1.524 0 2.605.953 2.605 2.511 0 1.877-1.428 2.926-3.082 2.926zm9.197 0c-1.431 0-2.511-.953-2.511-2.511 0-1.78 1.433-2.926 3.019-2.926 1.526 0 2.608.953 2.608 2.511 0 1.877-1.43 2.926-3.084 2.926z"/></g></svg>