<svg xmlns="http://www.w3.org/2000/svg" width="235" height="25" viewBox="0 0 235 25">
  <g fill="none" fill-rule="evenodd">
    <path fill="#FFFFFF" d="M15.2951613,22.1848867 C15.2951613,23.2942399 14.3994584,24.1935484 13.2981368,24.1935484 L2.25347615,24.1935484 C1.15054995,24.1935484 0.256451613,23.293053 0.256451613,22.1925085 L0.256451613,2.48491086 C0.256451613,1.37976704 1.15387409,0.483870968 2.25425757,0.483870968 L12.9586457,0.483870968 C14.0620034,0.483870968 14.9564516,1.38247395 14.9564516,2.4925327 L14.9564516,1.82843505 C14.9564516,2.93778829 14.0687945,3.83709677 12.9507066,3.83709677 L3.88064516,3.83709677 L3.88064516,10.1370968 L10.6145183,10.1370968 C11.721759,10.1370968 12.6193548,11.0356998 12.6193548,12.1457585 L12.6193548,11.4816609 C12.6193548,12.5910141 11.7170735,13.4903226 10.6145183,13.4903226 L3.88064516,13.4903226 L3.88064516,20.8403226 L13.2938425,20.8403226 C14.3991403,20.8403226 15.2951613,21.7389256 15.2951613,22.8489843 L15.2951613,22.1848867 Z M23.1241267,24.1935484 C22.0204849,24.1935484 21.1258065,23.293053 21.1258065,22.1925085 L21.1258065,2.48491086 C21.1258065,1.37976704 22.0186794,0.483870968 23.1241267,0.483870968 L29.9322581,0.483870968 C31.6483958,0.483870968 33.2290251,0.754836 34.6741936,1.29677419 C36.1193621,1.83871239 37.3612852,2.61773685 38.4000001,3.63387097 C39.4387149,4.65000508 40.2459649,5.89192815 40.8217743,7.35967742 C41.3975836,8.82742669 41.6854839,10.4870875 41.6854839,12.3387097 C41.6854839,14.1677511 41.3975836,15.8161217 40.8217743,17.283871 C40.2459649,18.7516202 39.4443601,19.9991884 38.4169356,21.0266129 C37.3895111,22.0540374 36.1532331,22.838707 34.7080646,23.3806452 C33.2628961,23.9225834 31.6709765,24.1935484 29.9322581,24.1935484 L23.1241267,24.1935484 Z M29.9322581,3.83709677 L24.7161291,3.83709677 L24.7161291,20.8403226 L29.9322581,20.8403226 C32.461303,20.8403226 34.397574,20.0838785 35.7411291,18.5709677 C37.0846842,17.058057 37.7564517,14.9806584 37.7564517,12.3387097 C37.7564517,9.69676098 37.0846842,7.6193624 35.7411291,6.10645161 C34.397574,4.59354082 32.461303,3.83709677 29.9322581,3.83709677 L29.9322581,3.83709677 Z M47.3467743,2.4929777 C47.3467743,1.38337869 48.23427,0.483870968 49.3518781,0.483870968 L48.9319932,0.483870968 C50.0393814,0.483870968 50.9370969,1.37301985 50.9370969,2.48060818 L50.9370969,12.5758065 C50.9370969,13.7725866 51.0217735,14.9016076 51.1911292,15.9629032 C51.3604849,17.0241989 51.6709656,17.949996 52.1225808,18.7403226 C52.574196,19.5306491 53.2064477,20.1572557 54.019355,20.6201613 C54.8322623,21.0830668 55.8822518,21.3145161 57.169355,21.3145161 C58.4564582,21.3145161 59.5064477,21.0774217 60.319355,20.6032258 C61.1322623,20.1290299 61.764514,19.4967781 62.2161292,18.7064516 C62.6677443,17.9161251 62.9782251,16.9903279 63.1475808,15.9290323 C63.3169365,14.8677366 63.4016131,13.7500059 63.4016131,12.5758065 L63.4016131,2.48060818 C63.4016131,1.37784067 64.2891087,0.483870968 65.4067168,0.483870968 L64.9868319,0.483870968 C66.0942201,0.483870968 66.9919356,1.37726322 66.9919356,2.4929777 L66.9919356,14.1 C66.9919356,17.4193714 66.1677503,20.0104746 64.519355,21.8733871 C62.8709597,23.7362996 60.4209842,24.6677419 57.169355,24.6677419 C53.9177258,24.6677419 51.4677503,23.7362996 49.819355,21.8733871 C48.1709597,20.0104746 47.3467743,17.4193714 47.3467743,14.1 L47.3467743,2.4929777 Z M134.37742,22.1848867 C134.37742,23.2942399 133.481717,24.1935484 132.380395,24.1935484 L121.335735,24.1935484 C120.232808,24.1935484 119.33871,23.293053 119.33871,22.1925085 L119.33871,2.48491086 C119.33871,1.37976704 120.236132,0.483870968 121.336516,0.483870968 L132.040904,0.483870968 C133.144262,0.483870968 134.03871,1.38247395 134.03871,2.4925327 L134.03871,1.82843505 C134.03871,2.93778829 133.151053,3.83709677 132.032965,3.83709677 L122.962904,3.83709677 L122.962904,10.1370968 L129.696777,10.1370968 C130.804017,10.1370968 131.701613,11.0356998 131.701613,12.1457585 L131.701613,11.4816609 C131.701613,12.5910141 130.799332,13.4903226 129.696777,13.4903226 L122.962904,13.4903226 L122.962904,20.8403226 L132.376101,20.8403226 C133.481399,20.8403226 134.37742,21.7389256 134.37742,22.8489843 L134.37742,22.1848867 Z M156.695834,22.4412863 C157.223696,23.4090339 156.763906,24.1935484 155.648228,24.1935484 L155.82758,24.1935484 C154.72114,24.1935484 153.385245,23.4167249 152.843703,22.4583382 L148.675807,15.0822581 L143.9,15.0822581 L143.9,22.1940371 C143.9,23.2983367 143.006286,24.1935484 141.902757,24.1935484 L142.205309,24.1935484 C141.102261,24.1935484 140.208065,23.293053 140.208065,22.1925085 L140.208065,2.48491086 C140.208065,1.37976704 141.09781,0.483870968 142.213015,0.483870968 L148.235484,0.483870968 C150.832271,0.483870968 152.841929,1.01451082 154.264517,2.07580645 C155.687104,3.13710208 156.398387,4.909665 156.398387,7.39354839 C156.398387,10.41937 154.987111,12.6661217 152.164517,14.133871 L156.695834,22.4412863 Z M147.862904,3.43064516 L143.9,3.43064516 L143.9,11.6612903 L148.370968,11.6612903 C149.680652,11.6612903 150.719351,11.322584 151.487097,10.6451613 C152.254843,9.96773855 152.63871,8.91774905 152.63871,7.49516129 C152.63871,4.78547032 151.04679,3.43064516 147.862904,3.43064516 L147.862904,3.43064516 Z M163.756912,23.6685845 C162.707317,23.3412022 161.949833,22.1922776 162.066297,21.0903538 L162.08693,20.8951301 C162.202824,19.7985949 163.098456,19.3121934 164.096299,19.7710868 C164.096299,19.7710868 166.779018,21.3145161 169.714517,21.3145161 C171.272589,21.3145161 172.525802,21.0548413 173.474194,20.5354839 C174.422586,20.0161264 174.896775,19.1806509 174.896775,18.0290323 C174.896775,17.5096748 174.783873,17.0467762 174.558065,16.6403226 C174.332257,16.2338689 174.033067,15.8725822 173.660484,15.5564516 C173.287902,15.240321 172.858874,14.9637109 172.373388,14.7266129 C171.887901,14.4895149 171.374197,14.2806461 170.832259,14.1 L167.072581,12.8467742 L165.412904,12.1693548 C164.983869,11.9887088 164.537906,11.7572595 164.075,11.475 C163.612095,11.1927405 163.183067,10.8483891 162.787904,10.4419355 C162.39274,10.0354818 162.070969,9.57258324 161.822581,9.05322581 C161.574193,8.53386837 161.45,7.94677747 161.45,7.29193548 C161.45,6.43386668 161.591128,5.57016564 161.873388,4.70080645 C162.155647,3.83144727 162.629836,3.0524228 163.295968,2.36370968 C163.962101,1.67499656 164.842737,1.11048607 165.937904,0.67016129 C167.03307,0.229836508 168.393541,0.00967741935 170.019355,0.00967741935 C170.719359,0.00967741935 171.441932,0.0604833629 172.187097,0.162096774 C172.932262,0.263710185 173.643545,0.393547597 174.320968,0.551612903 C174.998391,0.70967821 175.613707,0.890321565 176.166936,1.09354839 C176.720165,1.29677521 176.166936,1.09354839 176.166936,1.09354839 C176.905839,1.43026393 177.416543,2.59421687 177.307639,3.69315529 L177.329459,3.47297374 C177.220548,4.57198145 176.30548,5.12478503 175.272634,4.72256736 C175.272634,4.72256736 172.096784,3.32903226 170.290323,3.32903226 C169.658062,3.32903226 169.042745,3.39112841 168.444355,3.51532258 C167.845965,3.63951675 167.315325,3.82580521 166.85242,4.07419355 C166.389514,4.32258189 166.016937,4.64999797 165.734678,5.05645161 C165.452418,5.46290526 165.311291,5.93709406 165.311291,6.47903226 C165.311291,7.17903576 165.491934,7.72661093 165.853226,8.12177419 C166.214518,8.51693746 166.745158,8.86693396 167.445162,9.17177419 C168.145165,9.47661443 169.020157,9.78709519 170.070162,10.1032258 C171.120167,10.4193564 172.333865,10.8596746 173.711291,11.4241935 C174.320971,11.6725819 174.930643,11.9548371 175.540323,12.2709677 C176.150004,12.5870984 176.697579,12.9935459 177.183065,13.4903226 C177.668551,13.9870993 178.069354,14.5967706 178.385484,15.3193548 C178.701615,16.0419391 178.859678,16.9225755 178.859678,17.9612903 C178.859678,18.6838746 178.746776,19.4403186 178.520968,20.2306452 C178.295161,21.0209717 177.849197,21.7435451 177.183065,22.3983871 C176.516933,23.0532291 175.579845,23.5951591 174.371775,24.0241935 C173.163704,24.453228 171.58872,24.6677419 169.646775,24.6677419 C166.327403,24.6677419 163.756912,23.6685845 163.756912,23.6685845 Z M188.145162,22.3724585 C188.145162,23.3782187 187.340836,24.1935484 186.333065,24.1935484 L186.333065,24.1935484 C185.332272,24.1935484 184.520968,23.3774076 184.520968,22.3724585 L184.520968,2.30496082 C184.520968,1.29920067 185.325294,0.483870968 186.333065,0.483870968 L186.333065,0.483870968 C187.333858,0.483870968 188.145162,1.30001173 188.145162,2.30496082 L188.145162,22.3724585 Z M212.602301,0.483870968 C213.707382,0.483870968 214.288595,1.32771094 213.902152,2.36414765 L206.463978,22.3132717 C206.076786,23.3517198 204.868373,24.1935484 203.771198,24.1935484 L203.723965,24.1935484 C202.623976,24.1935484 201.416421,23.3497084 201.028498,22.3132717 L193.561826,2.36414765 C193.17315,1.32569951 193.749056,0.483870968 194.858991,0.483870968 L194.616817,0.483870968 C195.721898,0.483870968 196.929426,1.32585936 197.309499,2.35259692 L203.07276,17.9215966 C203.454807,18.9536655 204.073246,18.9483342 204.456173,17.9039865 L210.151892,2.37020709 C210.533884,1.32841242 211.73454,0.483870968 212.844475,0.483870968 L212.602301,0.483870968 Z M234.38871,22.1848867 C234.38871,23.2942399 233.493007,24.1935484 232.391686,24.1935484 L221.347025,24.1935484 C220.244099,24.1935484 219.350001,23.293053 219.350001,22.1925085 L219.350001,2.48491086 C219.350001,1.37976704 220.247423,0.483870968 221.347807,0.483870968 L232.052195,0.483870968 C233.155552,0.483870968 234.050001,1.38247395 234.050001,2.4925327 L234.050001,1.82843505 C234.050001,2.93778829 233.162344,3.83709677 232.044256,3.83709677 L222.974194,3.83709677 L222.974194,10.1370968 L229.708067,10.1370968 C230.815308,10.1370968 231.712904,11.0356998 231.712904,12.1457585 L231.712904,11.4816609 C231.712904,12.5910141 230.810623,13.4903226 229.708067,13.4903226 L222.974194,13.4903226 L222.974194,20.8403226 L232.387392,20.8403226 C233.492689,20.8403226 234.38871,21.7389256 234.38871,22.8489843 L234.38871,22.1848867 Z"/>
    <path fill="#FFB700" fill-rule="nonzero" d="M109.677413,4.03225806 L77.4193647,4.03225806 L77.4193647,20.0858937 L86.2737054,20.0858937 L88.2463559,15.1542028 L88.3212978,15.0042946 C89.3053577,13.0358526 91.3041455,11.7953191 93.510715,11.7953191 C95.7068294,11.7953191 97.9140848,13.076852 98.8373614,15.3852702 L98.8977272,15.5460478 L100.519301,20.1612903 L109.677413,20.1612903 L109.677413,4.03225806 Z M95.6718415,18.3048653 L95.093453,16.8826865 C94.7920144,16.1290158 94.0382944,15.8275772 93.510715,15.8275772 C92.8323917,15.8275772 92.2294157,16.2043631 91.9279771,16.8073391 L91.3752923,18.189069 L91.3237887,18.3178299 L89.6669158,22.4600664 C89.1392871,23.4398284 88.1595251,24.1181517 87.0289698,24.1181517 L76.9294672,24.1181517 C74.9698446,24.1181517 73.3871066,22.5354137 73.3871066,20.5757911 L73.3871066,3.54236063 C73.3871066,1.58273798 74.9698446,0 76.9294672,0 L110.091963,0 C112.051586,0 113.709671,1.58273798 113.709671,3.61770795 L113.709671,20.6511878 C113.709671,22.6107611 112.126933,24.1935484 110.16731,24.1935484 L99.6910216,24.1935484 C98.4850696,24.1935484 97.5053077,23.5152251 97.0530757,22.4600664 L95.6299421,18.4096149 L95.6718415,18.3048653 Z"/>
    <rect width="10.484" height="1" x="76.613" y="23.387" fill="#FFB700"/>
  </g>
</svg>
