<svg height="72" viewBox="0 0 97 72" width="97" xmlns="http://www.w3.org/2000/svg"><filter id="a" height="111.6%" width="108.3%" x="-3.8%" y="-3.7%"><feOffset dy="1" in="SourceAlpha" result="shadowOffsetOuter1"/><feGaussianBlur in="shadowOffsetOuter1" result="shadowBlurOuter1" stdDeviation="1"/><feComposite in="shadowBlurOuter1" in2="SourceAlpha" operator="out" result="shadowBlurOuter1"/><feColorMatrix in="shadowBlurOuter1" result="shadowMatrixOuter1" values="0 0 0 0 0 0 0 0 0 0 0 0 0 0 0 0 0 0 0.24 0"/><feMerge><feMergeNode in="shadowMatrixOuter1"/><feMergeNode in="SourceGraphic"/></feMerge></filter><g fill="#fff" fill-rule="evenodd" filter="url(#a)" transform="translate(2 1)"><path d="M26.958 42.1a4.032 4.032 0 1 1 7.612-1.197c3.141 10.548 12.913 18.24 24.48 18.24 14.105 0 25.54-11.435 25.54-25.54S73.154 8.066 59.05 8.066v-.023a4.033 4.033 0 0 1 0-8.02v-.02L59.478 0c18.559 0 33.604 15.045 33.604 33.604S78.037 67.207 59.478 67.207c-15.623 0-28.756-10.662-32.52-25.106z"/><path d="M62.328 30.56c4.377.958 7.534 4.978 7.279 9.318-.269 4.494-4.062 7.719-8.638 8.393-.621.078-1.286.118-1.924.118-3.949 0-7.787-1.669-10.178-4.498-1.227-1.46-1.049-3.62.416-4.907 1.465-1.231 3.64-1.05 4.86.402 1.282 1.486 3.662 2.314 5.86 1.987 1.494-.213 2.6-1.028 2.652-1.916.06-.919-.718-1.859-1.891-2.122-.478-.12-.957-.163-2.042-.211l-.078-.003c-1.853-.107-2.681-.198-3.79-.503a9.091 9.091 0 0 1-2.776-1.272c-3.084-2.113-4.602-5.962-3.657-9.396 1.003-3.638 4.306-6.42 8.247-7 3.644-.515 7.528.502 10.392 2.72 1.474 1.18 1.744 3.375.569 4.903-1.18 1.475-3.376 1.745-4.903.57-1.326-1.061-3.284-1.567-5.098-1.3-1.205.18-2.24 1.018-2.493 1.982-.155.542.226 1.328.908 1.79.503.349 1.165.465 2.894.55l.096.004.424.029c1.374.091 2.01.16 2.87.362z" fill-rule="nonzero"/><path d="M32.596 8.065H46.71a4.032 4.032 0 0 0 0-8.065H32.596a4.032 4.032 0 0 0 0 8.065zM37.3 12.097H15.794a4.032 4.032 0 0 0 0 8.065H37.3a4.032 4.032 0 0 0 0-8.065zM5.377 32.03v.23H30.58a4.032 4.032 0 0 0 0-8.065H5.377v.229a4.032 4.032 0 1 0 0 7.606z"/></g></svg>