<svg xmlns="http://www.w3.org/2000/svg" width="111" height="84" viewBox="0 0 111 84">
  <defs>
    <linearGradient id="a" x1="0%" x2="50%" y1="100%" y2="0%">
      <stop stop-color="#00C6FB" offset="0%"/>
      <stop stop-color="#005BEA" offset="100%"/>
    </linearGradient>
  </defs>
  <g fill="none" transform="rotate(-45 31.808 15.393)">
    <path fill="url(#a)" d="M5.968,54.708 L5.968,54.211 L5.968,73.607 L73.608,73.607 L73.608,67.64 C71.191,65.825 69.628,62.936 69.628,59.682 C69.628,56.428 71.191,53.538 73.608,51.723 L73.608,45.756 L5.967,45.756 L5.967,54.211 L5.967,45.756 L3.977,45.756 C1.78024007,45.7548958 -2.77501159e-07,43.9737602 -3.12148846e-15,41.777 L-3.12148846e-15,54.708 C-3.32331243e-15,53.0599823 1.33598231,51.724 2.984,51.724 C4.63201769,51.724 5.968,53.0599823 5.968,54.708 Z M5.968,5.968 L5.968,39.788 L33.82,39.788 L33.82,5.968 L27.852,5.968 C26.037,8.384 23.148,9.947 19.894,9.947 C16.64,9.947 13.75,8.384 11.936,5.968 L5.968,5.968 Z M79.5760001,43.767 L79.5760001,39.7869999 L75.596,39.7869999 C76.6516429,39.7867347 77.6641257,40.2059697 78.410578,40.952422 C79.1570303,41.6988743 79.5762653,42.7113571 79.5760001,43.767 Z M79.576,75.597 L79.5760001,79.5760001 L75.596,79.5760001 C76.6516429,79.5762653 77.6641257,79.1570303 78.410578,78.410578 C79.1570303,77.6641257 79.5762653,76.6516429 79.5760001,75.596 L79.576,75.597 Z M3.979,79.576 L-1.25841781e-07,79.576 L-1.25841781e-07,75.596 C-0.000265260039,76.6514697 0.418832503,77.6638008 1.16506851,78.4102244 C1.91130451,79.1566479 2.9235303,79.576 3.979,79.576 Z M79.576,54.053 C77.1908101,54.8963863 75.5961979,57.1515926 75.5961979,59.6815 C75.5961979,62.2114074 77.1908101,64.4666137 79.576,65.31 L79.576,79.576 L-3.12148846e-15,79.576 L-3.12148846e-15,-9.94204719e-16 L14.265,0 C15.1083863,2.38518994 17.3635926,3.97980208 19.8935,3.97980208 C22.4234074,3.97980208 24.6786137,2.38518994 25.522,-9.94204719e-16 L39.788,-9.94204719e-16 L39.788,39.788 L79.576,39.788 L79.576,54.053 Z M39.788,30.836 C39.788,32.4840177 38.4520177,33.82 36.804,33.82 C35.1559823,33.82 33.82,32.4840177 33.82,30.836 L33.82,39.788 L39.788,39.788 L39.788,30.836 Z M39.788,3.979 L39.788,-1.06026299e-16 L35.809,-1.06026299e-16 C38.006541,2.85342799e-17 39.788,1.78145898 39.788,3.979 Z M3.978,-1.06026299e-16 L-1.28639952e-17,-1.06026299e-16 L-1.28639952e-17,3.979 C-2.81985156e-16,1.78145898 1.78145898,2.97655437e-16 3.979,-1.06026299e-16 L3.978,-1.06026299e-16 Z"/>
    <circle cx="19.894" cy="59.682" r="3.979" fill="#00BFFA" opacity=".9"/>
    <circle cx="19.894" cy="19.894" r="3.979" fill="#0085F0" opacity=".9"/>
    <circle cx="39.788" cy="59.682" r="3.979" fill="#00ACF7" opacity=".9"/>
    <circle cx="59.682" cy="59.682" r="3.979" fill="#00A2F6" opacity=".9"/>
  </g>
</svg>
