<svg height="68" viewBox="0 0 189 68" width="189" xmlns="http://www.w3.org/2000/svg"><filter id="a" height="123.3%" width="108.3%" x="-3.9%" y="-8.3%"><feOffset dy="2" in="SourceAlpha" result="shadowOffsetOuter1"/><feGaussianBlur in="shadowOffsetOuter1" result="shadowBlurOuter1" stdDeviation="2"/><feComposite in="shadowBlurOuter1" in2="SourceAlpha" operator="out" result="shadowBlurOuter1"/><feColorMatrix in="shadowBlurOuter1" result="shadowMatrixOuter1" values="0 0 0 0 0 0 0 0 0 0 0 0 0 0 0 0 0 0 0.24 0"/><feMerge><feMergeNode in="shadowMatrixOuter1"/><feMergeNode in="SourceGraphic"/></feMerge></filter><g fill="#fff" fill-rule="evenodd" filter="url(#a)" transform="translate(4 2)"><path d="M3 34.06c5.4-8.828 12.067-10.55 20-5.167 5.344 3.626 12.011 6.667 20 9.123v8.234L26.444 56.607a7 7 0 0 1-6.888 0L3 46.25zM14.5 32c1.38 0 2.5-.672 2.5-1.5S15.88 29 14.5 29s-2.5.672-2.5 1.5 1.12 1.5 2.5 1.5z"/><path d="M1 34h13l25 4h5l1-4-1 11H2z"/><path d="M3 30.463c5.4-6.041 12.067-7.22 20-3.536 5.344 2.482 12.011 4.563 20 6.243v5.635l-16.556 7.088c-2.137.827-4.751.827-6.888 0L3 38.805zM14.5 32c1.38 0 2.5-.672 2.5-1.5S15.88 29 14.5 29s-2.5.672-2.5 1.5 1.12 1.5 2.5 1.5z" opacity=".4"/><path d="M3 45.25l20 11.304L43 45.25V7c-6.69-2.67-13.351-4-20-4C16.351 3 9.69 4.33 3 7zM1.24 4.476C8.492 1.492 15.745 0 23 0c7.254 0 14.507 1.492 21.76 4.476A2 2 0 0 1 46 6.326v39.507a2 2 0 0 1-1.016 1.741l-21 11.87a2 2 0 0 1-1.968 0l-21-11.87A2 2 0 0 1 0 45.834V6.324a2 2 0 0 1 1.24-1.85z" fill-rule="nonzero"/><path d="M16 19.2V28h-3V11l13 4zm45 8.382v-1.535l.625-.056c.366-.038.55-.215.55-.53v-8.81l-1.08-.056v-1.61h5.19c1.856 0 3.305.493 4.347 1.478 1.042.985 1.563 2.443 1.563 4.375 0 1.2-.158 2.245-.474 3.135-.315.89-.745 1.588-1.288 2.093-1.086 1.01-2.437 1.516-4.053 1.516zm3.485-10.76v8.941h1.933c1.086 0 1.932-.391 2.538-1.174.606-.783.909-1.92.909-3.41 0-2.904-1.231-4.357-3.694-4.357zm13.847.948c.947 0 1.699.23 2.254.69.556.462.834 1.11.834 1.943 0 .555-.12 1.045-.36 1.468-.24.423-.537.754-.89.994-.354.24-.783.436-1.288.587-.846.253-1.8.38-2.86.38.037.668.246 1.208.624 1.619.38.41.96.615 1.743.615.783 0 1.566-.278 2.349-.833l.72 1.534c-.253.227-.679.461-1.279.701-.6.24-1.285.36-2.055.36-1.54 0-2.671-.426-3.39-1.279s-1.08-2.023-1.08-3.513c0-1.49.41-2.74 1.23-3.751.822-1.01 1.97-1.515 3.448-1.515zm.417 3.779c.391-.285.587-.622.587-1.014 0-.77-.379-1.155-1.136-1.155-.708 0-1.25.28-1.63.843s-.587 1.234-.624 2.017c.555-.013 1.063-.06 1.524-.142a3.07 3.07 0 0 0 1.279-.55zm15.42-4.556c-.14-.24-.658-.36-1.554-.36-1.175 0-2.065.398-2.671 1.193s-.91 1.945-.91 3.448c0 3.12 1.169 4.679 3.505 4.679h.502c.297 0 .578-.041.843-.123.265-.083.423-.168.474-.256.05-.089.075-.228.075-.417v-1.515l1.932.132v3.277c-.985.518-2.235.777-3.75.777-1.932 0-3.407-.543-4.423-1.63-1.017-1.085-1.525-2.702-1.525-4.848 0-1.187.17-2.223.511-3.107s.802-1.572 1.383-2.065c1.137-.947 2.488-1.42 4.054-1.42a8.33 8.33 0 0 1 3.561.776v3.22l-1.932.133V17.41c0-.19-.025-.329-.076-.417zm8.125 9.206c1.377 0 2.065-1.111 2.065-3.334 0-1.124-.155-1.976-.464-2.557-.31-.581-.827-.872-1.553-.872s-1.26.278-1.6.834c-.342.556-.512 1.313-.512 2.273 0 1.78.328 2.898.985 3.353.29.202.65.303 1.08.303zm-4.356-3.39c0-.935.139-1.747.416-2.435s.65-1.215 1.118-1.582c.897-.682 1.888-1.022 2.974-1.022.758 0 1.399.123 1.923.369s.934.53 1.23.852c.298.322.55.79.759 1.402.208.613.312 1.335.312 2.169 0 1.743-.423 3.062-1.27 3.959-.845.897-1.928 1.345-3.248 1.345-1.32 0-2.352-.426-3.097-1.279s-1.117-2.112-1.117-3.779zm9.888-3.221v-1.534h3.2v1.23c.708-1.01 1.677-1.514 2.908-1.514s2.062.505 2.491 1.515c.708-1.01 1.667-1.515 2.88-1.515.909 0 1.61.274 2.102.824.493.549.739 1.373.739 2.472v4.943l1.08.057v1.516h-4.509v-1.44l.626-.057c.189-.025.325-.079.407-.16.082-.083.13-.231.142-.446v-3.921c0-.695-.08-1.21-.237-1.544-.158-.334-.527-.502-1.108-.502-.58 0-1.026.177-1.335.53-.31.354-.465.828-.465 1.421v4.546l1.042.057v1.516h-4.47v-1.44l.625-.057c.19-.025.328-.079.417-.16.088-.083.132-.238.132-.465v-3.902c0-.695-.079-1.21-.236-1.544-.158-.334-.53-.502-1.118-.502s-1.032.183-1.336.55c-.303.366-.454.82-.454 1.363v4.584l1.023.057v1.516h-4.47v-1.44l.624-.057c.19-.025.329-.079.417-.16.089-.083.133-.238.133-.465h.019v-5.228c0-.215-.035-.363-.104-.445s-.193-.13-.37-.142zm17.578 9.793v-9.168c0-.215-.035-.363-.104-.445s-.193-.123-.37-.123l-.795-.057v-1.534h3.201v1.23c.202-.378.568-.725 1.099-1.04.53-.317 1.162-.474 1.894-.474 2.286 0 3.429 1.603 3.429 4.81 0 1.706-.373 3.013-1.118 3.922-.745.91-1.755 1.364-3.03 1.364-.758 0-1.434-.183-2.028-.55v2.615l1.535.075v1.497h-4.887v-1.44l.625-.057c.19-.025.328-.079.417-.16.088-.083.132-.237.132-.465zm6.005-6.61c0-2.11-.638-3.164-1.913-3.164-.53 0-.982.161-1.355.483-.372.322-.559.704-.559 1.146v4.357c.48.315 1.064.473 1.753.473.688 0 1.206-.315 1.553-.947.347-.631.52-1.414.52-2.349zm12.199-4.338v7.046c0 .202.034.341.104.417s.192.12.37.132l.605.038v1.516h-3.011v-1.099l-.057-.019c-.632.91-1.497 1.364-2.595 1.364-1.288 0-2.242-.41-2.86-1.231s-.929-1.945-.929-3.372c0-1.718.417-3.056 1.25-4.016s2.084-1.44 3.751-1.44c1.073 0 2.197.222 3.372.664zm-2.198 6.137v-4.906c-.353-.164-.84-.246-1.458-.246-.846 0-1.459.34-1.838 1.022-.378.682-.568 1.585-.568 2.71 0 2.045.657 3.068 1.97 3.068.556 0 1.01-.167 1.364-.502.354-.335.53-.717.53-1.146zm11.65 6.08c-.695.657-1.78.985-3.258.985s-2.633-.208-3.467-.625v-2.633l1.8-.151v.909c0 .34.158.571.474.691s.75.18 1.307.18c.808 0 1.376-.243 1.704-.729.329-.486.493-1.171.493-2.055V26.18c-.606.707-1.446 1.06-2.52 1.06-.656 0-1.234-.126-1.733-.378a2.926 2.926 0 0 1-1.165-1.023c-.543-.859-.814-1.869-.814-3.03 0-1.655.448-2.908 1.345-3.76s2.09-1.28 3.58-1.28a8.86 8.86 0 0 1 3.504.701v7.028c0 1.073-.012 1.762-.038 2.065-.113 1.401-.517 2.43-1.212 3.087zm-.947-6.933v-4.072a4.663 4.663 0 0 0-1.516-.227c-.77 0-1.36.284-1.77.852-.411.568-.616 1.339-.616 2.31 0 1.996.656 2.994 1.97 2.994.543 0 1-.168 1.373-.502.373-.335.559-.786.559-1.355zm3.92-4.148v-1.515h3.202v1.23a3.45 3.45 0 0 1 1.307-1.107 3.884 3.884 0 0 1 1.762-.407c.96 0 1.702.274 2.226.824.524.549.786 1.373.786 2.472v4.943l1.08.057v1.516h-4.509v-1.44l.625-.057c.19-.025.329-.079.417-.16.088-.083.133-.238.133-.465v-3.902c0-.695-.108-1.21-.322-1.544-.215-.334-.622-.502-1.222-.502s-1.077.19-1.43.569c-.354.378-.53.827-.53 1.344v4.584l1.079.057v1.516h-4.508v-1.44l.625-.057c.19-.025.328-.079.416-.16.089-.083.133-.238.133-.465v-5.247c0-.379-.158-.574-.473-.587zm14.909-1.515v7.955l1.08.057v1.516h-4.509v-1.44l.625-.057c.366-.038.55-.24.55-.606v-5.266c0-.215-.035-.36-.105-.436-.07-.075-.192-.113-.37-.113l-.662-.038v-1.572zm-2.785-2.633c0-.404.133-.742.398-1.014.265-.271.612-.407 1.042-.407s.78.136 1.051.407c.271.272.407.61.407 1.014s-.136.735-.407.994c-.272.259-.622.388-1.051.388s-.777-.129-1.042-.388-.398-.59-.398-.994zm9.718 2.349c.947 0 1.698.23 2.254.69.555.462.833 1.11.833 1.943 0 .555-.12 1.045-.36 1.468s-.536.754-.89.994-.783.436-1.288.587c-.846.253-1.8.38-2.86.38.037.668.246 1.208.625 1.619.378.41.96.615 1.742.615s1.566-.278 2.35-.833l.719 1.534c-.253.227-.679.461-1.279.701-.6.24-1.285.36-2.055.36-1.54 0-2.67-.426-3.39-1.279s-1.08-2.023-1.08-3.513c0-1.49.41-2.74 1.231-3.751s1.97-1.515 3.448-1.515zm.416 3.779c.392-.285.587-.622.587-1.014 0-.77-.378-1.155-1.136-1.155-.707 0-1.25.28-1.63.843s-.586 1.234-.624 2.017c.555-.013 1.064-.06 1.525-.142a3.07 3.07 0 0 0 1.278-.55z"/><path d="M67.267 44.603a5.277 5.277 0 0 1-1.135.388 6.53 6.53 0 0 1-1.423.139c-.55 0-1.051-.088-1.505-.264-.453-.175-.843-.421-1.169-.738s-.58-.693-.762-1.13A3.744 3.744 0 0 1 61 41.546c0-.543.094-1.034.283-1.471s.447-.81.776-1.117c.329-.306.717-.543 1.164-.709S64.156 38 64.68 38c.543 0 1.04.078 1.49.235s.813.362 1.088.618l-.834.9c-.172-.19-.414-.354-.723-.488a2.517 2.517 0 0 0-1.011-.201c-.358 0-.682.064-.973.191-.29.128-.538.304-.743.527a2.383 2.383 0 0 0-.474.786 2.78 2.78 0 0 0-.168.978c0 .364.056.698.168 1.001s.271.567.479.79c.208.224.46.399.757.523.297.125.634.187 1.011.187.518 0 .968-.08 1.351-.24v-1.725H64.67v-.996h2.597zm2.51-3.057c0-.543.09-1.034.273-1.471a3.23 3.23 0 0 1 .757-1.117c.323-.306.706-.543 1.15-.709S72.885 38 73.41 38c.53 0 1.019.083 1.466.25.447.165.834.402 1.16.708.326.307.58.68.762 1.117.182.437.273.928.273 1.47 0 .531-.091 1.015-.273 1.453a3.348 3.348 0 0 1-1.922 1.868 3.976 3.976 0 0 1-1.466.264 3.911 3.911 0 0 1-1.452-.264c-.444-.175-.827-.421-1.15-.738s-.575-.693-.757-1.13a3.744 3.744 0 0 1-.273-1.452zm1.313 0c0 .364.056.698.167 1.001.112.304.272.567.48.79a2.2 2.2 0 0 0 .738.523c.284.125.599.187.944.187s.66-.062.948-.187c.288-.124.535-.299.743-.522.208-.224.367-.487.48-.79s.167-.638.167-1.002a2.78 2.78 0 0 0-.168-.978c-.112-.3-.27-.562-.474-.786-.205-.223-.45-.399-.738-.527a2.334 2.334 0 0 0-.958-.191c-.352 0-.67.064-.954.191s-.529.304-.733.527a2.383 2.383 0 0 0-.475.786 2.78 2.78 0 0 0-.167.978zm8.518-3.374h1.207v5.712H83.7v1.073h-4.092zm6.266 0h4.38v1.055H87.08v1.859h2.99v1.016h-2.99v2.855h-1.207zm11.757 1.591a1.546 1.546 0 0 0-.7-.532 2.334 2.334 0 0 0-1.802.024c-.286.128-.534.304-.742.527s-.367.486-.479.786a2.78 2.78 0 0 0-.168.978c0 .37.055.709.163 1.016.109.306.264.57.465.79.201.22.443.392.724.513.28.121.597.182.948.182.365 0 .687-.072.968-.216.281-.143.508-.333.68-.57l.969.68c-.3.378-.668.67-1.102.877-.435.208-.943.312-1.524.312-.53 0-1.018-.088-1.462-.264a3.367 3.367 0 0 1-1.145-.738 3.36 3.36 0 0 1-.747-1.13 3.803 3.803 0 0 1-.269-1.452c0-.543.095-1.034.283-1.471s.447-.81.776-1.117a3.446 3.446 0 0 1 1.165-.709 4.152 4.152 0 0 1 2.137-.187c.236.042.463.106.68.192.217.086.422.193.614.321s.354.281.488.46zm3.142-1.59h1.208v5.711h2.884v1.073h-4.092zm11.441 4.293c0 .409-.07.778-.21 1.107-.141.329-.333.608-.576.838s-.53.407-.862.532-.693.187-1.083.187-.75-.062-1.083-.187-.621-.302-.867-.532a2.394 2.394 0 0 1-.575-.838 2.848 2.848 0 0 1-.206-1.107v-4.294h1.207v4.246c0 .198.026.394.077.59.051.194.136.368.254.522s.275.277.47.373c.194.096.435.144.723.144.287 0 .529-.048.724-.144.194-.096.35-.22.47-.373s.202-.328.253-.523c.051-.195.077-.391.077-.59v-4.245h1.207zm2.807-4.294h2.645c.255 0 .508.03.757.092.249.06.471.16.666.297.195.137.353.314.474.531.122.218.182.48.182.786 0 .384-.108.7-.326.95-.217.248-.501.427-.852.536v.019c.428.057.779.223 1.054.498s.412.642.412 1.102c0 .37-.074.682-.22.935-.148.252-.34.455-.58.608-.24.154-.515.264-.825.33-.31.068-.624.101-.944.101h-2.443zm1.207 2.76h1.074c.402 0 .709-.08.92-.24.21-.159.316-.386.316-.68 0-.306-.109-.523-.326-.651s-.556-.192-1.016-.192h-.968zm0 3.01h1.083c.153 0 .32-.012.498-.034s.344-.069.494-.139a.968.968 0 0 0 .374-.307c.099-.134.148-.313.148-.536 0-.358-.121-.607-.364-.748-.243-.14-.61-.21-1.102-.21h-1.13zm9.111-5.77h1.351l1.87 5.223h.037l1.888-5.223h1.304l-2.722 6.785h-1.045zm8.47 0h4.495v1.055h-3.287v1.725h3.114v1.015h-3.114v1.917h3.46v1.073h-4.668zm7.215 0h4.495v1.055h-3.287v1.725h3.114v1.015h-3.114v1.917h3.46v1.073h-4.668zm7.215 0h1.6l3.153 5.08h.02v-5.08h1.207v6.785h-1.533l-3.22-5.242h-.02v5.242h-1.207zm8.844 0h2.405c.441 0 .885.058 1.332.173s.85.305 1.208.57c.358.265.648.614.872 1.045s.335.966.335 1.605c0 .594-.111 1.105-.335 1.533a3.14 3.14 0 0 1-.872 1.054c-.358.275-.76.478-1.208.609a4.721 4.721 0 0 1-1.332.196h-2.405zm2.214 5.731c.313 0 .626-.036.939-.11s.596-.198.848-.374.458-.413.618-.714c.16-.3.24-.68.24-1.14 0-.486-.08-.882-.24-1.188a1.927 1.927 0 0 0-.618-.72c-.252-.172-.535-.29-.848-.354s-.626-.096-.94-.096h-1.006v4.696zm8.374-5.73h1.045l2.923 6.784h-1.38l-.633-1.552h-2.942l-.613 1.552h-1.352zm1.533 4.197l-1.044-2.76-1.064 2.76zm4.474-4.198h1.888l1.764 4.82h.028l1.745-4.82H181v6.785h-1.198v-5.452h-.02l-2.06 5.452h-.843l-2.031-5.452h-.02v5.452h-1.15z" opacity=".4" stroke="#fff" stroke-width=".25"/></g></svg>