<svg height="35" viewBox="0 0 221 35" width="221" xmlns="http://www.w3.org/2000/svg"><g fill="none" fill-rule="evenodd"><path d="M218 35a3 3 0 0 0 3-3v3H55c6.137-3.412 10.29-9.97 10.29-17.5C65.29 9.97 61.138 3.412 55 0h166v3c0-1.657-1.34-3-2.994-3H221v35h-1.5zM81.92 24.4V7.51H77V28.3h12.51l.51-3.9zm24.71-13.38l.51-3.51H94.39V28.3h12.75v-3.54h-7.83v-5.31h6.39V16h-6.39v-4.98zm21.47-1.47c-1.94-1.7-4.26-2.55-6.96-2.55-1.86 0-3.545.425-5.055 1.275s-2.7 2.095-3.57 3.735-1.305 3.6-1.305 5.88c0 3.58.795 6.295 2.385 8.145 1.59 1.85 3.945 2.775 7.065 2.775 1.36 0 2.69-.19 3.99-.57 1.3-.38 2.49-.92 3.57-1.62V16.33h-7.95l.48 3.48h2.7v4.71c-.84.46-1.78.69-2.82.69-1.48 0-2.57-.555-3.27-1.665-.7-1.11-1.05-2.995-1.05-5.655 0-2.46.46-4.295 1.38-5.505.92-1.21 2.15-1.815 3.69-1.815.82 0 1.545.13 2.175.39s1.295.68 1.995 1.26zm17.66 1.47l.51-3.51h-12.75V28.3h12.75v-3.54h-7.83v-5.31h6.39V16h-6.39v-4.98zm21.56 17.28V7.51h-4.41v8.4c0 2.42.22 5 .66 7.74l-6.15-16.14h-6.12V28.3h4.38v-7.62c0-1.66-.055-3.095-.165-4.305-.11-1.21-.265-2.605-.465-4.185l6 16.11zm19.505-18.585c-1.97-1.47-4.585-2.205-7.845-2.205h-5.79V28.3h6.24c3.06 0 5.55-.785 7.47-2.355 1.92-1.57 2.88-4.285 2.88-8.145 0-3.92-.985-6.615-2.955-8.085zm-8.715 1.365h1.56c1.06 0 1.95.185 2.67.555.72.37 1.29 1.045 1.71 2.025s.63 2.36.63 4.14c0 2.6-.42 4.405-1.26 5.415-.84 1.01-2.07 1.515-3.69 1.515h-1.62zm27.215-3.42c-1.15-.44-2.505-.66-4.065-.66-1.44 0-2.73.245-3.87.735s-2.03 1.19-2.67 2.1c-.64.91-.96 1.965-.96 3.165 0 1.56.485 2.85 1.455 3.87s2.605 1.88 4.905 2.58c1.02.32 1.8.62 2.34.9s.92.595 1.14.945c.22.35.33.785.33 1.305 0 .8-.295 1.425-.885 1.875-.59.45-1.395.675-2.415.675-1 0-1.925-.17-2.775-.51s-1.675-.85-2.475-1.53l-2.49 2.73c.94.9 2.065 1.62 3.375 2.16s2.815.81 4.515.81c1.7 0 3.17-.275 4.41-.825 1.24-.55 2.19-1.32 2.85-2.31s.99-2.135.99-3.435c0-1.82-.5-3.225-1.5-4.215-1-.99-2.56-1.825-4.68-2.505-1.12-.36-1.96-.67-2.52-.93s-.95-.535-1.17-.825c-.22-.29-.33-.665-.33-1.125 0-.66.25-1.165.75-1.515.5-.35 1.18-.525 2.04-.525 1.62 0 3.14.58 4.56 1.74l2.28-2.67a9.327 9.327 0 0 0-3.135-2.01z" fill="#fff"/><path d="M42.5 10a7.5 7.5 0 1 1-.5 14.984L15 25a5 5 0 0 0 5 5h22v5H20c-5.523 0-10-4.477-10-10v-1.338A9.996 9.996 0 0 1 5 15v-1.338A9.996 9.996 0 0 1 0 5V0h42v5H5a5 5 0 0 0 5 5h32c.165.006.332 0 .5 0zm-7.073 10c-.277-.782-.427-1.623-.427-2.5s.15-1.718.427-2.5H10a5 5 0 0 0 5 5zM42 .007c.166-.005.333-.007.5-.007C52.165 0 60 7.835 60 17.5S52.165 35 42.5 35c-.167 0-.334-.002-.5-.007V29.99c.166.007.333.01.5.01C49.404 30 55 24.404 55 17.5S49.404 5 42.5 5c-.167 0-.334.003-.5.01zM42.5 20a2.5 2.5 0 1 0 0-5 2.5 2.5 0 0 0 0 5z" fill="#f59300"/></g></svg>