<svg height="81" viewBox="0 0 212 81" width="212" xmlns="http://www.w3.org/2000/svg"><filter id="a" height="143.1%" width="143.1%" x="-21.5%" y="-15.4%"><feOffset dy="4" in="SourceAlpha" result="shadowOffsetOuter1"/><feGaussianBlur in="shadowOffsetOuter1" result="shadowBlurOuter1" stdDeviation="4"/><feColorMatrix in="shadowBlurOuter1" result="shadowMatrixOuter1" values="0 0 0 0 0.0941176471 0 0 0 0 0 0 0 0 0 0.262745098 0 0 0 0.2 0"/><feMerge><feMergeNode in="shadowMatrixOuter1"/><feMergeNode in="SourceGraphic"/></feMerge></filter><linearGradient id="b" x1="0%" y1="50%" y2="50%"><stop offset="0" stop-color="#833ab4"/><stop offset="1" stop-color="#fd1d1d"/></linearGradient><g fill="none" fill-rule="evenodd" transform="translate(8 4)"><g filter="url(#a)"><path d="M41.312 4.65c-4.867-4.867-12.757-4.867-17.624 0L4.65 23.688c-4.867 4.867-4.867 12.757 0 17.624L23.688 60.35c4.867 4.867 12.757 4.867 17.624 0L60.35 41.312c4.867-4.867 4.867-12.757 0-17.624z" fill="url(#b)" stroke="#fff" stroke-width="2"/><g fill="#fff"><path d="M44.2 32.934a6.5 6.5 0 0 0-6.5-6.5H24.723a6.002 6.002 0 0 0-5.981 6.5 7.089 7.089 0 0 0 7.064 6.5H37.7a6.5 6.5 0 0 0 6.5-6.5z" opacity=".34"/><path d="M39.394 13.179a6.03 6.03 0 0 1 0 8.529L22.336 38.766c-4.71-4.71-4.71-12.348 0-17.058l8.529-8.53a6.03 6.03 0 0 1 8.529 0zM24.259 52.75a6.03 6.03 0 0 1 0-8.529l17.058-17.058c4.71 4.71 4.71 12.348 0 17.058l-8.53 8.53a6.03 6.03 0 0 1-8.528 0z"/></g></g><circle cx="201.5" cy="37.7" fill="#370002" r="2.167"/><path d="M79.649 35.265c.7.74 1.525 1.335 2.475 1.785.95.45 1.935.675 2.955.675 1.3 0 2.31-.295 3.03-.885.72-.59 1.08-1.365 1.08-2.325 0-.5-.085-.925-.255-1.275-.17-.35-.4-.65-.69-.9-.29-.25-.635-.475-1.035-.675s-.83-.41-1.29-.63l-2.82-1.23c-.46-.2-.93-.44-1.41-.72-.48-.28-.91-.62-1.29-1.02s-.69-.875-.93-1.425-.36-1.185-.36-1.905c0-.74.155-1.43.465-2.07s.74-1.195 1.29-1.665 1.2-.835 1.95-1.095 1.575-.39 2.475-.39c1.18 0 2.27.225 3.27.675 1 .45 1.85 1.035 2.55 1.755l-1.35 1.62a7.014 7.014 0 0 0-1.995-1.365c-.73-.33-1.555-.495-2.475-.495-1.1 0-1.985.255-2.655.765s-1.005 1.215-1.005 2.115c0 .48.095.885.285 1.215s.445.62.765.87.67.47 1.05.66.77.365 1.17.525l2.79 1.2c.56.24 1.09.515 1.59.825.5.31.93.67 1.29 1.08.36.41.645.89.855 1.44.21.55.315 1.185.315 1.905 0 .78-.155 1.51-.465 2.19a5.267 5.267 0 0 1-1.335 1.785c-.58.51-1.28.91-2.1 1.2-.82.29-1.75.435-2.79.435-1.38 0-2.66-.26-3.84-.78s-2.2-1.23-3.06-2.13zm15 .51c0-1.6.715-2.825 2.145-3.675 1.43-.85 3.705-1.445 6.825-1.785 0-.46-.045-.91-.135-1.35-.09-.44-.25-.83-.48-1.17-.23-.34-.535-.615-.915-.825s-.87-.315-1.47-.315c-.86 0-1.655.16-2.385.48-.73.32-1.385.68-1.965 1.08l-.99-1.71c.68-.44 1.51-.865 2.49-1.275s2.06-.615 3.24-.615c1.78 0 3.07.545 3.87 1.635s1.2 2.545 1.2 4.365v8.94h-2.04l-.21-1.74h-.06c-.7.58-1.455 1.075-2.265 1.485-.81.41-1.665.615-2.565.615-1.24 0-2.265-.36-3.075-1.08-.81-.72-1.215-1.74-1.215-3.06zm2.43-.18c0 .84.245 1.44.735 1.8.49.36 1.095.54 1.815.54.7 0 1.365-.165 1.995-.495.63-.33 1.295-.815 1.995-1.455v-4.05c-1.22.16-2.25.35-3.09.57s-1.515.48-2.025.78c-.51.3-.875.645-1.095 1.035-.22.39-.33.815-.33 1.275zm14.07-8.61h-2.16v-1.86l2.28-.15.3-4.08h2.07v4.08h3.93v2.01h-3.93v8.1c0 .9.165 1.595.495 2.085.33.49.915.735 1.755.735.26 0 .54-.04.84-.12s.57-.17.81-.27l.48 1.86c-.4.14-.835.265-1.305.375-.47.11-.935.165-1.395.165-.78 0-1.435-.12-1.965-.36a3.38 3.38 0 0 1-1.29-.99c-.33-.42-.565-.93-.705-1.53s-.21-1.26-.21-1.98zm8.73 16.59l.54.135c.2.05.39.075.57.075.84 0 1.525-.295 2.055-.885.53-.59.945-1.335 1.245-2.235l.33-1.08-5.85-14.61h2.55l2.97 8.07c.22.64.455 1.315.705 2.025.25.71.485 1.405.705 2.085h.12c.22-.66.43-1.35.63-2.07s.4-1.4.6-2.04l2.61-8.07h2.4l-5.49 15.78c-.26.72-.55 1.39-.87 2.01s-.7 1.155-1.14 1.605c-.44.45-.94.805-1.5 1.065s-1.21.39-1.95.39c-.34 0-.65-.025-.93-.075-.28-.05-.54-.125-.78-.225zm14.61-7.32c.64.52 1.295.94 1.965 1.26.67.32 1.445.48 2.325.48.96 0 1.68-.22 2.16-.66s.72-.98.72-1.62c0-.38-.1-.71-.3-.99s-.455-.525-.765-.735a5.604 5.604 0 0 0-1.065-.555l-1.2-.48c-.52-.18-1.04-.385-1.56-.615a6.23 6.23 0 0 1-1.395-.84c-.41-.33-.745-.715-1.005-1.155s-.39-.97-.39-1.59c0-.58.115-1.125.345-1.635.23-.51.56-.95.99-1.32.43-.37.955-.66 1.575-.87s1.32-.315 2.1-.315c.92 0 1.765.16 2.535.48.77.32 1.435.71 1.995 1.17l-1.17 1.56c-.5-.38-1.02-.69-1.56-.93s-1.13-.36-1.77-.36c-.92 0-1.595.21-2.025.63-.43.42-.645.91-.645 1.47 0 .34.09.635.27.885.18.25.42.47.72.66.3.19.645.36 1.035.51l1.215.465c.52.2 1.045.41 1.575.63.53.22 1.005.495 1.425.825.42.33.765.735 1.035 1.215.27.48.405 1.06.405 1.74 0 .6-.115 1.16-.345 1.68a4 4 0 0 1-1.02 1.38c-.45.4-1.01.715-1.68.945-.67.23-1.435.345-2.295.345-1.04 0-2.03-.19-2.97-.57s-1.76-.86-2.46-1.44z" fill="#370002"/><path d="M161.851 44.278c3.237 1.92 6.389 2.856 9.482 2.856s6.246-.935 9.482-2.856c1.084-.644 2.74-.1 2.74.898v.783c0 .347-.216.675-.593.899-3.8 2.255-7.685 3.408-11.629 3.408-3.943 0-7.828-1.153-11.629-3.408-.376-.224-.593-.552-.593-.899v-.783c0-.999 1.656-1.542 2.74-.898z" fill="#8639b0" fill-rule="nonzero"/><path d="M156.629 35.415c0-1.56.66-2.78 1.98-3.66s3.45-1.47 6.39-1.77c-.04-.66-.24-1.185-.6-1.575-.36-.39-.94-.585-1.74-.585-.64 0-1.28.12-1.92.36s-1.32.57-2.04.99l-1.56-2.91c.96-.58 1.965-1.05 3.015-1.41 1.05-.36 2.165-.54 3.345-.54 1.92 0 3.385.545 4.395 1.635 1.01 1.09 1.515 2.785 1.515 5.085v8.52h-3.6l-.33-1.53h-.09a9.359 9.359 0 0 1-2.025 1.365c-.71.35-1.485.525-2.325.525-.68 0-1.29-.115-1.83-.345-.54-.23-1-.55-1.38-.96a4.443 4.443 0 0 1-.885-1.425 4.843 4.843 0 0 1-.315-1.77zm4.2-.33c0 .48.155.835.465 1.065.31.23.725.345 1.245.345s.96-.11 1.32-.33.74-.53 1.14-.93v-2.61c-1.58.22-2.67.54-3.27.96s-.9.92-.9 1.5zm-5.49-13.14c-.56-.2-1.07-.3-1.53-.3-.54 0-.96.165-1.26.495s-.45.875-.45 1.635v.9h2.67v3.45h-2.67l.001 11.52h-4.411v-11.52h-1.98v-3.27l1.98-.15v-.81c0-.78.095-1.52.285-2.22.19-.7.505-1.31.945-1.83s1.01-.93 1.71-1.23 1.55-.45 2.55-.45c.62 0 1.185.06 1.695.18s.935.24 1.275.36zm16.98 10.17c0-1.24.21-2.345.63-3.315.42-.97.985-1.785 1.695-2.445a7.372 7.372 0 0 1 2.475-1.515c.94-.35 1.92-.525 2.94-.525.92 0 1.75.155 2.49.465s1.36.725 1.86 1.245l-2.01 2.73c-.7-.58-1.39-.87-2.07-.87-1.08 0-1.93.38-2.55 1.14s-.93 1.79-.93 3.09.315 2.33.945 3.09c.63.76 1.425 1.14 2.385 1.14.54 0 1.03-.11 1.47-.33s.84-.47 1.2-.75l1.77 2.79c-.72.64-1.52 1.11-2.4 1.41a7.84 7.84 0 0 1-5.445-.075c-.89-.35-1.665-.855-2.325-1.515s-1.18-1.475-1.56-2.445c-.38-.97-.57-2.075-.57-3.315zm15.48-3.99h-2.04v-3.27l2.28-.18.51-3.96h3.66v3.96h3.57v3.45h-3.57v5.97c0 .84.175 1.445.525 1.815.35.37.815.555 1.395.555.24 0 .485-.03.735-.09s.475-.13.675-.21l.69 3.21c-.4.12-.87.24-1.41.36s-1.17.18-1.89.18c-.92 0-1.705-.14-2.355-.42s-1.18-.67-1.59-1.17-.71-1.105-.9-1.815a9.102 9.102 0 0 1-.285-2.355z" fill="#370002"/></g></svg>