<svg height="48" viewBox="0 0 290 48" width="290" xmlns="http://www.w3.org/2000/svg"><filter id="a" height="117.5%" width="102.4%" x="-1.2%" y="-5.6%"><feOffset dy="1" in="SourceAlpha" result="shadowOffsetOuter1"/><feGaussianBlur in="shadowOffsetOuter1" result="shadowBlurOuter1" stdDeviation="1"/><feComposite in="shadowBlurOuter1" in2="SourceAlpha" operator="out" result="shadowBlurOuter1"/><feColorMatrix in="shadowBlurOuter1" result="shadowMatrixOuter1" values="0 0 0 0 0 0 0 0 0 0 0 0 0 0 0 0 0 0 0.24 0"/><feMerge><feMergeNode in="shadowMatrixOuter1"/><feMergeNode in="SourceGraphic"/></feMerge></filter><g fill="#ab1a3a" fill-rule="evenodd" filter="url(#a)" transform="translate(2 1)"><g fill-rule="nonzero"><path d="M29.528 30.794c-.358 5.998-5.439 10.318-11.578 11.222-.84.105-1.74.16-2.604.16-5.332 0-10.515-2.253-13.735-6.064-1.566-1.864-1.338-4.619.53-6.262 1.869-1.57 4.642-1.339 6.2.515 1.842 2.136 5.235 3.316 8.372 2.85 2.2-.315 3.86-1.54 3.944-2.956.096-1.442-1.096-2.882-2.863-3.28-.688-.171-1.36-.232-2.892-.3-2.612-.148-3.735-.272-5.23-.682a12.16 12.16 0 0 1-3.713-1.703C1.835 21.47-.192 16.326 1.066 11.75c1.344-4.87 5.773-8.6 11.06-9.379 4.919-.695 10.167.68 14.028 3.67 1.881 1.505 2.226 4.31.728 6.257-1.504 1.881-4.31 2.226-6.256.728-1.9-1.519-4.69-2.24-7.28-1.858-1.79.266-3.329 1.513-3.712 2.973-.258.905.336 2.131 1.385 2.843.766.53 1.716.697 4.286.823l.584.04c1.867.123 2.729.218 3.884.487C25.65 19.625 29.87 25 29.528 30.794zm9.852-20.006c-2.47 0-4.464-2.016-4.464-4.512a4.472 4.472 0 0 1 4.464-4.464h22.898a4.472 4.472 0 0 1 4.464 4.464c0 2.496-1.994 4.512-4.464 4.512h-6.986v26.974c0 2.496-1.993 4.512-4.463 4.512a4.493 4.493 0 0 1-4.513-4.512V10.788zm48.215 31.486c-8.38 0-15.468-5.898-15.468-14.53V6.324a4.493 4.493 0 0 1 4.513-4.513c2.51 0 4.562 2.007 4.562 4.513v21.418c0 3.243 2.774 5.407 6.393 5.407 3.664 0 6.444-2.16 6.444-5.407V6.325c0-2.506 2.052-4.513 4.562-4.513a4.493 4.493 0 0 1 4.512 4.513v21.418c0 8.641-7.094 14.531-15.518 14.531zm67.735-32.14c-2.47 0-4.463-2.017-4.463-4.513a4.472 4.472 0 0 1 4.463-4.463h22.899a4.472 4.472 0 0 1 4.463 4.463c0 2.496-1.994 4.513-4.463 4.513h-6.986v26.973c0 2.496-1.994 4.513-4.464 4.513a4.493 4.493 0 0 1-4.512-4.513V10.134zM209.567 17a4.44 4.44 0 0 1 4.463 4.463c0 2.457-2.003 4.414-4.463 4.414h-12.612v6.767h12.612a4.472 4.472 0 0 1 4.463 4.463c0 2.457-2.003 4.414-4.463 4.414H192.49a4.388 4.388 0 0 1-4.414-4.414V5.523c0-2.46 1.957-4.464 4.414-4.464h17.076a4.472 4.472 0 0 1 4.463 4.464 4.472 4.472 0 0 1-4.463 4.463h-12.612V17zm42.465 20.073a4.453 4.453 0 0 1-8.025 2.977l-16.06-21.232v17.915a4.453 4.453 0 1 1-8.852.504 5.106 5.106 0 0 1-.004-.18V4.764l.04-.01a4.454 4.454 0 0 1 7.996-2.054l16.026 21.162V5.71a4.453 4.453 0 1 1 8.89-.232l.001.142v31.437c0 .003-.004.008-.012.015z"/><path d="M108.655 6.22h11.578v31.269h-11.578zM131.877 6.22h11.512v29.487l-11.512-5.343z" opacity=".4"/><path d="M133.901 40.796L109.938 9.781c-1.946-2.519-1.644-6.274.676-8.388 2.319-2.114 5.777-1.785 7.723.734l23.964 31.015c1.946 2.519 1.644 6.275-.676 8.388s-5.777 1.785-7.724-.734z"/><circle cx="137.6" cy="5.789" r="5.789" transform="matrix(-1 0 0 1 275.2 0)"/><circle cx="114.521" cy="37.547" r="5.789" transform="matrix(-1 0 0 1 229.041 0)"/></g><path d="M271.675 28.392c3.477 0 6.307 2.995 6.307 6.693v5.1c0 .891-.701 1.62-1.59 1.62a1.606 1.606 0 0 1-1.618-1.62v-5.1c0-1.916-1.401-3.455-3.1-3.455-2.101 0-3.18 2.105-3.18 3.968v4.588c0 .89-.727 1.619-1.617 1.619s-1.617-.729-1.617-1.62V29.877c0-.89.728-1.62 1.617-1.62.701 0 1.294.46 1.51 1.107a6.025 6.025 0 0 1 3.288-.971zM284.1 38.593c.917 0 1.644.729 1.644 1.62 0 .917-.727 1.646-1.644 1.646-1.132 0-2.237-.567-2.938-1.457-.808-1.053-.754-2.24-.754-3.509V22.994c0-.89.727-1.62 1.617-1.62.916 0 1.644.73 1.644 1.62V37.65c0 .08-.027.162-.027.243s.027.162.027.243c0 .242.189.458.431.458zm-25.712 3.266h-.22c-.931 0-1.67-.767-1.67-1.754 0-.986.739-1.809 1.67-1.809h.22c.904 0 1.672.823 1.672 1.81 0 .986-.768 1.753-1.672 1.753z"/></g></svg>