<svg xmlns="http://www.w3.org/2000/svg" width="268" height="89" viewBox="0 0 268 89">
  <g fill="none" fill-rule="evenodd" transform="translate(-1 -1)">
    <g transform="translate(231.806 31.935)">
      <path fill="#BF2824" d="M36.8480343,11.9097782 C36.8480343,13.0060539 36.4794644,13.8187978 35.7423135,14.3480343 C35.0051626,14.8772708 34.1829682,15.3781478 33.2757056,15.8506804 C32.368443,16.323213 31.5462486,16.8807932 30.8090978,17.5234375 C30.0719469,18.1660818 29.703377,19.1300339 29.703377,20.4153226 C29.703377,21.0957695 29.8640357,21.6817012 30.1853579,22.1731351 C30.50668,22.664569 30.9036015,23.108743 31.3761341,23.5056704 C31.8486667,23.9025978 32.3684447,24.3089697 32.9354839,24.7247984 C33.502523,25.1406271 34.0223011,25.6131526 34.4948337,26.1423891 C34.9673663,26.6716256 35.3642877,27.3142603 35.6856099,28.0703125 C36.0069321,28.8263647 36.1675907,29.7525147 36.1675907,30.8487903 C36.1675907,32.4364999 35.7612188,33.9958341 34.9484627,35.5268397 C34.1357066,37.0578454 33.0961505,38.4187188 31.8297631,39.609501 C30.5633757,40.8002832 29.1363487,41.7547847 27.5486391,42.4730343 C25.9609296,43.1912838 24.3921448,43.5504032 22.8422379,43.5504032 C22.1995936,43.5504032 21.5569589,43.5031507 20.9143145,43.4086442 C20.2716702,43.3141376 19.695189,43.1345779 19.1848538,42.8699597 C18.6745186,42.6053414 18.2492457,42.2367715 17.9090222,41.7642389 C17.5687987,41.2917063 17.3986895,40.6774231 17.3986895,39.921371 C17.3986895,38.8628979 17.6066007,38.0407035 18.0224294,37.4547631 C18.4382581,36.8688227 18.9674867,36.4057477 19.610131,36.0655242 C20.2527754,35.7253007 20.9426626,35.4606864 21.6798135,35.2716734 C22.4169644,35.0826603 23.1068516,34.8463976 23.749496,34.562878 C24.3921403,34.2793585 24.9213689,33.9107886 25.3371976,33.4571573 C25.7530263,33.003526 25.9609375,32.3608913 25.9609375,31.5292339 C25.9609375,30.7353791 25.6490707,29.9131847 25.0253276,29.062626 C24.4015846,28.2120673 23.7116973,27.3048183 22.9556452,26.3408518 C22.199593,25.3768853 21.5097057,24.3467797 20.8859627,23.250504 C20.2622197,22.1542284 19.9503528,20.9445631 19.9503528,19.6214718 C19.9503528,17.9959596 20.2811207,16.4933285 20.9426663,15.1135333 C21.604212,13.7337381 22.4925599,12.5335232 23.6077369,11.5128528 C24.7229138,10.4921824 25.9987327,9.68888902 27.4352319,9.10294859 C28.871731,8.51700816 30.3838126,8.22404234 31.9715222,8.22404234 C32.5763639,8.22404234 33.1717461,8.2807454 33.7576865,8.39415323 C34.3436269,8.50756105 34.863405,8.70602177 35.3170363,8.98954133 C35.7706676,9.27306089 36.1392375,9.65108131 36.4227571,10.1236139 C36.7062766,10.5961465 36.8480343,11.1915287 36.8480343,11.9097782 Z"/>
      <path fill="#F15959" d="M34.8480343,10.9097782 C34.8480343,12.0060539 34.4794644,12.8187978 33.7423135,13.3480343 C33.0051626,13.8772708 32.1829682,14.3781478 31.2757056,14.8506804 C30.368443,15.323213 29.5462486,15.8807932 28.8090978,16.5234375 C28.0719469,17.1660818 27.703377,18.1300339 27.703377,19.4153226 C27.703377,20.0957695 27.8640357,20.6817012 28.1853579,21.1731351 C28.50668,21.664569 28.9036015,22.108743 29.3761341,22.5056704 C29.8486667,22.9025978 30.3684447,23.3089697 30.9354839,23.7247984 C31.502523,24.1406271 32.0223011,24.6131526 32.4948337,25.1423891 C32.9673663,25.6716256 33.3642877,26.3142603 33.6856099,27.0703125 C34.0069321,27.8263647 34.1675907,28.7525147 34.1675907,29.8487903 C34.1675907,31.4364999 33.7612188,32.9958341 32.9484627,34.5268397 C32.1357066,36.0578454 31.0961505,37.4187188 29.8297631,38.609501 C28.5633757,39.8002832 27.1363487,40.7547847 25.5486391,41.4730343 C23.9609296,42.1912838 22.3921448,42.5504032 20.8422379,42.5504032 C20.1995936,42.5504032 19.5569589,42.5031507 18.9143145,42.4086442 C18.2716702,42.3141376 17.695189,42.1345779 17.1848538,41.8699597 C16.6745186,41.6053414 16.2492457,41.2367715 15.9090222,40.7642389 C15.5687987,40.2917063 15.3986895,39.6774231 15.3986895,38.921371 C15.3986895,37.8628979 15.6066007,37.0407035 16.0224294,36.4547631 C16.4382581,35.8688227 16.9674867,35.4057477 17.610131,35.0655242 C18.2527754,34.7253007 18.9426626,34.4606864 19.6798135,34.2716734 C20.4169644,34.0826603 21.1068516,33.8463976 21.749496,33.562878 C22.3921403,33.2793585 22.9213689,32.9107886 23.3371976,32.4571573 C23.7530263,32.003526 23.9609375,31.3608913 23.9609375,30.5292339 C23.9609375,29.7353791 23.6490707,28.9131847 23.0253276,28.062626 C22.4015846,27.2120673 21.7116973,26.3048183 20.9556452,25.3408518 C20.199593,24.3768853 19.5097057,23.3467797 18.8859627,22.250504 C18.2622197,21.1542284 17.9503528,19.9445631 17.9503528,18.6214718 C17.9503528,16.9959596 18.2811207,15.4933285 18.9426663,14.1135333 C19.604212,12.7337381 20.4925599,11.5335232 21.6077369,10.5128528 C22.7229138,9.4921824 23.9987327,8.68888902 25.4352319,8.10294859 C26.871731,7.51700816 28.3838126,7.22404234 29.9715222,7.22404234 C30.5763639,7.22404234 31.1717461,7.2807454 31.7576865,7.39415323 C32.3436269,7.50756105 32.863405,7.70602177 33.3170363,7.98954133 C33.7706676,8.27306089 34.1392375,8.65108131 34.4227571,9.12361391 C34.7062766,9.59614652 34.8480343,10.1915287 34.8480343,10.9097782 Z"/>
      <path fill="#C78100" d="M10.3994456,3.51764113 C10.3994456,4.04687765 10.2576879,4.51940316 9.97416835,4.93523185 C9.69064878,5.35106055 9.32207888,5.71963045 8.86844758,6.04095262 C8.41481628,6.36227479 7.92338974,6.60798806 7.39415323,6.7780998 C6.86491671,6.94821154 6.37349017,7.03326613 5.91985887,7.03326613 C5.1638067,7.03326613 4.50227098,6.84425592 3.93523185,6.46622984 C3.36819273,6.08820376 3.08467742,5.50227211 3.08467742,4.70841734 C3.08467742,4.14137821 3.22643507,3.64050117 3.50995464,3.20577117 C3.7934742,2.77104117 4.14314308,2.41192178 4.55897177,2.12840222 C4.97480047,1.84488265 5.44732598,1.62752092 5.9765625,1.47631048 C6.50579902,1.32510005 7.01612658,1.24949597 7.50756048,1.24949597 C8.22581004,1.24949597 8.88734577,1.41960515 9.4921875,1.75982863 C10.0970292,2.1000521 10.3994456,2.68598374 10.3994456,3.51764113 Z"/>
      <path fill="#FAA619" d="M9.39944556,2.51764113 C9.39944556,3.04687765 9.25768791,3.51940316 8.97416835,3.93523185 C8.69064878,4.35106055 8.32207888,4.71963045 7.86844758,5.04095262 C7.41481628,5.36227479 6.92338974,5.60798806 6.39415323,5.7780998 C5.86491671,5.94821154 5.37349017,6.03326613 4.91985887,6.03326613 C4.1638067,6.03326613 3.50227098,5.84425592 2.93523185,5.46622984 C2.36819273,5.08820376 2.08467742,4.50227211 2.08467742,3.70841734 C2.08467742,3.14137821 2.22643507,2.64050117 2.50995464,2.20577117 C2.7934742,1.77104117 3.14314308,1.41192178 3.55897177,1.12840222 C3.97480047,0.844882655 4.44732598,0.627520917 4.9765625,0.476310484 C5.50579902,0.32510005 6.01612658,0.249495968 6.50756048,0.249495968 C7.22581004,0.249495968 7.88734577,0.419605154 8.4921875,0.759828629 C9.09702923,1.1000521 9.39944556,1.68598374 9.39944556,2.51764113 Z"/>
      <path fill="#C78100" d="M11.8530746,22.796875 L11.8530746,24.4696321 C11.8530746,25.0555725 11.8341736,25.6131526 11.796371,26.1423891 C11.7585684,26.7850335 11.7396673,27.6450299 11.7396673,28.7224042 C11.7396673,29.7997786 11.7018653,30.9621913 11.6262601,32.2096774 C11.5506549,33.4571635 11.4277982,34.7235319 11.2576865,36.0088206 C11.0875748,37.2941092 10.81351,38.4659725 10.4354839,39.5244456 C10.0574578,40.5829186 9.55658074,41.442915 8.9328377,42.1044607 C8.30909466,42.7660063 7.52470231,43.1156752 6.5796371,43.1534778 C5.86138754,43.1912804 5.25655488,42.9077651 4.76512097,42.3029234 C4.27368706,41.6980817 3.86731511,40.9136893 3.54599294,39.9497228 C3.22467077,38.9857563 2.98840801,37.9083981 2.83719758,36.7176159 C2.68598715,35.5268338 2.57258102,34.3738715 2.49697581,33.2586946 C2.42137059,32.1435176 2.38356855,31.113412 2.38356855,30.1683468 L2.38356855,25.4902974 C2.38356855,24.3751204 2.42137059,23.1749056 2.49697581,21.8896169 C2.57258102,20.6043283 2.71433868,19.3001578 2.92225302,17.9770665 C3.13016737,16.6539752 3.4325837,15.4443099 3.82951109,14.3480343 C4.22643848,13.2517586 4.74621654,12.3634107 5.38886089,11.6829637 C6.03150523,11.0025168 6.84424912,10.6622984 7.82711694,10.6622984 C8.84778736,10.6622984 9.62272921,11.1726259 10.1519657,12.1932964 C10.6812022,13.2139668 11.0781237,14.4047311 11.3427419,15.765625 C11.6073602,17.1265189 11.7585684,18.4779419 11.796371,19.8199345 C11.8341736,21.1619271 11.8530746,22.1542307 11.8530746,22.796875 Z"/>
      <path fill="#FAA619" d="M9.8530746,21.796875 L9.8530746,23.4696321 C9.8530746,24.0555725 9.83417358,24.6131526 9.79637097,25.1423891 C9.75856836,25.7850335 9.73966734,26.6450299 9.73966734,27.7224042 C9.73966734,28.7997786 9.7018653,29.9621913 9.62626008,31.2096774 C9.55065486,32.4571635 9.42779823,33.7235319 9.25768649,35.0088206 C9.08757475,36.2941092 8.81350995,37.4659725 8.43548387,38.5244456 C8.05745779,39.5829186 7.55658074,40.442915 6.9328377,41.1044607 C6.30909466,41.7660063 5.52470231,42.1156752 4.5796371,42.1534778 C3.86138754,42.1912804 3.25655488,41.9077651 2.76512097,41.3029234 C2.27368706,40.6980817 1.86731511,39.9136893 1.54599294,38.9497228 C1.22467077,37.9857563 0.988408014,36.9083981 0.837197581,35.7176159 C0.685987147,34.5268338 0.572581023,33.3738715 0.496975806,32.2586946 C0.42137059,31.1435176 0.383568548,30.113412 0.383568548,29.1683468 L0.383568548,24.4902974 C0.383568548,23.3751204 0.42137059,22.1749056 0.496975806,20.8896169 C0.572581023,19.6043283 0.714338678,18.3001578 0.922253024,16.9770665 C1.13016737,15.6539752 1.4325837,14.4443099 1.82951109,13.3480343 C2.22643848,12.2517586 2.74621654,11.3634107 3.38886089,10.6829637 C4.03150523,10.0025168 4.84424912,9.66229839 5.82711694,9.66229839 C6.84778736,9.66229839 7.62272921,10.1726259 8.15196573,11.1932964 C8.68120224,12.2139668 9.07812368,13.4047311 9.34274194,14.765625 C9.60736019,16.1265189 9.75856836,17.4779419 9.79637097,18.8199345 C9.83417358,20.1619271 9.8530746,21.1542307 9.8530746,21.796875 Z"/>
    </g>
    <path fill="#007180" d="M165.456325,29.3869223 L165.456325,30.9180863 C165.456325,31.8967066 165.440015,33.1525839 165.407394,34.6857557 C165.374773,36.2189276 165.358463,37.4421846 165.358463,38.3555636 C165.358463,39.1314857 165.353957,39.8691037 165.344946,40.5684205 C166.649206,40.4088764 168.214059,40.3291047 170.039507,40.3291047 C172.783519,40.3291047 175.095459,40.5044233 176.97538,40.8550651 C176.978909,40.297735 176.984764,39.731098 176.992946,39.1551524 C176.987652,38.7848045 176.983177,38.4095401 176.979522,38.0293585 C176.963211,36.3330832 176.971366,34.5389729 177.003987,32.6469735 L177.003987,29.319681 C177.003987,29.2220677 177.004003,29.1254968 177.004034,29.0299682 C175.193022,29.6471795 173.067252,29.9557811 170.626676,29.9557811 C168.713596,29.9557811 166.990153,29.7661628 165.456325,29.3869223 Z M165.456325,23.1357095 C166.738002,22.9850696 168.265729,22.9097499 170.039507,22.9097499 C172.816635,22.9097499 175.151199,23.0893257 177.043255,23.448482 C177.064437,22.4335086 177.100279,21.1937716 177.150779,19.7292497 C177.216021,17.8372504 177.338346,16.4019621 177.51776,15.4233418 C177.697174,14.4447215 177.93367,13.4171855 178.227256,12.3407032 C178.520842,11.2642208 178.92044,10.4813363 179.42606,9.9920261 C179.931681,9.50271593 180.526999,9.25806452 181.212033,9.25806452 C181.864447,9.32330587 182.443455,9.48640681 182.949076,9.74737224 C183.454696,10.0083377 183.878759,10.4324001 184.221276,11.0195723 C184.563793,11.6067445 184.86553,12.2265281 185.126495,12.8789416 C185.387461,13.5313552 185.583182,14.36317 185.713664,15.374411 C185.844147,16.385652 185.942008,17.3479476 186.007249,18.2613266 C186.07249,19.1747055 186.105111,20.300102 186.105111,21.6375498 L186.105111,25.1116347 C186.105111,25.4937331 186.102624,25.9180989 186.097651,26.3847342 C186.102624,26.7216604 186.105111,27.0747492 186.105111,27.4440014 L186.105111,30.9180863 C186.105111,31.8967066 186.088801,33.1525839 186.05618,34.6857557 C186.023559,36.2189276 186.007249,37.4421846 186.007249,38.3555636 C186.007249,39.3626355 185.999659,40.3051821 185.984478,41.1832096 C185.992465,41.2851122 186.000055,41.38642 186.007249,41.487133 C186.07249,42.400512 186.105111,43.5259085 186.105111,44.8633563 L186.105111,48.3374411 C186.105111,49.3160614 186.088801,50.5719387 186.05618,52.1051105 C186.023559,53.6382824 186.007249,54.8615395 186.007249,55.7749184 C186.007249,57.8626418 185.974629,59.6730623 185.909388,61.2062341 C185.844146,62.739406 185.738131,64.3214851 185.591338,65.952519 C185.444544,67.5835529 185.232513,68.9699109 184.955237,70.1116347 C184.677962,71.2533584 184.327295,72.2808943 183.903226,73.1942733 C183.479157,74.1076523 182.940924,74.8089863 182.28851,75.2982965 C181.636097,75.7876067 180.885833,76.0322581 180.037695,76.0322581 C179.548385,76.0322581 179.124322,75.8039167 178.765495,75.3472273 C178.406667,74.8905378 178.113086,74.2218239 177.884741,73.3410656 C177.656396,72.4603073 177.476985,71.4001512 177.346502,70.1605654 C177.21602,68.9209797 177.126314,67.5509318 177.077383,66.0503806 C177.054322,65.3431691 177.034884,64.6142255 177.019068,63.8635445 C175.20479,64.484178 173.074009,64.7944908 170.626676,64.7944908 C168.560206,64.7944908 166.715003,64.5732465 165.091038,64.1307531 C165.047325,64.7310681 164.997829,65.3383226 164.942552,65.952519 C164.795759,67.5835529 164.583727,68.9699109 164.306452,70.1116347 C164.029176,71.2533584 163.678509,72.2808943 163.25444,73.1942733 C162.830371,74.1076523 162.292138,74.8089863 161.639725,75.2982965 C160.987311,75.7876067 160.237047,76.0322581 159.388909,76.0322581 C158.899599,76.0322581 158.475536,75.8039167 158.116709,75.3472273 C157.757882,74.8905378 157.4643,74.2218239 157.235955,73.3410656 C157.00761,72.4603073 156.828199,71.4001512 156.697717,70.1605654 C156.567234,68.9209797 156.477528,67.5509318 156.428597,66.0503806 C156.379666,64.5498294 156.347046,62.9514402 156.330736,61.2551649 C156.314426,59.5588897 156.322581,57.7647793 156.355201,55.87278 L156.355201,52.5454875 C156.355201,50.3272814 156.363356,48.6473417 156.379667,47.505618 C156.381417,47.3830643 156.38345,47.2561886 156.385765,47.1249907 C156.360046,46.0728497 156.341704,44.976461 156.330736,43.8358101 C156.316455,42.3506053 156.32093,40.7903981 156.344161,39.1551524 C156.338866,38.7848045 156.334391,38.4095401 156.330736,38.0293585 C156.314426,36.3330832 156.322581,34.5389729 156.355201,32.6469735 L156.355201,29.319681 C156.355201,27.101475 156.363356,25.4215352 156.379667,24.2798115 C156.395977,23.1380878 156.436752,21.621249 156.501994,19.7292497 C156.567235,17.8372504 156.689561,16.4019621 156.868974,15.4233418 C157.048388,14.4447215 157.284884,13.4171855 157.578471,12.3407032 C157.872057,11.2642208 158.271654,10.4813363 158.777274,9.9920261 C159.282895,9.50271593 159.878213,9.25806452 160.563248,9.25806452 C161.215661,9.32330587 161.79467,9.48640681 162.30029,9.74737224 C162.805911,10.0083377 163.229973,10.4324001 163.57249,11.0195723 C163.915007,11.6067445 164.216744,12.2265281 164.477709,12.8789416 C164.738675,13.5313552 164.934396,14.36317 165.064879,15.374411 C165.195361,16.385652 165.293222,17.3479476 165.358463,18.2613266 C165.423705,19.1747055 165.456325,20.300102 165.456325,21.6375498 L165.456325,23.1357095 Z M165.456325,46.8062772 L165.456325,48.3374411 C165.456325,49.3160614 165.440015,50.5719387 165.407394,52.1051105 C165.374773,53.6382824 165.358463,54.8615395 165.358463,55.7749184 C165.358463,56.5508405 165.353957,57.2884585 165.344946,57.9877753 C166.649206,57.8282313 168.214059,57.7484596 170.039507,57.7484596 C172.783519,57.7484596 175.095459,57.9237782 176.97538,58.27442 C176.980333,57.4922077 176.989868,56.6916625 177.003987,55.87278 L177.003987,52.5454875 C177.003987,50.3272814 177.012142,48.6473417 177.028452,47.505618 C177.030203,47.3830643 177.032236,47.2561886 177.03455,47.1249907 C177.029053,46.900079 177.023892,46.6731454 177.019068,46.4441897 C175.20479,47.0648232 173.074009,47.3751359 170.626676,47.3751359 C168.713596,47.3751359 166.990153,47.1855176 165.456325,46.8062772 Z"/>
    <path fill="#00B7CE" d="M164.456325,27.3869223 L164.456325,28.9180863 C164.456325,29.8967066 164.440015,31.1525839 164.407394,32.6857557 C164.374773,34.2189276 164.358463,35.4421846 164.358463,36.3555636 C164.358463,37.1314857 164.353957,37.8691037 164.344946,38.5684205 C165.649206,38.4088764 167.214059,38.3291047 169.039507,38.3291047 C171.783519,38.3291047 174.095459,38.5044233 175.97538,38.8550651 C175.978909,38.297735 175.984764,37.731098 175.992946,37.1551524 C175.987652,36.7848045 175.983177,36.4095401 175.979522,36.0293585 C175.963211,34.3330832 175.971366,32.5389729 176.003987,30.6469735 L176.003987,27.319681 C176.003987,27.2220677 176.004003,27.1254968 176.004034,27.0299682 C174.193022,27.6471795 172.067252,27.9557811 169.626676,27.9557811 C167.713596,27.9557811 165.990153,27.7661628 164.456325,27.3869223 Z M164.456325,21.1357095 C165.738002,20.9850696 167.265729,20.9097499 169.039507,20.9097499 C171.816635,20.9097499 174.151199,21.0893257 176.043255,21.448482 C176.064437,20.4335086 176.100279,19.1937716 176.150779,17.7292497 C176.216021,15.8372504 176.338346,14.4019621 176.51776,13.4233418 C176.697174,12.4447215 176.93367,11.4171855 177.227256,10.3407032 C177.520842,9.26422079 177.92044,8.48133626 178.42606,7.9920261 C178.931681,7.50271593 179.526999,7.25806452 180.212033,7.25806452 C180.864447,7.32330587 181.443455,7.48640681 181.949076,7.74737224 C182.454696,8.00833766 182.878759,8.43240011 183.221276,9.01957231 C183.563793,9.60674451 183.86553,10.2265281 184.126495,10.8789416 C184.387461,11.5313552 184.583182,12.36317 184.713664,13.374411 C184.844147,14.385652 184.942008,15.3479476 185.007249,16.2613266 C185.07249,17.1747055 185.105111,18.300102 185.105111,19.6375498 L185.105111,23.1116347 C185.105111,23.4937331 185.102624,23.9180989 185.097651,24.3847342 C185.102624,24.7216604 185.105111,25.0747492 185.105111,25.4440014 L185.105111,28.9180863 C185.105111,29.8967066 185.088801,31.1525839 185.05618,32.6857557 C185.023559,34.2189276 185.007249,35.4421846 185.007249,36.3555636 C185.007249,37.3626355 184.999659,38.3051821 184.984478,39.1832096 C184.992465,39.2851122 185.000055,39.38642 185.007249,39.487133 C185.07249,40.400512 185.105111,41.5259085 185.105111,42.8633563 L185.105111,46.3374411 C185.105111,47.3160614 185.088801,48.5719387 185.05618,50.1051105 C185.023559,51.6382824 185.007249,52.8615395 185.007249,53.7749184 C185.007249,55.8626418 184.974629,57.6730623 184.909388,59.2062341 C184.844146,60.739406 184.738131,62.3214851 184.591338,63.952519 C184.444544,65.5835529 184.232513,66.9699109 183.955237,68.1116347 C183.677962,69.2533584 183.327295,70.2808943 182.903226,71.1942733 C182.479157,72.1076523 181.940924,72.8089863 181.28851,73.2982965 C180.636097,73.7876067 179.885833,74.0322581 179.037695,74.0322581 C178.548385,74.0322581 178.124322,73.8039167 177.765495,73.3472273 C177.406667,72.8905378 177.113086,72.2218239 176.884741,71.3410656 C176.656396,70.4603073 176.476985,69.4001512 176.346502,68.1605654 C176.21602,66.9209797 176.126314,65.5509318 176.077383,64.0503806 C176.054322,63.3431691 176.034884,62.6142255 176.019068,61.8635445 C174.20479,62.484178 172.074009,62.7944908 169.626676,62.7944908 C167.560206,62.7944908 165.715003,62.5732465 164.091038,62.1307531 C164.047325,62.7310681 163.997829,63.3383226 163.942552,63.952519 C163.795759,65.5835529 163.583727,66.9699109 163.306452,68.1116347 C163.029176,69.2533584 162.678509,70.2808943 162.25444,71.1942733 C161.830371,72.1076523 161.292138,72.8089863 160.639725,73.2982965 C159.987311,73.7876067 159.237047,74.0322581 158.388909,74.0322581 C157.899599,74.0322581 157.475536,73.8039167 157.116709,73.3472273 C156.757882,72.8905378 156.4643,72.2218239 156.235955,71.3410656 C156.00761,70.4603073 155.828199,69.4001512 155.697717,68.1605654 C155.567234,66.9209797 155.477528,65.5509318 155.428597,64.0503806 C155.379666,62.5498294 155.347046,60.9514402 155.330736,59.2551649 C155.314426,57.5588897 155.322581,55.7647793 155.355201,53.87278 L155.355201,50.5454875 C155.355201,48.3272814 155.363356,46.6473417 155.379667,45.505618 C155.381417,45.3830643 155.38345,45.2561886 155.385765,45.1249907 C155.360046,44.0728497 155.341704,42.976461 155.330736,41.8358101 C155.316455,40.3506053 155.32093,38.7903981 155.344161,37.1551524 C155.338866,36.7848045 155.334391,36.4095401 155.330736,36.0293585 C155.314426,34.3330832 155.322581,32.5389729 155.355201,30.6469735 L155.355201,27.319681 C155.355201,25.101475 155.363356,23.4215352 155.379667,22.2798115 C155.395977,21.1380878 155.436752,19.621249 155.501994,17.7292497 C155.567235,15.8372504 155.689561,14.4019621 155.868974,13.4233418 C156.048388,12.4447215 156.284884,11.4171855 156.578471,10.3407032 C156.872057,9.26422079 157.271654,8.48133626 157.777274,7.9920261 C158.282895,7.50271593 158.878213,7.25806452 159.563248,7.25806452 C160.215661,7.32330587 160.79467,7.48640681 161.30029,7.74737224 C161.805911,8.00833766 162.229973,8.43240011 162.57249,9.01957231 C162.915007,9.60674451 163.216744,10.2265281 163.477709,10.8789416 C163.738675,11.5313552 163.934396,12.36317 164.064879,13.374411 C164.195361,14.385652 164.293222,15.3479476 164.358463,16.2613266 C164.423705,17.1747055 164.456325,18.300102 164.456325,19.6375498 L164.456325,21.1357095 Z M164.456325,44.8062772 L164.456325,46.3374411 C164.456325,47.3160614 164.440015,48.5719387 164.407394,50.1051105 C164.374773,51.6382824 164.358463,52.8615395 164.358463,53.7749184 C164.358463,54.5508405 164.353957,55.2884585 164.344946,55.9877753 C165.649206,55.8282313 167.214059,55.7484596 169.039507,55.7484596 C171.783519,55.7484596 174.095459,55.9237782 175.97538,56.27442 C175.980333,55.4922077 175.989868,54.6916625 176.003987,53.87278 L176.003987,50.5454875 C176.003987,48.3272814 176.012142,46.6473417 176.028452,45.505618 C176.030203,45.3830643 176.032236,45.2561886 176.03455,45.1249907 C176.029053,44.900079 176.023892,44.6731454 176.019068,44.4441897 C174.20479,45.0648232 172.074009,45.3751359 169.626676,45.3751359 C167.713596,45.3751359 165.990153,45.1855176 164.456325,44.8062772 Z"/>
    <path fill="#BF2824" d="M149.701613,39.218246 C149.701613,41.2595868 149.616558,43.3103476 149.446447,45.3705897 C149.276335,47.4308319 149.19128,49.5004936 149.19128,51.5796371 C149.19128,54.2636223 149.276335,56.9475672 149.446447,59.6315524 C149.616558,62.3155376 149.701613,65.0183836 149.701613,67.7401714 C149.701613,68.4206183 149.663811,69.1861097 149.588206,70.0366683 C149.5126,70.887227 149.333041,71.6716194 149.049521,72.389869 C148.766002,73.1081185 148.340729,73.7129512 147.77369,74.2043851 C147.20665,74.695819 146.45061,74.9415323 145.505544,74.9415323 C144.598282,74.9415323 143.813889,74.4973583 143.152344,73.608997 C142.490798,72.7206357 141.942669,71.5865744 141.507939,70.2067792 C141.073209,68.826984 140.714089,67.2865508 140.43057,65.5854335 C140.14705,63.8843161 139.939139,62.2304768 139.80683,60.6238659 C139.674521,59.0172551 139.580015,57.5429755 139.523311,56.2009829 C139.466608,54.8589903 139.438256,53.8666867 139.438256,53.2240423 C139.438256,52.5057928 139.466608,51.4662366 139.523311,50.1053427 C139.580015,48.7444488 139.702872,47.2701692 139.891885,45.6824597 C140.080898,44.0947501 140.336062,42.4787129 140.657384,40.8342994 C140.978706,39.1898859 141.403979,37.6967053 141.933216,36.3547127 C142.462452,35.0127201 143.095636,33.9164609 143.832787,33.0659022 C144.569938,32.2153435 145.448836,31.7900706 146.469506,31.7900706 C147.301163,31.7900706 147.934348,32.0641354 148.369078,32.6122732 C148.803808,33.160411 149.115674,33.8219467 149.304688,34.5969002 C149.493701,35.3718537 149.607107,36.1845976 149.644909,37.0351563 C149.682712,37.8857149 149.701613,38.6134042 149.701613,39.218246 Z"/>
    <path fill="#F15959" d="M147.701613,38.218246 C147.701613,40.2595868 147.616558,42.3103476 147.446447,44.3705897 C147.276335,46.4308319 147.19128,48.5004936 147.19128,50.5796371 C147.19128,53.2636223 147.276335,55.9475672 147.446447,58.6315524 C147.616558,61.3155376 147.701613,64.0183836 147.701613,66.7401714 C147.701613,67.4206183 147.663811,68.1861097 147.588206,69.0366683 C147.5126,69.887227 147.333041,70.6716194 147.049521,71.389869 C146.766002,72.1081185 146.340729,72.7129512 145.77369,73.2043851 C145.20665,73.695819 144.45061,73.9415323 143.505544,73.9415323 C142.598282,73.9415323 141.813889,73.4973583 141.152344,72.608997 C140.490798,71.7206357 139.942669,70.5865744 139.507939,69.2067792 C139.073209,67.826984 138.714089,66.2865508 138.43057,64.5854335 C138.14705,62.8843161 137.939139,61.2304768 137.80683,59.6238659 C137.674521,58.0172551 137.580015,56.5429755 137.523311,55.2009829 C137.466608,53.8589903 137.438256,52.8666867 137.438256,52.2240423 C137.438256,51.5057928 137.466608,50.4662366 137.523311,49.1053427 C137.580015,47.7444488 137.702872,46.2701692 137.891885,44.6824597 C138.080898,43.0947501 138.336062,41.4787129 138.657384,39.8342994 C138.978706,38.1898859 139.403979,36.6967053 139.933216,35.3547127 C140.462452,34.0127201 141.095636,32.9164609 141.832787,32.0659022 C142.569938,31.2153435 143.448836,30.7900706 144.469506,30.7900706 C145.301163,30.7900706 145.934348,31.0641354 146.369078,31.6122732 C146.803808,32.160411 147.115674,32.8219467 147.304687,33.5969002 C147.493701,34.3718537 147.607107,35.1845976 147.644909,36.0351563 C147.682712,36.8857149 147.701613,37.6134042 147.701613,38.218246 Z"/>
    <path fill="#6E5B92" d="M135.378276,63.4873992 C135.378276,64.7726879 134.971904,66.0296058 134.159148,67.2581905 C133.346392,68.4867753 132.325737,69.5830345 131.097152,70.547001 C129.868567,71.5109675 128.554947,72.2859094 127.15625,72.8718498 C125.757553,73.4577902 124.472284,73.750756 123.300403,73.750756 C121.296865,73.750756 119.510719,73.249879 117.94191,72.2481099 C116.373102,71.2463408 115.059481,69.9705219 114.001008,68.4206149 C112.942535,66.870708 112.139242,65.1601656 111.591104,63.2889365 C111.042966,61.4177074 110.768901,59.5937589 110.768901,57.8170363 C110.768901,55.9269059 111.033515,53.9044967 111.562752,51.749748 C112.091989,49.5949993 112.895282,47.6103921 113.972656,45.7958669 C115.050031,43.9813417 116.410904,42.4692601 118.055318,41.2595766 C119.699731,40.0498931 121.655987,39.4450605 123.924143,39.4450605 C125.209432,39.4450605 126.437998,39.6624222 127.609879,40.0971522 C128.78176,40.5318822 129.802415,41.1461654 130.671875,41.9400202 C131.541335,42.7338749 132.240673,43.678926 132.769909,44.7752016 C133.299146,45.8714773 133.56376,47.1000436 133.56376,48.4609375 C133.56376,50.2376601 133.18574,51.9009499 132.429687,53.4508569 C131.673635,55.0007638 130.671881,56.3427363 129.424395,57.4768145 C128.176909,58.6108928 126.740432,59.5275923 125.114919,60.2269405 C123.489407,60.9262888 121.826117,61.3137597 120.125,61.3893649 C120.27621,62.4856406 120.720384,63.2794834 121.457535,63.7709173 C122.194686,64.2623512 123.073584,64.5080645 124.094254,64.5080645 C124.850306,64.5080645 125.587446,64.3190543 126.305696,63.9410282 C127.023945,63.5630021 127.723283,63.1377292 128.40373,62.6651966 C129.084177,62.192664 129.755163,61.767391 130.416709,61.3893649 C131.078254,61.0113388 131.749241,60.8223286 132.429687,60.8223286 C133.18574,60.8223286 133.866176,61.0680419 134.471018,61.5594758 C135.07586,62.0509097 135.378276,62.6935444 135.378276,63.4873992 Z M126.192288,49.5950101 C126.192288,49.1035762 126.059981,48.5932486 125.795363,48.0640121 C125.530745,47.5347756 125.114922,47.2701613 124.547883,47.2701613 C123.716226,47.2701613 123.016888,47.487523 122.449849,47.922253 C121.88281,48.356983 121.410284,48.9051126 121.032258,49.5666583 C120.654232,50.2282039 120.361266,50.9369922 120.153352,51.6930444 C119.945437,52.4490965 119.822581,53.1484343 119.784778,53.7910786 C120.314015,53.6776708 120.947199,53.5264626 121.68435,53.3374496 C122.421501,53.1484366 123.120838,52.8932728 123.782384,52.5719506 C124.44393,52.2506284 125.01096,51.8442565 125.483493,51.3528226 C125.956026,50.8613887 126.192288,50.275457 126.192288,49.5950101 Z"/>
    <path fill="#8A73B4" d="M133.378276,62.4873992 C133.378276,63.7726879 132.971904,65.0296058 132.159148,66.2581905 C131.346392,67.4867753 130.325737,68.5830345 129.097152,69.547001 C127.868567,70.5109675 126.554947,71.2859094 125.15625,71.8718498 C123.757553,72.4577902 122.472284,72.750756 121.300403,72.750756 C119.296865,72.750756 117.510719,72.249879 115.94191,71.2481099 C114.373102,70.2463408 113.059481,68.9705219 112.001008,67.4206149 C110.942535,65.870708 110.139242,64.1601656 109.591104,62.2889365 C109.042966,60.4177074 108.768901,58.5937589 108.768901,56.8170363 C108.768901,54.9269059 109.033515,52.9044967 109.562752,50.749748 C110.091989,48.5949993 110.895282,46.6103921 111.972656,44.7958669 C113.050031,42.9813417 114.410904,41.4692601 116.055318,40.2595766 C117.699731,39.0498931 119.655987,38.4450605 121.924143,38.4450605 C123.209432,38.4450605 124.437998,38.6624222 125.609879,39.0971522 C126.78176,39.5318822 127.802415,40.1461654 128.671875,40.9400202 C129.541335,41.7338749 130.240673,42.678926 130.769909,43.7752016 C131.299146,44.8714773 131.56376,46.1000436 131.56376,47.4609375 C131.56376,49.2376601 131.18574,50.9009499 130.429687,52.4508569 C129.673635,54.0007638 128.671881,55.3427363 127.424395,56.4768145 C126.176909,57.6108928 124.740432,58.5275923 123.114919,59.2269405 C121.489407,59.9262888 119.826117,60.3137597 118.125,60.3893649 C118.27621,61.4856406 118.720384,62.2794834 119.457535,62.7709173 C120.194686,63.2623512 121.073584,63.5080645 122.094254,63.5080645 C122.850306,63.5080645 123.587446,63.3190543 124.305696,62.9410282 C125.023945,62.5630021 125.723283,62.1377292 126.40373,61.6651966 C127.084177,61.192664 127.755163,60.767391 128.416709,60.3893649 C129.078254,60.0113388 129.749241,59.8223286 130.429687,59.8223286 C131.18574,59.8223286 131.866176,60.0680419 132.471018,60.5594758 C133.07586,61.0509097 133.378276,61.6935444 133.378276,62.4873992 Z M124.192288,48.5950101 C124.192288,48.1035762 124.059981,47.5932486 123.795363,47.0640121 C123.530745,46.5347756 123.114922,46.2701613 122.547883,46.2701613 C121.716226,46.2701613 121.016888,46.487523 120.449849,46.922253 C119.88281,47.356983 119.410284,47.9051126 119.032258,48.5666583 C118.654232,49.2282039 118.361266,49.9369922 118.153352,50.6930444 C117.945437,51.4490965 117.822581,52.1484343 117.784778,52.7910786 C118.314015,52.6776708 118.947199,52.5264626 119.68435,52.3374496 C120.421501,52.1484366 121.120838,51.8932728 121.782384,51.5719506 C122.44393,51.2506284 123.01096,50.8442565 123.483493,50.3528226 C123.956026,49.8613887 124.192288,49.275457 124.192288,48.5950101 Z"/>
    <path fill="#C78100" d="M106.448085,63.4873992 C106.448085,64.7726879 106.041713,66.0296058 105.228957,67.2581905 C104.416201,68.4867753 103.395545,69.5830345 102.166961,70.547001 C100.938376,71.5109675 99.624755,72.2859094 98.2260585,72.8718498 C96.827362,73.4577902 95.5420926,73.750756 94.3702117,73.750756 C92.3666735,73.750756 90.580527,73.249879 89.0117188,72.2481099 C87.4429105,71.2463408 86.1292896,69.9705219 85.0708165,68.4206149 C84.0123435,66.870708 83.2090501,65.1601656 82.6609123,63.2889365 C82.1127745,61.4177074 81.8387097,59.5937589 81.8387097,57.8170363 C81.8387097,55.9269059 82.103324,53.9044967 82.6325605,51.749748 C83.161797,49.5949993 83.9650904,47.6103921 85.0424647,45.7958669 C86.1198391,43.9813417 87.4807125,42.4692601 89.125126,41.2595766 C90.7695395,40.0498931 92.7257951,39.4450605 94.9939516,39.4450605 C96.2792403,39.4450605 97.5078066,39.6624222 98.6796875,40.0971522 C99.8515684,40.5318822 100.872223,41.1461654 101.741683,41.9400202 C102.611143,42.7338749 103.310481,43.678926 103.839718,44.7752016 C104.368954,45.8714773 104.633569,47.1000436 104.633569,48.4609375 C104.633569,50.2376601 104.255548,51.9009499 103.499496,53.4508569 C102.743444,55.0007638 101.74169,56.3427363 100.494204,57.4768145 C99.2467176,58.6108928 97.81024,59.5275923 96.1847278,60.2269405 C94.5592157,60.9262888 92.8959258,61.3137597 91.1948085,61.3893649 C91.3460189,62.4856406 91.7901929,63.2794834 92.5273438,63.7709173 C93.2644946,64.2623512 94.1433921,64.5080645 95.1640625,64.5080645 C95.9201147,64.5080645 96.6572545,64.3190543 97.375504,63.9410282 C98.0937536,63.5630021 98.7930914,63.1377292 99.4735383,62.6651966 C100.153985,62.192664 100.824971,61.767391 101.486517,61.3893649 C102.148063,61.0113388 102.819049,60.8223286 103.499496,60.8223286 C104.255548,60.8223286 104.935985,61.0680419 105.540827,61.5594758 C106.145668,62.0509097 106.448085,62.6935444 106.448085,63.4873992 Z M97.2620968,49.5950101 C97.2620968,49.1035762 97.1297896,48.5932486 96.8651714,48.0640121 C96.6005531,47.5347756 96.1847307,47.2701613 95.6176915,47.2701613 C94.7860341,47.2701613 94.0866964,47.487523 93.5196573,47.922253 C92.9526181,48.356983 92.4800926,48.9051126 92.1020665,49.5666583 C91.7240404,50.2282039 91.4310746,50.9369922 91.2231603,51.6930444 C91.0152459,52.4490965 90.8923893,53.1484343 90.8545867,53.7910786 C91.3838232,53.6776708 92.0170074,53.5264626 92.7541583,53.3374496 C93.4913091,53.1484366 94.1906469,52.8932728 94.8521925,52.5719506 C95.5137382,52.2506284 96.0807688,51.8442565 96.5533014,51.3528226 C97.025834,50.8613887 97.2620968,50.275457 97.2620968,49.5950101 Z"/>
    <path fill="#FAA619" d="M104.448085,62.4873992 C104.448085,63.7726879 104.041713,65.0296058 103.228957,66.2581905 C102.416201,67.4867753 101.395545,68.5830345 100.166961,69.547001 C98.9383759,70.5109675 97.624755,71.2859094 96.2260585,71.8718498 C94.827362,72.4577902 93.5420926,72.750756 92.3702117,72.750756 C90.3666735,72.750756 88.580527,72.249879 87.0117187,71.2481099 C85.4429105,70.2463408 84.1292896,68.9705219 83.0708165,67.4206149 C82.0123435,65.870708 81.2090501,64.1601656 80.6609123,62.2889365 C80.1127745,60.4177074 79.8387097,58.5937589 79.8387097,56.8170363 C79.8387097,54.9269059 80.103324,52.9044967 80.6325605,50.749748 C81.161797,48.5949993 81.9650904,46.6103921 83.0424647,44.7958669 C84.1198391,42.9813417 85.4807125,41.4692601 87.125126,40.2595766 C88.7695395,39.0498931 90.7257951,38.4450605 92.9939516,38.4450605 C94.2792403,38.4450605 95.5078066,38.6624222 96.6796875,39.0971522 C97.8515684,39.5318822 98.8722235,40.1461654 99.7416835,40.9400202 C100.611143,41.7338749 101.310481,42.678926 101.839718,43.7752016 C102.368954,44.8714773 102.633569,46.1000436 102.633569,47.4609375 C102.633569,49.2376601 102.255548,50.9009499 101.499496,52.4508569 C100.743444,54.0007638 99.7416897,55.3427363 98.4942036,56.4768145 C97.2467176,57.6108928 95.81024,58.5275923 94.1847278,59.2269405 C92.5592157,59.9262888 90.8959258,60.3137597 89.1948085,60.3893649 C89.3460189,61.4856406 89.7901929,62.2794834 90.5273437,62.7709173 C91.2644946,63.2623512 92.1433921,63.5080645 93.1640625,63.5080645 C93.9201147,63.5080645 94.6572545,63.3190543 95.375504,62.9410282 C96.0937536,62.5630021 96.7930914,62.1377292 97.4735383,61.6651966 C98.1539853,61.192664 98.8249715,60.767391 99.4865171,60.3893649 C100.148063,60.0113388 100.819049,59.8223286 101.499496,59.8223286 C102.255548,59.8223286 102.935985,60.0680419 103.540827,60.5594758 C104.145668,61.0509097 104.448085,61.6935444 104.448085,62.4873992 Z M95.2620968,48.5950101 C95.2620968,48.1035762 95.1297896,47.5932486 94.8651714,47.0640121 C94.6005531,46.5347756 94.1847307,46.2701613 93.6176915,46.2701613 C92.7860341,46.2701613 92.0866964,46.487523 91.5196573,46.922253 C90.9526181,47.356983 90.4800926,47.9051126 90.1020665,48.5666583 C89.7240404,49.2282039 89.4310746,49.9369922 89.2231603,50.6930444 C89.0152459,51.4490965 88.8923893,52.1484343 88.8545867,52.7910786 C89.3838232,52.6776708 90.0170074,52.5264626 90.7541583,52.3374496 C91.4913091,52.1484366 92.1906469,51.8932728 92.8521925,51.5719506 C93.5137382,51.2506284 94.0807688,50.8442565 94.5533014,50.3528226 C95.025834,49.8613887 95.2620968,49.275457 95.2620968,48.5950101 Z"/>
    <path fill="#007180" d="M45.9206149,33.7746976 C45.9206149,34.6441576 45.6465501,35.4001984 45.0984123,36.0428427 C44.5502745,36.6854871 43.8981893,37.2147157 43.1421371,37.6305444 C42.4616901,38.046373 41.7623524,38.490547 41.0441028,38.9630796 C40.3258533,39.4356122 39.6643175,39.9648408 39.0594758,40.5507813 C38.4546341,41.1367217 37.9632075,41.7888069 37.5851815,42.5070565 C37.2071554,43.225306 37.0181452,44.0380499 37.0181452,44.9453125 C37.0181452,45.7391673 37.2071554,46.4574061 37.5851815,47.1000504 C37.9632075,47.7426947 38.4262825,48.3758789 38.9744204,48.999622 C39.5225582,49.623365 40.1273908,50.2659997 40.7889365,50.9275454 C41.4504821,51.589091 42.0553148,52.3262308 42.6034526,53.1389869 C43.1515904,53.951743 43.6146654,54.8684425 43.9926915,55.8891129 C44.3707176,56.9097833 44.5597278,58.1005476 44.5597278,59.4614415 C44.5597278,60.4065067 44.3612671,61.4744144 43.9643397,62.6651966 C43.5674123,63.8559787 43.0287332,65.0561935 42.3482863,66.265877 C41.6678393,67.4755605 40.864546,68.6474238 39.9383821,69.781502 C39.0122182,70.9155803 38.0293651,71.9267849 36.9897933,72.8151462 C35.9502216,73.7035075 34.8634129,74.4217463 33.7293347,74.9698841 C32.5952564,75.5180219 31.4989972,75.7920867 30.4405242,75.7920867 C29.2686433,75.7920867 28.2290872,75.4707693 27.3218246,74.828125 C26.414562,74.1854807 25.9609375,73.2215286 25.9609375,71.9362399 C25.9609375,71.0667799 26.1688487,70.2634865 26.5846774,69.5263357 C27.0005061,68.7891848 27.5108337,68.0803965 28.1156754,67.3999496 C28.7205171,66.7195026 29.3915034,66.0579669 30.1286542,65.4153226 C30.8658051,64.7726782 31.5367913,64.1300435 32.1416331,63.4873992 C32.7464748,62.8447549 33.2568024,62.1737686 33.672631,61.4744204 C34.0884597,60.7750721 34.296371,60.0284818 34.296371,59.234627 C34.296371,58.1383514 33.9089,57.0137406 33.1339466,55.8607611 C32.3589931,54.7077815 31.4989967,53.5170172 30.5539315,52.2884325 C29.6088662,51.0598477 28.7488698,49.8029298 27.9739163,48.5176411 C27.1989629,47.2323524 26.8114919,45.928182 26.8114919,44.6050907 C26.8114919,42.9795786 27.2462154,41.2690362 28.1156754,39.4734123 C28.9851354,37.6777884 30.1002956,36.0333996 31.4611895,34.5401966 C32.8220834,33.0469935 34.3530661,31.8089767 36.0541835,30.8261089 C37.7553008,29.8432411 39.4374917,29.3518145 41.1008065,29.3518145 C42.4238977,29.3518145 43.557959,29.748736 44.5030242,30.5425907 C45.4480894,31.3364455 45.9206149,32.4138037 45.9206149,33.7746976 Z"/>
    <path fill="#00B7D0" d="M44.9206149,32.7746976 C44.9206149,33.6441576 44.6465501,34.4001984 44.0984123,35.0428427 C43.5502745,35.6854871 42.8981893,36.2147157 42.1421371,36.6305444 C41.4616901,37.046373 40.7623524,37.490547 40.0441028,37.9630796 C39.3258533,38.4356122 38.6643175,38.9648408 38.0594758,39.5507812 C37.4546341,40.1367217 36.9632075,40.7888069 36.5851815,41.5070565 C36.2071554,42.225306 36.0181452,43.0380499 36.0181452,43.9453125 C36.0181452,44.7391673 36.2071554,45.4574061 36.5851815,46.1000504 C36.9632075,46.7426947 37.4262825,47.3758789 37.9744204,47.999622 C38.5225582,48.623365 39.1273908,49.2659997 39.7889365,49.9275454 C40.4504821,50.589091 41.0553148,51.3262308 41.6034526,52.1389869 C42.1515904,52.951743 42.6146654,53.8684425 42.9926915,54.8891129 C43.3707176,55.9097833 43.5597278,57.1005476 43.5597278,58.4614415 C43.5597278,59.4065067 43.3612671,60.4744144 42.9643397,61.6651966 C42.5674123,62.8559787 42.0287332,64.0561935 41.3482863,65.265877 C40.6678393,66.4755605 39.864546,67.6474238 38.9383821,68.781502 C38.0122182,69.9155803 37.0293651,70.9267849 35.9897933,71.8151462 C34.9502216,72.7035075 33.8634129,73.4217463 32.7293347,73.9698841 C31.5952564,74.5180219 30.4989972,74.7920867 29.4405242,74.7920867 C28.2686433,74.7920867 27.2290872,74.4707693 26.3218246,73.828125 C25.414562,73.1854807 24.9609375,72.2215286 24.9609375,70.9362399 C24.9609375,70.0667799 25.1688487,69.2634865 25.5846774,68.5263357 C26.0005061,67.7891848 26.5108337,67.0803965 27.1156754,66.3999496 C27.7205171,65.7195026 28.3915034,65.0579669 29.1286542,64.4153226 C29.8658051,63.7726782 30.5367913,63.1300435 31.1416331,62.4873992 C31.7464748,61.8447549 32.2568024,61.1737686 32.672631,60.4744204 C33.0884597,59.7750721 33.296371,59.0284818 33.296371,58.234627 C33.296371,57.1383514 32.9089,56.0137406 32.1339466,54.8607611 C31.3589931,53.7077815 30.4989967,52.5170172 29.5539315,51.2884325 C28.6088662,50.0598477 27.7488698,48.8029298 26.9739163,47.5176411 C26.1989629,46.2323524 25.8114919,44.928182 25.8114919,43.6050907 C25.8114919,41.9795786 26.2462154,40.2690362 27.1156754,38.4734123 C27.9851354,36.6777884 29.1002956,35.0333996 30.4611895,33.5401966 C31.8220834,32.0469935 33.3530661,30.8089767 35.0541835,29.8261089 C36.7553008,28.8432411 38.4374917,28.3518145 40.1008065,28.3518145 C41.4238977,28.3518145 42.557959,28.748736 43.5030242,29.5425907 C44.4480894,30.3364455 44.9206149,31.4138037 44.9206149,32.7746976 Z"/>
    <path fill="#BF2824" d="M76.3271169,56.6829637 C76.3271169,58.3462785 76.1475572,60.170227 75.7884325,62.1548639 C75.4293077,64.1395009 74.824475,65.9823504 73.9739163,67.6834677 C73.1233576,69.3845851 72.0081974,70.8021617 70.6284022,71.9362399 C69.248607,73.0703182 67.5191636,73.6373488 65.4400202,73.6373488 C64.9107836,73.6373488 64.362654,73.5995467 63.7956149,73.5239415 C63.2285758,73.4483363 62.6898967,73.3160292 62.1795615,73.1270161 C61.6692263,72.9380031 61.2061513,72.6828393 60.7903226,72.3615171 C60.3744939,72.040195 60.0531765,71.614922 59.8263609,71.0856855 L59.3160282,79.2510081 C59.2782256,80.1204681 59.2498741,81.1600242 59.2309728,82.3697077 C59.2120715,83.5793911 59.0608633,84.7323534 58.7773438,85.828629 C58.4938242,86.9249047 58.0212987,87.8605052 57.359753,88.6354587 C56.6982074,89.4104121 55.7437058,89.7978831 54.4962198,89.7978831 C53.7779702,89.7978831 53.1731375,89.4293132 52.6817036,88.6921623 C52.1902697,87.9550114 51.8027988,87.0194109 51.5192792,85.8853327 C51.2357597,84.7512544 51.0183979,83.484886 50.8671875,82.0861895 C50.7159771,80.687493 50.621472,79.3455205 50.5836694,78.0602319 C50.5458667,76.7749432 50.5269657,75.6030799 50.5269657,74.5446069 L50.5269657,72.2197581 C50.5269657,69.6869833 50.5080647,67.163697 50.4702621,64.6498236 C50.4324595,62.1359501 50.4135585,59.6126639 50.4135585,57.0798891 L50.4135585,54.953503 C50.4135585,53.9895365 50.4513605,52.9405299 50.5269657,51.8064516 C50.6025709,50.6723734 50.7254276,49.5005101 50.8955393,48.2908266 C51.0656511,47.0811431 51.3208148,45.9754334 51.6610383,44.9736643 C52.0012618,43.9718952 52.4359853,43.1591513 52.9652218,42.5354083 C53.4944583,41.9116652 54.137093,41.5997984 54.8931452,41.5997984 C55.3845791,41.5997984 55.8287531,41.741556 56.2256804,42.0250756 C56.6226078,42.3085952 56.9628262,42.6677146 57.2463458,43.1024446 C57.5298653,43.5371746 57.7661281,44.0002496 57.9551411,44.4916835 C58.1441542,44.9831174 58.2953623,45.4367419 58.4087702,45.8525706 C59.580651,44.5294793 60.932074,43.5277252 62.4630796,42.8472782 C63.9940853,42.1668313 65.6290236,41.8266129 67.3679435,41.8266129 C69.1824688,41.8266129 70.6661989,42.3369405 71.8191784,43.3576109 C72.972158,44.3782813 73.879407,45.6446497 74.5409526,47.156754 C75.2024983,48.6688584 75.6655733,50.2848956 75.9301915,52.0049143 C76.1948098,53.724933 76.3271169,55.2842672 76.3271169,56.6829637 Z M68.218498,56.2293347 C68.218498,55.6622956 68.1712454,55.0858144 68.0767389,54.499874 C67.9822324,53.9139336 67.8121232,53.365804 67.5664063,52.8554688 C67.3206893,52.3451335 66.9710204,51.9293111 66.5173891,51.6079889 C66.0637578,51.2866667 65.4967272,51.1260081 64.8162802,51.1260081 C63.9090176,51.1260081 62.9545161,51.4189739 61.952747,52.0049143 C60.9509779,52.5908547 60.2043875,53.261841 59.7129536,54.0178931 C59.5239406,54.320314 59.4105345,54.8117405 59.3727319,55.4921875 C59.3349292,56.1726345 59.3160282,56.682962 59.3160282,57.0231855 C59.3160282,57.2878037 59.3254787,57.6374726 59.34438,58.0722026 C59.3632813,58.5069326 59.3916329,58.9511066 59.4294355,59.4047379 C59.4672381,59.8583692 59.5144906,60.2930927 59.5711946,60.7089214 C59.6278985,61.1247501 59.7129531,61.4460674 59.8263609,61.6728831 C59.9397687,62.0131065 60.185482,62.3249734 60.5635081,62.6084929 C60.9415341,62.8920125 61.3573566,63.1471763 61.8109879,63.3739919 C62.2646192,63.6008076 62.7276942,63.7709168 63.2002268,63.8843246 C63.6727594,63.9977324 64.0791314,64.0544355 64.4193548,64.0544355 C65.2132096,64.0544355 65.8558443,63.7520192 66.3472782,63.1471774 C66.8387121,62.5423357 67.2261831,61.8240969 67.5097026,60.9924395 C67.7932222,60.1607821 67.9822324,59.3007857 68.0767389,58.4124244 C68.1712454,57.5240631 68.218498,56.7963738 68.218498,56.2293347 Z"/>
    <path fill="#F15959" d="M74.3271169,55.6829637 C74.3271169,57.3462785 74.1475572,59.170227 73.7884325,61.1548639 C73.4293077,63.1395009 72.824475,64.9823504 71.9739163,66.6834677 C71.1233576,68.3845851 70.0081974,69.8021617 68.6284022,70.9362399 C67.248607,72.0703182 65.5191636,72.6373488 63.4400202,72.6373488 C62.9107836,72.6373488 62.362654,72.5995467 61.7956149,72.5239415 C61.2285758,72.4483363 60.6898967,72.3160292 60.1795615,72.1270161 C59.6692263,71.9380031 59.2061513,71.6828393 58.7903226,71.3615171 C58.3744939,71.040195 58.0531765,70.614922 57.8263609,70.0856855 L57.3160282,78.2510081 C57.2782256,79.1204681 57.2498741,80.1600242 57.2309728,81.3697077 C57.2120715,82.5793911 57.0608633,83.7323534 56.7773437,84.828629 C56.4938242,85.9249047 56.0212987,86.8605052 55.359753,87.6354587 C54.6982074,88.4104121 53.7437058,88.7978831 52.4962198,88.7978831 C51.7779702,88.7978831 51.1731375,88.4293132 50.6817036,87.6921623 C50.1902697,86.9550114 49.8027988,86.0194109 49.5192792,84.8853327 C49.2357597,83.7512544 49.0183979,82.484886 48.8671875,81.0861895 C48.7159771,79.687493 48.621472,78.3455205 48.5836694,77.0602319 C48.5458667,75.7749432 48.5269657,74.6030799 48.5269657,73.5446069 L48.5269657,71.2197581 C48.5269657,68.6869833 48.5080647,66.163697 48.4702621,63.6498236 C48.4324595,61.1359501 48.4135585,58.6126639 48.4135585,56.0798891 L48.4135585,53.953503 C48.4135585,52.9895365 48.4513605,51.9405299 48.5269657,50.8064516 C48.6025709,49.6723734 48.7254276,48.5005101 48.8955393,47.2908266 C49.0656511,46.0811431 49.3208148,44.9754334 49.6610383,43.9736643 C50.0012618,42.9718952 50.4359853,42.1591513 50.9652218,41.5354083 C51.4944583,40.9116652 52.137093,40.5997984 52.8931452,40.5997984 C53.3845791,40.5997984 53.8287531,40.741556 54.2256804,41.0250756 C54.6226078,41.3085952 54.9628262,41.6677146 55.2463458,42.1024446 C55.5298653,42.5371746 55.7661281,43.0002496 55.9551411,43.4916835 C56.1441542,43.9831174 56.2953623,44.4367419 56.4087702,44.8525706 C57.580651,43.5294793 58.932074,42.5277252 60.4630796,41.8472782 C61.9940853,41.1668313 63.6290236,40.8266129 65.3679435,40.8266129 C67.1824688,40.8266129 68.6661989,41.3369405 69.8191784,42.3576109 C70.972158,43.3782813 71.879407,44.6446497 72.5409526,46.156754 C73.2024983,47.6688584 73.6655733,49.2848956 73.9301915,51.0049143 C74.1948098,52.724933 74.3271169,54.2842672 74.3271169,55.6829637 Z M66.218498,55.2293347 C66.218498,54.6622956 66.1712454,54.0858144 66.0767389,53.499874 C65.9822324,52.9139336 65.8121232,52.365804 65.5664062,51.8554688 C65.3206893,51.3451335 64.9710204,50.9293111 64.5173891,50.6079889 C64.0637578,50.2866667 63.4967272,50.1260081 62.8162802,50.1260081 C61.9090176,50.1260081 60.9545161,50.4189739 59.952747,51.0049143 C58.9509779,51.5908547 58.2043875,52.261841 57.7129536,53.0178931 C57.5239406,53.320314 57.4105345,53.8117405 57.3727319,54.4921875 C57.3349292,55.1726345 57.3160282,55.682962 57.3160282,56.0231855 C57.3160282,56.2878037 57.3254787,56.6374726 57.34438,57.0722026 C57.3632813,57.5069326 57.3916329,57.9511066 57.4294355,58.4047379 C57.4672381,58.8583692 57.5144906,59.2930927 57.5711946,59.7089214 C57.6278985,60.1247501 57.7129531,60.4460674 57.8263609,60.6728831 C57.9397687,61.0131065 58.185482,61.3249734 58.5635081,61.6084929 C58.9415341,61.8920125 59.3573566,62.1471763 59.8109879,62.3739919 C60.2646192,62.6008076 60.7276942,62.7709168 61.2002268,62.8843246 C61.6727594,62.9977324 62.0791314,63.0544355 62.4193548,63.0544355 C63.2132096,63.0544355 63.8558443,62.7520192 64.3472782,62.1471774 C64.8387121,61.5423357 65.2261831,60.8240969 65.5097026,59.9924395 C65.7932222,59.1607821 65.9822324,58.3007857 66.0767389,57.4124244 C66.1712454,56.5240631 66.218498,55.7963738 66.218498,55.2293347 Z"/>
    <g fill="#007180">
      <path d="M38.008696,21.8125964 C36.7772329,21.8125964 35.818961,21.6521617 35.1338512,21.3312876 C34.4487415,21.0104134 33.937085,20.5551258 33.5988663,19.9654111 C33.2606476,19.3756964 33.0568522,18.6645806 32.987474,17.8320422 C32.9180958,16.9995038 32.8834072,16.0715843 32.8834072,15.0482559 C32.8834072,14.2330621 32.9094236,13.4135444 32.9614573,12.5896783 C33.0134909,11.7658122 33.0915402,10.8855895 33.1956075,9.94898385 C32.9527838,9.94898385 32.7619967,9.95331992 32.6232403,9.9619922 C32.4844839,9.97066447 32.371746,9.97500055 32.2850232,9.97500055 C31.7299976,9.97500055 31.2486936,9.85359052 30.8410967,9.61076683 C30.4334998,9.36794313 30.2297044,8.99504091 30.2297044,8.49204898 C30.2297044,8.17984708 30.3467783,7.90233845 30.5809298,7.65951476 C30.8150812,7.41669107 31.1142702,7.2085596 31.4785057,7.0351141 C31.8427413,6.86166861 32.2373238,6.72291429 32.6622653,6.61884699 C33.0872068,6.5147797 33.4904615,6.44540254 33.8720416,6.41071344 C33.8720416,5.92506605 33.9067302,5.38739308 33.9761084,4.7976784 C34.0454866,4.20796372 34.1712327,3.65728253 34.3533504,3.14561832 C34.5354682,2.63395411 34.7826243,2.20468295 35.0948262,1.85779195 C35.4070281,1.51090096 35.8059468,1.33745807 36.2915941,1.33745807 C36.5691069,1.33745807 36.8162631,1.41984345 37.0330699,1.58461667 C37.2498768,1.74938989 37.4276558,1.95752136 37.5664122,2.20901733 C37.7051686,2.46051329 37.8092343,2.742358 37.8786125,3.05455989 C37.9479907,3.36676178 37.9826793,3.67028684 37.9826793,3.96514419 C37.9826793,4.31203518 37.9566628,4.66759311 37.9046292,5.03182865 C37.8525955,5.39606419 37.7572019,5.84701571 37.6184455,6.38469675 C37.9133029,6.35000765 38.1127622,6.32832729 38.2168295,6.31965501 C38.3208968,6.31098274 38.4162904,6.30664666 38.5030131,6.30664666 C38.7978705,6.30664666 39.1057316,6.3326631 39.4266058,6.38469675 C39.74748,6.43673039 40.0423329,6.52345184 40.3111734,6.64486369 C40.5800139,6.76627553 40.8011536,6.92671021 40.9745991,7.12617253 C41.1480446,7.32563485 41.234766,7.56411883 41.234766,7.84163162 C41.234766,8.15383351 41.1090199,8.43134214 40.857524,8.67416584 C40.606028,8.91698953 40.2894947,9.125121 39.9079146,9.2985665 C39.5263345,9.47201199 39.1187437,9.60643023 38.68513,9.70182526 C38.2515163,9.79722028 37.8439255,9.86226136 37.4623454,9.89695046 C37.3582781,10.608077 37.2845649,11.2628239 37.2412035,11.8612109 C37.1978421,12.4595978 37.1501453,13.0623119 37.0981117,13.6693711 C37.0634226,13.9642285 37.0330701,14.2634175 37.0070532,14.5669471 C36.9810364,14.8704767 36.9680282,15.1783378 36.9680282,15.4905397 C36.9680282,15.7160189 36.9767003,15.9805193 36.9940449,16.2840489 C37.0113894,16.5875785 37.0720944,16.8780954 37.1761617,17.1556081 C37.280229,17.4331209 37.4449998,17.6716049 37.6704789,17.8710672 C37.8959581,18.0705296 38.2081553,18.1702592 38.6070799,18.1702592 C38.8499036,18.1702592 39.1013958,18.1485789 39.3615641,18.1052175 C39.6217323,18.0618561 39.8818966,18.0401757 40.1420649,18.0401757 C40.5930232,18.0401757 40.9182286,18.1962744 41.1176909,18.5084762 C41.3171532,18.8206781 41.4168829,19.2195968 41.4168829,19.7052442 C41.4168829,20.0694797 41.3084811,20.386013 41.0916742,20.6548535 C40.8748674,20.923694 40.6016948,21.1404976 40.2721484,21.3052709 C39.9426019,21.4700441 39.5740358,21.5957902 39.1664388,21.6825129 C38.7588419,21.7692357 38.3729315,21.8125964 38.008696,21.8125964 Z" transform="rotate(-20 35.823 11.575)"/>
      <path d="M29.9208856,21.0540563 C29.9208856,21.643771 29.7344345,22.2204686 29.3615267,22.7841665 C28.9886188,23.3478643 28.520323,23.8508487 27.9566252,24.2931347 C27.3929273,24.7354207 26.7902133,25.0909787 26.1484649,25.3598192 C25.5067166,25.6286597 24.9170108,25.763078 24.3793297,25.763078 C23.4600686,25.763078 22.6405509,25.5332661 21.9207521,25.0736356 C21.2009533,24.614005 20.5982393,24.0286352 20.1125919,23.3175087 C19.6269445,22.6063822 19.2583783,21.8215531 19.0068824,20.9629979 C18.7553864,20.1044427 18.6296403,19.2675807 18.6296403,18.4523869 C18.6296403,17.5851594 18.7510503,16.6572399 18.993874,15.6686006 C19.2366977,14.6799613 19.6052639,13.7693861 20.0995835,12.9368477 C20.5939032,12.1043093 21.2182976,11.4105378 21.9727855,10.8555122 C22.7272734,10.3004866 23.6248404,10.022978 24.6655134,10.022978 C25.255228,10.022978 25.8189174,10.1227076 26.3565985,10.3221699 C26.8942795,10.5216323 27.3625753,10.803477 27.7615,11.1677125 C28.1604246,11.531948 28.481294,11.9655553 28.7241177,12.4685472 C28.9669413,12.9715392 29.0883514,13.5352286 29.0883514,14.1596323 C29.0883514,14.9748262 28.9149085,15.7379749 28.5680175,16.4491014 C28.2211265,17.160228 27.7615028,17.7759502 27.1891327,18.2962867 C26.6167626,18.8166232 25.9576796,19.2372222 25.2118639,19.5580964 C24.4660483,19.8789706 23.7028996,20.0567495 22.9223948,20.0914386 C22.991773,20.5944306 23.1955684,20.9586606 23.5337872,21.1841398 C23.8720059,21.4096189 24.2752606,21.5223568 24.7435634,21.5223568 C25.0904544,21.5223568 25.4286681,21.4356353 25.7582145,21.2621899 C26.087761,21.0887444 26.4086303,20.8936211 26.7208322,20.6768142 C27.0330341,20.4600074 27.3408952,20.2648841 27.6444248,20.0914386 C27.9479545,19.9179931 28.2558156,19.8312717 28.5680175,19.8312717 C28.9149085,19.8312717 29.2271057,19.9440096 29.5046185,20.1694887 C29.7821313,20.3949678 29.9208856,20.6898208 29.9208856,21.0540563 Z M25.7061811,14.6799662 C25.7061811,14.4544871 25.6454761,14.2203392 25.5240643,13.9775155 C25.4026524,13.7346918 25.2118652,13.6132818 24.951697,13.6132818 C24.5701169,13.6132818 24.2492476,13.7130114 23.9890793,13.9124737 C23.7289111,14.1119361 23.5121075,14.3634283 23.338662,14.6669579 C23.1652165,14.9704875 23.0307982,15.2956929 22.9354032,15.6425839 C22.8400082,15.9894749 22.7836392,16.3103443 22.7662947,16.6052016 C23.0091184,16.5531679 23.2996352,16.4837908 23.6378539,16.397068 C23.9760727,16.3103453 24.296942,16.1932713 24.6004716,16.0458427 C24.9040012,15.898414 25.1641656,15.7119629 25.3809725,15.4864837 C25.5977793,15.2610046 25.7061811,14.9921681 25.7061811,14.6799662 Z" transform="rotate(-20 24.275 17.893)"/>
      <path d="M16.0138547,15.4908934 C16.0138547,16.930491 15.9791661,18.3744031 15.9097879,19.822673 C15.8404097,21.2709429 15.7536883,22.714855 15.649621,24.1544526 C15.6322764,24.4146208 15.6149321,24.7658427 15.5975876,25.2081287 C15.580243,25.6504147 15.5455545,26.1273827 15.4935208,26.6390469 C15.4414872,27.1507111 15.37211,27.6667037 15.2853873,28.1870402 C15.1986645,28.7073767 15.0642463,29.1800086 14.8821285,29.60495 C14.7000107,30.0298915 14.4658628,30.3767773 14.1796778,30.6456178 C13.8934927,30.9144583 13.5422708,31.0488766 13.1260016,31.0488766 C12.7617661,31.0488766 12.4365607,30.9708273 12.1503756,30.8147263 C11.8641905,30.6586254 11.6257066,30.45483 11.4349165,30.203334 C11.2441265,29.951838 11.0967,29.6656573 10.9926327,29.3447831 C10.8885654,29.0239089 10.8365325,28.6900314 10.8365325,28.3431404 C10.8365325,27.7707702 10.8538768,27.1940726 10.8885659,26.6130302 C10.923255,26.0319878 10.9752879,25.4552902 11.0446661,24.88292 L8.46901338,25.143087 C8.41697973,25.5940453 8.36061079,26.1360543 8.29990486,26.7691304 C8.23919894,27.4022064 8.11778891,28.0092566 7.93567114,28.590299 C7.75355338,29.1713414 7.48038082,29.6699897 7.11614528,30.0862589 C6.75190974,30.5025281 6.24892535,30.7106595 5.60717701,30.7106595 C5.20825238,30.7106595 4.87871088,30.619602 4.61854263,30.4374843 C4.35837439,30.2553665 4.15024292,30.0212186 3.99414197,29.7350335 C3.83804103,29.4488484 3.72530315,29.1323152 3.65592495,28.7854242 C3.58654675,28.4385332 3.55185817,28.1089917 3.55185817,27.7967898 C3.55185817,26.7561168 3.5952189,25.7197955 3.68194164,24.6877948 C3.76866439,23.6557941 3.8293694,22.6194729 3.8640585,21.5787999 C3.8987476,20.4860933 3.91175582,19.389067 3.90308354,18.2876881 C3.89441127,17.1863092 3.90741949,16.0806107 3.94210859,14.9705596 C3.95945313,14.606324 3.97246135,14.1813889 3.98113363,13.6957415 C3.9898059,13.2100942 4.05051091,12.7548066 4.16325049,12.3298651 C4.27599006,11.9049236 4.46677724,11.5450296 4.73561776,11.2501723 C5.00445828,10.9553149 5.407713,10.8078885 5.94539404,10.8078885 C6.69120967,10.8078885 7.25489907,11.0030117 7.63647916,11.3932641 C8.01805925,11.7835165 8.28689574,12.2691566 8.44299668,12.850199 C8.59909763,13.4312414 8.67714693,14.0469637 8.67714693,14.6973843 L8.67714693,16.4535111 C8.67714693,17.1472931 8.65980264,17.8280565 8.62511354,18.4958216 C8.59042444,19.1635868 8.55573586,19.835678 8.52104676,20.5121154 L11.304833,20.0958483 C11.3221776,19.2459654 11.3395219,18.4047674 11.3568664,17.572229 C11.374211,16.7396906 11.4088996,15.9071647 11.4609332,15.0746263 C11.4782778,14.6757017 11.495622,14.2507666 11.5129666,13.7998083 C11.5303111,13.34885 11.5996883,12.9325871 11.7211002,12.551007 C11.842512,12.1694269 12.0463074,11.8528936 12.3324925,11.6013977 C12.6186775,11.3499017 13.0479487,11.2241556 13.6203188,11.2241556 C14.1059662,11.2241556 14.5005488,11.3629099 14.8040784,11.6404227 C15.107608,11.9179355 15.3504281,12.2561491 15.5325459,12.6550738 C15.7146636,13.0539984 15.8404097,13.4789335 15.9097879,13.9298918 C15.9791661,14.3808501 16.0138547,14.7884409 16.0138547,15.1526764 L16.0138547,15.4908934 Z" transform="rotate(-20 9.783 20.928)"/>
    </g>
    <g transform="translate(188.161 15.42)">
      <path fill="#6A41B0" fill-rule="nonzero" d="M13.3293321,7.31685752 C13.33672,7.30886165 13.342385,7.30148993 13.3464779,7.29501966 C13.3447386,7.29776922 13.3429766,7.30062631 13.3411924,7.30359044 L13.3293321,7.31685752 Z M16.3493593,9.57836827 C17.2734592,9.35985693 19.0445936,9.35526415 21.5872163,9.49323174 C22.3298338,9.53352759 23.1139139,9.58526965 23.9452288,9.647222 C24.3970673,9.68089451 24.8471828,9.71638449 25.3282744,9.75583672 C25.6289059,9.78049019 25.9191233,9.80481312 26.4323954,9.84964765 C26.5424021,9.86531351 26.7000477,9.88215103 26.91115,9.90023315 C27.5031363,9.95643562 27.9418536,9.99860757 28.2278171,10.0268008 C28.5172508,10.0553361 28.9150284,10.0978212 29.4222264,10.1543484 C29.9476243,10.2129039 30.3462343,10.2672012 30.626608,10.3192806 C30.90117,10.3702804 31.2325263,10.4447876 31.6232717,10.5429853 C32.0718261,10.6557108 32.4254089,10.7801126 32.7004735,10.93219 C32.9025569,11.0439177 33.1302491,11.1786071 33.3845505,11.3366345 C33.7599883,11.5699382 34.050853,11.8505356 34.2401503,12.1919972 C34.3853877,12.4539818 34.4940991,12.7459166 34.5690237,13.066013 C34.6481778,13.4041788 34.6711378,13.7638447 34.6419167,14.138213 C34.603302,14.6661211 34.3987245,15.1380841 34.0385837,15.5141888 C33.7054024,15.862139 33.2559885,16.1039176 32.7039175,16.2611565 C32.2566171,16.388555 31.797504,16.4786754 31.3271321,16.5315582 C30.8586039,16.5842336 30.2728461,16.5994003 29.5624851,16.5794997 C28.8825591,16.5604518 28.2569454,16.5318149 27.6853303,16.4935078 C27.1188233,16.455543 26.4167365,16.3988597 25.5799553,16.3235962 C23.6021522,16.1493764 19.2130617,15.4213281 16.8997561,14.8892234 C16.9471403,16.2354564 16.9827922,17.4941485 17.0067074,18.6654083 C17.0309622,19.8533037 17.0552109,21.2015689 17.0794563,22.710307 C17.1035205,24.2077723 17.1395583,25.4536356 17.1870262,26.4388677 C17.2437563,27.452162 17.2177523,27.8911086 17.1011211,28.3964501 C17.0875436,28.4548299 17.0875436,28.4548299 17.0758966,28.5055133 C16.9729572,28.9597488 16.9476153,29.618121 17.0419312,31.4523637 C17.1576821,33.7034707 16.4568878,35.7895875 15.3162812,36.8899731 C13.828286,38.3254974 12.0270467,37.6131869 11.6987245,35.353058 C11.6209255,34.8174998 11.5438366,34.3241891 11.4468229,33.7314047 C11.4460021,33.7263896 11.2648472,32.6307181 11.2160375,32.3255988 C10.9276379,30.5227547 10.7689664,29.0518984 10.6355622,26.6217213 C10.5058295,23.6223848 10.4328525,20.6439731 10.4166343,17.6864016 C10.4002815,14.7042741 10.5191193,12.0905193 10.774236,9.84293383 C11.0874562,7.08345534 11.4823336,5.78108925 12.6164965,5.50167508 C13.4768491,5.32141297 14.2753291,5.55348409 14.8947934,6.16861021 C15.4141247,6.68430441 15.7929154,7.42636435 16.0616883,8.38872372 C16.1679065,8.76904536 16.2637697,9.16558232 16.3493593,9.57836827 Z" transform="rotate(45 22.535 21.538)"/>
      <path fill="#8A73B4" fill-rule="nonzero" d="M11.3293321,6.31685752 C11.33672,6.30886165 11.342385,6.30148993 11.3464779,6.29501966 C11.3447386,6.29776922 11.3429766,6.30062631 11.3411924,6.30359044 L11.3293321,6.31685752 Z M14.3493593,8.57836827 C15.2734592,8.35985693 17.0445936,8.35526415 19.5872163,8.49323174 C20.3298338,8.53352759 21.1139139,8.58526965 21.9452288,8.647222 C22.3970673,8.68089451 22.8471828,8.71638449 23.3282744,8.75583672 C23.6289059,8.78049019 23.9191233,8.80481312 24.4323954,8.84964765 C24.5424021,8.86531351 24.7000477,8.88215103 24.91115,8.90023315 C25.5031363,8.95643562 25.9418536,8.99860757 26.2278171,9.02680079 C26.5172508,9.05533614 26.9150284,9.09782124 27.4222264,9.1543484 C27.9476243,9.21290395 28.3462343,9.26720123 28.626608,9.31928059 C28.90117,9.37028044 29.2325263,9.4447876 29.6232717,9.54298526 C30.0718261,9.65571085 30.4254089,9.7801126 30.7004735,9.93219002 C30.9025569,10.0439177 31.1302491,10.1786071 31.3845505,10.3366345 C31.7599883,10.5699382 32.050853,10.8505356 32.2401503,11.1919972 C32.3853877,11.4539818 32.4940991,11.7459166 32.5690237,12.066013 C32.6481778,12.4041788 32.6711378,12.7638447 32.6419167,13.138213 C32.603302,13.6661211 32.3987245,14.1380841 32.0385837,14.5141888 C31.7054024,14.862139 31.2559885,15.1039176 30.7039175,15.2611565 C30.2566171,15.388555 29.797504,15.4786754 29.3271321,15.5315582 C28.8586039,15.5842336 28.2728461,15.5994003 27.5624851,15.5794997 C26.8825591,15.5604518 26.2569454,15.5318149 25.6853303,15.4935078 C25.1188233,15.455543 24.4167365,15.3988597 23.5799553,15.3235962 C21.6021522,15.1493764 17.2130617,14.4213281 14.8997561,13.8892234 C14.9471403,15.2354564 14.9827922,16.4941485 15.0067074,17.6654083 C15.0309622,18.8533037 15.0552109,20.2015689 15.0794563,21.710307 C15.1035205,23.2077723 15.1395583,24.4536356 15.1870262,25.4388677 C15.2437563,26.452162 15.2177523,26.8911086 15.1011211,27.3964501 C15.0875436,27.4548299 15.0875436,27.4548299 15.0758966,27.5055133 C14.9729572,27.9597488 14.9476153,28.618121 15.0419312,30.4523637 C15.1576821,32.7034707 14.4568878,34.7895875 13.3162812,35.8899731 C11.828286,37.3254974 10.0270467,36.6131869 9.69872446,34.353058 C9.62092551,33.8174998 9.54383657,33.3241891 9.44682288,32.7314047 C9.44600212,32.7263896 9.26484719,31.6307181 9.21603749,31.3255988 C8.9276379,29.5227547 8.76896638,28.0518984 8.63556223,25.6217213 C8.50582953,22.6223848 8.43285246,19.6439731 8.41663433,16.6864016 C8.40028154,13.7042741 8.51911933,11.0905193 8.77423604,8.84293383 C9.08745619,6.08345534 9.48233363,4.78108925 10.6164965,4.50167508 C11.4768491,4.32141297 12.2753291,4.55348409 12.8947934,5.16861021 C13.4141247,5.68430441 13.7929154,6.42636435 14.0616883,7.38872372 C14.1679065,7.76904536 14.2637697,8.16558232 14.3493593,8.57836827 Z" transform="rotate(45 20.535 20.538)"/>
      <path fill="#6A41B0" d="M34.8664859,43.6352017 C34.8664859,45.7654619 34.6534631,47.8763244 34.2274111,49.9678526 C33.801359,52.0593808 33.0848277,53.9281719 32.0777956,55.5742821 C31.0707635,57.2203922 29.7248466,58.5469435 28.0400044,59.5539755 C26.3551623,60.5610076 24.2539826,61.0645161 21.7364024,61.0645161 C19.2575541,61.0645161 17.185423,60.5706905 15.5199469,59.5830244 C13.8544707,58.5953583 12.5279195,57.2881728 11.5402534,55.6614287 C10.5525873,54.0346845 9.85542172,52.1949419 9.44873568,50.1421457 C9.04204965,48.0893496 8.83870968,45.9978527 8.83870968,43.8675925 C8.83870968,41.5436723 9.10982964,39.2391527 9.65207768,36.9539645 C9.7682737,36.3342524 9.99097938,35.4724783 10.3202014,34.3686162 C10.6494234,33.2647541 11.0754691,32.1802742 11.5983511,31.1151441 C12.1212332,30.050014 12.7215702,29.1301428 13.3993803,28.3555027 C14.0771904,27.5808626 14.8227702,27.1935484 15.6361423,27.1935484 C16.4107824,27.1935484 17.0304851,27.4065712 17.4952692,27.8326233 C17.9600532,28.2586753 18.3280017,28.7912323 18.5991258,29.4303104 C18.8702498,30.0693885 19.0445412,30.7471884 19.1220052,31.4637304 C19.1994692,32.1802725 19.2382006,32.8290238 19.2382006,33.4100039 C19.2382006,34.30084 19.1704206,35.172297 19.0348586,36.024401 C18.8992966,36.8765051 18.7540538,37.7285964 18.5991258,38.5807005 C18.4441978,39.7426606 18.2989549,40.9046033 18.1633929,42.0665634 C18.0278309,43.2285235 17.9600509,44.3904662 17.9600509,45.5524263 C17.9600509,46.1334063 17.9890995,46.7821577 18.0471975,47.4986997 C18.1052955,48.2152418 18.2505383,48.9027245 18.4829303,49.5611686 C18.7153224,50.2196127 19.0445395,50.7715354 19.4705915,51.2169535 C19.8966435,51.6623715 20.4969806,51.8850772 21.2716206,51.8850772 C22.2786527,51.8850772 23.0823298,51.6139572 23.6826758,51.0717092 C24.2830219,50.5294611 24.7284332,49.8516612 25.0189233,49.0382892 C25.3094133,48.2249171 25.4933875,47.3534601 25.5708515,46.423892 C25.6483156,45.4943239 25.687047,44.6422326 25.687047,43.8675925 C25.687047,42.1633844 25.5708527,40.4882504 25.3384607,38.8421402 C25.1060687,37.1960301 24.8930458,35.520896 24.6993858,33.8166879 C24.6606538,33.6230279 24.6412881,33.3519079 24.6412881,33.0033199 C24.6412881,32.4223398 24.7381167,31.8413685 24.9317767,31.2603884 C25.1254367,30.6794084 25.3965567,30.1565342 25.7451447,29.6917501 C26.0937327,29.2269661 26.5197784,28.8493347 27.0232944,28.5588447 C27.5268105,28.2683547 28.0884161,28.1231118 28.7081281,28.1231118 C29.5602322,28.1231118 30.315495,28.4232803 30.973939,29.0236264 C31.6323831,29.6239725 32.1843059,30.3986009 32.6297239,31.347535 C33.0751419,32.2964691 33.4430905,33.3615832 33.7335805,34.5429093 C34.0240705,35.7242354 34.256459,36.8861781 34.4307531,38.0287722 C34.6050471,39.1713663 34.7212413,40.2461633 34.7793393,41.2531954 C34.8374374,42.2602275 34.8664859,43.0542216 34.8664859,43.6352017 Z"/>
      <path fill="#8A73B4" d="M32.8664859,42.6352017 C32.8664859,44.7654619 32.6534631,46.8763244 32.2274111,48.9678526 C31.801359,51.0593808 31.0848277,52.9281719 30.0777956,54.5742821 C29.0707635,56.2203922 27.7248466,57.5469435 26.0400044,58.5539755 C24.3551623,59.5610076 22.2539826,60.0645161 19.7364024,60.0645161 C17.2575541,60.0645161 15.185423,59.5706905 13.5199469,58.5830244 C11.8544707,57.5953583 10.5279195,56.2881728 9.54025342,54.6614287 C8.55258733,53.0346845 7.85542172,51.1949419 7.44873568,49.1421457 C7.04204965,47.0893496 6.83870968,44.9978527 6.83870968,42.8675925 C6.83870968,40.5436723 7.10982964,38.2391527 7.65207768,35.9539645 C7.7682737,35.3342524 7.99097938,34.4724783 8.32020141,33.3686162 C8.64942344,32.2647541 9.07546908,31.1802742 9.59835113,30.1151441 C10.1212332,29.050014 10.7215702,28.1301428 11.3993803,27.3555027 C12.0771904,26.5808626 12.8227702,26.1935484 13.6361423,26.1935484 C14.4107824,26.1935484 15.0304851,26.4065712 15.4952692,26.8326233 C15.9600532,27.2586753 16.3280017,27.7912323 16.5991258,28.4303104 C16.8702498,29.0693885 17.0445412,29.7471884 17.1220052,30.4637304 C17.1994692,31.1802725 17.2382006,31.8290238 17.2382006,32.4100039 C17.2382006,33.30084 17.1704206,34.172297 17.0348586,35.024401 C16.8992966,35.8765051 16.7540538,36.7285964 16.5991258,37.5807005 C16.4441978,38.7426606 16.2989549,39.9046033 16.1633929,41.0665634 C16.0278309,42.2285235 15.9600509,43.3904662 15.9600509,44.5524263 C15.9600509,45.1334063 15.9890995,45.7821577 16.0471975,46.4986997 C16.1052955,47.2152418 16.2505383,47.9027245 16.4829303,48.5611686 C16.7153224,49.2196127 17.0445395,49.7715354 17.4705915,50.2169535 C17.8966435,50.6623715 18.4969806,50.8850772 19.2716206,50.8850772 C20.2786527,50.8850772 21.0823298,50.6139572 21.6826758,50.0717092 C22.2830219,49.5294611 22.7284332,48.8516612 23.0189233,48.0382892 C23.3094133,47.2249171 23.4933875,46.3534601 23.5708515,45.423892 C23.6483156,44.4943239 23.687047,43.6422326 23.687047,42.8675925 C23.687047,41.1633844 23.5708527,39.4882504 23.3384607,37.8421402 C23.1060687,36.1960301 22.8930458,34.520896 22.6993858,32.8166879 C22.6606538,32.6230279 22.6412881,32.3519079 22.6412881,32.0033199 C22.6412881,31.4223398 22.7381167,30.8413685 22.9317767,30.2603884 C23.1254367,29.6794084 23.3965567,29.1565342 23.7451447,28.6917501 C24.0937327,28.2269661 24.5197784,27.8493347 25.0232944,27.5588447 C25.5268105,27.2683547 26.0884161,27.1231118 26.7081281,27.1231118 C27.5602322,27.1231118 28.315495,27.4232803 28.973939,28.0236264 C29.6323831,28.6239725 30.1843059,29.3986009 30.6297239,30.347535 C31.0751419,31.2964691 31.4430905,32.3615832 31.7335805,33.5429093 C32.0240705,34.7242354 32.256459,35.8861781 32.4307531,37.0287722 C32.6050471,38.1713663 32.7212413,39.2461633 32.7793393,40.2531954 C32.8374374,41.2602275 32.8664859,42.0542216 32.8664859,42.6352017 Z"/>
    </g>
  </g>
</svg>
