<svg xmlns="http://www.w3.org/2000/svg" width="161" height="64" viewBox="0 0 161 64">
  <defs>
    <filter id="a" width="104.8%" height="111.7%" x="-2.2%" y="-4.2%" filterUnits="objectBoundingBox">
      <feOffset dy="1" in="SourceAlpha" result="shadowOffsetOuter1"/>
      <feGaussianBlur stdDeviation="1" in="shadowOffsetOuter1" result="shadowBlurOuter1"/>
      <feComposite in="shadowBlurOuter1" in2="SourceAlpha" operator="out" result="shadowBlurOuter1"/>
      <feColorMatrix values="0 0 0 0 0 0 0 0 0 0 0 0 0 0 0 0 0 0 0.24 0" in="shadowBlurOuter1" result="shadowMatrixOuter1"/>
      <feMerge>
        <feMergeNode in="shadowMatrixOuter1"/>
        <feMergeNode in="SourceGraphic"/>
      </feMerge>
    </filter>
    <radialGradient id="b" cx="95.096%" cy="105.143%" r="128.156%" fx="95.096%" fy="105.143%" gradientTransform="matrix(1 0 0 .96002 0 .042)">
      <stop stop-color="#FF9966" offset="0%"/>
      <stop stop-color="#FF5E62" offset="100%"/>
    </radialGradient>
    <radialGradient id="c" cx="50.057%" cy="49.975%" r="98.071%" fx="50.057%" fy="49.975%" gradientTransform="matrix(1 0 0 .38651 0 .307)">
      <stop stop-color="#F85032" offset="0%"/>
      <stop stop-color="#E73827" offset="100%"/>
    </radialGradient>
    <radialGradient id="d" cx="49.683%" cy="68.098%" r="56.601%" fx="49.683%" fy="68.098%" gradientTransform="matrix(1 0 0 .38651 0 .418)">
      <stop stop-color="#F85032" offset="0%"/>
      <stop stop-color="#E73827" offset="100%"/>
    </radialGradient>
    <radialGradient id="e" cx="50.074%" cy="50.063%" r="50.632%" fx="50.074%" fy="50.063%" gradientTransform="matrix(.97698 0 0 1 .012 0)">
      <stop stop-color="#F85032" offset="0%"/>
      <stop stop-color="#E73827" offset="100%"/>
    </radialGradient>
    <radialGradient id="f" cx="50.086%" cy="49.975%" r="529.422%" fx="50.086%" fy="49.975%" gradientTransform="matrix(.09249 0 0 1 .455 0)">
      <stop stop-color="#F85032" offset="0%"/>
      <stop stop-color="#E73827" offset="100%"/>
    </radialGradient>
  </defs>
  <g fill="none" fill-rule="evenodd" filter="url(#a)" transform="translate(2 1)">
    <g fill-rule="nonzero">
      <path fill="url(#b)" d="M38.304,55.536 C33.696,61.44 24.768,61.44 20.16,55.536 C10.944,43.728 4.512,30.48 0.816,16.608 L0.768,16.512 C-0.768,11.04 2.352,5.376 7.728,3.552 C14.688,1.152 21.936,0 29.184,0 C36.384,0 43.632,1.152 50.544,3.504 C55.968,5.376 59.088,11.04 57.552,16.608 C53.952,30.432 47.52,43.728 38.304,55.536 Z"/>
      <g fill="#FFFFFF" transform="translate(15.84 10.56)">
        <rect width="26.352" height="8.784" x=".24" y="9.168"/>
        <rect width="8.784" height="26.352" x="9.456" y=".384"/>
      </g>
      <path fill="url(#c)" d="M20.832,56.352 L20.16,55.584 C10.944,43.728 4.512,30.48 0.816,16.608 L0.816,16.512 C-0.72,11.04 2.4,5.424 7.728,3.552 L7.776,3.552 C7.056,7.392 6.672,11.472 6.672,15.552 C6.72,30.912 12,45.168 20.832,56.352 Z" opacity=".5"/>
      <path fill="url(#d)" d="M37.632,56.352 L38.304,55.584 C47.52,43.728 53.952,30.48 57.648,16.608 L57.648,16.512 C59.184,11.04 56.064,5.424 50.736,3.552 L50.688,3.552 C51.408,7.392 51.792,11.472 51.792,15.552 C51.744,30.912 46.464,45.168 37.632,56.352 Z" opacity=".5"/>
      <polygon fill="url(#e)" points="34.032 37.296 33.216 38.064 24.432 38.064 24.432 29.28 15.264 29.28 15.264 20.544 16.08 19.728 16.08 28.512 25.296 28.512 25.296 37.296" opacity=".5"/>
      <polygon fill="url(#f)" points="42.384 28.512 41.616 29.28 34.08 29.28 34.08 28.512" opacity=".5"/>
    </g>
    <path fill="#002E40" d="M90.34689,17.3827751 L90.34689,37.4210526 L86.3277512,37.4210526 L86.3277512,24.7607656 L80.8732057,37.4210526 L77.9736842,37.4210526 L72.5478469,24.8181818 L72.5478469,37.4210526 L68.5,37.4210526 L68.5,17.3827751 L73.007177,17.3827751 L79.437799,32.2248804 L85.8684211,17.3827751 L90.34689,17.3827751 Z M101.370813,37.6507177 C99.0550123,37.6507177 97.1698637,36.899529 95.715311,35.3971292 C94.2607583,33.8947293 93.5334928,31.9091033 93.5334928,29.4401914 C93.5334928,26.9712795 94.2655429,24.9952227 95.7296651,23.5119617 C97.1937872,22.0287007 99.0885051,21.2870813 101.413876,21.2870813 C103.739246,21.2870813 105.648318,22.0095622 107.141148,23.4545455 C108.633979,24.8995288 109.380383,26.8277391 109.380383,29.2392344 C109.380383,29.7942611 109.342106,30.3110024 109.26555,30.7894737 L97.6674641,30.7894737 C97.7631584,31.8229717 98.1459297,32.6554992 98.8157895,33.2870813 C99.4856493,33.9186634 100.337315,34.2344498 101.370813,34.2344498 C102.76795,34.2344498 103.801432,33.6602928 104.471292,32.5119617 L108.834928,32.5119617 C108.375596,34.023931 107.485653,35.2583684 106.165072,36.215311 C104.844491,37.1722536 103.246421,37.6507177 101.370813,37.6507177 Z M104.026316,25.6507177 C103.308609,25.0191356 102.442589,24.7033493 101.42823,24.7033493 C100.413871,24.7033493 99.566989,25.0191356 98.8875598,25.6507177 C98.2081306,26.2822998 97.8014361,27.1243967 97.6674641,28.1770335 L105.188995,28.1770335 C105.131579,27.1243967 104.744023,26.2822998 104.026316,25.6507177 Z M123.964115,29.4688995 C123.964115,28.0143468 123.543066,26.8708176 122.700957,26.0382775 C121.858847,25.2057375 120.873211,24.7894737 119.744019,24.7894737 C118.614827,24.7894737 117.633975,25.2009528 116.801435,26.0239234 C115.968895,26.8468941 115.552632,27.9856387 115.552632,29.4401914 C115.552632,30.8947441 115.97368,32.043058 116.815789,32.8851675 C117.657899,33.7272769 118.63875,34.1483254 119.758373,34.1483254 C120.877996,34.1483254 121.858847,33.7320616 122.700957,32.8995215 C123.543066,32.0669815 123.964115,30.9234522 123.964115,29.4688995 Z M111.447368,29.4401914 C111.447368,27.0478349 112.155495,25.0909167 113.57177,23.569378 C114.988045,22.0478393 116.78707,21.2870813 118.9689,21.2870813 C121.150729,21.2870813 122.815784,22.1865939 123.964115,23.9856459 L123.964115,16.1770335 L127.983254,16.1770335 L127.983254,37.4210526 L123.964115,37.4210526 L123.964115,34.7511962 C122.758367,36.6842202 121.083743,37.6507177 118.940191,37.6507177 C116.79664,37.6507177 115.011969,36.8803905 113.586124,35.3397129 C112.16028,33.7990354 111.447368,31.8325478 111.447368,29.4401914 Z M136.050239,19.2200957 C135.571768,19.698567 134.992826,19.937799 134.313397,19.937799 C133.633968,19.937799 133.055026,19.698567 132.576555,19.2200957 C132.098084,18.7416244 131.858852,18.1578982 131.858852,17.4688995 C131.858852,16.7799009 132.098084,16.1961746 132.576555,15.7177033 C133.055026,15.2392321 133.633968,15 134.313397,15 C134.992826,15 135.571768,15.2392321 136.050239,15.7177033 C136.528711,16.1961746 136.767943,16.7799009 136.767943,17.4688995 C136.767943,18.1578982 136.528711,18.7416244 136.050239,19.2200957 Z M132.289474,37.4210526 L132.289474,21.5167464 L136.337321,21.5167464 L136.337321,37.4210526 L132.289474,37.4210526 Z M152.04067,29.4688995 C152.04067,28.0143468 151.619621,26.8708176 150.777512,26.0382775 C149.935402,25.2057375 148.949766,24.7894737 147.820574,24.7894737 C146.691382,24.7894737 145.71053,25.2009528 144.87799,26.0239234 C144.04545,26.8468941 143.629187,27.9856387 143.629187,29.4401914 C143.629187,30.8947441 144.050235,32.043058 144.892344,32.8851675 C145.734454,33.7272769 146.715305,34.1483254 147.834928,34.1483254 C148.954551,34.1483254 149.935402,33.7320616 150.777512,32.8995215 C151.619621,32.0669815 152.04067,30.9234522 152.04067,29.4688995 Z M139.523923,29.4401914 C139.523923,27.0478349 140.23205,25.0909167 141.648325,23.569378 C143.0646,22.0478393 144.863625,21.2870813 147.045455,21.2870813 C149.227284,21.2870813 150.892339,22.1865939 152.04067,23.9856459 L152.04067,21.5167464 L156.059809,21.5167464 L156.059809,45 L152.04067,45 L152.04067,34.7511962 C150.834922,36.6842202 149.160298,37.6507177 147.016746,37.6507177 C144.873195,37.6507177 143.088524,36.8803905 141.662679,35.3397129 C140.236835,33.7990354 139.523923,31.8325478 139.523923,29.4401914 Z"/>
  </g>
</svg>
