<svg xmlns="http://www.w3.org/2000/svg" width="158" height="40" viewBox="0 0 158 40">
  <g fill="none" fill-rule="evenodd">
    <path fill="#FFFFFF" d="M26.3345161,4.08961661 L24.4627625,2.20562941 C22.0174857,-0.255629605 18.0529087,-0.255629605 15.6076319,2.20562941 L13.7358783,4.08961661 L10.3245836,4.08961661 C6.86643997,4.08961661 4.06306066,6.91131866 4.06306066,10.3920645 L4.06306066,13.8256553 L2.19130714,15.7096425 C-0.253969673,18.1709015 -0.253969673,22.1613909 2.19130714,24.6226499 L4.06306066,26.5066371 L4.06306066,29.4896231 C4.06306066,32.9703689 6.86643997,35.792071 10.3245836,35.792071 L13.2881995,35.792071 L15.6076319,38.126663 C18.0529087,40.587922 22.0174857,40.587922 24.4627625,38.126663 L26.7821949,35.792071 L29.298132,35.792071 C32.7562756,35.792071 35.5596549,32.9703689 35.5596549,29.4896231 L35.5596549,26.9572419 L37.8790873,24.6226499 C40.3243641,22.1613909 40.3243641,18.1709015 37.8790873,15.7096425 L35.5596549,13.3750505 L35.5596549,10.3920645 C35.5596549,6.91131866 32.7562756,4.08961661 29.298132,4.08961661 L26.3345161,4.08961661 Z"/>
    <path fill="#061649" d="M18.3766496,17.5716252 C18.9689325,14.8871403 21.4525122,12.9505803 24.1339192,13.1071573 C26.9106074,13.2720692 28.9031792,15.5982589 29.3196289,18.404868 C29.3676403,18.7861507 29.3925431,19.1940418 29.3925431,19.5853654 C29.3925431,22.0069523 28.3616156,24.3614168 26.6135136,25.8278794 C25.7110848,26.5803769 24.3772799,26.4709511 23.5814166,25.5728439 C22.8209166,24.6741068 22.9329189,23.3399073 23.8299916,22.5919697 C24.748076,21.8056885 25.2595677,20.3459027 25.057711,18.9977971 C24.9257823,18.0810483 24.4222741,17.4033175 23.8739086,17.3712713 C23.3060831,17.3336931 22.7254996,17.8112305 22.5624727,18.5310337 C22.4886293,18.8242474 22.4620267,19.118038 22.4320998,19.7834098 L22.4307211,19.8308931 C22.3646515,20.9677271 22.3079862,21.4754704 22.1200603,22.1560661 C21.9506194,22.7697164 21.6962079,23.3327547 21.3336081,23.8580849 C20.0282175,25.7500193 17.6503848,26.6805798 15.5286724,26.101375 C13.2807005,25.4857792 11.561968,23.4601619 11.2031477,21.0430134 C10.8850484,18.8083102 11.5134347,16.4259575 12.884321,14.6693728 C13.6130634,13.7651056 14.9696416,13.5995328 15.91365,14.3205719 C16.8245779,15.0439857 16.9913703,16.3906447 16.2650201,17.3277504 C15.6099494,18.1406014 15.2972397,19.3415829 15.462596,20.454142 C15.5735451,21.1936388 16.0913203,21.8283037 16.6870187,21.9833882 C17.0217648,22.0783306 17.507301,21.8448687 17.7932473,21.4266194 C18.0084424,21.118055 18.0801677,20.7116168 18.133255,19.6513802 L18.1353655,19.5926433 C18.1405357,19.5207889 18.1443944,19.4641072 18.153166,19.3327113 C18.2093905,18.4899893 18.2525072,18.0997738 18.3766496,17.5716252 Z" transform="rotate(90 20.257 19.713)"/>
    <path fill="#FFFFFF" d="M56.4637723,16.6863639 C56.4637723,16.9677246 56.5569488,17.2051192 56.7433046,17.3985546 C56.9296604,17.5919901 57.1727928,17.7590455 57.4727091,17.8997259 C57.7726254,18.0404062 58.1118461,18.1634997 58.4903813,18.2690099 C58.8689165,18.3745202 59.2503577,18.4829596 59.6347165,18.5943316 C60.2520201,18.7819054 60.8125349,18.9811995 61.3162779,19.1922201 C61.8200208,19.4032406 62.2509621,19.6552891 62.6091146,19.9483731 C62.9672672,20.2414572 63.2438849,20.5887566 63.4389761,20.9902817 C63.6340673,21.3918069 63.7316114,21.8739229 63.7316114,22.4366443 C63.7316114,23.0521208 63.6107732,23.6060413 63.369093,24.0984225 C63.1274129,24.5908038 62.7794569,25.0099077 62.3252147,25.3557468 C61.8709725,25.701586 61.3221047,25.9668231 60.6785949,26.1514661 C60.0350851,26.336109 59.3115114,26.4284291 58.5078521,26.4284291 C58.0943752,26.4284291 57.6779927,26.4035173 57.2586922,26.353693 C56.8393917,26.3038688 56.4346563,26.2320642 56.0444739,26.1382773 C55.6542915,26.0444904 55.287409,25.9301894 54.9438156,25.7953707 C54.6002221,25.6605521 54.3003103,25.5081506 54.0440711,25.3381619 C53.7878319,25.1681731 53.58692,24.9820676 53.4413296,24.7798396 C53.2957391,24.5776116 53.222945,24.362198 53.222945,24.1335925 C53.222945,23.9870504 53.2535185,23.8434414 53.3146665,23.7027611 C53.3758145,23.5620807 53.4544322,23.4345911 53.5505219,23.3202883 C53.6466116,23.2059855 53.7543469,23.1136654 53.8737311,23.0433252 C53.9931153,22.9729851 54.1110418,22.9378155 54.2275141,22.9378155 C54.3323392,22.9378155 54.434251,22.9554003 54.5332525,22.9905704 C54.632254,23.0257405 54.73271,23.068237 54.8346233,23.1180613 C54.9365366,23.1678856 55.0413601,23.2221053 55.1490971,23.2807221 C55.256834,23.3393389 55.3718487,23.3920933 55.4941447,23.4389867 C55.8959744,23.6206988 56.347298,23.7848234 56.8481292,23.9313655 C57.3489603,24.0779075 57.8730781,24.1511774 58.4204982,24.1511774 C58.7175028,24.1511774 58.9984881,24.1233348 59.2634627,24.0676489 C59.5284374,24.0119629 59.7613786,23.9269698 59.9622934,23.812667 C60.1632083,23.6983642 60.3218995,23.550359 60.4383718,23.3686469 C60.5548442,23.1869348 60.6130795,22.9671251 60.6130795,22.7092111 C60.6130795,22.5157756 60.5781383,22.3428586 60.5082549,22.1904549 C60.4383715,22.0380512 60.3422832,21.9047 60.2199872,21.7903972 C60.0976913,21.6760944 59.9550148,21.5764473 59.7919534,21.4914529 C59.6288921,21.4064586 59.457098,21.3317233 59.2765658,21.2672448 L58.8834736,21.1265651 C58.8077665,21.1031184 58.7349724,21.0782066 58.665089,21.0518291 C58.5952055,21.0254515 58.5194996,21.0005397 58.437969,20.977093 L57.983729,20.8452058 C57.8847275,20.8217591 57.8002863,20.7997781 57.7304029,20.7792623 C57.6605195,20.7587464 57.5979165,20.7382308 57.5425922,20.7177149 C57.4872678,20.697199 57.4334001,20.6766835 57.3809876,20.6561676 C57.328575,20.6356517 57.2674279,20.6136707 57.1975445,20.590224 L56.3764185,20.3000722 C55.8464692,20.1066368 55.3922338,19.9044118 55.0136986,19.6933913 C54.6351635,19.4823708 54.3265163,19.2449762 54.087748,18.9812006 C53.8489796,18.7174249 53.6728178,18.4170183 53.5592573,18.0799716 C53.4456967,17.742925 53.3889173,17.3516636 53.3889173,16.9061759 C53.3889173,16.3200078 53.5097556,15.7895336 53.7514357,15.3147374 C53.9931159,14.8399413 54.3396159,14.4354914 54.7909464,14.1013755 C55.2422768,13.7672597 55.7896887,13.5093496 56.4331985,13.3276375 C57.0767083,13.1459254 57.800282,13.0550707 58.6039413,13.0550707 C58.8951222,13.0550707 59.2125046,13.0741209 59.5560981,13.1122218 C59.8996916,13.1503227 60.2432799,13.2074733 60.5868734,13.2836751 C60.9304668,13.359877 61.2609522,13.4580587 61.5783394,13.5782231 C61.8957266,13.6983876 62.1767119,13.8390658 62.4213039,14.000262 C62.6658959,14.1614583 62.86244,14.3446331 63.0109423,14.5497919 C63.1594446,14.7549507 63.2336946,14.9835529 63.2336946,15.2356051 C63.2336946,15.3821472 63.2060328,15.5169638 63.1507084,15.6400591 C63.0953841,15.7631544 63.021134,15.8686631 62.9279561,15.9565883 C62.8347783,16.0445135 62.7255871,16.1133872 62.6003793,16.1632115 C62.4751715,16.2130358 62.3455979,16.2379476 62.2116547,16.2379476 C62.0369461,16.2379476 61.8767991,16.1998472 61.7312086,16.1236454 C61.4574985,15.982965 61.2027191,15.8628024 60.9668625,15.7631538 C60.731006,15.6635052 60.4966089,15.5814429 60.2636642,15.5169644 C60.0307194,15.4524859 59.7904988,15.4055932 59.542995,15.3762848 C59.2954912,15.3469764 59.0232412,15.3323224 58.7262367,15.3323224 C58.446703,15.3323224 58.1715411,15.3572342 57.9007429,15.4070585 C57.6299447,15.4568827 57.3882681,15.5360143 57.1757061,15.6444554 C56.963144,15.7528965 56.7913498,15.8921093 56.6603184,16.062098 C56.529287,16.2320868 56.4637723,16.4401733 56.4637723,16.6863639 Z M66.2648727,17.24029 L66.4570511,15.4202472 C66.474522,15.2443967 66.5050955,15.068549 66.5487726,14.8926985 C66.5924498,14.7168481 66.6623321,14.5556543 66.7584218,14.4091123 C66.8545115,14.2625702 66.9840851,14.143873 67.1471464,14.0530169 C67.3102077,13.9621609 67.5227666,13.9167335 67.7848294,13.9167335 C68.1691882,13.9167335 68.4472618,14.0515502 68.6190585,14.3211875 C68.7908553,14.5908248 68.8767524,14.9923439 68.8767524,15.5257569 L68.8767524,17.24029 L69.8551153,17.24029 C70.1521198,17.24029 70.3937964,17.3150253 70.5801522,17.4644982 C70.7665079,17.6139711 70.8596844,17.8499002 70.8596844,18.1722927 C70.8596844,18.4712384 70.7606844,18.6954443 70.5626814,18.8449172 C70.3646784,18.9943901 70.096796,19.0691254 69.7590261,19.0691254 L68.8767524,19.0691254 L68.8767524,22.3926819 C68.8767524,22.7443828 68.8825759,23.043324 68.8942231,23.2895146 C68.9058704,23.5357052 68.9437233,23.7364648 69.0077831,23.8917993 C69.0718429,24.0471339 69.1679312,24.1585041 69.2960508,24.2259135 C69.4241704,24.2933228 69.6076116,24.327027 69.8463799,24.327027 C70.0152649,24.327027 70.1797796,24.334354 70.3399291,24.3490082 C70.5000786,24.3636624 70.6412992,24.4002973 70.7635952,24.4589141 C70.8858912,24.5175309 70.9834353,24.6039894 71.0562306,24.7182922 C71.1290258,24.832595 71.1654229,24.9893926 71.1654229,25.1886898 C71.1654229,25.4114336 71.1100993,25.5902122 70.9994506,25.7250309 C70.8888018,25.8598496 70.7301106,25.9638928 70.5233722,26.0371639 C70.3166337,26.1104349 70.0691337,26.1602584 69.7808646,26.186636 C69.4925955,26.2130135 69.1708454,26.2262021 68.8156047,26.2262021 C68.4079514,26.2203404 68.0367013,26.1587937 67.7018433,26.0415601 C67.3669852,25.9243265 67.0787204,25.7382209 66.8370403,25.4832378 C66.5953601,25.2282546 66.4090072,24.8970746 66.2779757,24.4896878 C66.1469443,24.082301 66.0814296,23.5826002 66.0814296,22.9905704 L66.0814296,19.0691254 L65.679602,19.0691254 C65.3651266,19.0691254 65.1030677,18.9943901 64.8934174,18.8449172 C64.6837672,18.6954443 64.5789436,18.4536536 64.5789436,18.1195378 C64.5789436,17.8557621 64.661929,17.6432794 64.8279021,17.4820832 C64.9938752,17.3208869 65.2457429,17.24029 65.5835128,17.24029 L66.2648727,17.24029 Z M75.0788747,22.8586832 C75.0788747,23.1341822 75.1152718,23.3745075 75.188067,23.5796664 C75.2608622,23.7848252 75.3613181,23.9562768 75.4894377,24.0940263 C75.6175573,24.2317758 75.7675132,24.3343537 75.93931,24.401763 C76.1111067,24.4691724 76.2960038,24.5028765 76.4940068,24.5028765 C76.7269516,24.5028765 76.9511575,24.467707 77.1666314,24.3973668 C77.3821052,24.3270266 77.5728259,24.2185871 77.738799,24.0720451 C77.9047721,23.9255031 78.0372574,23.7408629 78.1362589,23.518119 C78.2352604,23.2953751 78.2847605,23.0345343 78.2847605,22.7355885 L78.2847605,19.007578 C78.2847605,18.4507183 78.3852164,18.022822 78.5861312,17.7238763 C78.787046,17.4249306 79.1320902,17.2754599 79.6212741,17.2754599 C80.1395762,17.2754599 80.5108263,17.4249306 80.7350356,17.7238763 C80.9592448,18.022822 81.0713478,18.4507183 81.0713478,19.007578 L81.0713478,24.3885743 C81.0713478,24.945434 80.9592448,25.3733303 80.7350356,25.672276 C80.5108263,25.9712218 80.1395762,26.1206924 79.6212741,26.1206924 C79.1320902,26.1206924 78.787046,25.9712218 78.5861312,25.672276 C78.3852164,25.3733303 78.2847605,24.945434 78.2847605,24.3885743 C78.1624645,24.6582116 78.0037733,24.9043985 77.8086821,25.1271424 C77.6135908,25.3498863 77.3864731,25.5418535 77.1273221,25.7030497 C76.8681711,25.8642459 76.5828181,25.9888048 76.2712545,26.07673 C75.959691,26.1646552 75.6233821,26.2086172 75.2623177,26.2086172 C74.8721353,26.2086172 74.4979735,26.1397434 74.139821,26.0019939 C73.7816684,25.8642444 73.4657419,25.6590887 73.1920318,25.3865205 C72.9183218,25.1139523 72.6999394,24.7754453 72.5368781,24.3709894 C72.3738168,23.9665334 72.2922873,23.4946751 72.2922873,22.9554005 L72.2922873,19.007578 C72.2922873,18.4507183 72.3927432,18.022822 72.5936581,17.7238763 C72.7945729,17.4249306 73.1396171,17.2754599 73.628801,17.2754599 C74.147103,17.2754599 74.5183531,17.4249306 74.7425624,17.7238763 C74.9667717,18.022822 75.0788747,18.4507183 75.0788747,19.007578 L75.0788747,22.8586832 Z M87.4394424,18.8317285 C87.0900253,18.8317285 86.7973929,18.9049984 86.5615364,19.0515404 C86.3256799,19.1980824 86.137871,19.398842 85.9981041,19.6538251 C85.8583373,19.9088083 85.7578814,20.2062841 85.6967334,20.5462616 C85.6355854,20.8862391 85.6050119,21.2467271 85.6050119,21.6277363 C85.6050119,21.9618522 85.628306,22.3018246 85.674895,22.6476637 C85.7214839,22.9935029 85.8088369,23.3070982 85.9369565,23.5884588 C86.0650761,23.8698195 86.2441496,24.1013525 86.4741826,24.2830646 C86.7042155,24.4647767 87.0026714,24.5556314 87.3695594,24.5556314 C87.7306237,24.5556314 88.0349032,24.4970154 88.282407,24.3797818 C88.5299107,24.2625482 88.7308225,24.0823042 88.8851484,23.8390445 C89.0394743,23.5957847 89.1501214,23.2880511 89.217093,22.9158343 C89.2840646,22.5436176 89.3175499,22.1054635 89.3175499,21.6013589 C89.3175499,21.1851796 89.2855205,20.8071068 89.2214607,20.4671293 C89.1574009,20.1271518 89.0525773,19.8355376 88.9069869,19.5922778 C88.7613964,19.349018 88.5692199,19.161447 88.3304516,19.0295592 C88.0916832,18.8976714 87.7946831,18.8317285 87.4394424,18.8317285 Z M89.3437561,15.086133 C89.3437561,14.5292733 89.444212,14.101377 89.6451268,13.8024313 C89.8460416,13.5034856 90.1910858,13.3540149 90.6802697,13.3540149 C91.1985718,13.3540149 91.5698218,13.5034856 91.7940311,13.8024313 C92.0182404,14.101377 92.1303434,14.5292733 92.1303434,15.086133 L92.1303434,24.3885743 C92.1303434,24.945434 92.0182404,25.3733303 91.7940311,25.672276 C91.5698218,25.9712218 91.1985718,26.1206924 90.6802697,26.1206924 C90.1910858,26.1206924 89.8460416,25.9712218 89.6451268,25.672276 C89.444212,25.3733303 89.3437561,24.945434 89.3437561,24.3885743 C88.9826917,25.0392209 88.544471,25.5081483 88.0290808,25.7953707 C87.5136906,26.0825931 86.9124111,26.2262021 86.2252241,26.2262021 C85.6952749,26.2262021 85.2177453,26.1045741 84.7926212,25.8613143 C84.3674971,25.6180545 84.0049823,25.2868745 83.705066,24.8677643 C83.4051496,24.4486541 83.1751202,23.9592111 83.0149707,23.3994206 C82.8548212,22.83963 82.7747476,22.2461437 82.7747476,21.6189439 C82.7747476,20.9507122 82.8591888,20.3411065 83.0280737,19.7901085 C83.1969587,19.2391105 83.4342675,18.7657869 83.7400075,18.3701234 C84.0457475,17.9744599 84.4155417,17.6681917 84.8494012,17.4513095 C85.2832608,17.2344273 85.7622462,17.1259878 86.2863718,17.1259878 C86.9327934,17.1259878 87.5195142,17.2725277 88.0465516,17.5656117 C88.573589,17.8586958 89.0059862,18.2777997 89.3437561,18.822936 L89.3437561,15.086133 Z M102.770041,21.4079244 C102.770041,21.6482533 102.691423,21.8270319 102.534185,21.9442655 C102.376948,22.0614992 102.158565,22.1201151 101.879031,22.1201151 L96.471829,22.1201151 C96.5009471,22.8293785 96.7033148,23.3789028 97.0789382,23.7687046 C97.4545616,24.1585064 98.0267235,24.3534044 98.7954411,24.3534044 C99.0458567,24.3534044 99.2802538,24.337285 99.4986395,24.3050458 C99.7170251,24.2728065 99.9310399,24.2288446 100.14069,24.1731586 C100.35034,24.1174726 100.559988,24.0544605 100.769638,23.9841203 L101.424792,23.7643084 C101.500499,23.735 101.567469,23.720346 101.625705,23.720346 C101.817885,23.720346 101.972208,23.7950813 102.088681,23.9445542 C102.205153,24.0940271 102.263388,24.2684094 102.263388,24.4677066 C102.263388,24.5849402 102.243006,24.6963105 102.202241,24.8018208 C102.085768,25.0831814 101.893592,25.3161798 101.625705,25.5008227 C101.357819,25.6854657 101.049172,25.8320055 100.699755,25.9404466 C100.350338,26.0488877 99.9805434,26.123623 99.590361,26.1646548 C99.2001786,26.2056865 98.8274726,26.2262021 98.4722319,26.2262021 C97.8025158,26.2262021 97.1779421,26.1294858 96.5984921,25.9360504 C96.0190421,25.7426149 95.5167626,25.4553968 95.0916384,25.0743876 C94.6665143,24.6933783 94.3331172,24.2156585 94.091437,23.6412137 C93.8497569,23.066769 93.7289186,22.4014782 93.7289186,21.6453213 C93.7289186,21.0122598 93.8453892,20.4202388 94.078334,19.8692408 C94.3112787,19.3182428 94.6359405,18.840523 95.0523292,18.436067 C95.4687179,18.031611 95.963718,17.7121542 96.5373444,17.4776869 C97.1109708,17.2432197 97.741368,17.1259878 98.428555,17.1259878 C99.1739781,17.1259878 99.8174782,17.2417543 100.359075,17.4732907 C100.900671,17.7048271 101.349083,18.0154915 101.704324,18.4052933 C102.059565,18.7950951 102.324535,19.2493686 102.499244,19.7681273 C102.673952,20.2868861 102.764217,20.8334797 102.770041,21.4079244 Z M100.437693,20.8715833 C100.420222,20.5609142 100.366355,20.2736961 100.276089,20.0099205 C100.185823,19.7461448 100.057705,19.5175427 99.8917317,19.3241072 C99.7257586,19.1306717 99.521935,18.9797357 99.2802549,18.8712946 C99.0385747,18.7628535 98.7575893,18.7086338 98.4372904,18.7086338 C98.1461094,18.7086338 97.8825947,18.7657843 97.6467381,18.8800871 C97.4108816,18.9943899 97.207058,19.1497221 97.0352613,19.3460884 C96.8634646,19.5424547 96.7295233,19.7710569 96.6334336,20.0319017 C96.5373439,20.2927465 96.4805645,20.5726375 96.4630937,20.8715833 L100.437693,20.8715833 Z M104.45597,19.007578 C104.45597,18.4507183 104.556426,18.022822 104.75734,17.7238763 C104.958255,17.4249306 105.303299,17.2754599 105.792483,17.2754599 C106.310785,17.2754599 106.682035,17.4249306 106.906245,17.7238763 C107.130454,18.022822 107.242557,18.4507183 107.242557,19.007578 C107.347382,18.7262173 107.498794,18.4697726 107.696797,18.2382362 C107.8948,18.0066998 108.129197,17.8088711 108.399995,17.644744 C108.670794,17.4806169 108.96925,17.3531273 109.295372,17.2622712 C109.621495,17.1714152 109.965083,17.1259878 110.326147,17.1259878 C110.698859,17.1259878 111.061374,17.1933961 111.413703,17.3282148 C111.766032,17.4630335 112.076135,17.6667238 112.344021,17.939292 C112.611907,18.2118602 112.827378,18.5547634 112.990439,18.9680119 C113.153501,19.3812604 113.23503,19.8633764 113.23503,20.4143744 L113.23503,24.3885743 C113.23503,24.945434 113.122927,25.3733303 112.898718,25.672276 C112.674509,25.9712218 112.303258,26.1206924 111.784956,26.1206924 C111.295773,26.1206924 110.950728,25.9712218 110.749813,25.672276 C110.548899,25.3733303 110.448443,24.945434 110.448443,24.3885743 L110.448443,20.5374691 C110.448443,20.2561084 110.412046,20.0113869 110.33925,19.8032972 C110.266455,19.5952076 110.165999,19.4222906 110.03788,19.2845411 C109.90976,19.1467916 109.759804,19.0427483 109.588007,18.9724081 C109.416211,18.9020679 109.231314,18.8668984 109.033311,18.8668984 C108.788719,18.8668984 108.557233,18.9064641 108.338848,18.9855968 C108.120462,19.0647295 107.931197,19.1834268 107.771048,19.3416922 C107.610898,19.4999576 107.484236,19.6963209 107.391059,19.9307882 C107.297881,20.1652554 107.251292,20.4378195 107.251292,20.7484886 L107.251292,24.3885743 C107.251292,24.945434 107.139189,25.3733303 106.91498,25.672276 C106.690771,25.9712218 106.319521,26.1206924 105.801219,26.1206924 C105.312035,26.1206924 104.966991,25.9712218 104.766076,25.672276 C104.565161,25.3733303 104.464705,24.945434 104.464705,24.3885743 L104.45597,19.007578 Z M116.108971,17.24029 L116.30115,15.4202472 C116.318621,15.2443967 116.349194,15.068549 116.392871,14.8926985 C116.436548,14.7168481 116.506431,14.5556543 116.60252,14.4091123 C116.69861,14.2625702 116.828184,14.143873 116.991245,14.0530169 C117.154306,13.9621609 117.366865,13.9167335 117.628928,13.9167335 C118.013287,13.9167335 118.29136,14.0515502 118.463157,14.3211875 C118.634954,14.5908248 118.720851,14.9923439 118.720851,15.5257569 L118.720851,17.24029 L119.699214,17.24029 C119.996218,17.24029 120.237895,17.3150253 120.424251,17.4644982 C120.610607,17.6139711 120.703783,17.8499002 120.703783,18.1722927 C120.703783,18.4712384 120.604783,18.6954443 120.40678,18.8449172 C120.208777,18.9943901 119.940895,19.0691254 119.603125,19.0691254 L118.720851,19.0691254 L118.720851,22.3926819 C118.720851,22.7443828 118.726675,23.043324 118.738322,23.2895146 C118.749969,23.5357052 118.787822,23.7364648 118.851882,23.8917993 C118.915942,24.0471339 119.01203,24.1585041 119.140149,24.2259135 C119.268269,24.2933228 119.45171,24.327027 119.690479,24.327027 C119.859363,24.327027 120.023878,24.334354 120.184028,24.3490082 C120.344177,24.3636624 120.485398,24.4002973 120.607694,24.4589141 C120.72999,24.5175309 120.827534,24.6039894 120.900329,24.7182922 C120.973124,24.832595 121.009521,24.9893926 121.009521,25.1886898 C121.009521,25.4114336 120.954198,25.5902122 120.843549,25.7250309 C120.7329,25.8598496 120.574209,25.9638928 120.367471,26.0371639 C120.160732,26.1104349 119.913232,26.1602584 119.624963,26.186636 C119.336694,26.2130135 119.014944,26.2262021 118.659703,26.2262021 C118.25205,26.2203404 117.8808,26.1587937 117.545942,26.0415601 C117.211084,25.9243265 116.922819,25.7382209 116.681139,25.4832378 C116.439459,25.2282546 116.253106,24.8970746 116.122074,24.4896878 C115.991043,24.082301 115.925528,23.5826002 115.925528,22.9905704 L115.925528,19.0691254 L115.523701,19.0691254 C115.209225,19.0691254 114.947166,18.9943901 114.737516,18.8449172 C114.527866,18.6954443 114.423042,18.4536536 114.423042,18.1195378 C114.423042,17.8557621 114.506028,17.6432794 114.672001,17.4820832 C114.837974,17.3208869 115.089842,17.24029 115.427611,17.24029 L116.108971,17.24029 Z M122.014091,19.8604484 C122.014091,18.8346542 122.161135,17.9099879 122.455227,17.0864217 C122.74932,16.2628555 123.158423,15.5623951 123.682549,14.9850195 C124.206674,14.407644 124.829792,13.9650937 125.551921,13.6573554 C126.27405,13.3496172 127.060226,13.1957503 127.910475,13.1957503 C128.440424,13.1957503 128.987836,13.2587625 129.552727,13.3847886 C130.117618,13.5108148 130.699971,13.7057127 131.299803,13.9694884 C131.491983,14.0515519 131.631747,14.1687838 131.719102,14.3211875 C131.806456,14.4735912 131.850132,14.6289234 131.850132,14.7871888 C131.850132,14.8985607 131.831206,15.0070002 131.793353,15.1125105 C131.755499,15.2180207 131.700175,15.3132716 131.62738,15.398266 C131.554585,15.4832604 131.467232,15.5506687 131.365319,15.600493 C131.263405,15.6503173 131.148391,15.675229 131.020271,15.675229 C130.915446,15.675229 130.798975,15.6517827 130.670856,15.6048892 C129.733253,15.2707734 128.900488,15.103718 128.172536,15.103718 C127.56688,15.103718 127.031115,15.2092267 126.565225,15.4202472 C126.099336,15.6312677 125.709159,15.9375359 125.394684,16.3390611 C125.080209,16.7405862 124.841444,17.2329601 124.678383,17.8161973 C124.515321,18.3994346 124.433792,19.0661908 124.433792,19.816486 C124.433792,20.5023026 124.50513,21.1294931 124.647809,21.6980762 C124.790487,22.2666592 125.00887,22.7546369 125.302963,23.1620237 C125.597055,23.5694105 125.963938,23.8874019 126.403621,24.1160075 C126.843304,24.3446131 127.360142,24.4589141 127.954151,24.4589141 C128.367628,24.4589141 128.813128,24.4017636 129.290665,24.2874608 C129.768202,24.173158 130.286496,23.9899832 130.845563,23.737931 C130.92127,23.7027609 130.99552,23.6778491 131.068316,23.6631949 C131.141111,23.6485407 131.209537,23.6412137 131.273597,23.6412137 C131.395893,23.6412137 131.505084,23.6646601 131.601174,23.7115535 C131.697264,23.758447 131.780249,23.8229245 131.850132,23.904988 C131.920016,23.9870516 131.973884,24.0808371 132.011737,24.1863473 C132.049591,24.2918576 132.068517,24.4002971 132.068517,24.511669 C132.068517,24.6933811 132.016105,24.8736251 131.91128,25.0524064 C131.806455,25.2311876 131.631749,25.3791929 131.387157,25.4964265 C130.094314,26.1060413 128.894667,26.4108441 127.788179,26.4108441 C126.932107,26.4108441 126.148842,26.2525811 125.438361,25.9360504 C124.72788,25.6195196 124.119321,25.1725731 123.612666,24.5951975 C123.106011,24.0178219 122.712923,23.3276194 122.433389,22.5245691 C122.153855,21.7215188 122.014091,20.8334874 122.014091,19.8604484 Z M134.226157,21.7332461 C134.226157,21.1939714 134.319333,20.6444471 134.505689,20.0846565 C134.692045,19.524866 134.974486,19.0324922 135.353021,18.6075203 C135.731556,18.1825484 136.20763,17.8440414 136.781257,17.5919891 C137.354883,17.3399369 138.028957,17.2139126 138.803498,17.2139126 C139.578039,17.2139126 140.252113,17.3399369 140.825739,17.5919891 C141.399366,17.8440414 141.876895,18.1825484 142.258342,18.6075203 C142.639789,19.0324922 142.923686,19.524866 143.110042,20.0846565 C143.296398,20.6444471 143.389574,21.1939714 143.389574,21.7332461 C143.389574,22.2666591 143.296398,22.8103218 143.110042,23.3642507 C142.923686,23.9181795 142.639789,24.4076225 142.258342,24.8325944 C141.876895,25.2575663 141.399366,25.5960733 140.825739,25.8481256 C140.252113,26.1001779 139.578039,26.2262021 138.803498,26.2262021 C138.028957,26.2262021 137.354883,26.1001779 136.781257,25.8481256 C136.20763,25.5960733 135.731556,25.2575663 135.353021,24.8325944 C134.974486,24.4076225 134.692045,23.9181795 134.505689,23.3642507 C134.319333,22.8103218 134.226157,22.2666591 134.226157,21.7332461 Z M136.383797,21.7332461 C136.383797,22.0790853 136.428929,22.4469002 136.519195,22.836702 C136.609461,23.2265038 136.752138,23.5723378 136.947229,23.8742144 C137.14232,24.1760909 137.392732,24.4178817 137.698472,24.5995938 C138.004212,24.7813059 138.37255,24.8721606 138.803498,24.8721606 C139.234446,24.8721606 139.602784,24.7813059 139.908524,24.5995938 C140.214264,24.4178817 140.464676,24.1760909 140.659767,23.8742144 C140.854858,23.5723378 140.997535,23.2265038 141.087801,22.836702 C141.178067,22.4469002 141.223199,22.0790853 141.223199,21.7332461 C141.223199,21.3874069 141.178067,21.0195919 141.087801,20.6297901 C140.997535,20.2399884 140.854858,19.892689 140.659767,19.5878815 C140.464676,19.2830741 140.214264,19.039818 139.908524,18.8581059 C139.602784,18.6763938 139.234446,18.5855391 138.803498,18.5855391 C138.37255,18.5855391 138.004212,18.6763938 137.698472,18.8581059 C137.392732,19.039818 137.14232,19.2830741 136.947229,19.5878815 C136.752138,19.892689 136.609461,20.2399884 136.519195,20.6297901 C136.428929,21.0195919 136.383797,21.3874069 136.383797,21.7332461 Z M147.521411,14.4003198 C147.521411,14.6875421 147.407852,14.9234713 147.180731,15.1081142 C146.95361,15.2927572 146.662433,15.3850773 146.307192,15.3850773 C146.132484,15.3850773 145.970881,15.3601655 145.822379,15.3103412 C145.673876,15.2605169 145.545759,15.1916432 145.438022,15.103718 C145.330285,15.0157928 145.245844,14.9117495 145.184696,14.791585 C145.123548,14.6714206 145.092974,14.5410001 145.092974,14.4003198 C145.092974,14.2596394 145.123548,14.129219 145.184696,14.0090545 C145.245844,13.8888901 145.330285,13.7848468 145.438022,13.6969216 C145.545759,13.6089964 145.675332,13.5401226 145.826746,13.4902983 C145.97816,13.4404741 146.141219,13.4155623 146.315928,13.4155623 C146.490636,13.4155623 146.652239,13.4404741 146.800741,13.4902983 C146.949244,13.5401226 147.075906,13.6089964 147.180731,13.6969216 C147.285556,13.7848468 147.368541,13.8888901 147.429689,14.0090545 C147.490837,14.129219 147.521411,14.2596394 147.521411,14.4003198 Z M145.285152,18.3393497 C145.285152,18.169361 145.31427,18.0213558 145.372506,17.8953296 C145.430742,17.7693035 145.507904,17.6637948 145.603994,17.5788004 C145.700084,17.493806 145.810731,17.4293285 145.935939,17.3853659 C146.061146,17.3414033 146.187808,17.3194223 146.315928,17.3194223 C146.444047,17.3194223 146.569253,17.3414033 146.691549,17.3853659 C146.813845,17.4293285 146.923036,17.493806 147.019126,17.5788004 C147.115216,17.6637948 147.192378,17.7693035 147.250614,17.8953296 C147.30885,18.0213558 147.337968,18.169361 147.337968,18.3393497 L147.337968,25.100765 C147.337968,25.2707537 147.307394,25.418759 147.246246,25.5447851 C147.185098,25.6708113 147.10648,25.7763199 147.010391,25.8613143 C146.914301,25.9463087 146.803654,26.0107862 146.678446,26.0547488 C146.553238,26.0987114 146.426577,26.1206924 146.298457,26.1206924 C146.170337,26.1206924 146.045131,26.1001768 145.922835,26.059145 C145.800539,26.0181133 145.692804,25.9551012 145.599626,25.8701068 C145.506448,25.7851124 145.430742,25.6781383 145.372506,25.5491813 C145.31427,25.4202244 145.285152,25.2707537 145.285152,25.100765 L145.285152,18.3393497 Z M149.740198,18.2865949 C149.740198,18.1283295 149.769316,17.9876512 149.827552,17.8645559 C149.885788,17.7414606 149.96295,17.6403482 150.05904,17.5612155 C150.155129,17.4820828 150.265776,17.4220014 150.390984,17.3809697 C150.516192,17.3399379 150.642854,17.3194223 150.770973,17.3194223 C150.899093,17.3194223 151.022843,17.3384725 151.142227,17.3765734 C151.261611,17.4146744 151.369347,17.4732903 151.465436,17.552423 C151.561526,17.6315557 151.638688,17.728272 151.696924,17.8425747 C151.75516,17.9568775 151.78719,18.0931596 151.793013,18.251425 L151.793013,18.9372382 C151.897838,18.720356 152.050706,18.4976155 152.251621,18.2690099 C152.452536,18.0404044 152.684021,17.8484372 152.946084,17.6931026 C153.208147,17.5377681 153.490588,17.4190708 153.793416,17.3370073 C154.096244,17.2549438 154.404891,17.2139126 154.719367,17.2139126 C155.12702,17.2139126 155.515741,17.2783901 155.88554,17.4073471 C156.25534,17.5363041 156.581458,17.7370637 156.863903,18.0096318 C157.146349,18.2822 157.370555,18.6309648 157.536528,19.0559367 C157.702501,19.4809085 157.785486,19.9864709 157.785486,20.572639 L157.785486,25.1271424 C157.785486,25.2912695 157.756369,25.4348785 157.698132,25.5579738 C157.639896,25.6810691 157.562735,25.7851124 157.466645,25.8701068 C157.370555,25.9551012 157.259908,26.0181133 157.1347,26.059145 C157.009492,26.1001768 156.882831,26.1206924 156.754711,26.1206924 C156.626591,26.1206924 156.502841,26.1001768 156.383457,26.059145 C156.264073,26.0181133 156.156338,25.9551012 156.060248,25.8701068 C155.964158,25.7851124 155.886997,25.6810691 155.82876,25.5579738 C155.770524,25.4348785 155.741407,25.2912695 155.741407,25.1271424 L155.741407,20.5550541 C155.741407,20.2209383 155.694818,19.9307894 155.60164,19.6845988 C155.508463,19.4384082 155.383257,19.2332524 155.226019,19.0691254 C155.068781,18.9049983 154.88534,18.7833702 154.67569,18.7042376 C154.46604,18.6251049 154.244745,18.5855391 154.011801,18.5855391 C153.703149,18.5855391 153.414884,18.6353626 153.146998,18.7350112 C152.879111,18.8346598 152.644714,18.9855958 152.443799,19.1878238 C152.242884,19.3900518 152.084193,19.6230501 151.967721,19.8868258 C151.851248,20.1506014 151.793013,20.487643 151.793013,20.8979607 L151.793013,25.1271424 C151.793013,25.2912695 151.763896,25.4348785 151.705659,25.5579738 C151.647423,25.6810691 151.570261,25.7851124 151.474172,25.8701068 C151.378082,25.9551012 151.267435,26.0181133 151.142227,26.059145 C151.017019,26.1001768 150.890358,26.1206924 150.762238,26.1206924 C150.634118,26.1206924 150.508912,26.1001768 150.386616,26.059145 C150.26432,26.0181133 150.155129,25.9551012 150.05904,25.8701068 C149.96295,25.7851124 149.885788,25.6810691 149.827552,25.5579738 C149.769316,25.4348785 149.740198,25.2912695 149.740198,25.1271424 L149.740198,18.2865949 Z"/>
  </g>
</svg>
