<svg height="109" viewBox="0 0 124 109" width="124" xmlns="http://www.w3.org/2000/svg" xmlns:xlink="http://www.w3.org/1999/xlink"><defs><filter id="a" height="124%" width="123.6%" x="-11.7%" y="-11%"><feOffset dy="2" in="SourceAlpha" result="shadowOffsetOuter1"/><feGaussianBlur in="shadowOffsetOuter1" result="shadowBlurOuter1" stdDeviation="2"/><feComposite in="shadowBlurOuter1" in2="SourceAlpha" operator="out" result="shadowBlurOuter1"/><feColorMatrix in="shadowBlurOuter1" result="shadowMatrixOuter1" values="0 0 0 0 0 0 0 0 0 0 0 0 0 0 0 0 0 0 0.24 0"/><feMerge><feMergeNode in="shadowMatrixOuter1"/><feMergeNode in="SourceGraphic"/></feMerge></filter><path id="c" d="M5.544 99.546a.71.71 0 0 1-.425-.15.655.655 0 0 1-.26-.399L.03 81.003a.745.745 0 0 1 .055-.562c.091-.174.265-.26.52-.26h2.195c.348 0 .567.182.659.548l3.264 13.523 3.593-13.523a.655.655 0 0 1 .26-.398.71.71 0 0 1 .426-.15h1.728a.71.71 0 0 1 .425.15c.137.1.224.233.26.398l3.594 13.523 3.265-13.523c.09-.366.31-.549.658-.549h2.194c.256 0 .43.087.521.26.092.174.11.362.055.563l-4.827 17.994a.655.655 0 0 1-.261.398.71.71 0 0 1-.425.151h-2.195a.71.71 0 0 1-.425-.15.655.655 0 0 1-.26-.399l-3.484-12.92-3.484 12.92a.655.655 0 0 1-.26.398.71.71 0 0 1-.425.151zm21.122 0c-.147 0-.275-.055-.384-.165s-.165-.237-.165-.384V84.24c0-.146.055-.274.165-.384a.526.526 0 0 1 .384-.165h9.381c.146 0 .274.055.384.165.11.11.165.238.165.384v1.7a.526.526 0 0 1-.165.385.526.526 0 0 1-.384.164h-6.72v3.347h4.718c.146 0 .274.055.384.164s.164.238.164.384v1.674c0 .146-.055.274-.164.384s-.238.164-.384.164h-4.718v4.17h6.94c.146 0 .274.054.383.164.11.11.165.238.165.384v1.673c0 .147-.055.275-.165.384s-.237.165-.384.165zm13.55 0c-.146 0-.274-.055-.384-.165s-.164-.237-.164-.384V84.24c0-.146.055-.274.164-.384a.526.526 0 0 1 .384-.165h9.382c.146 0 .274.055.384.165.11.11.164.238.164.384v1.7a.526.526 0 0 1-.164.385.526.526 0 0 1-.384.164h-6.72v3.347h4.717c.146 0 .275.055.384.164s.165.238.165.384v1.674c0 .146-.055.274-.165.384s-.238.164-.384.164h-4.718v4.17h6.94c.146 0 .274.054.384.164.11.11.165.238.165.384v1.673c0 .147-.055.275-.165.384s-.238.165-.384.165zm18.9 0c-.347 0-.585-.174-.713-.521l-6.364-18.05a.58.58 0 0 1 .055-.548.528.528 0 0 1 .466-.247h2.25c.365 0 .594.174.685.521l4.663 14.237 4.69-14.237c.129-.347.358-.52.687-.52h2.167c.2 0 .356.081.466.246s.128.348.055.549l-6.364 18.049c-.128.347-.366.521-.713.521zm12.124 0a.526.526 0 0 1-.384-.165.526.526 0 0 1-.164-.384V84.24c0-.146.054-.274.164-.384a.526.526 0 0 1 .384-.165h2.112c.147 0 .275.055.384.165.11.11.165.238.165.384v14.757c0 .147-.055.275-.165.384s-.237.165-.384.165zm6.83 0c-.146 0-.274-.055-.384-.165s-.164-.237-.164-.384V84.24c0-.146.055-.274.164-.384a.526.526 0 0 1 .384-.165h9.382c.146 0 .274.055.384.165.11.11.164.238.164.384v1.7a.526.526 0 0 1-.164.385.526.526 0 0 1-.384.164h-6.72v3.347h4.717c.146 0 .274.055.384.164s.165.238.165.384v1.674c0 .146-.055.274-.165.384s-.238.164-.384.164h-4.718v4.17h6.94c.146 0 .274.054.384.164.11.11.165.238.165.384v1.673c0 .147-.055.275-.165.384s-.238.165-.384.165zm16.678 0c-.347 0-.585-.183-.713-.549l-4.06-14.483c-.055-.201-.032-.388.069-.562s.279-.26.535-.26h2.057c.347 0 .567.182.658.548.22.86.44 1.755.659 2.688l.644 2.743c.21.896.407 1.742.59 2.537a80.7 80.7 0 0 0 .494 2.044c.164-.549.36-1.22.59-2.016s.475-1.646.74-2.551l.81-2.757c.274-.933.539-1.829.795-2.688a.655.655 0 0 1 .26-.398.71.71 0 0 1 .426-.15h1.536a.71.71 0 0 1 .425.15c.137.1.224.233.26.398.256.841.517 1.719.782 2.633.265.915.53 1.815.796 2.702s.512 1.733.74 2.537c.229.805.425 1.518.59 2.14.128-.622.288-1.33.48-2.126.192-.795.389-1.637.59-2.523s.411-1.788.63-2.702c.22-.915.43-1.802.632-2.661.091-.366.31-.549.658-.549h2.085c.256 0 .43.087.52.26.092.175.11.362.056.563l-4.06 14.483c-.037.165-.123.298-.26.398s-.28.151-.426.151h-1.81c-.348 0-.585-.183-.713-.549l-.755-2.55c-.265-.897-.52-1.77-.768-2.62s-.48-1.655-.7-2.414c-.219-.759-.402-1.404-.548-1.934-.164.53-.356 1.175-.576 1.934-.22.759-.452 1.563-.7 2.414s-.502 1.719-.767 2.606-.517 1.742-.755 2.564c-.128.366-.365.55-.713.55z"/><filter id="b" height="203.3%" width="118.2%" x="-9.1%" y="-62%"><feOffset dy="-2" in="SourceAlpha" result="shadowOffsetOuter1"/><feGaussianBlur in="shadowOffsetOuter1" result="shadowBlurOuter1" stdDeviation="3"/><feColorMatrix in="shadowBlurOuter1" values="0 0 0 0 0 0 0 0 0 0 0 0 0 0 0 0 0 0 0.1 0"/></filter><path id="e" d="M26.258 10.38a69.039 69.039 0 0 0-2.764 10.015 19.342 19.342 0 0 0-9.036 9.65 51.86 51.86 0 0 0-7.337-2.98c3.141-8.337 10.316-14.684 19.137-16.685"/><filter id="d" height="201.7%" width="204.5%" x="-52.3%" y="-61%"><feOffset dy="-2" in="SourceAlpha" result="shadowOffsetOuter1"/><feGaussianBlur in="shadowOffsetOuter1" result="shadowBlurOuter1" stdDeviation="3"/><feColorMatrix in="shadowBlurOuter1" values="0 0 0 0 0 0 0 0 0 0 0 0 0 0 0 0 0 0 0.1 0"/></filter><path id="g" d="M57.42 27.065c-2.161.699-4.7 1.656-7.335 2.98a19.348 19.348 0 0 0-9.058-9.65v-.01a64.967 64.967 0 0 0-2.743-10.004c8.832 1.99 15.985 8.347 19.137 16.684"/><filter id="f" height="201.7%" width="204.5%" x="-52.3%" y="-61%"><feOffset dy="-2" in="SourceAlpha" result="shadowOffsetOuter1"/><feGaussianBlur in="shadowOffsetOuter1" result="shadowBlurOuter1" stdDeviation="3"/><feColorMatrix in="shadowBlurOuter1" values="0 0 0 0 0 0 0 0 0 0 0 0 0 0 0 0 0 0 0.1 0"/></filter><path id="i" d="M59.045 39.048a26.004 26.004 0 0 1-2.431 8.917l-.515-.118a40.356 40.356 0 0 0-2.314-.452 34.59 34.59 0 0 0-2.925-.376 42.403 42.403 0 0 0 6.056-5.476c.73-.807 1.44-1.646 2.129-2.495"/><filter id="h" height="324.3%" width="344.3%" x="-122.2%" y="-134.6%"><feOffset dy="-2" in="SourceAlpha" result="shadowOffsetOuter1"/><feGaussianBlur in="shadowOffsetOuter1" result="shadowBlurOuter1" stdDeviation="3"/><feColorMatrix in="shadowBlurOuter1" values="0 0 0 0 0 0 0 0 0 0 0 0 0 0 0 0 0 0 0.1 0"/></filter><path id="k" d="M13.683 47.019c-.635.054-1.27.129-1.904.215-1.108.15-2.227.366-3.335.635l-.516.118a26.113 26.113 0 0 1-2.43-8.95c.558.71 1.139 1.398 1.742 2.076 2 2.248 4.151 4.228 6.443 5.906"/><filter id="j" height="323.5%" width="344.3%" x="-122.2%" y="-134.1%"><feOffset dy="-2" in="SourceAlpha" result="shadowOffsetOuter1"/><feGaussianBlur in="shadowOffsetOuter1" result="shadowBlurOuter1" stdDeviation="3"/><feColorMatrix in="shadowBlurOuter1" values="0 0 0 0 0 0 0 0 0 0 0 0 0 0 0 0 0 0 0.1 0"/></filter><path id="m" d="M61.12 22.785c-.992-2.425-1.843-3.993-2.556-4.706-1.482-1.483-3.768-1.617-4.706-2.555l-7.26-7.26a4.841 4.841 0 0 1 6.845-6.846l7.261 7.26c.938.938 1.072 3.224 2.555 4.707.712.712 2.281 1.564 4.706 2.555a4.841 4.841 0 0 1-6.846 6.845z"/><filter id="l" height="182.6%" width="182.6%" x="-41.3%" y="-49.6%"><feOffset dy="-2" in="SourceAlpha" result="shadowOffsetOuter1"/><feGaussianBlur in="shadowOffsetOuter1" result="shadowBlurOuter1" stdDeviation="3"/><feColorMatrix in="shadowBlurOuter1" values="0 0 0 0 0 0 0 0 0 0 0 0 0 0 0 0 0 0 0.1 0"/></filter><path id="o" d="M30.502 18.42l-2.807 1.697.75-3.187-2.469-2.144 3.253-.282 1.273-2.992 1.273 2.992 3.253.282-2.459 2.144.74 3.187zM17.535 21l-2.807 1.697.75-3.188-2.469-2.143 3.253-.283 1.273-2.992 1.273 2.992 3.253.283-2.46 2.143.74 3.188zM4.568 18.42L1.76 20.117l.75-3.187-2.47-2.144 3.254-.282 1.273-2.992 1.273 2.992 3.253.282-2.46 2.144.74 3.187z"/><filter id="n" height="267.5%" width="157.1%" x="-28.5%" y="-100.5%"><feOffset dy="-2" in="SourceAlpha" result="shadowOffsetOuter1"/><feGaussianBlur in="shadowOffsetOuter1" result="shadowBlurOuter1" stdDeviation="3"/><feColorMatrix in="shadowBlurOuter1" values="0 0 0 0 0 0 0 0 0 0 0 0 0 0 0 0 0 0 0.1 0"/></filter></defs><g fill="none" fill-rule="evenodd" filter="url(#a)" transform="translate(7 2)"><use fill="#000" filter="url(#b)" xlink:href="#c"/><use fill="#fff" xlink:href="#c"/><g transform="translate(23.397 5.379)"><path d="M41.053 49.889c.508-.243 1.219-.545 1.98-.867 14.296-6.374 20.126-21.23 20.126-21.23S48.343 30.075 38.87 41.131c4.09-20.57-6.803-38.98-6.803-38.98s-10.893 18.41-6.803 38.98C15.79 30.075.974 27.792.974 27.792s5.831 14.856 20.127 21.23l2.155.914C11.106 46.876 0 53.153 0 53.153s11.105 6.275 23.081 3.263c.19-.05.368-.1.552-.15-4.423 3.748-6.208 8.673-6.208 8.673s7.635-1.245 12.457-7.001l2.185 7.707 2.185-7.707c4.822 5.756 12.457 7 12.457 7s-1.785-4.924-6.208-8.672c.184.05.362.1.552.15 11.976 3.012 23.081-3.263 23.081-3.263s-11.105-6.276-23.081-3.264z" fill="#fff"/><use fill="#000" filter="url(#d)" xlink:href="#e"/><use fill="#fff" xlink:href="#e"/><use fill="#000" filter="url(#f)" xlink:href="#g"/><use fill="#fff" xlink:href="#g"/><use fill="#000" filter="url(#h)" xlink:href="#i"/><use fill="#fff" xlink:href="#i"/><use fill="#000" filter="url(#j)" xlink:href="#k"/><use fill="#fff" xlink:href="#k"/><g transform="matrix(-1 0 0 1 114.562 0)"><use fill="#000" filter="url(#l)" xlink:href="#m"/><use fill="#fff" xlink:href="#m"/></g></g><g transform="scale(1 -1) rotate(39 73.758 25.44)"><use fill="#000" filter="url(#n)" xlink:href="#o"/><use fill="#fff" xlink:href="#o"/></g></g></svg>