<svg xmlns="http://www.w3.org/2000/svg" width="166" height="60" viewBox="0 0 166 60" xmlns:xlink="http://www.w3.org/1999/xlink">
  <defs>
    <linearGradient id="b" x1="100%" x2="0%" y1="0%" y2="100%">
      <stop stop-color="#00F4FC" offset="0%"/>
      <stop stop-color="#3C7FE0" offset="100%"/>
    </linearGradient>
    <path id="a" d="M57.3293269,20 L43.0769231,20 C37.5540756,20 33.0769231,24.4771525 33.0769231,30 C33.0769231,35.5228475 37.5540756,40 43.0769231,40 L57.3293269,40 C57.7331792,44.9704898 58.4381331,49.9409796 59.4441885,54.9114694 C59.5461134,55.4150368 59.5461134,55.9339215 59.4441885,56.4374889 C59.0227898,58.5194394 56.9934243,59.8655826 54.9114738,59.444184 C46.6076485,57.7634477 38.3038243,56.9230769 30,56.9230769 C21.6961769,56.9230769 13.3923537,57.7634474 5.08853059,59.4441885 C4.58496319,59.5461134 4.06607846,59.5461134 3.56251107,59.4441885 C1.48056058,59.0227898 0.134417361,56.9934243 0.555816042,54.9114738 C2.23655233,46.6076485 3.07692308,38.3038243 3.07692308,30 C3.07692308,21.6961769 2.23655256,13.3923537 0.555811512,5.08853059 C0.453886606,4.58496319 0.453886613,4.06607846 0.555811532,3.56251107 C0.977210213,1.48056058 3.00657568,0.134417361 5.08852618,0.555816042 C13.3923515,2.23655233 21.6961757,3.07692308 30,3.07692308 C38.3038231,3.07692308 46.6076463,2.23655256 54.9114694,0.555811512 C55.4150368,0.453886606 55.9339215,0.453886613 56.4374889,0.555811532 C58.5194394,0.977210213 59.8655826,3.00657568 59.444184,5.08852618 C58.4381334,10.0590182 57.7331793,15.0295091 57.3293269,20 Z M56.9230769,25.3846154 C56.8656538,26.9230769 56.8369422,28.4615385 56.8369422,30 C56.8369422,31.5384615 56.8656538,33.0769231 56.9230769,34.6153846 L43.0553894,34.6153846 C40.5182756,34.6153846 38.4615385,32.5490065 38.4615385,30 C38.4615385,27.4509935 40.5182756,25.3846154 43.0553894,25.3846154 L56.9230769,25.3846154 Z M43.0769231,32.3076923 C44.3514263,32.3076923 45.3846154,31.2745033 45.3846154,30 C45.3846154,28.7254967 44.3514263,27.6923077 43.0769231,27.6923077 C41.8024198,27.6923077 40.7692308,28.7254967 40.7692308,30 C40.7692308,31.2745033 41.8024198,32.3076923 43.0769231,32.3076923 Z"/>
  </defs>
  <g fill="none" fill-rule="evenodd">
    <mask id="c" fill="white">
      <use xlink:href="#a"/>
    </mask>
    <use fill="url(#b)" xlink:href="#a"/>
    <path fill="#03D7F5" d="M72.6923077,68.4615385 C32.5454547,68.4615385 0,35.9160837 0,-4.23076923 C0,-44.3776222 32.5454547,-76.9230769 72.6923077,-76.9230769 C112.839161,-76.9230769 145.384615,-44.3776222 145.384615,-4.23076923 C145.384615,35.9160837 112.839161,68.4615385 72.6923077,68.4615385 Z" style="mix-blend-mode:multiply" opacity=".34" mask="url(#c)"/>
    <path fill="#368DE4" d="M79.6153846,76.1538462 C39.4685316,76.1538462 6.92307692,43.6083914 6.92307692,3.46153846 C6.92307692,-36.6853145 39.4685316,-69.2307692 79.6153846,-69.2307692 C119.762238,-69.2307692 152.307692,-36.6853145 152.307692,3.46153846 C152.307692,43.6083914 119.762238,76.1538462 79.6153846,76.1538462 Z" style="mix-blend-mode:hard-light" opacity=".7" mask="url(#c)"/>
    <path fill="#212121" d="M85.0292969,20.9335938 L82.9296875,29 L79.0234375,29 L75.390625,14.9082031 L79.6679688,14.9082031 L81.2890625,23.8144531 L81.3671875,23.8144531 L83.4667969,14.9082031 L86.6699219,14.9082031 L88.7695312,23.8144531 L88.8476562,23.8144531 L90.46875,14.9082031 L94.7460938,14.9082031 L91.1132812,29 L87.2070312,29 L85.1074219,20.9335938 L85.0292969,20.9335938 Z M106.042969,29 L105.310547,26.1972656 L101.013672,26.1972656 L100.28125,29 L96.0625,29 L100.662109,14.9082031 L105.857422,14.9082031 L110.457031,29 L106.042969,29 Z M103.123047,18.1601562 L101.765625,23.2773438 L104.558594,23.2773438 L103.201172,18.1601562 L103.123047,18.1601562 Z M123.394531,25.7089844 L123.394531,29 L113.726562,29 L113.726562,14.9082031 L117.867188,14.9082031 L117.867188,25.7089844 L123.394531,25.7089844 Z M136.625,25.7089844 L136.625,29 L126.957031,29 L126.957031,14.9082031 L131.097656,14.9082031 L131.097656,25.7089844 L136.625,25.7089844 Z M150.128906,25.7089844 L150.128906,29 L140.1875,29 L140.1875,14.9082031 L150.128906,14.9082031 L150.128906,18.1992188 L144.328125,18.1992188 L144.328125,20.4746094 L149.767578,20.4746094 L149.767578,23.4433594 L144.328125,23.4433594 L144.328125,25.7089844 L150.128906,25.7089844 Z M161.376953,29 L157.236328,29 L157.236328,18.1992188 L153.525391,18.1992188 L153.525391,14.9082031 L165.087891,14.9082031 L165.087891,18.1992188 L161.376953,18.1992188 L161.376953,29 Z M82.1230469,39.6308594 L79.3955078,47 L78.1923828,47 L75.4648438,39.6308594 L76.7226562,39.6308594 L78.7392578,45.7011719 L78.8486328,45.7011719 L80.8652344,39.6308594 L82.1230469,39.6308594 Z M86.6347656,40.5400391 C85.4589844,40.5400391 84.6386719,41.4013672 84.5498047,42.7070312 L88.6103516,42.7070312 C88.5830078,41.4013672 87.8037109,40.5400391 86.6347656,40.5400391 Z M88.5761719,45.0927734 L89.7519531,45.0927734 C89.3964844,46.3574219 88.2617188,47.1298828 86.6484375,47.1298828 C84.6044922,47.1298828 83.3261719,45.6533203 83.3261719,43.3222656 C83.3261719,41.0048828 84.625,39.5009766 86.6484375,39.5009766 C88.6376953,39.5009766 89.8476562,40.9160156 89.8476562,43.2060547 L89.8476562,43.6572266 L84.5498047,43.6572266 L84.5498047,43.7119141 C84.6113281,45.1679688 85.4248047,46.0908203 86.6757812,46.0908203 C87.6259766,46.0908203 88.2685547,45.7421875 88.5761719,45.0927734 Z M91.6933594,47 L91.6933594,39.6308594 L92.8144531,39.6308594 L92.8144531,40.7246094 L92.9238281,40.7246094 C93.1425781,40.0068359 93.9902344,39.5009766 94.9677734,39.5009766 C95.1591797,39.5009766 95.4052734,39.5146484 95.5556641,39.5351562 L95.5556641,40.7109375 C95.4599609,40.6835938 95.0361328,40.6425781 94.8037109,40.6425781 C93.6826172,40.6425781 92.8691406,41.3945312 92.8691406,42.4335938 L92.8691406,47 L91.6933594,47 Z M100.005859,45.8515625 C101.373047,45.8515625 102.193359,44.8125 102.193359,43.2060547 C102.193359,41.5996094 101.366211,40.5605469 100.005859,40.5605469 C98.6386719,40.5605469 97.8730469,41.5996094 97.8730469,43.2060547 C97.8730469,44.8125 98.6386719,45.8515625 100.005859,45.8515625 Z M100.060547,49.8300781 C98.2832031,49.8300781 97.1484375,49.0302734 96.9707031,47.8134766 L98.2148438,47.8134766 C98.3447266,48.4150391 99.0009766,48.8046875 100.060547,48.8046875 C101.379883,48.8046875 102.166016,48.1552734 102.166016,47.0683594 L102.166016,45.6191406 L102.056641,45.6191406 C101.591797,46.4326172 100.757812,46.890625 99.7460938,46.890625 C97.8388672,46.890625 96.65625,45.4140625 96.65625,43.2060547 C96.65625,40.9980469 97.8525391,39.5009766 99.7460938,39.5009766 C100.77832,39.5009766 101.6875,40.0068359 102.111328,40.7998047 L102.220703,40.7998047 L102.220703,39.6308594 L103.341797,39.6308594 L103.341797,47.1298828 C103.341797,48.7773438 102.070312,49.8300781 100.060547,49.8300781 Z M108.496094,40.5400391 C107.320312,40.5400391 106.5,41.4013672 106.411133,42.7070312 L110.47168,42.7070312 C110.444336,41.4013672 109.665039,40.5400391 108.496094,40.5400391 Z M110.4375,45.0927734 L111.613281,45.0927734 C111.257812,46.3574219 110.123047,47.1298828 108.509766,47.1298828 C106.46582,47.1298828 105.1875,45.6533203 105.1875,43.3222656 C105.1875,41.0048828 106.486328,39.5009766 108.509766,39.5009766 C110.499023,39.5009766 111.708984,40.9160156 111.708984,43.2060547 L111.708984,43.6572266 L106.411133,43.6572266 L106.411133,43.7119141 C106.472656,45.1679688 107.286133,46.0908203 108.537109,46.0908203 C109.487305,46.0908203 110.129883,45.7421875 110.4375,45.0927734 Z M113.623047,47 L113.623047,36.7050781 L114.798828,36.7050781 L114.798828,47 L113.623047,47 Z M117.109375,47 L117.109375,39.6308594 L118.285156,39.6308594 L118.285156,47 L117.109375,47 Z M117.697266,38.1337891 C117.246094,38.1337891 116.876953,37.7646484 116.876953,37.3134766 C116.876953,36.8623047 117.246094,36.4931641 117.697266,36.4931641 C118.148438,36.4931641 118.517578,36.8623047 118.517578,37.3134766 C118.517578,37.7646484 118.148438,38.1337891 117.697266,38.1337891 Z M121.730469,39.6308594 L121.730469,47.3623047 C121.730469,48.8798828 121.019531,49.5292969 119.474609,49.5292969 L119.269531,49.5292969 L119.269531,48.5244141 L119.447266,48.5244141 C120.28125,48.5244141 120.554688,48.1962891 120.554688,47.3828125 L120.554688,39.6308594 L121.730469,39.6308594 Z M121.142578,38.1337891 C120.691406,38.1337891 120.322266,37.7646484 120.322266,37.3134766 C120.322266,36.8623047 120.691406,36.4931641 121.142578,36.4931641 C121.59375,36.4931641 121.962891,36.8623047 121.962891,37.3134766 C121.962891,37.7646484 121.59375,38.1337891 121.142578,38.1337891 Z M125.326172,42.8505859 L128.525391,39.6308594 L129.967773,39.6308594 L126.795898,42.7890625 L130.179688,47 L128.682617,47 L125.920898,43.5478516 L125.216797,44.2041016 L125.216797,47 L124.041016,47 L124.041016,36.7050781 L125.216797,36.7050781 L125.216797,42.8505859 L125.326172,42.8505859 Z M134.513672,40.5400391 C133.337891,40.5400391 132.517578,41.4013672 132.428711,42.7070312 L136.489258,42.7070312 C136.461914,41.4013672 135.682617,40.5400391 134.513672,40.5400391 Z M136.455078,45.0927734 L137.630859,45.0927734 C137.275391,46.3574219 136.140625,47.1298828 134.527344,47.1298828 C132.483398,47.1298828 131.205078,45.6533203 131.205078,43.3222656 C131.205078,41.0048828 132.503906,39.5009766 134.527344,39.5009766 C136.516602,39.5009766 137.726562,40.9160156 137.726562,43.2060547 L137.726562,43.6572266 L132.428711,43.6572266 L132.428711,43.7119141 C132.490234,45.1679688 133.303711,46.0908203 134.554688,46.0908203 C135.504883,46.0908203 136.147461,45.7421875 136.455078,45.0927734 Z M139.572266,47 L139.572266,39.6308594 L140.693359,39.6308594 L140.693359,40.7929688 L140.802734,40.7929688 C141.171875,39.9794922 141.889648,39.5009766 143.017578,39.5009766 C144.671875,39.5009766 145.594727,40.4785156 145.594727,42.2285156 L145.594727,47 L144.418945,47 L144.418945,42.515625 C144.418945,41.1894531 143.858398,40.5605469 142.682617,40.5605469 C141.506836,40.5605469 140.748047,41.3466797 140.748047,42.6386719 L140.748047,47 L139.572266,47 Z M148.711914,47.0683594 C148.226562,47.0683594 147.823242,46.6650391 147.823242,46.1796875 C147.823242,45.6875 148.226562,45.2910156 148.711914,45.2910156 C149.204102,45.2910156 149.600586,45.6875 149.600586,46.1796875 C149.600586,46.6650391 149.204102,47.0683594 148.711914,47.0683594 Z M151.897461,47 L151.897461,39.6308594 L153.018555,39.6308594 L153.018555,40.7929688 L153.12793,40.7929688 C153.49707,39.9794922 154.214844,39.5009766 155.342773,39.5009766 C156.99707,39.5009766 157.919922,40.4785156 157.919922,42.2285156 L157.919922,47 L156.744141,47 L156.744141,42.515625 C156.744141,41.1894531 156.183594,40.5605469 155.007812,40.5605469 C153.832031,40.5605469 153.073242,41.3466797 153.073242,42.6386719 L153.073242,47 L151.897461,47 Z M160.134766,47 L160.134766,36.7050781 L161.310547,36.7050781 L161.310547,47 L160.134766,47 Z"/>
  </g>
</svg>
