<svg xmlns="http://www.w3.org/2000/svg" width="200" height="32" viewBox="0 0 200 32">
  <g fill="none">
    <path fill="#012B56" d="M200,28.959276 C200,30.4586916 198.784483,31.6742081 197.285068,31.6742081 L200,31.6742081 L200,28.959276 L200,28.959276 Z M200,2.71493213 L200,0 L197.290498,0 C198.009823,0.000719684497 198.6994,0.287160757 199.20753,0.796309374 C199.71566,1.30545799 200.00072,1.99560729 200,2.71493213 L200,2.71493213 Z M49.7737557,0 L200,0 L200,31.6742081 L49.7737557,31.6742081 C55.3276018,28.5864253 59.0859729,22.6515837 59.0859729,15.8371041 C59.0859729,9.02262443 55.3285068,3.08778281 49.7737557,0 Z M74.1357466,22.081448 L74.1357466,6.79638009 L69.6832579,6.79638009 L69.6832579,25.6108597 L81.0045249,25.6108597 L81.4660633,22.081448 L74.1357466,22.081448 L74.1357466,22.081448 Z M96.4977376,9.97285068 L96.959276,6.79638009 L85.4208145,6.79638009 L85.4208145,25.6108597 L96.959276,25.6108597 L96.959276,22.4072398 L89.8733032,22.4072398 L89.8733032,17.60181 L95.6561086,17.60181 L95.6561086,14.479638 L89.8733032,14.479638 L89.8733032,9.97285068 L96.4977376,9.97285068 Z M115.927602,8.64253394 C114.171946,7.1040724 112.072398,6.33484163 109.628959,6.33484163 C107.945701,6.33484163 106.420814,6.71945701 105.054299,7.48868778 C103.687783,8.25791855 102.61086,9.38461538 101.823529,10.8687783 C101.036199,12.3529412 100.642534,14.1266968 100.642534,16.1900452 C100.642534,19.4298643 101.361991,21.8868778 102.800905,23.561086 C104.239819,25.2352941 106.371041,26.0723982 109.19457,26.0723982 C110.425339,26.0723982 111.628959,25.9004525 112.80543,25.5565611 C113.9819,25.2126697 115.058824,24.7239819 116.036199,24.0904977 L116.036199,14.7782805 L108.841629,14.7782805 L109.276018,17.9276018 L111.719457,17.9276018 L111.719457,22.1900452 C110.959276,22.6063348 110.108597,22.8144796 109.167421,22.8144796 C107.828054,22.8144796 106.841629,22.3122172 106.208145,21.3076923 C105.574661,20.3031674 105.257919,18.5972851 105.257919,16.1900452 C105.257919,13.9638009 105.674208,12.3031674 106.506787,11.2081448 C107.339367,10.1131222 108.452489,9.56561086 109.846154,9.56561086 C110.588235,9.56561086 111.244344,9.68325792 111.81448,9.91855204 C112.384615,10.1538462 112.986425,10.5339367 113.61991,11.0588235 L115.927602,8.64253394 L115.927602,8.64253394 Z M131.909502,9.97285068 L132.371041,6.79638009 L120.832579,6.79638009 L120.832579,25.6108597 L132.371041,25.6108597 L132.371041,22.4072398 L125.285068,22.4072398 L125.285068,17.60181 L131.067873,17.60181 L131.067873,14.479638 L125.285068,14.479638 L125.285068,9.97285068 L131.909502,9.97285068 L131.909502,9.97285068 Z M151.420814,25.6108597 L151.420814,6.79638009 L147.429864,6.79638009 L147.429864,14.39819 C147.429864,16.5882353 147.628959,18.9230769 148.027149,21.4027149 L142.461538,6.79638009 L136.923077,6.79638009 L136.923077,25.6108597 L140.886878,25.6108597 L140.886878,18.7149321 C140.886878,17.2126697 140.837104,15.9140271 140.737557,14.8190045 C140.638009,13.7239819 140.497738,12.4615385 140.316742,11.0316742 L145.746606,25.6108597 L151.420814,25.6108597 L151.420814,25.6108597 Z M169.072398,8.7918552 C167.289593,7.46153846 164.923077,6.79638009 161.972851,6.79638009 L156.733032,6.79638009 L156.733032,25.6108597 L162.38009,25.6108597 C165.149321,25.6108597 167.402715,24.9004525 169.140271,23.479638 C170.877828,22.0588235 171.746606,19.60181 171.746606,16.1085973 C171.746606,12.561086 170.855204,10.1221719 169.072398,8.7918552 Z M161.18552,10.0271493 L162.597285,10.0271493 C163.556561,10.0271493 164.361991,10.1945701 165.013575,10.5294118 C165.665158,10.8642534 166.180995,11.4751131 166.561086,12.361991 C166.941176,13.2488688 167.131222,14.4977376 167.131222,16.1085973 C167.131222,18.4615385 166.751131,20.0950226 165.99095,21.0090498 C165.230769,21.9230769 164.117647,22.3800905 162.651584,22.3800905 L161.18552,22.3800905 L161.18552,10.0271493 L161.18552,10.0271493 Z M185.81448,6.9321267 C184.773756,6.53393665 183.547511,6.33484163 182.135747,6.33484163 C180.832579,6.33484163 179.665158,6.55656109 178.633484,7 C177.60181,7.44343891 176.79638,8.07692308 176.217195,8.90045249 C175.638009,9.7239819 175.348416,10.678733 175.348416,11.7647059 C175.348416,13.1764706 175.78733,14.3438914 176.665158,15.2669683 C177.542986,16.1900452 179.022624,16.9683258 181.104072,17.60181 C182.027149,17.8914027 182.733032,18.1628959 183.221719,18.4162896 C183.710407,18.6696833 184.054299,18.9547511 184.253394,19.2714932 C184.452489,19.5882353 184.552036,19.9819005 184.552036,20.4524887 C184.552036,21.1764706 184.285068,21.7420814 183.751131,22.1493213 C183.217195,22.5565611 182.488688,22.760181 181.565611,22.760181 C180.660633,22.760181 179.823529,22.6063348 179.054299,22.2986425 C178.285068,21.9909502 177.538462,21.5294118 176.81448,20.9140271 L174.561086,23.3846154 C175.411765,24.199095 176.429864,24.8506787 177.615385,25.3393665 C178.800905,25.8280543 180.162896,26.0723982 181.701357,26.0723982 C183.239819,26.0723982 184.570136,25.8235294 185.692308,25.3257919 C186.81448,24.8280543 187.674208,24.1312217 188.271493,23.2352941 C188.868778,22.3393665 189.167421,21.3031674 189.167421,20.1266968 C189.167421,18.479638 188.714932,17.2081448 187.809955,16.3122172 C186.904977,15.4162896 185.493213,14.6606335 183.574661,14.0452489 C182.561086,13.719457 181.800905,13.438914 181.294118,13.2036199 C180.78733,12.9683258 180.434389,12.719457 180.235294,12.4570136 C180.036199,12.1945701 179.936652,11.8552036 179.936652,11.438914 C179.936652,10.841629 180.162896,10.3846154 180.615385,10.0678733 C181.067873,9.75113122 181.683258,9.59276018 182.461538,9.59276018 C183.927602,9.59276018 185.303167,10.1176471 186.588235,11.1674208 L188.651584,8.75113122 C187.837775,7.96024508 186.872843,7.34158063 185.81448,6.9321267 Z"/>
    <path fill="#F59300" d="M38.4615385,9.04977376 C40.9381558,9.05323284 43.2162843,10.405371 44.405585,12.5777452 C45.5948856,14.7501194 45.5065345,17.3978243 44.1750611,19.4860829 C42.8435878,21.5743416 40.4803885,22.7716036 38.0090498,22.6099548 L13.5746606,22.6244344 C13.5746606,25.1234604 15.6005215,27.1493213 18.0995475,27.1493213 L38.0090498,27.1493213 L38.0090498,31.6742081 L18.0995475,31.6742081 C13.1013575,31.6742081 9.04977376,27.6226244 9.04977376,22.6244344 L9.04977376,21.4135747 C6.248728,19.7972532 4.52357493,16.808598 4.52488688,13.5746606 L4.52488688,12.3638009 C1.72384112,10.7474794 -0.00131195006,7.75882423 1.80810618e-15,4.52488688 L1.80810618e-15,0 L38.0090498,0 L38.0090498,4.52488688 L4.52488688,4.52488688 C4.52488688,7.0239129 6.55074774,9.04977376 9.04977376,9.04977376 L38.0090498,9.04977376 C38.158371,9.05520362 38.3095023,9.04977376 38.4615385,9.04977376 Z M32.0606335,18.0995475 C31.8041171,17.3728584 31.6734346,16.6077383 31.6742081,15.8371041 C31.6742081,15.0434389 31.8099548,14.2823529 32.0606335,13.5746606 L9.04977376,13.5746606 C9.04977376,16.0736867 11.0756346,18.0995475 13.5746606,18.0995475 L32.0606335,18.0995475 Z M38.0090498,0.00633484163 C38.159276,0.00180995475 38.3104072,0 38.4615385,0 C47.2081448,0 54.2986425,7.09049774 54.2986425,15.8371041 C54.2986425,24.5837104 47.2081448,31.6742081 38.4615385,31.6742081 C38.3104072,31.6742081 38.159276,31.6723982 38.0090498,31.6678733 L38.0090498,27.1402715 C38.159276,27.1466063 38.3104072,27.1493213 38.4615385,27.1493213 C44.7095023,27.1493213 49.7737557,22.0850679 49.7737557,15.8371041 C49.7737557,9.58914027 44.7095023,4.52488688 38.4615385,4.52488688 C38.3104072,4.52488688 38.159276,4.52760181 38.0090498,4.53393665 L38.0090498,0.00633484163 Z M38.4615385,18.0995475 C39.7110515,18.0995475 40.7239819,17.0866171 40.7239819,15.8371041 C40.7239819,14.5875911 39.7110515,13.5746606 38.4615385,13.5746606 C37.2120255,13.5746606 36.199095,14.5875911 36.199095,15.8371041 C36.199095,17.0866171 37.2120255,18.0995475 38.4615385,18.0995475 Z"/>
  </g>
</svg>
