<svg xmlns="http://www.w3.org/2000/svg" width="207" height="31" viewBox="0 0 207 31">
  <g fill="none" fill-rule="evenodd" transform="translate(2)">
    <path stroke="#F6F6F7" stroke-width="4" d="M19.6779672,26.3036407 C17.7231347,27.4805946 15.4326052,28.1589649 12.9825732,28.1589649 C5.81238103,28.1589649 -0.000185467981,22.3501876 -0.000185467981,15.1846697 C-0.000185467981,8.01915172 5.81238103,2.21037437 12.9825732,2.21037437 C20.1527653,2.21037437 25.9653318,8.01915172 25.9653318,15.1846697 C25.9653318,17.7554336 25.2178958,20.1519713 23.9288933,22.166694" stroke-linecap="round" stroke-linejoin="round"/>
    <polyline stroke="#F6F6F7" stroke-width="4" points="20.401 26.305 25.966 28.159 24.111 22.599" stroke-linecap="round" stroke-linejoin="round"/>
    <path stroke="#F6F6F7" stroke-width="4" d="M9.27339901 13.1280788L16.6921182 13.1280788M9.27339901 18.6921182L12.9827586 18.6921182" stroke-linecap="round" stroke-linejoin="round"/>
    <path fill="#F6F6F7" d="M52.94,3.21 L57.62,3.21 L57.62,24 L52.94,24 L52.94,15.18 L45.08,15.18 L45.08,24 L40.4,24 L40.4,3.21 L45.08,3.21 L45.08,11.16 L52.94,11.16 L52.94,3.21 Z M76.43,8.22 C75.5299955,11.2600152 74.5900049,14.1099867 73.61,16.77 C72.6299951,19.4300133 71.5600058,22.0099875 70.4,24.51 C69.9799979,25.4100045 69.5600021,26.1749969 69.14,26.805 C68.7199979,27.4350032 68.2600025,27.954998 67.76,28.365 C67.2599975,28.7750021 66.6950032,29.0749991 66.065,29.265 C65.4349969,29.455001 64.7000042,29.55 63.86,29.55 C63.1599965,29.55 62.515003,29.4850007 61.925,29.355 C61.3349971,29.2249994 60.8500019,29.0800008 60.47,28.92 L61.25,25.35 C61.7100023,25.5100008 62.1199982,25.6199997 62.48,25.68 C62.8400018,25.7400003 63.219998,25.77 63.62,25.77 C64.420004,25.77 65.0349979,25.5550022 65.465,25.125 C65.8950022,24.6949979 66.2599985,24.1000038 66.56,23.34 C65.5399949,21.33999 64.5200051,19.0950125 63.5,16.605 C62.4799949,14.1149876 61.5200045,11.3200155 60.62,8.22 L65.36,8.22 C65.560001,9.0000039 65.7949987,9.84499545 66.065,10.755 C66.3350014,11.6650046 66.6199985,12.5849954 66.92,13.515 C67.2200015,14.4450047 67.5249985,15.3499956 67.835,16.23 C68.1450016,17.1100044 68.4399986,17.9099964 68.72,18.63 C68.9800013,17.9099964 69.2499986,17.1100044 69.53,16.23 C69.8100014,15.3499956 70.0849987,14.4450047 70.355,13.515 C70.6250014,12.5849954 70.8849988,11.6650046 71.135,10.755 C71.3850013,9.84499545 71.609999,9.0000039 71.81,8.22 L76.43,8.22 Z M89.24,16.23 C89.24,14.8499931 88.9300031,13.7450042 88.31,12.915 C87.6899969,12.0849959 86.7700061,11.67 85.55,11.67 C85.149998,11.67 84.7800017,11.6849999 84.44,11.715 C84.0999983,11.7450002 83.8200011,11.7799998 83.6,11.82 L83.6,19.89 C83.8800014,20.0700009 84.2449978,20.2199994 84.695,20.34 C85.1450023,20.4600006 85.5999977,20.52 86.06,20.52 C88.1800106,20.52 89.24,19.0900143 89.24,16.23 Z M93.8,16.11 C93.8,17.3300061 93.6500015,18.439995 93.35,19.44 C93.0499985,20.440005 92.6100029,21.2999964 92.03,22.02 C91.4499971,22.7400036 90.7300043,23.299998 89.87,23.7 C89.0099957,24.100002 88.0200056,24.3 86.9,24.3 C86.2799969,24.3 85.7000027,24.2400006 85.16,24.12 C84.6199973,23.9999994 84.1000025,23.8300011 83.6,23.61 L83.6,29.55 L79.13,29.55 L79.13,8.76 C79.530002,8.6399994 79.9899974,8.52500055 80.51,8.415 C81.0300026,8.30499945 81.5749972,8.2100004 82.145,8.13 C82.7150029,8.0499996 83.2949971,7.98500025 83.885,7.935 C84.475003,7.88499975 85.0399973,7.86 85.58,7.86 C86.8800065,7.86 88.0399949,8.05499805 89.06,8.445 C90.0800051,8.83500195 90.9399965,9.38499645 91.64,10.095 C92.3400035,10.8050036 92.8749982,11.6699949 93.245,12.69 C93.6150019,13.7100051 93.8,14.8499937 93.8,16.11 Z M112.31,16.08 C112.31,17.3200062 112.130002,18.4549949 111.77,19.485 C111.409998,20.5150052 110.890003,21.3949964 110.21,22.125 C109.529997,22.8550037 108.715005,23.419998 107.765,23.82 C106.814995,24.220002 105.750006,24.42 104.57,24.42 C103.409994,24.42 102.355005,24.220002 101.405,23.82 C100.454995,23.419998 99.6400034,22.8550037 98.96,22.125 C98.2799966,21.3949964 97.7500019,20.5150052 97.37,19.485 C96.9899981,18.4549949 96.8,17.3200062 96.8,16.08 C96.8,14.8399938 96.9949981,13.7100051 97.385,12.69 C97.775002,11.6699949 98.3149966,10.8000036 99.005,10.08 C99.6950035,9.3599964 100.514995,8.800002 101.465,8.4 C102.415005,7.999998 103.449994,7.8 104.57,7.8 C105.710006,7.8 106.754995,7.999998 107.705,8.4 C108.655005,8.800002 109.469997,9.3599964 110.15,10.08 C110.830003,10.8000036 111.359998,11.6699949 111.74,12.69 C112.120002,13.7100051 112.31,14.8399938 112.31,16.08 Z M107.75,16.08 C107.75,14.6999931 107.475003,13.615004 106.925,12.825 C106.374997,12.0349961 105.590005,11.64 104.57,11.64 C103.549995,11.64 102.760003,12.0349961 102.2,12.825 C101.639997,13.615004 101.36,14.6999931 101.36,16.08 C101.36,17.4600069 101.639997,18.554996 102.2,19.365 C102.760003,20.1750041 103.549995,20.58 104.57,20.58 C105.590005,20.58 106.374997,20.1750041 106.925,19.365 C107.475003,18.554996 107.75,17.4600069 107.75,16.08 Z"/>
    <polygon fill="#F6F6F7" points="116.36 24 116.36 3.21 130.28 3.21 130.28 7.14 121.04 7.14 121.04 11.49 129.26 11.49 129.26 15.42 121.04 15.42 121.04 24"/>
    <path fill="#F6F6F7" d="M142.49,12.18 C142.089998,12.0799995 141.620003,11.9750005 141.08,11.865 C140.539997,11.7549994 139.960003,11.7 139.34,11.7 C139.059999,11.7 138.725002,11.7249997 138.335,11.775 C137.944998,11.8250002 137.650001,11.8799997 137.45,11.94 L137.45,24 L132.98,24 L132.98,9.06 C133.780004,8.7799986 134.724995,8.51500125 135.815,8.265 C136.905006,8.01499875 138.119993,7.89 139.46,7.89 C139.700001,7.89 139.989998,7.90499985 140.33,7.935 C140.670002,7.96500015 141.009998,8.00499975 141.35,8.055 C141.690002,8.10500025 142.029998,8.16499965 142.37,8.235 C142.710002,8.30500035 142.999999,8.3899995 143.24,8.49 L142.49,12.18 Z"/>
    <polygon fill="#F6F6F7" points="150.41 24 145.94 24 145.94 8.22 150.41 8.22"/>
    <path fill="#F6F6F7" d="M150.83 3.66C150.83 4.4800041 150.565003 5.12499765 150.035 5.595 149.504997 6.06500235 148.880004 6.3 148.16 6.3 147.439996 6.3 146.815003 6.06500235 146.285 5.595 145.754997 5.12499765 145.49 4.4800041 145.49 3.66 145.49 2.8399959 145.754997 2.19500235 146.285 1.725 146.815003 1.25499765 147.439996 1.02 148.16 1.02 148.880004 1.02 149.504997 1.25499765 150.035 1.725 150.565003 2.19500235 150.83 2.8399959 150.83 3.66zM154.16 16.23C154.16 14.829993 154.374998 13.6050052 154.805 12.555 155.235002 11.5049947 155.799997 10.6300035 156.5 9.93 157.200004 9.2299965 158.004996 8.7000018 158.915 8.34 159.825005 7.9799982 160.759995 7.8 161.72 7.8 163.960011 7.8 165.729994 8.48499315 167.03 9.855 168.330007 11.2250068 168.98 13.2399867 168.98 15.9 168.98 16.1600013 168.97 16.4449984 168.95 16.755 168.93 17.0650015 168.91 17.3399988 168.89 17.58L158.75 17.58C158.850001 18.5000046 159.279996 19.2299973 160.04 19.77 160.800004 20.3100027 161.819994 20.58 163.1 20.58 163.920004 20.58 164.724996 20.5050007 165.515 20.355 166.305004 20.2049992 166.949998 20.0200011 167.45 19.8L168.05 23.43C167.809999 23.5500006 167.490002 23.6699994 167.09 23.79 166.689998 23.9100006 166.245003 24.0149995 165.755 24.105 165.264998 24.1950004 164.740003 24.2699997 164.18 24.33 163.619997 24.3900003 163.060003 24.42 162.5 24.42 161.079993 24.42 159.845005 24.2100021 158.795 23.79 157.744995 23.3699979 156.875004 22.7950036 156.185 22.065 155.494997 21.3349963 154.985002 20.470005 154.655 19.47 154.324998 18.469995 154.16 17.3900058 154.16 16.23zM164.66 14.52C164.64 14.1399981 164.575001 13.7700018 164.465 13.41 164.355 13.0499982 164.185001 12.7300014 163.955 12.45 163.724999 12.1699986 163.435002 11.9400009 163.085 11.76 162.734998 11.5799991 162.300003 11.49 161.78 11.49 161.279998 11.49 160.850002 11.5749991 160.49 11.745 160.129998 11.9150008 159.830001 12.1399986 159.59 12.42 159.349999 12.7000014 159.165001 13.0249981 159.035 13.395 158.904999 13.7650018 158.81 14.1399981 158.75 14.52L164.66 14.52zM172.73 8.76C173.490004 8.5399989 174.469994 8.33500095 175.67 8.145 176.870006 7.95499905 178.129993 7.86 179.45 7.86 180.790007 7.86 181.904996 8.03499825 182.795 8.385 183.685005 8.73500175 184.389997 9.2299968 184.91 9.87 185.430003 10.5100032 185.799999 11.2699956 186.02 12.15 186.240001 13.0300044 186.35 14.0099946 186.35 15.09L186.35 24 181.88 24 181.88 15.63C181.88 14.1899928 181.690002 13.170003 181.31 12.57 180.929998 11.969997 180.220005 11.67 179.18 11.67 178.859998 11.67 178.520002 11.6849998 178.16 11.715 177.799998 11.7450001 177.480001 11.7799998 177.2 11.82L177.2 24 172.73 24 172.73 8.76zM204.62 23.49C204.219998 23.6100006 203.760003 23.7249995 203.24 23.835 202.719998 23.9450006 202.175003 24.0399996 201.605 24.12 201.034997 24.2000004 200.455003 24.2649998 199.865 24.315 199.274997 24.3650003 198.710003 24.39 198.17 24.39 196.869994 24.39 195.710005 24.2000019 194.69 23.82 193.669995 23.4399981 192.810004 22.8950036 192.11 22.185 191.409997 21.4749965 190.875002 20.6150051 190.505 19.605 190.134998 18.594995 189.95 17.4600063 189.95 16.2 189.95 14.9199936 190.109999 13.7650052 190.43 12.735 190.750002 11.7049949 191.209997 10.8300036 191.81 10.11 192.410003 9.3899964 193.144996 8.8400019 194.015 8.46 194.885004 8.0799981 195.879995 7.89 197 7.89 197.620003 7.89 198.174998 7.9499994 198.665 8.07 199.155003 8.1900006 199.649998 8.3599989 200.15 8.58L200.15 1.44 204.62.72 204.62 23.49zM194.51 15.99C194.51 17.3700069 194.819997 18.4799958 195.44 19.32 196.060003 20.1600042 196.979994 20.58 198.2 20.58 198.600002 20.58 198.969998 20.5650002 199.31 20.535 199.650002 20.5049999 199.929999 20.4700002 200.15 20.43L200.15 12.3C199.869999 12.1199991 199.505002 11.9700006 199.055 11.85 198.604998 11.7299994 198.150002 11.67 197.69 11.67 195.56999 11.67 194.51 13.1099856 194.51 15.99z"/>
  </g>
</svg>
