<svg xmlns="http://www.w3.org/2000/svg" width="156" height="50" viewBox="0 0 156 50">
  <defs>
    <linearGradient id="a" x1="-12.971%" x2="58.033%" y1="151.212%" y2="25.464%">
      <stop stop-color="#EA2866" offset="0%"/>
      <stop stop-color="#EA2D62" offset="17.04%"/>
      <stop stop-color="#EB3D58" offset="38.15%"/>
      <stop stop-color="#EB4652" offset="47.79%"/>
      <stop stop-color="#ED5545" offset="58.81%"/>
      <stop stop-color="#F37E24" offset="80.07%"/>
      <stop stop-color="#F9A900" offset="100%"/>
    </linearGradient>
    <linearGradient id="b" x1="11.759%" x2="101.172%" y1="93.062%" y2="18.796%">
      <stop stop-color="#E9473D" offset="0%"/>
      <stop stop-color="#EA4B3A" offset="28.64%"/>
      <stop stop-color="#EC5632" offset="56.06%"/>
      <stop stop-color="#F06A25" offset="82.9%"/>
      <stop stop-color="#F37A1A" offset="100%"/>
    </linearGradient>
    <linearGradient id="c" x1="52.639%" x2="28.775%" y1="82.177%" y2="4.535%">
      <stop stop-color="#0098DE" offset="0%"/>
      <stop stop-color="#0493D9" offset="12.72%"/>
      <stop stop-color="#0F83CC" offset="28.51%"/>
      <stop stop-color="#216AB7" offset="45.86%"/>
      <stop stop-color="#2367B4" offset="47.79%"/>
      <stop stop-color="#325EAC" offset="68.35%"/>
      <stop stop-color="#524B9D" offset="100%"/>
    </linearGradient>
    <linearGradient id="d" x1="46.517%" x2="21.915%" y1="55.505%" y2="126.421%">
      <stop stop-color="#0098DE" offset="0%"/>
      <stop stop-color="#0493D9" offset="12.72%"/>
      <stop stop-color="#0F83CC" offset="28.51%"/>
      <stop stop-color="#216AB7" offset="45.86%"/>
      <stop stop-color="#2367B4" offset="47.79%"/>
      <stop stop-color="#325EAC" offset="68.35%"/>
      <stop stop-color="#524B9D" offset="100%"/>
    </linearGradient>
  </defs>
  <g fill="none">
    <path fill="url(#a)" d="M50.8333333,25 C50.8333333,27.75 49.3333333,30.1666667 47.0833333,31.4166667 L46.3333333,31.8333333 L46.3333333,31.8333333 L38.25,35.8333333 C38.25,35.8333333 38.25,35.8333333 38.25,35.8333333 L34.6666667,37.5833333 C31.8333333,38.75 28.6666667,39.3333333 25.5,39.3333333 C22.8333333,39.3333333 18.0833333,41.3333333 14,39.9166667 C7.16666667,37.5 2.25,27.0833333 2.25,27.0833333 L0.833333333,20.8333333 C0.833333333,20.8333333 0.916666667,18.1666667 0.833333333,15 L0.833333333,6.66666667 C0.916666667,3.66666667 2.75,1.66666667 5.33333333,0.583333333 L5.33333333,0.583333333 C6.16666667,0.25 7.16666667,0 8.16666667,0 C9.16666667,0 10.0833333,0.166666667 11,0.583333333 L11.0833333,0.583333333 L11.8333333,0.916666667 L46.3333333,18.1666667 L47.0833333,18.5833333 C48,19.0833333 48.75,19.75 49.4166667,20.5833333 C50.3333333,21.8333333 50.8333333,23.3333333 50.8333333,25 Z"/>
    <path fill="url(#b)" d="M50.8333333,25 C50.8333333,27.75 49.3333333,30.1666667 47.0833333,31.4166667 L46.3333333,31.8333333 L46.25,31.8333333 L38.1666667,35.8333333 C43.6666667,32.5 47.75,27 49.3333333,20.5833333 C50.25,21.8333333 50.8333333,23.3333333 50.8333333,25 Z"/>
    <path fill="url(#c)" d="M34.6666667,37.6666667 L11.8333333,49.0833333 L11.0833333,49.4166667 C10.1666667,49.75 9.25,50 8.16666667,50 C4.08333333,50 0.75,46.6666667 0.75,42.5833333 L0.75,14.1666667 C1,27.5833333 11.9166667,39.4166667 25.3333333,39.4166667 C28.6666667,39.4166667 31.8333333,38.8333333 34.6666667,37.6666667 Z"/>
    <path fill="url(#d)" d="M34.6666667,37.6666667 C31.9166667,38.9166667 26.5,40 23.75,40 C11.25,40 1.08333333,29.8333333 0.833333333,17.1666667 L0.833333333,13.9166667 C1.08333333,27.4166667 11.9166667,39.3333333 25.25,39.3333333 C28.0833333,39.3333333 32.25,38.75 34.6666667,37.6666667 Z"/>
    <g fill="#193441" transform="translate(65.833 10.833)">
      <polygon points="17.167 17.5 8 17.5 8 28.333 .5 28.333 .5 0 18.833 0 18.833 5.833 8 5.833 8 11.667 17.167 11.667"/>
      <polygon points="43.833 28.333 23.833 28.333 23.833 0 31.333 0 31.333 22.5 43.833 22.5"/>
      <polygon points="48 28.333 48 0 55.5 0 55.5 28.333"/>
      <polygon points="79.667 28.333 73.833 20.75 68 28.333 58 28.333 69 14.333 58 0 68 0 73.833 7.5 79.667 0 89.667 0 78.75 14 89.667 28.333"/>
    </g>
  </g>
</svg>
