<svg xmlns="http://www.w3.org/2000/svg" width="210" height="49" viewBox="0 0 210 49">
  <g fill="none" fill-rule="evenodd">
    <path fill="#713079" d="M32.6119254,20.6641833 C32.9984857,15.7553137 31.6781774,11.4366279 27.9241211,8.06020822 C23.8561114,4.40106814 19.1504597,3.54479448 13.9560303,5.03952136 C13.5033532,5.16972688 13.0754191,5.38430233 12.6263926,5.52870471 C11.3863981,5.9266225 10.4960519,5.49990535 10.0271498,4.3049351 C9.56838832,3.1355192 10.1273391,2.24679557 11.1316658,1.81034343 C14.2894538,0.438115197 17.5531098,0.0288399135 21.0082207,0.597120065 C23.6330178,1.02911033 26.0801514,1.75761222 28.2745809,3.24706598 C32.3429962,6.00896431 35.1430233,9.74922931 36.0333694,14.5927934 C37.0454029,20.1003651 37.1642509,25.6286236 34.5216063,30.836033 C34.0352623,31.7949297 33.4690103,32.728272 32.8285289,33.5910357 C31.9864521,34.7259735 31.0401298,36.1841942 29.4022174,34.9961195 C27.777285,33.8169686 28.7621417,32.5449297 29.6885884,31.3661844 C32.1592482,28.2246214 32.9331801,24.5963088 32.6119254,20.6641833"/>
    <path fill="#F8991C" d="M8.41686047,37.7709978 C8.73081395,33.6973094 11.8520957,29.908775 15.8045024,29.2070443 C17.8151839,28.849689 19.8356003,28.7924959 21.7391969,27.8632098 C23.2116144,27.1440373 24.0427393,25.8910627 24.2552866,24.5305976 C24.7006625,21.6839237 24.9586398,18.7682937 23.9311925,15.9431179 C23.5052866,14.7700514 23.7085046,13.7417929 24.8937399,13.2181314 C26.0688345,12.6989319 27.1433342,13.1211871 27.5031233,14.3433342 C28.9102353,19.1203759 29.3547999,23.9335181 26.6046647,28.39255 C24.8673743,31.2088021 22.0620741,32.4978772 18.7594781,32.7229989 C14.4521498,33.0170768 12.2609654,35.3092618 12.1826798,39.5845457 C12.139278,41.9448756 12.1254867,36.1947404 12.1526636,38.5554759 C12.1676717,39.8319767 11.6870065,40.7304354 10.369132,40.7774878 C8.95309627,40.8281909 8.3450649,39.9382504 8.36210114,38.5607491 C8.38035425,37.0765684 8.30328556,39.2458491 8.41686047,37.7709978 Z"/>
    <path fill="#2076DA" d="M7.87206598,8.82610871 C3.76592753,13.5021498 4.00930233,19.1058545 4.10502975,24.7213223 C4.12774473,26.0696187 4.12003786,41.373026 4.09529475,42.721728 C4.0729854,43.9422526 3.346106,44.6220795 2.20508383,44.6744051 C1.15086533,44.7226744 0.207382369,44.0915224 0.234153597,43.0360871 C0.383017847,37.1500676 -0.845213629,17.195768 1.58407247,11.4849784 C2.30121687,9.80001352 3.25524608,8.25863981 4.39058951,6.82840725 C4.86192537,6.23416712 5.41114116,5.74255003 6.24672796,5.7701325 C7.78323418,5.79000811 8.91857761,7.63438345 7.87206598,8.82610871 Z"/>
    <path fill="#6A9BD4" d="M10.4285154,12.3246214 C12.8975527,9.2832477 16.0861682,8.11342618 19.9254056,8.58760141 C21.302907,8.75796376 22.2962818,9.4296782 22.082112,10.9390076 C21.8874121,12.3096133 20.884708,12.7107761 19.5368172,12.6008518 C14.9605598,12.2284884 12.2578826,14.7340319 12.2088021,19.3338156 C12.1913602,20.952258 12.171079,22.815292 12.2128583,24.4325176 C12.2497701,25.8578826 11.7488237,26.8934424 10.2179962,26.8845187 C8.68797999,26.8755949 8.22678475,25.7844646 8.24584911,24.409397 C8.26004597,23.3977691 8.24868848,22.1427664 8.24868848,20.7790562 C8.11767171,17.9838967 8.3164278,14.926298 10.4285154,12.3246214 Z"/>
    <path fill="#F8991C" d="M12.2059627,39.2524337 C12.1827069,43.0230215 12.1850054,45.4473905 12.2128583,46.5255408 C12.2497701,47.9509059 11.7488237,48.9864657 10.2179962,48.9775419 C8.68797999,48.9686182 8.22678475,47.8774878 8.24584911,46.5024202 C8.25531368,45.8280016 8.25531368,43.1178926 8.24584911,38.372093 L12.2059627,39.2524337 Z"/>
    <path fill="#FF7200" d="M16.6819497,47.9173337 C15.9733234,46.6420498 16.8502839,45.1465116 18.4825176,45.1347485 C24.0574229,45.0937804 28.8665089,43.1244727 33.0841942,39.5776906 C34.1404408,38.6897783 35.203583,38.5579502 36.0781098,39.6693618 C36.9773797,40.8124121 36.4176176,41.7855057 35.4242428,42.6312331 C30.8406842,46.5353705 25.528218,48.5797188 19.5424148,48.9297729 C18.439927,48.9995403 17.3297323,49.0826933 16.6819497,47.9173337 Z"/>
    <path fill="#BB014E" d="M16.6570038,39.2853164 C16.5953488,37.9820443 17.3668469,37.1574094 18.7098702,37.0308545 C20.5282856,36.8596809 22.2878853,36.4804218 23.9943483,35.8143862 C25.1686317,35.3560303 26.1725527,35.6606544 26.6386155,36.8791509 C27.1172526,38.1313142 26.4333694,38.9575717 25.3256084,39.4333694 C23.327907,40.2916712 21.2174419,40.683099 18.9767712,40.8133045 C17.9505408,40.7666577 16.7263656,40.7613845 16.6570038,39.2853164 Z"/>
    <path fill="#2076DA" d="M4.07610871,47.0260952 C4.04203624,48.2478367 3.32164684,48.9280692 2.1631828,48.9244186 C1.02297188,48.920768 0.254718767,48.2948891 0.246200649,47.0431314 C0.232003786,44.9565982 0.201987561,42.8692537 0.257152515,40.7839373 C0.289196863,39.5654408 1.07610871,38.9541644 2.24755273,38.9882369 C3.3342212,39.0198756 4.00431314,39.6656301 4.06556247,40.7673067 C4.12478367,41.8414008 4.07854246,42.920768 4.08016495,43.9972958 C4.08178745,45.0068956 4.10450243,46.0173067 4.07610871,47.0260952 Z"/>
    <path fill="#F6C806" d="M16.3981747,18.4715387 C16.5409546,17.3240265 17.2122634,16.5784884 18.4052055,16.598364 C19.588007,16.617834 20.2885208,17.3434965 20.3449027,18.5210249 C20.409397,19.8697269 20.406152,21.2261357 20.3469308,22.5752434 C20.2909546,23.8371417 19.6196458,24.5494186 18.2896025,24.5806517 C16.8528799,24.6143186 16.4314359,23.7393862 16.3811385,22.523729 C16.3527447,21.8487696 16.3758653,21.1721877 16.3758653,20.496417 C16.3831666,19.8206463 16.3154273,19.1367631 16.3981747,18.4715387 Z"/>
    <path fill="#212C31" d="M57.9883721,34.1116279 L53.4883721,34.1116279 C53.6139535,33.1906977 53.655814,32.2488372 53.655814,31.0139535 L53.655814,19.6906977 C53.655814,18.5604651 53.6139535,17.6186047 53.4883721,16.6348837 C54.472093,16.6767442 55.2255814,16.6976744 56.5651163,16.6976744 L61.1488372,16.6976744 C65.2930233,16.6976744 67.5744186,18.6860465 67.5744186,22.327907 C67.5744186,26.0534884 65.1883721,28.272093 61.127907,28.272093 L57.8209302,28.272093 L57.8209302,30.9511628 C57.8209302,32.1860465 57.8837209,33.2116279 57.9883721,34.1116279 Z M57.8209302,24.7139535 L60.9395349,24.7139535 C62.4046512,24.7139535 63.2627907,23.8976744 63.2627907,22.4534884 C63.2627907,21.0093023 62.4465116,20.255814 60.9395349,20.255814 L57.8209302,20.255814 L57.8209302,24.7139535 Z M88.455814,34.1116279 L83.5581395,34.1116279 C83.3906977,33.1069767 83.2651163,32.5627907 83.055814,31.8511628 L82.4906977,30.072093 L76.5255814,30.072093 L75.9604651,31.8511628 C75.6883721,32.6883721 75.5418605,33.3372093 75.4372093,34.1116279 L70.5395349,34.1116279 C70.8534884,33.4837209 71.0418605,32.9813953 71.544186,31.5581395 L76.0651163,18.9581395 C76.4418605,17.9325581 76.6302326,17.3046512 76.7348837,16.6976744 L82.1976744,16.6976744 C82.344186,17.3046512 82.4906977,17.8488372 82.9093023,18.9581395 L87.4511628,31.5581395 C87.8488372,32.6674419 88.1837209,33.5255814 88.455814,34.1116279 Z M81.4651163,26.555814 L79.4767442,20.2767442 L77.5302326,26.555814 L81.4651163,26.555814 Z M92.8651163,28.8581395 C93.0116279,29.8209302 93.1162791,30.3023256 93.3255814,30.8046512 C93.7651163,31.9976744 94.5395349,32.8976744 95.5860465,33.4837209 C96.7162791,34.1325581 98.4744186,34.5093023 100.253488,34.5093023 C102.702326,34.5093023 104.544186,33.9023256 105.75814,32.7302326 C106.72093,31.7883721 107.223256,30.4488372 107.223256,28.8790698 C107.223256,26.9534884 106.469767,25.5511628 104.962791,24.6093023 C104.167442,24.1069767 103.162791,23.7511628 101.572093,23.4162791 C99.1023256,22.9139535 99.1023256,22.9139535 98.6837209,22.7255814 C98.0139535,22.4116279 97.7,21.972093 97.7,21.3860465 C97.7,20.4232558 98.6418605,19.7325581 99.9186047,19.7325581 C101.509302,19.7325581 102.262791,20.2976744 102.513953,21.6581395 L106.951163,21.1767442 C106.67907,19.9837209 106.427907,19.355814 105.904651,18.6651163 C104.774419,17.0953488 102.744186,16.2790698 100.086047,16.2790698 C95.9627907,16.2790698 93.3674419,18.3093023 93.3674419,21.5325581 C93.3674419,23.227907 94.0790698,24.6302326 95.3976744,25.5511628 C96.172093,26.0953488 96.8418605,26.3465116 98.7674419,26.7651163 C100.944186,27.2674419 101.467442,27.4139535 101.906977,27.6232558 C102.451163,27.8744186 102.786047,28.4395349 102.786047,29.0883721 C102.786047,30.2604651 101.823256,30.972093 100.211628,30.972093 C99.144186,30.972093 98.2651163,30.6162791 97.7627907,29.9883721 C97.4488372,29.5697674 97.3023256,29.1930233 97.2186047,28.4395349 L92.8651163,28.8581395 Z M112.344186,28.8581395 C112.490698,29.8209302 112.595349,30.3023256 112.804651,30.8046512 C113.244186,31.9976744 114.018605,32.8976744 115.065116,33.4837209 C116.195349,34.1325581 117.953488,34.5093023 119.732558,34.5093023 C122.181395,34.5093023 124.023256,33.9023256 125.237209,32.7302326 C126.2,31.7883721 126.702326,30.4488372 126.702326,28.8790698 C126.702326,26.9534884 125.948837,25.5511628 124.44186,24.6093023 C123.646512,24.1069767 122.64186,23.7511628 121.051163,23.4162791 C118.581395,22.9139535 118.581395,22.9139535 118.162791,22.7255814 C117.493023,22.4116279 117.17907,21.972093 117.17907,21.3860465 C117.17907,20.4232558 118.12093,19.7325581 119.397674,19.7325581 C120.988372,19.7325581 121.74186,20.2976744 121.993023,21.6581395 L126.430233,21.1767442 C126.15814,19.9837209 125.906977,19.355814 125.383721,18.6651163 C124.253488,17.0953488 122.223256,16.2790698 119.565116,16.2790698 C115.44186,16.2790698 112.846512,18.3093023 112.846512,21.5325581 C112.846512,23.227907 113.55814,24.6302326 114.876744,25.5511628 C115.651163,26.0953488 116.32093,26.3465116 118.246512,26.7651163 C120.423256,27.2674419 120.946512,27.4139535 121.386047,27.6232558 C121.930233,27.8744186 122.265116,28.4395349 122.265116,29.0883721 C122.265116,30.2604651 121.302326,30.972093 119.690698,30.972093 C118.623256,30.972093 117.744186,30.6162791 117.24186,29.9883721 C116.927907,29.5697674 116.781395,29.1930233 116.697674,28.4395349 L112.344186,28.8581395 Z M136.846512,34.1116279 L132.346512,34.1116279 C132.472093,33.1906977 132.513953,32.2488372 132.513953,31.0139535 L132.513953,19.6906977 C132.513953,18.5604651 132.472093,17.6186047 132.346512,16.6348837 C133.330233,16.6767442 134.083721,16.6976744 135.423256,16.6976744 L140.006977,16.6976744 C144.151163,16.6976744 146.432558,18.6860465 146.432558,22.327907 C146.432558,26.0534884 144.046512,28.272093 139.986047,28.272093 L136.67907,28.272093 L136.67907,30.9511628 C136.67907,32.1860465 136.74186,33.2116279 136.846512,34.1116279 Z M136.67907,24.7139535 L139.797674,24.7139535 C141.262791,24.7139535 142.12093,23.8976744 142.12093,22.4534884 C142.12093,21.0093023 141.304651,20.255814 139.797674,20.255814 L136.67907,20.255814 L136.67907,24.7139535 Z M159.737209,16.3209302 C164.886047,16.3209302 168.172093,19.8372093 168.172093,25.3209302 C168.172093,30.8465116 164.802326,34.5093023 159.716279,34.5093023 C154.588372,34.5093023 151.281395,30.9302326 151.281395,25.3837209 C151.281395,19.8581395 154.588372,16.3209302 159.737209,16.3209302 Z M159.737209,30.8883721 C162.269767,30.8883721 163.818605,28.7953488 163.818605,25.3627907 C163.818605,21.972093 162.269767,19.9209302 159.737209,19.9209302 C157.183721,19.9209302 155.613953,21.9930233 155.613953,25.3627907 C155.613953,28.7744186 157.183721,30.8883721 159.737209,30.8883721 Z M189.22093,34.1116279 L184.323256,34.1116279 C184.197674,33.4418605 183.946512,32.5837209 183.297674,30.8465116 C182.627907,29.0255814 182.376744,28.544186 181.853488,28.0837209 C181.413953,27.6860465 180.890698,27.5186047 180.22093,27.5186047 L178.086047,27.5186047 L178.086047,30.9511628 C178.086047,32.3744186 178.127907,33.1488372 178.253488,34.1116279 L173.753488,34.1116279 C173.87907,33.1488372 173.92093,32.5209302 173.92093,30.972093 L173.92093,19.7116279 C173.92093,18.4139535 173.87907,17.6395349 173.753488,16.6348837 C174.674419,16.6767442 175.448837,16.6976744 176.872093,16.6976744 L182.313953,16.6976744 C185.704651,16.6976744 187.672093,18.455814 187.672093,21.4697674 C187.672093,22.955814 187.253488,24.127907 186.437209,24.9023256 C185.913953,25.3837209 185.474419,25.6139535 184.448837,25.9488372 C185.516279,26.2837209 185.997674,26.7651163 186.667442,28.2511628 C186.981395,28.9209302 187.274419,29.6325581 188.216279,31.8930233 C188.446512,32.4790698 188.697674,33.0023256 189.22093,34.1116279 Z M178.086047,23.9395349 L181.351163,23.9395349 C182.586047,23.9395349 183.339535,23.1860465 183.339535,21.9930233 C183.339535,20.8209302 182.669767,20.2139535 181.372093,20.2139535 L178.086047,20.2139535 L178.086047,23.9395349 Z M203.383721,20.4023256 L205.748837,20.4023256 C207.255814,20.4023256 208.072093,20.444186 209.013953,20.5488372 L209.013953,16.5511628 C208.051163,16.655814 207.213953,16.6976744 205.748837,16.6976744 L196.581395,16.6976744 C195.304651,16.6976744 194.153488,16.6348837 193.462791,16.5511628 L193.462791,20.5488372 C194.948837,20.4232558 195.304651,20.4023256 196.623256,20.4023256 L199.093023,20.4023256 L199.093023,30.9511628 C199.093023,32.2697674 199.051163,33.127907 198.925581,34.1116279 L203.551163,34.1116279 C203.425581,33.127907 203.383721,32.2069767 203.383721,30.9511628 L203.383721,20.4023256 Z"/>
  </g>
</svg>
