<svg xmlns="http://www.w3.org/2000/svg" width="228" height="48" viewBox="0 0 228 48" xmlns:xlink="http://www.w3.org/1999/xlink">
  <defs>
    <filter id="a" width="106.3%" height="135%" x="-3.2%" y="-12.5%" filterUnits="objectBoundingBox">
      <feOffset dy="2" in="SourceAlpha" result="shadowOffsetOuter1"/>
      <feGaussianBlur stdDeviation="2" in="shadowOffsetOuter1" result="shadowBlurOuter1"/>
      <feComposite in="shadowBlurOuter1" in2="SourceAlpha" operator="out" result="shadowBlurOuter1"/>
      <feColorMatrix values="0 0 0 0 0 0 0 0 0 0 0 0 0 0 0 0 0 0 0.24 0" in="shadowBlurOuter1" result="shadowMatrixOuter1"/>
      <feMerge>
        <feMergeNode in="shadowMatrixOuter1"/>
        <feMergeNode in="SourceGraphic"/>
      </feMerge>
    </filter>
    <path id="b" d="M173.111913,0 L163.210072,29.6 L169.667307,29.6 L179.568347,0 L173.111913,0 Z M162.097668,1.1528 C161.29943,1.7904 160.836996,2.5848 160.712773,3.5352 C160.590152,4.472 160.825776,5.2248 161.421249,5.7904 C162.015921,6.3584 162.802137,6.64 163.7807,6.64 C164.785711,6.64 165.683329,6.3248 166.474354,5.6936 C167.266181,5.0624 167.725408,4.264 167.852036,3.3008 C167.972253,2.3768 167.742238,1.628 167.161993,1.0544 C166.580946,0.4824 165.788318,0.1952 164.784108,0.1952 C163.792722,0.1952 162.896708,0.5136 162.097668,1.1528 Z M29.1196679,1.1528 C28.3206282,1.7904 27.8589964,2.5848 27.7339711,3.5352 C27.6113502,4.472 27.8469747,5.2248 28.4424477,5.7904 C29.0371191,6.3584 29.8241372,6.64 30.8027004,6.64 C31.8061083,6.64 32.7045271,6.3248 33.4963538,5.6936 C34.2873791,5.0624 34.7474079,4.264 34.8740361,3.3008 C34.9942527,2.3768 34.7642383,1.628 34.1831913,1.0544 C33.6021444,0.4824 32.8095162,0.1952 31.8061083,0.1952 C30.8139206,0.1952 29.9187076,0.5136 29.1196679,1.1528 Z M42.7201733,0.2152 C41.7424116,0.2152 40.8504043,0.5272 40.0473574,1.1528 C39.243509,1.7776 38.7794729,2.5712 38.6520433,3.5352 C38.5334296,4.4472 38.7674513,5.192 39.3541083,5.772 C39.9399639,6.3512 40.7285848,6.64 41.7207726,6.64 C42.7682599,6.6152 43.6778989,6.2824 44.4512924,5.6448 C45.2246859,5.0056 45.6710903,4.2248 45.7921083,3.3008 C45.9123249,2.3768 45.6799061,1.624 45.0924477,1.0448 C44.5322383,0.4904 43.7836895,0.2136 42.8476029,0.2136 C42.8051264,0.2136 42.7626498,0.2136 42.7201733,0.2152 Z M128.33844,11.6216 L129.267314,8.848 L123.258087,8.8672 L116.289531,29.6 L122.726729,29.6 L127.173141,16.6208 C128.409769,15.2408 129.988614,14.5768 131.911278,14.6288 C132.546022,14.6544 133.201603,14.72 133.876419,14.8248 L135.690087,8.692 C134.923906,8.5096 134.273134,8.4176 133.73857,8.4176 C131.859986,8.4176 130.059942,9.4856 128.33844,11.6216 Z M5.4426065,11.3968 C3.05430325,13.4216 1.40813718,16.172 0.503306859,19.6488 L0.358245487,20.1952 C-0.0977761733,22.0832 -0.0721299639,23.8112 0.43598556,25.3808 C0.943299639,26.9504 1.86736462,28.1736 3.20818051,29.0528 C4.54979783,29.932 6.16470758,30.3776 8.05451264,30.3912 L8.40714801,30.3912 C10.1070108,30.3648 11.7219206,30.0296 13.2526787,29.3848 C14.7826354,28.74 16.0360939,27.8512 17.0122527,26.7192 L14.8780072,23.1448 C13.155704,24.6288 11.365278,25.3456 9.50913357,25.2928 C8.36707581,25.2536 7.55120578,24.8888 7.06072202,24.1992 C6.57023827,23.5096 6.39953069,22.6104 6.54859928,21.504 L19.149704,21.504 L19.9463394,18.8288 C20.4648736,16.8752 20.5482238,15.1144 20.1971913,13.544 C19.8469603,11.9752 19.0960072,10.7448 17.945935,9.8528 C16.7958628,8.9616 15.3163971,8.5024 13.5075379,8.476 C13.3977401,8.4736 13.2871408,8.472 13.177343,8.472 C10.3217978,8.472 7.7427509,9.4472 5.4426065,11.3968 Z M9.7808231,14.3944 C10.5470036,13.7952 11.3853141,13.5088 12.2941516,13.5352 C13.7095018,13.5736 14.4251913,14.244 14.4404188,15.5464 C14.4283971,15.9504 14.3474513,16.3808 14.1967798,16.836 L13.9892058,17.4024 L7.55200722,17.4024 C8.27090253,15.996 9.01303971,14.9936 9.7808231,14.3944 Z M141.595928,9.2672 C140.025899,9.8344 138.726758,10.6416 137.700108,11.6896 C136.672657,12.7376 136.013069,13.9712 135.722946,15.3904 L142.183386,15.3712 C142.758823,13.7952 143.750209,13.0208 145.155141,13.0472 C146.283574,13.0856 146.779668,13.6976 146.643422,14.8832 L146.400585,15.9184 L145.977422,17.1088 L143.831155,17.0704 C140.622173,17.0704 137.99504,17.6848 135.94735,18.916 C133.898859,20.1472 132.66143,21.908 132.231856,24.1992 C131.883227,25.9048 132.220635,27.3568 133.243278,28.5552 C134.134484,29.5984 135.428816,29.5976 136.961978,29.5968 C137.187986,29.5968 137.419603,29.5968 137.656029,29.6 C139.656433,29.652 141.381942,29.6744 143.081805,28.0864 C142.959184,28.8536 143.012881,29.092 143.115466,29.6 L149.396383,29.6 C149.204036,28.9232 149.204838,28.132 149.410007,27.168 L149.70013,25.9576 L152.862628,16.0152 C153.239307,14.5448 153.216866,13.2456 152.796108,12.1192 C152.374549,10.9928 151.610773,10.1144 150.503978,9.4832 C149.397986,8.8504 148.045148,8.516 146.447069,8.476 C146.340477,8.4744 146.233083,8.4728 146.126491,8.4728 C144.576498,8.4728 143.065776,8.7376 141.595928,9.2672 Z M140.049141,25.7416 C139.50496,25.7168 139.12748,25.5304 138.914296,25.1856 C138.701112,24.8408 138.669856,24.4008 138.819726,23.8672 C139.109848,22.8648 139.672462,22.0736 140.507567,21.4944 C141.34187,20.9152 142.277957,20.612 143.312621,20.5856 L144.972412,20.6056 L143.787076,24.004 C142.653834,25.1648 141.462087,25.7456 140.211834,25.7456 C140.158137,25.7456 140.102838,25.744 140.049141,25.7416 Z M74.8564765,11.3864 L75.6899783,8.848 L69.6991841,8.8672 L62.7314296,29.6 L69.1686282,29.6 L74.0446137,15.2728 C75.2067076,14.1144 76.3415523,13.5352 77.4507509,13.5352 C78.6641372,13.5352 79.1642383,14.2056 78.9510542,15.5464 L78.6865776,16.7192 L74.4124765,29.6 L80.8697112,29.6 L85.7056245,15.2728 C86.8677184,14.1144 88.0161877,13.5352 89.1518339,13.5352 C90.3588087,13.5736 90.8589097,14.2384 90.655343,15.5272 L90.3940722,16.68 L86.0935235,29.6 L92.5507581,29.6 L96.8088303,16.6992 C97.4804404,14.108 97.4563971,12.1 96.7367004,10.6744 C96.0178051,9.2472 94.6825993,8.516 92.7326859,8.476 C90.3147292,8.4248 88.0009603,9.4856 85.7897762,11.66 C85.6663538,10.7088 85.2399856,9.948 84.5090686,9.3752 C83.7781516,8.8024 82.7755451,8.5024 81.5012491,8.476 C81.4395379,8.4752 81.3786282,8.4744 81.316917,8.4744 C78.9710903,8.4744 76.8176101,9.4448 74.8564765,11.3864 Z M159.299025,8.8672 L152.331271,29.6 L158.788505,29.6 L165.75626,8.8672 L159.299025,8.8672 Z M59.7204043,8.8672 L54.7426354,23.7112 C53.6134007,24.8304 52.3743682,25.3648 51.0263394,25.3128 C49.8586354,25.2728 49.312852,24.72 49.3913935,23.6528 C49.4018123,23.34 49.4563105,22.9944 49.5556895,22.6168 L54.0654152,8.8672 L47.6282166,8.8672 L43.1697834,22.5392 C42.5566787,24.9216 42.6624693,26.8224 43.4879567,28.2424 C44.313444,29.6616 45.7600505,30.3848 47.8301805,30.4104 C50.0525848,30.4624 52.1002744,29.5576 53.9740505,27.6952 L53.2415307,29.6 L59.2291191,29.6 L66.1976751,8.8672 L59.7204043,8.8672 Z M37.3168375,8.8672 L30.1751697,30.4496 C29.5003538,32.48 28.2196462,33.4824 26.331444,33.4568 C25.8625993,33.4568 25.2815523,33.3792 24.5891047,33.2224 L23.266722,38.2224 C24.405574,38.4432 25.493935,38.3744 26.4676895,38.4 C28.9152996,38.4256 31.0158845,37.9328 32.8295523,36.5328 C34.6424188,35.1336 35.9054946,33.1776 36.6171769,30.664 L43.7732708,8.8672 L37.3168375,8.8672 Z M26.3202238,8.8672 L19.3524693,29.6 L25.8089025,29.6 L32.7774585,8.8672 L26.3202238,8.8672 Z"/>
    <path id="d" d="M18.4027581,0 L29.6237762,0 C29.6838845,0 29.7423899,0.0048 29.7992924,0.0136 L32.791083,0.02 C36.3631191,0.0328 38.9229314,0.7096 40.4713213,2.0512 C42.0197112,3.392 42.5230181,5.2736 41.9820433,7.6952 C41.3112347,10.6904 39.3308664,12.8128 36.0417401,14.0624 C37.088426,14.4528 37.8401805,15.1592 38.2970036,16.1816 C38.7554296,17.204 38.8243538,18.432 38.5061805,19.8632 C37.8874657,22.6112 36.465704,24.7264 34.2416968,26.2112 C32.0160866,27.6952 29.2446931,28 25.788065,28 L17.967574,28 L6.7473574,28 C6.08376173,28 5.6301444,27.4624 5.73593502,26.8 C5.84092419,26.1376 6.46444765,25.6 7.12884477,25.6 L15.1641227,25.6 L15.7900505,23.7336 L9.82890975,23.7336 C9.16451264,23.7336 8.71169675,23.196 8.81668592,22.5336 C8.92247653,21.8704 9.54519856,21.3336 10.2095957,21.3336 L16.592296,21.3336 L17.2182238,19.4664 L8.90244043,19.4664 C8.23964621,19.4664 7.78602888,18.9296 7.89181949,18.2664 C7.99600722,17.604 8.62033213,17.0664 9.2839278,17.0664 L18.0212708,17.0664 L18.6463971,15.2 L13.5868809,15.2 C12.9232852,15.2 12.4704693,14.6624 12.5754585,14 C12.6812491,13.3376 13.3039711,12.8 13.9675668,12.8 L19.449444,12.8 L20.0745704,10.9336 L7.05110469,10.9336 C6.38750903,10.9336 5.9338917,10.396 6.03888087,9.7336 C6.14467148,9.0704 6.7673935,8.5336 7.43179061,8.5336 L20.8776173,8.5336 L21.5035451,6.6664 L18.9485415,6.6664 C18.2849458,6.6664 17.8313285,6.1296 17.9363177,5.4664 C18.0413069,4.804 18.6656318,4.2664 19.3292274,4.2664 L22.3057906,4.2664 L22.9317184,2.4 L18.0220722,2.4 C17.3584765,2.4 16.9056606,1.8624 17.0106498,1.2 C17.1164404,0.5376 17.7391625,0 18.4027581,0 Z M26.4917329,12.1624 L29.6390036,12.1816 C32.5578628,12.1168 34.3651191,11.004 35.0599711,8.8416 C35.7123466,6.7072 34.7738556,5.6328 32.2452996,5.6192 L28.6876895,5.6 L26.4917329,12.1624 Z M23.0711697,23.616 L27.0791913,23.636 C28.3318484,23.636 29.4242166,23.3272 30.3570975,22.708 C31.2899783,22.0896 31.9167076,21.2664 32.2364838,20.2376 C32.9465632,18.0632 32.2925848,16.9232 30.2745487,16.8192 L25.3464693,16.8 L23.0711697,23.616 Z M13.1284549,5.4664 C13.233444,4.804 13.8569675,4.2664 14.5205632,4.2664 C15.1849603,4.2664 15.6377762,4.804 15.5319856,5.4664 C15.4269964,6.1296 14.8034729,6.6664 14.1398773,6.6664 C13.4754801,6.6664 13.0226643,6.1296 13.1284549,5.4664 Z M1.23101805,9.7336 C1.33600722,9.0704 1.95953069,8.5336 2.62312635,8.5336 C3.28752347,8.5336 3.74033935,9.0704 3.63535018,9.7336 C3.52955957,10.396 2.90683755,10.9336 2.24244043,10.9336 C1.57884477,10.9336 1.12602888,10.396 1.23101805,9.7336 Z M8.56823827,14 C8.67322744,13.3376 9.2967509,12.8 9.96034657,12.8 C10.6247437,12.8 11.0775596,13.3376 10.9725704,14 C10.8675812,14.6624 10.2440578,15.2 9.58046209,15.2 C8.91606498,15.2 8.46244765,14.6624 8.56823827,14 Z M2.19435379,21.3336 L5.40093141,21.3336 C6.06532852,21.3336 6.5181444,21.8704 6.41315523,22.5336 C6.30736462,23.196 5.6846426,23.7336 5.02024549,23.7336 L1.81446931,23.7336 C1.1500722,23.7336 0.697256318,23.196 0.802245487,22.5336 C0.908036101,21.8704 1.53075812,21.3336 2.19435379,21.3336 Z"/>
    <linearGradient id="e" x1="24.446%" x2="-3.781%" y1="75.783%" y2="367.521%">
      <stop stop-color="#FDA023" offset="0%"/>
      <stop stop-color="#D51714" offset="100%"/>
    </linearGradient>
    <path id="g" d="M18.4027581,0 C17.7391625,0 17.1164404,0.5376 17.0106498,1.2 C16.9056606,1.8624 17.3584765,2.4 18.0220722,2.4 L22.9317184,2.4 L22.3057906,4.2664 L19.3292274,4.2664 C18.6656318,4.2664 18.0413069,4.804 17.9363177,5.4664 C17.8313285,6.1296 18.2849458,6.6664 18.9485415,6.6664 L21.5035451,6.6664 L20.8776173,8.5336 L7.43179061,8.5336 C6.7673935,8.5336 6.14467148,9.0704 6.03888087,9.7336 C5.9338917,10.396 6.38750903,10.9336 7.05110469,10.9336 L20.0745704,10.9336 L19.449444,12.8 L13.9675668,12.8 C13.3039711,12.8 12.6812491,13.3376 12.5754585,14 C12.4704693,14.6624 12.9232852,15.2 13.5868809,15.2 L18.6463971,15.2 L18.0212708,17.0664 L9.2839278,17.0664 C8.62033213,17.0664 7.99600722,17.604 7.89181949,18.2664 C7.78602888,18.9296 8.23964621,19.4664 8.90244043,19.4664 L17.2182238,19.4664 L16.592296,21.3336 L10.2095957,21.3336 C9.54519856,21.3336 8.92247653,21.8704 8.81668592,22.5336 C8.71169675,23.196 9.16451264,23.7336 9.82890975,23.7336 L15.7900505,23.7336 L15.1641227,25.6 L7.12884477,25.6 C6.46444765,25.6 5.84092419,26.1376 5.73593502,26.8 C5.6301444,27.4624 6.08376173,28 6.7473574,28 L17.967574,28 L25.788065,28 C29.2446931,28 32.0160866,27.6952 34.2416968,26.2112 C36.465704,24.7264 37.8874657,22.6112 38.5061805,19.8632 C38.8243538,18.432 38.7554296,17.204 38.2970036,16.1816 C37.8401805,15.1592 37.088426,14.4528 36.0417401,14.0624 C39.3308664,12.8128 41.3112347,10.6904 41.9820433,7.6952 C42.5230181,5.2736 42.0197112,3.392 40.4713213,2.0512 C38.9229314,0.7096 36.3631191,0.0328 32.791083,0.02 L29.7992924,0.0136 C29.7423899,0.0048 29.6838845,0 29.6237762,0 L18.4027581,0 Z M26.4917329,12.1624 L28.6876895,5.6 L32.2452996,5.6192 C34.7738556,5.6328 35.7123466,6.7072 35.0599711,8.8416 C34.3651191,11.004 32.5578628,12.1168 29.6390036,12.1816 L26.4917329,12.1624 Z M23.0711697,23.616 L25.3464693,16.8 L30.2745487,16.8192 C32.2925848,16.9232 32.9465632,18.0632 32.2364838,20.2376 C31.9167076,21.2664 31.2899783,22.0896 30.3570975,22.708 C29.4242166,23.3272 28.3318484,23.636 27.0791913,23.636 L23.0711697,23.616 Z M13.1284549,5.4664 C13.0226643,6.1296 13.4754801,6.6664 14.1398773,6.6664 C14.8034729,6.6664 15.4269964,6.1296 15.5319856,5.4664 C15.6377762,4.804 15.1849603,4.2664 14.5205632,4.2664 C13.8569675,4.2664 13.233444,4.804 13.1284549,5.4664 Z M1.23101805,9.7336 C1.12602888,10.396 1.57884477,10.9336 2.24244043,10.9336 C2.90683755,10.9336 3.52955957,10.396 3.63535018,9.7336 C3.74033935,9.0704 3.28752347,8.5336 2.62312635,8.5336 C1.95953069,8.5336 1.33600722,9.0704 1.23101805,9.7336 Z M8.56823827,14 C8.46244765,14.6624 8.91606498,15.2 9.58046209,15.2 C10.2440578,15.2 10.8675812,14.6624 10.9725704,14 C11.0775596,13.3376 10.6247437,12.8 9.96034657,12.8 C9.2967509,12.8 8.67322744,13.3376 8.56823827,14 Z M2.19435379,21.3336 C1.53075812,21.3336 0.908036101,21.8704 0.802245487,22.5336 C0.697256318,23.196 1.1500722,23.7336 1.81446931,23.7336 L5.02024549,23.7336 C5.6846426,23.7336 6.30736462,23.196 6.41315523,22.5336 C6.5181444,21.8704 6.06532852,21.3336 5.40093141,21.3336 L2.19435379,21.3336 Z"/>
    <linearGradient id="h" x1="97.124%" x2="-.563%" y1="50%" y2="50%">
      <stop stop-color="#FDA023" offset="0%"/>
      <stop stop-color="#D51714" offset="100%"/>
    </linearGradient>
    <path id="j" d="M6.91966787,0 L30.0477401,0 L28.2885704,5.2928 L19.9920217,5.2928 L12.3783032,28 L5.66701083,28 L2.74013718,28 C2.07654152,28 1.62372563,27.4624 1.7287148,26.8 C1.83290253,26.1376 2.45722744,25.6 3.1208231,25.6 L6.47406498,25.6 L7.27951625,23.2 L5.9066426,23.2 C5.24304693,23.2 4.7894296,22.6624 4.89441877,22 C4.99940794,21.3376 5.62293141,20.8 6.28652708,20.8 L8.0865704,20.8 L8.62594224,19.2 L1.73192058,19.2 C1.06752347,19.2 0.615509025,18.6624 0.720498195,18 C0.825487365,17.3368 1.44981227,16.8 2.11340794,16.8 L9.4313935,16.8 L9.9699639,15.2 L9.57966065,15.2 C8.91526354,15.2 8.4632491,14.6624 8.56823827,14 C8.67322744,13.3376 9.2967509,12.8 9.96034657,12.8 L10.7770181,12.8 L11.5832708,10.4 L7.93750181,10.4 C7.27310469,10.4 6.82028881,9.8624 6.92527798,9.2 C7.03026715,8.5376 7.65379061,8 8.31738628,8 L12.3903249,8 L13.2999639,5.2928 L5.14126354,5.2928 L6.91966787,0 Z M2.91805776,9.2 C3.02304693,8.5376 3.64737184,8 4.31096751,8 C4.97536462,8 5.42737906,8.5376 5.32238989,9.2 C5.21740072,9.8624 4.59387726,10.4 3.93028159,10.4 C3.26588448,10.4 2.81306859,9.8624 2.91805776,9.2 Z M4.56101805,14 C4.66600722,13.3376 5.28953069,12.8 5.95312635,12.8 C6.61672202,12.8 7.07033935,13.3376 6.96535018,14 C6.86036101,14.6624 6.23683755,15.2 5.57324188,15.2 C4.90884477,15.2 4.45602888,14.6624 4.56101805,14 Z"/>
    <linearGradient id="k" x1="54.902%" x2="26.676%" y1="75.783%" y2="367.521%">
      <stop stop-color="#FDA023" offset="0%"/>
      <stop stop-color="#D51714" offset="100%"/>
    </linearGradient>
    <path id="m" d="M6.91966787,0 L5.14126354,5.2928 L13.2999639,5.2928 L12.3903249,8 L8.31738628,8 C7.65379061,8 7.03026715,8.5376 6.92527798,9.2 C6.82028881,9.8624 7.27310469,10.4 7.93750181,10.4 L11.5832708,10.4 L10.7770181,12.8 L9.96034657,12.8 C9.2967509,12.8 8.67322744,13.3376 8.56823827,14 C8.4632491,14.6624 8.91526354,15.2 9.57966065,15.2 L9.9699639,15.2 L9.4313935,16.8 L2.11340794,16.8 C1.44981227,16.8 0.825487365,17.3368 0.720498195,18 C0.615509025,18.6624 1.06752347,19.2 1.73192058,19.2 L8.62594224,19.2 L8.0865704,20.8 L6.28652708,20.8 C5.62293141,20.8 4.99940794,21.3376 4.89441877,22 C4.7894296,22.6624 5.24304693,23.2 5.9066426,23.2 L7.27951625,23.2 L6.47406498,25.6 L3.1208231,25.6 C2.45722744,25.6 1.83290253,26.1376 1.7287148,26.8 C1.62372563,27.4624 2.07654152,28 2.74013718,28 L5.66701083,28 L12.3783032,28 L19.9920217,5.2928 L28.2885704,5.2928 L30.0477401,0 L6.91966787,0 Z M2.91805776,9.2 C2.81306859,9.8624 3.26588448,10.4 3.93028159,10.4 C4.59387726,10.4 5.21740072,9.8624 5.32238989,9.2 C5.42737906,8.5376 4.97536462,8 4.31096751,8 C3.64737184,8 3.02304693,8.5376 2.91805776,9.2 Z M4.56101805,14 C4.45602888,14.6624 4.90884477,15.2 5.57324188,15.2 C6.23683755,15.2 6.86036101,14.6624 6.96535018,14 C7.07033935,13.3376 6.61672202,12.8 5.95312635,12.8 C5.28953069,12.8 4.66600722,13.3376 4.56101805,14 Z"/>
    <linearGradient id="n" x1="92.43%" x2="2.215%" y1="50%" y2="50%">
      <stop stop-color="#FDA023" offset="0%"/>
      <stop stop-color="#D51714" offset="100%"/>
    </linearGradient>
  </defs>
  <g fill="none" fill-rule="evenodd" filter="url(#a)" transform="translate(3 2)">
    <g transform="translate(41.675)">
      <mask id="c" fill="white">
        <use xlink:href="#b"/>
      </mask>
      <polygon fill="#FFFFFF" points="-7.213 42.401 176.848 42.401 184.211 -4 .15 -4" mask="url(#c)"/>
    </g>
    <g transform="translate(0 1.6)">
      <mask id="f" fill="white">
        <use xlink:href="#d"/>
      </mask>
      <polygon fill="url(#e)" points="-65.243 -212.8 350.706 -212.8 306.152 68 -109.798 68" mask="url(#f)"/>
    </g>
    <g transform="translate(0 1.6)">
      <mask id="i" fill="white">
        <use xlink:href="#g"/>
      </mask>
      <path fill="url(#h)" d="M18.4027581,0 C17.7391625,0 17.1164404,0.5376 17.0106498,1.2 C16.9056606,1.8624 17.3584765,2.4 18.0220722,2.4 L22.9317184,2.4 L22.3057906,4.2664 L19.3292274,4.2664 C18.6656318,4.2664 18.0413069,4.804 17.9363177,5.4664 C17.8313285,6.1296 18.2849458,6.6664 18.9485415,6.6664 L21.5035451,6.6664 L20.8776173,8.5336 L7.43179061,8.5336 C6.7673935,8.5336 6.14467148,9.0704 6.03888087,9.7336 C5.9338917,10.396 6.38750903,10.9336 7.05110469,10.9336 L20.0745704,10.9336 L19.449444,12.8 L13.9675668,12.8 C13.3039711,12.8 12.6812491,13.3376 12.5754585,14 C12.4704693,14.6624 12.9232852,15.2 13.5868809,15.2 L18.6463971,15.2 L18.0212708,17.0664 L9.2839278,17.0664 C8.62033213,17.0664 7.99600722,17.604 7.89181949,18.2664 C7.78602888,18.9296 8.23964621,19.4664 8.90244043,19.4664 L17.2182238,19.4664 L16.592296,21.3336 L10.2095957,21.3336 C9.54519856,21.3336 8.92247653,21.8704 8.81668592,22.5336 C8.71169675,23.196 9.16451264,23.7336 9.82890975,23.7336 L15.7900505,23.7336 L15.1641227,25.6 L7.12884477,25.6 C6.46444765,25.6 5.84092419,26.1376 5.73593502,26.8 C5.6301444,27.4624 6.08376173,28 6.7473574,28 L17.967574,28 L25.788065,28 C29.2446931,28 32.0160866,27.6952 34.2416968,26.2112 C36.465704,24.7264 37.8874657,22.6112 38.5061805,19.8632 C38.8243538,18.432 38.7554296,17.204 38.2970036,16.1816 C37.8401805,15.1592 37.088426,14.4528 36.0417401,14.0624 C39.3308664,12.8128 41.3112347,10.6904 41.9820433,7.6952 C42.5230181,5.2736 42.0197112,3.392 40.4713213,2.0512 C38.9229314,0.7096 36.3631191,0.0328 32.791083,0.02 L29.7992924,0.0136 C29.7423899,0.0048 29.6838845,0 29.6237762,0 L18.4027581,0 Z M26.4917329,12.1624 L28.6876895,5.6 L32.2452996,5.6192 C34.7738556,5.6328 35.7123466,6.7072 35.0599711,8.8416 C34.3651191,11.004 32.5578628,12.1168 29.6390036,12.1816 L26.4917329,12.1624 Z M23.0711697,23.616 L25.3464693,16.8 L30.2745487,16.8192 C32.2925848,16.9232 32.9465632,18.0632 32.2364838,20.2376 C31.9167076,21.2664 31.2899783,22.0896 30.3570975,22.708 C29.4242166,23.3272 28.3318484,23.636 27.0791913,23.636 L23.0711697,23.616 Z M13.1284549,5.4664 C13.0226643,6.1296 13.4754801,6.6664 14.1398773,6.6664 C14.8034729,6.6664 15.4269964,6.1296 15.5319856,5.4664 C15.6377762,4.804 15.1849603,4.2664 14.5205632,4.2664 C13.8569675,4.2664 13.233444,4.804 13.1284549,5.4664 Z M1.23101805,9.7336 C1.12602888,10.396 1.57884477,10.9336 2.24244043,10.9336 C2.90683755,10.9336 3.52955957,10.396 3.63535018,9.7336 C3.74033935,9.0704 3.28752347,8.5336 2.62312635,8.5336 C1.95953069,8.5336 1.33600722,9.0704 1.23101805,9.7336 Z M8.56823827,14 C8.46244765,14.6624 8.91606498,15.2 9.58046209,15.2 C10.2440578,15.2 10.8675812,14.6624 10.9725704,14 C11.0775596,13.3376 10.6247437,12.8 9.96034657,12.8 C9.2967509,12.8 8.67322744,13.3376 8.56823827,14 Z M2.19435379,21.3336 C1.53075812,21.3336 0.908036101,21.8704 0.802245487,22.5336 C0.697256318,23.196 1.1500722,23.7336 1.81446931,23.7336 L5.02024549,23.7336 C5.6846426,23.7336 6.30736462,23.196 6.41315523,22.5336 C6.5181444,21.8704 6.06532852,21.3336 5.40093141,21.3336 L2.19435379,21.3336 Z" mask="url(#i)"/>
    </g>
    <g transform="translate(139.451 1.6)">
      <mask id="l" fill="white">
        <use xlink:href="#j"/>
      </mask>
      <polygon fill="url(#k)" points="-204.694 -212.8 211.255 -212.8 166.7 68 -249.249 68" mask="url(#l)"/>
    </g>
    <g transform="translate(139.451 1.6)">
      <mask id="o" fill="white">
        <use xlink:href="#m"/>
      </mask>
      <path fill="url(#n)" d="M6.91966787,0 L5.14126354,5.2928 L13.2999639,5.2928 L12.3903249,8 L8.31738628,8 C7.65379061,8 7.03026715,8.5376 6.92527798,9.2 C6.82028881,9.8624 7.27310469,10.4 7.93750181,10.4 L11.5832708,10.4 L10.7770181,12.8 L9.96034657,12.8 C9.2967509,12.8 8.67322744,13.3376 8.56823827,14 C8.4632491,14.6624 8.91526354,15.2 9.57966065,15.2 L9.9699639,15.2 L9.4313935,16.8 L2.11340794,16.8 C1.44981227,16.8 0.825487365,17.3368 0.720498195,18 C0.615509025,18.6624 1.06752347,19.2 1.73192058,19.2 L8.62594224,19.2 L8.0865704,20.8 L6.28652708,20.8 C5.62293141,20.8 4.99940794,21.3376 4.89441877,22 C4.7894296,22.6624 5.24304693,23.2 5.9066426,23.2 L7.27951625,23.2 L6.47406498,25.6 L3.1208231,25.6 C2.45722744,25.6 1.83290253,26.1376 1.7287148,26.8 C1.62372563,27.4624 2.07654152,28 2.74013718,28 L5.66701083,28 L12.3783032,28 L19.9920217,5.2928 L28.2885704,5.2928 L30.0477401,0 L6.91966787,0 Z M2.91805776,9.2 C2.81306859,9.8624 3.26588448,10.4 3.93028159,10.4 C4.59387726,10.4 5.21740072,9.8624 5.32238989,9.2 C5.42737906,8.5376 4.97536462,8 4.31096751,8 C3.64737184,8 3.02304693,8.5376 2.91805776,9.2 Z M4.56101805,14 C4.45602888,14.6624 4.90884477,15.2 5.57324188,15.2 C6.23683755,15.2 6.86036101,14.6624 6.96535018,14 C7.07033935,13.3376 6.61672202,12.8 5.95312635,12.8 C5.28953069,12.8 4.66600722,13.3376 4.56101805,14 Z" mask="url(#o)"/>
    </g>
    <path fill="#FFFFFF" d="M85.7044224,37.8875 L86.318028,34.65 L87.2540896,34.65 L86.2428926,39.2 L85.2974391,39.2 L84.5554772,36.15625 L83.8135153,39.2 L82.8680618,39.2 L81.8568648,34.65 L82.7929264,34.65 L83.4096627,37.88125 L84.1610165,34.65 L84.9561992,34.65 L85.7044224,37.8875 Z M90.9124173,38.2625 L89.2657002,38.2625 L88.9526361,39.2 L87.9539617,39.2 L89.650769,34.65 L90.5210872,34.65 L92.2272864,39.2 L91.228612,39.2 L90.9124173,38.2625 Z M89.5192821,37.503125 L90.6588354,37.503125 L90.0859281,35.8 L89.5192821,37.503125 Z M97.072127,39.2 L96.1329347,39.2 L94.3046405,36.20625 L94.3046405,39.2 L93.3654483,39.2 L93.3654483,34.65 L94.3046405,34.65 L96.1360654,37.65 L96.1360654,34.65 L97.072127,34.65 L97.072127,39.2 Z M98.6047496,39.2 L98.6047496,34.65 L100.007277,34.65 C100.408001,34.65 100.766455,34.7401033 101.082652,34.9203125 C101.398848,35.1005217 101.645644,35.3567692 101.823048,35.6890625 C102.000452,36.0213558 102.089153,36.3989562 102.089153,36.821875 L102.089153,37.03125 C102.089153,37.4541688 102.002017,37.8302067 101.827744,38.159375 C101.653471,38.4885433 101.407718,38.7437491 101.090478,38.925 C100.773239,39.1062509 100.415305,39.1979167 100.016669,39.2 L98.6047496,39.2 Z M99.5439418,35.409375 L99.5439418,38.446875 L99.9978847,38.446875 C100.365215,38.446875 100.645926,38.3270845 100.840027,38.0875 C101.034128,37.8479155 101.133264,37.5052106 101.137438,37.059375 L101.137438,36.81875 C101.137438,36.3562477 101.041433,36.0057304 100.849419,35.7671875 C100.657405,35.5286446 100.376694,35.409375 100.007277,35.409375 L99.5439418,35.409375 Z M106.226469,37.228125 L104.423219,37.228125 L104.423219,38.446875 L106.539533,38.446875 L106.539533,39.2 L103.484027,39.2 L103.484027,34.65 L106.533271,34.65 L106.533271,35.409375 L104.423219,35.409375 L104.423219,36.49375 L106.226469,36.49375 L106.226469,37.228125 Z M108.742112,38.446875 L110.736331,38.446875 L110.736331,39.2 L107.80292,39.2 L107.80292,34.65 L108.742112,34.65 L108.742112,38.446875 Z M113.687133,37.615625 L111.924583,37.615625 L111.924583,36.8875 L113.687133,36.8875 L113.687133,37.615625 Z M120.236782,37.228125 L118.433533,37.228125 L118.433533,38.446875 L120.549846,38.446875 L120.549846,39.2 L117.49434,39.2 L117.49434,34.65 L120.543585,34.65 L120.543585,35.409375 L118.433533,35.409375 L118.433533,36.49375 L120.236782,36.49375 L120.236782,37.228125 Z M125.519912,39.2 L124.58072,39.2 L122.752426,36.20625 L122.752426,39.2 L121.813233,39.2 L121.813233,34.65 L122.752426,34.65 L124.58385,37.65 L124.58385,34.65 L125.519912,34.65 L125.519912,39.2 Z M133.071366,39.2 L132.132173,39.2 L132.132173,37.25 L130.300748,37.25 L130.300748,39.2 L129.361556,39.2 L129.361556,34.65 L130.300748,34.65 L130.300748,36.49375 L132.132173,36.49375 L132.132173,34.65 L133.071366,34.65 L133.071366,39.2 Z M137.233726,38.2625 L135.587009,38.2625 L135.273945,39.2 L134.275271,39.2 L135.972078,34.65 L136.842396,34.65 L138.548596,39.2 L137.549921,39.2 L137.233726,38.2625 Z M135.840591,37.503125 L136.980144,37.503125 L136.407237,35.8 L135.840591,37.503125 Z M141.374173,37.534375 L140.62595,37.534375 L140.62595,39.2 L139.686757,39.2 L139.686757,34.65 L141.380434,34.65 C141.918907,34.65 142.334234,34.7697905 142.626429,35.009375 C142.918624,35.2489595 143.064719,35.5874978 143.064719,36.025 C143.064719,36.3354182 142.997411,36.5942698 142.862792,36.8015625 C142.728174,37.0088552 142.524163,37.1739577 142.250752,37.296875 L143.236904,39.15625 L143.236904,39.2 L142.228838,39.2 L141.374173,37.534375 Z M140.62595,36.775 L141.383565,36.775 C141.619407,36.775 141.802026,36.7151048 141.931427,36.5953125 C142.060827,36.4755202 142.125527,36.3104177 142.125527,36.1 C142.125527,35.8854156 142.06448,35.7166673 141.942384,35.59375 C141.820288,35.4708327 141.632974,35.409375 141.380434,35.409375 L140.62595,35.409375 L140.62595,36.775 Z M144.4909,39.2 L144.4909,34.65 L145.893427,34.65 C146.294151,34.65 146.652605,34.7401033 146.968802,34.9203125 C147.284998,35.1005217 147.531794,35.3567692 147.709198,35.6890625 C147.886602,36.0213558 147.975303,36.3989562 147.975303,36.821875 L147.975303,37.03125 C147.975303,37.4541688 147.888167,37.8302067 147.713894,38.159375 C147.539621,38.4885433 147.293868,38.7437491 146.976628,38.925 C146.659389,39.1062509 146.301456,39.1979167 145.902819,39.2 L144.4909,39.2 Z M145.430092,35.409375 L145.430092,38.446875 L145.884035,38.446875 C146.251365,38.446875 146.532076,38.3270845 146.726177,38.0875 C146.920278,37.8479155 147.019414,37.5052106 147.023588,37.059375 L147.023588,36.81875 C147.023588,36.3562477 146.927583,36.0057304 146.735569,35.7671875 C146.543555,35.5286446 146.262844,35.409375 145.893427,35.409375 L145.430092,35.409375 Z M150.309369,38.446875 L152.303588,38.446875 L152.303588,39.2 L149.370177,39.2 L149.370177,34.65 L150.309369,34.65 L150.309369,38.446875 Z M157.098338,37.028125 C157.098338,37.4760439 157.019029,37.8687483 156.860409,38.20625 C156.701789,38.5437517 156.47482,38.8041657 156.179495,38.9875 C155.88417,39.1708343 155.545542,39.2625 155.163602,39.2625 C154.785836,39.2625 154.448774,39.1718759 154.152405,38.990625 C153.856036,38.8093741 153.626458,38.5505225 153.463664,38.2140625 C153.30087,37.8776025 153.21843,37.4906272 153.216343,37.053125 L153.216343,36.828125 C153.216343,36.3802061 153.297217,35.9859392 153.458968,35.6453125 C153.620719,35.3046858 153.849253,35.0432301 154.144578,34.8609375 C154.439904,34.6786449 154.777488,34.5875 155.157341,34.5875 C155.537194,34.5875 155.874778,34.6786449 156.170103,34.8609375 C156.465428,35.0432301 156.693963,35.3046858 156.855713,35.6453125 C157.017464,35.9859392 157.098338,36.3791644 157.098338,36.825 L157.098338,37.028125 Z M156.146623,36.821875 C156.146623,36.3447893 156.061053,35.9822929 155.889911,35.734375 C155.718768,35.4864571 155.47458,35.3625 155.157341,35.3625 C154.842188,35.3625 154.599044,35.4848946 154.427901,35.7296875 C154.256759,35.9744804 154.170145,36.333331 154.168058,36.80625 L154.168058,37.028125 C154.168058,37.4927107 154.253628,37.8531237 154.424771,38.109375 C154.595913,38.3656263 154.842188,38.49375 155.163602,38.49375 C155.478755,38.49375 155.720855,38.3703137 155.889911,38.1234375 C156.058966,37.8765613 156.144536,37.516669 156.146623,37.04375 L156.146623,36.821875 Z M162.237459,37.028125 C162.237459,37.4760439 162.15815,37.8687483 161.99953,38.20625 C161.84091,38.5437517 161.613941,38.8041657 161.318616,38.9875 C161.02329,39.1708343 160.684663,39.2625 160.302723,39.2625 C159.924957,39.2625 159.587895,39.1718759 159.291526,38.990625 C158.995157,38.8093741 158.765579,38.5505225 158.602785,38.2140625 C158.439991,37.8776025 158.357551,37.4906272 158.355464,37.053125 L158.355464,36.828125 C158.355464,36.3802061 158.436338,35.9859392 158.598089,35.6453125 C158.759839,35.3046858 158.988374,35.0432301 159.283699,34.8609375 C159.579024,34.6786449 159.916608,34.5875 160.296461,34.5875 C160.676314,34.5875 161.013898,34.6786449 161.309224,34.8609375 C161.604549,35.0432301 161.833083,35.3046858 161.994834,35.6453125 C162.156585,35.9859392 162.237459,36.3791644 162.237459,36.825 L162.237459,37.028125 Z M161.285744,36.821875 C161.285744,36.3447893 161.200174,35.9822929 161.029031,35.734375 C160.857889,35.4864571 160.613701,35.3625 160.296461,35.3625 C159.981309,35.3625 159.738165,35.4848946 159.567022,35.7296875 C159.39588,35.9744804 159.309266,36.333331 159.307179,36.80625 L159.307179,37.028125 C159.307179,37.4927107 159.392749,37.8531237 159.563891,38.109375 C159.735034,38.3656263 159.981309,38.49375 160.302723,38.49375 C160.617875,38.49375 160.859976,38.3703137 161.029031,38.1234375 C161.198087,37.8765613 161.283657,37.516669 161.285744,37.04375 L161.285744,36.821875 Z M164.571525,37.596875 L164.571525,39.2 L163.632333,39.2 L163.632333,34.65 L165.410537,34.65 C165.752822,34.65 166.053882,34.7124994 166.313727,34.8375 C166.573571,34.9625006 166.773409,35.140103 166.913245,35.3703125 C167.053081,35.600522 167.122998,35.8624985 167.122998,36.15625 C167.122998,36.6020856 166.97012,36.9536445 166.664359,37.2109375 C166.358598,37.4682305 165.935444,37.596875 165.394884,37.596875 L164.571525,37.596875 Z M164.571525,36.8375 L165.410537,36.8375 C165.658903,36.8375 165.848304,36.7791673 165.978748,36.6625 C166.109192,36.5458328 166.174413,36.3791678 166.174413,36.1625 C166.174413,35.9395822 166.108671,35.7593757 165.977183,35.621875 C165.845696,35.4843743 165.66412,35.4135417 165.432452,35.409375 L164.571525,35.409375 L164.571525,36.8375 Z M171.222746,37.228125 L169.419497,37.228125 L169.419497,38.446875 L171.53581,38.446875 L171.53581,39.2 L168.480304,39.2 L168.480304,34.65 L171.529548,34.65 L171.529548,35.409375 L169.419497,35.409375 L169.419497,36.49375 L171.222746,36.49375 L171.222746,37.228125 Z M174.483482,38.071875 L175.516593,34.65 L176.562227,34.65 L174.974993,39.2 L173.995102,39.2 L172.414128,34.65 L173.456632,34.65 L174.483482,38.071875 Z M180.445961,37.228125 L178.642712,37.228125 L178.642712,38.446875 L180.759025,38.446875 L180.759025,39.2 L177.70352,39.2 L177.70352,34.65 L180.752764,34.65 L180.752764,35.409375 L178.642712,35.409375 L178.642712,36.49375 L180.445961,36.49375 L180.445961,37.228125 Z M185.729092,39.2 L184.789899,39.2 L182.961605,36.20625 L182.961605,39.2 L182.022413,39.2 L182.022413,34.65 L182.961605,34.65 L184.79303,37.65 L184.79303,34.65 L185.729092,34.65 L185.729092,39.2 Z M190.004156,37.228125 L188.200906,37.228125 L188.200906,38.446875 L190.31722,38.446875 L190.31722,39.2 L187.261714,39.2 L187.261714,34.65 L190.310958,34.65 L190.310958,35.409375 L188.200906,35.409375 L188.200906,36.49375 L190.004156,36.49375 L190.004156,37.228125 Z M192.807818,34.65 L193.978678,37.95 L195.143276,34.65 L196.376749,34.65 L196.376749,39.2 L195.434426,39.2 L195.434426,37.95625 L195.528345,35.809375 L194.298003,39.2 L193.653091,39.2 L192.42588,35.8125 L192.519799,37.95625 L192.519799,39.2 L191.580607,39.2 L191.580607,34.65 L192.807818,34.65 Z M200.651813,37.228125 L198.848564,37.228125 L198.848564,38.446875 L200.964877,38.446875 L200.964877,39.2 L197.909371,39.2 L197.909371,34.65 L200.958616,34.65 L200.958616,35.409375 L198.848564,35.409375 L198.848564,36.49375 L200.651813,36.49375 L200.651813,37.228125 Z M205.934943,39.2 L204.995751,39.2 L203.167457,36.20625 L203.167457,39.2 L202.228264,39.2 L202.228264,34.65 L203.167457,34.65 L204.998881,37.65 L204.998881,34.65 L205.934943,34.65 L205.934943,39.2 Z M210.807959,35.409375 L209.411694,35.409375 L209.411694,39.2 L208.472501,39.2 L208.472501,35.409375 L207.095019,35.409375 L207.095019,34.65 L210.807959,34.65 L210.807959,35.409375 Z"/>
  </g>
</svg>
