<svg xmlns="http://www.w3.org/2000/svg" width="65" height="80" viewBox="0 0 65 80">
  <g fill="none" fill-rule="evenodd">
    <path fill="#333333" d="M13.0270892,69.4949495 L10.5050505,69.4949495 L10.5050505,79.9521831 L18.5171369,79.9521831 L18.5171369,77.6146839 L13.0270892,77.6146839 L13.0270892,69.4949495 Z M21.3416152,69.4949495 L21.3416152,79.9521831 L29.3537016,79.9521831 L29.3537016,77.6146839 L23.8636539,77.6146839 L23.8636539,75.8154245 L28.4463827,75.8154245 L28.4463827,73.6317081 L23.8636539,73.6317081 L23.8636539,71.8324488 L29.3537016,71.8324488 L29.3537016,69.4949495 L21.3416152,69.4949495 Z M40.8976673,79.9521831 L40.2210228,78.322085 L35.1769454,78.322085 L34.4849226,79.9521831 L31.809101,79.9521831 L36.2841819,69.4949495 L39.098408,69.4949495 L43.5888672,79.9521831 L40.8976673,79.9521831 Z M36.0535076,76.2613948 L39.3444606,76.2613948 L37.7143624,72.3553105 L36.0535076,76.2613948 Z M54.3331621,69.4949495 L46.3210758,69.4949495 L46.3210758,79.9521831 L48.8431145,79.9521831 L48.8431145,76.5535822 L53.4258433,76.5535822 L53.4258433,74.2314612 L48.8431145,74.2314612 L48.8431145,71.8324488 L54.3331621,71.8324488 L54.3331621,69.4949495 Z"/>
    <path fill="#5C6D4B" d="M33.6781812,23.8126005 C33.2845713,20.8948808 31.3420572,17.6987381 27.850639,14.2241726 C29.8566203,18.2396414 30.647995,21.9708492 30.2247631,25.417796 C30.1318627,26.1744088 29.9235408,26.8955702 29.6455812,27.5766831 C29.1088747,27.5762246 28.5623222,27.5405855 28.0090753,27.4726553 C22.4901781,26.7950199 18.3950152,23.1607124 19.4530948,14.5433453 C20.1584813,8.7984339 24.128038,4.00638189 31.361765,0.167189283 C37.4518346,5.64233842 40.1441763,11.2523687 39.4387898,16.9972801 C39.2948906,18.1692449 39.0808051,19.2287216 38.8044029,20.1829257 C36.9344413,21.2741796 35.2250369,22.4839402 33.6781812,23.8126005 L33.6781812,23.8126005 Z"/>
    <path fill="#77911C" d="M23.2235951,51.2406067 C19.9244374,49.0781837 15.2280653,47.6841919 9.13447864,47.0586313 C15.3709387,49.894832 19.8936242,53.5605309 22.7025352,58.0557282 C23.3036402,59.0176973 23.7422477,60.0450748 24.0645905,61.092056 C17.5469124,63.8836965 10.3837287,62.3684154 4.23673339,52.5311666 C-0.444784974,45.0391711 -0.339180823,35.5420575 4.55354584,24.0398258 C14.4900963,24.5530069 21.9550313,27.2355156 26.948351,32.0873517 C26.645535,32.6416874 26.3592852,33.2079511 26.0896643,33.786155 C23.0223992,40.3639262 22.1356494,46.2504224 23.2235951,51.2406067 L23.2235951,51.2406067 Z"/>
    <path fill="#83AB27" d="M33.9105945,60.6142589 C26.5370334,56.0381386 23.075459,47.8868061 29.0191804,35.1404545 C33.4148586,25.7138921 42.8600004,19.7283938 57.354606,17.1839594 C64.7224089,29.9230023 66.2084713,41.0058049 61.8127931,50.4323673 C56.0411158,62.8097692 47.8879144,65.6082497 39.8710631,63.2812125 C40.0975181,62.0115011 40.4626482,60.748016 41.0270515,59.5376494 C43.6644584,53.881712 48.4235325,48.9491993 55.3042738,44.7401115 C44.6257248,47.1782525 37.9677469,51.2252918 35.33034,56.8812292 C34.7505351,58.1246247 34.2781261,59.3760935 33.9105945,60.6142589 L33.9105945,60.6142589 Z"/>
  </g>
</svg>
