<svg xmlns="http://www.w3.org/2000/svg" width="169" height="30" viewBox="0 0 169 30">
  <g fill="#FFFFFF" fill-rule="evenodd">
    <path d="M36.7466667,11.06 C35.8133333,9.92733333 32.134,5.45866667 32.134,5.45866667 L32.134,0.904666667 C32.0513333,0.902666667 31.972,0.894 31.8893333,0.894 C30.226,0.894 28.664,1.23333333 27.27,1.84533333 L27.27,6.21066667 C27.7226667,6.75933333 31.2873333,11.088 31.2873333,11.088 C31.2873333,11.088 27.7266667,15.36 27.2693333,15.908 C27.2686667,16.1513333 27.2666667,17.9253333 27.2633333,20.2693333 C28.6573333,20.884 30.2226667,21.2253333 31.8893333,21.2253333 C31.9693333,21.2253333 32.0466667,21.216 32.1266667,21.214 L32.134,16.596 C32.134,16.596 35.8093333,12.1853333 36.7466667,11.06"/>
    <path d="M28.3013333 11.0786667C27.4566667 10.0533333 24.9713333 7.03466667 24.9713333 7.03466667L24.9713333 3.23666667C22.7586667 5.02533333 21.3606667 7.738 21.3606667 11.058 21.3606667 14.3766667 22.7553333 17.0893333 24.9646667 18.8773333L24.9713333 15.0746667C24.9713333 15.0746667 27.4533333 12.0973333 28.3013333 11.0786667M42.418 11.058C42.418 5.88466667 39.0366667 2.17666667 34.4326667 1.17466667L34.4326667 4.63466667C34.9033333 5.206 39.7333333 11.0693333 39.7333333 11.0693333 39.7333333 11.0693333 34.9086667 16.858 34.4326667 17.4293333 34.4326667 17.6106667 34.43 18.9666667 34.4273333 20.9466667 39.0326667 19.946 42.418 16.236 42.418 11.058M15.1013333 7.086C13.9373333 5.878 12.648 5.088 11.3153333 5.088 7.65333333 5.088 5.44666667 7.95866667 5.44666667 11.08 5.44666667 14.2026667 7.65333333 17.074 11.3153333 17.074 12.8553333 17.074 14.2693333 16.4066667 15.1853333 15.2L18.514 18.7806667C16.4766667 20.8193333 13.064 21.568 11.3153333 21.568 5.28133333 21.568.453333333 17.364.453333333 11.08.453333333 4.798 5.28133333.594 11.3153333.594 13.8533333.594 16.6413333 1.50933333 18.5566667 3.632L15.1013333 7.086M45.548 1.39866667L50.1466667 1.39866667 50.1466667 4.42466667 50.2273333 4.42466667C51.0746667 2.608 52.9306667.916 56.1573333.916 59.1426667.916 61.2013333 2.08533333 62.2086667 4.50533333 63.6206667 2.044 65.6786667.916 68.5826667.916 73.746.916 75.562 4.58533333 75.562 9.224L75.562 20.7633333 70.7206667 20.7633333 70.7206667 9.79066667C70.7206667 7.368 69.9946667 5.272 67.1306667 5.272 64.1046667 5.272 62.976 7.77266667 62.976 10.2733333L62.976 20.7633333 58.1346667 20.7633333 58.1346667 9.224C58.1346667 6.846 57.1666667 5.272 54.826 5.272 51.6393333 5.272 50.3893333 7.61133333 50.3893333 10.1926667L50.3893333 20.7633333 45.548 20.7633333 45.548 1.39866667M91.2133333 5.272C87.664 5.272 85.526 8.05466667 85.526 11.08 85.526 14.1073333 87.664 16.89 91.2133333 16.89 94.764 16.89 96.9026667 14.1073333 96.9026667 11.08 96.9026667 8.05466667 94.764 5.272 91.2133333 5.272M80.8466667 1.39866667L85.4453333 1.39866667 85.4453333 4.304 85.526 4.304C86.9386667 1.96266667 89.4793333.916 92.182.916 98.1526667.916 101.744 5.35266667 101.744 11.08 101.744 16.8086667 97.9106667 21.246 92.384 21.246 88.7526667 21.246 86.8173333 19.5526667 85.808 18.302L85.6866667 18.302 85.6866667 29.9606667 80.8466667 29.9606667 80.8466667 1.39866667M118.080667 12.09L117.071333 12.09C114.409333 12.09 109.811333 12.2906667 109.811333 15.0746667 109.811333 16.8506667 111.625333 17.616 113.2 17.616 116.507333 17.616 118.080667 15.8813333 118.080667 13.178L118.080667 12.09 118.080667 12.09zM118.362667 18.1013333L118.241333 18.1013333C116.869333 20.278 114.610667 21.246 112.029333 21.246 108.438 21.246 104.969333 19.27 104.969333 15.438 104.969333 9.14333333 112.312 8.69933333 117.152667 8.69933333L118.362667 8.69933333 118.362667 8.17666667C118.362667 5.79666667 116.507333 4.546 113.925333 4.546 111.908667 4.546 110.052 5.35266667 108.762 6.562L106.22 4.022C108.356667 1.842 111.384667.916 114.449333.916 122.72.916 122.72 6.88533333 122.72 9.628L122.72 20.7633333 118.362667 20.7633333 118.362667 18.1013333 118.362667 18.1013333zM141.719333 9.14333333C141.679333 6.32133333 139.823333 4.546 136.797333 4.546 133.933333 4.546 132.159333 6.36066667 131.795333 9.14333333L141.719333 9.14333333 141.719333 9.14333333zM131.795333 12.774C132.118 15.6386667 134.296667 17.3746667 136.999333 17.3746667 139.42 17.3746667 140.993333 16.2446667 142.203333 14.7513333L145.672667 17.3746667C143.413333 20.158 140.55 21.246 137.484 21.246 131.634667 21.246 126.955333 17.172 126.955333 11.08 126.955333 4.99 131.634667.916 137.484.916 142.888667.916 146.559333 4.70666667 146.559333 11.4426667L146.559333 12.774 131.795333 12.774 131.795333 12.774zM151.079333 1.39866667L155.676667 1.39866667 155.676667 4.50533333 155.758667 4.50533333C156.646 2.56866667 158.462.916 161.688667.916 166.892667.916 168.748667 4.58533333 168.748667 8.53933333L168.748667 20.7633333 163.906667 20.7633333 163.906667 10.9593333C163.906667 8.82133333 163.746 5.272 160.357333 5.272 157.172 5.272 155.919333 7.61133333 155.919333 10.1926667L155.919333 20.7633333 151.079333 20.7633333 151.079333 1.39866667"/>
  </g>
</svg>
