<svg xmlns="http://www.w3.org/2000/svg" width="166" height="29" viewBox="0 0 166 29">
  <g fill="none" fill-rule="evenodd" transform="translate(1)">
    <rect width="8" height="22" x="71" y="4" fill="#376DDE" opacity=".25"/>
    <rect width="8" height="22" x="87" y="4" fill="#376DDE" opacity=".25"/>
    <path fill="#03082D" stroke="#03082D" stroke-width="2" d="M11.5622038,13.0381078 C10.5766585,12.8081472 9.65681618,12.7752957 8.73697386,12.7095926 C7.39006191,12.6438896 6.24025902,12.5781866 5.38611972,11.9868594 C4.46627741,11.3626807 3.74354417,10.1471748 4.07205928,8.99737188 C4.4334259,7.61760841 5.81318937,6.53350854 7.3572104,6.30354796 C9.36115258,6.00788436 11.4965008,6.56636005 12.9748188,7.74901445 C13.8289581,8.40604468 15.0773155,8.24178712 15.7343457,7.42049934 C16.391376,6.56636005 16.2271184,5.31800263 15.4058306,4.6609724 C13.0733733,2.85413929 9.85392524,2 6.83158622,2.42706965 C3.71069266,2.8869908 1.08257176,5.08804205 0.294135494,7.94612352 C-0.428597752,10.5742444 0.75405665,13.5637319 3.15221697,15.2063075 C4.92619857,16.4218134 6.83158622,16.5203679 8.5398648,16.6189225 C9.29544955,16.651774 10.0510343,16.6846255 10.7080645,16.848883 C12.3177886,17.2102497 13.4675915,18.5900131 13.3690369,20.0683311 C13.2704824,21.7437582 11.4965008,22.7293035 9.88677676,22.9592641 C7.45576493,23.3206307 4.86049555,22.4007884 3.41502905,20.7253614 C2.72514732,19.9040736 1.50964141,19.8055191 0.688353628,20.4954008 C-0.132934152,21.218134 -0.231488685,22.4336399 0.45839305,23.2549277 C2.42948372,25.587385 5.6160803,26.934297 8.8355284,26.934297 C9.36115258,26.934297 9.91962827,26.9014455 10.4452524,26.8357424 C13.566146,26.3758213 17.0484062,24.1419185 17.2783668,20.2982917 C17.4754758,16.9474376 15.0116125,13.7936925 11.5622038,13.0381078 Z M40.0773155,2.06570302 L24.8342143,2.06570302 C23.7501145,2.06570302 22.8631237,2.95269382 22.8631237,4.03679369 C22.8631237,5.15374507 23.7501145,6.04073587 24.8342143,6.04073587 L30.4518227,6.04073587 L30.4518227,24.9960578 C30.4518227,26.1130092 31.3388135,27 32.4557649,27 C33.5398648,27 34.4268556,26.1130092 34.4268556,24.9960578 L34.4268556,6.04073587 L40.0773155,6.04073587 C41.1614154,6.04073587 42.0484062,5.15374507 42.0484062,4.03679369 C42.0484062,2.95269382 41.1614154,2.06570302 40.0773155,2.06570302 Z M56.9301407,27 C52.4294837,27 47.6331631,23.9448095 47.6331631,18.3272011 L47.6331631,4.0696452 C47.6331631,2.95269382 48.5201539,2.06570302 49.6371053,2.06570302 C50.7540567,2.06570302 51.673899,2.95269382 51.673899,4.0696452 L51.673899,18.3272011 C51.673899,21.3495401 54.3348714,22.9264126 56.9301407,22.9264126 C59.5582616,22.9264126 62.219234,21.3495401 62.219234,18.3272011 L62.219234,4.0696452 C62.219234,2.95269382 63.1390764,2.06570302 64.2560277,2.06570302 C65.3729791,2.06570302 66.2599699,2.95269382 66.2599699,4.0696452 L66.2599699,18.3272011 C66.2599699,23.9448095 61.4636493,27 56.9301407,27 Z M115.438682,2.06570302 L100.195581,2.06570302 C99.1114811,2.06570302 98.2244903,2.95269382 98.2244903,4.03679369 C98.2244903,5.15374507 99.1114811,6.04073587 100.195581,6.04073587 L105.813189,6.04073587 L105.813189,24.9960578 C105.813189,26.1130092 106.70018,27 107.817132,27 C108.901231,27 109.788222,26.1130092 109.788222,24.9960578 L109.788222,6.04073587 L115.438682,6.04073587 C116.522782,6.04073587 117.409773,5.15374507 117.409773,4.03679369 C117.409773,2.95269382 116.522782,2.06570302 115.438682,2.06570302 Z M136.299392,16.5203679 C137.383492,16.5203679 138.270482,15.6662286 138.270482,14.5821288 C138.270482,13.4651774 137.383492,12.6110381 136.299392,12.6110381 L126.90386,12.6110381 L126.90386,5.94218134 L136.299392,5.94218134 C137.383492,5.94218134 138.270482,5.05519054 138.270482,3.97109067 C138.270482,2.8869908 137.383492,2 136.299392,2 L124.932769,2 C123.848669,2 122.99453,2.8869908 122.99453,3.97109067 L122.99453,24.9960578 C122.99453,26.0801577 123.848669,26.934297 124.932769,26.934297 L136.299392,26.934297 C137.383492,26.934297 138.270482,26.0801577 138.270482,24.9960578 C138.270482,23.911958 137.383492,23.0249671 136.299392,23.0249671 L126.90386,23.0249671 L126.90386,16.5203679 L136.299392,16.5203679 Z M163.664701,4.03679369 C163.664701,2.91984231 162.744858,2.03285151 161.660758,2.03285151 C160.543807,2.03285151 159.656816,2.91984231 159.656816,4.03679369 L159.656816,19.1156373 L147.107539,2.82128778 C147.107539,2.78843627 147.107539,2.78843627 147.074687,2.78843627 C147.074687,2.75558476 147.041836,2.72273325 147.008984,2.68988173 L146.811875,2.49277267 C146.779024,2.49277267 146.779024,2.45992116 146.746172,2.45992116 C146.713321,2.42706965 146.680469,2.39421813 146.647618,2.39421813 C146.647618,2.36136662 146.614766,2.36136662 146.581915,2.32851511 C146.549063,2.32851511 146.516212,2.2956636 146.48336,2.2956636 L146.417657,2.22996058 C146.384806,2.22996058 146.351954,2.19710907 146.319103,2.19710907 C146.286251,2.19710907 146.2534,2.16425756 146.220548,2.16425756 C146.187697,2.16425756 146.154845,2.13140604 146.154845,2.13140604 L146.023439,2.09855453 C146.023439,2.09855453 145.990588,2.09855453 145.957736,2.06570302 L145.859181,2.06570302 C145.82633,2.06570302 145.793478,2.06570302 145.760627,2.03285151 L145.366409,2.03285151 C145.333557,2.03285151 145.300706,2.03285151 145.267854,2.06570302 L145.1693,2.06570302 C145.136448,2.06570302 145.103597,2.06570302 145.070745,2.09855453 L144.972191,2.09855453 C144.939339,2.13140604 144.906488,2.13140604 144.873636,2.13140604 C144.840785,2.16425756 144.840785,2.16425756 144.807933,2.16425756 L144.709379,2.22996058 C144.676527,2.22996058 144.643676,2.22996058 144.610824,2.26281209 C144.577973,2.26281209 144.545121,2.2956636 144.51227,2.2956636 C144.51227,2.32851511 144.479418,2.32851511 144.446567,2.36136662 C144.413715,2.36136662 144.380863,2.39421813 144.348012,2.42706965 C144.348012,2.42706965 144.31516,2.42706965 144.31516,2.45992116 L144.282309,2.45992116 L143.986645,2.75558476 C143.986645,2.75558476 143.953794,2.78843627 143.953794,2.82128778 L143.888091,2.8869908 C143.855239,2.91984231 143.855239,2.95269382 143.855239,2.95269382 C143.822388,2.98554534 143.789536,3.01839685 143.789536,3.05124836 C143.756685,3.08409987 143.756685,3.11695138 143.756685,3.14980289 L143.690982,3.24835742 C143.690982,3.28120894 143.65813,3.31406045 143.65813,3.34691196 C143.65813,3.34691196 143.625279,3.37976347 143.625279,3.41261498 C143.625279,3.44546649 143.625279,3.478318 143.592427,3.51116951 L143.592427,3.60972405 C143.559576,3.64257556 143.559576,3.67542707 143.559576,3.70827858 L143.559576,3.80683311 C143.559576,3.83968463 143.559576,3.87253614 143.526724,3.87253614 L143.526724,24.9632063 C143.526724,26.0801577 144.413715,26.9671485 145.530666,26.9671485 C146.614766,26.9671485 147.534609,26.0801577 147.534609,24.9632063 L147.534609,9.88436268 L160.083886,26.1787122 L160.083886,26.2115637 C160.116737,26.2444152 160.149589,26.3101183 160.215292,26.3429698 C160.215292,26.3429698 160.215292,26.3758213 160.248143,26.3758213 C160.280995,26.4415243 160.346698,26.4743758 160.379549,26.5072273 C160.412401,26.5400788 160.445252,26.5400788 160.445252,26.5729304 C160.478104,26.6057819 160.510955,26.6057819 160.576658,26.6386334 C160.576658,26.6714849 160.60951,26.6714849 160.642362,26.6714849 C160.675213,26.7043364 160.708065,26.7371879 160.740916,26.7371879 C160.773768,26.7700394 160.806619,26.7700394 160.839471,26.7700394 C160.872322,26.8028909 160.905174,26.8357424 160.938025,26.8357424 C160.970877,26.8357424 161.003728,26.868594 161.003728,26.868594 C161.069431,26.868594 161.102283,26.9014455 161.167986,26.9014455 C161.200837,26.9014455 161.200837,26.9014455 161.233689,26.934297 L161.397946,26.934297 L161.430798,26.9671485 L161.660758,26.9671485 C161.759313,26.9671485 161.857867,26.9671485 161.92357,26.934297 L161.989273,26.934297 C162.087828,26.934297 162.186383,26.9014455 162.284937,26.868594 L162.317789,26.868594 C162.416343,26.8357424 162.482046,26.7700394 162.580601,26.7371879 C162.679155,26.6714849 162.77771,26.6386334 162.843413,26.5729304 C162.843413,26.5729304 162.876264,26.5729304 162.876264,26.5400788 L162.909116,26.5400788 C162.909116,26.5072273 162.941967,26.4743758 162.974819,26.4743758 C163.00767,26.4415243 163.00767,26.4086728 163.040522,26.4086728 C163.073373,26.3758213 163.073373,26.3429698 163.106225,26.3429698 C163.139076,26.3101183 163.171928,26.2772668 163.171928,26.2444152 C163.204779,26.2444152 163.204779,26.2115637 163.237631,26.1787122 C163.237631,26.1458607 163.270482,26.1458607 163.303334,26.1130092 C163.303334,26.0801577 163.336185,26.0473062 163.336185,26.0473062 L163.401888,25.9487516 C163.401888,25.9159001 163.43474,25.8830486 163.43474,25.8501971 C163.467591,25.8173456 163.467591,25.7844941 163.467591,25.7516426 L163.533294,25.653088 C163.533294,25.653088 163.533294,25.6202365 163.566146,25.587385 L163.566146,25.4888305 C163.598998,25.455979 163.598998,25.4231275 163.598998,25.390276 C163.598998,25.3574244 163.598998,25.3245729 163.631849,25.2917214 L163.631849,24.9960578 C163.631849,24.9960578 163.664701,24.9960578 163.664701,24.9632063 L163.664701,4.03679369 Z"/>
    <g transform="translate(71)">
      <path fill="#03082D" d="M16.8056733,27.1569727 L0.85390397,6.51114073 C-0.44167234,4.83432042 -0.240278889,2.33437446 1.30372883,0.927355156 C2.84773655,-0.47966415 5.14967423,-0.26094722 6.44525054,1.41587309 L22.3970198,22.061705 C23.6925961,23.7385253 23.4912027,26.2384713 21.947195,27.6454906 C20.4031872,29.0525099 18.1012496,28.833793 16.8056733,27.1569727 L16.8056733,27.1569727 Z"/>
      <circle cx="20" cy="4" r="4" fill="#376DDE" transform="matrix(-1 0 0 1 40 0)"/>
      <circle cx="4" cy="25" r="4" fill="#376DDE" transform="matrix(-1 0 0 1 8 0)"/>
    </g>
  </g>
</svg>
