<svg height="100" viewBox="0 0 165 100" width="165" xmlns="http://www.w3.org/2000/svg"><g fill="none" fill-rule="evenodd"><path d="M140.129 54.457a.432.432 0 0 0 .02.003zM50.87 76.597c9.88 6.918 23.529 9.494 37.605 7.012 18.291-3.225 35.796-15.011 40.565-27.571.793-2.356 3.801-4.192 7.45-5.37 1.5-.483 2.874-.753 3.874-.708 2.67.121 3.728 2.788 1.796 4.757-1.168 1.211-2.57 1.968-4.935 2.914l-1.175.465c-1.104.437-1.731.723-2.204 1.018a2.461 2.461 0 0 0-.477.366c-5.825 16.07-22.966 28.696-43.324 32.142-16.18 2.996-32.147.075-43.8-8.085-2.864-2.005-5.447-4.323-7.444-6.698-1.839-2.118-4.384-3.9-7.505-5.232-2.717-1.16-5.004-3.133-6.456-5.578l-1.629-2.745 8.579-1.684.842.794c.468.44 1.06.814 1.759 1.096l.29.142c2.682 1.564 2.986 1.743 3.988 2.375.57.36 1.088.703 1.571 1.04 1.954 1.368 3.606 2.85 4.756 4.388 1.422 1.743 3.287 3.35 5.874 5.161z" fill="#f5c100" fill-rule="nonzero" opacity=".4"/><path d="M31.067 72.696a9.359 9.359 0 0 1-1.18-1.04l-.36.384c.292.276.606.535.938.775zm1.619 1.338l.124-.308a9.779 9.779 0 0 1-.25-.118l-.165.283.133.078.158.065zm116.963-25.365l-.105-.536-1.154-.39-.582.338.321 1.638.946-.186c.237-.275.427-.561.574-.864zm-3.974-2.121l.007-.008.002-.002a.165.165 0 0 1-.008.01zm.304-.998l4.521-.887.806 1.39c.249.43.423.885.507 1.365.444 2.514-1.24 4.326-4.476 6.315-.983.604-2.067 1.195-3.58 1.973-4.83 2.483-5.202 2.688-5.75 3.245-2.445 2.536-3.96 4.772-4.731 7.003-5.749 15.964-22.89 28.589-43.248 32.036-16.181 2.996-32.147.074-43.801-8.086-2.864-2.005-5.446-4.323-7.443-6.698-1.839-2.118-4.384-3.9-7.505-5.232-2.717-1.16-5.004-3.132-6.456-5.578l-1.629-2.745 8.579-1.684.842.794c.468.441 1.06.814 1.758 1.096l.29.143c2.47 1.44 2.482 1.446 3.318 1.958.849.52 1.577.992 2.242 1.457 1.953 1.368 3.606 2.85 4.756 4.387 1.422 1.743 3.286 3.35 5.873 5.162 9.881 6.918 23.53 9.495 37.606 7.013 17.599-3.104 31.965-13.597 36.921-26.651 1.18-3.504 3.411-6.781 6.637-9.92.622-.633 1.58-1.151 3.275-1.907a99.272 99.272 0 0 1 2.112-.905l1.132-.472 1.148-.481a102 102 0 0 0 1.839-.795c1.402-.624 2.468-1.156 3.232-1.622.377-.23.66-.433.835-.593.01-.008.14-.368.39-1.08zM134.522 28.8l-1.139.28-1.373.336-.9-1.091c-.539-.653-.946-1.325-1.521-2.41l-.246-.466a42.393 42.393 0 0 0-.23-.43c-.412-.764-.686-1.147-.822-1.242.432.302-3.596-2.709-5.363-3.888a12.95 12.95 0 0 0-1.447-.822c-.804-.398-3.536-1.524-3.926-1.713a7.153 7.153 0 0 1-1.005-.573c-9.88-6.918-23.529-9.494-37.605-7.012-17.6 3.103-31.965 13.597-36.922 26.65-1.18 3.504-3.41 6.781-6.636 9.92a4.758 4.758 0 0 0-.943 1.37l-.536 1.184-1.293.128-.52.051c-1.257.122-2.457.242-3.601.362l-4.17 7.324 1.762-10.155a13.286 13.286 0 0 1 3.309-5.809c2.446-2.535 3.961-4.772 4.732-7.003 5.749-15.964 22.89-28.589 43.248-32.035 16.18-2.996 32.147-.075 43.8 8.085 2.864 2.005 5.447 4.323 7.444 6.698.175.202 2.619 2.262 3.457 3.075 1.325 1.285 2.36 2.564 3.102 3.968.39.737.707 1.53.963 2.38l.685 2.271z" fill="#fff" fill-rule="nonzero"/><path d="M67.82 61.796c-.255-.298-.43-.575-.527-.83l-.478-1.291c-.391-2.218.257-4.69 1.944-7.418 1.04-1.804 2.15-3.649 3.33-5.537 2.715-4.123 4.351-6.36 4.91-6.708l.069-.012.41-.001.07.399-.112.27.012.069.086-.015c.794-.7 1.17-1.171 1.127-1.414l.07-.012c.057-.01.09.008.098.054.264-.19.65-.609 1.154-1.258 2.551-1.474 4.012-2.244 4.381-2.309.342-.155 1.352-.44 3.03-.856 1.663-.293 3.328-.074 4.993.656.712.054 1.086.178 1.12.375l-.113.27.04.225c.185.372.467.757.847 1.155.028.162-.061.26-.27.298l-.554.097a5.14 5.14 0 0 0-.004.484c.058-.01.092.013.102.07l-.215.2-.483-.005c.034.197-.227.404-.784.621-.074.394-.145.597-.214.61l-.567.028c.012.07-.326.314-1.014.733-.041-.231-.797-.396-2.267-.494-1.86.328-3.987 1.168-6.381 2.519l-.816.948c-.155.54-.68 1.716-1.575 3.53l.015.086.087-.015 1.858-.507c1.248-.22 2.686-.2 4.317.061.422-.039.644.006.666.133l.067.381c.428-.075.656-.032.684.13l.055.311c.01.058-.104.186-.343.383l.184.539c-.425.158-.903.517-1.436 1.075-.453.199-.692.402-.715.608l-.414-.016-.225.04c.078.439-.634.862-2.134 1.27.01.057-.037.095-.141.114a.567.567 0 0 1-.258-.044c-1.005.177-2.616.872-4.832 2.085-1.128.353-1.618.952-1.47 1.795-.058.01-.082.313-.072.907.181.42 1.05.755 2.607 1.005 3.292-1.39 5.4-2.167 6.325-2.33a3.54 3.54 0 0 0 1.644.103l.243-.043c.046-.008.211.153.496.484-.229.053-.561.331-.996.837-.462.081-.861.42-1.197 1.015-.994.509-1.483.81-1.467.902l.043.243c-1.337.724-1.97 1.294-1.896 1.71a29.136 29.136 0 0 1-2.645 2.02c-.623.86-1.53 1.396-2.719 1.606-.168.196-.42.324-.754.383l-.243.042c-.693.123-1.582-.018-2.665-.423a5.897 5.897 0 0 1-1.025-.139c-.458.318-.9.615-1.33.894-.057.01-.219.24-.485.693-.808.416-1.2.688-1.178.815-1.081.893-2.339 1.734-3.772 2.523.065.37-1.582 1.125-4.943 2.265-.486.146-.909.25-1.267.313l-.502.089c-1.872.33-3.5-.289-4.883-1.855-.184-.027-.301-.185-.352-.474l.189.056-.043-.243c-.051-.288-.163-.417-.337-.387-.27-1.536 1.898-7.648 6.505-18.335.83-2.255 2.032-4.89 3.608-7.908.689-.824 1.195-1.265 1.518-1.322-.022-.127.581-.353 1.81-.677l.016.087c.59-.366 1.01-.792 1.258-1.276l.173-.03c.174-.031.28.07.321.3a.567.567 0 0 0-.044.258c.128-.022.24.107.337.387l.088.503c.162-.029.253.015.274.13-.535 4.264-1.358 8.209-2.47 11.835a202.862 202.862 0 0 1-5.036 11.77l.046.26.087-.016c2.552-.724 4.392-1.4 5.52-2.028a60.072 60.072 0 0 0 1.83-.829zm-51.66 9.278v-.001c-.439-2.484.284-5.244 2.167-8.28a226.37 226.37 0 0 1 3.717-6.176c3.032-4.62 4.86-7.123 5.484-7.507l.086-.015.466.007.076.434-.141.31.015.087.087-.015c.897-.79 1.322-1.317 1.275-1.583l.087-.015c.057-.01.091.013.101.071.295-.219.725-.688 1.29-1.406 2.851-1.659 4.485-2.525 4.901-2.598.377-.162 1.5-.479 3.37-.951 1.86-.328 3.72-.085 5.579.731.797.062 1.215.203 1.253.422l-.144.294.045.26c.228.412.548.844.961 1.295.03.174-.07.28-.3.321l-.624.11c-.005.311-.003.49.005.536.058-.01.092.013.102.071l-.23.22-.552.007c.039.22-.248.455-.858.705-.09.433-.177.657-.257.671l-.622.02c.014.081-.36.361-1.12.841-.047-.266-.896-.45-2.546-.552-2.067.365-4.446 1.297-7.136 2.795l-.901 1.07c-.18.604-.764 1.916-1.754 3.937l.015.086.087-.015 2.083-.546c1.398-.247 3.004-.226 4.818.062.48-.05.731-.004.756.134l.08.451c.461-.081.708-.036.738.138l.061.346c.01.058-.113.199-.372.423l.197.609c-.469.178-1.006.576-1.612 1.195-.497.219-.755.443-.774.673l-.466-.007-.26.045c.085.486-.707.959-2.376 1.42.01.058-.043.097-.158.117a.682.682 0 0 1-.293-.038c-1.12.198-2.92.968-5.4 2.31-1.25.411-1.791 1.085-1.626 2.02-.081.015-.118.349-.11 1.002.215.475 1.192.85 2.933 1.127 3.669-1.552 6.023-2.42 7.063-2.603a3.9 3.9 0 0 0 1.844.121l.26-.046c.057-.01.238.173.543.548-.252.056-.622.36-1.108.91-.509.09-.953.472-1.335 1.147-1.113.577-1.66.918-1.642 1.022l.046.26c-1.49.81-2.193 1.446-2.111 1.908-.911.78-1.898 1.532-2.962 2.256-.675.965-1.683 1.565-3.023 1.801-.19.212-.468.351-.838.416l-.26.046c-.774.136-1.773-.021-2.996-.472-1.204-.074-2.073-.373-2.606-.899a16.72 16.72 0 0 1-1.077-.848l-.17.282c-.808.416-1.2.688-1.178.815-1.082.894-2.339 1.735-3.772 2.523.065.37-1.582 1.125-4.943 2.266-.486.145-.909.25-1.267.312l-.502.089c-1.872.33-3.5-.288-4.884-1.855-.183-.027-.3-.185-.351-.474l.188.056-.042-.242c-.051-.29-.163-.418-.337-.388-.27-1.536 1.898-7.648 6.505-18.335.83-2.254 2.032-4.89 3.608-7.908.689-.824 1.195-1.265 1.518-1.322-.022-.127.581-.352 1.81-.676l.016.086c.59-.366 1.01-.791 1.258-1.276l.173-.03c.173-.03.28.07.321.3a.567.567 0 0 0-.044.258c.127-.022.24.107.337.388l.088.502c.162-.028.253.015.273.13-.534 4.264-1.357 8.209-2.469 11.835a202.862 202.862 0 0 1-5.036 11.77l.046.26.087-.016c2.552-.724 4.392-1.4 5.52-2.027.343-.147.758-.333 1.246-.558zm100.187-41.288c1.577-.242 2.39-.225 2.44.053.15-.027.3.185.45.635.047 1.278-.11 2.443-.473 3.496-.386 1.593-1.1 3.892-2.142 6.9-.992 3.295-1.772 6.166-2.34 8.613-.108.066-.344.823-.709 2.269-.817 1.847-1.437 3.57-1.857 5.17a6.47 6.47 0 0 0-.256 1.795l-.145.187c.01.058.044.081.102.071.025.413-.078.64-.31.68l.115.14.027.157c-.339.44-.473.964-.402 1.571l-.215.2c-.269-.108-.444-.155-.525-.14a.439.439 0 0 0-.274.37l.325.424-.143.097c-.374-.363-.601-.537-.682-.523l-.415.484-.372-.184.015.086a.585.585 0 0 1 .142.297c-.324.057-.939-1.032-1.845-3.266l-.012-.07c-.285-1.617.276-4.312 1.683-8.086l3.651-9.792c.358-1.147.525-1.79.5-1.928l-.027-.156-.087.015c.016.092-.354.694-1.111 1.804a133.648 133.648 0 0 0-3.989 7.779c-1.162 2.325-2.274 4.296-3.335 5.912-.862 1.057-1.841 1.683-2.939 1.876-1.351.238-2.11-.11-2.275-1.046-.103.018-.393-.645-.869-1.99l-.067-.382c-.14-.797-.22-2.534-.24-5.21l-.08-.451-.155.027c.028.162-.921 3.188-2.848 9.079-.213 1.157-.854 2.622-1.923 4.395-.287.265-.511.411-.673.44-.462.081-1.073-.21-1.834-.874-.199-.25-.44-.976-.723-2.177l-.513-.07c.03-.435.66-2.743 1.888-6.926.448-1.58 1.208-3.757 2.279-6.53a65.885 65.885 0 0 1 2.85-5.828 26.644 26.644 0 0 1 2.17-3.402c.947-.977 1.412-1.511 1.396-1.604.092-.016.212-.115.359-.295l.086-.016.04.226.243-.043a8.49 8.49 0 0 1 1.467-1.206l.059-.171c.416-.073.76.158 1.033.693l.04.225c-.082.146-.117.42-.105.823.19.407.293.651.308.732-.01.216-.05.33-.119.342.008.047.041.065.1.054.237 1.352-.137 5.105-1.125 11.258-.214 1.622-.262 2.768-.144 3.438l.028.156.069-.012c.906-.874 1.508-1.749 1.806-2.623.214-.276 1.462-2.724 3.744-7.343 3.54-6.199 6.502-9.74 8.883-10.625zm14.228-2.115l.377-.192c1.031-.503 2.66-.386 4.887.353.457.3.782.589.974.865.768 1.115.931 3.153.488 6.114.031.042.011.367-.06.975l.026.05c.166-.078.196-.28.09-.606l.28-.139.026.049c.088.568-.497 2.25-1.755 5.044.016.426-.135.989-.453 1.688.135-.047.219-.044.252.01-.076.31-.662 1.444-1.759 3.4.1.03.166.06.195.091l-.196.106-.053-.098c-.055.022-.117.11-.185.265l.154.063.026.048c-1.394 2.295-2.672 3.997-3.834 5.108-.507.84-1.53 1.764-3.067 2.774-1.59.983-2.598 1.578-3.026 1.784l-.838.416c-1.021.49-2.038.705-3.049.645-.547.275-1.49.06-2.83-.645-.937-1.335-1.316-3.08-1.136-5.231-.069-.727.228-2.458.888-5.195 1.125-3.689 3.079-6.826 5.863-9.414l.026.05c-.111.245-.794 1.068-2.048 2.469a26.383 26.383 0 0 0-2.438 4.414l.07.095c.133-.06 1.184-1.668 3.152-4.826a17.322 17.322 0 0 0 3.16-4.47c1.893-2.645 3.59-4.469 5.093-5.472-.006-.166.228-.362.7-.588zm.466 4.974l-.404.143c-1.843.896-3.574 2.964-5.195 6.204-.698 1.243-1.235 2.755-1.612 4.537-.506 1.316-.768 2.738-.784 4.266a6.11 6.11 0 0 0 .532 2.21l.172.06c-.032.089-.025.165.022.228.133-.06.32.021.56.24l.28-.138c1.08-.631 2.305-1.925 3.675-3.882l3.038-5.163c1.734-3.677 2.322-6.252 1.765-7.726a1.625 1.625 0 0 0-.303-.805c-.256-.371-.683-.564-1.281-.578l-.101.036c-.258.224-.38.347-.364.368zm31.403-11.005l.091.11-.105.214c.07-.012.175.011.316.07-.23.386-.31.81-.24 1.275.06.073.095.132.103.178-.15.027-.212.383-.186 1.07a.664.664 0 0 1-.214.109l.125.3c-.116.02-.184.204-.206.554-1.46 1.52-2.169 2.46-2.129 2.823-.19.2-.831 1.498-1.922 3.894-1.166 2.302-2.03 4.092-2.59 5.37a287.017 287.017 0 0 0-2.217 5.77c-.698 2.529-1.31 4.423-1.839 5.684-.998 1.772-2.103 2.765-3.316 2.979a.664.664 0 0 1-.213.109c-1.084 0-1.653-.155-1.708-.467-.286-.272-.591-.718-.915-1.34l-.166-.024.015-.324c-.015-.081-.083-.2-.206-.357-.05-.825-.13-1.544-.237-2.156l.086-.015c-.008-.047-.04-.065-.099-.054l.02-.397c-.212-1.201-.216-4.262-.011-9.182l.36-2.314a5.026 5.026 0 0 1-.213-.803l-.156.028c-.372.459-.9 1.516-1.584 3.174-1.376 3.816-2.547 6.935-3.514 9.356-.54 1.87-1.035 2.845-1.486 2.924a.758.758 0 0 1-.285.104c-.838-.09-1.28-.268-1.327-.534l-.271-.22.4-1.679a.433.433 0 0 1-.102-.178c-.092-.52.358-2.023 1.349-4.508-.014-.081.252-.902.798-2.464-.042-.242.52-1.98 1.69-5.211-.057-.324.46-1.475 1.553-3.454-.063-.359.79-1.629 2.562-3.811a5.055 5.055 0 0 1 2.082-1.672c.208-.036.754-.281 1.639-.735l.225-.04.247.082-.045.15c.012.07.247.088.706.055l.094.126.009.052c.053.3.014.956-.117 1.968l.2.733c.044 1.195-.096 2.43-.42 3.701-.94 6.014-1.21 10.16-.808 12.435l.067.382-.048.133.15.045c.405-.071.904-1.196 1.497-3.373.16-.373.373-.756.637-1.148a95.714 95.714 0 0 1 4.293-11.424c-.027-.15.227-.737.761-1.76.456-.795.837-1.404 1.143-1.828.33-.498.638-.94.928-1.325l1.086-.834c1.61-1.404 2.832-2.18 3.663-2.326z" fill="#212121"/><path d="M69.622 62.697c-.255-.298-.431-.575-.527-.83l-.478-1.291c-.391-2.218.257-4.69 1.944-7.418 1.04-1.804 2.15-3.65 3.33-5.537 2.715-4.123 4.351-6.36 4.91-6.708l.068-.012.411-.001.07.398-.113.27.013.07.086-.015c.794-.7 1.17-1.171 1.127-1.414l.069-.012c.058-.01.09.008.099.054.264-.19.649-.609 1.154-1.258 2.551-1.474 4.011-2.244 4.381-2.309.342-.156 1.352-.44 3.03-.856 1.663-.293 3.328-.074 4.993.656.712.053 1.086.178 1.12.375l-.113.27.04.225c.184.372.467.757.847 1.155.028.162-.062.26-.27.297l-.554.098a5.14 5.14 0 0 0-.004.483c.058-.01.092.014.102.072l-.215.199-.484-.005c.035.197-.226.404-.783.621-.074.394-.145.597-.215.61l-.566.028c.012.07-.326.314-1.015.733-.04-.231-.796-.396-2.266-.494-1.86.328-3.987 1.168-6.382 2.519l-.815.948c-.155.54-.68 1.716-1.575 3.53l.015.086.086-.015 1.859-.507c1.247-.22 2.686-.2 4.316.061.422-.039.645.006.667.133l.067.38c.428-.074.656-.031.684.13l.055.312c.01.058-.104.185-.343.383l.184.539c-.425.158-.903.516-1.436 1.075-.454.199-.692.402-.715.608l-.414-.016-.225.04c.077.439-.634.862-2.135 1.27.01.057-.036.095-.14.114a.567.567 0 0 1-.258-.044c-1.005.177-2.616.872-4.832 2.084-1.129.354-1.619.953-1.47 1.796-.058.01-.082.313-.072.906.18.421 1.05.756 2.607 1.006 3.292-1.39 5.4-2.167 6.325-2.33a3.54 3.54 0 0 0 1.644.103l.242-.043c.047-.008.212.153.497.484-.23.052-.561.331-.996.837-.462.081-.861.42-1.197 1.015-.994.509-1.483.81-1.467.902l.043.242c-1.337.725-1.97 1.295-1.896 1.71a29.136 29.136 0 0 1-2.646 2.021c-.622.86-1.528 1.396-2.718 1.605-.168.197-.42.325-.755.384l-.242.042c-.693.123-1.582-.019-2.666-.423a5.897 5.897 0 0 1-1.024-.139c-.458.317-.901.615-1.33.894-.057.01-.22.24-.485.693-.808.416-1.2.688-1.178.815-1.082.893-2.339 1.734-3.772 2.523.065.37-1.582 1.125-4.943 2.265-.486.146-.909.25-1.267.313l-.502.089c-1.872.33-3.5-.289-4.884-1.855-.183-.027-.3-.185-.351-.474l.188.056-.042-.243c-.051-.288-.163-.418-.337-.387-.27-1.536 1.898-7.648 6.505-18.335.83-2.255 2.032-4.89 3.608-7.908.689-.825 1.195-1.265 1.518-1.322-.022-.127.581-.353 1.81-.677l.016.087c.59-.366 1.01-.792 1.258-1.276l.173-.03c.173-.031.28.07.321.3a.567.567 0 0 0-.044.258c.127-.022.24.107.337.387l.088.503c.162-.029.253.015.273.13-.534 4.264-1.357 8.209-2.469 11.835a202.862 202.862 0 0 1-5.036 11.77l.046.26.087-.016c2.552-.724 4.392-1.4 5.52-2.028a60.072 60.072 0 0 0 1.83-.829zm-51.66 9.278v-.002c-.439-2.483.284-5.243 2.166-8.279a226.37 226.37 0 0 1 3.718-6.176c3.032-4.62 4.86-7.123 5.483-7.507l.087-.015.466.007.076.433-.142.311.016.087.086-.015c.897-.79 1.323-1.317 1.276-1.583l.086-.015c.058-.01.092.013.102.071.295-.219.725-.688 1.289-1.406 2.852-1.659 4.486-2.525 4.902-2.598.376-.162 1.5-.479 3.37-.952 1.86-.327 3.72-.084 5.578.732.797.062 1.215.203 1.254.422l-.145.294.046.26c.228.412.548.844.961 1.295.03.174-.07.28-.3.321l-.624.11c-.005.31-.004.49.005.536.057-.01.091.013.102.07l-.23.22-.552.008c.038.22-.248.455-.859.705-.09.433-.176.657-.257.671l-.621.02c.014.081-.36.361-1.12.841-.048-.266-.896-.45-2.546-.552-2.068.365-4.446 1.296-7.136 2.795l-.901 1.07c-.18.604-.764 1.916-1.754 3.937l.015.086.087-.015 2.083-.546c1.398-.247 3.004-.226 4.817.062.48-.05.732-.004.757.134l.08.45c.461-.08.708-.035.738.139l.061.346c.01.058-.114.199-.372.423l.197.609c-.47.178-1.006.576-1.612 1.195-.497.219-.756.443-.775.673l-.465-.008-.26.046c.085.486-.707.959-2.377 1.42.01.058-.042.097-.158.117a.682.682 0 0 1-.292-.038c-1.12.198-2.92.968-5.4 2.31-1.25.411-1.792 1.085-1.627 2.02-.08.015-.117.349-.109 1.002.215.475 1.192.85 2.932 1.127 3.67-1.552 6.024-2.42 7.063-2.603a3.9 3.9 0 0 0 1.844.121l.26-.046c.058-.01.24.173.544.548-.253.056-.622.36-1.109.91-.508.09-.953.472-1.334 1.146-1.113.578-1.66.919-1.642 1.023l.046.26c-1.49.81-2.193 1.446-2.112 1.908-.91.78-1.897 1.532-2.961 2.256-.676.964-1.683 1.565-3.023 1.801-.19.212-.469.35-.838.416l-.26.046c-.774.136-1.773-.021-2.996-.472-1.204-.074-2.073-.373-2.606-.899a16.72 16.72 0 0 1-1.077-.848c-.051.082-.108.176-.17.282-.808.416-1.2.688-1.178.815-1.082.894-2.339 1.735-3.772 2.523.065.37-1.583 1.125-4.943 2.266-.487.145-.909.25-1.267.312l-.503.089c-1.871.33-3.499-.288-4.883-1.855-.183-.027-.3-.185-.351-.474l.188.056-.043-.242c-.05-.29-.163-.418-.336-.388-.27-1.536 1.897-7.648 6.505-18.335.83-2.254 2.032-4.89 3.608-7.908.689-.824 1.195-1.265 1.518-1.322-.022-.127.581-.352 1.81-.676l.016.086c.59-.366 1.01-.791 1.258-1.276l.173-.03c.173-.03.28.07.32.3a.567.567 0 0 0-.043.258c.127-.022.24.107.336.388l.089.502c.162-.028.253.015.273.13-.535 4.264-1.358 8.209-2.47 11.835a202.862 202.862 0 0 1-5.035 11.77l.046.26.086-.016c2.553-.724 4.393-1.4 5.521-2.028.343-.146.758-.332 1.246-.557zm100.187-41.288c1.577-.242 2.39-.225 2.439.053.15-.027.3.185.451.635.047 1.278-.11 2.443-.473 3.496-.386 1.593-1.1 3.892-2.143 6.9-.99 3.295-1.771 6.166-2.34 8.613-.107.066-.343.823-.708 2.269-.818 1.847-1.437 3.57-1.858 5.17a6.47 6.47 0 0 0-.255 1.795l-.146.187c.01.057.045.081.102.071.025.413-.077.64-.309.68l.115.14.027.157c-.339.44-.473.964-.402 1.571l-.215.199c-.269-.107-.444-.154-.525-.14a.439.439 0 0 0-.274.37l.325.425-.144.097c-.373-.363-.6-.537-.681-.523l-.415.484-.372-.184.015.086a.585.585 0 0 1 .142.297c-.324.057-.939-1.032-1.845-3.266l-.012-.07c-.285-1.617.276-4.312 1.683-8.086l3.651-9.792c.358-1.147.524-1.79.5-1.929l-.028-.155-.086.015c.016.092-.354.694-1.111 1.804a133.649 133.649 0 0 0-3.989 7.778c-1.162 2.326-2.274 4.296-3.335 5.913-.862 1.057-1.841 1.683-2.939 1.876-1.351.238-2.11-.11-2.275-1.046-.104.018-.393-.645-.869-1.99l-.067-.382c-.14-.797-.22-2.534-.24-5.21l-.08-.451-.155.027c.028.162-.921 3.188-2.848 9.079-.213 1.157-.854 2.622-1.923 4.395-.287.265-.512.411-.673.44-.462.081-1.074-.21-1.834-.874-.199-.25-.44-.977-.723-2.177l-.513-.07c.03-.435.66-2.744 1.888-6.927.448-1.58 1.207-3.756 2.279-6.53a65.885 65.885 0 0 1 2.85-5.827 26.644 26.644 0 0 1 2.169-3.402c.947-.977 1.413-1.512 1.397-1.604.092-.016.212-.115.358-.296l.087-.015.04.225.242-.042a8.49 8.49 0 0 1 1.467-1.206l.06-.171c.415-.074.76.158 1.033.693l.04.225c-.082.146-.117.42-.105.823.19.407.293.65.307.732-.01.216-.049.33-.118.342.008.046.041.064.099.054.238 1.352-.136 5.105-1.124 11.258-.214 1.622-.262 2.768-.144 3.438l.027.156.07-.012c.906-.874 1.508-1.749 1.806-2.623.214-.276 1.462-2.724 3.744-7.343 3.54-6.199 6.502-9.74 8.883-10.625zm14.228-2.115l.377-.192c1.03-.503 2.66-.386 4.886.353.458.3.783.589.975.865.768 1.115.93 3.153.488 6.114.031.042.011.367-.06.975l.026.049c.165-.077.195-.279.09-.605l.28-.139.026.049c.088.568-.497 2.25-1.755 5.044.016.426-.135.989-.453 1.688.135-.048.219-.044.252.01-.076.31-.662 1.444-1.759 3.4.1.03.166.06.195.091l-.196.106-.053-.098c-.056.022-.117.11-.185.265l.153.062.027.05c-1.394 2.294-2.672 3.996-3.834 5.107-.507.84-1.53 1.764-3.067 2.774-1.59.983-2.598 1.577-3.026 1.784l-.838.416c-1.022.49-2.038.704-3.049.644-.547.276-1.49.06-2.83-.644-.938-1.336-1.317-3.08-1.136-5.231-.069-.727.227-2.458.888-5.195 1.125-3.689 3.079-6.827 5.863-9.414l.026.05c-.111.245-.794 1.068-2.048 2.469a26.383 26.383 0 0 0-2.438 4.414l.07.095c.133-.06 1.183-1.668 3.152-4.826a17.322 17.322 0 0 0 3.16-4.47c1.892-2.645 3.59-4.469 5.092-5.472-.005-.166.228-.362.7-.588zm.466 4.974l-.404.142c-1.843.897-3.575 2.965-5.195 6.205-.698 1.243-1.235 2.755-1.612 4.537-.507 1.316-.768 2.738-.785 4.265a6.11 6.11 0 0 0 .533 2.211l.171.06c-.031.089-.024.165.023.228.132-.06.32.02.56.24l.28-.138c1.08-.631 2.305-1.925 3.675-3.882l3.038-5.163c1.734-3.677 2.322-6.252 1.764-7.726a1.625 1.625 0 0 0-.302-.805c-.256-.371-.683-.564-1.281-.578l-.101.036c-.258.224-.38.347-.364.368zm31.403-11.005l.09.11-.104.214c.07-.012.174.011.316.07-.23.386-.31.81-.24 1.275.06.072.095.132.103.178-.15.027-.212.383-.187 1.07a.664.664 0 0 1-.213.108l.125.3c-.116.02-.185.205-.206.555-1.46 1.52-2.17 2.46-2.13 2.823-.19.2-.83 1.498-1.921 3.894-1.166 2.302-2.03 4.092-2.59 5.37a287.017 287.017 0 0 0-2.217 5.77c-.698 2.528-1.31 4.423-1.84 5.684-.997 1.772-2.102 2.765-3.315 2.979a.664.664 0 0 1-.213.109c-1.084 0-1.654-.156-1.709-.467-.286-.272-.59-.718-.915-1.34l-.165-.024.014-.325c-.014-.08-.082-.2-.205-.356-.05-.825-.13-1.544-.238-2.156l.087-.015c-.008-.047-.041-.065-.099-.054l.02-.397c-.212-1.201-.216-4.262-.011-9.182l.36-2.315a5.026 5.026 0 0 1-.213-.802l-.156.028c-.372.458-.9 1.516-1.584 3.174-1.376 3.816-2.548 6.935-3.514 9.356-.54 1.87-1.035 2.845-1.486 2.924a.758.758 0 0 1-.285.104c-.838-.09-1.28-.268-1.327-.534l-.271-.22.4-1.679a.433.433 0 0 1-.102-.178c-.092-.52.358-2.023 1.349-4.508-.015-.081.252-.902.798-2.464-.043-.243.52-1.98 1.69-5.211-.057-.324.46-1.475 1.553-3.455-.063-.358.79-1.628 2.562-3.81a5.055 5.055 0 0 1 2.081-1.672c.208-.036.755-.282 1.64-.735l.225-.04.246.081-.044.151c.012.07.247.088.706.054l.094.127.009.052c.053.3.014.956-.118 1.968l.201.733c.044 1.195-.096 2.429-.42 3.701-.94 6.014-1.21 10.16-.808 12.435l.067.381-.048.134.15.045c.405-.071.904-1.196 1.496-3.373.16-.373.373-.756.638-1.148a95.714 95.714 0 0 1 4.293-11.424c-.027-.15.227-.737.761-1.76.456-.795.837-1.404 1.143-1.828.329-.498.638-.94.928-1.325l1.085-.834c1.611-1.404 2.832-2.18 3.664-2.326z" fill="#000" opacity=".2"/></g></svg>