<svg xmlns="http://www.w3.org/2000/svg" width="153" height="58" viewBox="0 0 153 58">
  <defs>
    <filter id="a" width="109.7%" height="128%" x="-4.8%" filterUnits="objectBoundingBox">
      <feOffset dy="2" in="SourceAlpha" result="shadowOffsetOuter1"/>
      <feGaussianBlur stdDeviation="2" in="shadowOffsetOuter1" result="shadowBlurOuter1"/>
      <feComposite in="shadowBlurOuter1" in2="SourceAlpha" operator="out" result="shadowBlurOuter1"/>
      <feColorMatrix values="0 0 0 0 0 0 0 0 0 0 0 0 0 0 0 0 0 0 0.24 0" in="shadowBlurOuter1" result="shadowMatrixOuter1"/>
      <feMerge>
        <feMergeNode in="shadowMatrixOuter1"/>
        <feMergeNode in="SourceGraphic"/>
      </feMerge>
    </filter>
  </defs>
  <g fill="#FFFFFF" fill-rule="evenodd" filter="url(#a)" transform="translate(4 2)">
    <path fill-rule="nonzero" d="M5.73,31.9 C5.73,32.6860764 5.43023864,33.3966218 4.86546253,33.9404803 C4.31488079,34.4706701 3.61655615,34.75 2.85,34.75 C2.07578942,34.75 1.37328877,34.4646091 0.829339828,33.9206602 C0.285390889,33.3767112 0,32.6742106 0,31.9 L0,19.03 C0,18.2634438 0.279329855,17.5651192 0.80951968,17.0145375 C1.35337816,16.4497614 2.0639236,16.15 2.85,16.15 C3.62836704,16.15 4.33473453,16.4434142 4.88566017,16.9943398 C4.96657406,17.0752537 5.0419333,17.1595206 5.11162415,17.246876 C5.21605372,17.1714335 5.32227656,17.0981595 5.43028398,17.027066 C6.48605474,16.3321283 7.79540682,16 9.33,16 C10.7652274,16 12.0419804,16.3989853 13.11,17.2 C13.453516,17.457637 13.7658136,17.7368503 14.0459058,18.0369397 C15.4606427,16.6911257 17.2819862,16 19.44,16 C20.8693653,16 22.1196852,16.3744274 23.1424338,17.1380797 C24.1114716,17.8616279 24.8356709,18.8011296 25.2983204,19.9320507 C25.7322529,20.9927745 25.95,22.1057042 25.95,23.26 L25.95,31.9 C25.95,32.6860764 25.6502386,33.3966218 25.0854625,33.9404803 C24.5348808,34.4706701 23.8365562,34.75 23.07,34.75 C22.2957894,34.75 21.5932888,34.4646091 21.0493398,33.9206602 C20.5053909,33.3767112 20.22,32.6742106 20.22,31.9 L20.22,23.8 C20.22,22.7961556 20.0629018,22.1438566 19.8323601,21.8381383 C19.6923272,21.6524424 19.3492796,21.52 18.66,21.52 C17.963113,21.52 17.4469068,21.6818872 17.0556046,21.9914247 C16.6185701,22.3371385 16.2128633,22.7839268 15.84,23.337032 L15.84,31.9 C15.84,32.6860764 15.5402386,33.3966218 14.9754625,33.9404803 C14.4248808,34.4706701 13.7265562,34.75 12.96,34.75 C12.1857894,34.75 11.4832888,34.4646091 10.9393398,33.9206602 C10.3953909,33.3767112 10.11,32.6742106 10.11,31.9 L10.11,23.8 C10.11,22.7961556 9.95290182,22.1438566 9.72236012,21.8381383 C9.5823272,21.6524424 9.23927959,21.52 8.55,21.52 C7.85311301,21.52 7.33690677,21.6818872 6.94560461,21.9914247 C6.50857015,22.3371385 6.10286331,22.7839268 5.73,23.337032 L5.73,31.9 Z M29.724535,30.2977214 C28.9790132,28.8658462 28.61,27.2433596 28.61,25.45 C28.61,23.6566404 28.9790132,22.0341538 29.724535,20.6022786 C30.4871027,19.1376645 31.5857884,17.9898755 32.9982136,17.1862543 C34.3933444,16.392473 35.9989156,16 37.79,16 C39.5618389,16 41.1575246,16.3929674 42.5517864,17.1862543 C43.9615478,17.9883599 45.0633872,19.1330487 45.8359483,20.593672 C46.5943915,22.0276035 46.97,23.6532842 46.97,25.45 C46.97,27.2467158 46.5943915,28.8723965 45.8359483,30.306328 C45.0633872,31.7669513 43.9615478,32.9116401 42.5517864,33.7137457 C41.1575246,34.5070326 39.5618389,34.9 37.79,34.9 C35.9989156,34.9 34.3933444,34.507527 32.9982136,33.7137457 C31.5857884,32.9101245 30.4871027,31.7623355 29.724535,30.2977214 Z M40.7173772,27.7705668 C41.0570753,27.2020923 41.24,26.4255958 41.24,25.42 C41.24,24.4351549 41.0577799,23.6690868 40.7173772,23.0994332 C40.3707167,22.5193075 39.9625392,22.1275888 39.4813636,21.8902088 C38.9367209,21.6215184 38.3786564,21.49 37.79,21.49 C37.1798903,21.49 36.6119956,21.6221516 36.0686364,21.8902088 C35.5913551,22.1256676 35.1909308,22.51307 34.8545217,23.0877688 C34.5195586,23.6599974 34.34,24.4306031 34.34,25.42 C34.34,26.4301241 34.520241,27.2111683 34.8545217,27.7822312 C35.193407,28.3611603 35.5987562,28.7566229 36.0829472,29.0019463 C36.6228701,29.2755073 37.185616,29.41 37.79,29.41 C38.372886,29.41 38.925828,29.2761669 39.4670528,29.0019463 C39.9551158,28.7546611 40.3682027,28.3548995 40.7173772,27.7705668 Z M53.2382136,33.7137457 C51.8257884,32.9101245 50.7271027,31.7623355 49.964535,30.2977214 C49.2190132,28.8658462 48.85,27.2433596 48.85,25.45 C48.85,23.6566404 49.2190132,22.0341538 49.964535,20.6022786 C50.7271027,19.1376645 51.8257884,17.9898755 53.2382136,17.1862543 C54.6333444,16.392473 56.2389156,16 58.03,16 C59.8018389,16 61.3975246,16.3929674 62.7917864,17.1862543 C64.2015478,17.9883599 65.3033872,19.1330487 66.0759483,20.593672 C66.8343915,22.0276035 67.21,23.6532842 67.21,25.45 C67.21,27.2467158 66.8343915,28.8723965 66.0759483,30.306328 C65.3033872,31.7669513 64.2015478,32.9116401 62.7917864,33.7137457 C61.3975246,34.5070326 59.8018389,34.9 58.03,34.9 C56.2389156,34.9 54.6333444,34.507527 53.2382136,33.7137457 Z M60.9573772,27.7705668 C61.2970753,27.2020923 61.48,26.4255958 61.48,25.42 C61.48,24.4351549 61.2977799,23.6690868 60.9573772,23.0994332 C60.6107167,22.5193075 60.2025392,22.1275888 59.7213636,21.8902088 C59.1767209,21.6215184 58.6186564,21.49 58.03,21.49 C57.4198903,21.49 56.8519956,21.6221516 56.3086364,21.8902088 C55.8313551,22.1256676 55.4309308,22.51307 55.0945217,23.0877688 C54.7595586,23.6599974 54.58,24.4306031 54.58,25.42 C54.58,26.4301241 54.760241,27.2111683 55.0945217,27.7822312 C55.433407,28.3611603 55.8387562,28.7566229 56.3229472,29.0019463 C56.8628701,29.2755073 57.425616,29.41 58.03,29.41 C58.612886,29.41 59.165828,29.2761669 59.7070528,29.0019463 C60.1951158,28.7546611 60.6082027,28.3548995 60.9573772,27.7705668 Z M81.1144503,17.8092956 C81.336637,17.3204849 81.6943808,16.9193781 82.1555983,16.6185841 C82.6258838,16.3118762 83.1546794,16.15 83.71,16.15 C84.4960764,16.15 85.2066218,16.4497614 85.7504803,17.0145375 C86.2806701,17.5651192 86.56,18.2634438 86.56,19.03 C86.56,19.4294295 86.4652386,19.8274273 86.2938268,20.2388122 L81.064236,32.7412283 C80.8123751,33.3169104 80.4131832,33.7977551 79.8901935,34.1638479 C79.3392107,34.5495358 78.7091805,34.75 78.04,34.75 L77.74,34.75 C77.0708195,34.75 76.4407893,34.5495358 75.8898065,34.1638479 C75.3668168,33.7977551 74.9676249,33.3169104 74.7061732,32.7188122 L69.4853846,20.2369231 C69.3147614,19.8274273 69.22,19.4294295 69.22,19.03 C69.22,18.2634438 69.4993299,17.5651192 70.0295197,17.0145375 C70.5733782,16.4497614 71.2839236,16.15 72.07,16.15 C72.6253206,16.15 73.1541162,16.3118762 73.6244017,16.6185841 C74.0856192,16.9193781 74.443363,17.3204849 74.6954267,17.8797415 L77.8903169,25.9818161 L81.1144503,17.8092956 Z M96.7395982,22.7662472 C97.9753028,23.0804094 98.9921441,23.3928762 99.7973105,23.7084145 C100.768146,24.088877 101.606251,24.689409 102.295182,25.4953283 C103.074499,26.4069818 103.45,27.58308 103.45,28.96 C103.45,30.6890762 102.74428,32.1703894 101.394153,33.2932673 C100.086598,34.3807389 98.3248191,34.9 96.16,34.9 C93.9119759,34.9 91.8435237,34.3885695 89.9783534,33.3650005 L89.8349752,33.2754518 C89.095707,32.7536154 88.69,31.9660665 88.69,31.06 C88.69,30.3628971 88.9418812,29.721745 89.4142688,29.2064131 C89.9219652,28.6525624 90.6046108,28.36 91.36,28.36 C91.7549727,28.36 92.1416706,28.4459329 92.5012283,28.605764 C93.0655611,28.8526596 93.6262656,29.0454018 94.1838034,29.1847862 C94.6985358,29.3134693 95.2973117,29.38 95.98,29.38 C97.1523098,29.38 97.6115494,29.2478059 97.7550172,28.9903233 C97.3247816,28.8102679 96.6226245,28.589995 95.6936841,28.3494743 C94.4511657,28.0546395 93.4121455,27.7455975 92.5704548,27.4176661 C91.5829136,27.0329098 90.7278054,26.4434034 90.0209673,25.6594557 C89.2078102,24.7575905 88.81,23.5930916 88.81,22.24 C88.81,20.4117103 89.4984369,18.8576152 90.8396235,17.6890565 C92.1516407,16.5459128 93.944468,16 96.16,16 C97.8573085,16 99.4675941,16.2747935 100.983041,16.8258406 C101.565358,17.0058458 102.053633,17.3552902 102.394341,17.8549948 C102.709711,18.3175379 102.88,18.8397564 102.88,19.39 C102.88,20.1009667 102.61281,20.751516 102.117982,21.267858 C101.60324,21.80498 100.926318,22.09 100.18,22.09 C99.9391685,22.09 99.6952184,22.0524692 99.3454012,21.9625962 C98.3265252,21.6463933 97.3360342,21.49 96.37,21.49 C95.5537062,21.49 94.9822657,21.6218709 94.6429926,21.8387832 C94.4510516,21.9614996 94.4215312,22.005044 94.4200605,22.083315 C94.8583152,22.2821066 95.6230419,22.5194356 96.7395982,22.7662472 Z"/>
    <g transform="translate(112)">
      <path d="M30.1114045,30.6732022 C33.1827528,27.6012921 33.1827528,22.6215169 30.1114045,19.5501685 L13.426573,2.86533708 C10.3552247,-0.206011236 5.37544944,-0.206011236 2.30353933,2.86533708 C-0.767808989,5.93724719 -0.767808989,10.9170225 2.30353933,13.9883708 L18.9883708,30.6732022 C22.0597191,33.7445506 27.0394944,33.7445506 30.1114045,30.6732022" opacity=".8"/>
      <path d="M2.30376404,47.5271348 C-0.768146067,44.4552247 -0.768146067,39.4754494 2.30376404,36.4041011 L18.9885955,19.7192697 C22.0599438,16.6479213 27.0397191,16.6479213 30.1116292,19.7192697 C33.1824157,22.7911798 33.1824157,27.7709551 30.1116292,30.8423034 L13.426236,47.5271348 C10.3554494,50.5984831 5.37511236,50.5984831 2.30376404,47.5271348"/>
    </g>
  </g>
</svg>
