<svg height="82" viewBox="0 0 142 82" width="142" xmlns="http://www.w3.org/2000/svg"><filter id="a" height="130.5%" width="116.9%" x="-8.2%" y="-10.5%"><feOffset dy="2" in="SourceAlpha" result="shadowOffsetOuter1"/><feGaussianBlur in="shadowOffsetOuter1" result="shadowBlurOuter1" stdDeviation="2"/><feColorMatrix in="shadowBlurOuter1" result="shadowMatrixOuter1" values="0 0 0 0 0 0 0 0 0 0 0 0 0 0 0 0 0 0 0.2 0"/><feMerge><feMergeNode in="shadowMatrixOuter1"/><feMergeNode in="SourceGraphic"/></feMerge></filter><linearGradient id="b" x1="50%" x2="50%" y1="0%" y2="100%"><stop offset="0" stop-color="#2948ff"/><stop offset="1" stop-color="#396afc"/></linearGradient><linearGradient id="c" x1="103.038%" x2="0%" y1="0%" y2="100%"><stop offset="0" stop-color="#021b79"/><stop offset="1" stop-color="#396afc"/></linearGradient><g fill="none" fill-rule="evenodd"><g filter="url(#a)" transform="translate(28.515 2)"><path d="M65.818 29.727c.141.518.269 1.046.377 1.579H47.812a9.46 9.46 0 0 0-3.243.57c-.128.052-.25.1-.373.151-.061.024-.122.047-.184.076a9.425 9.425 0 0 0-5.63 8.633v2.357a23.479 23.479 0 0 1-4.94 14.432A23.553 23.553 0 0 1 19.57 66.18c-.014.005-.033.005-.047.01V7.481c0-.462.01-.924.033-1.381A23.178 23.178 0 0 1 20 .189c1.872-9.237 9.147-16.511 18.383-18.383a23.178 23.178 0 0 1 4.715-.476c9.943 0 18.448 6.162 21.914 14.875l.033.084c.033.076.061.151.085.227A22.98 22.98 0 0 1 66.195.189H47.812a9.36 9.36 0 0 0-3.8.796 7.892 7.892 0 0 0-.693.345c-.137.07-.269.146-.396.226-.132.075-.26.155-.382.245-.141.09-.278.189-.41.297-.104.07-.203.15-.302.236-.122.094-.24.198-.358.306a5.07 5.07 0 0 0-.325.311 5.07 5.07 0 0 0-.311.326 6.744 6.744 0 0 0-.298.344 6.732 6.732 0 0 0-.282.358c-.09.118-.175.24-.26.368-.17.25-.33.51-.471.778a6.625 6.625 0 0 0-.212.405c-.01.015-.014.033-.024.048a8.894 8.894 0 0 0-.165.372 7.953 7.953 0 0 0-.17.424v.01c-.052.141-.099.287-.146.429a7.97 7.97 0 0 0-.226.896c-.005.004-.01.014-.005.018a7.78 7.78 0 0 0-.085.458c-.019.118-.033.24-.047.358v.005c-.01.09-.019.184-.023.278a8.229 8.229 0 0 0-.038.792v3.305a23.178 23.178 0 0 1 5.643-.457 22.917 22.917 0 0 1 2.725.264h.015c.283.047.565.094.848.15.26.048.514.104.764.166.104.019.208.042.307.07.25.057.495.123.735.194.226.056.453.122.674.198.09.023.18.052.264.085.212.06.425.136.632.212a14.493 14.493 0 0 1 .896.34c.245.094.486.197.726.301l.132.061c.24.104.476.217.712.335a15.947 15.947 0 0 1 .806.415 23.083 23.083 0 0 1 3.607 2.395 15.941 15.941 0 0 1 .665.556c.217.189.433.382.64.576.015.014.03.028.043.037.198.189.392.377.58.566.16.16.316.32.472.486l.155.17c.175.183.34.372.51.565a.33.33 0 0 0 .037.047c.189.217.373.439.552.665.014.019.028.033.042.052a27.008 27.008 0 0 1 .99 1.344 23.413 23.413 0 0 1 2.117 3.795c.104.24.208.481.302.721.014.029.024.062.038.09l.033.085c.033.075.061.15.085.226.056.146.113.297.165.448.052.146.103.297.155.448.052.15.1.302.146.453.038.113.071.226.104.34.043.136.08.268.118.405" fill="url(#b)" transform="rotate(90 42.86 23.76)"/><path d="M32.254 15.747a9.46 9.46 0 0 0-3.244.57c-.123.048-.25.095-.373.152-.06.023-.122.047-.183.075C14.672 21.975 4.762 35.097 4.012 50.622c-.01.003-.025-9.19-.047-27.581 0-.462.01-.924.033-1.381-.014-.26-.023-.519-.028-.783-.005-.137-.005-.278-.005-.415 0-1.127.08-2.235.236-3.32.061-.47.146-.933.24-1.395C6.313 6.511 13.588-.763 22.824-2.636a23.178 23.178 0 0 1 5.644-.457 22.916 22.916 0 0 1 2.725.264 21.81 21.81 0 0 1 1.626.316c.104.019.208.042.307.07.25.057.495.123.735.194.227.057.453.123.675.198.09.024.179.052.264.085.212.061.424.137.631.212a14.493 14.493 0 0 1 .896.34c.245.094.486.198.726.301l.132.062c.24.103.476.216.712.334.311.151.561.279.806.415a23.083 23.083 0 0 1 3.607 2.395c.208.165.415.335.613.51.269.235.486.429.693.622a27.672 27.672 0 0 1 1.094 1.089l.156.17c.174.184.34.372.509.566a23.16 23.16 0 0 1 1.117 1.4c.17.23.34.467.505.707a23.413 23.413 0 0 1 2.103 3.762c.117.274.221.514.315.755.048.118.062.146.071.174.033.076.061.151.085.226.057.147.113.298.165.448l.156.448c.051.151.099.302.146.453.037.113.07.226.103.34.043.136.08.268.118.405.142.518.27 1.047.377 1.58z" fill="url(#b)" transform="rotate(90 27.3 23.76)"/><path d="M61.902-3.072a7.892 7.892 0 0 0-.693.345c-.136.07-.268.146-.396.226-.132.075-.259.155-.382.245-.141.09-.278.189-.41.297-.104.07-.203.15-.302.236-.122.094-.24.198-.358.306a5.07 5.07 0 0 0-.325.311 5.07 5.07 0 0 0-.311.326 6.744 6.744 0 0 0-.297.344 6.732 6.732 0 0 0-.283.358 5.84 5.84 0 0 0-.26.368c-.174.25-.33.51-.471.778a6.625 6.625 0 0 0-.212.405c-.01.015-.014.033-.024.048-.056.122-.113.245-.165.372a7.953 7.953 0 0 0-.17.424v.01a5.117 5.117 0 0 0-.146.429 7.97 7.97 0 0 0-.226.896c-.005.004-.01.014-.005.018a7.78 7.78 0 0 0-.085.458c-.018.118-.033.24-.047.358v.005a2.767 2.767 0 0 0-.023.278 8.229 8.229 0 0 0-.038.792v3.305c-9.236 1.872-16.511 9.147-18.383 18.383-.094.462-.179.924-.24 1.396C39.234 14.156 48.824 2.082 61.902-3.072" fill="url(#c)" opacity=".6" transform="rotate(90 49.776 12.786)"/><path d="M29.698-4.347a9.425 9.425 0 0 0-5.63 8.633v2.357a23.479 23.479 0 0 1-4.94 14.432 23.553 23.553 0 0 1-13.871 8.656c.75-15.525 10.66-28.647 24.441-34.078" fill="url(#c)" opacity=".6" transform="rotate(90 17.478 12.692)"/><circle cx="12.306" cy="8.062" fill="#fff" r="2.122"/></g><path d="M0 64.257h5.703v11.977h5.584v4.847H0zm22.408 17.3c-1.315 0-2.46-.183-3.434-.547-.974-.364-1.786-.863-2.435-1.497s-1.133-1.382-1.45-2.246a8.042 8.042 0 0 1-.475-2.792V64.257h5.655v9.6c0 .808.194 1.438.582 1.89.389.451.94.677 1.652.677.713 0 1.263-.226 1.651-.677.389-.452.583-1.082.583-1.89v-9.6h5.631v10.218a7.54 7.54 0 0 1-.51 2.792 6.21 6.21 0 0 1-1.51 2.246c-.665.634-1.493 1.133-2.483 1.497-.99.364-2.142.546-3.457.546zm13.236-17.3h5.703v16.824h-5.703zm15.897 0h6.011l6.559 16.824h-6.155l-.879-2.471h-5.346l-.832 2.471h-5.988zm2.922 5.87l-1.378 4.158h2.733zm17.893-5.87h6.012l6.559 16.824h-6.155l-.879-2.471h-5.346l-.832 2.471h-5.988zm2.923 5.87l-1.378 4.158h2.733zm13.212-5.87h7.248c.823 0 1.643.084 2.459.25s1.545.46 2.186.88c.642.419 1.16.981 1.557 1.686s.594 1.588.594 2.65c0 1.03-.254 1.936-.76 2.72-.508.785-1.236 1.39-2.187 1.818l4.277 6.82h-6.51l-3.232-6.012h-.167v6.012h-5.465zm5.418 7.105h1.117c.19 0 .4-.015.63-.047.23-.032.443-.1.641-.202s.364-.246.499-.428.202-.424.202-.725-.055-.538-.166-.712a1.068 1.068 0 0 0-.428-.393 1.7 1.7 0 0 0-.57-.166 5 5 0 0 0-.57-.036h-1.355zm13.925 9.72V64.256h6.273c1.33 0 2.602.131 3.814.393 1.212.26 2.281.712 3.208 1.354s1.667 1.493 2.221 2.554c.555 1.062.832 2.4.832 4.016 0 1.474-.265 2.749-.796 3.826-.53 1.077-1.24 1.96-2.127 2.65a8.993 8.993 0 0 1-3.065 1.532 13 13 0 0 1-3.612.5zm5.441-12.025v7.177h1.046c1.33 0 2.352-.29 3.065-.868.713-.578 1.07-1.524 1.07-2.84 0-1.092-.357-1.944-1.07-2.554-.713-.61-1.663-.915-2.851-.915zm21.173 12.5c-.682 0-1.351-.06-2.008-.179s-1.291-.293-1.901-.523c-.61-.23-1.185-.499-1.723-.807a8.65 8.65 0 0 1-1.45-1.034l3.446-3.755c.396.428.923.808 1.58 1.141s1.335.499 2.032.499c.317 0 .606-.055.867-.166.261-.111.392-.317.392-.618a.634.634 0 0 0-.13-.404c-.088-.111-.242-.226-.464-.345a7.455 7.455 0 0 0-.915-.392 41.403 41.403 0 0 0-1.461-.499c-.57-.19-1.117-.416-1.64-.677s-.986-.582-1.39-.962a4.223 4.223 0 0 1-.962-1.367c-.238-.53-.357-1.168-.357-1.913 0-1.045.214-1.932.642-2.661s.978-1.327 1.651-1.794c.674-.467 1.43-.804 2.27-1.01s1.671-.309 2.495-.309c1.109 0 2.237.214 3.386.642a9.053 9.053 0 0 1 3.03 1.853l-3.517 3.588c-.38-.475-.848-.835-1.402-1.08s-1.054-.37-1.497-.37c-.412 0-.745.06-.998.18-.254.118-.38.312-.38.581 0 .254.13.444.392.57.261.127.685.286 1.27.476.603.19 1.237.412 1.902.665s1.28.582 1.842.986 1.025.9 1.39 1.485c.364.587.546 1.315.546 2.187 0 1.013-.202 1.897-.606 2.65s-.934 1.377-1.592 1.876-1.398.872-2.222 1.117a8.772 8.772 0 0 1-2.518.368z" fill="#000"/></g></svg>