<svg height="68" viewBox="0 0 194 68" width="194" xmlns="http://www.w3.org/2000/svg" xmlns:xlink="http://www.w3.org/1999/xlink"><filter id="b" height="123.3%" width="107.5%" x="-3.7%" y="-8.3%"><feOffset dy="2" in="SourceAlpha" result="shadowOffsetOuter1"/><feGaussianBlur in="shadowOffsetOuter1" result="shadowBlurOuter1" stdDeviation="2"/><feComposite in="shadowBlurOuter1" in2="SourceAlpha" operator="out" result="shadowBlurOuter1"/><feColorMatrix in="shadowBlurOuter1" result="shadowMatrixOuter1" values="0 0 0 0 0 0 0 0 0 0 0 0 0 0 0 0 0 0 0.24 0"/><feMerge><feMergeNode in="shadowMatrixOuter1"/><feMergeNode in="SourceGraphic"/></feMerge></filter><linearGradient id="c" x1="-12.971%" x2="58.033%" y1="151.212%" y2="25.464%"><stop offset="0" stop-color="#ea2866"/><stop offset=".17" stop-color="#ea2d62"/><stop offset=".382" stop-color="#eb3d58"/><stop offset=".478" stop-color="#eb4652"/><stop offset=".588" stop-color="#ed5545"/><stop offset=".801" stop-color="#f37e24"/><stop offset="1" stop-color="#f9a900"/></linearGradient><linearGradient id="d" x1="11.759%" x2="101.172%" y1="93.062%" y2="18.796%"><stop offset="0" stop-color="#e9473d"/><stop offset=".286" stop-color="#ea4b3a"/><stop offset=".561" stop-color="#ec5632"/><stop offset=".829" stop-color="#f06a25"/><stop offset="1" stop-color="#f37a1a"/></linearGradient><linearGradient id="a"><stop offset="0" stop-color="#0098de"/><stop offset=".127" stop-color="#0493d9"/><stop offset=".285" stop-color="#0f83cc"/><stop offset=".459" stop-color="#216ab7"/><stop offset=".478" stop-color="#2367b4"/><stop offset=".683" stop-color="#325eac"/><stop offset="1" stop-color="#524b9d"/></linearGradient><linearGradient id="e" x1="52.639%" x2="28.775%" xlink:href="#a" y1="82.177%" y2="4.535%"/><linearGradient id="f" x1="46.517%" x2="21.915%" xlink:href="#a" y1="55.505%" y2="126.421%"/><g fill="none" filter="url(#b)" transform="translate(4 2)"><path d="M61 30c0 3.3-1.8 6.2-4.5 7.7l-.9.5-9.7 4.8-4.3 2.1c-3.4 1.4-7.2 2.1-11 2.1-3.2 0-8.9 2.4-13.8.7C8.6 45 2.7 32.5 2.7 32.5L1 25s.1-3.2 0-7V8C1.1 4.4 3.3 2 6.4.7 7.4.3 8.6 0 9.8 0s2.3.2 3.4.7h.1l.9.4 41.4 20.7.9.5c1.1.6 2 1.4 2.8 2.4C60.4 26.2 61 28 61 30z" fill="url(#c)"/><path d="M61 30c0 3.3-1.8 6.2-4.5 7.7l-.9.5h-.1L45.8 43c6.6-4 11.5-10.6 13.4-18.3C60.3 26.2 61 28 61 30z" fill="url(#d)"/><path d="M41.6 45.2L14.2 58.9l-.9.4c-1.1.4-2.2.7-3.5.7-4.9 0-8.9-4-8.9-8.9V17c.3 16.1 13.4 30.3 29.5 30.3 4 0 7.8-.7 11.2-2.1z" fill="url(#e)"/><path d="M41.6 45.2c-3.3 1.5-9.8 2.8-13.1 2.8C13.5 48 1.3 35.8 1 20.6v-3.9c.3 16.2 13.3 30.5 29.3 30.5 3.4 0 8.4-.7 11.3-2z" fill="url(#f)"/><path d="M99.6 34h-11v13h-9V13h22v7h-13v7h11zm32 13h-24V13h9v27h15zm5 0V13h9v34zm38 0l-7-9.1-7 9.1h-12l13.2-16.8L148.6 13h12l7 9 7-9h12l-13.1 16.8L186.6 47z" fill="#fff"/></g></svg>