<svg height="94" viewBox="0 0 77 94" width="77" xmlns="http://www.w3.org/2000/svg"><filter id="a" height="107.8%" width="110%" x="-4.8%" y="-2.8%"><feOffset dy="1" in="SourceAlpha" result="shadowOffsetOuter1"/><feGaussianBlur in="shadowOffsetOuter1" result="shadowBlurOuter1" stdDeviation="1"/><feComposite in="shadowBlurOuter1" in2="SourceAlpha" operator="out" result="shadowBlurOuter1"/><feColorMatrix in="shadowBlurOuter1" result="shadowMatrixOuter1" values="0 0 0 0 0 0 0 0 0 0 0 0 0 0 0 0 0 0 0.24 0"/><feMerge><feMergeNode in="shadowMatrixOuter1"/><feMergeNode in="SourceGraphic"/></feMerge></filter><g fill="none" fill-rule="evenodd" filter="url(#a)" transform="translate(2 1)"><path d="M14.655 78.182h-2.837v11.764h9.014v-2.63h-6.177zm9.354 0v11.764h9.014v-2.63h-6.176v-2.024h5.155v-2.456h-5.155v-2.024h6.176v-2.63zm22 11.764l-.76-1.834h-5.675l-.778 1.834h-3.01l5.034-11.764h3.166l5.051 11.764zm-5.449-4.152h3.703L42.429 81.4zm20.565-7.612H52.11v11.764h2.838v-3.823h5.155V83.51H54.95v-2.698h6.176z" fill="#fff"/><path d="M37.888 26.79c-.443-3.283-2.628-6.879-6.556-10.788 2.257 4.518 3.147 8.715 2.67 12.593a9.49 9.49 0 0 1-.65 2.429c-.605 0-1.22-.04-1.842-.117-6.209-.763-10.816-4.851-9.625-14.546.793-6.463 5.259-11.854 13.397-16.173 6.851 6.16 9.88 12.47 9.087 18.934a22.932 22.932 0 0 1-.714 3.584 38.957 38.957 0 0 0-5.767 4.083z" fill="#5c6d4b"/><path d="M26.127 57.646c-3.712-2.433-8.995-4.001-15.85-4.705 7.015 3.19 12.103 7.315 15.263 12.372a14.423 14.423 0 0 1 1.533 3.416c-7.333 3.14-15.391 1.435-22.307-9.631-5.266-8.429-5.148-19.113.357-32.053 11.178.577 19.576 3.595 25.194 9.053-.34.624-.663 1.26-.966 1.911-3.45 7.4-4.448 14.023-3.224 19.637z" fill="#77911c"/><path d="M38.15 68.191c-8.296-5.148-12.19-14.318-5.503-28.658 4.945-10.605 15.57-17.339 31.877-20.201 8.289 14.331 9.96 26.8 5.015 37.404-6.493 13.925-15.665 17.073-24.684 14.455.255-1.428.665-2.85 1.3-4.211 2.968-6.363 8.321-11.912 16.062-16.647-12.013 2.743-19.503 7.295-22.47 13.658a30.468 30.468 0 0 0-1.598 4.2z" fill="#83ab27"/></g></svg>