<?xml version="1.0" encoding="UTF-8" standalone="no"?>
<svg width="44px" height="44px" viewBox="0 0 44 44" version="1.1" xmlns="http://www.w3.org/2000/svg" xmlns:xlink="http://www.w3.org/1999/xlink">
    <!-- Generator: Sketch 39.1 (31720) - http://www.bohemiancoding.com/sketch -->
    <title>Group 13</title>
    <desc>Created with Sketch.</desc>
    <defs></defs>
    <g id="Page-1" stroke="none" stroke-width="1" fill="none" fill-rule="evenodd">
        <g id="01-Leaplines-home-v3-@2x" transform="translate(-137.000000, -3818.000000)">
            <g id="Group-13" transform="translate(137.000000, 3818.000000)">
                <g id="Group">
                    <polyline id="Stroke-573" stroke="#000000" stroke-width="1.5" stroke-linejoin="round" points="25.6666667 17.4166667 29.3333333 17.4166667 29.3333333 24.75 36.6666667 17.4166667 43.0833333 17.4166667 43.0833333 0.916666667 15.5833333 0.916666667 15.5833333 8.25"></polyline>
                    <path d="M11,29.6770833 L11,33.6774167 L3.77483333,36.26425 C2.04416667,36.8820833 0.916666667,38.51925 0.916666667,40.3544167 L0.916666667,43.0824167 L28.4166667,43.0824167 L28.4166667,40.3544167 C28.4166667,38.51925 27.2891667,36.8820833 25.5585,36.26425 L18.3333333,33.6774167 L18.3333333,29.4479167" id="Stroke-574" stroke="#000000" stroke-width="1.5" stroke-linejoin="round"></path>
                    <path d="M21.7224333,22.0966167 C21.7224333,26.8907833 18.4829333,30.7811167 14.4862667,30.7811167 C10.4896,30.7811167 7.24826667,26.8907833 7.24826667,22.0966167 C7.24826667,17.3006167 10.4896,13.41395 14.4862667,13.41395 C18.4829333,13.41395 21.7224333,17.3006167 21.7224333,22.0966167 L21.7224333,22.0966167 Z" id="Stroke-575" stroke="#000000" stroke-width="1.5" stroke-linejoin="round"></path>
                    <path d="M21.68485,21.3106667 C21.4410167,21.3436667 21.24485,21.3271667 20.9991833,21.373 C18.53335,21.8478333 16.9511833,20.955 15.5945167,18.5808333 C14.7786833,20.1391667 12.23585,21.373 10.1440167,21.373 C9.11551667,21.373 8.22818333,21.1621667 7.34268333,20.6983333" id="Stroke-576" stroke="#1F76DA" stroke-width="1.5" stroke-linejoin="round"></path>
                    <polygon id="Fill-577" fill="#1F76DA" points="36.6666667 8.16666667 33.8333333 8.16666667 33.8333333 11 36.6666667 11"></polygon>
                    <polygon id="Fill-578" fill="#1F76DA" points="31.1666667 8.16666667 28.3333333 8.16666667 28.3333333 11 31.1666667 11"></polygon>
                    <polygon id="Fill-579" fill="#1F76DA" points="25.6666667 8.16666667 22.8333333 8.16666667 22.8333333 11 25.6666667 11"></polygon>
                </g>
            </g>
        </g>
    </g>
</svg>