<?xml version="1.0" encoding="UTF-8" standalone="no"?>
<svg width="36px" height="36px" viewBox="0 0 36 36" version="1.1" xmlns="http://www.w3.org/2000/svg" xmlns:xlink="http://www.w3.org/1999/xlink">
    <!-- Generator: Sketch 39.1 (31720) - http://www.bohemiancoding.com/sketch -->
    <title>Group</title>
    <desc>Created with Sketch.</desc>
    <defs></defs>
    <g id="Page-1" stroke="none" stroke-width="1" fill="none" fill-rule="evenodd" stroke-linecap="round" stroke-linejoin="round">
        <g id="03-Leaplines-productdetail-v3-@2x-Copy" transform="translate(-137.000000, -2135.000000)" stroke-width="1.5">
            <g id="Group" transform="translate(137.000000, 2135.000000)">
                <path d="M35.25,18 C35.25,27.5265 27.528,35.25 18,35.25 C8.472,35.25 0.75,27.5265 0.75,18 C0.75,8.472 8.472,0.75 18,0.75 C27.528,0.75 35.25,8.472 35.25,18 L35.25,18 Z" id="Stroke-380" stroke="#000000"></path>
                <path d="M29.25,19.5 C29.25,25.7145 24.2145,30.75 18,30.75 C11.7855,30.75 6.75,25.7145 6.75,19.5" id="Stroke-381" stroke="#000000"></path>
                <path d="M8.25,15 C8.25,13.3425 9.5925,12 11.25,12 C12.9075,12 14.25,13.3425 14.25,15" id="Stroke-382" stroke="#1F76DA"></path>
                <path d="M27.75,15 C27.75,13.3425 26.4075,12 24.75,12 C23.0925,12 21.75,13.3425 21.75,15" id="Stroke-383" stroke="#1F76DA"></path>
            </g>
        </g>
    </g>
</svg>