
<svg id="step-1" class="icon" width="40px" height="38px" viewBox="83 3789 40 38" version="1.1" xmlns="http://www.w3.org/2000/svg" xmlns:xlink="http://www.w3.org/1999/xlink">

    <g id="Group-11" stroke="none" stroke-width="1" fill="none" fill-rule="evenodd" transform="translate(83.000000, 3789.000000)" stroke-linejoin="round">
        <g class="wrapper" id="Group" stroke-width="1.5">
            <polygon id="Stroke-375" stroke="#2076DA" points="26.6666667 30.5652174 13.3333333 30.5652174 14.1666667 27.2608696 25.8333333 27.2608696"></polygon>
            <path d="M35.8333333,3.30434783 C35.8333333,1.93634783 34.715,0.826086957 33.3333333,0.826086957 L6.66666667,0.826086957 C5.28666667,0.826086957 4.16666667,1.93634783 4.16666667,3.30434783 L4.16666667,22.3043478 L0.833333333,33.8695652 L0.833333333,34.6956522 C0.833333333,36.0636522 1.95333333,37.173913 3.33333333,37.173913 L36.6666667,37.173913 C38.0483333,37.173913 39.1666667,36.0636522 39.1666667,34.6956522 L39.1666667,33.8695652 L35.8333333,21.4782609 L35.8333333,3.30434783 L35.8333333,3.30434783 Z" id="Stroke-376" stroke="#4A4A4A"></path>
            <path d="M4.16666667,22 L35.8333333,22" id="Stroke-377" stroke="#4A4A4A"></path>
            <path d="M0.833333333,33 L39.1666667,33" id="Stroke-378" stroke="#4A4A4A"></path>
            <polygon id="Stroke-379" stroke="#4A4A4A" points="32.5 19 7.5 19 7.5 4.13043478 32.5 4.13043478"></polygon>
        </g>
        <g id="Group-8" transform="translate(20.318182, 12.090909) scale(-1, 1) rotate(-270.000000) translate(-20.318182, -12.090909) translate(15.318182, 6.590909)" stroke-width="1.5" stroke-linecap="round">
            <path d="M10,5.18181818 C10,8.04477273 7.7625,10.3636364 5,10.3636364 C2.23916667,10.3636364 -8.8817842e-16,8.04477273 -8.8817842e-16,5.18181818 C-8.8817842e-16,2.31886364 2.23916667,0 5,0 C7.7625,0 10,2.31886364 10,5.18181818 L10,5.18181818 Z" id="Stroke-90" stroke="#2076DA"></path>
            <path d="M5,7.34090909 L5,3.02272727" id="Stroke-91" stroke="#4A4A4A"></path>
            <polyline id="Stroke-92" stroke="#4A4A4A" points="3.33333333 5.61363636 5 7.34090909 6.66666667 5.61363636"></polyline>
        </g>
    </g>
</svg>
