<?xml version="1.0" encoding="UTF-8" standalone="no"?>
<svg class="icon" width="44px" height="44px" viewBox="0 0 44 44" version="1.1" xmlns="http://www.w3.org/2000/svg" xmlns:xlink="http://www.w3.org/1999/xlink">
    <!-- Generator: Sketch 39.1 (31720) - http://www.bohemiancoding.com/sketch -->
    <title>Group 19</title>
    <desc>Created with Sketch.</desc>
    <defs></defs>
    <g id="Page-1" stroke="none" stroke-width="1" fill="none" fill-rule="evenodd" stroke-linecap="round" stroke-linejoin="round">
        <g id="01-Leaplines-home-v3-@2x" transform="translate(-133.000000, -3821.000000)" stroke-width="1.5">
            <g id="Group-19" transform="translate(134.000000, 3821.000000)">
                <g class="wrapper" id="Group" transform="translate(0.106871, 0.582264)">
                    <path d="M26.6273889,5.76665487 C26.6273889,8.77060057 24.189404,11.2085855 21.1854583,11.2085855 C18.1796986,11.2085855 15.7435277,8.77060057 15.7435277,5.76665487 C15.7435277,2.7608952 18.1796986,0.324724255 21.1854583,0.324724255 C24.189404,0.324724255 26.6273889,2.7608952 26.6273889,5.76665487 L26.6273889,5.76665487 Z" id="Stroke-516" stroke="#4A4A4A"></path>
                    <path d="M29.3483542,14.8365392 L13.0225624,14.8365392 C13.0225624,18.6150531 14.8365392,23.9064236 18.464493,25.1762074 L18.464493,32.976308 L23.9064236,32.976308 L23.9064236,25.1762074 C27.5343773,23.9064236 29.3483542,18.6150531 29.3483542,14.8365392 L29.3483542,14.8365392 Z" id="Stroke-517" stroke="#4A4A4A"></path>
                    <path d="M28.4767383,31.7362734 C31.7473386,32.311304 33.8823894,33.2618279 33.8823894,34.3375162 C33.8823894,36.0898179 28.1973859,37.5119757 21.1845513,37.5119757 C14.1735307,37.5119757 8.48671319,36.0898179 8.48671319,34.3375162 C8.48671319,33.2600139 10.6344618,32.3076761 13.91776,31.7344594" id="Stroke-518" stroke="#1F76DA"></path>
                    <path d="M28.4466263,27.9842436 C36.3864031,29.0109545 42.0460109,31.6702446 42.0460109,34.7902848 C42.0460109,38.7955458 32.705844,42.0461923 21.1852769,42.0461923 C9.66470978,42.0461923 0.324542857,38.7955458 0.324542857,34.7902848 C0.324542857,31.6702446 5.9841507,29.0109545 13.9275554,27.9842436" id="Stroke-519" stroke="#4A4A4A"></path>
                </g>
            </g>
        </g>
    </g>
</svg>
