<?xml version="1.0" encoding="UTF-8" standalone="no"?>
<svg width="40px" height="38px" viewBox="0 0 40 38" version="1.1" xmlns="http://www.w3.org/2000/svg" xmlns:xlink="http://www.w3.org/1999/xlink">
    <!-- Generator: Sketch 39.1 (31720) - http://www.bohemiancoding.com/sketch -->
    <title>Group 10</title>
    <desc>Created with Sketch.</desc>
    <defs></defs>
    <g id="Page-1" stroke="none" stroke-width="1" fill="none" fill-rule="evenodd" stroke-linecap="round" stroke-linejoin="round">
        <g id="01-Leaplines-home-v3-@2x" transform="translate(-136.000000, -3969.000000)" stroke-width="1.5">
            <g id="Group-10" transform="translate(136.000000, 3969.000000)">
                <g id="Stroke-551-+-Stroke-552-+-Stroke-553">
                    <polyline id="Stroke-551" stroke="#1F76DA" points="7.5 8.55 5.83333333 8.55 5.83333333 29.45 34.1666667 29.45 34.1666667 25.65"></polyline>
                    <polygon id="Stroke-552" stroke="#000000" points="39.1666667 21.85 10.8333333 21.85 10.8333333 0.95 39.1666667 0.95"></polygon>
                    <polyline id="Stroke-553" stroke="#000000" points="2.5 16.15 0.833333333 16.15 0.833333333 37.05 29.1666667 37.05 29.1666667 33.25"></polyline>
                </g>
                <g id="Group-8" transform="translate(25.433333, 10.977778) scale(-1, 1) rotate(-270.000000) translate(-25.433333, -10.977778) translate(20.433333, 5.477778)">
                    <path d="M10,5.06666667 C10,7.866 7.7625,10.1333333 5,10.1333333 C2.23916667,10.1333333 -8.8817842e-16,7.866 -8.8817842e-16,5.06666667 C-8.8817842e-16,2.26733333 2.23916667,0 5,0 C7.7625,0 10,2.26733333 10,5.06666667 L10,5.06666667 Z" id="Stroke-90" stroke="#1F76DA"></path>
                    <path d="M5,7.17777778 L5,2.95555556" id="Stroke-91" stroke="#000000"></path>
                    <polyline id="Stroke-92" stroke="#000000" points="3.33333333 5.48888889 5 7.17777778 6.66666667 5.48888889"></polyline>
                </g>
            </g>
        </g>
    </g>
</svg>