<svg xmlns="http://www.w3.org/2000/svg" width="22" height="26" viewBox="0 0 22 26">
  <g fill="#FFFFFF" fill-rule="evenodd" stroke="#FFFFFF" transform="translate(1 1)">
    <path d="M9.91094258,7 C10.4124426,7 10.8671926,7.4097 10.8671926,7.4097 L15.5651426,12.0592 C15.7797514,12.2734573 15.9001351,12.5644011 15.8996565,12.8676549 C15.8991779,13.1709088 15.7778766,13.4614712 15.5625926,13.67505 C15.1160635,14.1218826 14.3921275,14.1230232 13.9441926,13.6776 L11.0567426,10.7927 L11.0567426,22.861 C11.0567426,23.48915 10.5484426,24 9.91094258,24 C9.27854258,24 8.76514258,23.48575 8.76514258,22.86015 L8.76514258,10.87005 L5.95589258,13.6776 C5.50795764,14.1230232 4.78402165,14.1218826 4.33749258,13.67505 C4.12194749,13.4614378 4.00048007,13.1706931 4.00000142,12.8672303 C3.99952277,12.5637676 4.12007241,12.2726411 4.33494258,12.05835 L8.87819258,7.46835 C8.87819258,7.46835 9.41029258,7 9.91094258,7 Z"/>
    <rect width="20" height="2" rx="1"/>
  </g>
</svg>
