<svg xmlns="http://www.w3.org/2000/svg" width="22" height="22" viewBox="0 0 22 22">
  <g class="icon" fill="none" fill-rule="evenodd" stroke="#FF006A" stroke-width="2" transform="translate(1 1)" stroke-linecap="round" stroke-linejoin="round">
    <path d="M6.21033333 8.3284C6.86633333 7.67173333 6.86633333 6.60706667 6.21033333 5.95106667L4.427 4.16773333C3.77033333 3.51106667 2.70566667 3.51106667 2.049 4.16773333L1.071 5.14573333C.223 5.9944.0916666667 7.31773333.753 8.3184 3.59433333 12.6144 7.385 16.4050667 11.6803333 19.2457333 12.6796667 19.9064 14.007 19.7744 14.853 18.9277333L15.8316667 17.9497333C16.4883333 17.2937333 16.4883333 16.2290667 15.8316667 15.5724L14.0483333 13.7890667C13.3916667 13.1330667 12.3276667 13.1330667 11.6703333 13.7890667L11.0763333 14.3837333C9.121 12.7810667 7.21766667 10.8784 5.61566667 8.9224L6.21033333 8.3284zM9.9994.333333333C15.3380667.333333333 19.6660667 4.66133333 19.6660667 10M9.9994 3.6956C13.4814 3.6956 16.3040667 6.51826667 16.3040667 10.0002667M9.9994 7.05793333C11.6247333 7.05793333 12.9414 8.37526667 12.9414 9.99993333"/>
  </g>
</svg>
