<svg xmlns="http://www.w3.org/2000/svg" width="16" height="18" viewBox="0 0 16 18">
  <path fill="#FF006A" fill-rule="evenodd" d="M15.6206927,13.5 C15.8670179,12.0813883 16,10.5693211 16,9 C16,7.43067895 15.8670179,5.91861172 15.6206927,4.5 C14.5426548,3.57251251 13.3288126,2.69869046 12,1.91402994 C10.6711874,1.12936941 9.32436304,0.491124226 8,0 C6.67563696,0.491124226 5.3288126,1.12936941 4,1.91402994 C2.6711874,2.69869046 1.45734517,3.57251251 0.379307346,4.5 C0.132982136,5.91861172 0,7.43067895 0,9 C0,10.5693211 0.132982136,12.0813883 0.379307346,13.5 C1.45734517,14.4274875 2.6711874,15.3013095 4,16.0859701 C5.3288126,16.8706306 6.67563696,17.5088758 8,18 C9.32436304,17.5088758 10.6711874,16.8706306 12,16.0859701 C13.3288126,15.3013095 14.5426548,14.4274875 15.6206927,13.5 L15.6206927,13.5 Z"/>
</svg>
