<svg xmlns="http://www.w3.org/2000/svg" width="20" height="14" viewBox="0 0 20 14">
  <path fill="#FF006A" fill-rule="evenodd" d="M20,6.954 C20,7.544 19.518,8.079 19.518,8.079 L14.048,13.606 C13.7959326,13.858481 13.4536458,14.0001088 13.0968766,13.9995458 C12.7401073,13.9989827 12.3982692,13.8562753 12.147,13.603 C11.6213146,13.0776717 11.6199727,12.2259823 12.144,11.699 L15.538,8.302 L1.34,8.302 C0.601,8.302 0,7.704 0,6.954 C0,6.21 0.605,5.606 1.341,5.606 L15.447,5.606 L12.144,2.301 C11.6199727,1.77401772 11.6213146,0.922328319 12.147,0.397 C12.3983085,0.143417536 12.7403611,0.000514689987 13.0973761,-4.84251537e-05 C13.4543911,-0.000611540295 13.7968928,0.141211567 14.049,0.394 L19.449,5.739 C19.449,5.739 20,6.365 20,6.954 Z"/>
</svg>
