<svg xmlns="http://www.w3.org/2000/svg" width="20" height="20" viewBox="0 0 20 20">
  <path class="icon-facebook" fill="#FFFFFF" fill-rule="evenodd" d="M98.8932292,0 C99.1970501,0 99.4574642,0.108505859 99.6744792,0.325520833 C99.8914941,0.542535807 100,0.80294987 100,1.10677083 L100,18.8932292 C100,19.1970501 99.8914941,19.4574642 99.6744792,19.6744792 C99.4574642,19.8914941 99.1970501,20 98.8932292,20 L93.8020833,20 L93.8020833,12.2526042 L96.3932292,12.2526042 L96.7838542,9.23177083 L93.8020833,9.23177083 L93.8020833,7.3046875 C93.8020833,6.81857396 93.9040788,6.45399427 94.1080729,6.2109375 C94.312067,5.96788073 94.7091984,5.84635417 95.2994792,5.84635417 L96.8880208,5.83333333 L96.8880208,3.13802083 C96.3411431,3.05989544 95.5685814,3.02083333 94.5703125,3.02083333 C93.389751,3.02083333 92.4457501,3.36805208 91.7382812,4.0625 C91.0308124,4.75694792 90.6770833,5.73784089 90.6770833,7.00520833 L90.6770833,9.23177083 L88.0729167,9.23177083 L88.0729167,12.2526042 L90.6770833,12.2526042 L90.6770833,20 L81.1067708,20 C80.8029499,20 80.5425358,19.8914941 80.3255208,19.6744792 C80.1085059,19.4574642 80,19.1970501 80,18.8932292 L80,1.10677083 C80,0.80294987 80.1085059,0.542535807 80.3255208,0.325520833 C80.5425358,0.108505859 80.8029499,0 81.1067708,0 L98.8932292,0 Z" transform="translate(-80)"/>
</svg>
