<svg xmlns="http://www.w3.org/2000/svg" width="20" height="20" viewBox="0 0 20 20">
  <path class="icon-dribbble" fill="#FFFFFF" fill-rule="evenodd" d="M10,0 C11.3802152,0 12.6757752,0.263669238 13.8867188,0.791015625 C15.0976623,1.31836201 16.1555944,2.03450068 17.0605469,2.93945312 C17.9654993,3.84440557 18.681638,4.9023377 19.2089844,6.11328125 C19.7363308,7.3242248 20,8.61978477 20,10 C20,11.3802152 19.7363308,12.6757752 19.2089844,13.8867188 C18.681638,15.0976623 17.9654993,16.1555944 17.0605469,17.0605469 C16.1555944,17.9654993 15.0976623,18.681638 13.8867188,19.2089844 C12.6757752,19.7363308 11.3802152,20 10,20 C8.61978477,20 7.3242248,19.7363308 6.11328125,19.2089844 C4.9023377,18.681638 3.84440557,17.9654993 2.93945312,17.0605469 C2.03450068,16.1555944 1.31836201,15.0976623 0.791015625,13.8867188 C0.263669238,12.6757752 0,11.3802152 0,10 C0,8.97134902 0.149738086,7.98828594 0.44921875,7.05078125 C0.748699414,6.11327656 1.16210674,5.2473998 1.68945312,4.453125 C2.21679951,3.6588502 2.85155879,2.95247705 3.59375,2.33398438 C4.33594121,1.7154917 5.14973516,1.2174498 6.03515625,0.83984375 C6.04817715,0.826822852 6.06445303,0.813802148 6.08398438,0.80078125 C6.10351572,0.787760352 6.12630195,0.78125 6.15234375,0.78125 C6.73828418,0.53385293 7.35676758,0.341797559 8.0078125,0.205078125 C8.65885742,0.0683586914 9.32291328,0 10,0 Z M18.75,10 C18.75,9.44010137 18.6979172,8.89648701 18.59375,8.36914062 C18.4895828,7.84179424 18.3430999,7.33073164 18.1542969,6.8359375 C17.9654938,6.34114336 17.7311212,5.87239805 17.4511719,5.4296875 C17.1712226,4.98697695 16.8619809,4.57031445 16.5234375,4.1796875 C16.3802076,4.44010547 16.1816419,4.73307129 15.9277344,5.05859375 C15.6738269,5.38411621 15.3450541,5.72265449 14.9414062,6.07421875 C14.5377584,6.42578301 14.0462269,6.77734199 13.4667969,7.12890625 C12.8873669,7.48047051 12.1940145,7.81249844 11.3867188,8.125 L11.4648438,8.28125 C11.6341154,8.59375156 11.793619,8.90624844 11.9433594,9.21875 C12.0930997,9.53125156 12.2330723,9.83723809 12.3632812,10.1367188 C13.1054725,9.96744707 13.8118456,9.86653662 14.4824219,9.83398438 C15.1529981,9.80143213 15.761716,9.80143213 16.3085938,9.83398438 C16.8554715,9.86653662 17.3372375,9.92187461 17.7539062,10 C18.170575,10.0781254 18.4960926,10.1497393 18.7304688,10.2148438 C18.7434896,10.1757811 18.75,10.1399741 18.75,10.1074219 L18.75,10 Z M15.5859375,3.26171875 C14.8177045,2.63671562 13.9583381,2.14518408 13.0078125,1.78710938 C12.0572869,1.42903467 11.0546928,1.25 10,1.25 C9.54426855,1.25 9.09830947,1.28580693 8.66210938,1.35742188 C8.22590928,1.42903682 7.79948125,1.52994727 7.3828125,1.66015625 C7.55208418,1.86849063 7.75390508,2.13541504 7.98828125,2.4609375 C8.22265742,2.78645996 8.48307148,3.16731553 8.76953125,3.60351562 C9.05599102,4.03971572 9.36848789,4.54101279 9.70703125,5.10742188 C10.0455746,5.67383096 10.4101543,6.30859023 10.8007812,7.01171875 C12.5195398,6.37369473 13.707679,5.67708711 14.3652344,4.921875 C15.0227897,4.16666289 15.4296867,3.61328301 15.5859375,3.26171875 Z M6.171875,2.1484375 C5.55989277,2.43489727 4.99349219,2.7929666 4.47265625,3.22265625 C3.95182031,3.6523459 3.48633018,4.13411191 3.07617188,4.66796875 C2.66601357,5.20182559 2.31770977,5.7779917 2.03125,6.39648438 C1.74479023,7.01497705 1.53645898,7.66926738 1.40625,8.359375 C1.67968887,8.3854168 2.07682031,8.40494785 2.59765625,8.41796875 C3.11849219,8.43098965 3.73372041,8.41471377 4.44335938,8.36914062 C5.15299834,8.32356748 5.94400605,8.22916738 6.81640625,8.0859375 C7.68880645,7.94270762 8.61327637,7.72135566 9.58984375,7.421875 C8.76952715,5.92447168 8.05989883,4.74935322 7.4609375,3.89648438 C6.86197617,3.04361553 6.43229297,2.46093906 6.171875,2.1484375 Z M1.25,10 C1.25,10.5859404 1.30533799,11.1555962 1.41601562,11.7089844 C1.52669326,12.2623726 1.68619688,12.7929662 1.89453125,13.3007812 C2.10286562,13.8085963 2.35676934,14.2903623 2.65625,14.7460938 C2.95573066,15.2018252 3.29426895,15.624998 3.671875,16.015625 C3.81510488,15.7682279 4.03320166,15.4459655 4.32617188,15.0488281 C4.61914209,14.6516907 4.99999766,14.2285179 5.46875,13.7792969 C5.93750234,13.3300759 6.50390293,12.8710961 7.16796875,12.4023438 C7.83203457,11.9335914 8.60676641,11.4973979 9.4921875,11.09375 C9.77864727,10.963541 10.0585924,10.8463547 10.3320312,10.7421875 C10.6054701,10.6380203 10.8723945,10.5468754 11.1328125,10.46875 C11.0156244,10.208332 10.8919277,9.94140762 10.7617188,9.66796875 C10.6315098,9.39452988 10.5013027,9.12760547 10.3710938,8.8671875 C10.3320311,8.80208301 10.2994793,8.74348984 10.2734375,8.69140625 L10.1953125,8.53515625 C9.45312129,8.76953242 8.74023779,8.96158779 8.05664062,9.11132812 C7.37304346,9.26106846 6.72851865,9.37825479 6.12304688,9.46289062 C5.5175751,9.54752646 4.95117451,9.60611963 4.42382812,9.63867188 C3.89648174,9.67122412 3.4179709,9.6875 2.98828125,9.6875 C2.6106752,9.6875 2.27539209,9.67773447 1.98242188,9.65820312 C1.68945166,9.63867178 1.45182383,9.61588555 1.26953125,9.58984375 C1.26953125,9.66796914 1.26627607,9.73958301 1.25976562,9.8046875 C1.25325518,9.86979199 1.25,9.93489551 1.25,10 Z M4.609375,16.875 C5.35156621,17.4609404 6.18163604,17.9199202 7.09960938,18.2519531 C8.01758271,18.583986 8.98436992,18.75 10,18.75 C10.5859404,18.75 11.1621065,18.6914068 11.7285156,18.5742188 C12.2949247,18.4570307 12.8320287,18.2942719 13.3398438,18.0859375 C13.313802,17.8385404 13.2649743,17.5065125 13.1933594,17.0898438 C13.1217444,16.673175 13.0175788,16.1848986 12.8808594,15.625 C12.7441399,15.0651014 12.5748708,14.446618 12.3730469,13.7695312 C12.1712229,13.0924445 11.9205744,12.3763059 11.6210938,11.6210938 C11.3606758,11.6992191 11.0970065,11.7871089 10.8300781,11.8847656 C10.5631497,11.9824224 10.2929701,12.0963535 10.0195312,12.2265625 C9.10806836,12.6432313 8.33008135,13.0891903 7.68554688,13.5644531 C7.0410124,14.0397159 6.5039084,14.4986957 6.07421875,14.9414062 C5.6445291,15.3841168 5.31250117,15.7812482 5.078125,16.1328125 C4.84374883,16.4843768 4.68750039,16.7317701 4.609375,16.875 Z M14.53125,17.4804688 C15.0520859,17.1549463 15.5403623,16.7806011 15.9960938,16.3574219 C16.4518252,15.9342427 16.855467,15.4654974 17.2070312,14.9511719 C17.5585955,14.4368464 17.8548165,13.8867217 18.0957031,13.3007812 C18.3365897,12.7148408 18.5091141,12.1028678 18.6132812,11.4648437 C18.4700514,11.4257811 18.2259132,11.3704431 17.8808594,11.2988281 C17.5358056,11.2272132 17.1093775,11.16862 16.6015625,11.1230469 C16.0937475,11.0774737 15.5208365,11.0611979 14.8828125,11.0742187 C14.2447885,11.0872396 13.5677119,11.1653639 12.8515625,11.3085937 C13.1119805,11.9856805 13.3365876,12.6334604 13.5253906,13.2519531 C13.7141937,13.8704458 13.8769524,14.4401016 14.0136719,14.9609375 C14.1503913,15.4817734 14.2578121,15.9570291 14.3359375,16.3867188 C14.4140629,16.8164084 14.4791664,17.1809881 14.53125,17.4804688 Z"/>
</svg>
