<svg xmlns="http://www.w3.org/2000/svg" width="63" height="68" viewBox="0 0 63 68" xmlns:xlink="http://www.w3.org/1999/xlink"><defs><path id="b" d="M54.548 30c0-5.231-.454-10.271-1.293-15-3.676-3.092-7.814-6.004-12.344-8.62C36.38 3.765 31.789 1.637 27.274 0c-4.515 1.637-9.107 3.765-13.637 6.38C9.107 8.996 4.968 11.908 1.293 15 .453 19.729 0 24.769 0 30s.453 10.271 1.293 15c3.675 3.092 7.814 6.004 12.344 8.62 4.53 2.615 9.122 4.743 13.637 6.38 4.515-1.637 9.107-3.765 13.637-6.38 4.53-2.616 8.668-5.528 12.344-8.62.84-4.729 1.293-9.769 1.293-15z"/><filter id="a" width="125.7%" height="123.3%" x="-12.8%" y="-8.3%" filterUnits="objectBoundingBox"><feOffset dy="2" in="SourceAlpha" result="shadowOffsetOuter1"/><feGaussianBlur stdDeviation="2" in="shadowOffsetOuter1" result="shadowBlurOuter1"/><feColorMatrix values="0 0 0 0 0 0 0 0 0 0 0 0 0 0 0 0 0 0 0.17 0" in="shadowBlurOuter1"/></filter></defs><g fill="none" fill-rule="evenodd" transform="translate(4 2)"><use fill="#000" filter="url(#a)" xlink:href="#b"/><use fill="#FE7509" xlink:href="#b"/><rect width="18" height="27" x="18.5" y="16.5" stroke="#002331" stroke-width="3" opacity=".5" rx="9"/><rect class="scrollwheel" width="1" height="4.5" x="27.25" y="23.5" stroke="#002331" stroke-width="3" opacity=".5" rx=".5"/></g></svg>