<svg xmlns="http://www.w3.org/2000/svg" width="20" height="20" viewBox="0 0 20 20">
  <path class="icon-linkedin" fill="#FFFFFF" fill-rule="evenodd" d="M58.3854167,0 C58.8368078,0 59.2187484,0.147567969 59.53125,0.442708333 C59.8437516,0.737848698 60,1.11110885 60,1.5625 L60,18.28125 C60,18.7326411 59.8437516,19.1319427 59.53125,19.4791667 C59.2187484,19.8263906 58.8368078,20 58.3854167,20 L41.71875,20 C41.2673589,20 40.8680573,19.8263906 40.5208333,19.4791667 C40.1736094,19.1319427 40,18.7326411 40,18.28125 L40,1.5625 C40,1.11110885 40.1649289,0.737848698 40.4947917,0.442708333 C40.8246544,0.147567969 41.2326365,0 41.71875,0 L58.3854167,0 Z M46.25,16.25 L46.25,7.5 L43.75,7.5 L43.75,16.25 L46.25,16.25 Z M44.9788136,6.25 C45.346047,6.25 45.6497163,6.1299447 45.8898305,5.88983051 C46.1299447,5.64971631 46.25,5.36017119 46.25,5.02118644 C46.25,4.65395297 46.1370068,4.35028369 45.9110169,4.11016949 C45.6850271,3.8700553 45.3884199,3.75 45.0211864,3.75 C44.653953,3.75 44.3502837,3.8700553 44.1101695,4.11016949 C43.8700553,4.35028369 43.75,4.65395297 43.75,5.02118644 C43.75,5.36017119 43.8629932,5.64971631 44.0889831,5.88983051 C44.3149729,6.1299447 44.6115801,6.25 44.9788136,6.25 Z M56.25,16.25 L56.25,11.25 C56.25,10.0166605 55.9461836,9.0833365 55.3385417,8.45 C54.7308997,7.8166635 53.9409771,7.5 52.96875,7.5 C51.9270781,7.5 51.0590313,7.966662 50.3645833,8.9 L50.3645833,7.7 L47.5,7.7 L47.5,16.25 L50.3645833,16.25 L50.3645833,11.4 C50.3645833,11.066665 50.3993052,10.833334 50.46875,10.7 C50.7465292,10.03333 51.2326354,9.7 51.9270833,9.7 C52.8993104,9.7 53.3854167,10.3166605 53.3854167,11.55 L53.3854167,16.25 L56.25,16.25 Z" transform="translate(-40)"/>
</svg>
