<svg xmlns="http://www.w3.org/2000/svg" width="100%" height="100%" viewBox="0 0 349 377">
  <defs>
    <linearGradient id="a" x1="-.344%" x2="99.669%" y1="50.561%" y2="50.561%">
      <stop stop-color="#D3DAED" offset="0%"/>
      <stop stop-color="#99A7D8" offset="100%"/>
    </linearGradient>
    <linearGradient id="b" x1="-.234%" x2="99.544%" y1="49.794%" y2="49.794%">
      <stop stop-color="#99A7D8" offset="0%"/>
      <stop stop-color="#D3DAED" offset="100%"/>
    </linearGradient>
    <linearGradient id="c" x1="0%" y1="0%" y2="100%">
      <stop stop-color="#FF006A" offset="0%"/>
      <stop stop-color="#FF006A" offset="100%"/>
    </linearGradient>
    <linearGradient id="d" x1="100.014%" x2=".017%" y1="50.006%" y2="50.006%">
      <stop stop-color="#DE005C" offset="0%"/>
      <stop stop-color="#D10057" offset="100%"/>
    </linearGradient>
    <linearGradient id="e" x1="3.114%" y1="0%" y2="100%">
      <stop stop-color="#E5E9F4" offset="0%"/>
      <stop stop-color="#E5E9F4" offset="100%"/>
    </linearGradient>
    <linearGradient id="f" x1="34.015%" x2="55.495%" y1="87.135%" y2="37.15%">
      <stop stop-color="#258FEB" offset="13.14%"/>
      <stop stop-color="#0A208F" offset="89.03%"/>
    </linearGradient>
    <linearGradient id="g" x1="69.128%" x2="73.853%" y1="52.409%" y2="59.303%">
      <stop stop-color="#4CB6FF" offset="0%"/>
      <stop stop-color="#0A208F" offset="100%"/>
    </linearGradient>
    <linearGradient id="h" x1="-22.384%" x2="99.461%" y1="78.611%" y2="24.995%">
      <stop stop-color="#258FEB" offset="0%"/>
      <stop stop-color="#2389E6" offset="15.65%"/>
      <stop stop-color="#1F77D7" offset="37.11%"/>
      <stop stop-color="#185ABF" offset="61.92%"/>
      <stop stop-color="#0E329E" offset="89.06%"/>
      <stop stop-color="#0A208F" offset="100%"/>
    </linearGradient>
    <linearGradient id="i" x1="79.788%" x2="29.75%" y1="68.49%" y2="-30.674%">
      <stop stop-color="#258FEB" offset="0%"/>
      <stop stop-color="#2283E1" offset="17.26%"/>
      <stop stop-color="#1A62C5" offset="48.85%"/>
      <stop stop-color="#0D2C99" offset="90.94%"/>
      <stop stop-color="#0A208F" offset="100%"/>
    </linearGradient>
    <linearGradient id="j" x1="50.29%" x2="4.411%" y1="38.515%" y2="145.875%">
      <stop stop-color="#258FEB" offset="0%"/>
      <stop stop-color="#0A208F" offset="100%"/>
    </linearGradient>
  </defs>
  <g fill="none" transform="translate(-1)">
    <path fill="#000000" d="M134.4,182.7 C138,180.6 143.8,180.6 147.3,182.7 L338.5,293.1 C342.1,295.2 342.1,298.5 338.5,300.6 L211.8,373.8 C208.2,375.9 202.4,375.9 198.9,373.8 L7.7,263.3 C4.1,261.2 4.1,257.9 7.7,255.8 L134.4,182.7 Z" opacity=".1"/>
    <g transform="translate(0 243)">
      <g opacity=".6" transform="translate(0 6)">
        <path fill="#FFFFFF" d="M26.5,1 C24.9,0.2 22.4,0.2 20.8,1 L2.1,9.9 C0.5,10.6 0.5,11.9 2.1,12.6 L20.9,21.6 C22.5,22.4 25,22.4 26.6,21.6 L45.2,12.6 C46.8,11.8 46.8,10.6 45.2,9.9 L26.5,1 Z" opacity="0"/>
        <path fill="#FAFAFD" d="M26.4,21.5 C24.9,22.2 22.4,22.2 20.8,21.5 L2.1,12.5 C0.6,11.8 1,10.4 2.5,9.7 C2.5,9.7 20.8,1 20.8,1 C22.3,0.3 24.8,0.3 26.4,1 L45,9.9 C46.5,10.6 46.2,12 44.6,12.7 C44.6,12.8 26.4,21.5 26.4,21.5 Z" opacity=".024"/>
        <path fill="#F5F6FA" d="M26.3,21.5 C24.8,22.2 22.3,22.2 20.9,21.5 L2.3,12.6 C0.8,11.9 1.6,10.4 3.1,9.7 C3.1,9.7 20.9,1.2 21,1.2 C22.5,0.5 25,0.5 26.5,1.2 L45,10.1 C46.5,10.8 45.7,12.3 44.3,13.1 C44.1,12.9 26.4,21.5 26.3,21.5 Z" opacity=".049"/>
        <path fill="#EFF1F8" d="M26.3,21.4 C24.8,22.1 22.4,22.1 21,21.4 L2.5,12.5 C1.1,11.8 2.2,10.1 3.6,9.4 C3.6,9.4 21,1.1 21,1.1 C22.5,0.4 24.9,0.4 26.3,1.1 L44.7,9.9 C46.1,10.6 45,12.3 43.6,13 C43.6,13.1 26.3,21.4 26.3,21.4 Z" opacity=".073"/>
        <path fill="#EAEDF6" d="M26.2,21.3 C24.7,22 22.4,22 21,21.3 L2.6,12.4 C1.2,11.7 2.7,9.9 4.1,9.2 C4.1,9.2 21,1.1 21.1,1.1 C22.6,0.4 24.9,0.4 26.3,1.1 L44.6,9.9 C46,10.6 44.5,12.4 43.1,13.1 C43.1,13.2 26.2,21.3 26.2,21.3 Z" opacity=".098"/>
        <path fill="#E5E8F4" d="M26.1,21.3 C24.7,22 22.4,21.9 21,21.3 L2.7,12.5 C1.3,11.8 3.2,9.9 4.6,9.2 C4.6,9.2 21.1,1.4 21.2,1.4 C22.6,0.7 24.9,0.8 26.3,1.4 L44.5,10.2 C45.9,10.9 44,12.8 42.6,13.5 C42.6,13.4 26.2,21.3 26.1,21.3 Z" opacity=".122"/>
        <path fill="#E0E3F1" d="M26.1,21.2 C24.7,21.8 22.5,21.8 21.1,21.2 L2.8,12.4 C1.5,11.8 3.7,9.6 5.1,9 C5.1,9 21.2,1.4 21.2,1.4 C22.6,0.8 24.8,0.8 26.2,1.4 L44.3,10.1 C45.6,10.7 43.4,12.9 42.1,13.5 C42.1,13.5 26.1,21.2 26.1,21.2 Z" opacity=".146"/>
        <path fill="#DADFEF" d="M26,21.1 C24.6,21.7 22.5,21.7 21.2,21.1 L3,12.4 C1.7,11.8 4.3,9.5 5.6,8.9 C5.6,8.9 21.2,1.5 21.3,1.5 C22.7,0.9 24.9,0.9 26.2,1.5 L44.3,10.2 C45.6,10.8 43,13.1 41.7,13.7 C41.6,13.7 26.1,21.1 26,21.1 Z" opacity=".171"/>
        <path fill="#D5DAED" d="M25.9,21 C24.6,21.6 22.4,21.6 21.2,21 L3.1,12.3 C1.8,11.7 4.8,9.3 6.1,8.7 C6.1,8.7 21.3,1.5 21.3,1.5 C22.6,0.9 24.8,0.9 26,1.5 L44,10.1 C45.3,10.7 42.3,13.1 41,13.7 C41.1,13.8 26,21 25.9,21 Z" opacity=".195"/>
        <path fill="#D0D6EB" d="M25.8,21 C24.5,21.6 22.4,21.6 21.2,21 L3.2,12.3 C2,11.7 5.4,9.2 6.6,8.6 C6.6,8.6 21.3,1.6 21.4,1.6 C22.7,1 24.8,1 26,1.6 L43.9,10.2 C45.1,10.8 41.8,13.4 40.5,13.9 C40.6,14 25.9,21 25.8,21 Z" opacity=".22"/>
        <path fill="#CBD1E8" d="M25.8,20.9 C24.5,21.5 22.5,21.4 21.3,20.9 L3.4,12.3 C2.2,11.7 6,9 7.2,8.5 C7.2,8.5 21.5,1.7 21.6,1.7 C22.9,1.1 24.9,1.2 26.1,1.7 L43.9,10.3 C45.1,10.9 41.3,13.6 40.2,14.2 C40,14.1 25.9,20.9 25.8,20.9 Z" opacity=".244"/>
        <path fill="#C5CCE6" d="M25.7,20.8 C24.4,21.3 22.5,21.3 21.3,20.8 L3.4,12.2 C2.3,11.7 6.4,8.8 7.5,8.2 C7.5,8.2 21.3,1.6 21.4,1.6 C22.7,1.1 24.6,1.1 25.8,1.6 L43.5,10.1 C44.6,10.6 40.5,13.5 39.4,14.1 C39.5,14.3 25.8,20.8 25.7,20.8 Z" opacity=".268"/>
        <path fill="#C0C8E4" d="M25.6,20.8 C24.4,21.3 22.5,21.3 21.3,20.8 L3.5,12.3 C2.4,11.8 6.9,8.8 8,8.2 C8,8.2 21.4,1.9 21.5,1.9 C22.7,1.4 24.6,1.4 25.8,1.9 L43.5,10.4 C44.6,10.9 40.1,14 39,14.5 C39,14.4 25.8,20.8 25.6,20.8 Z" opacity=".293"/>
        <path fill="#BBC3E2" d="M25.6,20.7 C24.4,21.2 22.6,21.2 21.5,20.7 L3.8,12.2 C2.7,11.7 7.6,8.5 8.7,8 C8.7,8 21.6,1.9 21.8,1.9 C23,1.4 24.9,1.4 25.9,1.9 L43.5,10.3 C44.6,10.8 39.7,14 38.6,14.5 C38.5,14.6 25.7,20.7 25.6,20.7 Z" opacity=".317"/>
        <path fill="#B6BEDF" d="M25.5,20.6 C24.3,21.1 22.5,21.1 21.5,20.6 L3.9,12.1 C2.9,11.6 8.1,8.3 9.2,7.8 C9.2,7.8 21.7,1.9 21.8,1.9 C23,1.4 24.8,1.4 25.8,1.9 L43.3,10.3 C44.3,10.8 39.1,14.1 38.1,14.6 C38,14.7 25.7,20.6 25.5,20.6 Z" opacity=".342"/>
        <path fill="#B0BADD" d="M25.4,20.6 C24.2,21.1 22.5,21 21.5,20.6 L4,12.2 C3,11.7 8.6,8.3 9.6,7.8 C9.6,7.8 21.6,2.1 21.8,2.1 C23,1.6 24.7,1.7 25.7,2.1 L43.1,10.5 C44.1,11 38.5,14.4 37.5,14.9 C37.5,14.8 25.6,20.6 25.4,20.6 Z" opacity=".366"/>
        <path fill="#ABB5DB" d="M25.4,20.5 C24.3,21 22.6,20.9 21.6,20.5 L4.1,12.1 C3.1,11.6 9.2,8 10.1,7.6 C10.1,7.6 21.7,2.1 21.8,2.1 C22.9,1.6 24.6,1.7 25.6,2.1 L42.9,10.4 C43.9,10.9 37.9,14.5 36.9,14.9 C37,15 25.5,20.5 25.4,20.5 Z" opacity=".39"/>
        <path fill="#A6B1D8" d="M25.3,20.4 C24.2,20.8 22.6,20.8 21.6,20.4 L4.2,12.1 C3.3,11.7 9.7,7.9 10.6,7.5 C10.6,7.5 21.7,2.2 21.9,2.2 C23,1.8 24.6,1.8 25.6,2.3 L42.9,10.6 C43.8,11 37.5,14.8 36.5,15.3 C36.5,15.1 25.5,20.4 25.3,20.4 Z" opacity=".415"/>
        <path fill="#A1ACD6" d="M25.2,20.3 C24.1,20.7 22.6,20.7 21.7,20.3 L4.4,12 C3.5,11.6 10.3,7.7 11.2,7.3 C11.2,7.3 21.9,2.3 22.1,2.3 C23.2,1.9 24.7,1.9 25.6,2.4 L42.8,10.7 C43.7,11.1 37,15 36.1,15.5 C36,15.3 25.4,20.3 25.2,20.3 Z" opacity=".439"/>
        <path fill="#9BA7D4" d="M25.2,20.3 C24.2,20.7 22.7,20.7 21.8,20.2 L4.6,11.9 C3.8,11.5 10.9,7.4 11.7,7 C11.7,7 21.9,2.2 22.1,2.2 C23.2,1.8 24.7,1.8 25.5,2.3 L42.6,10.5 C43.4,10.9 36.3,15 35.5,15.4 C35.5,15.4 25.4,20.3 25.2,20.3 Z" opacity=".463"/>
        <path fill="#96A3D2" d="M25.1,20.2 C24.1,20.6 22.6,20.5 21.8,20.1 L4.7,11.9 C3.9,11.5 11.4,7.3 12.2,6.9 C12.2,6.9 22,2.3 22.2,2.3 C23.2,1.9 24.7,2 25.5,2.4 L42.5,10.6 C43.3,11 35.8,15.2 35,15.6 C35,15.6 25.3,20.2 25.1,20.2 Z" opacity=".488"/>
        <path fill="#919ECF" d="M25,20.1 C24,20.5 22.6,20.4 21.8,20 L4.8,11.8 C4,11.4 11.9,7.1 12.7,6.7 C12.7,6.7 22,2.3 22.3,2.3 C23.3,1.9 24.7,2 25.5,2.4 L42.4,10.5 C43.2,10.9 35.3,15.2 34.6,15.6 C34.5,15.7 25.2,20.1 25,20.1 Z" opacity=".512"/>
        <path fill="#8C9ACD" d="M24.9,20.1 C23.9,20.4 22.6,20.4 21.8,20 L4.8,11.8 C4.1,11.5 12.3,7 13.1,6.6 C13.1,6.6 22,2.4 22.2,2.4 C23.2,2.1 24.5,2.1 25.3,2.5 L42.2,10.6 C42.9,10.9 34.7,15.5 34,15.8 C34,15.9 25.2,20.1 24.9,20.1 Z" opacity=".537"/>
        <path fill="#8695CB" d="M24.9,20 C24,20.3 22.7,20.3 22,19.9 L5.1,11.8 C4.4,11.5 13,6.8 13.7,6.5 C13.7,6.5 22.1,2.5 22.4,2.5 C23.3,2.2 24.6,2.2 25.4,2.6 L42.2,10.7 C42.9,11 34.3,15.7 33.6,16 C33.5,16 25.1,20 24.9,20 Z" opacity=".561"/>
        <path fill="#8190C9" d="M24.8,19.9 C23.9,20.2 22.7,20.2 22,19.8 L5.2,11.7 C4.6,11.4 13.6,6.6 14.2,6.3 C14.2,6.3 22.2,2.5 22.4,2.5 C23.3,2.2 24.5,2.2 25.2,2.6 L41.9,10.6 C42.5,10.9 33.6,15.7 32.9,16 C33,16.2 25.1,19.9 24.8,19.9 Z" opacity=".585"/>
        <path fill="#7C8CC6" d="M24.7,19.9 C23.8,20.2 22.6,20.1 22,19.8 L5.3,11.8 C4.7,11.5 14.1,6.6 14.7,6.3 C14.7,6.3 22.2,2.8 22.5,2.8 C23.4,2.5 24.6,2.6 25.2,2.9 L41.8,10.9 C42.4,11.2 33.1,16.2 32.5,16.5 C32.5,16.3 25,19.9 24.7,19.9 Z" opacity=".61"/>
        <path fill="#7787C4" d="M24.7,19.8 C23.8,20.1 22.7,20 22.1,19.7 L5.5,11.7 C4.9,11.4 14.7,6.3 15.3,6.1 C15.3,6.1 22.4,2.8 22.7,2.8 C23.6,2.5 24.7,2.6 25.3,2.9 L41.8,10.8 C42.4,11.1 32.7,16.2 32.1,16.5 C32,16.5 25,19.8 24.7,19.8 Z" opacity=".634"/>
        <path fill="#7183C2" d="M24.6,19.7 C23.8,20 22.7,19.9 22.1,19.6 L5.5,11.6 C5,11.3 15.1,6.1 15.6,5.8 C15.6,5.8 22.2,2.7 22.5,2.7 C23.3,2.4 24.4,2.5 25,2.8 L41.4,10.7 C41.9,11 31.8,16.2 31.3,16.5 C31.4,16.6 24.9,19.7 24.6,19.7 Z" opacity=".658"/>
        <path fill="#6C7EBF" d="M24.5,19.7 C23.7,19.9 22.7,19.9 22.2,19.6 L5.7,11.7 C5.2,11.5 15.7,6.1 16.2,5.8 C16.2,5.8 22.4,3 22.7,2.9 C23.4,2.6 24.5,2.7 25.1,3 L41.5,10.9 C42,11.1 31.5,16.6 31,16.8 C30.9,16.8 24.8,19.7 24.5,19.7 Z" opacity=".683"/>
        <path fill="#6779BD" d="M24.5,19.6 C23.7,19.8 22.8,19.8 22.3,19.5 L5.9,11.6 C5.4,11.4 16.3,5.8 16.8,5.6 C16.8,5.6 22.6,3 22.8,2.9 C23.5,2.6 24.5,2.7 25,3 L41.3,10.8 C41.8,11 30.9,16.6 30.5,16.8 C30.4,16.9 24.8,19.6 24.5,19.6 Z" opacity=".707"/>
        <path fill="#6275BB" d="M24.4,19.5 C23.7,19.7 22.8,19.6 22.3,19.4 L6,11.6 C5.6,11.4 16.8,5.7 17.3,5.5 C17.3,5.5 22.6,3.2 22.9,3 C23.6,2.7 24.6,2.9 25,3.1 L41.2,10.9 C41.6,11.1 30.4,16.8 30,17 C29.9,17.1 24.7,19.5 24.4,19.5 Z" opacity=".732"/>
        <path fill="#5C70B9" d="M24.3,19.4 C23.6,19.6 22.7,19.5 22.3,19.3 L6.1,11.5 C5.7,11.3 17.4,5.5 17.7,5.3 C17.7,5.3 22.6,3.2 22.9,3 C23.6,2.7 24.5,2.9 24.9,3.1 L41,10.9 C41.4,11.1 29.8,17 29.4,17.1 C29.4,17.2 24.7,19.4 24.3,19.4 Z" opacity=".756"/>
        <path fill="#576BB6" d="M24.3,19.4 C23.6,19.6 22.8,19.5 22.4,19.3 L6.3,11.5 C6,11.3 18,5.4 18.3,5.2 C18.3,5.2 22.7,3.3 23,3.2 C23.7,3 24.5,3.1 24.9,3.3 L40.9,11 C41.2,11.2 29.3,17.2 28.9,17.3 C28.9,17.3 24.6,19.4 24.3,19.4 Z" opacity=".78"/>
        <path fill="#5267B4" d="M24.2,19.3 C23.5,19.4 22.8,19.4 22.5,19.2 L6.4,11.5 C6.1,11.4 18.5,5.2 18.8,5.1 C18.8,5.1 22.8,3.4 23.1,3.3 C23.7,3.1 24.5,3.2 24.9,3.4 L40.9,11.1 C41.2,11.2 28.9,17.4 28.6,17.6 C28.4,17.5 24.5,19.3 24.2,19.3 Z" opacity=".805"/>
        <path fill="#4D62B2" d="M24.1,19.2 C23.5,19.3 22.8,19.3 22.5,19.1 L6.5,11.4 C6.2,11.3 19,5 19.3,4.9 C19.3,4.9 22.8,3.4 23.2,3.3 C23.8,3.1 24.5,3.2 24.8,3.4 L40.7,11 C41,11.1 28.3,17.4 28,17.6 C27.9,17.6 24.5,19.2 24.1,19.2 Z" opacity=".829"/>
        <path fill="#475EB0" d="M24,19.2 C23.4,19.3 22.8,19.2 22.5,19.1 L6.6,11.5 C6.4,11.4 19.5,5 19.7,4.9 C19.8,4.9 22.8,3.6 23.1,3.5 C23.7,3.3 24.3,3.5 24.6,3.6 L40.4,11.2 C40.6,11.3 27.5,17.8 27.3,17.9 C27.4,17.8 24.4,19.2 24,19.2 Z" opacity=".854"/>
        <path fill="#4259AD" d="M24,19.1 C23.4,19.2 22.9,19.1 22.6,19 L6.8,11.4 C6.6,11.3 20.1,4.7 20.3,4.6 C20.4,4.6 22.9,3.5 23.3,3.4 C23.9,3.3 24.5,3.4 24.7,3.5 L40.4,11.1 C40.6,11.2 27.1,17.8 26.9,17.9 C26.9,17.9 24.4,19.1 24,19.1 Z" opacity=".878"/>
        <path fill="#3D54AB" d="M23.9,19 C23.3,19.1 22.8,19 22.6,18.9 L6.9,11.3 C6.7,11.2 20.6,4.5 20.8,4.4 C20.9,4.4 23,3.5 23.3,3.4 C23.9,3.3 24.4,3.4 24.6,3.5 L40.2,11 C40.4,11.1 26.5,17.8 26.4,17.9 C26.4,18.1 24.3,19 23.9,19 Z" opacity=".902"/>
        <path fill="#3850A9" d="M23.8,19 C23.3,19.1 22.8,19 22.6,18.9 L6.9,11.4 C6.8,11.3 21.1,4.5 21.2,4.4 C21.3,4.4 22.9,3.7 23.3,3.6 C23.8,3.5 24.3,3.6 24.5,3.7 L40.1,11.2 C40.2,11.3 26,18.2 25.9,18.2 C25.9,18.2 24.2,19 23.8,19 Z" opacity=".927"/>
        <path fill="#324BA7" d="M23.8,18.9 C23.3,18.9 22.9,18.9 22.8,18.8 L7.2,11.3 C7.1,11.3 21.8,4.2 21.8,4.2 C21.9,4.2 23,3.7 23.5,3.7 C24,3.6 24.4,3.7 24.6,3.8 L40.1,11.2 C40.2,11.2 25.6,18.3 25.5,18.3 C25.4,18.4 24.2,18.9 23.8,18.9 Z" opacity=".951"/>
        <path fill="#2D47A4" d="M23.7,18.8 C23.2,18.8 22.9,18.7 22.8,18.7 L7.3,11.3 C7.3,11.3 22.3,4.1 22.3,4.1 C22.4,4.1 23.1,3.8 23.5,3.8 C24,3.8 24.3,3.9 24.4,3.9 L39.8,11.3 C39.8,11.3 24.9,18.5 24.9,18.6 C24.9,18.5 24.1,18.8 23.7,18.8 Z" opacity=".976"/>
        <path fill="#2842A2" d="M23.6,18.7 C23.2,18.7 22.9,18.6 22.8,18.6 L7.4,11.2 L22.8,3.9 C22.9,3.9 23.1,3.8 23.6,3.8 C24.1,3.8 24.3,3.9 24.4,3.9 L39.7,11.3 L24.4,18.7 C24.4,18.7 24.1,18.7 23.6,18.7 Z"/>
      </g>
      <g transform="translate(4)">
        <path fill="url(#a)" d="M38.6,15.1 C38.6,15 38.6,15 38.6,14.9 L38.5,9.3 L24.4,9.2 L23.8,8.9 C22.5,8.3 20.4,8.3 19.1,8.9 L18.4,9.2 L0.8,9.1 L0.9,15.8 C0.9,16.4 1.3,17 1.9,17.3 L17.4,24.8 C18.7,25.4 20.8,25.4 22.1,24.8 L38,17.3 C38.4,17.1 38.7,16.7 38.7,16.3 L38.6,15.1 Z"/>
        <path fill="url(#b)" d="M22,0.8 C20.7,0.2 18.6,0.2 17.3,0.8 L1.8,8.2 C0.5,8.8 0.5,9.8 1.8,10.5 L17.4,18 C18.7,18.6 20.8,18.6 22.1,18 L37.6,10.6 C38.9,10 38.9,9 37.6,8.3 L22,0.8 Z"/>
      </g>
    </g>
    <g transform="translate(181 348)">
      <g opacity=".6" transform="translate(0 6)">
        <path fill="#FFFFFF" d="M26.5,1 C24.9,0.2 22.4,0.2 20.8,1 L2.1,9.9 C0.5,10.6 0.5,11.9 2.1,12.6 L20.9,21.6 C22.5,22.4 25,22.4 26.6,21.6 L45.2,12.6 C46.8,11.8 46.8,10.6 45.2,9.9 L26.5,1 Z" opacity="0"/>
        <path fill="#FAFAFD" d="M26.4,21.5 C24.9,22.2 22.4,22.2 20.8,21.5 L2.1,12.5 C0.6,11.8 1,10.4 2.5,9.7 C2.5,9.7 20.8,1 20.8,1 C22.3,0.3 24.8,0.3 26.4,1 L45,9.9 C46.5,10.6 46.2,12 44.6,12.7 C44.6,12.8 26.4,21.5 26.4,21.5 Z" opacity=".024"/>
        <path fill="#F5F6FA" d="M26.3,21.5 C24.8,22.2 22.3,22.2 20.9,21.5 L2.3,12.6 C0.8,11.9 1.6,10.4 3.1,9.7 C3.1,9.7 20.9,1.2 21,1.2 C22.5,0.5 25,0.5 26.5,1.2 L45,10.1 C46.5,10.8 45.7,12.3 44.3,13.1 C44.1,12.9 26.4,21.5 26.3,21.5 Z" opacity=".049"/>
        <path fill="#EFF1F8" d="M26.3,21.4 C24.8,22.1 22.4,22.1 21,21.4 L2.5,12.5 C1.1,11.8 2.2,10.1 3.6,9.4 C3.6,9.4 21,1.1 21,1.1 C22.5,0.4 24.9,0.4 26.3,1.1 L44.7,9.9 C46.1,10.6 45,12.3 43.6,13 C43.6,13.1 26.3,21.4 26.3,21.4 Z" opacity=".073"/>
        <path fill="#EAEDF6" d="M26.2,21.3 C24.7,22 22.4,22 21,21.3 L2.6,12.4 C1.2,11.7 2.7,9.9 4.1,9.2 C4.1,9.2 21,1.1 21.1,1.1 C22.6,0.4 24.9,0.4 26.3,1.1 L44.6,9.9 C46,10.6 44.5,12.4 43.1,13.1 C43.1,13.2 26.2,21.3 26.2,21.3 Z" opacity=".098"/>
        <path fill="#E5E8F4" d="M26.1,21.3 C24.7,22 22.4,21.9 21,21.3 L2.7,12.5 C1.3,11.8 3.2,9.9 4.6,9.2 C4.6,9.2 21.1,1.4 21.2,1.4 C22.6,0.7 24.9,0.8 26.3,1.4 L44.5,10.2 C45.9,10.9 44,12.8 42.6,13.5 C42.6,13.4 26.2,21.3 26.1,21.3 Z" opacity=".122"/>
        <path fill="#E0E3F1" d="M26.1,21.2 C24.7,21.8 22.5,21.8 21.1,21.2 L2.8,12.4 C1.5,11.8 3.7,9.6 5.1,9 C5.1,9 21.2,1.4 21.2,1.4 C22.6,0.8 24.8,0.8 26.2,1.4 L44.3,10.1 C45.6,10.7 43.4,12.9 42.1,13.5 C42.1,13.5 26.1,21.2 26.1,21.2 Z" opacity=".146"/>
        <path fill="#DADFEF" d="M26,21.1 C24.6,21.7 22.5,21.7 21.2,21.1 L3,12.4 C1.7,11.8 4.3,9.5 5.6,8.9 C5.6,8.9 21.2,1.5 21.3,1.5 C22.7,0.9 24.9,0.9 26.2,1.5 L44.3,10.2 C45.6,10.8 43,13.1 41.7,13.7 C41.6,13.7 26.1,21.1 26,21.1 Z" opacity=".171"/>
        <path fill="#D5DAED" d="M25.9,21 C24.6,21.6 22.4,21.6 21.2,21 L3.1,12.3 C1.8,11.7 4.8,9.3 6.1,8.7 C6.1,8.7 21.3,1.5 21.3,1.5 C22.6,0.9 24.8,0.9 26,1.5 L44,10.1 C45.3,10.7 42.3,13.1 41,13.7 C41.1,13.8 26,21 25.9,21 Z" opacity=".195"/>
        <path fill="#D0D6EB" d="M25.8,21 C24.5,21.6 22.4,21.6 21.2,21 L3.2,12.3 C2,11.7 5.4,9.2 6.6,8.6 C6.6,8.6 21.3,1.6 21.4,1.6 C22.7,1 24.8,1 26,1.6 L43.9,10.2 C45.1,10.8 41.8,13.4 40.5,13.9 C40.6,14 25.9,21 25.8,21 Z" opacity=".22"/>
        <path fill="#CBD1E8" d="M25.8,20.9 C24.5,21.5 22.5,21.4 21.3,20.9 L3.4,12.3 C2.2,11.7 6,9 7.2,8.5 C7.2,8.5 21.5,1.7 21.6,1.7 C22.9,1.1 24.9,1.2 26.1,1.7 L43.9,10.3 C45.1,10.9 41.3,13.6 40.2,14.2 C40,14.1 25.9,20.9 25.8,20.9 Z" opacity=".244"/>
        <path fill="#C5CCE6" d="M25.7,20.8 C24.4,21.3 22.5,21.3 21.3,20.8 L3.4,12.2 C2.3,11.7 6.4,8.8 7.5,8.2 C7.5,8.2 21.3,1.6 21.4,1.6 C22.7,1.1 24.6,1.1 25.8,1.6 L43.5,10.1 C44.6,10.6 40.5,13.5 39.4,14.1 C39.5,14.3 25.8,20.8 25.7,20.8 Z" opacity=".268"/>
        <path fill="#C0C8E4" d="M25.6,20.8 C24.4,21.3 22.5,21.3 21.3,20.8 L3.5,12.3 C2.4,11.8 6.9,8.8 8,8.2 C8,8.2 21.4,1.9 21.5,1.9 C22.7,1.4 24.6,1.4 25.8,1.9 L43.5,10.4 C44.6,10.9 40.1,14 39,14.5 C39,14.4 25.8,20.8 25.6,20.8 Z" opacity=".293"/>
        <path fill="#BBC3E2" d="M25.6,20.7 C24.4,21.2 22.6,21.2 21.5,20.7 L3.8,12.2 C2.7,11.7 7.6,8.5 8.7,8 C8.7,8 21.6,1.9 21.8,1.9 C23,1.4 24.9,1.4 25.9,1.9 L43.5,10.3 C44.6,10.8 39.7,14 38.6,14.5 C38.5,14.6 25.7,20.7 25.6,20.7 Z" opacity=".317"/>
        <path fill="#B6BEDF" d="M25.5,20.6 C24.3,21.1 22.5,21.1 21.5,20.6 L3.9,12.1 C2.9,11.6 8.1,8.3 9.2,7.8 C9.2,7.8 21.7,1.9 21.8,1.9 C23,1.4 24.8,1.4 25.8,1.9 L43.3,10.3 C44.3,10.8 39.1,14.1 38.1,14.6 C38,14.7 25.7,20.6 25.5,20.6 Z" opacity=".342"/>
        <path fill="#B0BADD" d="M25.4,20.6 C24.2,21.1 22.5,21 21.5,20.6 L4,12.2 C3,11.7 8.6,8.3 9.6,7.8 C9.6,7.8 21.6,2.1 21.8,2.1 C23,1.6 24.7,1.7 25.7,2.1 L43.1,10.5 C44.1,11 38.5,14.4 37.5,14.9 C37.5,14.8 25.6,20.6 25.4,20.6 Z" opacity=".366"/>
        <path fill="#ABB5DB" d="M25.4,20.5 C24.3,21 22.6,20.9 21.6,20.5 L4.1,12.1 C3.1,11.6 9.2,8 10.1,7.6 C10.1,7.6 21.7,2.1 21.8,2.1 C22.9,1.6 24.6,1.7 25.6,2.1 L42.9,10.4 C43.9,10.9 37.9,14.5 36.9,14.9 C37,15 25.5,20.5 25.4,20.5 Z" opacity=".39"/>
        <path fill="#A6B1D8" d="M25.3,20.4 C24.2,20.8 22.6,20.8 21.6,20.4 L4.2,12.1 C3.3,11.7 9.7,7.9 10.6,7.5 C10.6,7.5 21.7,2.2 21.9,2.2 C23,1.8 24.6,1.8 25.6,2.3 L42.9,10.6 C43.8,11 37.5,14.8 36.5,15.3 C36.5,15.1 25.5,20.4 25.3,20.4 Z" opacity=".415"/>
        <path fill="#A1ACD6" d="M25.2,20.3 C24.1,20.7 22.6,20.7 21.7,20.3 L4.4,12 C3.5,11.6 10.3,7.7 11.2,7.3 C11.2,7.3 21.9,2.3 22.1,2.3 C23.2,1.9 24.7,1.9 25.6,2.4 L42.8,10.7 C43.7,11.1 37,15 36.1,15.5 C36,15.3 25.4,20.3 25.2,20.3 Z" opacity=".439"/>
        <path fill="#9BA7D4" d="M25.2,20.3 C24.2,20.7 22.7,20.7 21.8,20.2 L4.6,11.9 C3.8,11.5 10.9,7.4 11.7,7 C11.7,7 21.9,2.2 22.1,2.2 C23.2,1.8 24.7,1.8 25.5,2.3 L42.6,10.5 C43.4,10.9 36.3,15 35.5,15.4 C35.5,15.4 25.4,20.3 25.2,20.3 Z" opacity=".463"/>
        <path fill="#96A3D2" d="M25.1,20.2 C24.1,20.6 22.6,20.5 21.8,20.1 L4.7,11.9 C3.9,11.5 11.4,7.3 12.2,6.9 C12.2,6.9 22,2.3 22.2,2.3 C23.2,1.9 24.7,2 25.5,2.4 L42.5,10.6 C43.3,11 35.8,15.2 35,15.6 C35,15.6 25.3,20.2 25.1,20.2 Z" opacity=".488"/>
        <path fill="#919ECF" d="M25,20.1 C24,20.5 22.6,20.4 21.8,20 L4.8,11.8 C4,11.4 11.9,7.1 12.7,6.7 C12.7,6.7 22,2.3 22.3,2.3 C23.3,1.9 24.7,2 25.5,2.4 L42.4,10.5 C43.2,10.9 35.3,15.2 34.6,15.6 C34.5,15.7 25.2,20.1 25,20.1 Z" opacity=".512"/>
        <path fill="#8C9ACD" d="M24.9,20.1 C23.9,20.4 22.6,20.4 21.8,20 L4.8,11.8 C4.1,11.5 12.3,7 13.1,6.6 C13.1,6.6 22,2.4 22.2,2.4 C23.2,2.1 24.5,2.1 25.3,2.5 L42.2,10.6 C42.9,10.9 34.7,15.5 34,15.8 C34,15.9 25.2,20.1 24.9,20.1 Z" opacity=".537"/>
        <path fill="#8695CB" d="M24.9,20 C24,20.3 22.7,20.3 22,19.9 L5.1,11.8 C4.4,11.5 13,6.8 13.7,6.5 C13.7,6.5 22.1,2.5 22.4,2.5 C23.3,2.2 24.6,2.2 25.4,2.6 L42.2,10.7 C42.9,11 34.3,15.7 33.6,16 C33.5,16 25.1,20 24.9,20 Z" opacity=".561"/>
        <path fill="#8190C9" d="M24.8,19.9 C23.9,20.2 22.7,20.2 22,19.8 L5.2,11.7 C4.6,11.4 13.6,6.6 14.2,6.3 C14.2,6.3 22.2,2.5 22.4,2.5 C23.3,2.2 24.5,2.2 25.2,2.6 L41.9,10.6 C42.5,10.9 33.6,15.7 32.9,16 C33,16.2 25.1,19.9 24.8,19.9 Z" opacity=".585"/>
        <path fill="#7C8CC6" d="M24.7,19.9 C23.8,20.2 22.6,20.1 22,19.8 L5.3,11.8 C4.7,11.5 14.1,6.6 14.7,6.3 C14.7,6.3 22.2,2.8 22.5,2.8 C23.4,2.5 24.6,2.6 25.2,2.9 L41.8,10.9 C42.4,11.2 33.1,16.2 32.5,16.5 C32.5,16.3 25,19.9 24.7,19.9 Z" opacity=".61"/>
        <path fill="#7787C4" d="M24.7,19.8 C23.8,20.1 22.7,20 22.1,19.7 L5.5,11.7 C4.9,11.4 14.7,6.3 15.3,6.1 C15.3,6.1 22.4,2.8 22.7,2.8 C23.6,2.5 24.7,2.6 25.3,2.9 L41.8,10.8 C42.4,11.1 32.7,16.2 32.1,16.5 C32,16.5 25,19.8 24.7,19.8 Z" opacity=".634"/>
        <path fill="#7183C2" d="M24.6,19.7 C23.8,20 22.7,19.9 22.1,19.6 L5.5,11.6 C5,11.3 15.1,6.1 15.6,5.8 C15.6,5.8 22.2,2.7 22.5,2.7 C23.3,2.4 24.4,2.5 25,2.8 L41.4,10.7 C41.9,11 31.8,16.2 31.3,16.5 C31.4,16.6 24.9,19.7 24.6,19.7 Z" opacity=".658"/>
        <path fill="#6C7EBF" d="M24.5,19.7 C23.7,19.9 22.7,19.9 22.2,19.6 L5.7,11.7 C5.2,11.5 15.7,6.1 16.2,5.8 C16.2,5.8 22.4,3 22.7,2.9 C23.4,2.6 24.5,2.7 25.1,3 L41.5,10.9 C42,11.1 31.5,16.6 31,16.8 C30.9,16.8 24.8,19.7 24.5,19.7 Z" opacity=".683"/>
        <path fill="#6779BD" d="M24.5,19.6 C23.7,19.8 22.8,19.8 22.3,19.5 L5.9,11.6 C5.4,11.4 16.3,5.8 16.8,5.6 C16.8,5.6 22.6,3 22.8,2.9 C23.5,2.6 24.5,2.7 25,3 L41.3,10.8 C41.8,11 30.9,16.6 30.5,16.8 C30.4,16.9 24.8,19.6 24.5,19.6 Z" opacity=".707"/>
        <path fill="#6275BB" d="M24.4,19.5 C23.7,19.7 22.8,19.6 22.3,19.4 L6,11.6 C5.6,11.4 16.8,5.7 17.3,5.5 C17.3,5.5 22.6,3.2 22.9,3 C23.6,2.7 24.6,2.9 25,3.1 L41.2,10.9 C41.6,11.1 30.4,16.8 30,17 C29.9,17.1 24.7,19.5 24.4,19.5 Z" opacity=".732"/>
        <path fill="#5C70B9" d="M24.3,19.4 C23.6,19.6 22.7,19.5 22.3,19.3 L6.1,11.5 C5.7,11.3 17.4,5.5 17.7,5.3 C17.7,5.3 22.6,3.2 22.9,3 C23.6,2.7 24.5,2.9 24.9,3.1 L41,10.9 C41.4,11.1 29.8,17 29.4,17.1 C29.4,17.2 24.7,19.4 24.3,19.4 Z" opacity=".756"/>
        <path fill="#576BB6" d="M24.3,19.4 C23.6,19.6 22.8,19.5 22.4,19.3 L6.3,11.5 C6,11.3 18,5.4 18.3,5.2 C18.3,5.2 22.7,3.3 23,3.2 C23.7,3 24.5,3.1 24.9,3.3 L40.9,11 C41.2,11.2 29.3,17.2 28.9,17.3 C28.9,17.3 24.6,19.4 24.3,19.4 Z" opacity=".78"/>
        <path fill="#5267B4" d="M24.2,19.3 C23.5,19.4 22.8,19.4 22.5,19.2 L6.4,11.5 C6.1,11.4 18.5,5.2 18.8,5.1 C18.8,5.1 22.8,3.4 23.1,3.3 C23.7,3.1 24.5,3.2 24.9,3.4 L40.9,11.1 C41.2,11.2 28.9,17.4 28.6,17.6 C28.4,17.5 24.5,19.3 24.2,19.3 Z" opacity=".805"/>
        <path fill="#4D62B2" d="M24.1,19.2 C23.5,19.3 22.8,19.3 22.5,19.1 L6.5,11.4 C6.2,11.3 19,5 19.3,4.9 C19.3,4.9 22.8,3.4 23.2,3.3 C23.8,3.1 24.5,3.2 24.8,3.4 L40.7,11 C41,11.1 28.3,17.4 28,17.6 C27.9,17.6 24.5,19.2 24.1,19.2 Z" opacity=".829"/>
        <path fill="#475EB0" d="M24,19.2 C23.4,19.3 22.8,19.2 22.5,19.1 L6.6,11.5 C6.4,11.4 19.5,5 19.7,4.9 C19.8,4.9 22.8,3.6 23.1,3.5 C23.7,3.3 24.3,3.5 24.6,3.6 L40.4,11.2 C40.6,11.3 27.5,17.8 27.3,17.9 C27.4,17.8 24.4,19.2 24,19.2 Z" opacity=".854"/>
        <path fill="#4259AD" d="M24,19.1 C23.4,19.2 22.9,19.1 22.6,19 L6.8,11.4 C6.6,11.3 20.1,4.7 20.3,4.6 C20.4,4.6 22.9,3.5 23.3,3.4 C23.9,3.3 24.5,3.4 24.7,3.5 L40.4,11.1 C40.6,11.2 27.1,17.8 26.9,17.9 C26.9,17.9 24.4,19.1 24,19.1 Z" opacity=".878"/>
        <path fill="#3D54AB" d="M23.9,19 C23.3,19.1 22.8,19 22.6,18.9 L6.9,11.3 C6.7,11.2 20.6,4.5 20.8,4.4 C20.9,4.4 23,3.5 23.3,3.4 C23.9,3.3 24.4,3.4 24.6,3.5 L40.2,11 C40.4,11.1 26.5,17.8 26.4,17.9 C26.4,18.1 24.3,19 23.9,19 Z" opacity=".902"/>
        <path fill="#3850A9" d="M23.8,19 C23.3,19.1 22.8,19 22.6,18.9 L6.9,11.4 C6.8,11.3 21.1,4.5 21.2,4.4 C21.3,4.4 22.9,3.7 23.3,3.6 C23.8,3.5 24.3,3.6 24.5,3.7 L40.1,11.2 C40.2,11.3 26,18.2 25.9,18.2 C25.9,18.2 24.2,19 23.8,19 Z" opacity=".927"/>
        <path fill="#324BA7" d="M23.8,18.9 C23.3,18.9 22.9,18.9 22.8,18.8 L7.2,11.3 C7.1,11.3 21.8,4.2 21.8,4.2 C21.9,4.2 23,3.7 23.5,3.7 C24,3.6 24.4,3.7 24.6,3.8 L40.1,11.2 C40.2,11.2 25.6,18.3 25.5,18.3 C25.4,18.4 24.2,18.9 23.8,18.9 Z" opacity=".951"/>
        <path fill="#2D47A4" d="M23.7,18.8 C23.2,18.8 22.9,18.7 22.8,18.7 L7.3,11.3 C7.3,11.3 22.3,4.1 22.3,4.1 C22.4,4.1 23.1,3.8 23.5,3.8 C24,3.8 24.3,3.9 24.4,3.9 L39.8,11.3 C39.8,11.3 24.9,18.5 24.9,18.6 C24.9,18.5 24.1,18.8 23.7,18.8 Z" opacity=".976"/>
        <path fill="#2842A2" d="M23.6,18.7 C23.2,18.7 22.9,18.6 22.8,18.6 L7.4,11.2 L22.8,3.9 C22.9,3.9 23.1,3.8 23.6,3.8 C24.1,3.8 24.3,3.9 24.4,3.9 L39.7,11.3 L24.4,18.7 C24.4,18.7 24.1,18.7 23.6,18.7 Z"/>
      </g>
      <g transform="translate(4)">
        <path fill="url(#a)" d="M38.6,15.1 C38.6,15 38.6,15 38.6,14.9 L38.5,9.3 L24.4,9.2 L23.8,8.9 C22.5,8.3 20.4,8.3 19.1,8.9 L18.4,9.2 L0.8,9.1 L0.9,15.8 C0.9,16.4 1.3,17 1.9,17.3 L17.4,24.8 C18.7,25.4 20.8,25.4 22.1,24.8 L38,17.3 C38.4,17.1 38.7,16.7 38.7,16.3 L38.6,15.1 Z"/>
        <path fill="url(#b)" d="M22,0.8 C20.7,0.2 18.6,0.2 17.3,0.8 L1.8,8.2 C0.5,8.8 0.5,9.8 1.8,10.5 L17.4,18 C18.7,18.6 20.8,18.6 22.1,18 L37.6,10.6 C38.9,10 38.9,9 37.6,8.3 L22,0.8 Z"/>
      </g>
    </g>
    <g transform="translate(299 280)">
      <g opacity=".6" transform="translate(0 6)">
        <path fill="#FFFFFF" d="M26.5,1 C24.9,0.2 22.4,0.2 20.8,1 L2.1,9.9 C0.5,10.6 0.5,11.9 2.1,12.6 L20.9,21.6 C22.5,22.4 25,22.4 26.6,21.6 L45.2,12.6 C46.8,11.8 46.8,10.6 45.2,9.9 L26.5,1 Z" opacity="0"/>
        <path fill="#FAFAFD" d="M26.4,21.5 C24.9,22.2 22.4,22.2 20.8,21.5 L2.1,12.5 C0.6,11.8 1,10.4 2.5,9.7 C2.5,9.7 20.8,1 20.8,1 C22.3,0.3 24.8,0.3 26.4,1 L45,9.9 C46.5,10.6 46.2,12 44.6,12.7 C44.6,12.8 26.4,21.5 26.4,21.5 Z" opacity=".024"/>
        <path fill="#F5F6FA" d="M26.3,21.5 C24.8,22.2 22.3,22.2 20.9,21.5 L2.3,12.6 C0.8,11.9 1.6,10.4 3.1,9.7 C3.1,9.7 20.9,1.2 21,1.2 C22.5,0.5 25,0.5 26.5,1.2 L45,10.1 C46.5,10.8 45.7,12.3 44.3,13.1 C44.1,12.9 26.4,21.5 26.3,21.5 Z" opacity=".049"/>
        <path fill="#EFF1F8" d="M26.3,21.4 C24.8,22.1 22.4,22.1 21,21.4 L2.5,12.5 C1.1,11.8 2.2,10.1 3.6,9.4 C3.6,9.4 21,1.1 21,1.1 C22.5,0.4 24.9,0.4 26.3,1.1 L44.7,9.9 C46.1,10.6 45,12.3 43.6,13 C43.6,13.1 26.3,21.4 26.3,21.4 Z" opacity=".073"/>
        <path fill="#EAEDF6" d="M26.2,21.3 C24.7,22 22.4,22 21,21.3 L2.6,12.4 C1.2,11.7 2.7,9.9 4.1,9.2 C4.1,9.2 21,1.1 21.1,1.1 C22.6,0.4 24.9,0.4 26.3,1.1 L44.6,9.9 C46,10.6 44.5,12.4 43.1,13.1 C43.1,13.2 26.2,21.3 26.2,21.3 Z" opacity=".098"/>
        <path fill="#E5E8F4" d="M26.1,21.3 C24.7,22 22.4,21.9 21,21.3 L2.7,12.5 C1.3,11.8 3.2,9.9 4.6,9.2 C4.6,9.2 21.1,1.4 21.2,1.4 C22.6,0.7 24.9,0.8 26.3,1.4 L44.5,10.2 C45.9,10.9 44,12.8 42.6,13.5 C42.6,13.4 26.2,21.3 26.1,21.3 Z" opacity=".122"/>
        <path fill="#E0E3F1" d="M26.1,21.2 C24.7,21.8 22.5,21.8 21.1,21.2 L2.8,12.4 C1.5,11.8 3.7,9.6 5.1,9 C5.1,9 21.2,1.4 21.2,1.4 C22.6,0.8 24.8,0.8 26.2,1.4 L44.3,10.1 C45.6,10.7 43.4,12.9 42.1,13.5 C42.1,13.5 26.1,21.2 26.1,21.2 Z" opacity=".146"/>
        <path fill="#DADFEF" d="M26,21.1 C24.6,21.7 22.5,21.7 21.2,21.1 L3,12.4 C1.7,11.8 4.3,9.5 5.6,8.9 C5.6,8.9 21.2,1.5 21.3,1.5 C22.7,0.9 24.9,0.9 26.2,1.5 L44.3,10.2 C45.6,10.8 43,13.1 41.7,13.7 C41.6,13.7 26.1,21.1 26,21.1 Z" opacity=".171"/>
        <path fill="#D5DAED" d="M25.9,21 C24.6,21.6 22.4,21.6 21.2,21 L3.1,12.3 C1.8,11.7 4.8,9.3 6.1,8.7 C6.1,8.7 21.3,1.5 21.3,1.5 C22.6,0.9 24.8,0.9 26,1.5 L44,10.1 C45.3,10.7 42.3,13.1 41,13.7 C41.1,13.8 26,21 25.9,21 Z" opacity=".195"/>
        <path fill="#D0D6EB" d="M25.8,21 C24.5,21.6 22.4,21.6 21.2,21 L3.2,12.3 C2,11.7 5.4,9.2 6.6,8.6 C6.6,8.6 21.3,1.6 21.4,1.6 C22.7,1 24.8,1 26,1.6 L43.9,10.2 C45.1,10.8 41.8,13.4 40.5,13.9 C40.6,14 25.9,21 25.8,21 Z" opacity=".22"/>
        <path fill="#CBD1E8" d="M25.8,20.9 C24.5,21.5 22.5,21.4 21.3,20.9 L3.4,12.3 C2.2,11.7 6,9 7.2,8.5 C7.2,8.5 21.5,1.7 21.6,1.7 C22.9,1.1 24.9,1.2 26.1,1.7 L43.9,10.3 C45.1,10.9 41.3,13.6 40.2,14.2 C40,14.1 25.9,20.9 25.8,20.9 Z" opacity=".244"/>
        <path fill="#C5CCE6" d="M25.7,20.8 C24.4,21.3 22.5,21.3 21.3,20.8 L3.4,12.2 C2.3,11.7 6.4,8.8 7.5,8.2 C7.5,8.2 21.3,1.6 21.4,1.6 C22.7,1.1 24.6,1.1 25.8,1.6 L43.5,10.1 C44.6,10.6 40.5,13.5 39.4,14.1 C39.5,14.3 25.8,20.8 25.7,20.8 Z" opacity=".268"/>
        <path fill="#C0C8E4" d="M25.6,20.8 C24.4,21.3 22.5,21.3 21.3,20.8 L3.5,12.3 C2.4,11.8 6.9,8.8 8,8.2 C8,8.2 21.4,1.9 21.5,1.9 C22.7,1.4 24.6,1.4 25.8,1.9 L43.5,10.4 C44.6,10.9 40.1,14 39,14.5 C39,14.4 25.8,20.8 25.6,20.8 Z" opacity=".293"/>
        <path fill="#BBC3E2" d="M25.6,20.7 C24.4,21.2 22.6,21.2 21.5,20.7 L3.8,12.2 C2.7,11.7 7.6,8.5 8.7,8 C8.7,8 21.6,1.9 21.8,1.9 C23,1.4 24.9,1.4 25.9,1.9 L43.5,10.3 C44.6,10.8 39.7,14 38.6,14.5 C38.5,14.6 25.7,20.7 25.6,20.7 Z" opacity=".317"/>
        <path fill="#B6BEDF" d="M25.5,20.6 C24.3,21.1 22.5,21.1 21.5,20.6 L3.9,12.1 C2.9,11.6 8.1,8.3 9.2,7.8 C9.2,7.8 21.7,1.9 21.8,1.9 C23,1.4 24.8,1.4 25.8,1.9 L43.3,10.3 C44.3,10.8 39.1,14.1 38.1,14.6 C38,14.7 25.7,20.6 25.5,20.6 Z" opacity=".342"/>
        <path fill="#B0BADD" d="M25.4,20.6 C24.2,21.1 22.5,21 21.5,20.6 L4,12.2 C3,11.7 8.6,8.3 9.6,7.8 C9.6,7.8 21.6,2.1 21.8,2.1 C23,1.6 24.7,1.7 25.7,2.1 L43.1,10.5 C44.1,11 38.5,14.4 37.5,14.9 C37.5,14.8 25.6,20.6 25.4,20.6 Z" opacity=".366"/>
        <path fill="#ABB5DB" d="M25.4,20.5 C24.3,21 22.6,20.9 21.6,20.5 L4.1,12.1 C3.1,11.6 9.2,8 10.1,7.6 C10.1,7.6 21.7,2.1 21.8,2.1 C22.9,1.6 24.6,1.7 25.6,2.1 L42.9,10.4 C43.9,10.9 37.9,14.5 36.9,14.9 C37,15 25.5,20.5 25.4,20.5 Z" opacity=".39"/>
        <path fill="#A6B1D8" d="M25.3,20.4 C24.2,20.8 22.6,20.8 21.6,20.4 L4.2,12.1 C3.3,11.7 9.7,7.9 10.6,7.5 C10.6,7.5 21.7,2.2 21.9,2.2 C23,1.8 24.6,1.8 25.6,2.3 L42.9,10.6 C43.8,11 37.5,14.8 36.5,15.3 C36.5,15.1 25.5,20.4 25.3,20.4 Z" opacity=".415"/>
        <path fill="#A1ACD6" d="M25.2,20.3 C24.1,20.7 22.6,20.7 21.7,20.3 L4.4,12 C3.5,11.6 10.3,7.7 11.2,7.3 C11.2,7.3 21.9,2.3 22.1,2.3 C23.2,1.9 24.7,1.9 25.6,2.4 L42.8,10.7 C43.7,11.1 37,15 36.1,15.5 C36,15.3 25.4,20.3 25.2,20.3 Z" opacity=".439"/>
        <path fill="#9BA7D4" d="M25.2,20.3 C24.2,20.7 22.7,20.7 21.8,20.2 L4.6,11.9 C3.8,11.5 10.9,7.4 11.7,7 C11.7,7 21.9,2.2 22.1,2.2 C23.2,1.8 24.7,1.8 25.5,2.3 L42.6,10.5 C43.4,10.9 36.3,15 35.5,15.4 C35.5,15.4 25.4,20.3 25.2,20.3 Z" opacity=".463"/>
        <path fill="#96A3D2" d="M25.1,20.2 C24.1,20.6 22.6,20.5 21.8,20.1 L4.7,11.9 C3.9,11.5 11.4,7.3 12.2,6.9 C12.2,6.9 22,2.3 22.2,2.3 C23.2,1.9 24.7,2 25.5,2.4 L42.5,10.6 C43.3,11 35.8,15.2 35,15.6 C35,15.6 25.3,20.2 25.1,20.2 Z" opacity=".488"/>
        <path fill="#919ECF" d="M25,20.1 C24,20.5 22.6,20.4 21.8,20 L4.8,11.8 C4,11.4 11.9,7.1 12.7,6.7 C12.7,6.7 22,2.3 22.3,2.3 C23.3,1.9 24.7,2 25.5,2.4 L42.4,10.5 C43.2,10.9 35.3,15.2 34.6,15.6 C34.5,15.7 25.2,20.1 25,20.1 Z" opacity=".512"/>
        <path fill="#8C9ACD" d="M24.9,20.1 C23.9,20.4 22.6,20.4 21.8,20 L4.8,11.8 C4.1,11.5 12.3,7 13.1,6.6 C13.1,6.6 22,2.4 22.2,2.4 C23.2,2.1 24.5,2.1 25.3,2.5 L42.2,10.6 C42.9,10.9 34.7,15.5 34,15.8 C34,15.9 25.2,20.1 24.9,20.1 Z" opacity=".537"/>
        <path fill="#8695CB" d="M24.9,20 C24,20.3 22.7,20.3 22,19.9 L5.1,11.8 C4.4,11.5 13,6.8 13.7,6.5 C13.7,6.5 22.1,2.5 22.4,2.5 C23.3,2.2 24.6,2.2 25.4,2.6 L42.2,10.7 C42.9,11 34.3,15.7 33.6,16 C33.5,16 25.1,20 24.9,20 Z" opacity=".561"/>
        <path fill="#8190C9" d="M24.8,19.9 C23.9,20.2 22.7,20.2 22,19.8 L5.2,11.7 C4.6,11.4 13.6,6.6 14.2,6.3 C14.2,6.3 22.2,2.5 22.4,2.5 C23.3,2.2 24.5,2.2 25.2,2.6 L41.9,10.6 C42.5,10.9 33.6,15.7 32.9,16 C33,16.2 25.1,19.9 24.8,19.9 Z" opacity=".585"/>
        <path fill="#7C8CC6" d="M24.7,19.9 C23.8,20.2 22.6,20.1 22,19.8 L5.3,11.8 C4.7,11.5 14.1,6.6 14.7,6.3 C14.7,6.3 22.2,2.8 22.5,2.8 C23.4,2.5 24.6,2.6 25.2,2.9 L41.8,10.9 C42.4,11.2 33.1,16.2 32.5,16.5 C32.5,16.3 25,19.9 24.7,19.9 Z" opacity=".61"/>
        <path fill="#7787C4" d="M24.7,19.8 C23.8,20.1 22.7,20 22.1,19.7 L5.5,11.7 C4.9,11.4 14.7,6.3 15.3,6.1 C15.3,6.1 22.4,2.8 22.7,2.8 C23.6,2.5 24.7,2.6 25.3,2.9 L41.8,10.8 C42.4,11.1 32.7,16.2 32.1,16.5 C32,16.5 25,19.8 24.7,19.8 Z" opacity=".634"/>
        <path fill="#7183C2" d="M24.6,19.7 C23.8,20 22.7,19.9 22.1,19.6 L5.5,11.6 C5,11.3 15.1,6.1 15.6,5.8 C15.6,5.8 22.2,2.7 22.5,2.7 C23.3,2.4 24.4,2.5 25,2.8 L41.4,10.7 C41.9,11 31.8,16.2 31.3,16.5 C31.4,16.6 24.9,19.7 24.6,19.7 Z" opacity=".658"/>
        <path fill="#6C7EBF" d="M24.5,19.7 C23.7,19.9 22.7,19.9 22.2,19.6 L5.7,11.7 C5.2,11.5 15.7,6.1 16.2,5.8 C16.2,5.8 22.4,3 22.7,2.9 C23.4,2.6 24.5,2.7 25.1,3 L41.5,10.9 C42,11.1 31.5,16.6 31,16.8 C30.9,16.8 24.8,19.7 24.5,19.7 Z" opacity=".683"/>
        <path fill="#6779BD" d="M24.5,19.6 C23.7,19.8 22.8,19.8 22.3,19.5 L5.9,11.6 C5.4,11.4 16.3,5.8 16.8,5.6 C16.8,5.6 22.6,3 22.8,2.9 C23.5,2.6 24.5,2.7 25,3 L41.3,10.8 C41.8,11 30.9,16.6 30.5,16.8 C30.4,16.9 24.8,19.6 24.5,19.6 Z" opacity=".707"/>
        <path fill="#6275BB" d="M24.4,19.5 C23.7,19.7 22.8,19.6 22.3,19.4 L6,11.6 C5.6,11.4 16.8,5.7 17.3,5.5 C17.3,5.5 22.6,3.2 22.9,3 C23.6,2.7 24.6,2.9 25,3.1 L41.2,10.9 C41.6,11.1 30.4,16.8 30,17 C29.9,17.1 24.7,19.5 24.4,19.5 Z" opacity=".732"/>
        <path fill="#5C70B9" d="M24.3,19.4 C23.6,19.6 22.7,19.5 22.3,19.3 L6.1,11.5 C5.7,11.3 17.4,5.5 17.7,5.3 C17.7,5.3 22.6,3.2 22.9,3 C23.6,2.7 24.5,2.9 24.9,3.1 L41,10.9 C41.4,11.1 29.8,17 29.4,17.1 C29.4,17.2 24.7,19.4 24.3,19.4 Z" opacity=".756"/>
        <path fill="#576BB6" d="M24.3,19.4 C23.6,19.6 22.8,19.5 22.4,19.3 L6.3,11.5 C6,11.3 18,5.4 18.3,5.2 C18.3,5.2 22.7,3.3 23,3.2 C23.7,3 24.5,3.1 24.9,3.3 L40.9,11 C41.2,11.2 29.3,17.2 28.9,17.3 C28.9,17.3 24.6,19.4 24.3,19.4 Z" opacity=".78"/>
        <path fill="#5267B4" d="M24.2,19.3 C23.5,19.4 22.8,19.4 22.5,19.2 L6.4,11.5 C6.1,11.4 18.5,5.2 18.8,5.1 C18.8,5.1 22.8,3.4 23.1,3.3 C23.7,3.1 24.5,3.2 24.9,3.4 L40.9,11.1 C41.2,11.2 28.9,17.4 28.6,17.6 C28.4,17.5 24.5,19.3 24.2,19.3 Z" opacity=".805"/>
        <path fill="#4D62B2" d="M24.1,19.2 C23.5,19.3 22.8,19.3 22.5,19.1 L6.5,11.4 C6.2,11.3 19,5 19.3,4.9 C19.3,4.9 22.8,3.4 23.2,3.3 C23.8,3.1 24.5,3.2 24.8,3.4 L40.7,11 C41,11.1 28.3,17.4 28,17.6 C27.9,17.6 24.5,19.2 24.1,19.2 Z" opacity=".829"/>
        <path fill="#475EB0" d="M24,19.2 C23.4,19.3 22.8,19.2 22.5,19.1 L6.6,11.5 C6.4,11.4 19.5,5 19.7,4.9 C19.8,4.9 22.8,3.6 23.1,3.5 C23.7,3.3 24.3,3.5 24.6,3.6 L40.4,11.2 C40.6,11.3 27.5,17.8 27.3,17.9 C27.4,17.8 24.4,19.2 24,19.2 Z" opacity=".854"/>
        <path fill="#4259AD" d="M24,19.1 C23.4,19.2 22.9,19.1 22.6,19 L6.8,11.4 C6.6,11.3 20.1,4.7 20.3,4.6 C20.4,4.6 22.9,3.5 23.3,3.4 C23.9,3.3 24.5,3.4 24.7,3.5 L40.4,11.1 C40.6,11.2 27.1,17.8 26.9,17.9 C26.9,17.9 24.4,19.1 24,19.1 Z" opacity=".878"/>
        <path fill="#3D54AB" d="M23.9,19 C23.3,19.1 22.8,19 22.6,18.9 L6.9,11.3 C6.7,11.2 20.6,4.5 20.8,4.4 C20.9,4.4 23,3.5 23.3,3.4 C23.9,3.3 24.4,3.4 24.6,3.5 L40.2,11 C40.4,11.1 26.5,17.8 26.4,17.9 C26.4,18.1 24.3,19 23.9,19 Z" opacity=".902"/>
        <path fill="#3850A9" d="M23.8,19 C23.3,19.1 22.8,19 22.6,18.9 L6.9,11.4 C6.8,11.3 21.1,4.5 21.2,4.4 C21.3,4.4 22.9,3.7 23.3,3.6 C23.8,3.5 24.3,3.6 24.5,3.7 L40.1,11.2 C40.2,11.3 26,18.2 25.9,18.2 C25.9,18.2 24.2,19 23.8,19 Z" opacity=".927"/>
        <path fill="#324BA7" d="M23.8,18.9 C23.3,18.9 22.9,18.9 22.8,18.8 L7.2,11.3 C7.1,11.3 21.8,4.2 21.8,4.2 C21.9,4.2 23,3.7 23.5,3.7 C24,3.6 24.4,3.7 24.6,3.8 L40.1,11.2 C40.2,11.2 25.6,18.3 25.5,18.3 C25.4,18.4 24.2,18.9 23.8,18.9 Z" opacity=".951"/>
        <path fill="#2D47A4" d="M23.7,18.8 C23.2,18.8 22.9,18.7 22.8,18.7 L7.3,11.3 C7.3,11.3 22.3,4.1 22.3,4.1 C22.4,4.1 23.1,3.8 23.5,3.8 C24,3.8 24.3,3.9 24.4,3.9 L39.8,11.3 C39.8,11.3 24.9,18.5 24.9,18.6 C24.9,18.5 24.1,18.8 23.7,18.8 Z" opacity=".976"/>
        <path fill="#2842A2" d="M23.6,18.7 C23.2,18.7 22.9,18.6 22.8,18.6 L7.4,11.2 L22.8,3.9 C22.9,3.9 23.1,3.8 23.6,3.8 C24.1,3.8 24.3,3.9 24.4,3.9 L39.7,11.3 L24.4,18.7 C24.4,18.7 24.1,18.7 23.6,18.7 Z"/>
      </g>
      <g transform="translate(4)">
        <path fill="url(#a)" d="M38.6,15.1 C38.6,15 38.6,15 38.6,14.9 L38.5,9.3 L24.4,9.2 L23.8,8.9 C22.5,8.3 20.4,8.3 19.1,8.9 L18.4,9.2 L0.8,9.1 L0.9,15.8 C0.9,16.4 1.3,17 1.9,17.3 L17.4,24.8 C18.7,25.4 20.8,25.4 22.1,24.8 L38,17.3 C38.4,17.1 38.7,16.7 38.7,16.3 L38.6,15.1 Z"/>
        <path fill="url(#b)" d="M22,0.8 C20.7,0.2 18.6,0.2 17.3,0.8 L1.8,8.2 C0.5,8.8 0.5,9.8 1.8,10.5 L17.4,18 C18.7,18.6 20.8,18.6 22.1,18 L37.6,10.6 C38.9,10 38.9,9 37.6,8.3 L22,0.8 Z"/>
      </g>
    </g>
    <g transform="translate(5)">
      <path fill="url(#c)" d="M129.4,165.7 C133,163.6 138.8,163.6 142.3,165.7 L333.5,276.1 C337.1,278.2 337.1,281.5 333.5,283.6 L206.8,356.8 C203.2,358.9 197.4,358.9 193.9,356.8 L2.7,246.4 C-0.9,244.3 -0.9,241 2.7,238.9 L129.4,165.7 Z"/>
      <path fill="url(#d)" d="M336.3,279.9 L336.3,287.3 C336.3,288.7 335.5,290.1 333.6,291.1 L206.9,364.3 C203.3,366.4 197.5,366.4 194,364.3 L2.7,253.9 C0.9,252.9 0,251.5 0,250.2 L0,242.9 C0,242.9 0,242.8 0,242.8 C0,244.1 0.9,245.4 2.7,246.5 L193.9,356.9 C197.5,359 203.3,359 206.8,356.9 L333.5,283.7 C335.4,282.6 336.3,281.2 336.3,279.9 Z"/>
      <path fill="url(#c)" d="M135.4,8 C135.4,3.9 138.3,2.2 141.9,4.3 L333.1,114.7 C336.7,116.8 339.6,121.8 339.6,125.9 L339.6,272.2 C339.6,276.3 336.7,278 333.1,275.9 L141.9,165.5 C138.3,163.4 135.4,158.4 135.4,154.3 L135.4,8 Z"/>
      <path fill="url(#e)" d="M327.9,262.5 C329.3,263.3 330.5,262.6 330.5,261 L330.5,126.6 C330.5,125 329.3,122.9 327.9,122.1 L147.1,17.7 C145.7,16.9 144.5,17.6 144.5,19.2 L144.5,153.6 C144.5,155.2 145.7,157.3 147.1,158.1 L327.9,262.5 Z"/>
      <path fill="#D40059" d="M66.4,215.9 C65.7,216.3 65.7,217 66.4,217.4 L243.8,319.8 C244.5,320.2 245.7,320.2 246.4,319.8 L317.2,279.2 C317.9,278.8 317.9,278.1 317.2,277.7 L139.9,175.3 C139.2,174.9 138,174.9 137.3,175.3 L66.4,215.9 Z"/>
      <g fill="#FFFFFF" transform="translate(72 178)">
        <path d="M212.7 104.1C212 104.5 212 105.2 212.7 105.6L220.6 110.2C221.3 110.6 222.5 110.6 223.2 110.2L231.1 105.6C231.8 105.2 231.8 104.5 231.1 104.1L223.2 99.5C222.5 99.1 221.3 99.1 220.6 99.5L212.7 104.1zM200.6 97.2C199.9 97.6 199.9 98.3 200.6 98.7L208.5 103.3C209.2 103.7 210.4 103.7 211.1 103.3L219 98.7C219.7 98.3 219.7 97.6 219 97.2L211.1 92.6C210.4 92.2 209.2 92.2 208.5 92.6L200.6 97.2zM188.6 90.2C187.9 90.6 187.9 91.3 188.6 91.7L196.5 96.2C197.2 96.6 198.4 96.6 199.1 96.2L207 91.7C207.7 91.3 207.7 90.6 207 90.2L199.1 85.7C198.4 85.3 197.2 85.3 196.5 85.7L188.6 90.2zM176.5 83.2C175.8 83.6 175.8 84.3 176.5 84.7L184.4 89.3C185.1 89.7 186.3 89.7 187 89.3L194.9 84.7C195.6 84.3 195.6 83.6 194.9 83.2L187 78.6C186.3 78.2 185.1 78.2 184.4 78.6L176.5 83.2zM164.5 76.3C163.8 76.7 163.8 77.4 164.5 77.8L172.4 82.3C173.1 82.7 174.3 82.7 175 82.3L182.9 77.8C183.6 77.4 183.6 76.7 182.9 76.3L175 71.7C174.3 71.3 173.1 71.3 172.4 71.7L164.5 76.3zM152.4 69.3C151.7 69.7 151.7 70.4 152.4 70.8L160.3 75.4C161 75.8 162.2 75.8 162.9 75.4L170.8 70.8C171.5 70.4 171.5 69.7 170.8 69.3L162.9 64.7C162.2 64.3 161 64.3 160.3 64.7L152.4 69.3zM140.3 62.3C139.6 62.7 139.6 63.4 140.3 63.8L148.2 68.4C148.9 68.8 150.1 68.8 150.8 68.4L158.7 63.8C159.4 63.4 159.4 62.7 158.7 62.3L150.8 57.7C150.1 57.3 148.9 57.3 148.2 57.7L140.3 62.3zM128.3 55.4C127.6 55.8 127.6 56.5 128.3 56.9L136.2 61.5C136.9 61.9 138.1 61.9 138.8 61.5L146.7 56.9C147.4 56.5 147.4 55.8 146.7 55.4L138.8 50.9C138.1 50.5 136.9 50.5 136.2 50.9L128.3 55.4zM116.2 48.4C115.5 48.8 115.5 49.5 116.2 49.9L124.1 54.5C124.8 54.9 126 54.9 126.7 54.5L134.6 49.9C135.3 49.5 135.3 48.8 134.6 48.4L126.7 43.9C126 43.5 124.8 43.5 124.1 43.9L116.2 48.4zM104.2 41.4C103.5 41.8 103.5 42.5 104.2 42.9L112.1 47.5C112.8 47.9 114 47.9 114.7 47.5L122.6 42.9C123.3 42.5 123.3 41.8 122.6 41.4L114.7 36.8C114 36.4 112.8 36.4 112.1 36.8L104.2 41.4zM92.1 34.5C91.4 34.9 91.4 35.6 92.1 36L100 40.6C100.7 41 101.9 41 102.6 40.6L110.5 36C111.2 35.6 111.2 34.9 110.5 34.5L102.6 30C101.9 29.6 100.7 29.6 100 30L92.1 34.5zM80 27.5C79.3 27.9 79.3 28.6 80 29L87.9 33.6C88.6 34 89.8 34 90.5 33.6L98.4 29C99.1 28.6 99.1 27.9 98.4 27.5L90.5 23C89.8 22.6 88.6 22.6 87.9 23L80 27.5zM68 20.6C67.3 21 67.3 21.7 68 22.1L75.9 26.6C76.6 27 77.8 27 78.5 26.6L86.4 22.1C87.1 21.7 87.1 21 86.4 20.6L78.5 16.1C77.8 15.7 76.6 15.7 75.9 16.1L68 20.6zM224.3 97C223.6 97.4 223.6 98.1 224.3 98.5L232.6 103.3C233.3 103.7 234.5 103.7 235.2 103.3L238.7 101.3C239.4 100.9 239.4 100.2 238.7 99.8L230.4 95C229.7 94.6 228.5 94.6 227.8 95L224.3 97zM211.8 89.8C211.1 90.2 211.1 90.9 211.8 91.3L220.1 96.1C220.8 96.5 222 96.5 222.7 96.1L226.2 94.1C226.9 93.7 226.9 93 226.2 92.6L217.9 87.8C217.2 87.4 216 87.4 215.3 87.8L211.8 89.8zM199.3 82.6C198.6 83 198.6 83.7 199.3 84.1L207.6 88.9C208.3 89.3 209.5 89.3 210.2 88.9L213.7 86.9C214.4 86.5 214.4 85.8 213.7 85.4L205.4 80.6C204.7 80.2 203.5 80.2 202.8 80.6L199.3 82.6zM186.8 75.4C186.1 75.8 186.1 76.5 186.8 76.9L195.1 81.7C195.8 82.1 197 82.1 197.7 81.7L201.2 79.7C201.9 79.3 201.9 78.6 201.2 78.2L192.9 73.4C192.2 73 191 73 190.3 73.4L186.8 75.4zM174.3 68.2C173.6 68.6 173.6 69.3 174.3 69.7L182.6 74.5C183.3 74.9 184.5 74.9 185.2 74.5L188.7 72.5C189.4 72.1 189.4 71.4 188.7 71L180.4 66.2C179.7 65.8 178.5 65.8 177.8 66.2L174.3 68.2zM161.8 60.9C161.1 61.3 161.1 62 161.8 62.4L170.1 67.2C170.8 67.6 172 67.6 172.7 67.2L176.2 65.2C176.9 64.8 176.9 64.1 176.2 63.7L167.9 58.9C167.2 58.5 166 58.5 165.3 58.9L161.8 60.9zM149.3 53.7C148.6 54.1 148.6 54.8 149.3 55.2L157.6 60C158.3 60.4 159.5 60.4 160.2 60L163.7 58C164.4 57.6 164.4 56.9 163.7 56.5L155.4 51.7C154.7 51.3 153.5 51.3 152.8 51.7L149.3 53.7zM136.8 46.5C136.1 46.9 136.1 47.6 136.8 48L145.1 52.8C145.8 53.2 147 53.2 147.7 52.8L151.2 50.8C151.9 50.4 151.9 49.7 151.2 49.3L142.9 44.5C142.2 44.1 141 44.1 140.3 44.5L136.8 46.5zM124.3 39.3C123.6 39.7 123.6 40.4 124.3 40.8L132.6 45.6C133.3 46 134.5 46 135.2 45.6L138.7 43.6C139.4 43.2 139.4 42.5 138.7 42.1L130.4 37.3C129.7 36.9 128.5 36.9 127.8 37.3L124.3 39.3zM111.8 32.1C111.1 32.5 111.1 33.2 111.8 33.6L120.1 38.4C120.8 38.8 122 38.8 122.7 38.4L126.2 36.4C126.9 36 126.9 35.3 126.2 34.9L117.9 30.1C117.2 29.7 116 29.7 115.3 30.1L111.8 32.1zM99.3 24.9C98.6 25.3 98.6 26 99.3 26.4L107.6 31.2C108.3 31.6 109.5 31.6 110.2 31.2L113.7 29.2C114.4 28.8 114.4 28.1 113.7 27.7L105.4 22.9C104.7 22.5 103.5 22.5 102.8 22.9L99.3 24.9zM86.8 17.7C86.1 18.1 86.1 18.8 86.8 19.2L95.1 24C95.8 24.4 97 24.4 97.7 24L101.2 22C101.9 21.6 101.9 20.9 101.2 20.5L92.9 15.7C92.2 15.3 91 15.3 90.3 15.7L86.8 17.7zM74.3 10.4C73.6 10.8 73.6 11.5 74.3 11.9L82.6 16.7C83.3 17.1 84.5 17.1 85.2 16.7L88.7 14.7C89.4 14.3 89.4 13.6 88.7 13.2L80.4 8.4C79.7 8 78.5 8 77.8 8.4L74.3 10.4zM61.8 3.2C61.1 3.6 61.1 4.3 61.8 4.7L70.1 9.5C70.8 9.9 72 9.9 72.7 9.5L76.2 7.5C76.9 7.1 76.9 6.4 76.2 6L67.9 1.2C67.2.8 66 .8 65.3 1.2L61.8 3.2zM49.9 10.1C49.2 10.5 49.2 11.2 49.9 11.6L63.8 19.6C64.5 20 65.7 20 66.4 19.6L74.3 15.1C75 14.7 75 14 74.3 13.6L60.4 5.6C59.7 5.2 58.5 5.2 57.8 5.6L49.9 10.1zM164.3 132C163.6 132.4 163.6 133.1 164.3 133.5L172.2 138.1C172.9 138.5 174.1 138.5 174.8 138.1L182.7 133.5C183.4 133.1 183.4 132.4 182.7 132L174.8 127.4C174.1 127 172.9 127 172.2 127.4L164.3 132zM152.3 125.1C151.6 125.5 151.6 126.2 152.3 126.6L160.2 131.2C160.9 131.6 162.1 131.6 162.8 131.2L170.7 126.6C171.4 126.2 171.4 125.5 170.7 125.1L162.8 120.5C162.1 120.1 160.9 120.1 160.2 120.5L152.3 125.1zM140.2 118.1C139.5 118.5 139.5 119.2 140.2 119.6L148.1 124.2C148.8 124.6 150 124.6 150.7 124.2L158.6 119.7C159.3 119.3 159.3 118.6 158.6 118.2L150.7 113.7C150 113.3 148.8 113.3 148.1 113.7L140.2 118.1zM19.7 41.4C19 41.8 19 42.5 19.7 42.9L27.6 47.5C28.3 47.9 29.5 47.9 30.2 47.5L32.1 46.4C32.8 46 32.8 45.3 32.1 44.9L24.2 40.4C23.5 40 22.3 40 21.6 40.4L19.7 41.4zM25.6 51.9C24.9 52.3 24.9 53 25.6 53.4L33.5 57.9C34.2 58.3 35.4 58.3 36.1 57.9L38 56.8C38.7 56.4 38.7 55.7 38 55.3L30.1 50.7C29.4 50.3 28.2 50.3 27.5 50.7L25.6 51.9zM13.6 45C12.9 45.4 12.9 46.1 13.6 46.5L21.5 51C22.2 51.4 23.4 51.4 24.1 51L26 49.9C26.7 49.5 26.7 48.8 26 48.4L18.1 43.9C17.4 43.5 16.2 43.5 15.5 43.9L13.6 45zM1.5 38C.8 38.4.8 39.1 1.5 39.5L9.4 44.1C10.1 44.5 11.3 44.5 12 44.1L13.9 43C14.6 42.6 14.6 41.9 13.9 41.5L6 36.9C5.3 36.5 4.1 36.5 3.4 36.9L1.5 38zM128.2 111.1C127.5 111.5 127.5 112.2 128.2 112.6L136.1 117.2C136.8 117.6 138 117.6 138.7 117.2L146.6 112.6C147.3 112.2 147.3 111.5 146.6 111.1L138.7 106.5C138 106.1 136.8 106.1 136.1 106.5L128.2 111.1zM61.8 72.8C61.1 73.2 61.1 73.9 61.8 74.3L124 110.2C124.7 110.6 125.9 110.6 126.6 110.2L134.5 105.6C135.2 105.2 135.2 104.5 134.5 104.1L72.3 68.2C71.6 67.8 70.4 67.8 69.7 68.2L61.8 72.8zM49.8 65.9C49.1 66.3 49.1 67 49.8 67.4L57.7 72C58.4 72.4 59.6 72.4 60.3 72L68.2 67.4C68.9 67 68.9 66.3 68.2 65.9L60.3 61.3C59.6 60.9 58.4 60.9 57.7 61.3L49.8 65.9zM37.7 58.9C37 59.3 37 60 37.7 60.4L45.6 65C46.3 65.4 47.5 65.4 48.2 65L56.1 60.4C56.8 60 56.8 59.3 56.1 58.9L48.2 54.4C47.5 54 46.3 54 45.6 54.4L37.7 58.9zM182.5 100.6C181.8 101 181.8 101.7 182.5 102.1L190.4 106.7C191.1 107.1 192.3 107.1 193 106.7L200.9 102.1C201.6 101.7 201.6 101 200.9 100.6L193 96C192.3 95.6 191.1 95.6 190.4 96L182.5 100.6zM194.6 107.6C193.9 108 193.9 108.7 194.6 109.1L208.5 117.1C209.2 117.5 210.4 117.5 211.1 117.1L219 112.5C219.7 112.1 219.7 111.4 219 111L205.1 103C204.4 102.6 203.2 102.6 202.5 103L194.6 107.6zM170.5 93.7C169.8 94.1 169.8 94.8 170.5 95.2L178.4 99.8C179.1 100.2 180.3 100.2 181 99.8L188.9 95.2C189.6 94.8 189.6 94.1 188.9 93.7L181 89.1C180.3 88.7 179.1 88.7 178.4 89.1L170.5 93.7zM158.4 86.7C157.7 87.1 157.7 87.8 158.4 88.2L166.3 92.8C167 93.2 168.2 93.2 168.9 92.8L176.8 88.2C177.5 87.8 177.5 87.1 176.8 86.7L168.9 82.1C168.2 81.7 167 81.7 166.3 82.1L158.4 86.7zM146.3 79.7C145.6 80.1 145.6 80.8 146.3 81.2L154.2 85.8C154.9 86.2 156.1 86.2 156.8 85.8L164.7 81.2C165.4 80.8 165.4 80.1 164.7 79.7L156.8 75.2C156.1 74.8 154.9 74.8 154.2 75.2L146.3 79.7zM134.3 72.8C133.6 73.2 133.6 73.9 134.3 74.3L142.2 78.9C142.9 79.3 144.1 79.3 144.8 78.9L152.7 74.3C153.4 73.9 153.4 73.2 152.7 72.8L144.8 68.2C144.1 67.8 142.9 67.8 142.2 68.2L134.3 72.8zM122.2 65.8C121.5 66.2 121.5 66.9 122.2 67.3L130.1 71.9C130.8 72.3 132 72.3 132.7 71.9L140.6 67.3C141.3 66.9 141.3 66.2 140.6 65.8L132.7 61.2C132 60.8 130.8 60.8 130.1 61.2L122.2 65.8zM110.2 58.8C109.5 59.2 109.5 59.9 110.2 60.3L118.1 64.9C118.8 65.3 120 65.3 120.7 64.9L128.6 60.3C129.3 59.9 129.3 59.2 128.6 58.8L120.7 54.2C120 53.8 118.8 53.8 118.1 54.2L110.2 58.8zM98.1 51.9C97.4 52.3 97.4 53 98.1 53.4L106 58C106.7 58.4 107.9 58.4 108.6 58L116.5 53.4C117.2 53 117.2 52.3 116.5 51.9L108.6 47.3C107.9 46.9 106.7 46.9 106 47.3L98.1 51.9zM86 44.9C85.3 45.3 85.3 46 86 46.4L93.9 50.9C94.6 51.3 95.8 51.3 96.5 50.9L104.4 46.4C105.1 46 105.1 45.3 104.4 44.9L96.5 40.4C95.8 40 94.6 40 93.9 40.4L86 44.9zM74 37.9C73.3 38.3 73.3 39 74 39.4L81.9 43.9C82.6 44.3 83.8 44.3 84.5 43.9L92.4 39.4C93.1 39 93.1 38.3 92.4 37.9L84.5 33.3C83.8 32.9 82.6 32.9 81.9 33.3L74 37.9zM61.9 31C61.2 31.4 61.2 32.1 61.9 32.5L69.8 37.1C70.5 37.5 71.7 37.5 72.4 37.1L80.3 32.5C81 32.1 81 31.4 80.3 31L72.4 26.4C71.7 26 70.5 26 69.8 26.4L61.9 31zM49.9 24C49.2 24.4 49.2 25.1 49.9 25.5L57.8 30C58.5 30.4 59.7 30.4 60.4 30L68.3 25.5C69 25.1 69 24.4 68.3 24L60.4 19.4C59.7 19 58.5 19 57.8 19.4L49.9 24zM37.8 17.1C37.1 17.5 37.1 18.2 37.8 18.6L45.7 23.1C46.4 23.5 47.6 23.5 48.3 23.1L56.2 18.6C56.9 18.2 56.9 17.5 56.2 17.1L48.3 12.5C47.6 12.1 46.4 12.1 45.7 12.5L37.8 17.1zM167.6 105.9C166.9 106.3 166.9 107 167.6 107.4L175.5 112C176.2 112.4 177.4 112.4 178.1 112L186 107.4C186.7 107 186.7 106.3 186 105.9L178.1 101.3C177.4 100.9 176.2 100.9 175.5 101.3L167.6 105.9zM179.7 112.9C179 113.3 179 114 179.7 114.4L196.5 124.1C197.2 124.5 198.4 124.5 199.1 124.1L207 119.5C207.7 119.1 207.7 118.4 207 118L190.2 108.3C189.5 107.9 188.3 107.9 187.6 108.3L179.7 112.9zM155.6 99C154.9 99.4 154.9 100.1 155.6 100.5L163.5 105C164.2 105.4 165.4 105.4 166.1 105L174 100.5C174.7 100.1 174.7 99.4 174 99L166.1 94.5C165.4 94.1 164.2 94.1 163.5 94.5L155.6 99zM143.5 92C142.8 92.4 142.8 93.1 143.5 93.5L151.4 98.1C152.1 98.5 153.3 98.5 154 98.1L161.9 93.5C162.6 93.1 162.6 92.4 161.9 92L154 87.4C153.3 87 152.1 87 151.4 87.4L143.5 92zM131.4 85.1C130.7 85.5 130.7 86.2 131.4 86.6L139.3 91.2C140 91.6 141.2 91.6 141.9 91.2L149.8 86.6C150.5 86.2 150.5 85.5 149.8 85.1L141.9 80.5C141.2 80.1 140 80.1 139.3 80.5L131.4 85.1zM119.4 78.1C118.7 78.5 118.7 79.2 119.4 79.6L127.3 84.2C128 84.6 129.2 84.6 129.9 84.2L137.8 79.6C138.5 79.2 138.5 78.5 137.8 78.1L129.9 73.5C129.2 73.1 128 73.1 127.3 73.5L119.4 78.1zM107.3 71.1C106.6 71.5 106.6 72.2 107.3 72.6L115.2 77.2C115.9 77.6 117.1 77.6 117.8 77.2L125.7 72.6C126.4 72.2 126.4 71.5 125.7 71.1L117.8 66.6C117.1 66.2 115.9 66.2 115.2 66.6L107.3 71.1zM95.3 64.2C94.6 64.6 94.6 65.3 95.3 65.7L103.2 70.3C103.9 70.7 105.1 70.7 105.8 70.3L113.7 65.7C114.4 65.3 114.4 64.6 113.7 64.2L105.8 59.6C105.1 59.2 103.9 59.2 103.2 59.6L95.3 64.2zM83.2 57.2C82.5 57.6 82.5 58.3 83.2 58.7L91.1 63.3C91.8 63.7 93 63.7 93.7 63.3L101.6 58.7C102.3 58.3 102.3 57.6 101.6 57.2L93.7 52.7C93 52.3 91.8 52.3 91.1 52.7L83.2 57.2zM71.1 50.2C70.4 50.6 70.4 51.3 71.1 51.7L79 56.3C79.7 56.7 80.9 56.7 81.6 56.3L89.5 51.7C90.2 51.3 90.2 50.6 89.5 50.2L81.6 45.7C80.9 45.3 79.7 45.3 79 45.7L71.1 50.2zM59.1 43.3C58.4 43.7 58.4 44.4 59.1 44.8L67 49.4C67.7 49.8 68.9 49.8 69.6 49.4L77.5 44.8C78.2 44.4 78.2 43.7 77.5 43.3L69.6 38.8C68.9 38.4 67.7 38.4 67 38.8L59.1 43.3zM47 36.3C46.3 36.7 46.3 37.4 47 37.8L54.9 42.4C55.6 42.8 56.8 42.8 57.5 42.4L65.4 37.8C66.1 37.4 66.1 36.7 65.4 36.3L57.5 31.7C56.8 31.3 55.6 31.3 54.9 31.7L47 36.3zM25.7 24C25 24.4 25 25.1 25.7 25.5L42.8 35.4C43.5 35.8 44.7 35.8 45.4 35.4L53.3 30.8C54 30.4 54 29.7 53.3 29.3L36.2 19.4C35.5 19 34.3 19 33.6 19.4L25.7 24zM149.4 109.4C148.7 109.8 148.7 110.5 149.4 110.9L157.3 115.5C158 115.9 159.2 115.9 159.9 115.5L167.8 110.9C168.5 110.5 168.5 109.8 167.8 109.4L159.9 104.8C159.2 104.4 158 104.4 157.3 104.8L149.4 109.4zM161.5 116.3C160.8 116.7 160.8 117.4 161.5 117.8L184.4 131C185.1 131.4 186.3 131.4 187 131L194.9 126.5C195.6 126.1 195.6 125.4 194.9 125L172 111.8C171.3 111.4 170.1 111.4 169.4 111.8L161.5 116.3zM137.4 102.4C136.7 102.8 136.7 103.5 137.4 103.9L145.3 108.5C146 108.9 147.2 108.9 147.9 108.5L155.8 103.9C156.5 103.5 156.5 102.8 155.8 102.4L147.9 97.8C147.2 97.4 146 97.4 145.3 97.8L137.4 102.4zM125.3 95.4C124.6 95.8 124.6 96.5 125.3 96.9L133.2 101.5C133.9 101.9 135.1 101.9 135.8 101.5L143.7 96.9C144.4 96.5 144.4 95.8 143.7 95.4L135.8 90.8C135.1 90.4 133.9 90.4 133.2 90.8L125.3 95.4zM113.2 88.5C112.5 88.9 112.5 89.6 113.2 90L121.1 94.5C121.8 94.9 123 94.9 123.7 94.5L131.6 90C132.3 89.6 132.3 88.9 131.6 88.5L123.7 83.9C123 83.5 121.8 83.5 121.1 83.9L113.2 88.5zM101.2 81.5C100.5 81.9 100.5 82.6 101.2 83L109.1 87.6C109.8 88 111 88 111.7 87.6L119.6 83C120.3 82.6 120.3 81.9 119.6 81.5L111.7 76.9C111 76.5 109.8 76.5 109.1 76.9L101.2 81.5zM89.1 74.5C88.4 74.9 88.4 75.6 89.1 76L97 80.6C97.7 81 98.9 81 99.6 80.6L107.5 76C108.2 75.6 108.2 74.9 107.5 74.5L99.6 69.9C98.9 69.5 97.7 69.5 97 69.9L89.1 74.5zM77.1 67.6C76.4 68 76.4 68.7 77.1 69.1L85 73.7C85.7 74.1 86.9 74.1 87.6 73.7L95.5 69.1C96.2 68.7 96.2 68 95.5 67.6L87.6 63C86.9 62.6 85.7 62.6 85 63L77.1 67.6zM65 60.6C64.3 61 64.3 61.7 65 62.1L72.9 66.6C73.6 67 74.8 67 75.5 66.6L83.4 62C84.1 61.6 84.1 60.9 83.4 60.5L75.5 55.9C74.8 55.5 73.6 55.5 72.9 55.9L65 60.6zM52.9 53.7C52.2 54.1 52.2 54.8 52.9 55.2L60.8 59.8C61.5 60.2 62.7 60.2 63.4 59.8L71.3 55.2C72 54.8 72 54.1 71.3 53.7L63.4 49.1C62.7 48.7 61.5 48.7 60.8 49.1L52.9 53.7zM40.9 46.7C40.2 47.1 40.2 47.8 40.9 48.2L48.8 52.8C49.5 53.2 50.7 53.2 51.4 52.8L59.3 48.2C60 47.8 60 47.1 59.3 46.7L51.4 42.1C50.7 41.7 49.5 41.7 48.8 42.1L40.9 46.7zM13.7 31C13 31.4 13 32.1 13.7 32.5L36.7 45.8C37.4 46.2 38.6 46.2 39.3 45.8L47.2 41.2C47.9 40.8 47.9 40.1 47.2 39.7L24.2 26.4C23.5 26 22.3 26 21.6 26.4L13.7 31z"/>
      </g>
      <path fill="#D40059" d="M75.5,279.1 C74.8,279.5 74.8,280.2 75.5,280.6 L134.7,314.8 C135.4,315.2 136.6,315.2 137.3,314.8 L180.4,289.9 C181.1,289.5 181.1,288.8 180.4,288.4 L121.2,254.2 C120.5,253.8 119.3,253.8 118.6,254.2 L75.5,279.1 Z"/>
      <path fill="url(#d)" d="M339.6,272.2 L339.6,125.9 C339.6,121.8 336.7,116.7 333.1,114.7 L141.9,4.2 C140.2,3.2 138.6,3.1 137.5,3.7 C137.5,3.7 137.5,3.7 137.6,3.7 L142.7,0.8 C143.9,0.2 145.4,0.3 147.2,1.3 L338.4,111.7 C342,113.8 344.9,118.8 344.9,122.9 L344.9,269.2 C344.9,271.3 344.2,272.7 343,273.4 L337.8,276.4 C338.9,275.7 339.6,274.2 339.6,272.2 Z"/>
    </g>
    <g opacity=".5" transform="translate(119 91)">
      <path fill="#A9D0E5" d="M136.8,167 C136.8,172.2 133.1,174.3 128.6,171.7 L9.2,102.8 C4.7,100.2 1,93.8 1,88.6 L1,9.4 C1,4.2 4.7,2.1 9.2,4.7 L128.6,73.6 C133.1,76.2 136.8,82.6 136.8,87.8 L136.8,167 Z"/>
      <path fill="url(#f)" d="M136.8,167 C136.8,172.2 133.1,174.3 128.6,171.7 L9.2,102.8 C4.7,100.2 1,93.8 1,88.6 L1,9.4 C1,4.2 4.7,2.1 9.2,4.7 L128.6,73.6 C133.1,76.2 136.8,82.6 136.8,87.8 L136.8,167 Z"/>
      <path fill="url(#g)" d="M132.9,70.8 L13.5,1.9 C11.2,0.6 9.2,0.5 7.7,1.4 L3.3,4.2 C4.8,3.3 6.9,3.4 9.2,4.7 L128.6,73.6 C133.1,76.2 136.8,82.6 136.8,87.8 L136.8,167 C136.8,169.5 135.9,171.3 134.6,172.2 L138.5,169.6 C140.1,168.8 141.1,166.9 141.1,164.2 L141.1,85 C141.1,79.8 137.4,73.4 132.9,70.8 Z"/>
      <path fill="url(#h)" d="M3.9,3.9 C2.1,4.6 0.9,6.5 0.9,9.5 L0.9,88.7 C0.9,91.7 2.1,95 3.9,97.8 L68.8,90.1 L3.9,3.9 Z"/>
      <path fill="url(#i)" d="M136.8,87.8 C136.8,84.9 135.6,81.6 133.8,78.8 L68.8,89.9 L133.7,172.5 C135.6,171.8 136.7,169.9 136.7,166.9 L136.8,87.8 Z"/>
      <path fill="url(#j)" d="M3.7,4 L68.9,100.4 L134.1,79.3 C132.6,76.9 130.7,74.9 128.6,73.7 L9.2,4.8 C7.1,3.5 5.1,3.3 3.7,4 Z"/>
    </g>
    <g opacity=".5" transform="translate(146 75)">
      <path fill="#A9D0E5" d="M136.8,167 C136.8,172.2 133.1,174.3 128.6,171.7 L9.2,102.8 C4.7,100.2 1,93.8 1,88.6 L1,9.4 C1,4.2 4.7,2.1 9.2,4.7 L128.6,73.6 C133.1,76.2 136.8,82.6 136.8,87.8 L136.8,167 Z"/>
      <path fill="url(#f)" d="M136.8,167 C136.8,172.2 133.1,174.3 128.6,171.7 L9.2,102.8 C4.7,100.2 1,93.8 1,88.6 L1,9.4 C1,4.2 4.7,2.1 9.2,4.7 L128.6,73.6 C133.1,76.2 136.8,82.6 136.8,87.8 L136.8,167 Z"/>
      <path fill="url(#g)" d="M132.9,70.8 L13.5,1.9 C11.2,0.6 9.2,0.5 7.7,1.4 L3.3,4.2 C4.8,3.3 6.9,3.4 9.2,4.7 L128.6,73.6 C133.1,76.2 136.8,82.6 136.8,87.8 L136.8,167 C136.8,169.5 135.9,171.3 134.6,172.2 L138.5,169.6 C140.1,168.8 141.1,166.9 141.1,164.2 L141.1,85 C141.1,79.8 137.4,73.4 132.9,70.8 Z"/>
      <path fill="url(#h)" d="M3.9,3.9 C2.1,4.6 0.9,6.5 0.9,9.5 L0.9,88.7 C0.9,91.7 2.1,95 3.9,97.8 L68.8,90.1 L3.9,3.9 Z"/>
      <path fill="url(#i)" d="M136.8,87.8 C136.8,84.9 135.6,81.6 133.8,78.8 L68.8,89.9 L133.7,172.5 C135.6,171.8 136.7,169.9 136.7,166.9 L136.8,87.8 Z"/>
      <path fill="url(#j)" d="M3.7,4 L68.9,100.4 L134.1,79.3 C132.6,76.9 130.7,74.9 128.6,73.7 L9.2,4.8 C7.1,3.5 5.1,3.3 3.7,4 Z"/>
    </g>
    <g opacity=".5" transform="translate(172 60)">
      <path fill="#A9D0E5" d="M136.8,167 C136.8,172.2 133.1,174.3 128.6,171.7 L9.2,102.8 C4.7,100.2 1,93.8 1,88.6 L1,9.4 C1,4.2 4.7,2.1 9.2,4.7 L128.6,73.6 C133.1,76.2 136.8,82.6 136.8,87.8 L136.8,167 Z"/>
      <path fill="url(#f)" d="M136.8,167 C136.8,172.2 133.1,174.3 128.6,171.7 L9.2,102.8 C4.7,100.2 1,93.8 1,88.6 L1,9.4 C1,4.2 4.7,2.1 9.2,4.7 L128.6,73.6 C133.1,76.2 136.8,82.6 136.8,87.8 L136.8,167 Z"/>
      <path fill="url(#g)" d="M132.9,70.8 L13.5,1.9 C11.2,0.6 9.2,0.5 7.7,1.4 L3.3,4.2 C4.8,3.3 6.9,3.4 9.2,4.7 L128.6,73.6 C133.1,76.2 136.8,82.6 136.8,87.8 L136.8,167 C136.8,169.5 135.9,171.3 134.6,172.2 L138.5,169.6 C140.1,168.8 141.1,166.9 141.1,164.2 L141.1,85 C141.1,79.8 137.4,73.4 132.9,70.8 Z"/>
      <path fill="url(#h)" d="M3.9,3.9 C2.1,4.6 0.9,6.5 0.9,9.5 L0.9,88.7 C0.9,91.7 2.1,95 3.9,97.8 L68.8,90.1 L3.9,3.9 Z"/>
      <path fill="url(#i)" d="M136.8,87.8 C136.8,84.9 135.6,81.6 133.8,78.8 L68.8,89.9 L133.7,172.5 C135.6,171.8 136.7,169.9 136.7,166.9 L136.8,87.8 Z"/>
      <path fill="url(#j)" d="M3.7,4 L68.9,100.4 L134.1,79.3 C132.6,76.9 130.7,74.9 128.6,73.7 L9.2,4.8 C7.1,3.5 5.1,3.3 3.7,4 Z"/>
    </g>
    <g opacity=".2" transform="translate(93 106)">
      <path fill="#A9D0E5" d="M136.8,167 C136.8,172.2 133.1,174.3 128.6,171.7 L9.2,102.8 C4.7,100.2 1,93.8 1,88.6 L1,9.4 C1,4.2 4.7,2.1 9.2,4.7 L128.6,73.6 C133.1,76.2 136.8,82.6 136.8,87.8 L136.8,167 Z"/>
      <path fill="url(#f)" d="M136.8,167 C136.8,172.2 133.1,174.3 128.6,171.7 L9.2,102.8 C4.7,100.2 1,93.8 1,88.6 L1,9.4 C1,4.2 4.7,2.1 9.2,4.7 L128.6,73.6 C133.1,76.2 136.8,82.6 136.8,87.8 L136.8,167 Z"/>
      <path fill="url(#g)" d="M132.9,70.8 L13.5,1.9 C11.2,0.6 9.2,0.5 7.7,1.4 L3.3,4.2 C4.8,3.3 6.9,3.4 9.2,4.7 L128.6,73.6 C133.1,76.2 136.8,82.6 136.8,87.8 L136.8,167 C136.8,169.5 135.9,171.3 134.6,172.2 L138.5,169.6 C140.1,168.8 141.1,166.9 141.1,164.2 L141.1,85 C141.1,79.8 137.4,73.4 132.9,70.8 Z"/>
      <path fill="url(#h)" d="M3.9,3.9 C2.1,4.6 0.9,6.5 0.9,9.5 L0.9,88.7 C0.9,91.7 2.1,95 3.9,97.8 L68.8,90.1 L3.9,3.9 Z"/>
      <path fill="url(#i)" d="M136.8,87.8 C136.8,84.9 135.6,81.6 133.8,78.8 L68.8,89.9 L133.7,172.5 C135.6,171.8 136.7,169.9 136.7,166.9 L136.8,87.8 Z"/>
      <path fill="url(#j)" d="M3.7,4 L68.9,100.4 L134.1,79.3 C132.6,76.9 130.7,74.9 128.6,73.7 L9.2,4.8 C7.1,3.5 5.1,3.3 3.7,4 Z"/>
    </g>
    <g opacity=".5" transform="translate(66 121)">
      <path fill="#A9D0E5" d="M136.8,167 C136.8,172.2 133.1,174.3 128.6,171.7 L9.2,102.8 C4.7,100.2 1,93.8 1,88.6 L1,9.4 C1,4.2 4.7,2.1 9.2,4.7 L128.6,73.6 C133.1,76.2 136.8,82.6 136.8,87.8 L136.8,167 Z"/>
      <path fill="url(#f)" d="M136.8,167 C136.8,172.2 133.1,174.3 128.6,171.7 L9.2,102.8 C4.7,100.2 1,93.8 1,88.6 L1,9.4 C1,4.2 4.7,2.1 9.2,4.7 L128.6,73.6 C133.1,76.2 136.8,82.6 136.8,87.8 L136.8,167 Z"/>
      <path fill="url(#g)" d="M132.9,70.8 L13.5,1.9 C11.2,0.6 9.2,0.5 7.7,1.4 L3.3,4.2 C4.8,3.3 6.9,3.4 9.2,4.7 L128.6,73.6 C133.1,76.2 136.8,82.6 136.8,87.8 L136.8,167 C136.8,169.5 135.9,171.3 134.6,172.2 L138.5,169.6 C140.1,168.8 141.1,166.9 141.1,164.2 L141.1,85 C141.1,79.8 137.4,73.4 132.9,70.8 Z"/>
      <path fill="url(#h)" d="M3.9,3.9 C2.1,4.6 0.9,6.5 0.9,9.5 L0.9,88.7 C0.9,91.7 2.1,95 3.9,97.8 L68.8,90.1 L3.9,3.9 Z"/>
      <path fill="url(#i)" d="M136.8,87.8 C136.8,84.9 135.6,81.6 133.8,78.8 L68.8,89.9 L133.7,172.5 C135.6,171.8 136.7,169.9 136.7,166.9 L136.8,87.8 Z"/>
      <path fill="url(#j)" d="M3.7,4 L68.9,100.4 L134.1,79.3 C132.6,76.9 130.7,74.9 128.6,73.7 L9.2,4.8 C7.1,3.5 5.1,3.3 3.7,4 Z"/>
    </g>
    <g fill="#FFFFFF" opacity=".5" transform="translate(172 60)">
      <path d="M132.7,70.8 L13.3,1.9 C11,0.6 9,0.5 7.5,1.4 L3.1,4.2 C4.6,3.3 6.7,3.4 9,4.7 L128.4,73.6 C132.9,76.2 136.6,82.6 136.6,87.8 L136.6,167 C136.6,169.5 135.7,171.3 134.4,172.2 L138.3,169.6 C139.9,168.8 140.9,166.9 140.9,164.2 L140.9,85 C140.9,79.8 137.2,73.4 132.7,70.8 Z" opacity=".4"/>
      <path d="M114.5,148.2 L114.5,163.6 L128.4,171.6 C130.3,172.7 132.1,173 133.6,172.5 L114.5,148.2 Z" opacity=".2"/>
      <path d="M133.9 79.2L108.2 87.5C111.8 90.6 114.5 95.9 114.5 100.3L114.5 148.2 133.6 172.5C135.5 171.8 136.6 169.9 136.6 166.9L136.6 87.7C136.6 85 135.5 81.9 133.9 79.2zM28.8 41.4L3.5 3.9C1.8 4.7.8 6.6.8 9.3L.8 25.1 28.8 41.4z" opacity=".25"/>
      <path d="M106.3,86.1 C107,86.5 107.6,87 108.2,87.5 L133.9,79.2 C132.4,76.8 130.5,74.8 128.4,73.6 L9,4.6 C6.9,3.4 5,3.2 3.5,3.9 L28.8,41.4 L106.3,86.1 Z" opacity=".3"/>
    </g>
    <g fill="#FFFFFF" opacity=".5" transform="translate(146 76)">
      <path d="M132.3,70.1 L12.9,1.2 C10.6,-0.1 8.6,-0.2 7.1,0.7 L2.7,3.5 C4.2,2.6 6.3,2.7 8.6,4 L128,72.9 C132.5,75.5 136.2,81.9 136.2,87.1 L136.2,166.3 C136.2,168.8 135.3,170.6 134,171.5 L137.9,168.9 C139.5,168.1 140.5,166.2 140.5,163.5 L140.5,84.3 C140.5,79.1 136.8,72.7 132.3,70.1 Z" opacity=".4"/>
      <path d="M114,147.5 L114,162.9 L127.9,170.9 C129.8,172 131.6,172.3 133.1,171.8 L114,147.5 Z" opacity=".2"/>
      <path d="M133.4,78.5 L107.7,86.8 C111.3,89.9 114,95.2 114,99.6 L114,147.5 L133.1,171.8 C135,171.1 136.1,169.2 136.1,166.2 L136.1,87 C136.1,84.3 135.1,81.2 133.4,78.5 Z" opacity=".25"/>
      <path d="M105.8,85.4 C106.5,85.8 107.1,86.3 107.7,86.8 L133.4,78.5 C131.9,76.1 130,74.1 127.9,72.9 L8.5,4 C6.4,2.8 4.5,2.6 3,3.3 L28.3,40.8 L105.8,85.4 Z" opacity=".3"/>
      <path d="M28.4,40.7 L3,3.2 C1.3,4 0.3,5.9 0.3,8.6 L0.3,24.4 L28.4,40.7 Z" opacity=".25"/>
    </g>
    <g fill="#FFFFFF" opacity=".5" transform="translate(119 91)">
      <path d="M132.8,70.4 L13.4,1.5 C11.1,0.2 9.1,0.1 7.6,1 L3.2,3.8 C4.7,2.9 6.8,3 9.1,4.3 L128.5,73.2 C133,75.8 136.7,82.2 136.7,87.4 L136.7,166.6 C136.7,169.1 135.8,170.9 134.5,171.8 L138.4,169.2 C140,168.4 141,166.5 141,163.8 L141,84.6 C141,79.4 137.3,73 132.8,70.4 Z" opacity=".4"/>
      <path d="M114.6,147.8 L114.6,163.2 L128.5,171.2 C130.4,172.3 132.2,172.6 133.7,172.1 L114.6,147.8 Z" opacity=".2"/>
      <path d="M134,78.8 L108.3,87.1 C111.9,90.2 114.6,95.5 114.6,99.9 L114.6,147.8 L133.7,172.1 C135.6,171.4 136.7,169.5 136.7,166.5 L136.7,87.3 C136.7,84.6 135.6,81.5 134,78.8 Z" opacity=".25"/>
      <path d="M106.4,85.7 C107.1,86.1 107.7,86.6 108.3,87.1 L134,78.8 C132.5,76.4 130.6,74.4 128.5,73.2 L9.1,4.3 C7,3.1 5.1,2.9 3.6,3.6 L28.9,41.1 L106.4,85.7 Z" opacity=".3"/>
      <path d="M28.9,41 L3.6,3.5 C1.9,4.3 0.9,6.2 0.9,8.9 L0.9,24.7 L28.9,41 Z" opacity=".25"/>
    </g>
    <g transform="translate(35 139)">
      <path fill="#A3AFDB" d="M136.5,166.7 C136.5,171.9 132.8,174 128.3,171.4 L8.9,102.5 C4.4,99.9 0.7,93.5 0.7,88.3 L0.7,9.1 C0.7,3.9 4.4,1.8 8.9,4.4 L128.3,73.3 C132.8,75.9 136.5,82.3 136.5,87.5 L136.5,166.7 Z"/>
      <path fill="#D3DAED" d="M136.5,166.7 C136.5,171.9 132.8,174 128.3,171.4 L8.9,102.5 C4.4,99.9 0.7,93.5 0.7,88.3 L0.7,9.1 C0.7,3.9 4.4,1.8 8.9,4.4 L128.3,73.3 C132.8,75.9 136.5,82.3 136.5,87.5 L136.5,166.7 Z"/>
      <path fill="#A2AEDA" d="M132.7,70.5 L13.3,1.6 C11,0.3 9,0.2 7.5,1.1 L3.1,3.9 C4.6,3 6.7,3.1 9,4.4 L128.4,73.3 C132.9,75.9 136.6,82.3 136.6,87.5 L136.6,166.7 C136.6,169.2 135.7,171 134.4,171.9 L138.3,169.3 C139.9,168.5 140.9,166.6 140.9,163.9 L140.9,84.7 C140.9,79.5 137.2,73.1 132.7,70.5 Z"/>
      <path fill="#E5E9F4" d="M3.7,3.5 C1.9,4.2 0.7,6.1 0.7,9.1 L0.7,88.3 C0.7,91.3 1.9,94.6 3.7,97.4 L68.6,89.7 L3.7,3.5 Z"/>
      <path fill="#E5E9F4" d="M136.5,87.5 C136.5,84.6 135.3,81.3 133.5,78.5 L68.5,89.6 L133.4,172.2 C135.3,171.5 136.4,169.6 136.4,166.6 L136.5,87.5 Z"/>
      <path fill="#F8F9FC" d="M3.5,3.6 L68.7,100 L133.9,78.9 C132.4,76.5 130.5,74.5 128.4,73.3 L9,4.4 C6.8,3.1 4.9,3 3.5,3.6 Z"/>
    </g>
    <g fill="#000000" opacity=".2" transform="translate(35 186)">
      <path d="M193.1 2.2C192.9 1.8 192.7 1.3 192.5.9 192.7 1.3 192.9 1.8 193.1 2.2zM275.3 43.5L271.4 46.1C271.4 46.1 271.5 46 271.5 46 271.2 46.2 270.9 46.4 270.6 46.5 269.2 47 267.4 46.8 265.4 45.6L251.5 37.6 251.5 53.4C251.5 56.1 250.5 58 248.9 58.8L245 61.4C245 61.4 245.1 61.3 245.1 61.3 244.8 61.5 244.5 61.7 244.2 61.8 242.8 62.3 241 62.1 239 60.9L225.1 52.9 225.1 68.7C225.1 71.4 224.1 73.3 222.5 74.1L218.6 76.7C218.6 76.7 218.7 76.6 218.7 76.6 218.4 76.8 218.1 77 217.8 77.1 216.4 77.6 214.6 77.4 212.6 76.2L198.7 68.2 198.7 84C198.7 86.7 197.7 88.6 196.1 89.4L192 92C192 92 192.1 91.9 192.1 91.9 191.8 92.1 191.5 92.3 191.2 92.4 189.8 92.9 188 92.7 186 91.5L172.1 83.5 172.1 99.2C172.1 101.9 171.1 103.8 169.5 104.6L165.6 107.2C165.3 107.4 165.1 107.5 164.8 107.6 164.8 107.6 164.8 107.6 164.8 107.6 163.4 108.1 161.6 107.9 159.6 106.7L140.9 95.9 140.9 116.9C140.9 119.6 139.9 121.5 138.3 122.3L134.4 124.9C134.1 125.1 133.9 125.2 133.6 125.3 133.6 125.3 133.6 125.3 133.6 125.3 132.2 125.8 130.4 125.6 128.4 124.4L23.3 63.7.8 76.7.8 84.1 137.1 162.8 137.8 155.7 277.8 74.9 277.8 40.1C277.3 41.8 276.5 43 275.3 43.5z"/>
      <polygon points="186.9 .6 165.9 7.3"/>
    </g>
    <g fill="url(#c)" transform="translate(34 64)">
      <polygon points="87.5 16.3 90.9 14.3 87.3 9.4 90.9 .3 87.5 2.3 83.8 11.4"/>
      <polygon points="73.6 24.3 77 22.4 73.4 17.5 77 8.3 73.6 10.3 69.9 19.4"/>
      <polygon points="59.7 32.4 63.1 30.4 59.5 25.5 63.1 16.4 59.7 18.4 56 27.5"/>
      <polygon points="45.7 40.4 49.2 38.4 45.5 33.5 49.2 24.4 45.7 26.4 42.1 35.5"/>
      <polygon points="31.8 48.4 35.3 46.4 31.6 41.5 35.3 32.4 31.8 34.4 28.2 43.5"/>
      <polygon points="17.9 56.5 21.4 54.5 17.7 49.6 21.4 40.5 17.9 42.5 14.3 51.6"/>
      <polygon points="4 64.5 7.4 62.5 3.8 57.6 7.4 48.5 4 50.5 .4 59.6"/>
    </g>
  </g>
</svg>
