<svg xmlns="http://www.w3.org/2000/svg" width="113" height="40" viewBox="0 0 113 40"><g fill="none" fill-rule="evenodd"><path fill="#FFF" d="M35.503 30c.56-3.152.862-6.513.862-10s-.302-6.848-.862-10a57.336 57.336 0 0 0-8.23-5.747A57.336 57.336 0 0 0 18.184 0 57.336 57.336 0 0 0 9.09 4.253 57.336 57.336 0 0 0 .862 10 57.336 57.336 0 0 0 0 20c0 3.487.302 6.848.862 10a57.336 57.336 0 0 0 8.23 5.747A57.336 57.336 0 0 0 18.181 40a57.336 57.336 0 0 0 9.092-4.253A57.336 57.336 0 0 0 35.504 30z"/><path stroke="#979797" d="M18 16.167v7.666m0-15.666v7.666m0 8.334v7.666"/><path fill="#00B4CD" d="M18 8v8l-8-4z"/><path fill="#A70179" d="M18 16v8l-8-4z"/><path fill="#8E0167" d="M10 19.998l1.106.547L18 16z"/><path fill="#FF006A" d="M18 16v8l8-4z"/><path fill="#0079D4" d="M10 12v8l8-4z"/><path fill="#421263" d="M18 24v8l-8-4z"/><path fill="#FE7102" d="M26 20v8l-8-4z"/><path fill="#4EC800" d="M18 8v8l8-4z"/><path fill="#592A95" d="M18 24v8l8-4z"/><path fill="#411F6D" d="M26 27.998l-1.106.547L18 24z"/><path fill="#FFF" d="M51.887 14c-2.64 0-4.717 1.568-4.717 3.682 0 2.574 3.049 3.221 4.786 3.63 1.072.256 2.043.512 2.043 1.245 0 .494-.46 1.023-1.703 1.023-2.299 0-2.52-1.841-2.52-1.841H47C47 23.545 48.516 26 52.143 26c2.708 0 4.649-1.38 4.649-3.597 0-2.556-2.572-3.17-4.394-3.647-1.635-.426-2.4-.648-2.4-1.21 0-.665 1.02-1.04 1.855-1.04 1.192 0 1.874.784 1.874 1.363h2.775c0-1.806-1.6-3.869-4.615-3.869zm17.927.205H58.779v2.59h4.104v9h2.827v-9h4.104v-2.59zm8.645 0c2.35 0 4.12 1.823 4.12 4.346 0 1.67-.816 3.085-2.06 3.75l2.385 3.494H79.43l-1.737-2.88h-2.044v2.88h-2.793v-11.59h5.603zm-.392 2.59H75.65v3.529h2.401c.954 0 1.72-.801 1.72-1.773 0-.954-.766-1.756-1.703-1.756zm17.347 9l-.749-1.806H89.08l-.766 1.806H85.35l4.956-11.59h3.116l4.973 11.59h-2.98zm-5.364-4.09h3.644l-1.805-4.33-1.839 4.33zm22.099-7.5h-3.509l-4.427 5.096v-5.096h-2.793v11.59h2.793v-2.608l1.992-2.181 3.168 4.79H113l-4.836-6.921 3.985-4.67z"/></g></svg>