<svg xmlns="http://www.w3.org/2000/svg" width="159" height="60" viewBox="0 0 159 60">
  <g fill="none" fill-rule="evenodd">
    <path fill="#F3F5F5" d="M53.2546736,45 C54.0944551,40.2712943 54.547823,35.2310702 54.547823,30 C54.547823,24.7689298 54.0944551,19.7287057 53.2546736,15 C49.5793851,11.908375 45.4411069,8.99563488 40.9108672,6.38009979 C36.3806276,3.7645647 31.7889815,1.63708075 27.2739115,0 C22.7588415,1.63708075 18.1671954,3.7645647 13.6369557,6.38009979 C9.10671608,8.99563488 4.96843791,11.908375 1.29314937,15 C0.453367877,19.7287057 0,24.7689298 0,30 C0,35.2310702 0.453367877,40.2712943 1.29314937,45 C4.96843791,48.091625 9.10671608,51.0043651 13.6369557,53.6199002 C18.1671954,56.2354353 22.7588415,58.3629192 27.2739115,60 C31.7889815,58.3629192 36.3806276,56.2354353 40.9108672,53.6199002 C45.4411069,51.0043651 49.5793851,48.091625 53.2546736,45 L53.2546736,45 Z"/>
    <g transform="translate(15 12)">
      <path stroke="#979797" d="M12 12.25L12 23.75M12 .25L12 11.75M12 24.25L12 35.75"/>
      <polygon fill="#00B4CD" points="12 0 12 12 0 6"/>
      <polygon fill="#A70179" points="12 12 12 24 0 18"/>
      <polygon fill="#8E0167" points="12 17.996 10.342 18.818 0 12" transform="matrix(-1 0 0 1 12 0)"/>
      <polygon fill="#FF006A" points="24 12 24 24 12 18" transform="matrix(-1 0 0 1 36 0)"/>
      <polygon fill="#0079D4" points="12 6 12 18 0 12" transform="matrix(-1 0 0 1 12 0)"/>
      <polygon fill="#421263" points="12 24 12 36 0 30"/>
      <polygon fill="#FE7102" points="24 18 24 30 12 24"/>
      <polygon fill="#4EC800" points="24 0 24 12 12 6" transform="matrix(-1 0 0 1 36 0)"/>
      <polygon fill="#592A95" points="24 24 24 36 12 30" transform="matrix(-1 0 0 1 36 0)"/>
      <polygon fill="#411F6D" points="24 29.996 22.342 30.818 12 24"/>
    </g>
    <path fill="#002331" d="M72.7330508,38.5932203 C71.6228758,38.3220325 70.7372914,37.9915274 70.0762712,37.6016949 L71.6016949,34.1186441 C72.0593243,34.3898319 72.6906739,34.6398294 73.4957627,34.8686441 C74.3008515,35.0974588 75.0084715,35.2118644 75.6186441,35.2118644 C76.2966136,35.2118644 76.838981,35.0720353 77.2457627,34.7923729 C77.6525444,34.5127105 77.8559322,34.2033915 77.8559322,33.8644068 C77.8559322,33.6440667 77.7076286,33.4279672 77.4110169,33.2161017 C77.1144053,33.0042362 76.6355965,32.7033918 75.9745763,32.3135593 L75.1864407,31.8559322 C74.0338925,31.1779627 73.1355964,30.614409 72.4915254,30.1652542 C71.8474544,29.7160994 71.271189,29.1355968 70.7627119,28.4237288 C70.2542347,27.7118608 70,26.9067842 70,26.0084746 C70,25.0593173 70.2669465,24.2076309 70.8008475,23.4533898 C71.3347484,22.6991488 72.0847409,22.1101716 73.0508475,21.6864407 C74.016954,21.2627097 75.1440614,21.0508475 76.4322034,21.0508475 C77.3135637,21.0508475 78.2160971,21.1779648 79.1398305,21.4322034 C80.0635639,21.6864419 80.8559289,22.0338961 81.5169492,22.4745763 L80.1440678,25.6016949 C79.2457582,25.2966086 78.5550872,25.0932208 78.0720339,24.9915254 C77.5889806,24.88983 77.0593249,24.8389831 76.4830508,24.8389831 C75.9745737,24.8389831 75.5635609,24.9576259 75.25,25.1949153 C74.9364391,25.4322046 74.779661,25.7203373 74.779661,26.059322 C74.779661,26.3135606 74.9110156,26.5381346 75.1737288,26.7330508 C75.436442,26.9279671 75.8728783,27.1864391 76.4830508,27.5084746 L77.3983051,28.0169492 C78.466107,28.6271217 79.3559286,29.1906754 80.0677966,29.7076271 C80.7796646,30.2245789 81.3855907,30.8347422 81.8855932,31.5381356 C82.3855957,32.2415289 82.6355932,33.0338939 82.6355932,33.9152542 C82.6355932,34.89831 82.355935,35.7711826 81.7966102,36.5338983 C81.2372853,37.296614 80.4364459,37.8983029 79.3940678,38.3389831 C78.3516897,38.7796632 77.1356002,39 75.7457627,39 C74.8474531,39 73.8432259,38.8644081 72.7330508,38.5932203 Z M84.6694915,25.0169492 L84.6694915,21.3813559 L99.4661017,21.3813559 L99.8983051,25.0169492 L94.3813559,25.0169492 L94.3813559,38.6694915 L89.7542373,38.6694915 L89.7542373,25.0169492 L84.6694915,25.0169492 Z M108.084746,38.6694915 L103.457627,38.6694915 L103.457627,21.3813559 L110.728814,21.3813559 C112.796621,21.3813559 114.499993,21.8728764 115.838983,22.8559322 C117.177973,23.838988 117.847458,25.3135495 117.847458,27.279661 C117.847458,28.2966153 117.639833,29.1906741 117.224576,29.9618644 C116.80932,30.7330547 116.237292,31.3644043 115.508475,31.8559322 L119.322034,38.6694915 L113.957627,38.6694915 L111.161017,33.2288136 L108.084746,33.2288136 L108.084746,38.6694915 Z M112.419492,25.5889831 C111.987286,25.2076252 111.372885,25.0169492 110.576271,25.0169492 L108.084746,25.0169492 L108.084746,29.5932203 L110.627119,29.5932203 C111.338987,29.5932203 111.923727,29.3771208 112.381356,28.9449153 C112.838985,28.5127097 113.067797,27.9576305 113.067797,27.279661 C113.067797,26.5338946 112.851697,25.9703409 112.419492,25.5889831 Z M125.70339,38.6694915 L121.101695,38.6694915 L127.584746,21.3813559 L132.211864,21.3813559 L138.669492,38.4661017 L134.118644,38.9237288 L132.872881,35.2627119 L126.898305,35.2627119 L125.70339,38.6694915 Z M129.822034,26.9237288 L128.169492,31.6271186 L131.550847,31.6271186 L129.822034,26.9237288 Z M146.855932,33.4830508 L146.855932,38.6694915 L142.228814,38.6694915 L142.228814,21.3813559 L146.855932,21.3813559 L146.855932,27.3813559 L153.79661,21 L157.381356,23.5932203 L151.508475,29.0847458 L158.5,38.6694915 L152.627119,38.6694915 L148.20339,32.2118644 L146.855932,33.4830508 Z"/>
  </g>
</svg>
