<?xml version="1.0" encoding="UTF-8" standalone="no"?>
<svg width="168px" height="168px" viewBox="0 0 168 168" version="1.1" xmlns="http://www.w3.org/2000/svg" xmlns:xlink="http://www.w3.org/1999/xlink">
    <!-- Generator: Sketch 39.1 (31720) - http://www.bohemiancoding.com/sketch -->
    <title>404-plaatje</title>
    <desc>Created with Sketch.</desc>
    <defs>
        <radialGradient cx="47.8452689%" cy="0%" fx="47.8452689%" fy="0%" r="118.613519%" id="radialGradient-1">
            <stop stop-color="#6A9BD4" offset="0%"></stop>
            <stop stop-color="#713079" offset="26.3532366%"></stop>
            <stop stop-color="#FF7200" offset="45.3146057%"></stop>
            <stop stop-color="#FC0670" offset="76.7897003%"></stop>
            <stop stop-color="#6A9BD4" offset="100%"></stop>
        </radialGradient>
    </defs>
    <g id="Page-1" stroke="none" stroke-width="1" fill="none" fill-rule="evenodd">
        <g id="Leaplines-404-melding" transform="translate(-556.000000, -183.000000)">
            <g id="404-plaatje" transform="translate(552.925729, 180.000000)">
                <path d="M26,26 L147.687603,26 L147.687603,147.687603 L26,147.687603 L26,26 L26,26 L26,26 Z M32.0843802,32.0843802 L141.603223,32.0843802 L141.603223,141.603223 L32.0843802,141.603223 L32.0843802,32.0843802 L32.0843802,32.0843802 L32.0843802,32.0843802 Z M142.156349,26 L147.687603,26 L147.687603,31.5312547 L142.156349,31.5312547 L142.156349,26 L142.156349,26 L142.156349,26 Z M142.156349,142.156349 L147.687603,142.156349 L147.687603,147.687603 L142.156349,147.687603 L142.156349,142.156349 L142.156349,142.156349 L142.156349,142.156349 Z M26,26 L31.5312547,26 L31.5312547,31.5312547 L26,31.5312547 L26,26 L26,26 L26,26 Z M26,142.156349 L31.5312547,142.156349 L31.5312547,147.687603 L26,147.687603 L26,142.156349 L26,142.156349 L26,142.156349 Z M147.687603,31.5312547 C147.687603,28.4764271 145.211176,26 142.156349,26 L142.156349,31.5312547 L147.687603,31.5312547 L147.687603,31.5312547 L147.687603,31.5312547 Z M26,142.156349 C26,145.211176 28.4764271,147.687603 31.5312547,147.687603 L31.5312547,142.156349 L26,142.156349 L26,142.156349 L26,142.156349 Z M26,31.5312547 C26,28.4764271 28.4764271,26 31.5312547,26 L31.5312547,31.5312547 L26,31.5312547 L26,31.5312547 L26,31.5312547 Z M147.687603,142.156349 C147.687603,145.211176 145.211176,147.687603 142.156349,147.687603 L142.156349,142.156349 L147.687603,142.156349 L147.687603,142.156349 L147.687603,142.156349 Z" id="Combined-Shape" fill="url(#radialGradient-1)" transform="translate(86.843802, 86.843802) rotate(45.000000) translate(-86.843802, -86.843802) "></path>
                <path d="M70.7182695,99.2891247 L70.7182695,94.3445517 L73.79967,94.3445517 L73.79967,89.8657719 L70.7182695,89.8657719 L70.7182695,75.3903554 L63.6955427,75.3903554 L54.2005294,90.331565 L54.2005294,94.3445517 L65.6303756,94.3445517 L65.6303756,99.2891247 L70.7182695,99.2891247 Z M65.6303756,89.8657719 L59.1809326,89.8657719 L65.6303756,79.9049655 L65.6303756,89.8657719 Z M85.8028,99.7190875 C92.6463756,99.7190875 95.6919459,93.5204562 95.6919459,87.3576552 C95.6919459,81.1948541 92.6463756,75.0320531 85.8028,75.0320531 C78.9592244,75.0320531 75.9136541,81.1948541 75.9136541,87.3576552 C75.9136541,93.5204562 78.9592244,99.7190875 85.8028,99.7190875 L85.8028,99.7190875 Z M85.8028,95.2044775 C82.3989273,95.2044775 81.1090387,91.7647745 81.1090387,87.3576552 C81.1090387,82.9505358 82.3989273,79.5466631 85.8028,79.5466631 C89.2425029,79.5466631 90.4965613,82.9505358 90.4965613,87.3576552 C90.4965613,91.7647745 89.2066727,95.2044775 85.8028,95.2044775 L85.8028,95.2044775 Z M114.32367,99.2891247 L114.32367,94.3445517 L117.405071,94.3445517 L117.405071,89.8657719 L114.32367,89.8657719 L114.32367,75.3903554 L107.300943,75.3903554 L97.80593,90.331565 L97.80593,94.3445517 L109.235776,94.3445517 L109.235776,99.2891247 L114.32367,99.2891247 Z M109.235776,89.8657719 L102.786333,89.8657719 L109.235776,79.9049655 L109.235776,89.8657719 Z" id="404" fill="#4A4A4A"></path>
            </g>
        </g>
    </g>
</svg>