<?xml version="1.0" encoding="UTF-8" standalone="no"?>
<svg width="168px" height="168px" viewBox="0 0 168 168" version="1.1" xmlns="http://www.w3.org/2000/svg" xmlns:xlink="http://www.w3.org/1999/xlink">
    <!-- Generator: Sketch 39.1 (31720) - http://www.bohemiancoding.com/sketch -->
    <title>500-plaatje</title>
    <desc>Created with Sketch.</desc>
    <defs>
        <radialGradient cx="47.8452689%" cy="0%" fx="47.8452689%" fy="0%" r="118.613519%" id="radialGradient-1">
            <stop stop-color="#6A9BD4" offset="0%"></stop>
            <stop stop-color="#713079" offset="26.3532366%"></stop>
            <stop stop-color="#FF7200" offset="45.3146057%"></stop>
            <stop stop-color="#FC0670" offset="76.7897003%"></stop>
            <stop stop-color="#6A9BD4" offset="100%"></stop>
        </radialGradient>
    </defs>
    <g id="Page-1" stroke="none" stroke-width="1" fill="none" fill-rule="evenodd">
        <g id="Leaplines--500-melding" transform="translate(-556.000000, -183.000000)">
            <g id="500-plaatje" transform="translate(552.925729, 180.000000)">
                <path d="M26,26 L147.687603,26 L147.687603,147.687603 L26,147.687603 L26,26 L26,26 L26,26 Z M32.0843802,32.0843802 L141.603223,32.0843802 L141.603223,141.603223 L32.0843802,141.603223 L32.0843802,32.0843802 L32.0843802,32.0843802 L32.0843802,32.0843802 Z M142.156349,26 L147.687603,26 L147.687603,31.5312547 L142.156349,31.5312547 L142.156349,26 L142.156349,26 L142.156349,26 Z M142.156349,142.156349 L147.687603,142.156349 L147.687603,147.687603 L142.156349,147.687603 L142.156349,142.156349 L142.156349,142.156349 L142.156349,142.156349 Z M26,26 L31.5312547,26 L31.5312547,31.5312547 L26,31.5312547 L26,26 L26,26 L26,26 Z M26,142.156349 L31.5312547,142.156349 L31.5312547,147.687603 L26,147.687603 L26,142.156349 L26,142.156349 L26,142.156349 Z M147.687603,31.5312547 C147.687603,28.4764271 145.211176,26 142.156349,26 L142.156349,31.5312547 L147.687603,31.5312547 L147.687603,31.5312547 L147.687603,31.5312547 Z M26,142.156349 C26,145.211176 28.4764271,147.687603 31.5312547,147.687603 L31.5312547,142.156349 L26,142.156349 L26,142.156349 L26,142.156349 Z M26,31.5312547 C26,28.4764271 28.4764271,26 31.5312547,26 L31.5312547,31.5312547 L26,31.5312547 L26,31.5312547 L26,31.5312547 Z M147.687603,142.156349 C147.687603,145.211176 145.211176,147.687603 142.156349,147.687603 L142.156349,142.156349 L147.687603,142.156349 L147.687603,142.156349 L147.687603,142.156349 Z" id="Combined-Shape" fill="url(#radialGradient-1)" transform="translate(86.843802, 86.843802) rotate(45.000000) translate(-86.843802, -86.843802) "></path>
                <path d="M64.3262706,99.432 C70.1222706,99.432 73.9382706,96.192 73.9382706,91.116 C73.9382706,86.256 70.3022706,83.34 66.2342706,83.34 C64.0382706,83.34 62.0942706,84.204 60.9422706,85.356 L60.9422706,79.488 L72.3182706,79.488 L72.3182706,74.988 L55.8302706,74.988 L55.8302706,88.74 L59.3942706,89.712 C60.8342706,88.344 62.4542706,87.768 64.4342706,87.768 C67.1702706,87.768 68.7542706,89.208 68.7542706,91.332 C68.7542706,93.276 67.1342706,94.896 64.2902706,94.896 C61.7702706,94.896 59.5382706,93.96 57.9182706,92.268 L55.0742706,95.832 C57.1262706,98.064 60.1502706,99.432 64.3262706,99.432 L64.3262706,99.432 Z M86.3582706,99.432 C93.2342706,99.432 96.2942706,93.204 96.2942706,87.012 C96.2942706,80.82 93.2342706,74.628 86.3582706,74.628 C79.4822706,74.628 76.4222706,80.82 76.4222706,87.012 C76.4222706,93.204 79.4822706,99.432 86.3582706,99.432 L86.3582706,99.432 Z M86.3582706,94.896 C82.9382706,94.896 81.6422706,91.44 81.6422706,87.012 C81.6422706,82.584 82.9382706,79.164 86.3582706,79.164 C89.8142706,79.164 91.0742706,82.584 91.0742706,87.012 C91.0742706,91.44 89.7782706,94.896 86.3582706,94.896 L86.3582706,94.896 Z M108.678271,99.432 C115.554271,99.432 118.614271,93.204 118.614271,87.012 C118.614271,80.82 115.554271,74.628 108.678271,74.628 C101.802271,74.628 98.7422706,80.82 98.7422706,87.012 C98.7422706,93.204 101.802271,99.432 108.678271,99.432 L108.678271,99.432 Z M108.678271,94.896 C105.258271,94.896 103.962271,91.44 103.962271,87.012 C103.962271,82.584 105.258271,79.164 108.678271,79.164 C112.134271,79.164 113.394271,82.584 113.394271,87.012 C113.394271,91.44 112.098271,94.896 108.678271,94.896 L108.678271,94.896 Z" id="500" fill="#4A4A4A"></path>
            </g>
        </g>
    </g>
</svg>