<?xml version="1.0" encoding="UTF-8" standalone="no"?>
<svg width="72px" height="97px" viewBox="0 0 72 97" version="1.1" xmlns="http://www.w3.org/2000/svg" xmlns:xlink="http://www.w3.org/1999/xlink">
    <!-- Generator: Sketch 39.1 (31720) - http://www.bohemiancoding.com/sketch -->
    <title>Group 29</title>
    <desc>Created with Sketch.</desc>
    <defs>
        <radialGradient cx="47.8452689%" cy="0%" fx="47.8452689%" fy="0%" r="118.613519%" id="radialGradient-1">
            <stop stop-color="#6A9BD4" offset="0%"></stop>
            <stop stop-color="#713079" offset="26.3532366%"></stop>
            <stop stop-color="#FF7200" offset="45.3146057%"></stop>
            <stop stop-color="#FC0670" offset="76.7897003%"></stop>
            <stop stop-color="#6A9BD4" offset="100%"></stop>
        </radialGradient>
    </defs>
    <g id="Page-1" stroke="none" stroke-width="1" fill="none" fill-rule="evenodd">
        <g id="01-Leaplines-home-v3-@2x" transform="translate(-133.000000, -6900.000000)">
            <g id="Group-23" transform="translate(0.000000, 6239.000000)">
                <g id="Group-29" transform="translate(133.000000, 661.000000)">
                    <g id="logo">
                        <g id="Page-1">
                            <g id="Artboard-5-Copy-2">
                                <g id="Group-2">
                                    <path d="M0,0 L72,0 L72,72 L0,72 L0,0 L0,0 L0,0 Z M3.6,3.6 L68.4,3.6 L68.4,68.4 L3.6,68.4 L3.6,3.6 L3.6,3.6 L3.6,3.6 Z M68.727273,0 L72,0 L72,3.27272727 L68.727273,3.27272727 L68.727273,0 L68.727273,0 L68.727273,0 Z M68.727273,68.727273 L72,68.727273 L72,72 L68.727273,72 L68.727273,68.727273 L68.727273,68.727273 L68.727273,68.727273 Z M0,0 L3.27272727,0 L3.27272727,3.27272727 L0,3.27272727 L0,0 L0,0 L0,0 Z M0,68.727273 L3.27272727,68.727273 L3.27272727,72 L0,72 L0,68.727273 L0,68.727273 L0,68.727273 Z M72,3.27272727 C72,1.46524991 70.5347502,0 68.727273,0 L68.727273,3.27272727 L72,3.27272727 L72,3.27272727 L72,3.27272727 Z M0,68.727273 C0,70.5347502 1.46524991,72 3.27272727,72 L3.27272727,68.727273 L0,68.727273 L0,68.727273 L0,68.727273 Z M0,3.27272727 C0,1.46524991 1.46524991,0 3.27272727,0 L3.27272727,3.27272727 L0,3.27272727 L0,3.27272727 L0,3.27272727 Z M72,68.727273 C72,70.5347502 70.5347502,72 68.727273,72 L68.727273,68.727273 L72,68.727273 L72,68.727273 L72,68.727273 Z" id="Combined-Shape" fill="url(#radialGradient-1)"></path>
                                    <g id="Group-3" transform="translate(23.400000, 18.600000)">
                                        <polygon id="Combined-Shape" fill="#2076DA" points="9 25.8 9 0 0 0 0 30.3 0 34.8 25.8 34.8 25.8 25.8"></polygon>
                                        <g id="Group">
                                            <polygon id="Fill-3" fill="#F8991C" points="0 0 0 34.8 9 17.4"></polygon>
                                            <polygon id="Fill-4" fill="#713079" points="0 34.2 0 34.8 8.75909748 34.8 15.1997602 34.8 9 25.8 8.4 25.8"></polygon>
                                            <polygon id="Fill-5" fill="#D0011B" points="0 25.2 8.37303558e-11 34.2 9 18 9 17.4"></polygon>
                                            <polygon id="Fill-6" fill="#FF7200" points="0 19.8 0 25.2 9 17.4"></polygon>
                                            <polygon id="Fill-8" fill="#BB014E" points="14.4 34.8 20.4 34.8 9.6 25.8 9 25.8"></polygon>
                                            <polygon id="Fill-9" fill="#F04E3E" points="19.2 34.8 25.8 34.8 25.8 34.2 9.6 25.8 9 25.8"></polygon>
                                            <polygon id="Fill-10" fill="#FF7200" points="25.8 34.8 25.8 30 8.4 25.8"></polygon>
                                            <polygon id="Fill-7" fill="#E02374" points="0 33.6 0 34.2 9 25.8 9 17.4"></polygon>
                                            <polygon id="Fill-11" fill="#6A9BD4" points="0 0 0 0.6 9 17.4 9 16.2 4.8 0"></polygon>
                                            <polygon id="Fill-12" fill="#F6C806" points="0 6 9 17.4 0 0"></polygon>
                                        </g>
                                    </g>
                                </g>
                            </g>
                        </g>
                    </g>
                    <path d="M4.98524848,95.9599368 L4.98524848,94.4902291 L1.66958793,94.4902291 L1.66958793,88.1175766 L0,88.1175766 L0,95.9599368 L4.98524848,95.9599368 Z M13.2665614,95.9599368 L13.2665614,94.4902291 L9.38653312,94.4902291 L9.38653312,92.7148223 L13.1842578,92.7148223 L13.1842578,91.2451146 L9.38653312,91.2451146 L9.38653312,89.5872843 L13.2665614,89.5872843 L13.2665614,88.1175766 L7.71694519,88.1175766 L7.71694519,95.9599368 L13.2665614,95.9599368 Z M23.4526155,95.9599368 L20.4308965,88.1175766 L18.3380328,88.1175766 L15.3045561,95.9599368 L17.2092973,95.9599368 L17.703119,94.6313211 L21.0658102,94.6313211 L21.5478744,95.9599368 L23.4526155,95.9599368 Z M20.6072614,93.1616134 L18.1616678,93.1616134 L19.3844646,89.7871645 L20.6072614,93.1616134 Z M27.4188667,95.9599368 L27.4188667,93.1733711 L29.4176691,93.1733711 C31.1107724,93.1733711 32.0513853,92.0093626 32.0513853,90.6454738 C32.0513853,89.2698274 31.1225301,88.1175766 29.4176691,88.1175766 L25.7492788,88.1175766 L25.7492788,95.9599368 L27.4188667,95.9599368 Z M29.1942736,91.7036634 L27.4188667,91.7036634 L27.4188667,89.5872843 L29.1942736,89.5872843 C29.8527026,89.5872843 30.3465244,89.9870448 30.3465244,90.6454738 C30.3465244,91.2921452 29.8527026,91.7036634 29.1942736,91.7036634 L29.1942736,91.7036634 Z M39.6389962,95.9599368 L39.6389962,94.4902291 L36.3233357,94.4902291 L36.3233357,88.1175766 L34.6537478,88.1175766 L34.6537478,95.9599368 L39.6389962,95.9599368 Z M44.0402809,95.9599368 L44.0402809,88.1175766 L42.3706929,88.1175766 L42.3706929,95.9599368 L44.0402809,95.9599368 Z M54.1793043,95.9599368 L54.1793043,88.1175766 L52.5097164,88.1175766 L52.5097164,93.0440368 L48.876599,88.1175766 L47.1599804,88.1175766 L47.1599804,95.9599368 L48.8295684,95.9599368 L48.8295684,90.8453541 L52.5685047,95.9599368 L54.1793043,95.9599368 Z M62.8486201,95.9599368 L62.8486201,94.4902291 L58.9685918,94.4902291 L58.9685918,92.7148223 L62.7663165,92.7148223 L62.7663165,91.2451146 L58.9685918,91.2451146 L58.9685918,89.5872843 L62.8486201,89.5872843 L62.8486201,88.1175766 L57.2990039,88.1175766 L57.2990039,95.9599368 L62.8486201,95.9599368 Z M68.5079745,96.1010288 C70.6243536,96.1010288 71.6472702,95.0193239 71.6472702,93.5848892 C71.6472702,90.6572315 67.1440858,91.4920255 67.1440858,90.2457133 C67.1440858,89.7754069 67.5438463,89.45795 68.2610636,89.45795 C69.0605846,89.45795 69.9071363,89.7283762 70.54205,90.3162593 L71.4709052,89.0934625 C70.6948996,88.3762452 69.6602254,88 68.4139132,88 C66.5679604,88 65.4392249,89.0817049 65.4392249,90.3868053 C65.4392249,93.3379783 69.9541669,92.3856077 69.9541669,93.7730118 C69.9541669,94.2198029 69.5073758,94.6430787 68.5902782,94.6430787 C67.5085733,94.6430787 66.650264,94.1610146 66.0976539,93.5848892 L65.192314,94.8547167 C65.921289,95.5954493 67.0029939,96.1010288 68.5079745,96.1010288 L68.5079745,96.1010288 Z" id="LEAPLINES" fill="#4A4A4A"></path>
                </g>
            </g>
        </g>
    </g>
</svg>