<?xml version="1.0" encoding="UTF-8" standalone="no"?>
<svg width="1398px" height="284px" viewBox="0 0 1398 284" version="1.1" xmlns="http://www.w3.org/2000/svg" xmlns:xlink="http://www.w3.org/1999/xlink">
    <!-- Generator: Sketch 40.1 (33804) - http://www.bohemiancoding.com/sketch -->
    <title>Group 14</title>
    <desc>Created with Sketch.</desc>
    <defs></defs>
    <g id="Page-1" stroke="none" stroke-width="1" fill="none" fill-rule="evenodd">
        <g id="05-Leaplines-overons-@2x" transform="translate(-9.000000, -1884.000000)">
            <g id="Group-16-Copy" transform="translate(7.794650, 1882.327555)">
                <g id="Group-14" transform="translate(0.227143, 0.786726)">
                    <g id="Group-25">
                        <polygon id="Fill-31" fill="#80ACDF" points="655.672701 284.254576 854.278327 3.35090052 1052.86941 284.254576"></polygon>
                        <polygon id="Fill-33" fill="#6A9BD4" points="953.569504 143.805708 854.273963 3.35387028 854.273963 284.251606 1052.86504 284.251606"></polygon>
                        <polygon id="Fill-35" fill="#4E7CB2" points="655.672701 284.254576 854.278327 166.580799 1052.86941 284.254576"></polygon>
                        <g id="Page-1" transform="translate(0.000000, 0.691274)">
                            <g id="Group-19" transform="translate(1003.283795, 35.766234)"></g>
                            <g id="Group-47" transform="translate(0.000000, 0.140499)">
                                <g id="Group-8" transform="translate(0.173306, 1.131953)">
                                    <g id="Group-13" transform="translate(336.022776, 14.000000)">
                                        <polygon id="Fill-37-Copy" fill="#FFAC3F" points="0.191686346 268.755208 189.520806 0.663497052 378.849925 268.755208"></polygon>
                                        <polygon id="Fill-39-Copy" fill="#F8991C" points="284.348599 134.709352 189.684039 0.663497052 189.684039 268.755208 379.013159 268.755208"></polygon>
                                        <polygon id="Fill-41-Copy" fill="#DA8618" points="0.191686346 268.322929 189.520806 156.017948 378.849925 268.322929"></polygon>
                                    </g>
                                    <g id="Group-16" transform="translate(0.000000, 0.577203)">
                                        <g id="Group-14" transform="translate(0.191686, 0.663497)">
                                            <g id="Group-31">
                                                <polygon id="Fill-31" fill="#F87F26" points="168.875797 281.346473 357.173173 15.0225732 545.456757 281.346473"></polygon>
                                                <polygon id="Fill-33" fill="#FF7200" points="451.310828 148.187339 357.169035 15.0253889 357.169035 281.343657 545.45262 281.343657"></polygon>
                                                <polygon id="Fill-35" fill="#DD6306" points="168.875797 281.346473 357.173173 169.780331 545.456757 281.346473"></polygon>
                                                <polygon id="Fill-24" fill="#E25498" points="0.772477325 281.13082 199.233074 0.120864104 397.689174 281.13082"></polygon>
                                                <polygon id="Fill-26" fill="#DF2374" points="298.462923 140.624739 199.234873 0.121599453 199.234873 281.131555 397.686475 281.131555"></polygon>
                                                <polygon id="Fill-29" fill="#BF1F6B" points="0.772477325 281.13082 199.233074 163.41247 397.689174 281.13082"></polygon>
                                            </g>
                                        </g>
                                    </g>
                                </g>
                                <g id="Group-4" transform="translate(1.000000, 2.058054)">
                                    <g id="Group-17"></g>
                                </g>
                                <polygon id="Fill-37" fill="#FFD72D" points="494.910323 283.600037 694.604175 0.831772878 894.298028 283.600037"></polygon>
                                <polygon id="Fill-39" fill="#F6C706" points="794.623271 142.215905 694.776345 0.831772878 694.776345 283.600037 894.470197 283.600037"></polygon>
                                <polygon id="Fill-41" fill="#D2A725" points="494.910323 283.144093 694.604175 164.69103 894.298028 283.144093"></polygon>
                                <g id="Group-10" transform="translate(792.587595, 0.000000)">
                                    <polygon id="Fill-37" fill="#3582DB" points="0.0614257745 283.482767 199.755278 0.714502989 399.44913 283.482767"></polygon>
                                    <polygon id="Fill-39" fill="#2076DA" points="299.602725 142.098635 199.755799 0.714502989 199.755799 283.482767 399.449651 283.482767"></polygon>
                                    <polygon id="Fill-41" fill="#1E72C6" points="0.0614257745 283.482767 199.755278 165.029704 399.44913 283.482767"></polygon>
                                    <g id="Group-29" transform="translate(210.000000, 3.000000)">
                                        <polygon id="Fill-1" fill="#9F5CAA" points="0.852102527 280.409568 395.879486 280.409568 198.379273 0.878906642"></polygon>
                                        <polygon id="Fill-2" fill="#713079" points="198.367592 280.409568 395.885777 280.409568 297.122191 140.644237 198.376578 0.878906642"></polygon>
                                        <polygon id="Fill-3" fill="#4C1456" points="0.852102527 280.409568 395.879486 280.409568 198.379273 163.318014"></polygon>
                                    </g>
                                </g>
                            </g>
                        </g>
                    </g>
                </g>
            </g>
        </g>
    </g>
</svg>