<?xml version="1.0" encoding="UTF-8" standalone="no"?>
<svg width="1119px" height="519px" viewBox="0 0 1119 519" version="1.1" xmlns="http://www.w3.org/2000/svg" xmlns:xlink="http://www.w3.org/1999/xlink">
    <!-- Generator: Sketch 39.1 (31720) - http://www.bohemiancoding.com/sketch -->
    <title>Group 2</title>
    <desc>Created with Sketch.</desc>
    <defs>
        <polygon id="path-1" points="0.284689006 392.112376 233.687509 392.112376 233.687509 0.902116546 0.284689006 0.902116546"></polygon>
    </defs>
    <g id="Page-1" stroke="none" stroke-width="1" fill="none" fill-rule="evenodd">
        <g id="05-Leaplines-overons-@2x" transform="translate(-136.000000, -2970.000000)">
            <g id="Group-31" transform="translate(135.000000, 2725.000000)">
                <g id="Group-2" transform="translate(0.997455, 244.861022)">
                    <g id="Page-1">
                        <polygon id="Fill-1" fill="#9F5CAA" points="885.69301 518.986432 1118.2178 518.986432 1001.96334 324.120431"></polygon>
                        <polygon id="Fill-2" fill="#713079" points="1001.95646 518.986432 1118.2215 518.986432 1060.08634 421.553431 1001.96175 324.120431"></polygon>
                        <polygon id="Fill-3" fill="#4C1456" points="885.69301 518.986432 1118.2178 518.986432 1001.96334 437.359741"></polygon>
                        <g id="Group-47" transform="translate(0.000000, 0.168915)">
                            <g id="Group-10" transform="translate(72.463792, 188.556133)" fill="#1F76DA">
                                <path d="M48.7939234,84.9903655 C27.7812322,84.9903655 10.7526605,68.3625899 10.7526605,47.8493402 C10.7526605,27.3360905 27.7812322,10.7083149 48.7939234,10.7083149 C69.8147043,10.7083149 86.8473208,27.3360905 86.8473208,47.8493402 C86.8473208,68.3625899 69.8147043,84.9903655 48.7939234,84.9903655 L48.7939234,84.9903655 Z M48.7939234,0.272026386 C21.8839264,0.272026386 0.0663216282,21.5750066 0.0663216282,47.8493402 C0.0663216282,68.9469905 14.2311811,86.633005 33.7068516,92.8600299 L48.7979682,118.38412 L63.9012193,92.8560813 C83.3768898,86.6251077 97.5336596,68.9469905 97.5336596,47.8493402 C97.5336596,21.5750066 75.7160549,0.272026386 48.7939234,0.272026386 L48.7939234,0.272026386 Z" id="Fill-4"></path>
                                <path d="M49.6413072,58.0956986 L48.0274355,58.0956986 L48.0274355,40.9545981 C48.0274355,39.4027777 48.0921521,37.7838302 48.2215855,36.1135502 C48.055749,36.2754449 47.8858678,36.4294424 47.7119417,36.5794912 C47.5339709,36.72954 45.8392033,38.0325953 42.6195494,40.4886571 L41.677113,39.3474966 L48.2215855,34.569627 L49.6413072,34.569627 L49.6413072,58.0956986 Z" id="Fill-6"></path>
                            </g>
                            <g id="Group-8" transform="translate(281.794650, 51.158641)" fill="#F6C706">
                                <path d="M48.9363103,85.5237424 C27.8443802,85.5237424 10.7508241,68.8534477 10.7508241,48.2788987 C10.7508241,27.7043497 27.8443802,11.034055 48.9363103,11.034055 C70.0241811,11.034055 87.1177372,27.7043497 87.1177372,48.2788987 C87.1177372,68.8534477 70.0241811,85.5237424 48.9363103,85.5237424 M48.9363103,0.56859444 C21.9219156,0.56859444 0.0221921992,21.9311217 0.0221921992,48.2788987 C0.0221921992,69.4394818 14.2377309,87.1709734 33.7912004,93.4154044 L48.9403695,119.0148 L64.0854795,93.4074851 C83.6348896,87.163054 97.8423098,69.4394818 97.8423098,48.2788987 C97.8423098,21.9311217 75.9466457,0.56859444 48.9363103,0.56859444" id="Fill-8"></path>
                                <path d="M57.0946169,58.5503344 L41.9576255,58.5503344 L41.9576255,57.1288057 L48.3915572,50.5794785 C50.2019884,48.7501018 51.4684785,47.3483715 52.1950865,46.3822072 C52.9257539,45.4160428 53.4575173,44.4894754 53.8025546,43.6064645 C54.1435327,42.7234537 54.3140218,41.8008459 54.3140218,40.8307219 C54.3140218,39.4210723 53.839088,38.2727622 52.8932798,37.393711 C51.9434122,36.5107001 50.7134556,36.0711746 49.2034098,36.0711746 C47.1859561,36.0711746 45.253747,36.7839187 43.4108416,38.2173265 L42.5178038,37.1006939 C44.5352574,35.4455435 46.7759706,34.6179683 49.2358839,34.6179683 C51.3426413,34.6179683 52.9988206,35.1644056 54.2084809,36.2651994 C55.414082,37.3580738 56.0189122,38.8706753 56.0189122,40.7990444 C56.0189122,42.3591622 55.6129859,43.8678041 54.8051926,45.32497 C53.99334,46.7821359 52.511709,48.5798351 50.3602997,50.7220274 L44.1536867,56.9347809 L44.1536867,57.0020956 L57.0946169,57.0020956 L57.0946169,58.5503344 Z" id="Fill-10"></path>
                            </g>
                            <g id="Group-7" transform="translate(493.659583, 149.090896)" fill="#FF7200">
                                <path d="M49.1259487,85.3866671 C28.1092126,85.3866671 11.0765961,68.7203321 11.0765961,48.1378637 C11.0765961,27.5633147 28.1092126,10.8969797 49.1259487,10.8969797 C70.1426847,10.8969797 87.1712564,27.5633147 87.1712564,48.1378637 C87.1712564,68.7203321 70.1426847,85.3866671 49.1259487,85.3866671 M49.1259487,0.431519148 C22.207862,0.431519148 0.394302043,21.7940464 0.394302043,48.1378637 C0.394302043,69.2944871 14.5591615,87.0338981 34.0307872,93.2783291 L49.1299934,118.877725 L64.2251549,93.2743695 C83.7048702,87.0259787 97.8575953,69.2944871 97.8575953,48.1378637 C97.8575953,21.7940464 76.0399905,0.431519148 49.1259487,0.431519148" id="Fill-12"></path>
                                <path d="M56.4474255,40.368556 C56.4474255,41.8336413 55.9782297,43.0651049 55.0357933,44.0669065 C54.0974017,45.0647483 52.8354268,45.7062181 51.2539134,45.9833964 L51.2539134,46.0823886 C53.1873237,46.3160103 54.6596277,46.9218429 55.6708256,47.8880073 C56.6820234,48.8581313 57.1876224,50.1608693 57.1876224,51.7962212 C57.1876224,54.0017685 56.419112,55.7083949 54.8901809,56.92006 C53.3572049,58.1277655 51.1487488,58.733598 48.2729021,58.733598 C45.8217586,58.733598 43.6820639,58.2861531 41.857863,57.3952228 L41.857863,55.7955081 C42.7800754,56.2706709 43.815542,56.6428817 44.9642628,56.9121407 C46.1129835,57.1813996 47.1929428,57.3120693 48.2041407,57.3120693 C50.6350603,57.3120693 52.4592612,56.8329469 53.6767434,55.8707422 C54.8982704,54.9045779 55.5090339,53.5503639 55.5090339,51.7962212 C55.5090339,50.2361034 54.8820913,49.0323577 53.6362955,48.1968631 C52.3904998,47.3574088 50.5541645,46.9376817 48.139424,46.9376817 L45.5345784,46.9376817 L45.5345784,45.3894429 L48.1717824,45.3894429 C50.1699093,45.3894429 51.7554675,44.9221995 52.928457,43.9916723 C54.0974017,43.0611452 54.6838965,41.7980041 54.6838965,40.2062087 C54.6838965,38.8955514 54.2066111,37.8422738 53.2560851,37.0542955 C52.3055592,36.2623576 51.0597634,35.8663886 49.5227427,35.8663886 C48.3254844,35.8663886 47.2333908,36.0287358 46.2424169,36.3573901 C45.251443,36.6860444 44.1431701,37.2483204 42.9135536,38.044218 L42.1045953,36.9632227 C43.0389421,36.1990025 44.1633941,35.59317 45.4860409,35.1496847 C46.8046429,34.7022397 48.139424,34.4765374 49.4903844,34.4765374 C51.7109748,34.4765374 53.4219216,34.9912971 54.635359,36.0208165 C55.8447516,37.0463762 56.4474255,38.4956227 56.4474255,40.368556" id="Fill-14"></path>
                            </g>
                            <g id="Group-4" transform="translate(751.811842, 0.000000)" fill="#DF2374">
                                <path d="M49.617806,85.6579297 C28.5258759,85.6579297 11.4323198,68.9836753 11.4323198,48.4091263 C11.4323198,27.8345773 28.5258759,11.1642826 49.617806,11.1642826 C70.7016175,11.1642826 87.7992329,27.8345773 87.7992329,48.4091263 C87.7992329,68.9836753 70.7016175,85.6579297 49.617806,85.6579297 M49.617806,0.702781745 C22.6034113,0.702781745 0.711806444,22.0573897 0.711806444,48.4091263 C0.711806444,69.56179 14.9192266,87.301201 34.4686368,93.5456321 L49.617806,119.141068 L64.7710344,93.5456321 C84.3163854,87.2972413 98.5238055,69.56179 98.5238055,48.4091263 C98.5238055,22.0573897 76.6240821,0.702781745 49.617806,0.702781745" id="Fill-16"></path>
                                <path d="M51.4534047,51.2771297 L51.4534047,44.529818 C51.4534047,41.2828723 51.5345899,38.5546459 51.6847827,36.3490986 L51.550827,36.3490986 C51.3356861,36.7490273 50.6537299,37.7587482 49.5171363,39.3822211 L40.9805064,51.2771297 L51.4534047,51.2771297 Z M57.1769654,52.6669809 L53.0081024,52.6669809 L53.0081024,58.6857096 L51.4534047,58.6857096 L51.4534047,52.6669809 L39.0158231,52.6669809 L39.0158231,51.5820258 L51.0068858,34.9592474 L53.0081024,34.9592474 L53.0081024,51.2771297 L57.1769654,51.2771297 L57.1769654,52.6669809 Z" id="Fill-18"></path>
                            </g>
                            <g id="Group-5" transform="translate(954.106595, 197.326185)" fill="#713079">
                                <path d="M48.8786441,85.3548784 C27.8659528,85.3548784 10.8333363,68.680624 10.8333363,48.106075 C10.8333363,27.531526 27.8659528,10.865191 48.8786441,10.865191 C69.8913353,10.865191 86.9239519,27.531526 86.9239519,48.106075 C86.9239519,68.680624 69.8913353,85.3548784 48.8786441,85.3548784 M48.8786441,0.399730426 C21.9646022,0.399730426 0.151042272,21.758298 0.151042272,48.106075 C0.151042272,69.2626984 14.3078121,86.9981497 33.7875274,93.2425807 L48.8867337,118.838017 L63.9778503,93.238621 C83.4575656,86.9902303 97.6143355,69.2626984 97.6143355,48.106075 C97.6143355,21.758298 75.7967308,0.399730426 48.8786441,0.399730426" id="Fill-20"></path>
                                <path d="M48.9142383,44.1939013 C51.4867256,44.1939013 53.5131661,44.7997339 54.9895149,46.0153587 C56.4699086,47.2349432 57.2060606,48.9059323 57.2060606,51.0362455 C57.2060606,53.4556161 56.4375502,55.3404285 54.8964847,56.6867231 C53.359464,58.029058 51.2399933,58.7022053 48.5340279,58.7022053 C47.3367696,58.7022053 46.2001832,58.5873743 45.1242687,58.3537526 C44.0443094,58.1240905 43.1423209,57.7954363 42.4223481,57.3638301 L42.4223481,55.7007603 C43.607472,56.2947138 44.6591177,56.7025619 45.5853749,56.9361836 C46.5075874,57.1658456 47.4904717,57.2806766 48.5340279,57.2806766 C50.6494538,57.2806766 52.3401766,56.7342394 53.6102411,55.6453246 C54.8924399,54.5524502 55.5234274,53.0754859 55.5234274,51.2144316 C55.5234274,49.4602889 54.9045743,48.0823168 53.6628233,47.0805153 C52.4170276,46.0826734 50.7343944,45.5837525 48.6027893,45.5837525 C47.1709332,45.5837525 45.6784051,45.7896563 44.1130709,46.2093835 L43.1261418,45.5837525 L44.0847573,34.785678 L55.6892638,34.785678 L55.6892638,36.3339167 L45.6298676,36.3339167 L44.8937156,44.6611447 C46.6087072,44.3522889 47.9475331,44.1939013 48.9142383,44.1939013" id="Fill-22"></path>
                            </g>
                            <polygon id="Fill-24" fill="#E25498" points="568.973524 518.817517 802.386922 127.606234 1035.79503 518.817517"></polygon>
                            <g id="Group-28" transform="translate(802.104349, 126.705141)">
                                <mask id="mask-2" fill="white">
                                    <use xlink:href="#path-1"></use>
                                </mask>
                                <g id="Clip-27"></g>
                                <polygon id="Fill-26" fill="#DF2374" mask="url(#mask-2)" points="116.988744 196.505199 0.284689006 0.902116546 0.284689006 392.113399 233.687509 392.113399"></polygon>
                            </g>
                            <polygon id="Fill-29" fill="#BF1F6B" points="568.973524 518.817517 802.386922 354.934545 1035.79503 518.817517"></polygon>
                            <polygon id="Fill-31" fill="#F87F26" points="397.671817 518.817517 542.113184 276.737333 686.543973 518.817517"></polygon>
                            <polygon id="Fill-33" fill="#FF7200" points="614.325405 397.779984 542.11001 276.739892 542.11001 518.814958 686.540799 518.814958"></polygon>
                            <polygon id="Fill-35" fill="#DD6306" points="397.671817 518.817517 542.113184 417.407346 686.543973 518.817517"></polygon>
                            <polygon id="Fill-37" fill="#FEA808" points="128.062389 518.817517 330.88752 178.859012 533.71265 518.817517"></polygon>
                            <polygon id="Fill-39" fill="#F6C706" points="432.300614 348.838265 330.888048 178.859012 330.888048 518.817517 533.713179 518.817517"></polygon>
                            <polygon id="Fill-41" fill="#F9991C" points="128.062389 518.817517 330.88752 376.407171 533.71265 518.817517"></polygon>
                            <polygon id="Fill-43" fill="#6A9BD4" points="0 518.817517 121.215864 315.664465 242.421149 518.817517"></polygon>
                            <polygon id="Fill-45" fill="#1F76DA" points="181.815862 417.239967 121.210575 315.660882 121.210575 518.819053 242.421149 518.819053"></polygon>
                            <polygon id="Fill-46" fill="#1E72C6" points="0 518.817517 121.215864 433.715281 242.421149 518.817517"></polygon>
                        </g>
                    </g>
                </g>
            </g>
        </g>
    </g>
</svg>