<?xml version="1.0" encoding="UTF-8" standalone="no"?>
<svg width="53px" height="65px" viewBox="0 0 53 65" version="1.1" xmlns="http://www.w3.org/2000/svg" xmlns:xlink="http://www.w3.org/1999/xlink">
    <!-- Generator: Sketch 39.1 (31720) - http://www.bohemiancoding.com/sketch -->
    <title>Group 17</title>
    <desc>Created with Sketch.</desc>
    <defs>
        <polygon id="path-1" points="0.0793172079 63.9107209 52.8781386 63.9107209 52.8781386 0 0.0793172079 0"></polygon>
    </defs>
    <g id="Page-1" stroke="none" stroke-width="1" fill="none" fill-rule="evenodd">
        <g id="Leaplines-404-melding" transform="translate(-328.000000, -564.000000)">
            <g id="hourglass-2" transform="translate(328.000000, 466.927461)">
                <g id="Group-17" transform="translate(0.000000, 98.000000)">
                    <mask id="mask-2" fill="white">
                        <use xlink:href="#path-1"></use>
                    </mask>
                    <g id="Clip-15"></g>
                    <path d="M27.497954,52.2577461 C27.497954,52.8469939 27.0220508,53.3255911 26.4390693,53.3255911 C25.8560878,53.3255911 25.3801846,52.8469939 25.3801846,52.2577461 C25.3801846,51.6698315 25.8560878,51.1899012 26.4390693,51.1899012 C27.0220508,51.1899012 27.497954,51.6698315 27.497954,52.2577461 L27.497954,52.2577461 Z" id="Fill-14" fill="#000000" mask="url(#mask-2)"></path>
                    <path d="M27.497954,27.7306405 C27.497954,28.3185551 27.0220508,28.7984855 26.4390693,28.7984855 C25.8560878,28.7984855 25.3801846,28.3185551 25.3801846,27.7306405 C25.3801846,27.1413927 25.8560878,26.6627955 26.4390693,26.6627955 C27.0220508,26.6627955 27.497954,27.1413927 27.497954,27.7306405 L27.497954,27.7306405 Z" id="Fill-1" fill="#000000" mask="url(#mask-2)"></path>
                    <path d="M30.6679984,25.5949506 C30.6679984,26.1841984 30.198705,26.6627955 29.6091137,26.6627955 C29.0261322,26.6627955 28.5568388,26.1841984 28.5568388,25.5949506 C28.5568388,25.0070359 29.0261322,24.5271056 29.6091137,24.5271056 C30.198705,24.5271056 30.6679984,25.0070359 30.6679984,25.5949506 L30.6679984,25.5949506 Z" id="Fill-2" fill="#000000" mask="url(#mask-2)"></path>
                    <path d="M24.3212998,25.5949506 C24.3212998,26.1841984 23.8520064,26.6627955 23.2690249,26.6627955 C22.6794336,26.6627955 22.2101402,26.1841984 22.2101402,25.5949506 C22.2101402,25.0070359 22.6794336,24.5271056 23.2690249,24.5271056 C23.8520064,24.5271056 24.3212998,25.0070359 24.3212998,25.5949506 L24.3212998,25.5949506 Z" id="Fill-3" fill="#000000" mask="url(#mask-2)"></path>
                    <path d="M21.1512554,23.4659264 C21.1512554,24.053841 20.6766741,24.5271056 20.0923707,24.5271056 C19.5093892,24.5271056 19.033486,24.053841 19.033486,23.4659264 C19.033486,22.871346 19.5093892,22.3980814 20.0923707,22.3980814 C20.6766741,22.3980814 21.1512554,22.871346 21.1512554,23.4659264 L21.1512554,23.4659264 Z" id="Fill-4" fill="#000000" mask="url(#mask-2)"></path>
                    <path d="M33.8446526,23.4659264 C33.8446526,24.053841 33.3687494,24.5271056 32.7857679,24.5271056 C32.2014645,24.5271056 31.7268832,24.053841 31.7268832,23.4659264 C31.7268832,22.871346 32.2014645,22.3980814 32.7857679,22.3980814 C33.3687494,22.3980814 33.8446526,22.871346 33.8446526,23.4659264 L33.8446526,23.4659264 Z" id="Fill-5" fill="#000000" mask="url(#mask-2)"></path>
                    <path d="M37.014697,21.3302364 C37.014697,21.9181511 36.5401157,22.3980814 35.9558123,22.3980814 C35.3728308,22.3980814 34.8969276,21.9181511 34.8969276,21.3302364 C34.8969276,20.7423218 35.3728308,20.2623915 35.9558123,20.2623915 C36.5401157,20.2623915 37.014697,20.7423218 37.014697,21.3302364 L37.014697,21.3302364 Z" id="Fill-6" fill="#000000" mask="url(#mask-2)"></path>
                    <path d="M17.981211,21.3302364 C17.981211,21.9181511 17.5053078,22.3980814 16.9223263,22.3980814 C16.3380229,22.3980814 15.8634416,21.9181511 15.8634416,21.3302364 C15.8634416,20.7423218 16.3380229,20.2623915 16.9223263,20.2623915 C17.5053078,20.2623915 17.981211,20.7423218 17.981211,21.3302364 L17.981211,21.3302364 Z" id="Fill-7" fill="#000000" mask="url(#mask-2)"></path>
                    <path d="M27.497954,23.4659264 C27.497954,24.053841 27.0220508,24.5271056 26.4390693,24.5271056 C25.8560878,24.5271056 25.3801846,24.053841 25.3801846,23.4659264 C25.3801846,22.871346 25.8560878,22.3980814 26.4390693,22.3980814 C27.0220508,22.3980814 27.497954,22.871346 27.497954,23.4659264 L27.497954,23.4659264 Z" id="Fill-8" fill="#000000" mask="url(#mask-2)"></path>
                    <path d="M27.497954,36.2600688 C27.497954,36.8493166 27.0220508,37.3279138 26.4390693,37.3279138 C25.8560878,37.3279138 25.3801846,36.8493166 25.3801846,36.2600688 C25.3801846,35.6721542 25.8560878,35.1922238 26.4390693,35.1922238 C27.0220508,35.1922238 27.497954,35.6721542 27.497954,36.2600688 L27.497954,36.2600688 Z" id="Fill-9" fill="#000000" mask="url(#mask-2)"></path>
                    <path d="M27.497954,39.4636037 C27.497954,40.0515183 27.0220508,40.5247829 26.4390693,40.5247829 C25.8560878,40.5247829 25.3801846,40.0515183 25.3801846,39.4636037 C25.3801846,38.8690233 25.8560878,38.3957587 26.4390693,38.3957587 C27.0220508,38.3957587 27.497954,38.8690233 27.497954,39.4636037 L27.497954,39.4636037 Z" id="Fill-10" fill="#000000" mask="url(#mask-2)"></path>
                    <path d="M27.497954,42.6604729 C27.497954,43.2483875 27.0220508,43.7283178 26.4390693,43.7283178 C25.8560878,43.7283178 25.3801846,43.2483875 25.3801846,42.6604729 C25.3801846,42.0725582 25.8560878,41.5926279 26.4390693,41.5926279 C27.0220508,41.5926279 27.497954,42.0725582 27.497954,42.6604729 L27.497954,42.6604729 Z" id="Fill-11" fill="#000000" mask="url(#mask-2)"></path>
                    <path d="M27.497954,45.8573421 C27.497954,46.4519224 27.0220508,46.925187 26.4390693,46.925187 C25.8560878,46.925187 25.3801846,46.4519224 25.3801846,45.8573421 C25.3801846,45.2694274 25.8560878,44.7961628 26.4390693,44.7961628 C27.0220508,44.7961628 27.497954,45.2694274 27.497954,45.8573421 L27.497954,45.8573421 Z" id="Fill-12" fill="#000000" mask="url(#mask-2)"></path>
                    <path d="M27.497954,49.0608769 C27.497954,49.6487916 27.0220508,50.1287219 26.4390693,50.1287219 C25.8560878,50.1287219 25.3801846,49.6487916 25.3801846,49.0608769 C25.3801846,48.4716292 25.8560878,47.993032 26.4390693,47.993032 C27.0220508,47.993032 27.497954,48.4716292 27.497954,49.0608769 L27.497954,49.0608769 Z" id="Fill-13" fill="#000000" mask="url(#mask-2)"></path>
                    <path d="M51.8192539,61.8550194 L48.6492095,61.8550194 L48.6492095,57.5903052 L43.3613956,57.5903052 L43.3613956,46.6905544 C43.3613956,43.8109725 41.9416176,41.1340278 39.5660672,39.5355932 L28.3440042,31.9953547 L39.5660672,24.4551161 C41.9416176,22.8566815 43.3613956,20.1797368 43.3613956,17.3001549 L43.3613956,6.40040407 L48.6492095,6.40040407 L48.6492095,2.13568992 L51.8192539,2.13568992 C52.4035573,2.13568992 52.8781386,1.6557596 52.8781386,1.06784496 C52.8781386,0.47859718 52.4035573,0 51.8192539,0 L1.05888473,0 C0.474581294,0 0,0.47859718 0,1.06784496 C0,1.6557596 0.474581294,2.13568992 1.05888473,2.13568992 L4.22892913,2.13568992 L4.22892913,6.40040407 L9.51674299,6.40040407 L9.51674299,17.3001549 C9.51674299,20.1797368 10.936521,22.8566815 13.3120714,24.4551161 L24.5341344,31.9953547 L13.3120714,39.5355932 C10.936521,41.1340278 9.51674299,43.8109725 9.51674299,46.6905544 L9.51674299,57.5903052 L4.22892913,57.5903052 L4.22892913,61.8550194 L1.05888473,61.8550194 C0.474581294,61.8550194 0,62.3349497 0,62.9228643 C0,63.5121121 0.474581294,63.9907093 1.05888473,63.9907093 L51.8192539,63.9907093 C52.4035573,63.9907093 52.8781386,63.5121121 52.8781386,62.9228643 C52.8781386,62.3349497 52.4035573,61.8550194 51.8192539,61.8550194 L51.8192539,61.8550194 Z M6.34669859,4.26471415 L46.53144,4.26471415 L46.53144,2.13568992 L6.34669859,2.13568992 L6.34669859,4.26471415 Z M14.4846441,22.6793739 C12.697363,21.4755487 11.6345124,19.466507 11.6345124,17.3001549 L11.6345124,6.40040407 L41.2436262,6.40040407 L41.2436262,17.3001549 C41.2436262,19.466507 40.1807756,21.4755487 38.3934945,22.6793739 L26.4390693,30.7142073 L14.4846441,22.6793739 Z M11.6345124,46.6905544 C11.6345124,44.5242023 12.697363,42.5151606 14.4846441,41.3113354 L26.4390693,33.276502 L38.3934945,41.3113354 C40.1807756,42.5151606 41.2436262,44.5242023 41.2436262,46.6905544 L41.2436262,57.5903052 L11.6345124,57.5903052 L11.6345124,46.6905544 Z M6.34669859,61.8550194 L46.53144,61.8550194 L46.53144,59.7259952 L6.34669859,59.7259952 L6.34669859,61.8550194 Z" id="Fill-16" fill="#000000" mask="url(#mask-2)"></path>
                </g>
            </g>
        </g>
    </g>
</svg>