<?xml version="1.0" encoding="UTF-8" standalone="no"?>
<svg width="16px" height="24px" viewBox="0 0 16 24" version="1.1" xmlns="http://www.w3.org/2000/svg" xmlns:xlink="http://www.w3.org/1999/xlink">
    <!-- Generator: Sketch 39.1 (31720) - http://www.bohemiancoding.com/sketch -->
    <title>Stroke 514 + Stroke 515</title>
    <desc>Created with Sketch.</desc>
    <defs></defs>
    <g id="Page-1" stroke="none" stroke-width="1" fill="none" fill-rule="evenodd" stroke-linecap="round" stroke-linejoin="round">
        <g id="01-Leaplines-home-v3-@2x" transform="translate(-406.000000, -6937.000000)" stroke="#000000">
            <g id="Group-23" transform="translate(0.000000, 6239.000000)">
                <g id="Stroke-514-+-Stroke-515" transform="translate(406.000000, 698.000000)">
                    <path d="M15.5,8 C15.5,12.144 8,23.5 8,23.5 C8,23.5 0.5,12.144 0.5,8 C0.5,3.858 3.857,0.5 8,0.5 C12.142,0.5 15.5,3.858 15.5,8 L15.5,8 Z" id="Stroke-514"></path>
                    <path d="M11,8 C11,9.657 9.656,11 8,11 C6.343,11 5,9.657 5,8 C5,6.344 6.343,5 8,5 C9.656,5 11,6.344 11,8 L11,8 Z" id="Stroke-515"></path>
                </g>
            </g>
        </g>
    </g>
</svg>