<?xml version="1.0" encoding="UTF-8" standalone="no"?>
<svg width="208px" height="69px" viewBox="0 0 208 69" version="1.1" xmlns="http://www.w3.org/2000/svg" xmlns:xlink="http://www.w3.org/1999/xlink">
    <!-- Generator: Sketch 39.1 (31720) - http://www.bohemiancoding.com/sketch -->
    <title>Group 5</title>
    <desc>Created with Sketch.</desc>
    <defs>
        <filter x="-50%" y="-50%" width="200%" height="200%" filterUnits="objectBoundingBox" id="filter-1">
            <feOffset dx="0" dy="2" in="SourceAlpha" result="shadowOffsetOuter1"></feOffset>
            <feGaussianBlur stdDeviation="6" in="shadowOffsetOuter1" result="shadowBlurOuter1"></feGaussianBlur>
            <feColorMatrix values="0 0 0 0 0   0 0 0 0 0   0 0 0 0 0  0 0 0 0.0944859601 0" type="matrix" in="shadowBlurOuter1" result="shadowMatrixOuter1"></feColorMatrix>
            <feMerge>
                <feMergeNode in="shadowMatrixOuter1"></feMergeNode>
                <feMergeNode in="SourceGraphic"></feMergeNode>
            </feMerge>
        </filter>
    </defs>
    <g id="Page-1" stroke="none" stroke-width="1" fill="none" fill-rule="evenodd">
        <g id="00-menu" transform="translate(-1094.000000, -594.000000)">
            <g id="Group-5" transform="translate(1106.000000, 604.000000)">
                <g id="logo" filter="url(#filter-1)">
                    <g id="Page-1">
                        <g id="Artboard-5-Copy-2">
                            <g id="Group-2">
                                <rect id="Rectangle-21" fill="#FFFFFF" x="0" y="0" width="44.984252" height="44.984252" rx="2"></rect>
                                <g id="Group-3" transform="translate(14.619882, 11.620932)">
                                    <polygon id="Combined-Shape" fill="#2076DA" points="5.6230315 16.119357 5.6230315 0 0 0 0 18.9308727 0 21.7423885 16.119357 21.7423885 16.119357 16.119357"></polygon>
                                    <g id="Group">
                                        <polygon id="Fill-3" fill="#F8991C" points="0 0 0 21.7423885 5.6230315 10.8711942"></polygon>
                                        <polygon id="Fill-4" fill="#713079" points="0 21.3675197 0 21.7423885 5.47252011 21.7423885 9.49652557 21.7423885 5.6230315 16.119357 5.24816273 16.119357"></polygon>
                                        <polygon id="Fill-5" fill="#D0011B" points="0 15.7444882 5.23131586e-11 21.3675197 5.6230315 11.246063 5.6230315 10.8711942"></polygon>
                                        <polygon id="Fill-6" fill="#FF7200" points="0 12.3706693 0 15.7444882 5.6230315 10.8711942"></polygon>
                                        <polygon id="Fill-8" fill="#BB014E" points="8.99685039 21.7423885 12.7455381 21.7423885 5.99790026 16.119357 5.6230315 16.119357"></polygon>
                                        <polygon id="Fill-9" fill="#F04E3E" points="11.9958005 21.7423885 16.119357 21.7423885 16.119357 21.3675197 5.99790026 16.119357 5.6230315 16.119357"></polygon>
                                        <polygon id="Fill-10" fill="#FF7200" points="16.119357 21.7423885 16.119357 18.7434383 5.24816273 16.119357"></polygon>
                                        <polygon id="Fill-7" fill="#E02374" points="0 20.9926509 0 21.3675197 5.6230315 16.119357 5.6230315 10.8711942"></polygon>
                                        <polygon id="Fill-11" fill="#6A9BD4" points="0 0 0 0.374868766 5.6230315 10.8711942 5.6230315 10.1214567 2.99895013 0"></polygon>
                                        <polygon id="Fill-12" fill="#F6C806" points="0 3.74868766 5.6230315 10.8711942 0 0"></polygon>
                                    </g>
                                </g>
                            </g>
                        </g>
                    </g>
                </g>
                <path d="M82.6857087,27.9212598 L82.6857087,25.4005906 L76.9990787,25.4005906 L76.9990787,14.4709685 L74.1154331,14.4709685 L74.1154331,27.9212598 L82.6857087,27.9212598 Z M96.6215197,27.9212598 L96.6215197,25.4005906 L89.9669528,25.4005906 L89.9669528,22.3354567 L96.4803622,22.3354567 L96.4803622,19.8147874 L89.9669528,19.8147874 L89.9669528,16.9916378 L96.6215197,16.9916378 L96.6215197,14.4709685 L87.1034725,14.4709685 L87.1034725,27.9212598 L96.6215197,27.9212598 Z M113.884614,27.9212598 L108.702118,14.4709685 L105.112685,14.4709685 L99.9301891,27.9212598 L103.176811,27.9212598 L104.023756,25.6425748 L109.791047,25.6425748 L110.637992,27.9212598 L113.884614,27.9212598 Z M109.004598,23.1219055 L104.810205,23.1219055 L106.907402,17.3344488 L109.004598,23.1219055 Z M120.480236,27.9212598 L120.480236,23.1219055 L123.908347,23.1219055 C126.812158,23.1219055 128.425386,21.1457008 128.425386,18.8065197 C128.425386,16.4471732 126.832323,14.4709685 123.908347,14.4709685 L117.616756,14.4709685 L117.616756,27.9212598 L120.480236,27.9212598 Z M123.505039,20.6012362 L120.480236,20.6012362 L120.480236,16.9916378 L123.505039,16.9916378 C124.634299,16.9916378 125.50141,17.6772598 125.50141,18.8065197 C125.50141,19.9156142 124.634299,20.6012362 123.505039,20.6012362 L123.505039,20.6012362 Z M141.151276,27.9212598 L141.151276,25.4005906 L135.464646,25.4005906 L135.464646,14.4709685 L132.581,14.4709685 L132.581,27.9212598 L141.151276,27.9212598 Z M148.43252,27.9212598 L148.43252,14.4709685 L145.56904,14.4709685 L145.56904,27.9212598 L148.43252,27.9212598 Z M165.614953,27.9212598 L165.614953,14.4709685 L162.751473,14.4709685 L162.751473,22.920252 L156.520378,14.4709685 L153.576236,14.4709685 L153.576236,27.9212598 L156.439717,27.9212598 L156.439717,19.1493307 L162.852299,27.9212598 L165.614953,27.9212598 Z M180.276717,27.9212598 L180.276717,25.4005906 L173.62215,25.4005906 L173.62215,22.3354567 L180.135559,22.3354567 L180.135559,19.8147874 L173.62215,19.8147874 L173.62215,16.9916378 L180.276717,16.9916378 L180.276717,14.4709685 L170.75867,14.4709685 L170.75867,27.9212598 L180.276717,27.9212598 Z M189.796315,28.1632441 C193.405914,28.1632441 195.180465,26.3080315 195.180465,23.8478583 C195.180465,18.826685 187.457134,20.2584252 187.457134,18.141063 C187.457134,17.3344488 188.142756,16.8101496 189.352677,16.8101496 C190.723922,16.8101496 192.175827,17.2739528 193.264756,18.2822205 L194.857819,16.1446929 C193.526906,14.9146063 191.752355,14.269315 189.614827,14.269315 C186.448866,14.269315 184.512992,16.1245276 184.512992,18.3628819 C184.512992,23.4243858 192.256488,21.7909921 192.256488,24.1301732 C192.256488,24.916622 191.51037,25.6224094 189.917307,25.6224094 C188.062095,25.6224094 186.590024,24.7754646 185.642252,23.7873622 L184.069355,26.0257165 C185.339772,27.2961339 187.194985,28.1632441 189.796315,28.1632441 L189.796315,28.1632441 Z" id="LEAPLINES" fill="#FFFFFF"></path>
            </g>
        </g>
    </g>
</svg>