<?xml version="1.0" encoding="UTF-8" standalone="no"?>
<svg width="104px" height="104px" viewBox="0 0 104 104" version="1.1" xmlns="http://www.w3.org/2000/svg" xmlns:xlink="http://www.w3.org/1999/xlink">
    <!-- Generator: Sketch 3.8.3 (29802) - http://www.bohemiancoding.com/sketch -->
    <title>logo copy</title>
    <desc>Created with Sketch.</desc>
    <defs>
        <filter x="-50%" y="-50%" width="200%" height="200%" filterUnits="objectBoundingBox" id="filter-1">
            <feOffset dx="0" dy="2" in="SourceAlpha" result="shadowOffsetOuter1"></feOffset>
            <feGaussianBlur stdDeviation="6" in="shadowOffsetOuter1" result="shadowBlurOuter1"></feGaussianBlur>
            <feColorMatrix values="0 0 0 0 0   0 0 0 0 0   0 0 0 0 0  0 0 0 0.0944859601 0" type="matrix" in="shadowBlurOuter1" result="shadowMatrixOuter1"></feColorMatrix>
            <feMerge>
                <feMergeNode in="shadowMatrixOuter1"></feMergeNode>
                <feMergeNode in="SourceGraphic"></feMergeNode>
            </feMerge>
        </filter>
    </defs>
    <g id="Page-1" stroke="none" stroke-width="1" fill="none" fill-rule="evenodd">
        <g id="01-Leaplines-home-v2-@2x" transform="translate(-668.000000, -271.000000)">
            <g id="logo-copy" filter="url(#filter-1)" transform="translate(680.000000, 281.000000)">
                <g id="Page-1">
                    <g id="Artboard-5-Copy-2">
                        <g id="Group-2">
                            <rect id="Rectangle-21" fill="#FFFFFF" x="0" y="0" width="80" height="80" rx="5"></rect>
                            <g id="Group-3" transform="translate(26.000000, 20.666667)">
                                <polygon id="Combined-Shape" fill="#2076DA" points="10 28.6666667 10 0 0 0 0 33.6666667 0 38.6666667 28.6666667 38.6666667 28.6666667 28.6666667"></polygon>
                                <g id="Group">
                                    <polygon id="Fill-3" fill="#F8991C" points="0 0 0 38.6666667 10 19.3333333"></polygon>
                                    <polygon id="Fill-4" fill="#713079" points="0 38 0 38.6666667 9.73233053 38.6666667 16.8886224 38.6666667 10 28.6666667 9.33333333 28.6666667"></polygon>
                                    <polygon id="Fill-5" fill="#D0011B" points="0 28 9.30337287e-11 38 10 20 10 19.3333333"></polygon>
                                    <polygon id="Fill-6" fill="#FF7200" points="0 22 0 28 10 19.3333333"></polygon>
                                    <polygon id="Fill-8" fill="#BB014E" points="16 38.6666667 22.6666667 38.6666667 10.6666667 28.6666667 10 28.6666667"></polygon>
                                    <polygon id="Fill-9" fill="#F04E3E" points="21.3333333 38.6666667 28.6666667 38.6666667 28.6666667 38 10.6666667 28.6666667 10 28.6666667"></polygon>
                                    <polygon id="Fill-10" fill="#FF7200" points="28.6666667 38.6666667 28.6666667 33.3333333 9.33333333 28.6666667"></polygon>
                                    <polygon id="Fill-7" fill="#E02374" points="0 37.3333333 0 38 10 28.6666667 10 19.3333333"></polygon>
                                    <polygon id="Fill-11" fill="#6A9BD4" points="0 0 0 0.666666667 10 19.3333333 10 18 5.33333333 0"></polygon>
                                    <polygon id="Fill-12" fill="#F6C806" points="0 6.66666667 10 19.3333333 0 0"></polygon>
                                </g>
                            </g>
                        </g>
                    </g>
                </g>
            </g>
        </g>
    </g>
</svg>