<?xml version="1.0" encoding="UTF-8" standalone="no"?>
<svg width="60px" height="60px" viewBox="0 0 60 60" version="1.1" xmlns="http://www.w3.org/2000/svg" xmlns:xlink="http://www.w3.org/1999/xlink">
    <!-- Generator: Sketch 3.7.2 (28276) - http://www.bohemiancoding.com/sketch -->
    <title>Group 2</title>
    <desc>Created with Sketch.</desc>
    <defs>
        <radialGradient cx="47.8452689%" cy="0%" fx="47.8452689%" fy="0%" r="118.613519%" id="radialGradient-1">
            <stop stop-color="#6A9BD4" offset="0%"></stop>
            <stop stop-color="#713079" offset="26.3532366%"></stop>
            <stop stop-color="#FF7200" offset="45.3146057%"></stop>
            <stop stop-color="#FC0670" offset="76.7897003%"></stop>
            <stop stop-color="#6A9BD4" offset="100%"></stop>
        </radialGradient>
    </defs>
    <g id="Page-1" stroke="none" stroke-width="1" fill="none" fill-rule="evenodd">
        <g id="Artboard-5-Copy" transform="translate(-145.000000, -95.000000)">
            <g id="Group-2" transform="translate(145.000000, 95.000000)">
                <path d="M0,0 L60,0 L60,60 L0,60 L0,0 L0,0 Z M2.72727273,2.72727273 L57.2727273,2.72727273 L57.2727273,57.2727273 L2.72727273,57.2727273 L2.72727273,2.72727273 L2.72727273,2.72727273 Z M57.2727273,0 L60,0 L60,2.72727273 L57.2727273,2.72727273 L57.2727273,0 L57.2727273,0 Z M57.2727273,57.2727273 L60,57.2727273 L60,60 L57.2727273,60 L57.2727273,57.2727273 L57.2727273,57.2727273 Z M0,0 L2.72727273,0 L2.72727273,2.72727273 L0,2.72727273 L0,0 L0,0 Z M0,57.2727273 L2.72727273,57.2727273 L2.72727273,60 L0,60 L0,57.2727273 L0,57.2727273 Z M60,2.72727273 C60,1.22104159 58.7789584,0 57.2727273,0 L57.2727273,2.72727273 L60,2.72727273 L60,2.72727273 Z M0,57.2727273 C0,58.7789584 1.22104159,60 2.72727273,60 L2.72727273,57.2727273 L0,57.2727273 L0,57.2727273 Z M0,2.72727273 C0,1.22104159 1.22104159,0 2.72727273,0 L2.72727273,2.72727273 L0,2.72727273 L0,2.72727273 Z M60,57.2727273 C60,58.7789584 58.7789584,60 57.2727273,60 L57.2727273,57.2727273 L60,57.2727273 L60,57.2727273 Z" id="Combined-Shape" fill="url(#radialGradient-1)"></path>
                <path d="M29.4545455,36.5454545 L29.4545455,13.0909091 L21.2727273,13.0909091 L21.2727273,40.6363636 L21.2727273,44.7272727 L44.7272727,44.7272727 L44.7272727,36.5454545 L29.4545455,36.5454545 Z" id="Combined-Shape" fill="#2076DA"></path>
                <g id="Group" transform="translate(21.272727, 13.090909)">
                    <polygon id="Fill-3" fill="#F8991C" points="0 0 0 31.6363636 8.18181818 15.8181818"></polygon>
                    <polygon id="Fill-4" fill="#713079" points="0 31.0909091 0 31.6363636 7.96281592 31.6363636 13.8179638 31.6363636 8.18181818 23.4545455 7.63636364 23.4545455"></polygon>
                    <polygon id="Fill-5" fill="#D0011B" points="0 22.9090909 7.61185054e-11 31.0909091 8.18181818 16.3636364 8.18181818 15.8181818"></polygon>
                    <polygon id="Fill-6" fill="#FF7200" points="0 18 0 22.9090909 8.18181818 15.8181818"></polygon>
                    <polygon id="Fill-8" fill="#BB014E" points="13.0909091 31.6363636 18.5454545 31.6363636 8.72727273 23.4545455 8.18181818 23.4545455"></polygon>
                    <polygon id="Fill-9" fill="#F04E3E" points="17.4545455 31.6363636 23.4545455 31.6363636 23.4545455 31.0909091 8.72727273 23.4545455 8.18181818 23.4545455"></polygon>
                    <polygon id="Fill-10" fill="#FF7200" points="23.4545455 31.6363636 23.4545455 27.2727273 7.63636364 23.4545455"></polygon>
                    <polygon id="Fill-7" fill="#E02374" points="0 30.5454545 0 31.0909091 8.18181818 23.4545455 8.18181818 15.8181818"></polygon>
                    <polygon id="Fill-11" fill="#6A9BD4" points="0 0 0 0.545454545 8.18181818 15.8181818 8.18181818 14.7272727 4.36363636 0"></polygon>
                    <polygon id="Fill-12" fill="#F6C806" points="0 5.45454545 8.18181818 15.8181818 0 0"></polygon>
                </g>
            </g>
        </g>
    </g>
</svg>