<?xml version="1.0" encoding="UTF-8" standalone="no"?>
<svg width="18px" height="24px" viewBox="0 0 18 24" version="1.1" xmlns="http://www.w3.org/2000/svg" xmlns:xlink="http://www.w3.org/1999/xlink">
    <!-- Generator: Sketch 39.1 (31720) - http://www.bohemiancoding.com/sketch -->
    <title>Group</title>
    <desc>Created with Sketch.</desc>
    <defs></defs>
    <g id="Page-1" stroke="none" stroke-width="1" fill="none" fill-rule="evenodd">
        <g id="01-Leaplines-home-v3-@2x" transform="translate(-739.000000, -6987.000000)">
            <g id="Group-23" transform="translate(0.000000, 6239.000000)">
                <g id="Group" transform="translate(739.000000, 748.000000)">
                    <path d="M17.5,21.5 C17.5,22.605 16.605,23.5 15.5,23.5 L2.5,23.5 C1.397,23.5 0.5,22.605 0.5,21.5 L0.5,2.5 C0.5,1.396 1.397,0.5 2.5,0.5 L15.5,0.5 C16.605,0.5 17.5,1.396 17.5,2.5 L17.5,21.5 L17.5,21.5 Z" id="Stroke-371" stroke="#000000" stroke-linecap="round" stroke-linejoin="round"></path>
                    <polygon id="Stroke-372" stroke="#000000" stroke-linecap="round" stroke-linejoin="round" points="15.5 19.5 2.5 19.5 2.5 3.5 15.5 3.5"></polygon>
                    <path d="M9,1.5 C8.724,1.5 8.5,1.724 8.5,2 C8.5,2.276 8.724,2.5 9,2.5 C9.276,2.5 9.5,2.276 9.5,2 C9.5,1.724 9.276,1.5 9,1.5" id="Fill-373" fill="#000000"></path>
                    <path d="M9.5,21.5 C9.5,21.776 9.276,22 9,22 C8.724,22 8.5,21.776 8.5,21.5 C8.5,21.224 8.724,21 9,21 C9.276,21 9.5,21.224 9.5,21.5 L9.5,21.5 Z" id="Stroke-374" stroke="#000000" stroke-linejoin="round"></path>
                </g>
            </g>
        </g>
    </g>
</svg>