<?xml version="1.0" encoding="UTF-8" standalone="no"?>
<svg width="23px" height="24px" viewBox="0 0 23 24" version="1.1" xmlns="http://www.w3.org/2000/svg" xmlns:xlink="http://www.w3.org/1999/xlink">
    <!-- Generator: Sketch 39.1 (31720) - http://www.bohemiancoding.com/sketch -->
    <title>phone-call</title>
    <desc>Created with Sketch.</desc>
    <defs>
        <polygon id="path-1" points="0 0.118619037 0 23.1212507 22.9692631 23.1212507 22.9692631 0.118619037 6.57959102e-21 0.118619037"></polygon>
        <radialGradient cx="47.8452689%" cy="0%" fx="47.8452689%" fy="0%" r="118.613519%" id="radialGradient-3">
            <stop stop-color="#6A9BD4" offset="0%"></stop>
            <stop stop-color="#713079" offset="26.3532366%"></stop>
            <stop stop-color="#FF7200" offset="45.3146057%"></stop>
            <stop stop-color="#FC0670" offset="76.7897003%"></stop>
            <stop stop-color="#6A9BD4" offset="100%"></stop>
        </radialGradient>
    </defs>
    <g id="Page-1" stroke="none" stroke-width="1" fill="none" fill-rule="evenodd">
        <g id="m-01-Home--@2x" transform="translate(-237.000000, -13.000000)">
            <g id="nav" transform="translate(-9.000000, 0.000000)">
                <g id="phone-call" transform="translate(246.000000, 13.000000)">
                    <mask id="mask-2" fill="white">
                        <use xlink:href="#path-1"></use>
                    </mask>
                    <g id="Clip-2"></g>
                    <path d="M18.162657,14.3680211 C17.6916121,13.8777995 17.1236517,13.6156359 16.5217678,13.6156359 C15.9246174,13.6156359 15.3516807,13.8728232 14.8614591,14.3632876 L13.3271953,15.8925145 C13.200847,15.8244855 13.0747414,15.7614327 12.9533694,15.6983799 C12.7786544,15.6109314 12.613467,15.5283984 12.4726148,15.4409499 C11.0356306,14.5282929 9.72966755,13.3387256 8.47710818,11.7997889 C7.87024802,11.032657 7.46249868,10.3868971 7.16641161,9.73173087 C7.5643905,9.36761478 7.93348285,8.98875198 8.29262269,8.62463588 C8.42874142,8.48882058 8.56455673,8.34802902 8.70061478,8.21197098 C9.71995778,7.19262797 9.71995778,5.87197889 8.70061478,4.85239314 L7.37498945,3.52701055 C7.22473087,3.37650923 7.06919261,3.22121372 6.92366755,3.06597889 C6.63231398,2.76491557 6.32651715,2.45414248 6.01101055,2.16278892 C5.5399657,1.69672032 4.97673879,1.44924274 4.38456464,1.44924274 C3.79214776,1.44924274 3.21945383,1.69672032 2.7339657,2.16278892 L2.72425594,2.17249868 L1.07341425,3.83784433 C0.452050132,4.45914776 0.0976437995,5.21650923 0.0199050132,6.09530343 C-0.0964907652,7.51286807 0.320968338,8.83351715 0.641451187,9.69756464 C1.42775989,11.8192084 2.60288391,13.785314 4.35543536,15.8925145 C6.48181266,18.4316174 9.04033509,20.4366227 11.9629736,21.8494538 C13.0794749,22.3785752 14.5701055,23.0048549 16.2351478,23.1115409 C16.337343,23.1165172 16.444029,23.1212507 16.5411873,23.1212507 C17.6627256,23.1212507 18.6045119,22.7185383 19.3424538,21.9172401 C19.347248,21.9075303 19.3569578,21.9027968 19.361934,21.8930871 C19.6143879,21.5872902 19.9054987,21.3103799 20.2115383,21.0143536 C20.4201161,20.8151821 20.6337309,20.6066042 20.8425515,20.3880132 C21.3233061,19.8880818 21.5755172,19.3053747 21.5755172,18.708285 C21.5755172,18.1064011 21.3183298,17.5284274 20.8281082,17.0429393 L18.162657,14.3680211 Z M19.9007652,19.4800897 C19.8957889,19.4800897 19.8957889,19.485066 19.9007652,19.4800897 C19.7113641,19.6842375 19.5171689,19.8686623 19.3083483,20.0725066 C18.9928417,20.3735699 18.6723588,20.6890765 18.3714776,21.0434828 C17.8810132,21.5678707 17.303343,21.8153483 16.5459208,21.8153483 C16.4731583,21.8153483 16.3954195,21.8153483 16.322657,21.8106148 C14.8808786,21.718372 13.54081,21.1551451 12.5359103,20.6746332 C9.78798681,19.3442744 7.37498945,17.4556649 5.36998417,15.0623298 C3.71465172,13.0668522 2.60761741,11.222058 1.87465172,9.24126649 C1.42302639,8.03252243 1.25802111,7.09043272 1.33084433,6.2021715 C1.37939314,5.63396834 1.59774142,5.16316623 2.00075726,4.76021108 L3.65633245,3.1045752 C3.89410026,2.88131135 4.14655409,2.75993931 4.39427441,2.75993931 C4.70007124,2.75993931 4.94754881,2.94460686 5.10308707,3.09984169 L5.11753034,3.11434565 C5.41386016,3.39119525 5.69526121,3.67757256 5.99153034,3.98336939 C6.14209235,4.13884697 6.29738786,4.29414248 6.45262269,4.45441425 L7.77800528,5.77979683 C8.29262269,6.29441425 8.29262269,6.77019261 7.77800528,7.28481003 C7.63721372,7.42566227 7.50133773,7.56645383 7.36054617,7.70226913 C6.95279683,8.11972823 6.56428496,8.50824011 6.14209235,8.88686016 C6.13238259,8.89656992 6.12267282,8.90154617 6.11769657,8.91101319 C5.70023747,9.32871504 5.77797625,9.73646438 5.86518206,10.0130712 L5.87992876,10.0569472 C6.22456464,10.8918654 6.71005277,11.6784169 7.44799472,12.6154697 L7.45278892,12.6202032 C8.79285752,14.2708021 10.2054459,15.5575884 11.7638628,16.5430079 C11.9629736,16.6693562 12.1668179,16.7713087 12.3610132,16.8682243 C12.5359103,16.9557335 12.7009156,17.0382058 12.8417071,17.1256544 C12.8611873,17.1354248 12.8806069,17.1498681 12.9000264,17.1595778 C13.0650317,17.2420501 13.2203272,17.2809499 13.3805383,17.2809499 C13.7835541,17.2809499 14.0360079,17.028496 14.1184802,16.9460237 L15.7788496,15.2856544 C15.9440369,15.1204063 16.2062612,14.9215383 16.512058,14.9215383 C16.8131214,14.9215383 17.0605989,15.1106966 17.2111003,15.2759446 L19.8957889,17.9605726 C20.3959631,18.4557704 20.3959631,18.965715 19.9007652,19.4800897 L19.9007652,19.4800897 Z" id="Fill-1" fill="#4A4A4A" mask="url(#mask-2)"></path>
                    <path d="M12.4145383,5.59033509 C13.6863351,5.80394987 14.8419789,6.40607652 15.7644063,7.32844327 C16.6867731,8.25081003 17.2839235,9.40621108 17.5024538,10.6782507 C17.5557968,10.9987942 17.8324644,11.222058 18.1482137,11.222058 C18.1868707,11.222058 18.2209763,11.2170818 18.259876,11.2123483 C18.6190158,11.154029 18.8569657,10.8143087 18.7987071,10.4549868 C18.5364828,8.91598945 17.8082507,7.51286807 16.6964828,6.40110026 C15.584715,5.28927177 14.1815937,4.56103958 12.6425963,4.29887599 C12.2834565,4.24079947 11.9485303,4.47856728 11.8852348,4.83297361 C11.8221821,5.18737995 12.0551557,5.53201583 12.4145383,5.59033509 L12.4145383,5.59033509 Z" id="Fill-3" fill="url(#radialGradient-3)" mask="url(#mask-2)"></path>
                    <path d="M22.959219,10.2655251 C22.5273166,7.7314591 21.3327731,5.4253905 19.4977493,3.59006332 C17.6627256,1.75503958 15.356657,0.560799472 12.8222876,0.128593668 C12.4678813,0.0655408971 12.1329551,0.30828496 12.0699024,0.662691293 C12.0115831,1.02183113 12.2493509,1.35706069 12.6087335,1.42011346 C14.8711689,1.80364908 16.9344934,2.87657784 18.5753826,4.51273351 C20.2162718,6.15362269 21.2844063,8.21694723 21.6680026,10.4793826 C21.7213456,10.7996227 21.9979525,11.0229472 22.3135198,11.0229472 C22.3523588,11.0229472 22.3865251,11.0182137 22.4251214,11.0132375 C22.7797704,10.9598945 23.0225145,10.6199314 22.959219,10.2655251 L22.959219,10.2655251 Z" id="Fill-4" fill="url(#radialGradient-3)" mask="url(#mask-2)"></path>
                </g>
            </g>
        </g>
    </g>
</svg>