<?xml version="1.0" encoding="UTF-8" standalone="no"?>
<svg width="40px" height="40px" viewBox="0 0 40 40" version="1.1" xmlns="http://www.w3.org/2000/svg" xmlns:xlink="http://www.w3.org/1999/xlink">
    <!-- Generator: Sketch 39.1 (31720) - http://www.bohemiancoding.com/sketch -->
    <title>Group 4</title>
    <desc>Created with Sketch.</desc>
    <defs>
        <radialGradient cx="47.8452689%" cy="0%" fx="47.8452689%" fy="0%" r="118.613519%" id="radialGradient-1">
            <stop stop-color="#6A9BD4" offset="0%"></stop>
            <stop stop-color="#713079" offset="26.3532366%"></stop>
            <stop stop-color="#FF7200" offset="45.3146057%"></stop>
            <stop stop-color="#FC0670" offset="76.7897003%"></stop>
            <stop stop-color="#6A9BD4" offset="100%"></stop>
        </radialGradient>
    </defs>
    <g id="Page-1" stroke="none" stroke-width="1" fill="none" fill-rule="evenodd">
        <g id="06-Leaplines-Success-story-@2x" transform="translate(-1236.000000, -792.000000)">
            <g id="Group-4" transform="translate(1237.000000, 793.000000)">
                <g id="Group-10">
                    <circle id="Oval-18" stroke="#979797" cx="19" cy="19" r="19"></circle>
                    <circle id="Oval-18" stroke="url(#radialGradient-1)" stroke-width="1.5" cx="19" cy="19" r="19"></circle>
                </g>
                <g id="Group-17" transform="translate(10.230769, 11.692308)">
                    <g id="Group" transform="translate(0.080338, 0.035951)">
                        <path d="M6.27564552,12.9561392 L1.26056256,12.9561392 C0.623261252,12.9561392 0.103235727,12.4132821 0.103235727,11.7515745 L0.103235727,1.3120141 C0.103235727,0.64950353 0.623261252,0.10744943 1.26056256,0.10744943 L16.691587,0.10744943 C17.3273453,0.10744943 17.8489139,0.64950353 17.8489139,1.3120141 L17.8489139,11.7515745 C17.8489139,12.4132821 17.3273453,12.9561392 16.691587,12.9561392 L15.5342602,12.9561392" id="Stroke-177" stroke="#4A4A4A" stroke-linecap="round" stroke-linejoin="round"></path>
                        <polyline id="Stroke-178" stroke="#4A4A4A" stroke-linecap="round" stroke-linejoin="round" points="6.27564552 11.350053 1.64633818 11.350053 1.64633818 1.71353565 16.3058114 1.71353565 16.3058114 11.350053 15.5342602 11.350053"></polyline>
                        <polygon id="Stroke-179" stroke="#4A4A4A" stroke-linejoin="round" points="13.2196065 17.7743979 8.59029919 17.7743979 8.59029919 9.74396676 13.2196065 9.74396676"></polygon>
                        <path d="M10.1334016,10.9485314 C9.91968195,10.9485314 9.74762603,11.1292161 9.74762603,11.350053 C9.74762603,11.5708898 9.91968195,11.7515745 10.1334016,11.7515745 C10.3455782,11.7515745 10.5191773,11.5708898 10.5191773,11.350053 C10.5191773,11.1292161 10.3455782,10.9485314 10.1334016,10.9485314" id="Fill-180" fill="#4A4A4A"></path>
                        <path d="M11.6765041,10.9485314 C11.4627844,10.9485314 11.2907285,11.1292161 11.2907285,11.350053 C11.2907285,11.5708898 11.4627844,11.7515745 11.6765041,11.7515745 C11.8886807,11.7515745 12.0622797,11.5708898 12.0622797,11.350053 C12.0622797,11.1292161 11.8886807,10.9485314 11.6765041,10.9485314" id="Fill-181" fill="#4A4A4A"></path>
                        <path d="M10.1334016,12.5546176 C9.91968195,12.5546176 9.74762603,12.7353023 9.74762603,12.9561392 C9.74762603,13.1769761 9.91968195,13.3576608 10.1334016,13.3576608 C10.3455782,13.3576608 10.5191773,13.1769761 10.5191773,12.9561392 C10.5191773,12.7353023 10.3455782,12.5546176 10.1334016,12.5546176" id="Fill-182" fill="#4A4A4A"></path>
                        <path d="M11.6765041,12.5546176 C11.4627844,12.5546176 11.2907285,12.7353023 11.2907285,12.9561392 C11.2907285,13.1769761 11.4627844,13.3576608 11.6765041,13.3576608 C11.8886807,13.3576608 12.0622797,13.1769761 12.0622797,12.9561392 C12.0622797,12.7353023 11.8886807,12.5546176 11.6765041,12.5546176" id="Fill-183" fill="#4A4A4A"></path>
                        <path d="M10.1334016,14.1607039 C9.91968195,14.1607039 9.74762603,14.3413886 9.74762603,14.5622254 C9.74762603,14.7830623 9.91968195,14.963747 10.1334016,14.963747 C10.3455782,14.963747 10.5191773,14.7830623 10.5191773,14.5622254 C10.5191773,14.3413886 10.3455782,14.1607039 10.1334016,14.1607039" id="Fill-184" fill="#4A4A4A"></path>
                        <path d="M11.6765041,14.1607039 C11.4627844,14.1607039 11.2907285,14.3413886 11.2907285,14.5622254 C11.2907285,14.7830623 11.4627844,14.963747 11.6765041,14.963747 C11.8886807,14.963747 12.0622797,14.7830623 12.0622797,14.5622254 C12.0622797,14.3413886 11.8886807,14.1607039 11.6765041,14.1607039" id="Fill-185" fill="#4A4A4A"></path>
                        <path d="M13.5225175,5.29743675 C11.9809582,4.31210285 10.0428215,4.27435983 8.46962858,5.18501072" id="Stroke-186" stroke="#4A4A4A" stroke-linecap="round" stroke-linejoin="round"></path>
                        <path d="M12.7177896,6.66469795 C11.6491912,5.98452044 10.3082351,5.95721697 9.21880482,6.58680277" id="Stroke-187" stroke="#4A4A4A" stroke-linecap="round" stroke-linejoin="round"></path>
                        <path d="" id="Stroke-188" stroke="#4A4A4A" stroke-width="1.5" stroke-linecap="round" stroke-linejoin="round"></path>
                    </g>
                </g>
            </g>
        </g>
    </g>
</svg>