<?xml version="1.0" encoding="UTF-8" standalone="no"?>
<svg width="72px" height="56px" viewBox="0 0 72 56" version="1.1" xmlns="http://www.w3.org/2000/svg" xmlns:xlink="http://www.w3.org/1999/xlink">
    <!-- Generator: Sketch 39.1 (31720) - http://www.bohemiancoding.com/sketch -->
    <title>“</title>
    <desc>Created with Sketch.</desc>
    <defs></defs>
    <g id="Page-1" stroke="none" stroke-width="1" fill="none" fill-rule="evenodd" opacity="0.1">
        <g id="01-Leaplines-home-v3-@2x" transform="translate(-684.000000, -5880.000000)" fill="#4A4A4A">
            <path d="M684,5915.6898 C684,5928.16205 692.058988,5935.26163 701.077379,5935.26163 C709.328248,5935.26163 716.235952,5928.35393 716.235952,5920.10306 C716.235952,5911.85219 710.479532,5906.28765 703.188067,5906.28765 C701.653021,5906.28765 700.117976,5906.47953 699.350453,5906.86329 C701.077379,5899.95559 708.176964,5891.8966 714.317146,5888.63463 L703.763709,5880 C691.867107,5888.44275 684,5901.29875 684,5915.6898 L684,5915.6898 Z M723.143656,5915.6898 C723.143656,5928.16205 731.202644,5935.26163 740.221036,5935.26163 C748.471905,5935.26163 755.187728,5928.35393 755.187728,5920.10306 C755.187728,5911.85219 749.623189,5906.28765 742.331723,5906.28765 C740.796678,5906.28765 739.069752,5906.47953 738.49411,5906.86329 C740.029155,5899.95559 747.320621,5891.8966 753.460802,5888.63463 L742.907365,5880 C731.010764,5888.44275 723.143656,5901.29875 723.143656,5915.6898 L723.143656,5915.6898 Z" id="“"></path>
        </g>
    </g>
</svg>