<?xml version="1.0" encoding="UTF-8" standalone="no"?>
<svg width="692px" height="715px" viewBox="0 0 692 715" version="1.1" xmlns="http://www.w3.org/2000/svg" xmlns:xlink="http://www.w3.org/1999/xlink">
    <!-- Generator: Sketch 39.1 (31720) - http://www.bohemiancoding.com/sketch -->
    <title>Page 1</title>
    <desc>Created with Sketch.</desc>
    <defs></defs>
    <g id="Page-1" stroke="none" stroke-width="1" fill="none" fill-rule="evenodd">
        <g id="07-Leaplines-onzeaanpak-@2x" transform="translate(-685.000000, -2918.000000)">
            <g id="Group-4" transform="translate(58.000000, 2816.401631)">
                <g id="Page-1" transform="translate(627.000000, 102.000000)">
                    <polygon id="Fill-1" fill="#BF1F6B" points="87.721692 377.128933 187.785972 330.696404 370.374732 431.006943 567.906732 336.724888 654.977052 377.128933 370.374732 544.42738"></polygon>
                    <polygon id="Fill-2" fill="#E25498" points="0 467.157855 370.37436 713.850966 370.37436 544.428808 87.72132 377.130361"></polygon>
                    <polygon id="Fill-3" fill="#DF2374" points="370.375848 544.42738 370.375848 713.853107 743.997768 466.449714 654.978168 377.128933"></polygon>
                    <polygon id="Fill-4" fill="#DD6306" points="177.39006 258.035868 217.02666 240.314482 370.37622 304.11504 519.3957 237.476919 565.30794 258.035868 370.37622 357.282766"></polygon>
                    <polygon id="Fill-5" fill="#F87F26" points="85.770552 351.610495 370.376592 517.491945 370.376592 357.282052 177.390432 258.035154"></polygon>
                    <polygon id="Fill-6" fill="#FF7200" points="370.37622 517.490874 370.37622 357.280981 565.30794 258.037652 657.57882 351.609424"></polygon>
                    <polygon id="Fill-7" fill="#FEA808" points="176.739804 231.099361 370.376964 327.862053 371.459484 175.097641 272.042484 131.852463"></polygon>
                    <polygon id="Fill-8" fill="#F6C706" points="371.45874 175.095857 471.0915 131.854248 566.60994 229.859043 370.37622 327.863838"></polygon>
                    <polygon id="Fill-9" fill="#F9991C" points="272.043228 131.853534 313.033908 115.549145 371.460228 131.853534 426.906828 115.549145 471.092988 131.853534 371.460228 175.095143"></polygon>
                    <polygon id="Fill-10" fill="#6A9BD4" points="371.457252 0.000713852393 271.936092 103.498603 371.457252 144.969858"></polygon>
                    <polygon id="Fill-11" fill="#1F76DA" points="371.457252 0.000713852393 371.457252 144.969858 471.417372 103.498603"></polygon>
                </g>
            </g>
        </g>
    </g>
</svg>