<?xml version="1.0" encoding="UTF-8" standalone="no"?>
<svg id="PT" class="icon" width="45px" height="45px" viewBox="0 0 45 45" version="1.1" xmlns="http://www.w3.org/2000/svg" xmlns:xlink="http://www.w3.org/1999/xlink">
    <!-- Generator: Sketch 39.1 (31720) - http://www.bohemiancoding.com/sketch -->
    <title>Imported Layers</title>
    <desc>Created with Sketch.</desc>
    <defs></defs>
    <g id="Page-1" stroke="none" stroke-width="1" fill="none" fill-rule="evenodd">
        <g id="1.-Homepage" transform="translate(-82.000000, -1138.000000)">
            <g class="wrapper" id="Imported-Layers" transform="translate(82.000000, 1138.000000)">
                <path d="M22.8559322,44.2894478 C22.658339,44.2894478 22.4666441,44.2097321 22.3265593,44.0650629 C22.1378136,43.8702023 22.0714576,43.5867687 22.1525593,43.3299071 L24.2007458,36.8138874 C24.2361356,36.7002187 24.2980678,36.5968835 24.3821186,36.5127392 L38.3301356,22.5492072 C38.617678,22.261345 39.0851186,22.261345 39.372661,22.5492072 L44.022,27.2037179 C44.3095424,27.4915801 44.3095424,27.9595407 44.022,28.247403 L30.0739831,42.2109349 C29.9825593,42.2995079 29.8719661,42.3659377 29.7495763,42.3998907 L23.0535254,44.2613997 C22.9886441,44.2805905 22.9208136,44.2894478 22.8559322,44.2894478 L22.8559322,44.2894478 Z M25.5529322,37.4279934 L23.9662881,42.4751777 L29.1671186,41.0299617 L42.4574746,27.7248223 L38.8521356,24.1154729 L25.5529322,37.4279934 L25.5529322,37.4279934 Z" id="Fill-1" fill="#1573DD"></path>
                <polyline id="Fill-2" fill="#1573DD" points="39.2605932 31.970421 34.6127288 27.3173866 35.6552542 26.2737015 40.3031186 30.9267359 39.2605932 31.970421"></polyline>
                <path d="M29.5519831,42.4264625 C29.3632373,42.4264625 29.1744915,42.3541279 29.0314576,42.2109349 L24.3821186,37.5564243 C24.0945763,37.2685621 24.0945763,36.8020776 24.3821186,36.5127392 C24.6711356,36.224877 25.1371017,36.224877 25.4246441,36.5127392 L30.0739831,41.1672499 C30.3615254,41.4551121 30.3615254,41.9215965 30.0739831,42.2109349 C29.9294746,42.3541279 29.7407288,42.4264625 29.5519831,42.4264625" id="Fill-3" fill="#1573DD"></path>
                <path d="M18.4012373,39.8607983 L3.68644068,39.8607983 C1.24011864,39.8607983 0,38.6193002 0,36.170257 L0,6.64592674 C0,6.23849098 0.330305085,5.90781848 0.737288136,5.90781848 L8.17505085,5.90781848 C8.5820339,5.90781848 8.91233898,6.23849098 8.91233898,6.64592674 C8.91233898,7.05336249 8.5820339,7.38403499 8.17505085,7.38403499 L1.47457627,7.38403499 L1.47457627,36.170257 C1.47457627,37.8044286 2.05408475,38.3845817 3.68644068,38.3845817 L18.4012373,38.3845817 C18.8082203,38.3845817 19.1385254,38.7152542 19.1385254,39.12269 C19.1385254,39.5301258 18.8082203,39.8607983 18.4012373,39.8607983" id="Fill-4" fill="#3F3F3F"></path>
                <path d="M17.4707797,36.9083652 L3.68644068,36.9083652 C3.27945763,36.9083652 2.94915254,36.5776927 2.94915254,36.170257 L2.94915254,9.59835976 C2.94915254,9.190924 3.27945763,8.8602515 3.68644068,8.8602515 L8.17505085,8.8602515 C8.5820339,8.8602515 8.91233898,9.190924 8.91233898,9.59835976 C8.91233898,10.0057955 8.5820339,10.336468 8.17505085,10.336468 L4.42372881,10.336468 L4.42372881,35.4321487 L17.4707797,35.4321487 C17.8777627,35.4321487 18.2080678,35.7628212 18.2080678,36.170257 C18.2080678,36.5776927 17.8777627,36.9083652 17.4707797,36.9083652" id="Fill-5" fill="#3F3F3F"></path>
                <path d="M30.2288136,18.2297977 C29.8218305,18.2297977 29.4915254,17.8991252 29.4915254,17.4916894 L29.4915254,7.38403499 L22.8559322,7.38403499 C22.4489492,7.38403499 22.1186441,7.05336249 22.1186441,6.64592674 C22.1186441,6.23849098 22.4489492,5.90781848 22.8559322,5.90781848 L30.2288136,5.90781848 C30.6357966,5.90781848 30.9661017,6.23849098 30.9661017,6.64592674 L30.9661017,17.4916894 C30.9661017,17.8991252 30.6357966,18.2297977 30.2288136,18.2297977" id="Fill-6" fill="#3F3F3F"></path>
                <path d="M22.8559322,13.288901 L8.11016949,13.288901 C7.70318644,13.288901 7.37288136,12.9582285 7.37288136,12.5507928 L7.37288136,3.69349371 C7.37288136,3.28605796 7.70318644,2.95538546 8.11016949,2.95538546 L11.2259492,2.95538546 C11.4471356,1.7876982 12.3245085,0.00295243302 15.611339,0.00295243302 C18.8981695,0.00295243302 19.7755424,1.7876982 19.9967288,2.95538546 L22.8559322,2.95538546 C23.2629153,2.95538546 23.5932203,3.28605796 23.5932203,3.69349371 L23.5932203,12.5507928 C23.5932203,12.9582285 23.2629153,13.288901 22.8559322,13.288901 L22.8559322,13.288901 Z M8.84745763,11.8126845 L22.1186441,11.8126845 L22.1186441,4.43160197 L19.3302203,4.43160197 C18.9232373,4.43160197 18.5929322,4.10092947 18.5929322,3.69349371 C18.5929322,2.22465828 17.5902203,1.47916894 15.611339,1.47916894 C13.6339322,1.47916894 12.6297458,2.22465828 12.6297458,3.69349371 C12.6297458,4.10092947 12.3009153,4.43160197 11.8924576,4.43160197 L8.84745763,4.43160197 L8.84745763,11.8126845 L8.84745763,11.8126845 Z" id="Fill-7" fill="#3F3F3F"></path>
                <path d="M27.279661,18.4556588 C26.872678,18.4556588 26.5423729,18.1249863 26.5423729,17.7175506 L26.5423729,10.336468 L22.8559322,10.336468 C22.4489492,10.336468 22.1186441,10.0057955 22.1186441,9.59835976 C22.1186441,9.190924 22.4489492,8.8602515 22.8559322,8.8602515 L27.279661,8.8602515 C27.6866441,8.8602515 28.0169492,9.190924 28.0169492,9.59835976 L28.0169492,17.7175506 C28.0169492,18.1249863 27.6866441,18.4556588 27.279661,18.4556588" id="Fill-8" fill="#3F3F3F"></path>
                <path d="M19.3302203,17.7175506 L10.0330169,17.7175506 C9.6260339,17.7175506 9.29572881,17.3868781 9.29572881,16.9794423 C9.29572881,16.5720066 9.6260339,16.2413341 10.0330169,16.2413341 L19.3302203,16.2413341 C19.7372034,16.2413341 20.0675085,16.5720066 20.0675085,16.9794423 C20.0675085,17.3868781 19.7372034,17.7175506 19.3302203,17.7175506" id="Fill-9" fill="#3F3F3F"></path>
                <path d="M19.3302203,22.1462001 L10.0330169,22.1462001 C9.6260339,22.1462001 9.29572881,21.8155276 9.29572881,21.4080919 C9.29572881,21.0006561 9.6260339,20.6699836 10.0330169,20.6699836 L19.3302203,20.6699836 C19.7372034,20.6699836 20.0675085,21.0006561 20.0675085,21.4080919 C20.0675085,21.8155276 19.7372034,22.1462001 19.3302203,22.1462001" id="Fill-10" fill="#3F3F3F"></path>
                <path d="M19.3302203,26.5748496 L10.0330169,26.5748496 C9.6260339,26.5748496 9.29572881,26.2441771 9.29572881,25.8367414 C9.29572881,25.4293056 9.6260339,25.0986331 10.0330169,25.0986331 L19.3302203,25.0986331 C19.7372034,25.0986331 20.0675085,25.4293056 20.0675085,25.8367414 C20.0675085,26.2441771 19.7372034,26.5748496 19.3302203,26.5748496" id="Fill-11" fill="#3F3F3F"></path>
                <path d="M15.611339,31.0034992 L10.0330169,31.0034992 C9.6260339,31.0034992 9.29572881,30.6728267 9.29572881,30.2653909 C9.29572881,29.8579552 9.6260339,29.5272827 10.0330169,29.5272827 L15.611339,29.5272827 C16.018322,29.5272827 16.3486271,29.8579552 16.3486271,30.2653909 C16.3486271,30.6728267 16.018322,31.0034992 15.611339,31.0034992" id="Fill-12" fill="#3F3F3F"></path>
            </g>
        </g>
    </g>
</svg>
