<?xml version="1.0" encoding="UTF-8" standalone="no"?>
<svg width="36px" height="45px" viewBox="0 0 36 45" version="1.1" xmlns="http://www.w3.org/2000/svg" xmlns:xlink="http://www.w3.org/1999/xlink">
    <!-- Generator: Sketch 39.1 (31720) - http://www.bohemiancoding.com/sketch -->
    <title>Imported Layers</title>
    <desc>Created with Sketch.</desc>
    <defs></defs>
    <g id="Page-1" stroke="none" stroke-width="1" fill="none" fill-rule="evenodd">
        <g id="1.-Homepage" transform="translate(-184.000000, -1042.000000)">
            <g id="Selecteer-het-produc-+-Imported-Layers" transform="translate(111.000000, 1042.000000)">
                <g id="Imported-Layers" transform="translate(73.000000, 0.000000)">
                    <path d="M28.4516129,44.2741935 L14.2258065,44.2741935 C13.9896581,44.2741935 13.7677355,44.1536438 13.6354355,43.9532117 L6.39876774,32.9643036 C5.7771,31.994096 5.44137097,30.3659483 6.0345871,29.2446904 C6.4016129,28.5518924 7.05884516,28.1699095 7.8867871,28.1699095 C9.70057742,28.1699095 11.3678419,28.5228443 14.2258065,32.4951763 L14.2258065,15.2246098 C14.2258065,13.3408385 15.8731548,11.6879998 17.7509613,11.6879998 C19.6614871,11.6879998 21.3387097,13.3408385 21.3387097,15.2246098 L21.3387097,25.6020547 L28.7446645,28.2091245 C30.9667355,28.9382326 31.4745968,31.5351355 31.0008774,33.6382203 L29.1501,43.6830641 C29.0875065,44.025832 28.7930323,44.2741935 28.4516129,44.2741935 L28.4516129,44.2741935 Z M14.6042129,42.821787 L27.8612419,42.821787 L29.608171,33.3404769 C29.9467452,31.8372361 29.6750323,30.0406092 28.295129,29.5874583 L20.3955387,26.8060998 C20.1096,26.7044313 19.916129,26.428474 19.916129,26.1191114 L19.916129,15.2246098 C19.916129,14.1338524 18.8833355,13.1404064 17.7509613,13.1404064 C16.6513065,13.1404064 15.6483871,14.1338524 15.6483871,15.2246098 L15.6483871,34.8335509 C15.6483871,35.1559851 15.4406903,35.4392044 15.1391032,35.5292536 C14.8375161,35.616398 14.5117452,35.4987531 14.3410355,35.2286054 C10.7760484,29.6223161 9.30794516,29.6223161 7.8867871,29.6223161 C7.5041129,29.6223161 7.36754516,29.7806284 7.28645806,29.9360359 C7.01474516,30.4487354 7.15415806,31.4886585 7.58377742,32.1611228 L14.6042129,42.821787 L14.6042129,42.821787 Z" id="Fill-1" fill="#404040"></path>
                    <path d="M29.1629032,23.9390492 L26.3177419,23.9390492 C25.9251097,23.9390492 25.6064516,23.6151625 25.6064516,23.2128459 C25.6064516,22.8119817 25.9251097,22.4866426 26.3177419,22.4866426 L29.1629032,22.4866426 C31.6111645,22.4866426 34.1419355,20.8570425 34.1419355,18.1294229 L34.1419355,7.23637366 C34.1419355,4.62494665 31.7221258,2.15295067 29.1629032,2.15295067 L6.4016129,2.15295067 C3.84239032,2.15295067 1.42258065,4.62494665 1.42258065,7.23637366 L1.42258065,18.1294229 C1.42258065,20.8570425 3.95477419,22.4866426 6.4016129,22.4866426 L9.24677419,22.4866426 C9.63940645,22.4866426 9.95806452,22.8119817 9.95806452,23.2128459 C9.95806452,23.6151625 9.63940645,23.9390492 9.24677419,23.9390492 L6.4016129,23.9390492 C2.81244194,23.9390492 0,21.3886233 0,18.1294229 L0,7.23637366 C0,3.8174086 3.05143548,0.700544101 6.4016129,0.700544101 L29.1629032,0.700544101 C32.5130806,0.700544101 35.5645161,3.8174086 35.5645161,7.23637366 L35.5645161,18.1294229 C35.5645161,21.3886233 32.7520742,23.9390492 29.1629032,23.9390492" id="Fill-2" fill="#1573DD"></path>
                </g>
            </g>
        </g>
    </g>
</svg>