<?xml version="1.0" encoding="UTF-8" standalone="no"?>
<svg width="45px" height="45px" viewBox="0 0 45 45" version="1.1" xmlns="http://www.w3.org/2000/svg" xmlns:xlink="http://www.w3.org/1999/xlink">
    <!-- Generator: Sketch 39.1 (31720) - http://www.bohemiancoding.com/sketch -->
    <title>Page 1</title>
    <desc>Created with Sketch.</desc>
    <defs></defs>
    <g id="Page-1" stroke="none" stroke-width="1" fill="none" fill-rule="evenodd">
        <g id="1.-Homepage" transform="translate(-278.000000, -1063.000000)">
            <g id="Page-1" transform="translate(278.000000, 1063.000000)">
                <path d="M10.5,45 C10.46475,45 10.4295,44.99775 10.3935,44.9925 C10.11225,44.95275 9.87825,44.757 9.78825,44.487 L7.74825,38.36475 L0.897,39.735 C0.606,39.79575 0.30975,39.675 0.13875,39.435 C-0.03225,39.19425 -0.0465,38.87475 0.1035,38.61975 L7.52475,26.004 L8.81775,26.7645 L2.24625,37.93575 L8.103,36.765 C8.472,36.6855 8.84175,36.90375 8.96175,37.263 L10.737,42.59025 L16.815,33.81675 L18.048,34.671 L11.1165,44.67675 C10.9755,44.8815 10.74375,45 10.5,45" id="Fill-1" fill="#3F3F3F"></path>
                <path d="M34.442175,45 C34.181925,45 33.938175,44.865 33.801675,44.64 L27.832425,34.8345 L29.114175,34.05525 L34.250175,42.49275 L36.040425,37.25775 C36.153675,36.92775 36.486675,36.72825 36.824925,36.75375 L42.838425,37.35525 L37.085175,27.7665 L38.371425,26.99475 L44.893425,37.86375 C45.038925,38.1075 45.035175,38.412 44.883675,38.65125 C44.731425,38.8905 44.456175,39.02025 44.175675,38.99625 L37.267425,38.3055 L35.151675,44.49225 C35.057175,44.7675 34.812675,44.964 34.523175,44.9955 C34.496175,44.9985 34.469175,45 34.442175,45" id="Fill-3" fill="#3F3F3F"></path>
                <path d="M23.25,1.5 C14.15175,1.5 6.75,8.90175 6.75,18 C6.75,27.09825 14.15175,34.5 23.25,34.5 C32.34825,34.5 39.75,27.09825 39.75,18 C39.75,8.90175 32.34825,1.5 23.25,1.5 M23.25,36 C13.32525,36 5.25,27.92475 5.25,18 C5.25,8.07525 13.32525,0 23.25,0 C33.17475,0 41.25,8.07525 41.25,18 C41.25,27.92475 33.17475,36 23.25,36" id="Fill-5" fill="#3F3F3F"></path>
                <path d="M23.25,21.740475 C23.38875,21.740475 23.526,21.778725 23.64825,21.855225 L27.87825,24.505725 L26.289,19.737225 C26.19075,19.443975 26.283,19.121475 26.51925,18.924225 L29.4285,16.500225 L26.25,16.500225 C25.96575,16.500225 25.70625,16.339725 25.57875,16.085475 L23.25,11.427225 L20.92125,16.085475 C20.79375,16.339725 20.53425,16.500225 20.25,16.500225 L17.0715,16.500225 L19.98,18.924225 C20.21775,19.121475 20.30925,19.443975 20.21175,19.737225 L18.6225,24.505725 L22.85175,21.855225 C22.97325,21.778725 23.112,21.740475 23.25,21.740475 M29.25,27.000225 C29.112,27.000225 28.974,26.961975 28.85175,26.885475 L23.25,23.375475 L17.64825,26.885475 C17.37975,27.052725 17.03475,27.034725 16.7865,26.839725 C16.5375,26.643975 16.4385,26.313225 16.53825,26.012475 L18.62625,19.748475 L14.52,16.326225 C14.27775,16.123725 14.18775,15.791475 14.295,15.494475 C14.40225,15.197475 14.68425,15.000225 15,15.000225 L19.7865,15.000225 L22.57875,9.414225 C22.833,8.906475 23.66625,8.906475 23.92125,9.414225 L26.7135,15.000225 L31.5,15.000225 C31.81575,15.000225 32.09775,15.197475 32.205,15.494475 C32.313,15.791475 32.223,16.123725 31.98075,16.326225 L27.873,19.748475 L29.961,26.012475 C30.0615,26.313225 29.9625,26.643975 29.7135,26.839725 C29.5785,26.945475 29.41425,27.000225 29.25,27.000225" id="Fill-7" fill="#1B76DD"></path>
            </g>
        </g>
    </g>
</svg>