<?xml version="1.0" encoding="UTF-8" standalone="no"?>
<svg id="PT" class="icon" width="38px" height="45px" viewBox="0 0 38 45" version="1.1" xmlns="http://www.w3.org/2000/svg" xmlns:xlink="http://www.w3.org/1999/xlink">
    <!-- Generator: Sketch 39.1 (31720) - http://www.bohemiancoding.com/sketch -->
    <title>Imported Layers</title>
    <desc>Created with Sketch.</desc>
    <defs>
        <path d="M21.75,26.25 C21.555,26.25 21.363,26.1735 21.2205,26.0295 L14.25,19.0605 L7.2795,26.0295 C7.065,26.2455 6.744,26.3085 6.4635,26.193 C6.183,26.0775 6,25.803 6,25.5 L6,0.75 C6,0.336 6.336,0 6.75,0 L21.75,0 C22.164,0 22.5,0.336 22.5,0.75 L22.5,25.5 C22.5,25.803 22.317,26.0775 22.0365,26.193 C21.9435,26.232 21.846,26.25 21.75,26.25 L21.75,26.25 Z M14.25,17.25 C14.442,17.25 14.634,17.3235 14.7795,17.469 L21,23.6895 L21,1.5 L7.5,1.5 L7.5,23.6895 L13.719,17.469 C13.866,17.3235 14.058,17.25 14.25,17.25 L14.25,17.25 Z" id="path-1"></path>
    </defs>
    <g class="wrapper" id="Page-1" stroke="none" stroke-width="1" fill="none" fill-rule="evenodd">
        <g id="1.-Homepage" transform="translate(-424.000000, -1063.000000)">
            <g id="Imported-Layers" transform="translate(424.000000, 1063.000000)">
                <path d="M0.75,45 C0.336,45 0,44.664 0,44.25 L0,2.25 C0,1.836 0.336,1.5 0.75,1.5 L6.75,1.5 C7.164,1.5 7.5,1.836 7.5,2.25 C7.5,2.664 7.164,3 6.75,3 L1.5,3 L1.5,43.5 L36,43.5 L36,3 L21.75,3 C21.336,3 21,2.664 21,2.25 C21,1.836 21.336,1.5 21.75,1.5 L36.75,1.5 C37.164,1.5 37.5,1.836 37.5,2.25 L37.5,44.25 C37.5,44.664 37.164,45 36.75,45 L0.75,45 Z" id="Fill-1" fill="#3D3D3F"></path>
                <g class="inner" id="Fill-2">
                    <use fill="#1573DD" fill-rule="evenodd" xlink:href="#path-1"></use>
                    <use xlink:href="#path-1"></use>
                </g>
                <path d="M33.3088235,13.5 L26.6911765,13.5 C26.4476471,13.5 26.25,13.164 26.25,12.75 C26.25,12.336 26.4476471,12 26.6911765,12 L33.3088235,12 C33.5523529,12 33.75,12.336 33.75,12.75 C33.75,13.164 33.5523529,13.5 33.3088235,13.5" id="Fill-3" fill="#3D3D3F"></path>
                <path d="M33.3088235,19.5 L26.6911765,19.5 C26.4476471,19.5 26.25,19.164 26.25,18.75 C26.25,18.336 26.4476471,18 26.6911765,18 L33.3088235,18 C33.5523529,18 33.75,18.336 33.75,18.75 C33.75,19.164 33.5523529,19.5 33.3088235,19.5" id="Fill-4" fill="#3D3D3F"></path>
                <path d="M33.3088235,25.5 L26.6911765,25.5 C26.4476471,25.5 26.25,25.164 26.25,24.75 C26.25,24.336 26.4476471,24 26.6911765,24 L33.3088235,24 C33.5523529,24 33.75,24.336 33.75,24.75 C33.75,25.164 33.5523529,25.5 33.3088235,25.5" id="Fill-5" fill="#3D3D3F"></path>
                <path d="M30.9204545,31.5 L6.57954545,31.5 C6.25963636,31.5 6,31.164 6,30.75 C6,30.336 6.25963636,30 6.57954545,30 L30.9204545,30 C31.2403636,30 31.5,30.336 31.5,30.75 C31.5,31.164 31.2403636,31.5 30.9204545,31.5" id="Fill-6" fill="#3D3D3F"></path>
                <path d="M30.75,37.5 L6.75,37.5 C6.336,37.5 6,37.164 6,36.75 C6,36.336 6.336,36 6.75,36 L30.75,36 C31.164,36 31.5,36.336 31.5,36.75 C31.5,37.164 31.164,37.5 30.75,37.5" id="Fill-7" fill="#3D3D3F"></path>
            </g>
        </g>
    </g>
</svg>
